<?xml version="1.0" standalone="no"?>
<!DOCTYPE svg PUBLIC "-//W3C//DTD SVG 1.1//EN" "http://www.w3.org/Graphics/SVG/1.1/DTD/svg11.dtd" >
<svg>
<metadata>
Created by FontForge 20090622 at Tue Aug  7 12:14:04 2018
 By deploy user
Copyright (C) 1996-2005, Hoefler &#38; Frere-Jones, Inc. www.typography.com
</metadata>
<defs>
<font id="MercuryTextG4-Italic" horiz-adv-x="500" >
  <font-face 
    font-family="Mercury Text G4"
    font-weight="400"
    font-style="italic"
    font-stretch="normal"
    units-per-em="1000"
    panose-1="2 0 5 3 8 0 0 9 0 3"
    ascent="800"
    descent="-200"
    x-height="464"
    cap-height="637"
    bbox="-151 -266 1035 928"
    underline-thickness="20"
    underline-position="-90"
    slope="-12"
    unicode-range="U+0020-U+FB02"
  />
<missing-glyph 
 />
    <glyph glyph-name=".notdef" 
 />
    <glyph glyph-name="NUL" horiz-adv-x="0" 
 />
    <glyph glyph-name="nonmarkingreturn" horiz-adv-x="220" 
 />
    <glyph glyph-name="space" unicode=" " horiz-adv-x="220" 
 />
    <glyph glyph-name="ring" unicode="&#x2da;" horiz-adv-x="267" 
d="M185 539q26 0 47.5 10.5t36.5 27t23.5 37.5t8.5 42q0 38 -24.5 63.5t-64.5 25.5q-26 0 -47.5 -10.5t-36.5 -27t-23.5 -37.5t-8.5 -42q0 -38 24.5 -63.5t64.5 -25.5zM190 567q-17 0 -30 15t-13 47q0 12 3.5 27t11 28.5t19 23t26.5 9.5q17 0 30 -15t13 -47q0 -12 -4 -27
t-11.5 -28.5t-18.5 -23t-26 -9.5z" />
    <glyph glyph-name="hungarumlaut" unicode="&#x2dd;" horiz-adv-x="328" 
d="M239 525l43.5 38.5l40.5 37l34 32.5t24 26q17 20 15 39t-19 32q-16 11 -35 4t-33 -26q-9 -12 -20 -30.5t-22.5 -40.5l-23.5 -46.5l-24 -47.5zM92 525l43.5 38.5l40.5 37l34 32.5t24 26q17 20 15 39t-19 32q-16 11 -35 4t-33 -26q-9 -12 -20 -30.5t-22.5 -40.5
l-23.5 -46.5l-24 -47.5z" />
    <glyph glyph-name="ogonek" unicode="&#x2db;" horiz-adv-x="277" 
d="M48 -257q38 0 68 22.5t56 48.5l-22 22q-19 -12 -35.5 -25t-32.5 -13q-58 0 -59 62q0 21 8 39t25 38t44.5 43.5l65.5 54.5l-19 24q-104 -62 -152.5 -114.5t-48.5 -109.5q0 -43 27 -67.5t75 -24.5z" />
    <glyph glyph-name="caron" unicode="&#x2c7;" horiz-adv-x="307" 
d="M171 537h37l156 181l-26 24l-129 -108l-82 108l-34 -24z" />
    <glyph glyph-name="dotlessi" unicode="&#x131;" horiz-adv-x="284" 
d="M107 -11q26 0 61 12t65 30l-2 27q-32 -1 -50.5 0t-27 5.5t-9.5 13t2 21.5l83 364l-8 8l-172 -52l-5 -35l80 -26l-67 -297q-6 -27 6 -49t44 -22z" />
    <glyph glyph-name="fi" unicode="&#xfb01;" horiz-adv-x="565" 
d="M-48 -219q60 0 110 48q23 22 39 44.5t28 51.5t21.5 68t19.5 94l51 295h190l-73 -322q-6 -27 6 -49t44 -22q26 0 61 12t65 30l-2 27q-32 -1 -50.5 0t-27 5.5t-9.5 13t2 21.5l83 364l-8 8l-89 -27h-181l9 50q9 51 24 87.5t35 60.5t43 36t49 15q14 -38 35.5 -59.5
t54.5 -21.5q29 0 43 17t14 39q0 27 -28 50.5t-84 23.5q-38 0 -75.5 -10t-68.5 -31q-56 -38 -85.5 -90.5t-43.5 -137.5l-4 -24l-110 -28l-8 -38h105l-68 -392q-11 -59 -23.5 -93.5t-34.5 -54.5q-16 21 -33.5 32.5t-41.5 11.5q-26 0 -42 -14t-16 -34q0 -22 19 -39.5t55 -17.5z
" />
    <glyph glyph-name="fl" unicode="&#xfb02;" horiz-adv-x="565" 
d="M-48 -219q60 0 110 48q23 22 39 44.5t28 51.5t21.5 68t19.5 94l51 295h188l-71 -322q-6 -28 6 -49.5t44 -21.5q26 0 61.5 12t64.5 30l-2 27q-32 -1 -50 0t-27 5.5t-10 13t2 21.5l141 633l-7 9l-58 -17q-14 8 -33 13t-43 5q-38 0 -75.5 -10t-68.5 -31q-56 -38 -85.5 -90.5
t-43.5 -137.5l-4 -24l-110 -28l-8 -38h105l-68 -392q-11 -59 -23.5 -93.5t-34.5 -54.5q-16 21 -33.5 32.5t-41.5 11.5q-26 0 -42 -14t-16 -34q0 -22 19 -39.5t55 -17.5zM232 443l9 50q9 51 24 87.5t35 60.5t43 36t49 15q11 -32 27.5 -52t40.5 -26l-38 -171h-190z" />
    <glyph glyph-name="exclam" unicode="!" horiz-adv-x="278" 
d="M135 183l42.5 124.5l37.5 114.5t28.5 93.5t14.5 62.5q5 35 -10.5 54.5t-44.5 19.5q-21 0 -39 -14.5t-23 -46.5q-3 -20 -7.5 -60.5t-10 -95t-11 -118.5l-11.5 -130zM90 -15q28 0 48 19t20 47q0 27 -19.5 46.5t-45.5 19.5q-28 0 -47.5 -20t-19.5 -46q0 -27 19 -46.5
t45 -19.5z" />
    <glyph glyph-name="quotedbl" unicode="&#x22;" horiz-adv-x="399" 
d="M258 408l55 69l33.5 42.5l22 29t13.5 19t8 13.5q9 16 9 33q0 15 -12.5 26.5t-29.5 11.5q-29 0 -50 -34q-4 -6 -8 -14.5t-9.5 -22l-13 -33.5t-17.5 -50l-27 -77zM90 408l55 69l33.5 42.5l22 29t13.5 19t8 13.5q9 16 9 33q0 15 -12.5 26.5t-29.5 11.5q-29 0 -50 -34
q-4 -6 -8 -14.5t-9.5 -22l-13 -33.5t-17.5 -50l-27 -77z" />
    <glyph glyph-name="numbersign" unicode="#" horiz-adv-x="629" 
d="M170 20l42 150h130l-40 -138l59 -12l42 150h136l1 51h-123l21 80l25 82h115l2 51h-102l42 146l-58 14l-45 -160h-130l42 146l-58 14l-45 -160h-138l-2 -51h126l-19 -74l-27 -88h-118l-1 -51h104l-40 -138zM225 221l21 80l25 82h133l-19 -73l-27 -89h-133z" />
    <glyph glyph-name="dollar" unicode="$" horiz-adv-x="520" 
d="M205 -119l22 104q46 0 86 12t68.5 34.5t45 55.5t16.5 75q0 32 -9 57.5t-27 47.5t-45 41.5t-63 39.5l47 228q32 -11 57 -40.5t30 -90.5l38 3l26 135q-34 16 -67 26.5t-71 15.5l19 89l-48 5l-17 -91q-44 2 -82 -10t-66.5 -34.5t-44.5 -54.5t-16 -70q0 -29 7.5 -52.5
t24 -44.5t42.5 -41t64 -42l-51 -248q-54 8 -84.5 47.5t-32.5 119.5l-35 -2l-35 -161q39 -17 86.5 -29.5t89.5 -17.5l-21 -103zM261 371q-46 30 -62.5 55.5t-16.5 55.5q0 20 7.5 39t22.5 33t38 22t55 7zM234 29l46 227q48 -31 66 -56.5t18 -60.5q0 -49 -31 -78.5t-99 -31.5z
" />
    <glyph glyph-name="percent" unicode="%" horiz-adv-x="768" 
d="M185 302q39 0 71.5 19t56.5 49t37 66t13 70q0 59 -33.5 90t-82.5 31q-39 0 -71.5 -19t-56.5 -49t-37 -66t-13 -70q0 -59 33.5 -90t82.5 -31zM151 -32l252 325l260 320l-45 30l-252 -325l-259 -319zM522 -16q39 0 71.5 19t56.5 49t37 66t13 70q0 59 -33.5 90t-82.5 31
q-39 0 -71.5 -19t-56.5 -49t-37 -66t-13 -70q0 -59 33.5 -90t82.5 -31zM205 343q-34 0 -50 26.5t-16 64.5q0 27 5.5 54t16.5 49t27.5 35.5t38.5 13.5q34 0 50 -26.5t16 -64.5q0 -27 -5.5 -54t-16.5 -49t-27.5 -35.5t-38.5 -13.5zM542 25q-34 0 -50 26.5t-16 64.5
q0 27 5.5 54t16.5 49t27.5 35.5t38.5 13.5q34 0 50 -26.5t16 -64.5q0 -27 -5.5 -54t-16.5 -49t-27.5 -35.5t-38.5 -13.5z" />
    <glyph glyph-name="ampersand" unicode="&#x26;" horiz-adv-x="683" 
d="M190 -11q54 0 97 22t84 54l9 -2q3 -34 23.5 -54t67.5 -20q31 0 65.5 13t66.5 33v30q-32 -3 -59 -3q-26 0 -39.5 3.5t-22.5 10.5q-21 16 -9 62l43 173h121l14 60h-122l28 111l-35 8l-57 -89l-124 -44q-60 10 -95 37.5t-35 70.5q0 45 28 74t64 43q12 -28 31.5 -45t47.5 -18
t45 14t17 37q0 24 -22 43t-69 19q-39 0 -80 -14t-74 -38.5t-54 -57.5t-21 -70q0 -45 24.5 -73.5t66.5 -46.5l-1 -9q-94 -26 -139.5 -75t-45.5 -117q0 -33 13 -59.5t35 -45t51 -28t62 -9.5zM231 55q-47 0 -76 26t-29 77q0 61 47.5 100t147.5 53h117l-43 -182
q-45 -35 -87.5 -54.5t-76.5 -19.5z" />
    <glyph glyph-name="quotesingle" unicode="'" horiz-adv-x="241" 
d="M95 408l55 69l33.5 42.5l22 29t13.5 19t8 13.5q9 16 9 33q0 15 -12.5 26.5t-29.5 11.5q-29 0 -50 -34q-4 -6 -8 -14.5t-9.5 -22l-13 -33.5t-17.5 -50l-27 -77z" />
    <glyph glyph-name="parenleft" unicode="(" horiz-adv-x="361" 
d="M308 -175l23 33q-44 37 -78 75.5t-57 83.5t-35 97.5t-12 116.5q0 74 19.5 142.5t59 129t99 111.5t138.5 90l-10 37q-93 -36 -166.5 -90.5t-124.5 -120.5t-78 -140.5t-27 -150.5t16.5 -135t48.5 -108t78.5 -90t105.5 -81z" />
    <glyph glyph-name="parenright" unicode=")" horiz-adv-x="361" 
d="M-109 -175q93 36 166.5 90.5t124.5 120.5t78 140.5t27 150.5t-16.5 135t-48.5 108t-78.5 90t-105.5 81l-23 -33q44 -37 78 -75.5t57 -83.5t35 -97.5t12 -116.5q0 -74 -19.5 -142.5t-59 -129t-99 -111.5t-138.5 -90z" />
    <glyph glyph-name="asterisk" unicode="*" horiz-adv-x="424" 
d="M76 564l128 -86l-3 -13l-151 -26l15 -62l143 70l8 -7l-55 -147l66 -14l9 157l11 2l102 -122l39 51l-128 86l3 13l152 26l-16 62l-142 -70l-9 7l56 147l-67 14l-9 -157l-11 -2l-101 121z" />
    <glyph glyph-name="plus" unicode="+" horiz-adv-x="520" 
d="M473 276l13 61h-182l39 187h-68l-39 -187h-183l-13 -61h183l-41 -190h68l41 190h182z" />
    <glyph glyph-name="comma" unicode="," horiz-adv-x="231" 
d="M-8 -165q37 16 70 38t58 47.5t39.5 54.5t14.5 61q0 38 -21 58t-50 20q-27 0 -48.5 -20.5t-21.5 -48.5q0 -26 15 -38.5t34 -12.5q7 0 13 2l3 1l7 -5q-7 -23 -40.5 -59t-91.5 -71z" />
    <glyph glyph-name="hyphen" unicode="-" horiz-adv-x="366" 
d="M23 197h266l12 75h-266z" />
    <glyph glyph-name="period" unicode="." horiz-adv-x="231" 
d="M107 -16q27 0 46.5 19.5t19.5 46.5t-19.5 46.5t-46.5 19.5q-28 0 -47.5 -19.5t-19.5 -46.5t19.5 -46.5t47.5 -19.5z" />
    <glyph glyph-name="slash" unicode="/" horiz-adv-x="416" 
d="M-69 -210l273 468l275 457l-54 26l-275 -466l-274 -458z" />
    <glyph glyph-name="zero" unicode="0" horiz-adv-x="555" 
d="M217 -13q59 0 114.5 33t99 91t70 136t26.5 168q0 47 -11.5 86t-34.5 66.5t-57.5 43t-79.5 15.5q-59 0 -114.5 -33t-99 -91t-70 -136t-26.5 -168q0 -47 11.5 -86t34.5 -66.5t57.5 -43t79.5 -15.5zM239 44q-49 0 -75.5 39t-26.5 127q0 81 17.5 147.5t44.5 113.5t60 72.5
t63 25.5q49 0 75.5 -39t26.5 -127q0 -81 -17.5 -147.5t-44.5 -113.5t-60 -72.5t-63 -25.5z" />
    <glyph glyph-name="one" unicode="1" horiz-adv-x="390" 
d="M-13 0h312l9 42l-104 33l112 536l-8 8l-199 -31l-7 -38l103 -41l-91 -434l-118 -33z" />
    <glyph glyph-name="two" unicode="2" horiz-adv-x="499" 
d="M-27 0h392l61 158l-29 10l-77 -94h-210l-2 7q106 79 173.5 135.5t105.5 100.5t52 82t14 80q0 69 -44 109t-119 40q-68 0 -116 -31t-89 -86l35 -35q38 39 70 57.5t69 18.5q43 0 68 -26t25 -68q0 -22 -6 -44t-21.5 -48t-43.5 -57.5t-73 -73.5q-46 -43 -106.5 -91.5
t-135.5 -102.5z" />
    <glyph glyph-name="three" unicode="3" horiz-adv-x="471" 
d="M171 -15q50 0 91 15t69.5 41t44 60.5t15.5 73.5q0 59 -28.5 94t-85.5 58v14q78 34 115.5 73t37.5 94q0 28 -11 50.5t-30.5 38t-45.5 23.5t-57 8q-112 0 -193 -101l34 -38q34 32 65 49t63 17q82 0 82 -69q0 -41 -44.5 -80t-143.5 -84l-7 -40q35 -3 64.5 -11.5t50.5 -23.5
t33 -36.5t12 -50.5q0 -57 -37.5 -88t-91.5 -31q-29 0 -44.5 3t-33.5 10q12 45 -0.5 75t-49.5 30q-26 0 -42.5 -19.5t-16.5 -48.5q0 -26 16 -46t42 -33.5t59 -20t68 -6.5z" />
    <glyph glyph-name="four" unicode="4" horiz-adv-x="543" 
d="M150 0h287l8 40l-97 31l23 112h117l11 63h-115l80 375l-83 6l-354 -404l6 -40h255l-25 -112l-105 -31zM119 246l232 276h10l-58 -276h-184z" />
    <glyph glyph-name="five" unicode="5" horiz-adv-x="464" 
d="M176 -15q44 0 84.5 14.5t71.5 42.5t49.5 69t18.5 94q0 83 -58.5 133.5t-177.5 62.5l36 123h223l34 135l-43 7l-48 -54h-206l-82 -286q116 -6 174.5 -41t58.5 -105q0 -35 -11.5 -61t-30.5 -43.5t-44 -26t-52 -8.5q-24 0 -39.5 4t-27.5 10q20 45 7 76.5t-54 31.5
q-26 0 -42 -20t-16 -48q0 -25 13.5 -45t37 -34.5t55.5 -22.5t69 -8z" />
    <glyph glyph-name="six" unicode="6" horiz-adv-x="496" 
d="M221 -15q44 0 84 19t70.5 52.5t48.5 79t18 98.5q0 40 -12.5 72.5t-34.5 55t-52.5 34.5t-65.5 12q-41 0 -87 -20l-8 6q46 59 121 112t180 85l-4 48q-113 -26 -195.5 -70.5t-137 -103t-81 -127.5t-26.5 -144q0 -50 13.5 -89t37.5 -65.5t57.5 -40.5t73.5 -14zM232 37
q-40 0 -70 37t-30 118q0 46 6.5 81.5t17.5 64.5q13 3 32 5.5t39 2.5q60 0 91.5 -34.5t31.5 -97.5q0 -83 -34 -130t-84 -47z" />
    <glyph glyph-name="seven" unicode="7" horiz-adv-x="453" 
d="M-13 -15h110l400 605l-9 22h-302l-18 45l-43 -8l-58 -197l43 -8l71 82h207l-210 -297z" />
    <glyph glyph-name="eight" unicode="8" horiz-adv-x="498" 
d="M324 313q68 30 110.5 70.5t42.5 99.5q0 32 -14.5 58.5t-39.5 45t-59 29t-73 10.5q-40 0 -75.5 -12.5t-62.5 -34.5t-42.5 -52.5t-15.5 -66.5q0 -53 25.5 -87t61.5 -59q-80 -29 -121.5 -73t-41.5 -103q0 -33 16 -61t43.5 -48t65 -31t81.5 -11q37 0 73.5 10.5t66 31.5
t48 52.5t18.5 74.5q0 29 -9 52t-23.5 42t-34 34t-40.5 29zM281 340q-20 13 -38.5 27t-32.5 31t-22.5 37t-8.5 46q0 42 31 69t75 27q22 0 41.5 -7t33.5 -19.5t22.5 -29.5t8.5 -36q0 -26 -7 -46.5t-21 -37.5t-34.5 -31.5t-47.5 -29.5zM224 286l45 -29.5t39 -32.5t27.5 -39.5
t10.5 -49.5q0 -26 -9 -44.5t-24.5 -31t-35.5 -18.5t-42 -6q-58 0 -92 27.5t-34 73.5q0 50 30.5 87t84.5 63z" />
    <glyph glyph-name="nine" unicode="9" horiz-adv-x="496" 
d="M27 -26q112 26 195 70.5t137.5 103t81 127.5t26.5 144q0 50 -13.5 89t-37.5 65.5t-57.5 40.5t-73.5 14q-44 0 -84 -18.5t-70.5 -51.5t-48.5 -78t-18 -98q0 -41 12.5 -73t35 -54t53 -33.5t66.5 -11.5q45 0 89 19l8 -6q-48 -65 -124 -117t-181 -84zM281 271q-60 0 -92.5 33
t-32.5 97q0 83 34 129t84 46q40 0 70 -37t30 -118q0 -46 -5.5 -79.5t-16.5 -62.5q-13 -3 -32 -5.5t-39 -2.5z" />
    <glyph glyph-name="colon" unicode=":" horiz-adv-x="241" 
d="M168 269q27 0 46.5 19.5t19.5 46.5t-19.5 46.5t-46.5 19.5q-28 0 -47.5 -19.5t-19.5 -46.5t19.5 -46.5t47.5 -19.5zM116 -16q27 0 46.5 19.5t19.5 46.5t-19.5 46.5t-46.5 19.5q-28 0 -47.5 -19.5t-19.5 -46.5t19.5 -46.5t47.5 -19.5z" />
    <glyph glyph-name="semicolon" unicode=";" horiz-adv-x="241" 
d="M168 269q27 0 46.5 19.5t19.5 46.5t-19.5 46.5t-46.5 19.5q-28 0 -47.5 -19.5t-19.5 -46.5t19.5 -46.5t47.5 -19.5zM2 -165q37 16 70 38t58 47.5t39.5 54.5t14.5 61q0 38 -21 58t-50 20q-27 0 -48.5 -20.5t-21.5 -48.5q0 -26 15 -38.5t34 -12.5q7 0 13 2l3 1l7 -5
q-7 -23 -40.5 -59t-91.5 -71z" />
    <glyph glyph-name="less" unicode="&#x3c;" horiz-adv-x="520" 
d="M383 85l30 58l-276 159l344 162l-3 65l-411 -195l-12 -55z" />
    <glyph glyph-name="equal" unicode="=" horiz-adv-x="520" 
d="M59 373h429l12 63h-429zM17 176h429l13 63h-429z" />
    <glyph glyph-name="greater" unicode="&#x3e;" horiz-adv-x="520" 
d="M42 85l408 192l12 57l-327 195l-30 -59l276 -160l-342 -161z" />
    <glyph glyph-name="question" unicode="?" horiz-adv-x="414" 
d="M191 185q23 0 45.5 6.5t37.5 15.5l-8 31q-48 -8 -76.5 -1t-28.5 35q0 9 3.5 16.5t14.5 15t31 16t54 19.5q78 25 116.5 61t38.5 101q0 33 -12.5 60.5t-36.5 47.5t-58 31.5t-77 11.5q-66 0 -103 -26.5t-37 -63.5q0 -29 16.5 -43.5t41.5 -14.5q26 0 42.5 19t16.5 49
q0 13 -5 31q15 6 41 6q41 0 68 -24t27 -62q0 -20 -6 -35.5t-18.5 -27.5t-33 -22t-50.5 -19q-43 -14 -72.5 -28t-47.5 -30t-25.5 -35.5t-7.5 -43.5q0 -49 31.5 -73t77.5 -24zM132 -15q27 0 46.5 19.5t19.5 46.5t-19.5 46.5t-46.5 19.5t-46.5 -19.5t-19.5 -46.5t19.5 -46.5
t46.5 -19.5z" />
    <glyph glyph-name="at" unicode="@" horiz-adv-x="924" 
d="M473 -178q87 0 157.5 25t124.5 67l-19 25q-62 -35 -118.5 -51.5t-120.5 -16.5q-87 0 -155.5 26.5t-116 74.5t-73 115.5t-25.5 148.5t28.5 150t78 119.5t116.5 78.5t143 28q74 0 133.5 -24t101.5 -65t65 -96.5t23 -119.5q0 -57 -14.5 -100t-38 -72t-52.5 -43.5t-58 -14.5
q-38 0 -50.5 27.5t-0.5 80.5l61 274l-24 5l-45 -46q-14 10 -30 16.5t-41 6.5q-41 0 -83 -25.5t-77 -66t-57 -90t-22 -96.5q0 -53 26 -84.5t77 -31.5q39 0 68 21.5t55 53.5l14 -2q6 -36 35.5 -58.5t82.5 -22.5q42 0 83.5 18.5t75.5 54.5t55 89.5t21 122.5q0 73 -27.5 133
t-76 103.5t-115 67.5t-144.5 24q-95 0 -178 -33t-144.5 -91t-96.5 -137.5t-35 -173.5q0 -92 31.5 -165.5t87 -124.5t131 -78t163.5 -27zM419 103q-24 0 -39 19t-15 60q0 40 11 78.5t29.5 67.5t43 47t52.5 18q20 0 33.5 -8.5t27.5 -26.5l-42 -185q-35 -39 -57 -54.5
t-44 -15.5z" />
    <glyph glyph-name="A" unicode="A" horiz-adv-x="688" 
d="M-70 0h233l9 41l-68 32l74 139h229l20 -149l-106 -22l-9 -41h307l9 43l-95 27l-87 573h-84l-326 -569l-97 -31zM209 267l148 270h8l35 -270h-191z" />
    <glyph glyph-name="B" unicode="B" horiz-adv-x="608" 
d="M-36 0h293q61 0 112.5 14.5t88 40.5t57 62t20.5 79q0 31 -11 54t-30 39t-45.5 27t-57.5 18v11q36 9 67.5 23.5t55 35t36.5 47t13 60.5q0 65 -53 95.5t-144 30.5h-270l-10 -43l108 -24l-104 -503l-117 -24zM247 355l48 230q14 3 25 4.5t32 1.5q59 0 83.5 -23t24.5 -63
q0 -31 -10 -58.5t-30 -47.5t-50.5 -32t-70.5 -12h-52zM249 46q-20 0 -36 2t-30 5l55 256h46q63 0 103.5 -24.5t40.5 -83.5q0 -77 -47 -116t-132 -39z" />
    <glyph glyph-name="C" unicode="C" horiz-adv-x="661" 
d="M349 -15q27 0 50 2.5t44 7.5t41.5 12.5t43.5 18.5l39 146l-31 14l-106 -131q-20 -6 -35 -8.5t-36 -2.5q-98 0 -150 58.5t-52 167.5q0 67 19 127t52 105t76.5 71.5t93.5 26.5q126 0 172 -165l45 2l41 214h-41l-45 -46q-34 21 -71.5 34t-88.5 13q-72 0 -138.5 -31.5
t-117 -85t-80.5 -124.5t-30 -150q0 -69 22.5 -121t63 -86.5t96.5 -51.5t123 -17z" />
    <glyph glyph-name="D" unicode="D" horiz-adv-x="710" 
d="M-37 0h288q99 0 178.5 31t135 83.5t85 121.5t29.5 146q0 64 -22 112t-62 79.5t-95.5 47.5t-122.5 16h-280l-10 -43l107 -24l-104 -503l-118 -24zM191 60l106 517h65q103 0 154.5 -51t51.5 -142q0 -66 -19.5 -125t-58 -103.5t-95.5 -70t-131 -25.5h-73z" />
    <glyph glyph-name="E" unicode="E" horiz-adv-x="628" 
d="M-37 0h538l59 195l-28 4l-74 -90q-12 -15 -22.5 -24.5t-23 -15t-28 -7.5t-37.5 -2h-156l46 235h41q22 0 38 -3.5t26 -12.5t15 -25.5t7 -42.5l2 -31h36l59 283h-36l-14 -33q-12 -28 -24 -44.5t-26 -25t-31.5 -11t-39.5 -2.5h-41l48 231h124q23 0 39 -2t27 -8t18.5 -16
t15.5 -26l32 -67l32 7l13 171h-501l-10 -43l107 -24l-104 -503l-118 -24z" />
    <glyph glyph-name="F" unicode="F" horiz-adv-x="595" 
d="M-37 0h332l9 43l-112 24l47 224h45q22 0 40 -3t30.5 -12t19 -25t6.5 -43v-31h36l59 283h-34l-16 -33q-13 -27 -26.5 -43.5t-28.5 -25.5t-33.5 -12t-40.5 -3h-47l48 235h122q24 0 40 -1.5t28 -7t21 -16t17 -27.5l32 -67l31 7l13 171h-504l-10 -43l107 -24l-104 -503
l-118 -24z" />
    <glyph glyph-name="G" unicode="G" horiz-adv-x="686" 
d="M287 -15q48 0 88 16t73 39l35 -54l37 6l53 242l89 22l9 43h-283l-9 -43l96 -22l-34 -142q-59 -43 -117 -43q-75 0 -122.5 51t-47.5 157q0 68 19 130.5t51.5 110t75.5 75.5t92 28q36 0 62 -10t45.5 -30.5t33.5 -51t26 -70.5l48 2l37 214h-43l-42 -46q-29 17 -66.5 30
t-96.5 13q-78 0 -143 -35t-112 -91t-73 -127.5t-26 -143.5q0 -71 20.5 -122t54.5 -84t78.5 -48.5t91.5 -15.5z" />
    <glyph glyph-name="H" unicode="H" horiz-adv-x="812" 
d="M-37 0h323l9 43l-103 24l48 233h322l-48 -233l-115 -24l-9 -43h323l9 43l-104 24l104 503l115 24l10 43h-323l-10 -43l104 -24l-44 -209h-322l44 209l112 24l10 43h-321l-10 -43l107 -24l-104 -503l-118 -24z" />
    <glyph glyph-name="I" unicode="I" horiz-adv-x="416" 
d="M-26 0h331l9 43l-107 24l104 503l118 24l12 43h-333l-10 -43l109 -24l-104 -503l-120 -24z" />
    <glyph glyph-name="J" unicode="J" horiz-adv-x="505" 
d="M112 -16q55 0 92 17t66 42q35 29 58 76.5t35 104.5l73 346l111 24l10 43h-329l-10 -43l114 -24l-76 -368q-18 -86 -59.5 -132.5t-106.5 -34.5q11 27 12 50t-5.5 40t-20.5 27t-34 10q-34 0 -52.5 -23.5t-18.5 -57.5q0 -18 7.5 -35.5t24.5 -31t43.5 -22t65.5 -8.5z" />
    <glyph glyph-name="K" unicode="K" horiz-adv-x="697" 
d="M-37 0h313l9 43l-93 24l46 221h73l127 -229l-83 -18l-9 -41h282l9 43l-87 23l-160 283l228 213l104 32l10 43h-244l-9 -41l73 -29l-229 -220h-74l47 223l102 24l10 43h-311l-10 -43l107 -24l-104 -503l-118 -24z" />
    <glyph glyph-name="L" unicode="L" horiz-adv-x="602" 
d="M-37 0h533l58 195l-29 4l-75 -90q-14 -17 -25.5 -26.5t-24 -14t-28 -5.5t-37.5 -1h-144l105 508l112 24l10 43h-321l-10 -43l107 -24l-104 -503l-118 -24z" />
    <glyph glyph-name="M" unicode="M" horiz-adv-x="947" 
d="M-14 0h241l9 43l-82 33l99 480h12l96 -556h50l330 556h12l-101 -489l-104 -24l-9 -43h308l9 43l-104 24l104 503l115 24l10 43h-258l-60 -103l-218 -372h-12l-61 372l-17 103h-237l-8 -43l82 -26l-101 -492l-96 -33z" />
    <glyph glyph-name="N" unicode="N" horiz-adv-x="759" 
d="M503 -6h63l117 567l95 33l10 43h-243l-10 -43l83 -33l-78 -374h-11l-162 348l-41 102h-212l-10 -43l83 -32l-100 -486l-96 -33l-9 -43h243l9 43l-82 33l91 444h10l206 -424z" />
    <glyph glyph-name="O" unicode="O" horiz-adv-x="704" 
d="M304 -13q77 0 142 34t112.5 88.5t74 124t26.5 141.5q0 62 -18.5 113t-52.5 87t-82 55.5t-108 19.5q-77 0 -142.5 -34t-112.5 -88.5t-73.5 -124t-26.5 -141.5q0 -62 18.5 -113t52.5 -87t82 -55.5t108 -19.5zM303 39q-38 0 -66 15t-46 41t-26.5 62.5t-8.5 78.5
q0 76 19.5 142t53 115t77.5 77t93 28q38 0 66 -15t46 -41t26.5 -62.5t8.5 -78.5q0 -76 -19.5 -142t-53 -115t-77.5 -77t-93 -28z" />
    <glyph glyph-name="P" unicode="P" horiz-adv-x="603" 
d="M-37 0h333l9 43l-113 24l42 205q20 -4 46 -7.5t51 -3.5q57 0 104.5 14.5t81.5 42t53 67t19 88.5q0 164 -233 164h-259l-10 -43l107 -24l-104 -503l-118 -24zM319 319q-20 0 -40 1.5t-34 3.5l53 257l24 4t29 2q61 0 94.5 -30.5t33.5 -84.5q0 -33 -9 -61t-28.5 -48.5
t-49.5 -32t-73 -11.5z" />
    <glyph glyph-name="Q" unicode="Q" horiz-adv-x="704" 
d="M447 -209h71l14 45q-41 6 -68 10.5t-50 23.5q-12 10 -21.5 21t-17.5 25t-16.5 32.5l-19.5 43.5q70 7 129 42.5t101.5 89t66 118.5t23.5 133q0 62 -18.5 113t-52.5 87t-82 55.5t-108 19.5q-77 0 -142.5 -34t-112.5 -88.5t-73.5 -124t-26.5 -141.5q0 -106 51 -175.5
t141 -89.5l28 -80q16 -45 29.5 -65.5t26.5 -30.5q11 -9 22 -15t25.5 -9.5t34 -4.5t46.5 -1zM303 39q-38 0 -66 15t-46 41t-26.5 62.5t-8.5 78.5q0 76 19.5 142t53 115t77.5 77t93 28q38 0 66 -15t46 -41t26.5 -62.5t8.5 -78.5q0 -76 -19.5 -142t-53 -115t-77.5 -77t-93 -28z
" />
    <glyph glyph-name="R" unicode="R" horiz-adv-x="657" 
d="M-37 0h323l9 43l-103 24l45 219h39q17 0 29 -2t21 -9t15.5 -19.5t12.5 -34.5l32 -115q9 -33 17.5 -53.5t20 -32.5t28 -16t42.5 -4h106l12 44q-24 2 -38.5 3.5t-23.5 4t-15 7t-14 12.5q-20 19 -29.5 51l-24.5 80q-14 42 -30.5 64.5t-49.5 35.5l2 11q46 9 83.5 25t64.5 39
t42 53.5t15 68.5q0 68 -57 103t-155 35h-285l-10 -43l107 -24l-104 -503l-118 -24zM248 338l50 245q11 2 26.5 4t33.5 2q59 0 91 -26.5t32 -76.5q0 -32 -11.5 -59t-33 -46.5t-53 -31t-71.5 -11.5h-64z" />
    <glyph glyph-name="S" unicode="S" horiz-adv-x="527" 
d="M-5 -6l44 -2l26 30q28 -13 70.5 -24t93.5 -11q48 0 88.5 13t69 38.5t44.5 62t16 83.5q0 28 -7 52.5t-22.5 47t-41 44t-61.5 44.5q-33 21 -55 37.5t-35 32.5t-18 32.5t-5 37.5q0 37 24 65t70 28q43 0 78.5 -34.5t50.5 -117.5h46l30 192h-44l-24 -28q-18 11 -52.5 21
t-72.5 10q-46 0 -83 -13t-63.5 -37t-40.5 -56.5t-14 -71.5q0 -58 32 -98.5t97 -80.5q35 -22 57.5 -41.5t35.5 -37.5t18 -36t5 -36q0 -51 -31.5 -80.5t-79.5 -29.5q-67 0 -108.5 43t-48.5 140l-46 -2z" />
    <glyph glyph-name="T" unicode="T" horiz-adv-x="632" 
d="M83 0h340l7 43l-113 24l106 516h67q39 0 60.5 -10.5t35.5 -44.5l31 -77l31 6l1 180h-531l-64 -180l30 -6l57 77q14 19 26.5 30t25.5 16.5t28 7t34 1.5h66l-106 -516l-125 -24z" />
    <glyph glyph-name="U" unicode="U" horiz-adv-x="733" 
d="M349 -15q107 0 169 56t85 161l77 359l95 33l10 43h-243l-10 -43l83 -33l-73 -338q-19 -86 -60.5 -126.5t-112.5 -40.5q-93 0 -128.5 51.5t-14.5 150.5l67 312l117 24l8 43h-328l-10 -43l107 -24l-64 -306q-29 -137 28.5 -208t197.5 -71z" />
    <glyph glyph-name="V" unicode="V" horiz-adv-x="678" 
d="M255 -6h53l336 570l93 30l10 43h-230l-10 -43l66 -30l-243 -435l-62 443l102 22l8 43h-312l-10 -43l103 -27z" />
    <glyph glyph-name="W" unicode="W" horiz-adv-x="973" 
d="M219 -6h47l258 458l60 -458h47l302 574l95 28l7 41h-235l-7 -41l73 -28l-214 -434l-50 444l99 18l7 41h-266l-9 -41l75 -23l6 -35l-223 -403l-30 443l88 18l7 41h-284l-7 -41l97 -23z" />
    <glyph glyph-name="X" unicode="X" horiz-adv-x="705" 
d="M-34 0h237l8 39l-62 28l182 207l104 -217l-96 -18l-8 -39h292l9 41l-89 27l-144 273l211 220l109 33l10 43h-237l-11 -41l62 -28l-166 -190l-93 200l96 18l9 41h-293l-10 -43l90 -27l136 -257l-228 -236l-109 -33z" />
    <glyph glyph-name="Y" unicode="Y" horiz-adv-x="659" 
d="M102 0h334l7 43l-109 24l49 225l232 269l101 33l10 43h-249l-10 -43l77 -30l-185 -223l-96 235l100 18l10 43h-306l-10 -43l92 -23l127 -288l-44 -216l-121 -24z" />
    <glyph glyph-name="Z" unicode="Z" horiz-adv-x="645" 
d="M-13 0h510l64 184l-33 4l-73 -90q-11 -14 -21 -22t-22 -13t-27 -6.5t-36 -1.5h-217l507 551l3 31h-481l-56 -162l33 -7l56 63q15 16 28 26.5t27 16t29.5 7.5t35.5 2h183l-508 -552z" />
    <glyph glyph-name="bracketleft" unicode="[" horiz-adv-x="323" 
d="M-13 -186h258l10 54h-176l174 829h176l11 54h-258z" />
    <glyph glyph-name="backslash" unicode="\" horiz-adv-x="455" 
d="M373 -210l63 25l-166 460l-155 466l-64 -24l165 -459z" />
    <glyph glyph-name="bracketright" unicode="]" horiz-adv-x="291" 
d="M-122 -186h258l195 937h-258l-11 -54h176l-174 -829h-176z" />
    <glyph glyph-name="asciicircum" unicode="^" horiz-adv-x="307" 
d="M92 518l127 103l84 -103l35 24l-80 183h-35l-158 -183z" />
    <glyph glyph-name="underscore" unicode="_" horiz-adv-x="440" 
d="M-2 0h444v57h-444v-57z" />
    <glyph glyph-name="grave" unicode="`" horiz-adv-x="246" 
d="M219 523l31 14q-11 54 -22 101t-22 70q-9 20 -26 25.5t-36 -3.5q-20 -9 -27.5 -27t2.5 -40q10 -21 37.5 -60.5t62.5 -79.5z" />
    <glyph glyph-name="a" unicode="a" horiz-adv-x="509" 
d="M144 -9q44 0 78 25.5t74 67.5l10 -3q-3 -19 -3 -36q0 -16 5.5 -28.5t17.5 -20t32 -7.5q26 0 55 12t59 30l-2 27q-31 -1 -49.5 0t-27.5 5.5t-10.5 12.5t1.5 20l84 389l-29 11l-46 -63q-17 14 -37 22.5t-44 8.5q-35 0 -69.5 -14t-66.5 -38.5t-60 -57.5t-48.5 -70.5
t-32.5 -77.5t-12 -79q0 -64 33.5 -100t87.5 -36zM182 67q-28 0 -48.5 19t-20.5 63q0 49 14 95t38 81.5t55.5 57t65.5 21.5q24 0 42.5 -12t32.5 -32l-47 -211q-39 -41 -71 -61.5t-61 -20.5z" />
    <glyph glyph-name="b" unicode="b" horiz-adv-x="507" 
d="M187 -11q55 0 107.5 28.5t93.5 74.5t65.5 104t24.5 117q0 36 -10 64t-27 47.5t-40.5 29.5t-50.5 10q-42 0 -76 -21t-69 -56l-10 3l78 341l-7 9l-184 -52l-5 -35l91 -26l-131 -599q31 -17 68 -28t82 -11zM218 49q-23 0 -46 8.5t-42 20.5l51 231q46 44 76.5 61.5t59.5 17.5
q28 0 49.5 -24.5t21.5 -80.5q0 -46 -14 -88.5t-37 -74.5t-54 -51.5t-65 -19.5z" />
    <glyph glyph-name="c" unicode="c" horiz-adv-x="429" 
d="M203 -10q57 0 101.5 28.5t73.5 70.5l-32 27q-27 -26 -54.5 -40t-52.5 -14q-51 0 -83.5 32.5t-32.5 99.5q0 41 14.5 81t39.5 71.5t58.5 50t70.5 17.5q-3 -11 -4.5 -20t-1.5 -20q0 -30 14.5 -46t40.5 -16q23 0 39.5 20.5t16.5 46.5q0 36 -27.5 60.5t-78.5 24.5
q-55 0 -104.5 -26.5t-87 -68.5t-59.5 -95t-22 -107q0 -41 13.5 -73.5t36.5 -55.5t54.5 -35.5t66.5 -12.5z" />
    <glyph glyph-name="d" unicode="d" horiz-adv-x="519" 
d="M154 -11q22 0 41 7t37 19.5t36 30l38 38.5l10 -3q-3 -19 -3 -36q0 -16 5.5 -28.5t17.5 -20t32 -7.5q26 0 55 12t59 30l-2 27q-31 -1 -49.5 0t-27.5 5.5t-10.5 12.5t1.5 20l140 635l-7 9l-184 -52l-5 -35l91 -26l-38 -176q-12 5 -30 9t-44 4q-56 0 -108 -28.5t-93 -74.5
t-65.5 -104t-24.5 -117q0 -36 10 -64t27 -47.5t40.5 -29.5t50.5 -10zM187 65q-28 0 -49.5 24.5t-21.5 80.5q0 46 14 88.5t37 74.5t54 51.5t65 19.5q23 0 46 -8.5t42 -20.5l-50 -226q-46 -45 -77 -64.5t-60 -19.5z" />
    <glyph glyph-name="e" unicode="e" horiz-adv-x="438" 
d="M123 202q142 -5 218.5 35t76.5 122q0 47 -35 76t-92 29t-105 -29.5t-83 -74.5t-54.5 -99.5t-19.5 -104.5q0 -39 12.5 -69.5t35 -52.5t53.5 -33.5t68 -11.5q64 0 110 29t72 70l-26 21q-28 -24 -55.5 -37t-59.5 -13q-36 0 -59.5 11t-37 30.5t-18 45.5t-1.5 56zM129 244
q8 39 23 72t35 56.5t43 37t47 13.5q28 0 42 -16.5t14 -42.5q0 -66 -51 -97t-153 -23z" />
    <glyph glyph-name="f" unicode="f" horiz-adv-x="310" 
d="M-48 -219q60 0 110 48q23 22 39 44.5t28 51.5t21.5 68t19.5 94l51 295h112l12 61h-113l9 50q19 104 51 149t75 50q22 -76 78 -76q26 0 40 14.5t14 36.5q0 27 -26 50.5t-76 23.5q-35 0 -66.5 -10t-59.5 -31q-26 -20 -45 -41.5t-32.5 -48.5t-23 -61t-16.5 -77l-4 -24
l-110 -28l-8 -38h105l-68 -392q-11 -59 -23.5 -93.5t-34.5 -54.5q-16 21 -33.5 32.5t-41.5 11.5q-26 0 -42 -14t-16 -34q0 -22 19 -39.5t55 -17.5z" />
    <glyph glyph-name="g" unicode="g" horiz-adv-x="483" 
d="M183 -218q44 0 84 11t71 31t49 48.5t18 63.5q0 51 -46 86t-145 58q-23 5 -28 16.5t2 43.5q7 -1 14 -1.5t15 -0.5q46 0 84 14t66 39t43.5 58t15.5 72q0 44 -28 80l58 22q7 -19 17 -29t27 -10q23 0 34 16t11 36t-13.5 33.5t-37.5 13.5q-27 0 -56 -21.5t-52 -46.5
q-22 23 -53 36t-69 13q-45 0 -82.5 -14.5t-65.5 -39.5t-43.5 -59t-15.5 -73q0 -44 22.5 -74.5t56.5 -47.5l-27 -107q-73 -24 -112.5 -60t-39.5 -83q0 -29 18.5 -51.5t50 -39t72.5 -25t85 -8.5zM225 176q-38 0 -60 22.5t-22 73.5q0 35 11 68.5t32 54.5q30 30 71 30
q39 0 61 -20.5t22 -70.5q0 -42 -13 -75t-33 -53q-30 -30 -69 -30zM195 -173q-66 0 -106.5 24t-40.5 68q0 28 19 53t61 48q55 -11 93 -22t61.5 -24t33.5 -28.5t10 -34.5q0 -36 -35.5 -60t-95.5 -24z" />
    <glyph glyph-name="h" unicode="h" horiz-adv-x="532" 
d="M380 -11q26 0 60 12t64 30l-2 27q-31 -1 -49.5 0t-27.5 5.5t-10.5 13t1.5 21.5l50 211q18 75 -9 115t-87 40q-36 0 -76.5 -25t-90.5 -70l-10 2l80 360l-7 9l-184 -52l-5 -35l91 -26l-138 -627h83l66 303q56 46 91 63.5t60 17.5q33 0 47 -22t3 -70l-46 -200
q-3 -12 -5.5 -27.5t-2.5 -26.5q0 -20 12 -34.5t42 -14.5z" />
    <glyph glyph-name="i" unicode="i" horiz-adv-x="284" 
d="M212 577q15 0 28.5 8t23 20.5t15 28.5t5.5 32q0 26 -14 38.5t-34 12.5q-15 0 -28.5 -7.5t-23.5 -20t-15.5 -28.5t-5.5 -32q0 -26 14.5 -39t34.5 -13zM107 -11q26 0 61 12t65 30l-2 27q-32 -1 -50.5 0t-27 5.5t-9.5 13t2 21.5l83 364l-8 8l-172 -52l-5 -35l80 -26
l-67 -297q-6 -27 6 -49t44 -22z" />
    <glyph glyph-name="j" unicode="j" horiz-adv-x="265" 
d="M202 577q15 0 28.5 8t23 20.5t15 28.5t5.5 32q0 26 -14 38.5t-34 12.5q-15 0 -28.5 -7.5t-23.5 -20t-15.5 -28.5t-5.5 -32q0 -26 14.5 -39t34.5 -13zM-67 -219q32 0 58 12t49 35q21 21 37.5 43.5t30 52t24 69t21.5 94.5l73 375l-8 8l-173 -52l-5 -35l85 -28l-72 -368
q-12 -60 -26 -93.5t-31 -50.5q-14 17 -32.5 26t-36.5 9q-27 0 -42 -13.5t-15 -32.5q0 -20 15.5 -35.5t47.5 -15.5z" />
    <glyph glyph-name="k" unicode="k" horiz-adv-x="487" 
d="M358 -11q26 0 54.5 12t57.5 30l-5 27q-33 -2 -52.5 0.5t-30 8t-15 14.5t-7.5 21l-7 26t-6.5 21l-7 20t-9.5 22q-11 25 -30.5 38.5t-56.5 17.5l1 9l86.5 31.5t65 31.5t40.5 38t14 50q0 24 -13.5 41.5t-39.5 17.5q-24 0 -43 -19.5t-19 -51.5q0 -15 1.5 -22.5t9.5 -23.5
q-19 -20 -62.5 -41.5t-112.5 -38.5l102 462l-7 9l-184 -52l-5 -35l91 -26l-138 -627h83l49 221q29 -2 47 -6t30.5 -18.5t21.5 -43.5t20 -81q11 -51 29.5 -67t47.5 -16z" />
    <glyph glyph-name="l" unicode="l" horiz-adv-x="274" 
d="M98 -11q26 0 61.5 12t64.5 30l-2 27q-32 -1 -50 0t-27 5.5t-10 13t2 21.5l141 633l-7 9l-181 -52l-5 -35l88 -26l-125 -567q-6 -28 6 -49.5t44 -21.5z" />
    <glyph glyph-name="m" unicode="m" horiz-adv-x="817" 
d="M655 -11q26 0 60 12t64 30l-2 27q-31 -1 -49.5 0t-27.5 5.5t-10.5 13t1.5 21.5l50 211q18 75 -5.5 115t-82.5 40q-38 0 -80.5 -27t-90.5 -70l-10 2q0 43 -21.5 69t-68.5 26q-38 0 -81.5 -27.5t-92.5 -72.5l-10 2l26 96l-8 8l-170 -52l-2 -35l76 -26l-80 -357h83l66 303
q56 46 90.5 63.5t59.5 17.5q65 0 44 -92l-66 -292h83l70 312q50 40 83.5 56t56.5 16q66 0 45 -92l-46 -200q-3 -12 -5.5 -27.5t-2.5 -26.5q0 -20 12 -34.5t42 -14.5z" />
    <glyph glyph-name="n" unicode="n" horiz-adv-x="542" 
d="M390 -11q26 0 60 12t64 30l-2 27q-31 -1 -49.5 0t-27.5 5.5t-10.5 13t1.5 21.5l50 211q18 75 -9 115t-87 40q-36 0 -79.5 -27.5t-92.5 -72.5l-10 2l26 96l-8 8l-170 -52l-2 -35l76 -26l-80 -357h83l66 303q56 46 91 63.5t60 17.5q33 0 47 -22t3 -70l-46 -200
q-3 -12 -5.5 -27.5t-2.5 -26.5q0 -20 12 -34.5t42 -14.5z" />
    <glyph glyph-name="o" unicode="o" horiz-adv-x="492" 
d="M187 -11q59 0 109 27t87 70.5t57.5 98.5t20.5 111q0 42 -12.5 73.5t-34 52.5t-50 31.5t-59.5 10.5q-59 0 -109 -27t-87 -70.5t-57.5 -98.5t-20.5 -111q0 -42 12.5 -73.5t34 -52.5t49.5 -31.5t60 -10.5zM223 48q-45 0 -72.5 32t-27.5 98q0 40 10.5 81t29.5 73t46 52.5
t60 20.5q45 0 72.5 -32t27.5 -98q0 -41 -10.5 -81.5t-29.5 -72.5t-46 -52.5t-60 -20.5z" />
    <glyph glyph-name="p" unicode="p" horiz-adv-x="517" 
d="M-79 -210h242l9 38l-81 29l31 140q12 -4 33.5 -6t41.5 -2q55 0 107.5 28.5t93.5 74.5t65.5 104t24.5 117q0 36 -10 64t-27 47.5t-40.5 29.5t-50.5 10q-44 0 -77.5 -24t-73.5 -66l-10 3l25 85l-8 8l-170 -52l-2 -35l76 -26l-112 -500l-77 -26zM228 49q-23 0 -46 8.5
t-42 20.5l51 231q46 44 76.5 61.5t59.5 17.5q28 0 49.5 -24.5t21.5 -80.5q0 -46 -14 -88.5t-37 -74.5t-54 -51.5t-65 -19.5z" />
    <glyph glyph-name="q" unicode="q" horiz-adv-x="507" 
d="M161 -210h240l8 41l-66 25l135 629l-29 11l-46 -63q-18 14 -37.5 22.5t-48.5 8.5q-56 0 -108 -28.5t-93 -74.5t-65.5 -104t-24.5 -117q0 -36 10 -64t27 -47.5t40.5 -29.5t50.5 -10q42 0 76.5 23.5t69.5 58.5l10 -3l-48 -211l-93 -29zM187 65q-28 0 -49.5 24.5t-21.5 80.5
q0 46 14 88.5t37 74.5t54 51.5t65 19.5q29 0 48.5 -11t37.5 -31l-48 -213q-46 -45 -77 -64.5t-60 -19.5z" />
    <glyph glyph-name="r" unicode="r" horiz-adv-x="408" 
d="M40 0h83l62 283q31 36 52 57t47 35q17 -13 32.5 -20t33.5 -7q23 0 41 16.5t18 44.5q0 26 -16 41.5t-45 15.5q-20 0 -37.5 -7.5t-34.5 -22t-34.5 -36t-37.5 -49.5l-10 3l25 108l-8 8l-165 -52l-2 -35l76 -26z" />
    <glyph glyph-name="s" unicode="s" horiz-adv-x="398" 
d="M172 -10q34 0 65 10.5t54.5 30t37.5 46t14 58.5q0 22 -5 39t-16.5 31.5t-29.5 28t-43 27.5l-27 15q-38 22 -51 37t-13 37q0 28 21.5 46t57.5 18q14 0 29 -7q5 -45 22.5 -58t40.5 -13q20 0 33 15t13 36q0 13 -7.5 26.5t-23.5 24.5t-40 18t-57 7q-37 0 -68 -11.5t-53 -31
t-34.5 -44.5t-12.5 -52q0 -45 24 -71.5t68 -50.5l27 -15q35 -20 49.5 -36t14.5 -42q0 -32 -24 -51t-62 -19q-25 0 -41 5t-33 15q14 41 4.5 67t-43.5 26q-21 0 -38 -19t-17 -49q0 -20 12.5 -37.5t34 -30t51.5 -19.5t66 -7z" />
    <glyph glyph-name="t" unicode="t" horiz-adv-x="346" 
d="M145 -8q38 0 74 13t74 33v30q-16 -2 -32 -2.5t-28 -0.5q-51 0 -66 12q-14 11 -14.5 29t5.5 44l52 232h127l13 61h-127l28 125l-49 9l-48 -104l-94 -57l-7 -34h74l-64 -285q-12 -54 10 -79.5t72 -25.5z" />
    <glyph glyph-name="u" unicode="u" horiz-adv-x="542" 
d="M157 -11q36 0 81 28.5t94 73.5l10 -2q-5 -20 -5.5 -38t4.5 -32t17.5 -22t33.5 -8q26 0 55 12t59 30l-2 27q-31 -1 -49.5 0t-27.5 5.5t-11 12.5t1 20l81 366l-8 8l-173 -52l-2 -35l78 -27l-45 -206q-56 -46 -91 -63.5t-60 -17.5q-33 0 -47 22t-3 70l68 301l-8 8l-171 -52
l-2 -35l78 -27l-51 -212q-18 -75 9 -115t87 -40z" />
    <glyph glyph-name="v" unicode="v" horiz-adv-x="502" 
d="M178 -20q61 57 116 114t96.5 110.5t66 101.5t24.5 87q0 33 -15.5 52t-39.5 19q-26 0 -44.5 -20.5t-18.5 -54.5q0 -20 6 -37.5t17 -41.5q-11 -24 -23.5 -48t-29 -49t-38 -52t-50.5 -58l-9 2q0 94 -10 175.5t-25 129.5q-17 54 -66 54q-13 0 -28 -6.5t-30 -16.5t-29.5 -22.5
t-24.5 -24.5l10 -27q37 12 53 12q17 0 24.5 -9.5t12.5 -28.5q6 -24 11.5 -53t10 -66t8 -84.5t6.5 -108.5l-14 -30z" />
    <glyph glyph-name="w" unicode="w" horiz-adv-x="738" 
d="M182 -17q54 57 108 126.5t98 139.5q8 -57 17.5 -113.5l17.5 -106.5l-13 -32l34 -14l104.5 106.5t87 104t59.5 100.5t22 95q0 35 -15 55t-41 20q-23 0 -41 -17.5t-18 -55.5q0 -18 7 -39t17 -43q-14 -43 -42 -91.5t-78 -111.5l-9 2l-14 91.5l-14 94.5l-13.5 92t-10.5 84h-5
l-78 -40l6.5 -50l7.5 -54q-29 -55 -61 -108t-70 -107l-9 2q0 41 -2.5 83.5t-7 82t-11 73.5t-13.5 58q-17 54 -67 54q-13 0 -28 -6.5t-30 -16.5t-29.5 -22.5t-24.5 -24.5l10 -28q36 12 55 12q15 0 22.5 -8.5t12.5 -27.5q6 -24 11.5 -52.5t10 -66t8.5 -86t7 -113.5l-12 -27z
" />
    <glyph glyph-name="x" unicode="x" horiz-adv-x="499" 
d="M58 -13q19 0 34.5 6.5t33 25.5t40 53.5t54.5 90.5l11 -1q13 -54 24 -88t23.5 -53t27.5 -25.5t36 -6.5q22 0 48.5 15.5t50.5 38.5l-9 27q-26 -3 -42 -3.5t-26.5 3t-17 12.5t-13.5 25l-14 33.5t-10.5 28t-9 28.5l-10.5 35q32 53 60.5 94.5t50.5 58.5q11 -13 21.5 -19
t26.5 -6q21 0 38 16t17 40q0 22 -15.5 36t-44.5 14q-19 0 -35 -6t-34 -24.5t-40 -52.5t-54 -89l-8 1q-16 58 -28 91.5t-24 50.5t-26.5 22t-34.5 5t-48 -15t-54 -38l10 -28q25 4 41 4.5t26.5 -4t18 -13.5t14.5 -25l12 -28l10 -24.5t10 -28.5l13 -40q-35 -56 -65 -97t-50 -57
q-9 11 -20.5 16.5t-28.5 5.5q-21 0 -37 -16.5t-16 -39.5q0 -21 18.5 -35t44.5 -14z" />
    <glyph glyph-name="y" unicode="y" horiz-adv-x="482" 
d="M28 -219q30 0 55.5 16.5t50.5 39.5q48 43 93 113.5t88 152.5t83.5 167.5l78.5 159.5l-86 40h-4l-21 -72t-27 -87.5l-32.5 -96.5t-36.5 -99h-10q-9 84 -21 150.5t-30 128.5q-11 40 -29.5 55t-47.5 15q-13 0 -27.5 -5.5t-29 -15t-28 -22t-25.5 -27.5l11 -27q17 5 28.5 8
t20.5 3q19 0 30 -10t21 -43q9 -29 18 -66.5t18 -81t17 -91t13 -95.5q-28 -48 -60.5 -87t-77.5 -60q-2 32 -15 53t-38 21t-40 -18t-15 -45q0 -31 19.5 -52.5t55.5 -21.5z" />
    <glyph glyph-name="z" unicode="z" horiz-adv-x="462" 
d="M319 -11q12 0 23 6.5t22 22.5t23 43.5t27 68.5l-26 12q-20 -24 -33.5 -38t-27 -20.5t-29 -7t-39.5 2.5l-115 15l333 360l-35 23l-68 -48l-46 14q-27 8 -65.5 14.5t-69.5 6.5q-34 0 -52.5 -8.5t-37.5 -26.5q-29 -27 -39.5 -46.5t-10.5 -41.5q0 -23 15 -41t36 -18
q20 0 33 13t13 33q0 31 -39 48v10q5 2 15 3.5t27 1.5q18 0 37 -1t41 -2.5t48 -3.5t58 -5l-339 -366l35 -23l63 48l119 -33q32 -8 56.5 -12t47.5 -4z" />
    <glyph glyph-name="braceleft" unicode="{" horiz-adv-x="388" 
d="M308 -171l8 40q-43 8 -69.5 22t-40 36.5t-14.5 54.5t7 77l10 57q7 43 4 71.5t-16 46.5t-36 28t-55 16l3 10q35 7 62.5 17.5t48 29t35 47t23.5 72.5l19 88q9 43 21 71.5t32 46.5t50.5 27t77.5 14l8 40q-64 1 -110.5 -6.5t-79.5 -29.5t-54 -61t-33 -100l-20 -99
q-7 -34 -18 -57.5t-29.5 -39t-45 -24.5t-64.5 -13l-11 -52q37 -5 61 -13.5t36.5 -23.5t14.5 -39t-5 -58l-13 -63q-13 -61 -8 -103.5t29 -70t66.5 -41.5t105.5 -18z" />
    <glyph glyph-name="bar" unicode="|" horiz-adv-x="294" 
d="M112 -241h70l-6 471l6 471h-70l6 -471z" />
    <glyph glyph-name="braceright" unicode="}" horiz-adv-x="388" 
d="M-98 -171q64 -2 110.5 6t79.5 30t54 61t33 100l20 99q7 34 18 57.5t29.5 39t45 24t64.5 13.5l11 52q-37 4 -61 12.5t-36.5 24t-14.5 39t5 58.5l13 63q13 61 8 103.5t-29 70t-66.5 41.5t-105.5 18l-8 -40q43 -8 69.5 -22t40 -36.5t14.5 -54.5t-7 -77l-10 -57
q-8 -44 -4.5 -72t16.5 -46t36 -28t55 -16l-3 -10q-35 -8 -62.5 -18t-48 -28.5t-35 -47t-23.5 -72.5l-19 -88q-9 -44 -21 -72t-32 -46t-50.5 -27t-77.5 -14z" />
    <glyph glyph-name="asciitilde" unicode="~" horiz-adv-x="371" 
d="M77 244q19 32 31 46.5t27 14.5q12 0 27 -7.5l31.5 -16.5t34.5 -16.5t37 -7.5q41 0 66.5 31.5t47.5 97.5l-37 9q-18 -32 -30.5 -46.5t-27.5 -14.5q-12 0 -27 7.5l-31.5 16.5t-34.5 16.5t-37 7.5q-41 0 -66.5 -31.5t-47.5 -97.5z" />
    <glyph glyph-name="quotesinglbase" unicode="&#x201a;" horiz-adv-x="231" 
d="M-8 -165q37 16 70 38t58 47.5t39.5 54.5t14.5 61q0 38 -21 58t-50 20q-27 0 -48.5 -20.5t-21.5 -48.5q0 -26 15 -38.5t34 -12.5q7 0 13 2l3 1l7 -5q-7 -23 -40.5 -59t-91.5 -71z" />
    <glyph glyph-name="florin" unicode="&#x192;" horiz-adv-x="464" 
d="M-9 -185q29 0 61 12t55 35q22 22 38 44.5t28 51.5t21.5 68t20.5 94l33 166h106l14 60h-107l3 17q11 61 21.5 99t23 61.5t27 36t33.5 21.5q13 -32 35.5 -49t49.5 -17q23 0 40 16t17 36q0 29 -25.5 45t-64.5 16q-29 0 -63.5 -10.5t-60.5 -30.5t-45 -41t-33 -45.5t-24 -56
t-18 -72.5l-4 -20l-103 -29l-11 -37h100l-50 -269q-6 -34 -12 -57t-13 -39.5t-15 -28t-19 -22.5q-17 23 -36.5 35.5t-45.5 12.5q-25 0 -41.5 -14t-16.5 -34q0 -23 20 -39t61 -16z" />
    <glyph glyph-name="quotedblbase" unicode="&#x201e;" horiz-adv-x="432" 
d="M193 -165q37 16 70 38t58 47.5t39.5 54.5t14.5 61q0 38 -21 58t-50 20q-27 0 -48.5 -20.5t-21.5 -48.5q0 -26 15 -38.5t34 -12.5q7 0 13 2l3 1l7 -5q-7 -23 -40.5 -59t-91.5 -71zM-8 -165q37 16 70 38t58 47.5t39.5 54.5t14.5 61q0 38 -21 58t-50 20q-27 0 -48.5 -20.5
t-21.5 -48.5q0 -26 15 -38.5t34 -12.5q7 0 13 2l3 1l7 -5q-7 -23 -40.5 -59t-91.5 -71z" />
    <glyph glyph-name="ellipsis" unicode="&#x2026;" horiz-adv-x="673" 
d="M549 -16q27 0 46.5 19.5t19.5 46.5t-19.5 46.5t-46.5 19.5q-28 0 -47.5 -19.5t-19.5 -46.5t19.5 -46.5t47.5 -19.5zM328 -16q27 0 46.5 19.5t19.5 46.5t-19.5 46.5t-46.5 19.5q-28 0 -47.5 -19.5t-19.5 -46.5t19.5 -46.5t47.5 -19.5zM107 -16q27 0 46.5 19.5t19.5 46.5
t-19.5 46.5t-46.5 19.5q-28 0 -47.5 -19.5t-19.5 -46.5t19.5 -46.5t47.5 -19.5z" />
    <glyph glyph-name="dagger" unicode="&#x2020;" horiz-adv-x="474" 
d="M137 -83h64l96 478l175 -7l12 59l-178 -7l54 230h-64l-40 -230l-176 7l-12 -59l179 7z" />
    <glyph glyph-name="daggerdbl" unicode="&#x2021;" horiz-adv-x="474" 
d="M137 -83h64l42 226l175 -7l12 59l-180 -7l46 211l177 -7l13 59l-180 -7l54 226h-64l-40 -226l-174 7l-13 -59l181 7l-46 -211l-178 7l-12 -59l179 7z" />
    <glyph glyph-name="circumflex" unicode="&#x2c6;" horiz-adv-x="307" 
d="M92 518l128 108l83 -108l35 24l-80 183h-35l-158 -183z" />
    <glyph glyph-name="perthousand" unicode="&#x2030;" horiz-adv-x="788" 
d="M394 -31q72 0 136 27.5t112 75t75.5 111.5t27.5 137q0 72 -27.5 136t-75.5 111.5t-112 75t-136 27.5t-136 -27.5t-112 -75t-75.5 -111.5t-27.5 -136q0 -73 27.5 -137t75.5 -111.5t112 -75t136 -27.5zM394 1q-66 0 -123.5 24.5t-100 67.5t-67 101t-24.5 126q0 66 24.5 124
t67 101t100 67.5t123.5 24.5t123.5 -24.5t100 -67.5t66.5 -101t24 -124q0 -68 -24 -126t-66.5 -101t-100 -67.5t-123.5 -24.5zM227 143h176v27l-53 13v119h22q21 0 34.5 -6.5t24.5 -30.5l26 -57q8 -17 14.5 -29.5t14.5 -20.5t19 -11.5t28 -3.5h64v27q-15 3 -24.5 6t-17.5 12
q-11 11 -20 28t-20 43q-11 21 -27.5 35t-44.5 22v7q47 9 74.5 32.5t27.5 60.5q0 38 -32.5 66t-96.5 28h-189v-28l52 -12v-287l-52 -13v-27zM350 333v142q8 1 23 1h22q31 0 52 -16.5t21 -52.5q0 -37 -21 -55t-52 -19h-45z" />
    <glyph glyph-name="guilsinglleft" unicode="&#x2039;" horiz-adv-x="300" 
d="M181 22l38 21l-86 178l160 181l-30 26l-236 -192l-2 -22z" />
    <glyph glyph-name="OE" unicode="&#x152;" horiz-adv-x="965" 
d="M346 0h492l59 195l-28 4l-74 -90q-12 -15 -22.5 -24.5t-23 -15t-28 -7.5t-37.5 -2h-156l46 235h41q22 0 38 -3.5t26 -12.5t15 -25.5t7 -42.5l2 -31h36l59 283h-36l-14 -33q-12 -28 -24 -44.5t-26 -25t-31.5 -11t-39.5 -2.5h-41l48 231h124q23 0 39 -2t27 -8t18.5 -16
t15.5 -26l32 -67l32 7l13 171h-463q-99 0 -178.5 -31t-135 -83.5t-85 -121.5t-29.5 -146q0 -64 22 -112t62 -79.5t95.5 -47.5t122.5 -16zM361 60q-103 0 -154.5 51t-51.5 142q0 66 19.5 125t58 103.5t95.5 70t131 25.5h73l-106 -517h-65z" />
    <glyph glyph-name="quoteleft" unicode="&#x2018;" horiz-adv-x="231" 
d="M135 380q27 0 48.5 20.5t21.5 48.5q0 26 -15 38.5t-34 12.5q-7 0 -13 -2l-3 -1l-7 5q7 23 40.5 59t91.5 71l-19 27q-37 -17 -70 -38.5t-58 -47t-39.5 -55t-14.5 -60.5q0 -38 21 -58t50 -20z" />
    <glyph glyph-name="quoteright" unicode="&#x2019;" horiz-adv-x="231" 
d="M68 373q37 16 70 38t58 47.5t39.5 54.5t14.5 61q0 38 -21 58t-50 20q-27 0 -48.5 -20.5t-21.5 -48.5q0 -26 15 -38.5t34 -12.5q7 0 13 2l3 1l7 -5q-7 -23 -40.5 -59t-91.5 -71z" />
    <glyph glyph-name="quotedblleft" unicode="&#x201c;" horiz-adv-x="432" 
d="M336 380q27 0 48.5 20.5t21.5 48.5q0 26 -15 38.5t-34 12.5q-7 0 -13 -2l-3 -1l-7 5q7 23 40.5 59t91.5 71l-19 27q-37 -17 -70 -38.5t-58 -47t-39.5 -55t-14.5 -60.5q0 -38 21 -58t50 -20zM135 380q27 0 48.5 20.5t21.5 48.5q0 26 -15 38.5t-34 12.5q-7 0 -13 -2l-3 -1
l-7 5q7 23 40.5 59t91.5 71l-19 27q-37 -17 -70 -38.5t-58 -47t-39.5 -55t-14.5 -60.5q0 -38 21 -58t50 -20z" />
    <glyph glyph-name="quotedblright" unicode="&#x201d;" horiz-adv-x="432" 
d="M269 373q37 16 70 38t58 47.5t39.5 54.5t14.5 61q0 38 -21 58t-50 20q-27 0 -48.5 -20.5t-21.5 -48.5q0 -26 15 -38.5t34 -12.5q7 0 13 2l3 1l7 -5q-7 -23 -40.5 -59t-91.5 -71zM68 373q37 16 70 38t58 47.5t39.5 54.5t14.5 61q0 38 -21 58t-50 20q-27 0 -48.5 -20.5
t-21.5 -48.5q0 -26 15 -38.5t34 -12.5q7 0 13 2l3 1l7 -5q-7 -23 -40.5 -59t-91.5 -71z" />
    <glyph glyph-name="bullet" unicode="&#x2022;" horiz-adv-x="498" 
d="M247 175q30 0 56 11t45.5 30.5t31 46t11.5 56.5t-11.5 56t-31 45.5t-45.5 30.5t-56 11t-56 -11t-45.5 -30.5t-30.5 -45.5t-11 -56t11 -56.5t30.5 -46t45.5 -30.5t56 -11z" />
    <glyph glyph-name="endash" unicode="&#x2013;" horiz-adv-x="546" 
d="M36 217h426l12 59h-426z" />
    <glyph glyph-name="emdash" unicode="&#x2014;" horiz-adv-x="796" 
d="M36 217h676l12 59h-676z" />
    <glyph glyph-name="tilde" unicode="&#x2dc;" horiz-adv-x="339" 
d="M93 528q19 32 31 46.5t27 14.5q12 0 27 -7.5l31.5 -16.5t34.5 -16.5t37 -7.5q41 0 66.5 31.5t47.5 97.5l-37 9q-18 -32 -30.5 -46.5t-27.5 -14.5q-12 0 -27 7.5l-31.5 16.5t-34.5 16.5t-37 7.5q-41 0 -66.5 -31.5t-47.5 -97.5z" />
    <glyph glyph-name="trademark" unicode="&#x2122;" horiz-adv-x="820" 
d="M415 350h109v20l-34 17v215h10l98 -252h29l97 252h9v-218l-36 -14v-20h139v20l-44 14v219l44 13v21h-135l-15 -47l-56 -153h-6l-57 150l-17 50h-135v-21l38 -15v-214l-38 -17v-20zM165 350h150v20l-46 14v226h21q16 0 24 -6.5t22 -25.5l33 -42l16 3l-13 98h-267l-13 -98
l16 -3l33 42q14 19 22 25.5t24 6.5h24v-226l-46 -14v-20z" />
    <glyph glyph-name="guilsinglright" unicode="&#x203a;" horiz-adv-x="300" 
d="M33 20l240 194l2 22l-160 190l-37 -20l87 -177l-160 -180z" />
    <glyph glyph-name="oe" unicode="&#x153;" horiz-adv-x="765" 
d="M441 364q-17 48 -53.5 74t-86.5 26q-57 0 -106 -27t-85.5 -70.5t-57.5 -98.5t-21 -111q0 -42 12.5 -73.5t34 -52.5t49.5 -31.5t60 -10.5q58 0 106 28t83 73q17 -48 57 -74.5t97 -26.5q60 0 105.5 29t71.5 70l-26 21q-28 -24 -55.5 -37t-59.5 -13q-36 0 -59.5 11t-37 30.5
t-18 45.5t-1.5 56q142 -5 218.5 35t76.5 122q0 47 -34 76t-91 29q-55 0 -100.5 -28t-78.5 -72zM456 244q8 39 23 72t35 56.5t43 37t47 13.5q28 0 42 -16.5t14 -42.5q0 -66 -51 -97t-153 -23zM223 48q-45 0 -72.5 32t-27.5 98q0 40 10.5 81t29.5 73t46 52.5t60 20.5
q45 0 72.5 -32t27.5 -98q0 -41 -10.5 -81.5t-29.5 -72.5t-46 -52.5t-60 -20.5z" />
    <glyph glyph-name="Ydieresis" unicode="&#x178;" horiz-adv-x="659" 
d="M535 727q28 0 46 19t18 45t-16 42.5t-42 16.5q-28 0 -46 -19t-18 -45t16 -42.5t42 -16.5zM345 727q28 0 46 19t18 45t-16 42.5t-42 16.5q-28 0 -46 -19t-18 -45t16 -42.5t42 -16.5zM102 0h334l7 43l-109 24l49 225l232 269l101 33l10 43h-249l-10 -43l77 -30l-185 -223
l-96 235l100 18l10 43h-306l-10 -43l92 -23l127 -288l-44 -216l-121 -24z" />
    <glyph glyph-name="exclamdown" unicode="&#xa1;" horiz-adv-x="278" 
d="M148 269q28 0 47.5 20t19.5 46q0 27 -19 46.5t-45 19.5q-28 0 -48 -19t-20 -47q0 -27 19.5 -46.5t45.5 -19.5zM38 -266q21 0 39 14.5t23 46.5q3 20 7.5 60.5t10 95t11 118.5l11.5 130l-34 4l-42.5 -124.5l-37.5 -114.5t-28.5 -93.5t-14.5 -62.5q-5 -35 10.5 -54.5
t44.5 -19.5z" />
    <glyph glyph-name="cent" unicode="&#xa2;" horiz-adv-x="458" 
d="M186 -113l20 106q51 3 90.5 27t74.5 66l-30 26q-26 -25 -53 -40.5t-56 -15.5h-14l29 158l40 188q25 0 40 -6q-8 -46 7.5 -70.5t44.5 -24.5q19 0 34 15t15 41q0 21 -10.5 38t-28 29t-40.5 18.5t-49 7.5h-2l18 85l-46 4l-18 -93q-46 -9 -87 -36t-72 -66t-49.5 -86.5
t-18.5 -96.5q0 -75 39 -117.5t99 -49.5l-22 -105zM178 65q-29 11 -46 38.5t-17 77.5q0 36 9 70.5t25.5 63.5t40.5 50.5t53 30.5l-33 -177z" />
    <glyph glyph-name="sterling" unicode="&#xa3;" horiz-adv-x="539" 
d="M179 334h-113l-10 -50h129q1 -6 1 -13v-13q0 -47 -21 -81.5t-63 -76.5q-72 -4 -102 -25.5t-30 -48.5q0 -16 12.5 -28.5t36.5 -12.5q23 0 50.5 19t55.5 51q60 -33 108.5 -51.5t82.5 -18.5q31 0 55 8.5t42.5 29.5t32.5 57.5t26 92.5l-45 5q-11 -33 -21 -53t-22 -31.5
t-26.5 -15.5t-32.5 -4q-22 0 -41 0.5t-38.5 1.5t-41 2.5t-46.5 4.5l-4 12q28 19 49.5 36.5t37 38.5t24 47.5t10.5 64.5v2h136l10 50h-148l-4 41t-2 46q0 57 23 96t85 58q14 -30 35 -50t49 -20q26 0 43 15t17 41q0 29 -27 47t-78 18q-53 0 -97.5 -16.5t-76.5 -46t-49.5 -70.5
t-17.5 -90q0 -18 2 -35z" />
    <glyph glyph-name="currency" unicode="&#xa4;" horiz-adv-x="588" 
d="M326 -13q50 0 94.5 24t89.5 75l-26 30q-36 -30 -68.5 -44.5t-68.5 -14.5q-64 0 -103 38.5t-47 110.5h251l11 47h-264q2 49 13 91h268l10 47h-262q17 39 41 72t51.5 58t58.5 40t61 18q14 -30 35 -50t49 -20q26 0 43 15t17 41q0 29 -28.5 47t-80.5 18q-54 0 -104 -19
t-92 -51t-75.5 -76t-55.5 -93h-87l-12 -47h81q-8 -23 -12.5 -45.5t-6.5 -45.5h-79l-11 -47h89q4 -110 64.5 -164.5t155.5 -54.5z" />
    <glyph glyph-name="yen" unicode="&#xa5;" horiz-adv-x="622" 
d="M102 0h288l9 41l-96 24l16 78h173l8 41h-172l18 89h172l8 41h-154l209 224l86 33l8 41h-211l-10 -41l69 -24l-186 -207l-93 213l90 18l10 41h-272l-8 -41l81 -29l110 -228h-161l-8 -41h176l-18 -89h-177l-8 -41h177l-16 -78l-109 -24z" />
    <glyph glyph-name="section" unicode="&#xa7;" horiz-adv-x="525" 
d="M174 -96q57 0 106 21t84.5 59t55.5 90.5t20 116.5q0 58 -16.5 106t-48 90t-78 79.5t-106.5 74.5q23 42 59 65t84 23q29 0 49.5 -5.5t31.5 -13.5q-12 -20 -13.5 -38t5 -31.5t20.5 -22t33 -8.5q24 0 39 15t15 43q0 41 -42.5 71t-122.5 30q-57 0 -106 -21t-84.5 -59
t-55.5 -90.5t-20 -116.5q0 -58 16.5 -106t48 -90t78 -79.5t106.5 -74.5q-23 -42 -59 -65t-84 -23q-29 0 -49.5 5.5t-31.5 13.5q12 19 13.5 37.5t-5.5 32t-20.5 22t-32.5 8.5q-24 0 -39 -15t-15 -43q0 -41 42.5 -71t122.5 -30zM349 71q-42 33 -77 69.5t-60 77t-39 85
t-14 95.5q0 59 15 104q42 -33 77 -69.5t60 -77t39 -85t14 -95.5q0 -59 -15 -104z" />
    <glyph glyph-name="dieresis" unicode="&#xa8;" horiz-adv-x="330" 
d="M318 541q28 0 46 19t18 45t-16 42.5t-42 16.5q-28 0 -46 -19t-18 -45t16 -42.5t42 -16.5zM128 541q28 0 46 19t18 45t-16 42.5t-42 16.5q-28 0 -46 -19t-18 -45t16 -42.5t42 -16.5z" />
    <glyph glyph-name="copyright" unicode="&#xa9;" horiz-adv-x="788" 
d="M394 -31q72 0 136 27.5t112 75t75.5 111.5t27.5 137q0 72 -27.5 136t-75.5 111.5t-112 75t-136 27.5t-136 -27.5t-112 -75t-75.5 -111.5t-27.5 -136q0 -73 27.5 -137t75.5 -111.5t112 -75t136 -27.5zM394 1q-66 0 -123.5 24.5t-100 67.5t-67 101t-24.5 126q0 66 24.5 124
t67 101t100 67.5t123.5 24.5t123.5 -24.5t100 -67.5t66.5 -101t24 -124q0 -68 -24 -126t-66.5 -101t-100 -67.5t-123.5 -24.5zM403 127q39 0 66 7t56 22l13 92l-25 7l-62 -81q-6 -2 -12 -3t-17 -1q-27 0 -50.5 9t-41.5 28t-28 48t-10 70q0 39 8.5 66.5t22 44.5t31 25t35.5 8
q36 0 62.5 -23t50.5 -74l29 3l-8 140h-25l-14 -24q-15 8 -36 13t-43 5q-42 0 -78.5 -15.5t-62.5 -42t-41 -62t-15 -74.5q0 -43 14 -77.5t39.5 -59t61.5 -38t80 -13.5z" />
    <glyph glyph-name="ordfeminine" unicode="&#xaa;" horiz-adv-x="412" 
d="M153 319q29 0 55.5 16t57.5 48l12 -2q-5 -35 6 -48.5t36 -13.5q20 0 40.5 8.5t42.5 20.5v24q-24 -1 -38 1t-20.5 6.5t-7 12t2.5 19.5l61 255l-19 4l-41 -38q-12 8 -25.5 13.5t-37.5 5.5q-35 0 -72.5 -21.5t-68.5 -56t-51 -76.5t-20 -84q0 -45 24.5 -69.5t62.5 -24.5z
M187 376q-49 0 -49 64q0 30 9.5 58.5t25.5 51.5t37.5 37t46.5 14q18 0 29.5 -6t24.5 -19l-33 -141q-32 -32 -53 -45.5t-38 -13.5z" />
    <glyph glyph-name="guillemotleft" unicode="&#xab;" 
d="M381 22l38 21l-78 178l152 181l-30 26l-228 -192l-2 -22zM173 22l38 21l-78 178l152 181l-30 26l-228 -192l-2 -22z" />
    <glyph glyph-name="logicalnot" unicode="&#xac;" horiz-adv-x="520" 
d="M461 272l14 68h-414l-14 -68h414z" />
    <glyph glyph-name="registered" unicode="&#xae;" horiz-adv-x="418" 
d="M251 287q40 0 74.5 14.5t60 39.5t40 59.5t14.5 74.5t-14.5 74.5t-40 60t-60 40t-74.5 14.5t-74.5 -14.5t-60 -40t-40 -60t-14.5 -74.5t14.5 -74.5t40 -59.5t60 -39.5t74.5 -14.5zM251 310q-35 0 -65 12.5t-52 34.5t-34.5 52.5t-12.5 65.5t12.5 65.5t34.5 53t52 35
t65 12.5t65 -12.5t52 -35t34.5 -53t12.5 -65.5t-12.5 -65.5t-34.5 -52.5t-52 -34.5t-65 -12.5zM335 526q0 21 -18 35.5t-53 14.5h-109v-16l31 -7v-147l-31 -8v-16h104v16l-30 8v58h12q14 0 19.5 -3.5t10.5 -14.5l13 -30q8 -18 14.5 -26t24.5 -8h42v16q-19 3 -25 10
q-5 6 -10 13.5t-10 21.5q-5 12 -13.5 18t-30.5 9v7q32 5 45.5 17t13.5 32zM290 522q0 -18 -10.5 -28t-26.5 -10h-24v72h21q18 0 29 -8.5t11 -25.5z" />
    <glyph glyph-name="macron" unicode="&#xaf;" horiz-adv-x="329" 
d="M91 553h253l15 69h-253z" />
    <glyph glyph-name="macron" unicode="&#x2c9;" horiz-adv-x="329" 
d="M91 553h253l15 69h-253z" />
    <glyph glyph-name="degree" unicode="&#xb0;" horiz-adv-x="394" 
d="M205 354q39 0 71 17t55.5 44t36 60t12.5 64q0 55 -32 84t-87 29q-39 0 -71 -17t-55.5 -44t-36 -60t-12.5 -64q0 -55 32 -84t87 -29zM219 392q-31 0 -46.5 21.5t-15.5 59.5q0 25 6 50.5t17.5 45.5t28.5 32.5t38 12.5q31 0 46.5 -21.5t15.5 -59.5q0 -26 -6 -51t-17.5 -45
t-28.5 -32.5t-38 -12.5z" />
    <glyph glyph-name="plusminus" unicode="&#xb1;" 
d="M25 -200h450v1000h-450v-1000z" />
    <glyph glyph-name="acute" unicode="&#xb4;" horiz-adv-x="246" 
d="M112 523l47.5 36.5l46 35.5l39.5 31.5t27 26.5q38 48 3 75q-18 14 -39.5 9.5t-40.5 -25.5q-11 -12 -24 -30.5t-27 -41.5l-29.5 -48.5l-30.5 -50.5z" />
    <glyph glyph-name="mu" unicode="&#xb5;" horiz-adv-x="520" 
d="M305 300l170 134l-39 47l-165 -133l-107 150l-52 -39l109 -150l-170 -134l39 -47l165 133l107 -150l52 39z" />
    <glyph glyph-name="mu" unicode="&#x3bc;" horiz-adv-x="520" 
d="M305 300l170 134l-39 47l-165 -133l-107 150l-52 -39l109 -150l-170 -134l39 -47l165 133l107 -150l52 39z" />
    <glyph glyph-name="paragraph" unicode="&#xb6;" horiz-adv-x="627" 
d="M689 617h-310q-65 0 -120 -15.5t-94.5 -44.5t-61.5 -71.5t-22 -97.5q0 -47 16.5 -80.5t46 -56.5t69 -37t85.5 -21l-62 -293h58l138 659h80l-138 -659h58l137 651l110 23zM307 247q-52 10 -87 45t-35 96q0 78 48 125.5t141 47.5z" />
    <glyph glyph-name="periodcentered" unicode="&#xb7;" horiz-adv-x="231" 
d="M116 252q27 0 46.5 19.5t19.5 46.5t-19.5 46.5t-46.5 19.5q-28 0 -47.5 -19.5t-19.5 -46.5t19.5 -46.5t47.5 -19.5z" />
    <glyph glyph-name="cedilla" unicode="&#xb8;" horiz-adv-x="290" 
d="M2 -259q50 0 82 29t34 71q-1 32 -21 55t-52 31l121 95l-16 29l-199 -154l14 -24l17 5t16 2q21 0 38 -15t19 -41q2 -24 -14 -37.5t-36 -13.5q-5 0 -7 1.5t-7 2.5q2 4 2.5 7.5t0.5 8.5q0 13 -7.5 23.5t-23.5 10.5q-17 0 -26.5 -10.5t-9.5 -27.5t20 -32.5t55 -15.5z" />
    <glyph glyph-name="ordmasculine" unicode="&#xba;" horiz-adv-x="420" 
d="M212 316q36 0 70 17.5t60.5 46.5t42.5 67t16 79q0 60 -35.5 93t-94.5 33q-36 0 -70 -17.5t-60.5 -46.5t-42.5 -67t-16 -79q0 -60 35.5 -93t94.5 -33zM219 356q-28 0 -45.5 20.5t-17.5 62.5q0 32 8.5 63t23.5 55.5t34.5 39.5t41.5 15q28 0 45.5 -20.5t17.5 -62.5
q0 -32 -8.5 -63t-23.5 -55.5t-34.5 -39.5t-41.5 -15z" />
    <glyph glyph-name="guillemotright" unicode="&#xbb;" 
d="M239 20l236 194l2 22l-154 190l-39 -20l83 -177l-156 -180zM31 20l236 194l2 22l-154 190l-39 -20l83 -177l-156 -180z" />
    <glyph glyph-name="questiondown" unicode="&#xbf;" horiz-adv-x="394" 
d="M236 402q-27 0 -46.5 -19.5t-19.5 -46.5t19.5 -46.5t46.5 -19.5t46.5 19.5t19.5 46.5t-19.5 46.5t-46.5 19.5zM177 202q-23 0 -45.5 -6.5t-37.5 -15.5l8 -31q48 8 76.5 1t28.5 -35q0 -9 -3.5 -16.5t-14 -15t-31 -16t-54.5 -19.5q-78 -25 -116.5 -61t-38.5 -101
q0 -33 12.5 -60.5t36.5 -47.5t58 -31.5t77 -11.5q66 0 103 26.5t37 63.5q0 29 -16.5 43.5t-41.5 14.5q-26 0 -42.5 -19t-16.5 -49q0 -13 5 -31q-15 -6 -41 -6q-41 0 -68 24t-27 62q0 40 24.5 62.5t83.5 41.5q43 13 72.5 27.5t47.5 30.5t25.5 35.5t7.5 43.5q0 49 -31.5 73
t-77.5 24z" />
    <glyph glyph-name="Agrave" unicode="&#xc0;" horiz-adv-x="688" 
d="M425 709l31 14q-11 54 -22 101t-22 70q-9 20 -26 25.5t-36 -3.5q-20 -9 -27.5 -27t2.5 -40q10 -21 37.5 -60.5t62.5 -79.5zM-70 0h233l9 41l-68 32l74 139h229l20 -149l-106 -22l-9 -41h307l9 43l-95 27l-87 573h-84l-326 -569l-97 -31zM209 267l148 270h8l35 -270h-191z
" />
    <glyph glyph-name="Aacute" unicode="&#xc1;" horiz-adv-x="688" 
d="M404 709l47.5 36.5l46 35.5l39.5 31.5t27 26.5q38 48 3 75q-18 14 -39.5 9.5t-40.5 -25.5q-11 -12 -24 -30.5t-27 -41.5l-29.5 -48.5l-30.5 -50.5zM-70 0h233l9 41l-68 32l74 139h229l20 -149l-106 -22l-9 -41h307l9 43l-95 27l-87 573h-84l-326 -569l-97 -31zM209 267
l148 270h8l35 -270h-191z" />
    <glyph glyph-name="Acircumflex" unicode="&#xc2;" horiz-adv-x="688" 
d="M307 694l128 108l83 -108l35 24l-80 183h-35l-158 -183zM-70 0h233l9 41l-68 32l74 139h229l20 -149l-106 -22l-9 -41h307l9 43l-95 27l-87 573h-84l-326 -569l-97 -31zM209 267l148 270h8l35 -270h-191z" />
    <glyph glyph-name="Atilde" unicode="&#xc3;" horiz-adv-x="688" 
d="M288 714q19 32 31 46.5t27 14.5q12 0 27 -7.5l31.5 -16.5t34.5 -16.5t37 -7.5q41 0 66.5 31.5t47.5 97.5l-37 9q-18 -32 -30.5 -46.5t-27.5 -14.5q-12 0 -27 7.5l-31.5 16.5t-34.5 16.5t-37 7.5q-41 0 -66.5 -31.5t-47.5 -97.5zM-70 0h233l9 41l-68 32l74 139h229
l20 -149l-106 -22l-9 -41h307l9 43l-95 27l-87 573h-84l-326 -569l-97 -31zM209 267l148 270h8l35 -270h-191z" />
    <glyph glyph-name="Adieresis" unicode="&#xc4;" horiz-adv-x="688" 
d="M522 727q28 0 46 19t18 45t-16 42.5t-42 16.5q-28 0 -46 -19t-18 -45t16 -42.5t42 -16.5zM332 727q28 0 46 19t18 45t-16 42.5t-42 16.5q-28 0 -46 -19t-18 -45t16 -42.5t42 -16.5zM-70 0h233l9 41l-68 32l74 139h229l20 -149l-106 -22l-9 -41h307l9 43l-95 27l-87 573
h-84l-326 -569l-97 -31zM209 267l148 270h8l35 -270h-191z" />
    <glyph glyph-name="Aring" unicode="&#xc5;" horiz-adv-x="688" 
d="M-70 0h233l9 41l-68 32l74 139h229l20 -149l-106 -22l-9 -41h307l9 43l-95 27l-84 556q32 14 50.5 44.5t18.5 62.5q0 38 -24.5 63.5t-64.5 25.5q-26 0 -47.5 -10.5t-36.5 -27t-23.5 -37.5t-8.5 -42q0 -52 41 -76l-318 -555l-97 -31zM407 644q-17 0 -30 15t-13 47
q0 12 3.5 27t11 28.5t19 23t26.5 9.5q17 0 30 -15t13 -47q0 -12 -4 -27t-11.5 -28.5t-18.5 -23t-26 -9.5zM209 267l148 270h8l35 -270h-191z" />
    <glyph glyph-name="AE" unicode="&#xc6;" horiz-adv-x="911" 
d="M-68 0h232l9 43l-85 26l122 173h199l-36 -175l-118 -24l-9 -43h538l60 195l-29 4l-74 -90q-12 -15 -22.5 -24.5t-23 -15t-28 -7.5t-37.5 -2h-156l46 235h41q22 0 38 -3.5t26 -12.5t15 -25.5t7 -42.5l2 -31h36l59 283h-36l-14 -33q-12 -28 -24 -44.5t-26 -25t-31.5 -11
t-39.5 -2.5h-41l48 231h124q23 0 39 -2t27 -8t18.5 -16t15.5 -26l32 -67l32 7l13 171h-597l-9 -41l108 -14l-359 -510l-83 -29zM252 295l204 286h23l-59 -286h-168z" />
    <glyph glyph-name="Ccedilla" unicode="&#xc7;" horiz-adv-x="661" 
d="M219 -259q50 0 82 29t34 71q-1 32 -21 55t-52 31l74 58q29 -1 53.5 1t47 7.5t45 13.5t46.5 19l39 146l-31 14l-106 -131q-20 -6 -35 -8.5t-36 -2.5q-98 0 -150 58.5t-52 167.5q0 67 19 127t52 105t76.5 71.5t93.5 26.5q126 0 172 -165l45 2l41 214h-41l-45 -46
q-34 21 -71.5 34t-88.5 13q-72 0 -138.5 -31.5t-117 -85t-80.5 -124.5t-30 -150q0 -61 17.5 -108t49.5 -81t77 -55t99 -28l-119 -92l14 -24l17 5t16 2q21 0 38 -15t19 -41q2 -24 -14 -37.5t-36 -13.5q-5 0 -7 1.5t-7 2.5q2 4 2.5 7.5t0.5 8.5q0 13 -7.5 23.5t-23.5 10.5
q-17 0 -26.5 -10.5t-9.5 -27.5t20 -32.5t55 -15.5z" />
    <glyph glyph-name="Egrave" unicode="&#xc8;" horiz-adv-x="628" 
d="M407 709l31 14q-11 54 -22 101t-22 70q-9 20 -26 25.5t-36 -3.5q-20 -9 -27.5 -27t2.5 -40q10 -21 37.5 -60.5t62.5 -79.5zM-37 0h538l59 195l-28 4l-74 -90q-12 -15 -22.5 -24.5t-23 -15t-28 -7.5t-37.5 -2h-156l46 235h41q22 0 38 -3.5t26 -12.5t15 -25.5t7 -42.5
l2 -31h36l59 283h-36l-14 -33q-12 -28 -24 -44.5t-26 -25t-31.5 -11t-39.5 -2.5h-41l48 231h124q23 0 39 -2t27 -8t18.5 -16t15.5 -26l32 -67l32 7l13 171h-501l-10 -43l107 -24l-104 -503l-118 -24z" />
    <glyph glyph-name="Eacute" unicode="&#xc9;" horiz-adv-x="628" 
d="M370 709l47.5 36.5l46 35.5l39.5 31.5t27 26.5q38 48 3 75q-18 14 -39.5 9.5t-40.5 -25.5q-11 -12 -24 -30.5t-27 -41.5l-29.5 -48.5l-30.5 -50.5zM-37 0h538l59 195l-28 4l-74 -90q-12 -15 -22.5 -24.5t-23 -15t-28 -7.5t-37.5 -2h-156l46 235h41q22 0 38 -3.5t26 -12.5
t15 -25.5t7 -42.5l2 -31h36l59 283h-36l-14 -33q-12 -28 -24 -44.5t-26 -25t-31.5 -11t-39.5 -2.5h-41l48 231h124q23 0 39 -2t27 -8t18.5 -16t15.5 -26l32 -67l32 7l13 171h-501l-10 -43l107 -24l-104 -503l-118 -24z" />
    <glyph glyph-name="Ecircumflex" unicode="&#xca;" horiz-adv-x="628" 
d="M292 704l128 108l83 -108l35 24l-80 183h-35l-158 -183zM-37 0h538l59 195l-28 4l-74 -90q-12 -15 -22.5 -24.5t-23 -15t-28 -7.5t-37.5 -2h-156l46 235h41q22 0 38 -3.5t26 -12.5t15 -25.5t7 -42.5l2 -31h36l59 283h-36l-14 -33q-12 -28 -24 -44.5t-26 -25t-31.5 -11
t-39.5 -2.5h-41l48 231h124q23 0 39 -2t27 -8t18.5 -16t15.5 -26l32 -67l32 7l13 171h-501l-10 -43l107 -24l-104 -503l-118 -24z" />
    <glyph glyph-name="Edieresis" unicode="&#xcb;" horiz-adv-x="628" 
d="M500 722q28 0 46 19t18 45t-16 42.5t-42 16.5q-28 0 -46 -19t-18 -45t16 -42.5t42 -16.5zM310 722q28 0 46 19t18 45t-16 42.5t-42 16.5q-28 0 -46 -19t-18 -45t16 -42.5t42 -16.5zM-37 0h538l59 195l-28 4l-74 -90q-12 -15 -22.5 -24.5t-23 -15t-28 -7.5t-37.5 -2h-156
l46 235h41q22 0 38 -3.5t26 -12.5t15 -25.5t7 -42.5l2 -31h36l59 283h-36l-14 -33q-12 -28 -24 -44.5t-26 -25t-31.5 -11t-39.5 -2.5h-41l48 231h124q23 0 39 -2t27 -8t18.5 -16t15.5 -26l32 -67l32 7l13 171h-501l-10 -43l107 -24l-104 -503l-118 -24z" />
    <glyph glyph-name="Igrave" unicode="&#xcc;" horiz-adv-x="416" 
d="M277 709l31 14q-11 54 -22 101t-22 70q-9 20 -26 25.5t-36 -3.5q-20 -9 -27.5 -27t2.5 -40q10 -21 37.5 -60.5t62.5 -79.5zM-26 0h331l9 43l-107 24l104 503l118 24l12 43h-333l-10 -43l109 -24l-104 -503l-120 -24z" />
    <glyph glyph-name="Iacute" unicode="&#xcd;" horiz-adv-x="416" 
d="M264 709l47.5 36.5l46 35.5l39.5 31.5t27 26.5q38 48 3 75q-18 14 -39.5 9.5t-40.5 -25.5q-11 -12 -24 -30.5t-27 -41.5l-29.5 -48.5l-30.5 -50.5zM-26 0h331l9 43l-107 24l104 503l118 24l12 43h-333l-10 -43l109 -24l-104 -503l-120 -24z" />
    <glyph glyph-name="Icircumflex" unicode="&#xce;" horiz-adv-x="416" 
d="M180 704l128 108l83 -108l35 24l-80 183h-35l-158 -183zM-26 0h331l9 43l-107 24l104 503l118 24l12 43h-333l-10 -43l109 -24l-104 -503l-120 -24z" />
    <glyph glyph-name="Idieresis" unicode="&#xcf;" horiz-adv-x="416" 
d="M394 727q28 0 46 19t18 45t-16 42.5t-42 16.5q-28 0 -46 -19t-18 -45t16 -42.5t42 -16.5zM204 727q28 0 46 19t18 45t-16 42.5t-42 16.5q-28 0 -46 -19t-18 -45t16 -42.5t42 -16.5zM-26 0h331l9 43l-107 24l104 503l118 24l12 43h-333l-10 -43l109 -24l-104 -503
l-120 -24z" />
    <glyph glyph-name="Ntilde" unicode="&#xd1;" horiz-adv-x="759" 
d="M341 714q19 32 31 46.5t27 14.5q12 0 27 -7.5l31.5 -16.5t34.5 -16.5t37 -7.5q41 0 66.5 31.5t47.5 97.5l-37 9q-18 -32 -30.5 -46.5t-27.5 -14.5q-12 0 -27 7.5l-31.5 16.5t-34.5 16.5t-37 7.5q-41 0 -66.5 -31.5t-47.5 -97.5zM503 -6h63l117 567l95 33l10 43h-243
l-10 -43l83 -33l-78 -374h-11l-162 348l-41 102h-212l-10 -43l83 -32l-100 -486l-96 -33l-9 -43h243l9 43l-82 33l91 444h10l206 -424z" />
    <glyph glyph-name="Ograve" unicode="&#xd2;" horiz-adv-x="704" 
d="M449 709l31 14q-11 54 -22 101t-22 70q-9 20 -26 25.5t-36 -3.5q-20 -9 -27.5 -27t2.5 -40q10 -21 37.5 -60.5t62.5 -79.5zM304 -13q77 0 142 34t112.5 88.5t74 124t26.5 141.5q0 62 -18.5 113t-52.5 87t-82 55.5t-108 19.5q-77 0 -142.5 -34t-112.5 -88.5t-73.5 -124
t-26.5 -141.5q0 -62 18.5 -113t52.5 -87t82 -55.5t108 -19.5zM303 39q-38 0 -66 15t-46 41t-26.5 62.5t-8.5 78.5q0 76 19.5 142t53 115t77.5 77t93 28q38 0 66 -15t46 -41t26.5 -62.5t8.5 -78.5q0 -76 -19.5 -142t-53 -115t-77.5 -77t-93 -28z" />
    <glyph glyph-name="Oacute" unicode="&#xd3;" horiz-adv-x="704" 
d="M424 709l47.5 36.5l46 35.5l39.5 31.5t27 26.5q38 48 3 75q-18 14 -39.5 9.5t-40.5 -25.5q-11 -12 -24 -30.5t-27 -41.5l-29.5 -48.5l-30.5 -50.5zM304 -13q77 0 142 34t112.5 88.5t74 124t26.5 141.5q0 62 -18.5 113t-52.5 87t-82 55.5t-108 19.5q-77 0 -142.5 -34
t-112.5 -88.5t-73.5 -124t-26.5 -141.5q0 -62 18.5 -113t52.5 -87t82 -55.5t108 -19.5zM303 39q-38 0 -66 15t-46 41t-26.5 62.5t-8.5 78.5q0 76 19.5 142t53 115t77.5 77t93 28q38 0 66 -15t46 -41t26.5 -62.5t8.5 -78.5q0 -76 -19.5 -142t-53 -115t-77.5 -77t-93 -28z" />
    <glyph glyph-name="Ocircumflex" unicode="&#xd4;" horiz-adv-x="704" 
d="M337 704l128 108l83 -108l35 24l-80 183h-35l-158 -183zM304 -13q77 0 142 34t112.5 88.5t74 124t26.5 141.5q0 62 -18.5 113t-52.5 87t-82 55.5t-108 19.5q-77 0 -142.5 -34t-112.5 -88.5t-73.5 -124t-26.5 -141.5q0 -62 18.5 -113t52.5 -87t82 -55.5t108 -19.5zM303 39
q-38 0 -66 15t-46 41t-26.5 62.5t-8.5 78.5q0 76 19.5 142t53 115t77.5 77t93 28q38 0 66 -15t46 -41t26.5 -62.5t8.5 -78.5q0 -76 -19.5 -142t-53 -115t-77.5 -77t-93 -28z" />
    <glyph glyph-name="Otilde" unicode="&#xd5;" horiz-adv-x="704" 
d="M314 714q19 32 31 46.5t27 14.5q12 0 27 -7.5l31.5 -16.5t34.5 -16.5t37 -7.5q41 0 66.5 31.5t47.5 97.5l-37 9q-18 -32 -30.5 -46.5t-27.5 -14.5q-12 0 -27 7.5l-31.5 16.5t-34.5 16.5t-37 7.5q-41 0 -66.5 -31.5t-47.5 -97.5zM304 -13q77 0 142 34t112.5 88.5t74 124
t26.5 141.5q0 62 -18.5 113t-52.5 87t-82 55.5t-108 19.5q-77 0 -142.5 -34t-112.5 -88.5t-73.5 -124t-26.5 -141.5q0 -62 18.5 -113t52.5 -87t82 -55.5t108 -19.5zM303 39q-38 0 -66 15t-46 41t-26.5 62.5t-8.5 78.5q0 76 19.5 142t53 115t77.5 77t93 28q38 0 66 -15
t46 -41t26.5 -62.5t8.5 -78.5q0 -76 -19.5 -142t-53 -115t-77.5 -77t-93 -28z" />
    <glyph glyph-name="Odieresis" unicode="&#xd6;" horiz-adv-x="704" 
d="M537 727q28 0 46 19t18 45t-16 42.5t-42 16.5q-28 0 -46 -19t-18 -45t16 -42.5t42 -16.5zM347 727q28 0 46 19t18 45t-16 42.5t-42 16.5q-28 0 -46 -19t-18 -45t16 -42.5t42 -16.5zM304 -13q77 0 142 34t112.5 88.5t74 124t26.5 141.5q0 62 -18.5 113t-52.5 87t-82 55.5
t-108 19.5q-77 0 -142.5 -34t-112.5 -88.5t-73.5 -124t-26.5 -141.5q0 -62 18.5 -113t52.5 -87t82 -55.5t108 -19.5zM303 39q-38 0 -66 15t-46 41t-26.5 62.5t-8.5 78.5q0 76 19.5 142t53 115t77.5 77t93 28q38 0 66 -15t46 -41t26.5 -62.5t8.5 -78.5q0 -76 -19.5 -142
t-53 -115t-77.5 -77t-93 -28z" />
    <glyph glyph-name="Oslash" unicode="&#xd8;" horiz-adv-x="704" 
d="M64 -32l72 79q34 -29 77 -44.5t91 -15.5q77 0 142 34t112.5 88.5t74 124t26.5 141.5q0 55 -15.5 100.5t-44.5 80.5l76 83l-33 30l-74 -81q-34 30 -77.5 46t-92.5 16q-77 0 -142.5 -34t-112.5 -88.5t-73.5 -124t-26.5 -141.5q0 -55 16 -101.5t45 -81.5l-74 -82zM167 148
q-11 41 -11 88q0 76 19.5 142t53 115t77.5 77t93 28q42 0 71 -17.5t47 -48.5zM303 39q-42 0 -70.5 17t-46.5 46l350 384q10 -36 10 -85q0 -76 -19.5 -142t-53 -115t-77.5 -77t-93 -28z" />
    <glyph glyph-name="Ugrave" unicode="&#xd9;" horiz-adv-x="733" 
d="M482 709l31 14q-11 54 -22 101t-22 70q-9 20 -26 25.5t-36 -3.5q-20 -9 -27.5 -27t2.5 -40q10 -21 37.5 -60.5t62.5 -79.5zM349 -15q107 0 169 56t85 161l77 359l95 33l10 43h-243l-10 -43l83 -33l-73 -338q-19 -86 -60.5 -126.5t-112.5 -40.5q-93 0 -128.5 51.5
t-14.5 150.5l67 312l117 24l8 43h-328l-10 -43l107 -24l-64 -306q-29 -137 28.5 -208t197.5 -71z" />
    <glyph glyph-name="Uacute" unicode="&#xda;" horiz-adv-x="733" 
d="M463 709l47.5 36.5l46 35.5l39.5 31.5t27 26.5q38 48 3 75q-18 14 -39.5 9.5t-40.5 -25.5q-11 -12 -24 -30.5t-27 -41.5l-29.5 -48.5l-30.5 -50.5zM349 -15q107 0 169 56t85 161l77 359l95 33l10 43h-243l-10 -43l83 -33l-73 -338q-19 -86 -60.5 -126.5t-112.5 -40.5
q-93 0 -128.5 51.5t-14.5 150.5l67 312l117 24l8 43h-328l-10 -43l107 -24l-64 -306q-29 -137 28.5 -208t197.5 -71z" />
    <glyph glyph-name="Ucircumflex" unicode="&#xdb;" horiz-adv-x="733" 
d="M381 704l128 108l83 -108l35 24l-80 183h-35l-158 -183zM349 -15q107 0 169 56t85 161l77 359l95 33l10 43h-243l-10 -43l83 -33l-73 -338q-19 -86 -60.5 -126.5t-112.5 -40.5q-93 0 -128.5 51.5t-14.5 150.5l67 312l117 24l8 43h-328l-10 -43l107 -24l-64 -306
q-29 -137 28.5 -208t197.5 -71z" />
    <glyph glyph-name="Udieresis" unicode="&#xdc;" horiz-adv-x="733" 
d="M577 727q28 0 46 19t18 45t-16 42.5t-42 16.5q-28 0 -46 -19t-18 -45t16 -42.5t42 -16.5zM387 727q28 0 46 19t18 45t-16 42.5t-42 16.5q-28 0 -46 -19t-18 -45t16 -42.5t42 -16.5zM349 -15q107 0 169 56t85 161l77 359l95 33l10 43h-243l-10 -43l83 -33l-73 -338
q-19 -86 -60.5 -126.5t-112.5 -40.5q-93 0 -128.5 51.5t-14.5 150.5l67 312l117 24l8 43h-328l-10 -43l107 -24l-64 -306q-29 -137 28.5 -208t197.5 -71z" />
    <glyph glyph-name="germandbls" unicode="&#xdf;" horiz-adv-x="526" 
d="M-77 -219q60 0 110 48q23 22 39 44.5t28 51.5t21.5 68t19.5 94l68 388q18 104 58 161.5t92 57.5q35 0 53 -21.5t18 -56.5q0 -66 -41 -132.5t-129 -131.5l-2 -19q40 -36 67.5 -66t44.5 -55.5t25 -49t8 -46.5q0 -35 -19.5 -58.5t-49.5 -23.5q-9 0 -16.5 2t-15.5 5
q3 36 -12 57t-36 21q-20 0 -32.5 -16t-12.5 -37q0 -37 33.5 -57t82.5 -20q33 0 61 10.5t49 31t32.5 50t11.5 67.5q0 53 -35.5 109.5t-98.5 113.5q83 59 130 114t47 124q0 26 -9.5 50t-27.5 42t-45 29t-62 11q-72 0 -125 -41q-54 -42 -84.5 -100t-46.5 -145l-82 -465
q-11 -59 -23.5 -93.5t-34.5 -54.5q-16 21 -33.5 32.5t-41.5 11.5q-26 0 -42 -14t-16 -34q0 -22 19 -39.5t55 -17.5z" />
    <glyph glyph-name="agrave" unicode="&#xe0;" horiz-adv-x="509" 
d="M342 523l31 14q-11 54 -22 101t-22 70q-9 20 -26 25.5t-36 -3.5q-20 -9 -27.5 -27t2.5 -40q10 -21 37.5 -60.5t62.5 -79.5zM144 -9q44 0 78 25.5t74 67.5l10 -3q-3 -19 -3 -36q0 -16 5.5 -28.5t17.5 -20t32 -7.5q26 0 55 12t59 30l-2 27q-31 -1 -49.5 0t-27.5 5.5
t-10.5 12.5t1.5 20l84 389l-29 11l-46 -63q-17 14 -37 22.5t-44 8.5q-35 0 -69.5 -14t-66.5 -38.5t-60 -57.5t-48.5 -70.5t-32.5 -77.5t-12 -79q0 -64 33.5 -100t87.5 -36zM182 67q-28 0 -48.5 19t-20.5 63q0 49 14 95t38 81.5t55.5 57t65.5 21.5q24 0 42.5 -12t32.5 -32
l-47 -211q-39 -41 -71 -61.5t-61 -20.5z" />
    <glyph glyph-name="aacute" unicode="&#xe1;" horiz-adv-x="509" 
d="M309 523l47.5 36.5l46 35.5l39.5 31.5t27 26.5q38 48 3 75q-18 14 -39.5 9.5t-40.5 -25.5q-11 -12 -24 -30.5t-27 -41.5l-29.5 -48.5l-30.5 -50.5zM144 -9q44 0 78 25.5t74 67.5l10 -3q-3 -19 -3 -36q0 -16 5.5 -28.5t17.5 -20t32 -7.5q26 0 55 12t59 30l-2 27
q-31 -1 -49.5 0t-27.5 5.5t-10.5 12.5t1.5 20l84 389l-29 11l-46 -63q-17 14 -37 22.5t-44 8.5q-35 0 -69.5 -14t-66.5 -38.5t-60 -57.5t-48.5 -70.5t-32.5 -77.5t-12 -79q0 -64 33.5 -100t87.5 -36zM182 67q-28 0 -48.5 19t-20.5 63q0 49 14 95t38 81.5t55.5 57t65.5 21.5
q24 0 42.5 -12t32.5 -32l-47 -211q-39 -41 -71 -61.5t-61 -20.5z" />
    <glyph glyph-name="acircumflex" unicode="&#xe2;" horiz-adv-x="509" 
d="M241 518l128 108l83 -108l35 24l-80 183h-35l-158 -183zM144 -9q44 0 78 25.5t74 67.5l10 -3q-3 -19 -3 -36q0 -16 5.5 -28.5t17.5 -20t32 -7.5q26 0 55 12t59 30l-2 27q-31 -1 -49.5 0t-27.5 5.5t-10.5 12.5t1.5 20l84 389l-29 11l-46 -63q-17 14 -37 22.5t-44 8.5
q-35 0 -69.5 -14t-66.5 -38.5t-60 -57.5t-48.5 -70.5t-32.5 -77.5t-12 -79q0 -64 33.5 -100t87.5 -36zM182 67q-28 0 -48.5 19t-20.5 63q0 49 14 95t38 81.5t55.5 57t65.5 21.5q24 0 42.5 -12t32.5 -32l-47 -211q-39 -41 -71 -61.5t-61 -20.5z" />
    <glyph glyph-name="atilde" unicode="&#xe3;" horiz-adv-x="509" 
d="M214 528q19 32 31 46.5t27 14.5q12 0 27 -7.5l31.5 -16.5t34.5 -16.5t37 -7.5q41 0 66.5 31.5t47.5 97.5l-37 9q-18 -32 -30.5 -46.5t-27.5 -14.5q-12 0 -27 7.5l-31.5 16.5t-34.5 16.5t-37 7.5q-41 0 -66.5 -31.5t-47.5 -97.5zM144 -9q44 0 78 25.5t74 67.5l10 -3
q-3 -19 -3 -36q0 -16 5.5 -28.5t17.5 -20t32 -7.5q26 0 55 12t59 30l-2 27q-31 -1 -49.5 0t-27.5 5.5t-10.5 12.5t1.5 20l84 389l-29 11l-46 -63q-17 14 -37 22.5t-44 8.5q-35 0 -69.5 -14t-66.5 -38.5t-60 -57.5t-48.5 -70.5t-32.5 -77.5t-12 -79q0 -64 33.5 -100t87.5 -36
zM182 67q-28 0 -48.5 19t-20.5 63q0 49 14 95t38 81.5t55.5 57t65.5 21.5q24 0 42.5 -12t32.5 -32l-47 -211q-39 -41 -71 -61.5t-61 -20.5z" />
    <glyph glyph-name="adieresis" unicode="&#xe4;" horiz-adv-x="509" 
d="M443 541q28 0 46 19t18 45t-16 42.5t-42 16.5q-28 0 -46 -19t-18 -45t16 -42.5t42 -16.5zM253 541q28 0 46 19t18 45t-16 42.5t-42 16.5q-28 0 -46 -19t-18 -45t16 -42.5t42 -16.5zM144 -9q44 0 78 25.5t74 67.5l10 -3q-3 -19 -3 -36q0 -16 5.5 -28.5t17.5 -20t32 -7.5
q26 0 55 12t59 30l-2 27q-31 -1 -49.5 0t-27.5 5.5t-10.5 12.5t1.5 20l84 389l-29 11l-46 -63q-17 14 -37 22.5t-44 8.5q-35 0 -69.5 -14t-66.5 -38.5t-60 -57.5t-48.5 -70.5t-32.5 -77.5t-12 -79q0 -64 33.5 -100t87.5 -36zM182 67q-28 0 -48.5 19t-20.5 63q0 49 14 95
t38 81.5t55.5 57t65.5 21.5q24 0 42.5 -12t32.5 -32l-47 -211q-39 -41 -71 -61.5t-61 -20.5z" />
    <glyph glyph-name="aring" unicode="&#xe5;" horiz-adv-x="509" 
d="M332 539q26 0 47.5 10.5t36.5 27t23.5 37.5t8.5 42q0 38 -24.5 63.5t-64.5 25.5q-26 0 -47.5 -10.5t-36.5 -27t-23.5 -37.5t-8.5 -42q0 -38 24.5 -63.5t64.5 -25.5zM144 -9q44 0 78 25.5t74 67.5l10 -3q-3 -19 -3 -36q0 -16 5.5 -28.5t17.5 -20t32 -7.5q26 0 55 12t59 30
l-2 27q-31 -1 -49.5 0t-27.5 5.5t-10.5 12.5t1.5 20l84 389l-29 11l-46 -63q-17 14 -37 22.5t-44 8.5q-35 0 -69.5 -14t-66.5 -38.5t-60 -57.5t-48.5 -70.5t-32.5 -77.5t-12 -79q0 -64 33.5 -100t87.5 -36zM337 567q-17 0 -30 15t-13 47q0 12 3.5 27t11 28.5t19 23t26.5 9.5
q17 0 30 -15t13 -47q0 -12 -4 -27t-11.5 -28.5t-18.5 -23t-26 -9.5zM182 67q-28 0 -48.5 19t-20.5 63q0 49 14 95t38 81.5t55.5 57t65.5 21.5q24 0 42.5 -12t32.5 -32l-47 -211q-39 -41 -71 -61.5t-61 -20.5z" />
    <glyph glyph-name="ae" unicode="&#xe6;" horiz-adv-x="688" 
d="M297 74q20 -40 59 -62.5t92 -22.5q64 0 110 29t72 70l-26 21q-28 -24 -55.5 -37t-59.5 -13q-36 0 -59.5 11t-37 30.5t-18 45.5t-1.5 56q142 -5 218.5 35t76.5 122q0 47 -35 76t-92 29q-34 0 -64.5 -10.5t-57.5 -30.5q-16 13 -40.5 27t-64.5 14q-32 0 -65.5 -14t-65.5 -39
t-60.5 -58t-50 -70.5t-34 -78.5t-12.5 -80q0 -66 33 -100.5t86 -34.5q42 0 76.5 23t73.5 62h2zM379 244q8 39 23 72t35 56.5t43 37t47 13.5q28 0 42 -16.5t14 -42.5q0 -66 -51 -97t-153 -23zM356 363q-36 -46 -56.5 -101t-20.5 -106q0 -23 4 -42q-33 -30 -53.5 -42
t-42.5 -12q-29 0 -49 23.5t-20 70.5q0 50 13 94t35.5 77t52.5 52.5t63 19.5q23 0 40.5 -8.5t33.5 -25.5z" />
    <glyph glyph-name="ccedilla" unicode="&#xe7;" horiz-adv-x="429" 
d="M122 -259q50 0 82 29t34 71q-1 32 -21 55t-52 31l89 70q39 11 70 35.5t54 56.5l-32 27q-27 -26 -54.5 -40t-52.5 -14q-51 0 -83.5 32.5t-32.5 99.5q0 41 14.5 81t39.5 71.5t58.5 50t70.5 17.5q-3 -11 -4.5 -20t-1.5 -20q0 -30 14.5 -46t40.5 -16q23 0 39.5 20.5
t16.5 46.5q0 36 -27.5 60.5t-78.5 24.5q-55 0 -104.5 -26.5t-87 -68.5t-59.5 -95t-22 -107q0 -39 12.5 -70.5t33.5 -54.5t50 -36t62 -16h2l-121 -93l14 -24l17 5t16 2q21 0 38 -15t19 -41q2 -24 -14 -37.5t-36 -13.5q-5 0 -7 1.5t-7 2.5q2 4 2.5 7.5t0.5 8.5q0 13 -7.5 23.5
t-23.5 10.5q-17 0 -26.5 -10.5t-9.5 -27.5t20 -32.5t55 -15.5z" />
    <glyph glyph-name="egrave" unicode="&#xe8;" horiz-adv-x="438" 
d="M304 523l31 14q-11 54 -22 101t-22 70q-9 20 -26 25.5t-36 -3.5q-20 -9 -27.5 -27t2.5 -40q10 -21 37.5 -60.5t62.5 -79.5zM123 202q142 -5 218.5 35t76.5 122q0 47 -35 76t-92 29t-105 -29.5t-83 -74.5t-54.5 -99.5t-19.5 -104.5q0 -39 12.5 -69.5t35 -52.5t53.5 -33.5
t68 -11.5q64 0 110 29t72 70l-26 21q-28 -24 -55.5 -37t-59.5 -13q-36 0 -59.5 11t-37 30.5t-18 45.5t-1.5 56zM129 244q8 39 23 72t35 56.5t43 37t47 13.5q28 0 42 -16.5t14 -42.5q0 -66 -51 -97t-153 -23z" />
    <glyph glyph-name="eacute" unicode="&#xe9;" horiz-adv-x="438" 
d="M275 523l47.5 36.5l46 35.5l39.5 31.5t27 26.5q38 48 3 75q-18 14 -39.5 9.5t-40.5 -25.5q-11 -12 -24 -30.5t-27 -41.5l-29.5 -48.5l-30.5 -50.5zM123 202q142 -5 218.5 35t76.5 122q0 47 -35 76t-92 29t-105 -29.5t-83 -74.5t-54.5 -99.5t-19.5 -104.5
q0 -39 12.5 -69.5t35 -52.5t53.5 -33.5t68 -11.5q64 0 110 29t72 70l-26 21q-28 -24 -55.5 -37t-59.5 -13q-36 0 -59.5 11t-37 30.5t-18 45.5t-1.5 56zM129 244q8 39 23 72t35 56.5t43 37t47 13.5q28 0 42 -16.5t14 -42.5q0 -66 -51 -97t-153 -23z" />
    <glyph glyph-name="ecircumflex" unicode="&#xea;" horiz-adv-x="438" 
d="M201 518l128 108l83 -108l35 24l-80 183h-35l-158 -183zM123 202q142 -5 218.5 35t76.5 122q0 47 -35 76t-92 29t-105 -29.5t-83 -74.5t-54.5 -99.5t-19.5 -104.5q0 -39 12.5 -69.5t35 -52.5t53.5 -33.5t68 -11.5q64 0 110 29t72 70l-26 21q-28 -24 -55.5 -37t-59.5 -13
q-36 0 -59.5 11t-37 30.5t-18 45.5t-1.5 56zM129 244q8 39 23 72t35 56.5t43 37t47 13.5q28 0 42 -16.5t14 -42.5q0 -66 -51 -97t-153 -23z" />
    <glyph glyph-name="edieresis" unicode="&#xeb;" horiz-adv-x="438" 
d="M401 541q28 0 46 19t18 45t-16 42.5t-42 16.5q-28 0 -46 -19t-18 -45t16 -42.5t42 -16.5zM211 541q28 0 46 19t18 45t-16 42.5t-42 16.5q-28 0 -46 -19t-18 -45t16 -42.5t42 -16.5zM123 202q142 -5 218.5 35t76.5 122q0 47 -35 76t-92 29t-105 -29.5t-83 -74.5
t-54.5 -99.5t-19.5 -104.5q0 -39 12.5 -69.5t35 -52.5t53.5 -33.5t68 -11.5q64 0 110 29t72 70l-26 21q-28 -24 -55.5 -37t-59.5 -13q-36 0 -59.5 11t-37 30.5t-18 45.5t-1.5 56zM129 244q8 39 23 72t35 56.5t43 37t47 13.5q28 0 42 -16.5t14 -42.5q0 -66 -51 -97t-153 -23z
" />
    <glyph glyph-name="igrave" unicode="&#xec;" horiz-adv-x="284" 
d="M206 523l31 14q-11 54 -22 101t-22 70q-9 20 -26 25.5t-36 -3.5q-20 -9 -27.5 -27t2.5 -40q10 -21 37.5 -60.5t62.5 -79.5zM107 -11q26 0 61 12t65 30l-2 27q-32 -1 -50.5 0t-27 5.5t-9.5 13t2 21.5l83 364l-8 8l-172 -52l-5 -35l80 -26l-67 -297q-6 -27 6 -49t44 -22z
" />
    <glyph glyph-name="iacute" unicode="&#xed;" horiz-adv-x="284" 
d="M159 523l47.5 36.5l46 35.5l39.5 31.5t27 26.5q38 48 3 75q-18 14 -39.5 9.5t-40.5 -25.5q-11 -12 -24 -30.5t-27 -41.5l-29.5 -48.5l-30.5 -50.5zM107 -11q26 0 61 12t65 30l-2 27q-32 -1 -50.5 0t-27 5.5t-9.5 13t2 21.5l83 364l-8 8l-172 -52l-5 -35l80 -26l-67 -297
q-6 -27 6 -49t44 -22z" />
    <glyph glyph-name="icircumflex" unicode="&#xee;" horiz-adv-x="284" 
d="M87 518l128 108l83 -108l35 24l-80 183h-35l-158 -183zM107 -11q26 0 61 12t65 30l-2 27q-32 -1 -50.5 0t-27 5.5t-9.5 13t2 21.5l83 364l-8 8l-172 -52l-5 -35l80 -26l-67 -297q-6 -27 6 -49t44 -22z" />
    <glyph glyph-name="idieresis" unicode="&#xef;" horiz-adv-x="284" 
d="M299 541q28 0 46 19t18 45t-16 42.5t-42 16.5q-28 0 -46 -19t-18 -45t16 -42.5t42 -16.5zM109 541q28 0 46 19t18 45t-16 42.5t-42 16.5q-28 0 -46 -19t-18 -45t16 -42.5t42 -16.5zM107 -11q26 0 61 12t65 30l-2 27q-32 -1 -50.5 0t-27 5.5t-9.5 13t2 21.5l83 364l-8 8
l-172 -52l-5 -35l80 -26l-67 -297q-6 -27 6 -49t44 -22z" />
    <glyph glyph-name="ntilde" unicode="&#xf1;" horiz-adv-x="542" 
d="M196 528q19 32 31 46.5t27 14.5q12 0 27 -7.5l31.5 -16.5t34.5 -16.5t37 -7.5q41 0 66.5 31.5t47.5 97.5l-37 9q-18 -32 -30.5 -46.5t-27.5 -14.5q-12 0 -27 7.5l-31.5 16.5t-34.5 16.5t-37 7.5q-41 0 -66.5 -31.5t-47.5 -97.5zM390 -11q26 0 60 12t64 30l-2 27
q-31 -1 -49.5 0t-27.5 5.5t-10.5 13t1.5 21.5l50 211q18 75 -9 115t-87 40q-36 0 -79.5 -27.5t-92.5 -72.5l-10 2l26 96l-8 8l-170 -52l-2 -35l76 -26l-80 -357h83l66 303q56 46 91 63.5t60 17.5q33 0 47 -22t3 -70l-46 -200q-3 -12 -5.5 -27.5t-2.5 -26.5q0 -20 12 -34.5
t42 -14.5z" />
    <glyph glyph-name="ograve" unicode="&#xf2;" horiz-adv-x="492" 
d="M307 523l31 14q-11 54 -22 101t-22 70q-9 20 -26 25.5t-36 -3.5q-20 -9 -27.5 -27t2.5 -40q10 -21 37.5 -60.5t62.5 -79.5zM187 -11q59 0 109 27t87 70.5t57.5 98.5t20.5 111q0 42 -12.5 73.5t-34 52.5t-50 31.5t-59.5 10.5q-59 0 -109 -27t-87 -70.5t-57.5 -98.5
t-20.5 -111q0 -42 12.5 -73.5t34 -52.5t49.5 -31.5t60 -10.5zM223 48q-45 0 -72.5 32t-27.5 98q0 40 10.5 81t29.5 73t46 52.5t60 20.5q45 0 72.5 -32t27.5 -98q0 -41 -10.5 -81.5t-29.5 -72.5t-46 -52.5t-60 -20.5z" />
    <glyph glyph-name="oacute" unicode="&#xf3;" horiz-adv-x="492" 
d="M286 523l47.5 36.5l46 35.5l39.5 31.5t27 26.5q38 48 3 75q-18 14 -39.5 9.5t-40.5 -25.5q-11 -12 -24 -30.5t-27 -41.5l-29.5 -48.5l-30.5 -50.5zM187 -11q59 0 109 27t87 70.5t57.5 98.5t20.5 111q0 42 -12.5 73.5t-34 52.5t-50 31.5t-59.5 10.5q-59 0 -109 -27
t-87 -70.5t-57.5 -98.5t-20.5 -111q0 -42 12.5 -73.5t34 -52.5t49.5 -31.5t60 -10.5zM223 48q-45 0 -72.5 32t-27.5 98q0 40 10.5 81t29.5 73t46 52.5t60 20.5q45 0 72.5 -32t27.5 -98q0 -41 -10.5 -81.5t-29.5 -72.5t-46 -52.5t-60 -20.5z" />
    <glyph glyph-name="ocircumflex" unicode="&#xf4;" horiz-adv-x="492" 
d="M200 518l128 108l83 -108l35 24l-80 183h-35l-158 -183zM187 -11q59 0 109 27t87 70.5t57.5 98.5t20.5 111q0 42 -12.5 73.5t-34 52.5t-50 31.5t-59.5 10.5q-59 0 -109 -27t-87 -70.5t-57.5 -98.5t-20.5 -111q0 -42 12.5 -73.5t34 -52.5t49.5 -31.5t60 -10.5zM223 48
q-45 0 -72.5 32t-27.5 98q0 40 10.5 81t29.5 73t46 52.5t60 20.5q45 0 72.5 -32t27.5 -98q0 -41 -10.5 -81.5t-29.5 -72.5t-46 -52.5t-60 -20.5z" />
    <glyph glyph-name="otilde" unicode="&#xf5;" horiz-adv-x="492" 
d="M187 528q19 32 31 46.5t27 14.5q12 0 27 -7.5l31.5 -16.5t34.5 -16.5t37 -7.5q41 0 66.5 31.5t47.5 97.5l-37 9q-18 -32 -30.5 -46.5t-27.5 -14.5q-12 0 -27 7.5l-31.5 16.5t-34.5 16.5t-37 7.5q-41 0 -66.5 -31.5t-47.5 -97.5zM187 -11q59 0 109 27t87 70.5t57.5 98.5
t20.5 111q0 42 -12.5 73.5t-34 52.5t-50 31.5t-59.5 10.5q-59 0 -109 -27t-87 -70.5t-57.5 -98.5t-20.5 -111q0 -42 12.5 -73.5t34 -52.5t49.5 -31.5t60 -10.5zM223 48q-45 0 -72.5 32t-27.5 98q0 40 10.5 81t29.5 73t46 52.5t60 20.5q45 0 72.5 -32t27.5 -98
q0 -41 -10.5 -81.5t-29.5 -72.5t-46 -52.5t-60 -20.5z" />
    <glyph glyph-name="odieresis" unicode="&#xf6;" horiz-adv-x="492" 
d="M420 541q28 0 46 19t18 45t-16 42.5t-42 16.5q-28 0 -46 -19t-18 -45t16 -42.5t42 -16.5zM230 541q28 0 46 19t18 45t-16 42.5t-42 16.5q-28 0 -46 -19t-18 -45t16 -42.5t42 -16.5zM187 -11q59 0 109 27t87 70.5t57.5 98.5t20.5 111q0 42 -12.5 73.5t-34 52.5t-50 31.5
t-59.5 10.5q-59 0 -109 -27t-87 -70.5t-57.5 -98.5t-20.5 -111q0 -42 12.5 -73.5t34 -52.5t49.5 -31.5t60 -10.5zM223 48q-45 0 -72.5 32t-27.5 98q0 40 10.5 81t29.5 73t46 52.5t60 20.5q45 0 72.5 -32t27.5 -98q0 -41 -10.5 -81.5t-29.5 -72.5t-46 -52.5t-60 -20.5z" />
    <glyph glyph-name="divide" unicode="&#xf7;" horiz-adv-x="520" 
d="M296 397q26 0 44 18t18 44t-18 44t-44 18t-44 -18t-18 -44t18 -44t44 -18zM472 277l13 60h-430l-13 -60h430zM231 92q26 0 44 18t18 44t-18 44t-44 18t-44 -18t-18 -44t18 -44t44 -18z" />
    <glyph glyph-name="oslash" unicode="&#xf8;" horiz-adv-x="492" 
d="M55 -29l40 47q40 -29 92 -29q59 0 109 27t87 70.5t57.5 98.5t20.5 111q0 34 -9 62t-26 48l44 52l-30 24l-41 -49q-42 31 -94 31q-59 0 -109 -27t-87 -70.5t-57.5 -98.5t-20.5 -111q0 -35 10 -63t27 -50l-43 -50zM129 117q-8 27 -8 61q0 41 10.5 82t30 73.5t47 53
t60.5 20.5q50 0 77 -36zM223 46q-48 0 -75 34l216 253q7 -24 7 -58q0 -41 -10.5 -82t-30 -73.5t-47 -53t-60.5 -20.5z" />
    <glyph glyph-name="ugrave" unicode="&#xf9;" horiz-adv-x="542" 
d="M318 523l31 14q-11 54 -22 101t-22 70q-9 20 -26 25.5t-36 -3.5q-20 -9 -27.5 -27t2.5 -40q10 -21 37.5 -60.5t62.5 -79.5zM157 -11q36 0 81 28.5t94 73.5l10 -2q-5 -20 -5.5 -38t4.5 -32t17.5 -22t33.5 -8q26 0 55 12t59 30l-2 27q-31 -1 -49.5 0t-27.5 5.5t-11 12.5
t1 20l81 366l-8 8l-173 -52l-2 -35l78 -27l-45 -206q-56 -46 -91 -63.5t-60 -17.5q-33 0 -47 22t-3 70l68 301l-8 8l-171 -52l-2 -35l78 -27l-51 -212q-18 -75 9 -115t87 -40z" />
    <glyph glyph-name="uacute" unicode="&#xfa;" horiz-adv-x="542" 
d="M297 523l47.5 36.5l46 35.5l39.5 31.5t27 26.5q38 48 3 75q-18 14 -39.5 9.5t-40.5 -25.5q-11 -12 -24 -30.5t-27 -41.5l-29.5 -48.5l-30.5 -50.5zM157 -11q36 0 81 28.5t94 73.5l10 -2q-5 -20 -5.5 -38t4.5 -32t17.5 -22t33.5 -8q26 0 55 12t59 30l-2 27q-31 -1 -49.5 0
t-27.5 5.5t-11 12.5t1 20l81 366l-8 8l-173 -52l-2 -35l78 -27l-45 -206q-56 -46 -91 -63.5t-60 -17.5q-33 0 -47 22t-3 70l68 301l-8 8l-171 -52l-2 -35l78 -27l-51 -212q-18 -75 9 -115t87 -40z" />
    <glyph glyph-name="ucircumflex" unicode="&#xfb;" horiz-adv-x="542" 
d="M217 518l128 108l83 -108l35 24l-80 183h-35l-158 -183zM157 -11q36 0 81 28.5t94 73.5l10 -2q-5 -20 -5.5 -38t4.5 -32t17.5 -22t33.5 -8q26 0 55 12t59 30l-2 27q-31 -1 -49.5 0t-27.5 5.5t-11 12.5t1 20l81 366l-8 8l-173 -52l-2 -35l78 -27l-45 -206
q-56 -46 -91 -63.5t-60 -17.5q-33 0 -47 22t-3 70l68 301l-8 8l-171 -52l-2 -35l78 -27l-51 -212q-18 -75 9 -115t87 -40z" />
    <glyph glyph-name="udieresis" unicode="&#xfc;" horiz-adv-x="542" 
d="M421 541q28 0 46 19t18 45t-16 42.5t-42 16.5q-28 0 -46 -19t-18 -45t16 -42.5t42 -16.5zM231 541q28 0 46 19t18 45t-16 42.5t-42 16.5q-28 0 -46 -19t-18 -45t16 -42.5t42 -16.5zM157 -11q36 0 81 28.5t94 73.5l10 -2q-5 -20 -5.5 -38t4.5 -32t17.5 -22t33.5 -8
q26 0 55 12t59 30l-2 27q-31 -1 -49.5 0t-27.5 5.5t-11 12.5t1 20l81 366l-8 8l-173 -52l-2 -35l78 -27l-45 -206q-56 -46 -91 -63.5t-60 -17.5q-33 0 -47 22t-3 70l68 301l-8 8l-171 -52l-2 -35l78 -27l-51 -212q-18 -75 9 -115t87 -40z" />
    <glyph glyph-name="ydieresis" unicode="&#xff;" horiz-adv-x="482" 
d="M399 541q28 0 46 19t18 45t-16 42.5t-42 16.5q-28 0 -46 -19t-18 -45t16 -42.5t42 -16.5zM209 541q28 0 46 19t18 45t-16 42.5t-42 16.5q-28 0 -46 -19t-18 -45t16 -42.5t42 -16.5zM28 -219q30 0 55.5 16.5t50.5 39.5q48 43 93 113.5t88 152.5t83.5 167.5l78.5 159.5
l-86 40h-4l-21 -72t-27 -87.5l-32.5 -96.5t-36.5 -99h-10q-9 84 -21 150.5t-30 128.5q-11 40 -29.5 55t-47.5 15q-13 0 -27.5 -5.5t-29 -15t-28 -22t-25.5 -27.5l11 -27q17 5 28.5 8t20.5 3q19 0 30 -10t21 -43q9 -29 18 -66.5t18 -81t17 -91t13 -95.5q-28 -48 -60.5 -87
t-77.5 -60q-2 32 -15 53t-38 21t-40 -18t-15 -45q0 -31 19.5 -52.5t55.5 -21.5z" />
    <glyph glyph-name="dotaccent" unicode="&#x2d9;" horiz-adv-x="172" 
d="M142 536q31 0 51.5 21t19.5 48q2 27 -15.5 45.5t-46.5 18.5t-48.5 -21t-20.5 -48t16 -45.5t44 -18.5z" />
    <glyph glyph-name="apple" unicode="&#xf8ff;" horiz-adv-x="694" 
d="M644 -200v921h-101l-29 79h-334l-30 -79h-100v-554q14 0 23 -9.5t9 -22.5q0 -14 -9 -23t-23 -9v-303h207l8 14h163l8 -14h208zM400 563h58v-14h-43v-66h38v-14h-38v-78h-15v172zM184 563h15v-79h47v79h15v-172h-15v79h-47v-79h-15v172zM460 394v16q4 -2 10 -4t10 -2
q16 0 16 22v137h16v-137q0 -36 -31 -36q-5 0 -11.5 1t-9.5 3zM349 438l4.5 15l4.5 15l13 -3q-2 -11 -5.5 -20.5t-7.5 -18.5l16 -30l-11 -8l-12 24h-1q-4 -9 -10.5 -16.5t-16.5 -7.5q-14 0 -22.5 11t-8.5 28q0 27 23 45q-6 11 -10 19.5t-4 19.5t7.5 21t20.5 10q14 0 20.5 -10
t6.5 -21q0 -12 -6.5 -22.5t-16.5 -19.5zM523 323h8v-24l21 24h10l-18 -20l19 -26h-9l-16 20l-7 -7v-13h-8v46zM488 292h-12v-15h-8v46h21q8 0 12 -4.5t4 -9.5q0 -12 -10 -15l12 -17h-9zM426 276q-11 0 -17 7t-6 17q0 9 6 16.5t17 7.5t17.5 -7.5t6.5 -16.5q0 -10 -6.5 -17
t-17.5 -7zM370 301l13 22h9l-18 -29v-17h-8v17l-18 29h9zM193 323h33v-7h-25v-12h22v-7h-22v-13h25v-7h-33v46zM132 323h7l25 -32v32h8v-46h-7l-25 32v-32h-8v46zM241 323h8l10 -35h1l11 35h8l10 -35h1l10 35h8l-14 -47h-8l-11 34h-1l-10 -34h-8zM327 479q15 16 15 32
q0 8 -3.5 13.5t-9.5 5.5t-10 -5.5t-4 -13.5t3.5 -15zM342 423l-20 39q-15 -15 -15 -33q0 -11 4.5 -19t12.5 -8q5 0 10.5 6.5t7.5 14.5zM488 299q9 0 9 9q0 8 -10 8h-11v-17h12zM426 283q7 0 11.5 5t4.5 12q0 6 -4.5 11.5t-11.5 5.5t-11 -5.5t-4 -11.5q0 -7 4 -12t11 -5z" />
    <glyph glyph-name="approxequal" unicode="&#x2248;" horiz-adv-x="855" 
d="M428 382l-69 -392q-11 -59 -23.5 -93.5t-34.5 -54.5q-16 21 -33.5 32.5t-41.5 11.5q-26 0 -42 -14t-16 -34q0 -22 19 -39.5t55 -17.5q60 0 110 48q23 22 39 44.5t28 51.5t21.5 68t19.5 94l51 295h190l-73 -322q-6 -27 6 -49t44 -22q26 0 61 12t65 30l-2 27
q-32 -1 -50.5 0t-27 5.5t-9.5 13t2 21.5l83 364l-8 8l-89 -27h-181l9 50q9 51 24 87.5t35 60.5t43 36t49 15q14 -38 35.5 -59.5t54.5 -21.5q29 0 43 17t14 39q0 27 -28 50.5t-84 23.5q-38 0 -75.5 -10t-68.5 -31l-21 -16t-19 -16q-8 23 -35 40t-74 17q-38 0 -75.5 -10
t-68.5 -31q-56 -38 -85.5 -90.5t-43.5 -137.5l-1 -8l-110 -28l-8 -38h105l-68 -392q-11 -59 -23.5 -93.5t-34.5 -54.5q-16 21 -33.5 32.5t-41.5 11.5q-26 0 -42 -14t-16 -34q0 -22 19 -39.5t55 -17.5q60 0 110 48q23 22 39 44.5t28 51.5t21.5 68t19.5 94l51 295h207z
M480 595q-24 -50 -36 -123l-5 -29h-207l6 34q9 51 24 87.5t35 60.5t43 36t49 15q28 -81 91 -81z" />
    <glyph glyph-name="greaterequal" unicode="&#x2265;" 
d="M25 -200h450v1000h-450v-1000z" />
    <glyph glyph-name="infinity" unicode="&#x221e;" 
d="M25 -200h450v1000h-450v-1000z" />
    <glyph glyph-name="integral" unicode="&#x222b;" 
d="M25 -200h450v1000h-450v-1000z" />
    <glyph glyph-name="lessequal" unicode="&#x2264;" 
d="M25 -200h450v1000h-450v-1000z" />
    <glyph glyph-name="lozenge" unicode="&#x25ca;" horiz-adv-x="780" 
d="M331 435q0 21 -8 35.5t-21 24.5t-29.5 16.5t-34.5 11.5q-31 9 -53.5 20t-22.5 36q0 19 13 29t30 10q10 0 18.5 -3t18.5 -10.5t22.5 -21.5t29.5 -35l23 4l-6 99h-23l-12 -21q-16 7 -32 10.5t-35 3.5q-20 0 -37.5 -6.5t-31 -18.5t-21.5 -28t-8 -35q0 -20 8.5 -34.5
t22.5 -24.5t31.5 -17t35.5 -13q29 -10 50 -21t21 -33q0 -24 -16 -34.5t-38 -10.5q-25 0 -47 18t-52 63l-23 -3l4 -109h23l12 21q38 -16 83 -16q21 0 40 6.5t33.5 18.5t23 29t8.5 39zM752 603l44 13v21h-135l-15 -47l-56 -153h-6l-57 150l-17 50h-135v-21l38 -15v-214
l-38 -17v-20h109v20l-34 17v215h10l98 -252h29l97 252h9v-218l-36 -14v-20h139v20l-44 14v219z" />
    <glyph glyph-name="nonbreakingspace" unicode="&#xa0;" horiz-adv-x="110" 
 />
    <glyph glyph-name="notequal" unicode="&#x2260;" 
d="M25 -200h450v1000h-450v-1000z" />
    <glyph glyph-name="partialdiff" unicode="&#x2202;" 
d="M25 -200h450v1000h-450v-1000z" />
    <glyph glyph-name="pi" unicode="&#x3c0;" horiz-adv-x="788" 
d="M394 -31q72 0 136 27.5t112 75t75.5 111.5t27.5 137q0 72 -27.5 136t-75.5 111.5t-112 75t-136 27.5t-136 -27.5t-112 -75t-75.5 -111.5t-27.5 -136q0 -73 27.5 -137t75.5 -111.5t112 -75t136 -27.5zM394 1q-66 0 -123.5 24.5t-100 67.5t-67 101t-24.5 126q0 66 24.5 124
t67 101t100 67.5t123.5 24.5t123.5 -24.5t100 -67.5t66.5 -101t24 -124q0 -68 -24 -126t-66.5 -101t-100 -67.5t-123.5 -24.5zM246 132h182v31l-56 12v108q14 -2 29.5 -3t27.5 -1q31 0 55 10t40.5 26.5t25 37t8.5 41.5t-8.5 40.5t-26 34.5t-43.5 24t-62 9h-172v-28l53 -12
v-287l-53 -12v-31zM413 314h-21q-14 0 -20 1v151q7 1 20 1h19q33 -1 51.5 -19.5t18.5 -53.5q0 -77 -68 -80z" />
    <glyph glyph-name="product" unicode="&#x220f;" 
d="M25 -200h450v1000h-450v-1000z" />
    <glyph glyph-name="radical" unicode="&#x221a;" horiz-adv-x="855" 
d="M428 382l-69 -392q-11 -59 -23.5 -93.5t-34.5 -54.5q-16 21 -33.5 32.5t-41.5 11.5q-26 0 -42 -14t-16 -34q0 -22 19 -39.5t55 -17.5q60 0 110 48q23 22 39 44.5t28 51.5t21.5 68t19.5 94l51 295h188l-71 -322q-6 -28 6 -49.5t44 -21.5q26 0 61.5 12t64.5 30l-2 27
q-32 -1 -50 0t-27 5.5t-10 13t2 21.5l141 633l-7 9l-58 -17q-14 8 -33 13t-43 5q-38 0 -75.5 -10t-68.5 -31l-21 -16t-19 -16q-8 23 -35 40t-74 17q-38 0 -75.5 -10t-68.5 -31q-56 -38 -85.5 -90.5t-43.5 -137.5l-1 -8l-110 -28l-8 -38h105l-68 -392q-11 -59 -23.5 -93.5
t-34.5 -54.5q-16 21 -33.5 32.5t-41.5 11.5q-26 0 -42 -14t-16 -34q0 -22 19 -39.5t55 -17.5q60 0 110 48q23 22 39 44.5t28 51.5t21.5 68t19.5 94l51 295h207zM522 443l9 50q9 51 24 87.5t35 60.5t43 36t49 15q11 -32 27.5 -52t40.5 -26l-38 -171h-190zM480 595
q-24 -50 -36 -123l-5 -29h-207l6 34q9 51 24 87.5t35 60.5t43 36t49 15q28 -81 91 -81z" />
    <glyph glyph-name="summation" unicode="&#x2211;" 
d="M25 -200h450v1000h-450v-1000z" />
    <glyph glyph-name="breve" unicode="&#x2d8;" horiz-adv-x="344" 
d="M216 536q63 0 103.5 40.5t60.5 115.5l-34 11q-14 -24 -26 -41t-25.5 -28t-28.5 -16t-35 -5q-40 0 -61.5 21t-29.5 69l-36 -11q-8 -75 20.5 -115.5t91.5 -40.5z" />
    <glyph glyph-name="fraction" unicode="&#x2215;" horiz-adv-x="568" 
d="M87 -32l220 328l227 310l-50 37l-222 -328l-229 -313z" />
    <glyph glyph-name="Lslash" unicode="&#x141;" horiz-adv-x="607" 
d="M-32 0h533l58 195l-29 4l-75 -90q-14 -17 -25.5 -26.5t-24 -14t-28 -5.5t-37.5 -1h-145l47 228l146 37l-4 62l-128 -32l44 213l113 24l10 43h-321l-10 -43l108 -24l-50 -240l-97 -24l5 -62l79 20l-41 -197l-119 -24z" />
    <glyph glyph-name="lslash" unicode="&#x142;" horiz-adv-x="314" 
d="M118 -11q26 0 61.5 12t64.5 30l-2 27q-32 -1 -50 0t-27 5.5t-10 13t2 21.5l53 239l114 29l-4 58l-96 -24l74 331l-7 9l-181 -52l-5 -35l88 -26l-55 -249l-106 -27l5 -58l87 22l-56 -255q-6 -28 6 -49.5t44 -21.5z" />
    <glyph glyph-name="Zcaron" unicode="&#x17d;" horiz-adv-x="645" 
d="M378 723h37l156 181l-26 24l-129 -108l-82 108l-34 -24zM-13 0h510l64 184l-33 4l-73 -90q-11 -14 -21 -22t-22 -13t-27 -6.5t-36 -1.5h-217l507 551l3 31h-481l-56 -162l33 -7l56 63q15 16 28 26.5t27 16t29.5 7.5t35.5 2h183l-508 -552z" />
    <glyph glyph-name="zcaron" unicode="&#x17e;" horiz-adv-x="462" 
d="M264 537h37l156 181l-26 24l-129 -108l-82 108l-34 -24zM319 -11q12 0 23 6.5t22 22.5t23 43.5t27 68.5l-26 12q-20 -24 -33.5 -38t-27 -20.5t-29 -7t-39.5 2.5l-115 15l333 360l-35 23l-68 -48l-46 14q-27 8 -65.5 14.5t-69.5 6.5q-34 0 -52.5 -8.5t-37.5 -26.5
q-29 -27 -39.5 -46.5t-10.5 -41.5q0 -23 15 -41t36 -18q20 0 33 13t13 33q0 31 -39 48v10q5 2 15 3.5t27 1.5q18 0 37 -1t41 -2.5t48 -3.5t58 -5l-339 -366l35 -23l63 48l119 -33q32 -8 56.5 -12t47.5 -4z" />
    <glyph glyph-name="Scaron" unicode="&#x160;" horiz-adv-x="527" 
d="M326 723h37l156 181l-26 24l-129 -108l-82 108l-34 -24zM-5 -6l44 -2l26 30q28 -13 70.5 -24t93.5 -11q48 0 88.5 13t69 38.5t44.5 62t16 83.5q0 28 -7 52.5t-22.5 47t-41 44t-61.5 44.5q-33 21 -55 37.5t-35 32.5t-18 32.5t-5 37.5q0 37 24 65t70 28q43 0 78.5 -34.5
t50.5 -117.5h46l30 192h-44l-24 -28q-18 11 -52.5 21t-72.5 10q-46 0 -83 -13t-63.5 -37t-40.5 -56.5t-14 -71.5q0 -58 32 -98.5t97 -80.5q35 -22 57.5 -41.5t35.5 -37.5t18 -36t5 -36q0 -51 -31.5 -80.5t-79.5 -29.5q-67 0 -108.5 43t-48.5 140l-46 -2z" />
    <glyph glyph-name="scaron" unicode="&#x161;" horiz-adv-x="398" 
d="M243 537h37l156 181l-26 24l-129 -108l-82 108l-34 -24zM172 -10q34 0 65 10.5t54.5 30t37.5 46t14 58.5q0 22 -5 39t-16.5 31.5t-29.5 28t-43 27.5l-27 15q-38 22 -51 37t-13 37q0 28 21.5 46t57.5 18q14 0 29 -7q5 -45 22.5 -58t40.5 -13q20 0 33 15t13 36
q0 13 -7.5 26.5t-23.5 24.5t-40 18t-57 7q-37 0 -68 -11.5t-53 -31t-34.5 -44.5t-12.5 -52q0 -45 24 -71.5t68 -50.5l27 -15q35 -20 49.5 -36t14.5 -42q0 -32 -24 -51t-62 -19q-25 0 -41 5t-33 15q14 41 4.5 67t-43.5 26q-21 0 -38 -19t-17 -49q0 -20 12.5 -37.5t34 -30
t51.5 -19.5t66 -7z" />
    <glyph glyph-name="brokenbar" unicode="&#xa6;" horiz-adv-x="294" 
d="M182 299l-6 201l6 201h-70l6 -201l-6 -201h70zM182 -241l-6 201l6 201h-70l6 -201l-6 -201h70z" />
    <glyph glyph-name="minus" unicode="&#x2212;" horiz-adv-x="520" 
d="M460 288l11 51h-410l-11 -51h410z" />
    <glyph glyph-name="twosuperior" unicode="&#xb2;" horiz-adv-x="390" 
d="M12 233l11 -60h283l45 141l-22 6l-57 -79h-180l-2 12q78 44 131.5 81t86 70.5t47 64.5t14.5 64q0 22 -8 42.5t-23.5 36t-38.5 25t-52 9.5q-122 0 -171 -137l29 -13q25 42 51.5 62.5t58.5 20.5q30 0 47 -18.5t17 -50.5q0 -33 -22.5 -67.5t-77.5 -82.5q-26 -23 -71.5 -57.5
z" />
    <glyph glyph-name="threesuperior" unicode="&#xb3;" horiz-adv-x="390" 
d="M135 425l-9 -43q74 -9 107.5 -34.5t33.5 -64.5q0 -37 -24 -59.5t-69 -22.5q-24 0 -36 3t-25 8q6 16 6.5 32t-4.5 29t-16 20.5t-27 7.5q-23 0 -36.5 -16t-13.5 -38q0 -41 41 -65t110 -24q40 0 72.5 12t55.5 32t36 46t13 55q0 46 -28 73t-78 40l3 13q66 14 98.5 45.5
t32.5 75.5q0 42 -32 69t-90 27t-101.5 -30.5t-68.5 -72.5l24 -18q29 29 57.5 45t60.5 16q31 0 48 -15t17 -40q0 -32 -35 -59.5t-123 -46.5z" />
    <glyph glyph-name="onesuperior" unicode="&#xb9;" horiz-adv-x="390" 
d="M233 229l87 412l-10 8l-183 -24l-5 -20l98 -36l-73 -340l-117 -33l-5 -23h307l5 23z" />
    <glyph glyph-name="onequarter" unicode="&#xbc;" horiz-adv-x="1040" 
d="M233 229l87 412l-10 8l-183 -24l-5 -20l98 -36l-73 -340l-117 -33l-5 -23h307l5 23zM906 633l-40 39l-334 -380l-338 -372l40 -39l334 380zM617 111l12 -53h183l-17 -82l-85 -26l-6 -27h223l5 25l-59 25l17 85h74l11 55h-74l59 276l-87 7zM826 113h-150l179 212h16z" />
    <glyph glyph-name="onehalf" unicode="&#xbd;" horiz-adv-x="1040" 
d="M233 229l87 412l-10 8l-183 -24l-5 -20l98 -36l-73 -340l-117 -33l-5 -23h307l5 23zM889 633l-40 39l-334 -380l-338 -372l40 -39l334 380zM609 -17l11 -60h283l45 141l-22 6l-57 -79h-180l-2 12q78 44 131.5 81t86 70.5t47 64.5t14.5 64q0 22 -8 42.5t-23.5 36t-38.5 25
t-52 9.5q-122 0 -171 -137l29 -13q25 42 51.5 62.5t58.5 20.5q30 0 47 -18.5t17 -50.5q0 -33 -22.5 -67.5t-77.5 -82.5q-26 -23 -71.5 -57.5z" />
    <glyph glyph-name="threequarters" unicode="&#xbe;" horiz-adv-x="1040" 
d="M145 425l-9 -43q74 -9 107.5 -34.5t33.5 -64.5q0 -37 -24 -59.5t-69 -22.5q-24 0 -36 3t-25 8q6 16 6.5 32t-4.5 29t-16 20.5t-27 7.5q-23 0 -36.5 -16t-13.5 -38q0 -41 41 -65t110 -24q40 0 72.5 12t55.5 32t36 46t13 55q0 46 -28 73t-78 40l3 13q66 14 98.5 45.5
t32.5 75.5q0 42 -32 69t-90 27t-101.5 -30.5t-68.5 -72.5l24 -18q29 29 57.5 45t60.5 16q31 0 48 -15t17 -40q0 -32 -35 -59.5t-123 -46.5zM904 633l-40 39l-334 -380l-338 -372l40 -39l334 380zM607 111l12 -53h183l-17 -82l-85 -26l-6 -27h223l5 25l-59 25l17 85h74l11 55
h-74l59 276l-87 7zM816 113h-150l179 212h16z" />
    <glyph glyph-name="Eth" unicode="&#xd0;" horiz-adv-x="715" 
d="M-32 0h288q99 0 178.5 31t135 83.5t85 121.5t29.5 146q0 64 -22 112t-62 79.5t-95.5 47.5t-122.5 16h-280l-10 -43l108 -24l-43 -209h-98l-12 -61h97l-48 -233l-119 -24zM195 60l49 240h130l12 61h-129l44 216h66q103 0 154.5 -51t51.5 -142q0 -66 -19.5 -125t-58 -103.5
t-95.5 -70t-131 -25.5h-74z" />
    <glyph glyph-name="multiply" unicode="&#xd7;" horiz-adv-x="520" 
d="M269 355l-107 150l-52 -39l109 -150l-170 -134l39 -47l165 133l107 -150l52 39l-109 150l170 134l-39 47z" />
    <glyph glyph-name="Yacute" unicode="&#xdd;" horiz-adv-x="659" 
d="M424 709l47.5 36.5l46 35.5l39.5 31.5t27 26.5q38 48 3 75q-18 14 -39.5 9.5t-40.5 -25.5q-11 -12 -24 -30.5t-27 -41.5l-29.5 -48.5l-30.5 -50.5zM102 0h334l7 43l-109 24l49 225l232 269l101 33l10 43h-249l-10 -43l77 -30l-185 -223l-96 235l100 18l10 43h-306
l-10 -43l92 -23l127 -288l-44 -216l-121 -24z" />
    <glyph glyph-name="Thorn" unicode="&#xde;" horiz-adv-x="608" 
d="M-37 0h333l9 43l-113 24l15 73q20 -4 46 -7.5t51 -3.5q57 0 104.5 14.5t81.5 42t53 67t19 88.5q0 164 -233 164q-14 0 -26 -0.5t-21 -1.5l14 67l112 24l10 43h-321l-10 -43l107 -24l-104 -503l-118 -24zM292 187q-20 0 -40 1.5t-34 3.5l53 257l24 4t29 2q61 0 94.5 -30.5
t33.5 -84.5q0 -33 -9 -61t-28.5 -48.5t-49.5 -32t-73 -11.5z" />
    <glyph glyph-name="eth" unicode="&#xf0;" horiz-adv-x="480" 
d="M161 -11q54 0 103 26.5t93 74.5q47 51 72 116t25 145q0 85 -36.5 152t-96.5 117l95 64l-30 44l-111 -74q-68 44 -148 67l-17 -33q31 -17 58.5 -34.5t51.5 -35.5l-73 -49l30 -45l86 58q31 -29 52 -60.5t32 -66.5q-65 7 -123 -17t-101.5 -68t-69 -102.5t-25.5 -119.5
q0 -39 10.5 -68.5t28.5 -50t42 -30.5t52 -10zM207 58q-41 0 -65.5 29t-24.5 86q0 47 14.5 87.5t37.5 70.5t53 47.5t61 17.5q40 0 62 -29t22 -80t-14 -93.5t-36.5 -72.5t-51.5 -46.5t-58 -16.5z" />
    <glyph glyph-name="yacute" unicode="&#xfd;" horiz-adv-x="482" 
d="M286 523l47.5 36.5l46 35.5l39.5 31.5t27 26.5q38 48 3 75q-18 14 -39.5 9.5t-40.5 -25.5q-11 -12 -24 -30.5t-27 -41.5l-29.5 -48.5l-30.5 -50.5zM28 -219q30 0 55.5 16.5t50.5 39.5q48 43 93 113.5t88 152.5t83.5 167.5l78.5 159.5l-86 40h-4l-21 -72t-27 -87.5
l-32.5 -96.5t-36.5 -99h-10q-9 84 -21 150.5t-30 128.5q-11 40 -29.5 55t-47.5 15q-13 0 -27.5 -5.5t-29 -15t-28 -22t-25.5 -27.5l11 -27q17 5 28.5 8t20.5 3q19 0 30 -10t21 -43q9 -29 18 -66.5t18 -81t17 -91t13 -95.5q-28 -48 -60.5 -87t-77.5 -60q-2 32 -15 53t-38 21
t-40 -18t-15 -45q0 -31 19.5 -52.5t55.5 -21.5z" />
    <glyph glyph-name="thorn" unicode="&#xfe;" horiz-adv-x="507" 
d="M-89 -210h242l9 38l-81 29l31 140q12 -4 33.5 -6t41.5 -2q55 0 107.5 28.5t93.5 74.5t65.5 104t24.5 117q0 36 -10 64t-27 47.5t-40.5 29.5t-50.5 10q-42 0 -76 -21t-69 -56l-10 3l78 341l-7 9l-184 -52l-5 -35l91 -26l-170 -770l-77 -26zM218 49q-23 0 -46 8.5t-42 20.5
l51 231q46 44 76.5 61.5t59.5 17.5q28 0 49.5 -24.5t21.5 -80.5q0 -46 -14 -88.5t-37 -74.5t-54 -51.5t-65 -19.5z" />
    <glyph glyph-name="Delta" unicode="&#x394;" 
d="M25 -200h450v1000h-450v-1000z" />
    <glyph glyph-name="Omega" unicode="&#x3a9;" horiz-adv-x="600" 
d="M531 674q-10 21 -36.5 36t-70.5 15q-38 0 -75.5 -10t-68.5 -31q-56 -38 -85.5 -90.5t-43.5 -137.5l-1 -8l-110 -28l-8 -38h105l-68 -392q-11 -59 -23.5 -93.5t-34.5 -54.5q-16 21 -33.5 32.5t-41.5 11.5q-26 0 -42 -14t-16 -34q0 -22 19 -39.5t55 -17.5q60 0 110 48
q23 22 39 44.5t28 51.5t21.5 68t19.5 94l51 295h207l-69 -392q-11 -59 -23.5 -93.5t-34.5 -54.5q-16 21 -33.5 32.5t-41.5 11.5q-26 0 -42 -14t-16 -34q0 -22 19 -39.5t55 -17.5q60 0 110 48q23 22 39 44.5t28 51.5t21.5 68t19.5 94l51 295h112l12 61h-113l9 50
q19 104 51 149t75 50q22 -76 78 -76q26 0 40 14.5t14 36.5q0 27 -26 50.5t-76 23.5q-35 0 -66.5 -10t-59.5 -31l-15.5 -13t-14.5 -13zM439 443h-207l6 34q9 51 24 87.5t35 60.5t43 36t49 15q14 -38 35 -59t53 -22q-11 -25 -19 -55t-14 -68z" />
    </font>
</defs>
</svg>
