<?xml version="1.0" standalone="no"?>
<!DOCTYPE svg PUBLIC "-//W3C//DTD SVG 1.1//EN" "http://www.w3.org/Graphics/SVG/1.1/DTD/svg11.dtd" >
<svg>
<metadata>
Created by FontForge 20090622 at Tue Aug  7 12:13:22 2018
 By deploy user
Copyright (C) 1996-2005, Hoefler &#38; Frere-Jones, Inc. www.typography.com
</metadata>
<defs>
<font id="MercuryDisplay-Italic" horiz-adv-x="500" >
  <font-face 
    font-family="Mercury Display"
    font-weight="400"
    font-style="italic"
    font-stretch="normal"
    units-per-em="1000"
    panose-1="2 0 5 3 8 0 0 9 0 3"
    ascent="800"
    descent="-200"
    x-height="464"
    cap-height="637"
    bbox="-153 -266 972 901"
    underline-thickness="28"
    underline-position="-86"
    slope="-12"
    unicode-range="U+0020-U+FB02"
  />
<missing-glyph 
 />
    <glyph glyph-name=".notdef" 
 />
    <glyph glyph-name="NUL" horiz-adv-x="0" 
 />
    <glyph glyph-name="nonmarkingreturn" horiz-adv-x="210" 
 />
    <glyph glyph-name="space" unicode=" " horiz-adv-x="210" 
 />
    <glyph glyph-name="ring" unicode="&#x2da;" horiz-adv-x="267" 
d="M171 513q23 0 42 9t32.5 24t21 33.5t7.5 37.5q0 32 -20.5 53.5t-54.5 21.5q-23 0 -42 -9t-32.5 -24t-21 -33.5t-7.5 -37.5q0 -33 20.5 -54t54.5 -21zM176 529q-33 0 -33 59q0 12 2.5 27t8.5 28.5t16 23t25 9.5t24 -15.5t9 -44.5q0 -12 -3 -27t-9 -28.5t-16 -22.5t-24 -9z
" />
    <glyph glyph-name="hungarumlaut" unicode="&#x2dd;" horiz-adv-x="328" 
d="M209 520q19 19 40.5 37.5l40.5 35.5l34 31t23 24q14 17 15.5 33.5t-11.5 24.5t-29 2.5t-29 -21.5q-8 -10 -18.5 -27.5l-22.5 -39l-26 -45.5l-28 -47zM89 520l37.5 36.5l37.5 36l32.5 32t22.5 24.5q12 16 13 32t-12 25q-11 8 -28.5 1.5t-28.5 -22.5q-8 -10 -17.5 -28
l-20.5 -39.5l-23.5 -45l-24.5 -44.5z" />
    <glyph glyph-name="ogonek" unicode="&#x2db;" horiz-adv-x="277" 
d="M50 -248q37 0 63 20t38 43l-8 8q-8 -8 -24.5 -18t-32.5 -10q-32 0 -50.5 16.5t-18.5 51.5q0 49 37.5 90t96.5 87l-8 10q-85 -50 -137 -102t-52 -108q0 -38 26 -63t70 -25z" />
    <glyph glyph-name="caron" unicode="&#x2c7;" horiz-adv-x="307" 
d="M175 528h14l149 177l-10 10l-130 -100l-95 100l-14 -10z" />
    <glyph glyph-name="dotlessi" unicode="&#x131;" horiz-adv-x="255" 
d="M106 -11q26 0 60 12t63 30l-2 7q-31 0 -50 2.5t-28.5 7.5t-11.5 13.5t0 21.5l65 384l-4 3l-153 -52v-10l65 -31l-55 -317q-5 -27 7 -49t44 -22z" />
    <glyph glyph-name="fi" unicode="&#xfb01;" horiz-adv-x="524" 
d="M-37 -219q28 0 54.5 12.5t48.5 35.5q22 22 37 44.5t26.5 51.5t19.5 67.5t16 94.5l44 315h175l-60 -342q-5 -27 7.5 -49t44.5 -22q26 0 60 12t63 30l-2 7q-32 0 -51 2.5t-28.5 7.5t-11.5 13.5t0 21.5l65 384l-4 3l-80 -27h-172l6 43q10 69 24 113t32.5 69.5t40.5 35
t48 9.5q8 0 14 -2t10 -4q-5 -52 14 -79t48 -27q23 0 35.5 14t12.5 35q0 15 -8 31t-23.5 29.5t-39.5 22t-56 8.5q-68 0 -121 -40q-49 -36 -73.5 -89.5t-35.5 -128.5l-5 -35l-109 -28l-3 -18h105l-60 -425q-8 -54 -19 -90.5t-27 -62.5q-15 23 -36 38.5t-45 15.5t-38 -12.5
t-14 -31.5q0 -20 18.5 -36.5t52.5 -16.5z" />
    <glyph glyph-name="fl" unicode="&#xfb02;" horiz-adv-x="523" 
d="M-37 -219q28 0 54.5 12.5t48.5 35.5q22 22 37 44.5t26.5 51.5t19.5 67.5t16 94.5l44 315h172l-58 -342q-5 -28 7.5 -49.5t44.5 -21.5q26 0 60 12t63 30l-2 7q-32 0 -50.5 2.5t-28 7.5t-11.5 13.5t0 21.5l109 656l-4 3l-59 -20q-15 8 -34.5 13.5t-44.5 5.5q-68 0 -121 -40
q-49 -36 -73.5 -89.5t-35.5 -128.5l-5 -35l-109 -28l-3 -18h105l-60 -425q-8 -54 -19 -90.5t-27 -62.5q-15 23 -36 38.5t-45 15.5t-38 -12.5t-14 -31.5q0 -20 18.5 -36.5t52.5 -16.5zM215 443l6 43q10 69 24 113t32.5 69.5t40.5 35t48 9.5q8 0 14 -2t10 -4q-4 -35 4 -58.5
t23 -35.5l-29 -170h-173z" />
    <glyph glyph-name="exclam" unicode="!" horiz-adv-x="276" 
d="M129 173l36.5 128l34 125.5t25.5 102.5t10 60q0 33 -14.5 48t-39.5 15q-19 0 -33.5 -13.5t-19.5 -42.5q-3 -20 -6 -64t-5.5 -101.5t-4.5 -124l-4 -130.5zM99 -15q25 0 42.5 17.5t17.5 42.5t-17.5 42.5t-42.5 17.5t-42.5 -17.5t-17.5 -42.5t17.5 -42.5t42.5 -17.5z" />
    <glyph glyph-name="quotedbl" unicode="&#x22;" horiz-adv-x="341" 
d="M207 438l49 64l30.5 40l20.5 26.5t12.5 17.5l7.5 12q8 13 8 27q0 12 -8.5 20t-22.5 8q-23 0 -38 -29q-3 -5 -6.5 -12.5t-8 -19.5l-11.5 -30l-17 -46l-27 -73zM79 438l49 64l30.5 40l20.5 26.5t12.5 17.5l7.5 12q8 13 8 27q0 12 -8.5 20t-22.5 8q-23 0 -38 -29
q-3 -5 -6.5 -12.5t-8 -19.5l-11.5 -30l-17 -46l-27 -73z" />
    <glyph glyph-name="numbersign" unicode="#" horiz-adv-x="589" 
d="M155 46l41 153h137l-42 -143l35 -10l41 153h142v33h-133l19 69l21 71h124v33h-114l45 151l-34 10l-45 -161h-137l45 151l-34 10l-45 -161h-141v-33h132l-17 -63l-23 -77h-123v-33h113l-42 -143zM205 232l19 69l21 71h138l-17 -63l-23 -77h-138z" />
    <glyph glyph-name="dollar" unicode="$" horiz-adv-x="505" 
d="M206 -99l13 85q37 3 74.5 17t67.5 39t49 61t19 81q0 37 -13.5 62.5t-35.5 45t-48.5 34l-53.5 28.5l41 239q32 -11 54.5 -45.5t44.5 -100.5l16 3l19 138q-19 13 -55.5 23.5t-72.5 13.5l12 69l-37 5l-11 -72q-38 -2 -74 -16.5t-64 -40t-44.5 -60.5t-16.5 -77
q0 -35 12.5 -60.5t33 -44.5t46 -34l51.5 -29l-44 -248q-20 5 -37 17t-33 33t-30 52.5t-26 75.5l-15 -3l-23 -162q12 -6 29.5 -13.5t38.5 -13.5t44 -11t46 -6l-2 -13t-5 -28t-5 -27.5l-2 -12.5zM249 370q-32 20 -54 45t-22 66q0 28 10 50t26 37t36 23t40 8zM223 13l37 237
q36 -21 61 -47t25 -69q0 -56 -34.5 -88.5t-88.5 -32.5z" />
    <glyph glyph-name="percent" unicode="%" horiz-adv-x="684" 
d="M174 304q41 0 74 17.5t56 46t35.5 64t12.5 71.5q0 60 -32 92.5t-85 32.5q-41 0 -74 -17.5t-56 -46t-35.5 -64t-12.5 -71.5q0 -60 32 -92.5t85 -32.5zM115 -31l239 329l243 325l-26 21l-239 -329l-243 -326zM451 -15q41 0 74 17.5t56 46t35.5 64t12.5 71.5q0 60 -32 92.5
t-85 32.5q-41 0 -74 -17.5t-56 -46t-35.5 -64t-12.5 -71.5q0 -60 32 -92.5t85 -32.5zM193 325q-17 0 -29 8.5t-20 23t-12 34t-4 41.5q0 24 4.5 54.5t15 57.5t27.5 45t41 18q17 0 29 -8.5t20 -23t12 -34t4 -41.5q0 -24 -5 -54.5t-15.5 -57.5t-27 -45t-40.5 -18zM470 6
q-17 0 -29 8.5t-20 23t-12 34t-4 41.5q0 24 4.5 54.5t15 57.5t27.5 45t41 18q17 0 29 -8.5t20 -23t12 -34t4 -41.5q0 -24 -5 -54.5t-15.5 -57.5t-27 -45t-40.5 -18z" />
    <glyph glyph-name="ampersand" unicode="&#x26;" horiz-adv-x="660" 
d="M211 -11q54 0 96.5 23t77.5 63l4 -2q-2 -43 18 -63.5t70 -20.5q35 0 67 13t69 33v10q-16 -2 -30 -2h-26q-55 0 -71 12q-14 11 -15.5 29t3.5 44l34 198h121l7 40h-122l19 110l-22 6l-61 -86l-119 -49q-64 5 -101 34.5t-37 82.5q0 47 20.5 85t53.5 51q15 -35 38 -53.5
t49 -18.5t39.5 14t13.5 34q0 22 -21 39t-61 17q-34 0 -72.5 -14t-70.5 -38t-53.5 -57t-21.5 -70q0 -40 25.5 -74.5t82.5 -48.5v-4q-84 -25 -132.5 -73.5t-48.5 -111.5q0 -35 14.5 -63.5t39 -48t56.5 -30t67 -10.5zM267 58q-71 0 -102 31t-31 81q0 28 9 53.5t28.5 46.5
t50 35.5t74.5 20.5h134l-37 -227q-31 -20 -62 -30.5t-64 -10.5z" />
    <glyph glyph-name="quotesingle" unicode="'" horiz-adv-x="213" 
d="M79 438l49 64l30.5 40l20.5 26.5t12.5 17.5l7.5 12q8 13 8 27q0 12 -8.5 20t-22.5 8q-23 0 -38 -29q-3 -5 -6.5 -12.5t-8 -19.5l-11.5 -30l-17 -46l-27 -73z" />
    <glyph glyph-name="parenleft" unicode="(" horiz-adv-x="339" 
d="M307 -176l10 16q-46 29 -80.5 69t-57.5 88t-34.5 101.5t-11.5 108.5q0 78 20.5 156t61 147.5t101 125.5t141.5 89l-4 16q-102 -35 -176 -92t-122.5 -127t-72 -147.5t-23.5 -153.5q0 -63 16 -122.5t47.5 -111.5t78 -94t106.5 -69z" />
    <glyph glyph-name="parenright" unicode=")" horiz-adv-x="339" 
d="M-138 -176q102 35 176 92t122.5 127t72 147.5t23.5 153.5q0 63 -16.5 122.5t-48 111.5t-77.5 94t-106 69l-10 -16q46 -29 80.5 -69t57.5 -88t34.5 -101.5t11.5 -108.5q0 -78 -20.5 -156t-61 -147.5t-101 -125.5t-141.5 -89z" />
    <glyph glyph-name="asterisk" unicode="*" horiz-adv-x="353" 
d="M176 343q9 6 17 15t12 31q4 26 -3 83l4 1q17 -24 30 -39t24 -24q17 -14 29 -15.5t23 0.5l7 10q-1 11 -4.5 22t-20.5 25q-11 9 -28.5 18.5t-44.5 20.5v5q29 2 49 5.5t33 8.5q20 8 27 18t12 20l-5 11q-9 5 -21.5 7.5t-32.5 -5.5q-13 -5 -30 -15t-40 -29l-4 3q14 26 20 45
t8 33q4 21 -1 32.5t-12 20.5l-12 1q-8 -6 -16.5 -15t-11.5 -30q-2 -14 -2 -34t5 -49l-5 -2q-17 25 -29.5 40t-23.5 23q-17 14 -29 15.5t-23 -0.5l-8 -9q1 -11 4.5 -22.5t20.5 -25.5q11 -9 28.5 -18.5t45.5 -20.5l-1 -4q-29 -2 -48.5 -6t-33.5 -9q-20 -8 -27 -18t-11 -20
l4 -11q10 -5 22 -7.5t32 5.5q27 9 70 44l4 -3q-13 -26 -19.5 -45t-8.5 -33q-4 -21 1.5 -32.5t11.5 -19.5z" />
    <glyph glyph-name="plus" unicode="+" horiz-adv-x="505" 
d="M455 284l7 45h-183l28 182h-46l-28 -182h-184l-7 -45h184l-30 -185h46l30 185h183z" />
    <glyph glyph-name="comma" unicode="," horiz-adv-x="240" 
d="M44 -124q62 30 91 68.5t29 76.5q0 37 -18.5 60t-50.5 23q-26 0 -43 -18t-17 -43q0 -22 13.5 -36.5t34.5 -14.5q5 0 15 2l17 4l2 -1q-6 -22 -23.5 -48t-59.5 -61z" />
    <glyph glyph-name="hyphen" unicode="-" horiz-adv-x="344" 
d="M36 206h224l9 57h-224z" />
    <glyph glyph-name="period" unicode="." horiz-adv-x="219" 
d="M100 -16q25 0 42.5 17.5t17.5 42.5t-17.5 42.5t-42.5 17.5q-26 0 -43.5 -17.5t-17.5 -42.5t17.5 -42.5t43.5 -17.5z" />
    <glyph glyph-name="slash" unicode="/" horiz-adv-x="350" 
d="M-71 -210l276 470l278 467l-27 14l-277 -470l-278 -466z" />
    <glyph glyph-name="zero" unicode="0" horiz-adv-x="547" 
d="M218 -15q61 0 114.5 31t93 85.5t62 128t22.5 158.5q0 46 -11 89.5t-33.5 77t-57 53.5t-81.5 20q-62 0 -115 -31t-92 -85.5t-61.5 -128.5t-22.5 -159q0 -46 11 -89t33.5 -76.5t56.5 -53.5t81 -20zM246 12q-32 0 -53.5 18t-35 48t-19.5 68t-6 77q0 87 15 157t38.5 119
t53.5 75.5t60 26.5q31 0 53 -18.5t36 -48.5t20 -68t6 -77q0 -87 -15 -157t-39 -118.5t-54 -75t-60 -26.5z" />
    <glyph glyph-name="one" unicode="1" horiz-adv-x="382" 
d="M-2 0h308l3 16l-106 33l90 569l-3 3l-200 -33l-2 -12l106 -41l-78 -486l-116 -33z" />
    <glyph glyph-name="two" unicode="2" horiz-adv-x="491" 
d="M-18 0h393l57 166l-10 3l-92 -90h-220l-1 3q78 61 138.5 114.5t102 102t63 93t21.5 88.5q0 30 -10.5 57t-30.5 47t-48 32t-63 12q-57 0 -111.5 -33t-92.5 -99l8 -12q45 37 79.5 53t67.5 16q53 0 78 -30t25 -75q0 -51 -32 -109t-91 -123q-45 -51 -104.5 -102t-130.5 -102z
" />
    <glyph glyph-name="three" unicode="3" horiz-adv-x="463" 
d="M153 -15q54 0 97 17.5t73 45t46 61.5t16 68q0 48 -28.5 91t-89.5 66l1 7q74 38 107.5 76.5t33.5 91.5q0 22 -8.5 43.5t-24.5 38.5t-39.5 27t-54.5 10q-57 0 -105.5 -30.5t-90.5 -84.5l9 -11q41 29 72.5 42t68.5 13q45 0 65.5 -23t20.5 -59q0 -21 -8 -43t-28.5 -44
t-56.5 -42.5t-91 -38.5l-1 -11q45 -7 75.5 -21.5t49.5 -34t27.5 -43.5t8.5 -50q0 -34 -10 -59.5t-27 -42.5t-39.5 -25.5t-47.5 -8.5q-26 0 -45.5 9t-35.5 20q9 22 10 42t-5.5 35t-19 24t-30.5 9q-23 0 -39.5 -16t-16.5 -45q0 -20 11.5 -39t33 -33.5t51 -23t65.5 -8.5z" />
    <glyph glyph-name="four" unicode="4" horiz-adv-x="530" 
d="M141 0h287l2 16l-98 33l23 143h116l10 64h-116l58 365l-13 6l-390 -417l6 -18h242l-23 -143l-102 -33zM100 256l213 231h2l-37 -231h-178z" />
    <glyph glyph-name="five" unicode="5" horiz-adv-x="451" 
d="M171 -15q49 0 89.5 17.5t69 46t44.5 65t16 74.5q0 89 -70.5 144t-201.5 71l29 123h252l24 121l-8 3l-38 -38h-239l-65 -289q64 -8 108.5 -25t72.5 -39.5t41 -50.5t13 -59q0 -65 -32.5 -101.5t-86.5 -36.5q-26 0 -45.5 10t-35.5 21q9 22 9.5 41.5t-5.5 34.5t-19 24t-31 9
q-23 0 -39 -16t-16 -44q0 -20 12 -39t34 -34t52 -24t66 -9z" />
    <glyph glyph-name="six" unicode="6" horiz-adv-x="488" 
d="M215 -15q45 0 85.5 20t71 54t48.5 77.5t18 90.5q0 39 -12 70t-33.5 53.5t-51 34.5t-63.5 12q-26 0 -52 -7t-46 -17l-2 4q38 67 106.5 132t179.5 113l-4 17q-95 -17 -173 -60.5t-133.5 -103.5t-85.5 -132t-30 -146q0 -47 12.5 -86t36 -67t56 -43.5t72.5 -15.5zM228 8
q-23 0 -41 15t-30.5 40.5t-19.5 59.5t-7 72q0 46 10 85t25 71q11 5 30 7.5t33 2.5q58 0 87.5 -44.5t29.5 -118.5q0 -34 -7.5 -68t-22.5 -61t-37 -44t-50 -17z" />
    <glyph glyph-name="seven" unicode="7" horiz-adv-x="440" 
d="M15 -15h76l385 620l-3 7h-334l-21 29l-9 -3l-43 -166l10 -3l56 59h260l-202 -299z" />
    <glyph glyph-name="eight" unicode="8" horiz-adv-x="470" 
d="M199 -15q41 0 78 13.5t65 37.5t44.5 57t16.5 73q0 30 -10 54.5t-25.5 44t-35.5 35.5t-40 29q77 23 113.5 66t36.5 97q0 30 -13 55t-36 43t-53.5 28t-65.5 10q-41 0 -76 -15t-61 -41t-40.5 -60t-14.5 -71q0 -27 7.5 -49t19.5 -39.5t28 -31.5t33 -26q-72 -23 -112 -67.5
t-40 -97.5q0 -34 15 -61t39.5 -45.5t57.5 -28.5t69 -10zM274 341q-23 14 -43.5 28.5t-36 31.5t-25 37.5t-9.5 46.5q0 25 8 46.5t22 37.5t33.5 25.5t42.5 9.5q43 0 69 -26.5t26 -74.5q0 -46 -21.5 -88t-65.5 -74zM218 8q-53 0 -84.5 34t-31.5 90q0 98 82 154l53 -35.5
t43.5 -37.5t29 -43.5t10.5 -54.5q0 -27 -8.5 -47.5t-22.5 -33.5t-32.5 -19.5t-38.5 -6.5z" />
    <glyph glyph-name="nine" unicode="9" horiz-adv-x="488" 
d="M36 -26q95 24 173.5 70.5t134 106.5t86 128.5t30.5 136.5q0 50 -13 89.5t-37 66.5t-57 41.5t-73 14.5q-45 0 -85.5 -19t-70.5 -51t-48 -74.5t-18 -89.5q0 -39 13 -70.5t36 -53.5t53 -34t65 -12q25 0 49 7.5t44 17.5l2 -3q-42 -81 -117 -145t-171 -111zM271 261
q-58 0 -89 39.5t-31 108.5q0 40 9 76t25.5 63t39.5 42.5t51 15.5q24 0 41 -15.5t28 -41t16 -57t5 -62.5q0 -84 -34 -160q-11 -5 -29 -7t-32 -2z" />
    <glyph glyph-name="colon" unicode=":" horiz-adv-x="239" 
d="M131 281q25 0 42.5 17.5t17.5 42.5t-17.5 42.5t-42.5 17.5t-42.5 -17.5t-17.5 -42.5t17.5 -42.5t42.5 -17.5zM84 -16q25 0 42.5 17.5t17.5 42.5t-17.5 42.5t-42.5 17.5t-42.5 -17.5t-17.5 -42.5t17.5 -42.5t42.5 -17.5z" />
    <glyph glyph-name="semicolon" unicode=";" horiz-adv-x="239" 
d="M131 281q25 0 42.5 17.5t17.5 42.5t-17.5 42.5t-42.5 17.5q-26 0 -43 -17.5t-17 -42.5t17 -42.5t43 -17.5zM33 -124q61 30 90 68.5t29 76.5q0 37 -18.5 60t-50.5 23q-26 0 -43 -18t-17 -43q0 -22 13.5 -36.5t35.5 -14.5q5 0 15 2l17 4l2 -1q-7 -22 -24 -48t-59 -61z" />
    <glyph glyph-name="less" unicode="&#x3c;" horiz-adv-x="505" 
d="M395 112l17 42l-274 150l322 151l-3 46l-379 -181l-4 -27z" />
    <glyph glyph-name="equal" unicode="=" horiz-adv-x="505" 
d="M75 370h361l7 44h-361zM48 198h361l7 44h-361z" />
    <glyph glyph-name="greater" unicode="&#x3e;" horiz-adv-x="505" 
d="M62 112l379 181l4 27l-321 181l-17 -42l274 -150l-322 -151z" />
    <glyph glyph-name="question" unicode="?" horiz-adv-x="401" 
d="M192 169q39 0 61 17l-3 11q-17 -1 -34.5 0.5t-32 7.5t-23.5 17.5t-9 29.5q0 27 25.5 42.5t76.5 36.5q30 12 55.5 26t45 32.5t30.5 43t11 58.5t-13 63.5t-36.5 51.5t-56.5 34t-73 12q-63 0 -100 -23.5t-37 -57.5q0 -29 16.5 -44t38.5 -15t38 17t16 46q0 8 -1.5 18t-5.5 20
q20 13 47 13q45 -1 72.5 -31t27.5 -76q0 -20 -8.5 -36t-24.5 -30t-38.5 -26.5t-50.5 -25.5q-56 -26 -92 -55t-36 -75q0 -27 11 -46t28 -31.5t37 -18.5t38 -6zM127 -15q25 0 42.5 17.5t17.5 42.5t-17.5 42.5t-42.5 17.5q-26 0 -43.5 -17.5t-17.5 -42.5t17.5 -42.5t43.5 -17.5
z" />
    <glyph glyph-name="at" unicode="@" horiz-adv-x="868" 
d="M441 -160q78 0 146 25t116 67l-6 8q-49 -24 -103.5 -38t-123.5 -14q-80 0 -143 24.5t-106.5 67.5t-66.5 101t-23 126q0 84 23.5 151.5t65.5 115.5t99 73.5t125 25.5q72 0 128 -25t94.5 -65.5t59 -92t20.5 -105.5q0 -53 -11 -96.5t-31 -74t-48.5 -47t-64.5 -16.5
q-16 0 -25 6.5t-13.5 17.5t-4.5 24q0 14 3 28l57 308l-5 3l-34 -29q-18 10 -31.5 13.5t-30.5 3.5q-50 0 -94 -23t-77 -59.5t-52 -82.5t-19 -92q0 -34 8.5 -60t22.5 -43t32.5 -26t38.5 -9q32 0 61 18t52 45l3 -2q0 -27 23 -48t68 -21t87.5 22t74.5 60t51.5 88.5t19.5 108.5
t-23 113.5t-65.5 98.5t-104 69.5t-138.5 26.5q-87 0 -163 -32t-132 -86.5t-88 -126.5t-32 -151q0 -92 31 -161.5t83.5 -117t121.5 -71.5t144 -24zM413 79q-38 0 -58 30t-20 78q0 43 10 80t26 64t36.5 42.5t41.5 15.5q24 0 43.5 -12t34.5 -29l-40 -233q-16 -14 -33.5 -25
t-40.5 -11z" />
    <glyph glyph-name="A" unicode="A" horiz-adv-x="627" 
d="M-51 0h197l3 17l-69 24l93 193h200l40 -199l-102 -18l-2 -17h282l3 17l-78 23l-133 603h-40l-316 -599l-75 -27zM188 267l9.5 19l23.5 48l30 62.5l30 62.5l23 48l9 19h1l52 -259h-178z" />
    <glyph glyph-name="B" unicode="B" horiz-adv-x="600" 
d="M-9 0h297q52 0 98 15.5t80 41.5t53.5 60t19.5 71q0 30 -8 55.5t-26 45t-47.5 33t-72.5 18.5l1 5q78 16 121.5 57.5t43.5 100.5q0 27 -10 51.5t-32 43t-58 29t-88 10.5h-271l-3 -17l96 -18l-90 -567l-102 -18zM241 346l41 259q15 3 28.5 4.5t34.5 1.5q51 0 78 -28t27 -85
q0 -31 -9 -58.5t-28 -48.5t-48.5 -33t-69.5 -12h-54zM260 26q-21 0 -37.5 2t-30.5 5l45 285h56q77 0 109 -35t32 -93q0 -33 -11 -63t-33 -52.5t-54.5 -35.5t-75.5 -13z" />
    <glyph glyph-name="C" unicode="C" horiz-adv-x="653" 
d="M342 -15q54 0 101.5 11t96.5 34l28 146l-9 4l-124 -151q-18 -8 -38 -10.5t-43 -2.5q-39 0 -75.5 17t-65 49t-45.5 76.5t-17 100.5q0 85 20.5 153.5t54 116.5t76 74t86.5 26q136 0 192 -190l16 2l27 214h-12l-55 -43q-30 17 -73.5 28.5t-97.5 11.5q-75 0 -137.5 -32.5
t-107.5 -85.5t-70.5 -120.5t-25.5 -137.5q0 -67 23 -120.5t63.5 -91.5t94.5 -58.5t117 -20.5z" />
    <glyph glyph-name="D" unicode="D" horiz-adv-x="702" 
d="M-9 0h272q99 0 174.5 30.5t127 81.5t77.5 117.5t26 139.5q0 59 -21 108.5t-60.5 85t-97 55t-130.5 19.5h-268l-3 -17l97 -18l-90 -567l-102 -18zM192 33l90 571h62q56 0 97 -16.5t67.5 -46t39.5 -71t13 -90.5q0 -68 -18 -131t-54.5 -111t-91.5 -76.5t-128 -28.5h-77z" />
    <glyph glyph-name="E" unicode="E" horiz-adv-x="620" 
d="M-10 0h519l49 195l-9 4l-105 -112q-13 -14 -23 -23.5t-21.5 -16.5t-26.5 -10t-37 -3h-144l43 273h43q46 0 66 -21t27 -74l4 -31h15l45 281h-15l-14 -33q-11 -26 -23.5 -44t-27 -29t-32.5 -16t-40 -5h-44l43 269h110q24 0 38.5 -4t25 -11.5t19 -18.5l19.5 -26l63 -85l11 7
l3 171h-480l-2 -17l96 -18l-90 -567l-102 -18z" />
    <glyph glyph-name="F" unicode="F" horiz-adv-x="587" 
d="M-10 0h302l2 17l-102 18l42 268h61q45 0 66.5 -20.5t26.5 -73.5l3 -31h16l44 281h-15l-14 -33q-11 -26 -23 -44.5t-26.5 -29.5t-32.5 -16t-41 -5h-60l43 273h115q23 0 38 -4t25.5 -11.5t19 -18.5l19.5 -26l63 -85l11 7l3 171h-485l-2 -17l96 -18l-90 -567l-102 -18z" />
    <glyph glyph-name="G" unicode="G" horiz-adv-x="678" 
d="M298 -15q50 0 86 14.5t74 39.5l70 -51l10 4l43 267l76 18l3 17h-256l-3 -17l88 -19l-38 -199q-26 -15 -55 -22.5t-66 -7.5q-39 0 -72 16t-57 46.5t-37 74t-13 99.5q0 83 20.5 150.5t54 115t76 73t86.5 25.5q69 0 114.5 -46.5t74.5 -143.5l16 2l27 214h-12l-55 -43
q-30 17 -72 28.5t-96 11.5q-75 0 -137.5 -32.5t-107.5 -85.5t-70.5 -120.5t-25.5 -137.5q0 -62 19 -115.5t53 -92.5t80.5 -61t101.5 -22z" />
    <glyph glyph-name="H" unicode="H" horiz-adv-x="783" 
d="M-10 0h295l3 17l-96 18l44 279h308l-44 -279l-102 -18l-3 -17h295l3 17l-96 18l90 567l102 18l2 17h-295l-3 -17l97 -18l-41 -255h-308l41 255l102 18l3 17h-296l-2 -17l96 -18l-90 -567l-102 -18z" />
    <glyph glyph-name="I" unicode="I" horiz-adv-x="408" 
d="M2 0h302l2 17l-99 18l90 567l105 18l3 17h-302l-2 -17l99 -18l-90 -567l-105 -18z" />
    <glyph glyph-name="J" unicode="J" horiz-adv-x="497" 
d="M117 -18q54 0 94 18t69 44q35 31 51 72t26 104l61 382l101 18l3 17h-298l-3 -17l99 -18l-66 -421q-6 -37 -16 -67.5t-28.5 -52.5t-48 -34.5t-72.5 -13.5q11 25 12.5 47.5t-6 39.5t-22 27.5t-34.5 10.5q-26 0 -42 -19t-16 -46q0 -15 6.5 -31.5t22.5 -29.5t42 -21.5
t65 -8.5z" />
    <glyph glyph-name="K" unicode="K" horiz-adv-x="679" 
d="M-10 0h296l2 17l-96 18l42 267h58l145 -261l-73 -24l-3 -17h265l2 17l-80 29l-183 305l233 233l94 36l3 17h-218l-2 -13l69 -37l-237 -252h-68l43 267l102 18l3 17h-296l-2 -17l96 -18l-90 -567l-102 -18z" />
    <glyph glyph-name="L" unicode="L" horiz-adv-x="594" 
d="M-10 0h513l49 195l-9 4l-105 -112q-13 -14 -23 -23.5t-21.5 -16.5t-26.5 -10t-37 -3h-138l90 568l102 18l3 17h-296l-2 -17l96 -18l-90 -567l-102 -18z" />
    <glyph glyph-name="M" unicode="M" horiz-adv-x="901" 
d="M6 0h191l3 17l-75 27l86 542h7l139 -586h24l318 586h6l-87 -551l-102 -18l-3 -17h295l3 17l-96 18l90 567l102 18l3 17h-218l-55 -103l-211 -395h-5l-86 395l-21 103h-207l-2 -17l75 -20l-88 -556l-83 -27z" />
    <glyph glyph-name="N" unicode="N" horiz-adv-x="730" 
d="M525 -6h29l95 599l84 27l2 17h-191l-3 -17l75 -27l-68 -426h-7l-209 368l-57 102h-168l-3 -17l75 -26l-88 -550l-83 -27l-3 -17h192l2 17l-74 27l79 495h6l258 -443z" />
    <glyph glyph-name="O" unicode="O" horiz-adv-x="696" 
d="M312 -15q75 0 136.5 32.5t106 86t69 121t24.5 137.5q0 62 -19 115t-53.5 92t-84 61t-110.5 22q-75 0 -137 -32.5t-106.5 -85.5t-69 -120.5t-24.5 -137.5q0 -62 19 -115.5t53.5 -92.5t84 -61t111.5 -22zM310 8q-42 0 -72 21t-49.5 55.5t-28.5 78t-9 89.5q0 87 20.5 157
t53.5 119t74.5 75t82.5 26q42 0 72 -21t49.5 -55t28.5 -78t9 -90q0 -87 -20.5 -157t-53.5 -119t-74.5 -75t-82.5 -26z" />
    <glyph glyph-name="P" unicode="P" horiz-adv-x="595" 
d="M-10 0h295l3 17l-96 18l39 251q20 -5 46.5 -8t52.5 -3q57 0 102.5 16.5t76.5 44t47.5 63.5t16.5 74q0 31 -12 60.5t-37.5 52.5t-65.5 37t-96 14h-271l-3 -17l97 -18l-91 -567l-101 -18zM298 305q-20 0 -34 1.5t-28 3.5l46 295q11 2 26 4t32 2q30 0 54 -11t40 -29.5
t24.5 -44t8.5 -54.5q0 -36 -11 -66.5t-32.5 -53t-53 -35t-72.5 -12.5z" />
    <glyph glyph-name="Q" unicode="Q" horiz-adv-x="696" 
d="M472 -209h65l3 16q-32 6 -57.5 17t-49.5 30q-44 34 -86 133q67 8 122.5 43t95.5 86.5t61.5 115.5t21.5 130q0 62 -19 115t-53.5 92t-84 61t-110.5 22q-75 0 -137 -32.5t-106.5 -85.5t-69 -120.5t-24.5 -137.5q0 -53 14 -100t40 -84t63 -62.5t84 -36.5l33 -76
q19 -43 31 -63t26 -31q23 -19 53 -25.5t84 -6.5zM310 8q-42 0 -72 21t-49.5 55.5t-28.5 78t-9 89.5q0 87 20.5 157t53.5 119t74.5 75t82.5 26q42 0 72 -21t49.5 -55t28.5 -78t9 -90q0 -87 -20.5 -157t-53.5 -119t-74.5 -75t-82.5 -26z" />
    <glyph glyph-name="R" unicode="R" horiz-adv-x="634" 
d="M-10 0h295l3 17l-96 18l42 263h37q17 0 28.5 -2.5t20 -11t16 -23.5t15.5 -40l37 -115q9 -29 16.5 -49t18.5 -32.5t28 -18.5t46 -6h112l3 17q-15 2 -26.5 5t-20.5 7.5t-17 11.5l-18 16q-20 19 -34 58l-31 87q-12 34 -30.5 63t-56.5 42l1 5q91 18 143.5 64.5t52.5 115.5
q0 28 -11.5 54t-36 46t-64 32.5t-95.5 12.5h-277l-2 -17l96 -18l-90 -567l-102 -18zM238 326l44 279q11 2 26 4t33 2q63 0 94.5 -35.5t31.5 -88.5q0 -34 -11 -63.5t-32 -51t-52 -34t-71 -12.5h-63z" />
    <glyph glyph-name="S" unicode="S" horiz-adv-x="519" 
d="M26 -18h14l46 34q26 -14 60 -22.5t85 -8.5q34 0 72.5 13t71 39.5t53.5 65t21 89.5q0 35 -12 60t-31.5 44t-44.5 33.5l-50 28.5l-47 26t-41 29.5t-29 37.5t-11 50q0 28 10 51t26.5 38.5t37 24t41.5 8.5q25 0 44 -9.5t34.5 -29t29 -50t28.5 -73.5l16 2l13 192h-14l-46 -34
q-22 14 -48 22.5t-58 8.5q-41 0 -77.5 -15.5t-63.5 -43t-43 -64t-16 -78.5q0 -37 12 -63.5t32 -46t45 -34.5t51 -28q24 -12 46.5 -25t40.5 -29t28.5 -36.5t10.5 -48.5q0 -57 -35.5 -91.5t-90.5 -34.5q-26 0 -50.5 8.5t-46.5 30t-41 58t-34 92.5l-17 -2z" />
    <glyph glyph-name="T" unicode="T" horiz-adv-x="624" 
d="M109 0h308l3 17l-103 18l90 569h58q19 0 32.5 -3.5t25 -12t22 -23t25.5 -37.5l49 -77l11 6l-7 180h-519l-56 -180l10 -6l70 77l35.5 37t28 23.5t27.5 12t34 3.5h57l-90 -569l-109 -18z" />
    <glyph glyph-name="U" unicode="U" horiz-adv-x="723" 
d="M334 -17q50 0 93 16.5t77 46.5t56 70.5t30 88.5l62 388l83 27l3 17h-191l-3 -17l75 -27l-58 -366q-6 -40 -21.5 -74.5t-40.5 -60t-59.5 -40t-79.5 -14.5q-38 0 -68 10t-50 32t-28 57.5t0 85.5l60 379l102 18l2 17h-296l-3 -17l96 -18l-59 -371q-20 -127 36.5 -187.5
t181.5 -60.5z" />
    <glyph glyph-name="V" unicode="V" horiz-adv-x="630" 
d="M256 -6h31l322 598l77 28l2 17h-183l-2 -17l67 -28l-249 -474l-95 484l102 18l2 17h-288l-3 -17l84 -23z" />
    <glyph glyph-name="W" unicode="W" horiz-adv-x="913" 
d="M212 -6h31l249 480l85 -480h31l285 598l76 28l3 17h-183l-2 -17l66 -28l-210 -468l-76 478l96 18l2 17h-271l-3 -17l78 -23l13 -69l-201 -402l-55 476l95 18l3 17h-283l-2 -17l84 -23z" />
    <glyph glyph-name="X" unicode="X" horiz-adv-x="687" 
d="M-17 0h211l3 17l-69 24l194 235l11.5 -25l26.5 -60l31.5 -71.5l26.5 -59.5t11 -25l-90 -18l-2 -17h282l3 17l-84 23l-154 307l217 246l86 27l3 17h-211l-3 -17l69 -24l-180 -217l-9.5 23l-23.5 55.5l-29 66l-24 55t-10 23.5l90 18l2 17h-282l-3 -17l84 -23l145 -292
l-233 -261l-86 -27z" />
    <glyph glyph-name="Y" unicode="Y" horiz-adv-x="638" 
d="M120 0h302l2 17l-99 18l41 257l231 301l83 27l3 17h-205l-3 -17l69 -24l-196 -278l-109 284l89 18l3 17h-282l-3 -17l84 -23l137 -314l-39 -248l-105 -18z" />
    <glyph glyph-name="Z" unicode="Z" horiz-adv-x="627" 
d="M-1 0h504l52 179l-10 6l-101 -108q-12 -13 -22.5 -21.5t-21.5 -13t-25.5 -6.5t-35.5 -2h-210l478 593l-2 10h-475l-48 -163l8 -7l91 85q16 15 29.5 25t26.5 16t27.5 8.5t34.5 2.5h175l-477 -594z" />
    <glyph glyph-name="bracketleft" unicode="[" horiz-adv-x="291" 
d="M-7 -176h252l5 26h-171l138 865h170l4 26h-252z" />
    <glyph glyph-name="backslash" unicode="\" horiz-adv-x="393" 
d="M400 -210l33 15l-206 466l-200 470l-33 -14l206 -467z" />
    <glyph glyph-name="bracketright" unicode="]" horiz-adv-x="291" 
d="M-114 -176h252l146 917h-252l-4 -26h170l-138 -865h-170z" />
    <glyph glyph-name="asciicircum" unicode="^" horiz-adv-x="307" 
d="M72 505l130 99l96 -99l13 10l-86 177h-14l-149 -177z" />
    <glyph glyph-name="underscore" unicode="_" horiz-adv-x="448" 
d="M4 0h440v33h-440v-33z" />
    <glyph glyph-name="grave" unicode="`" horiz-adv-x="246" 
d="M207 518l13 9q-7 22 -13.5 46.5l-12.5 46.5l-11 40t-10 27q-8 14 -21.5 19.5t-27.5 -2.5t-18 -23.5t4 -30.5q5 -9 15.5 -24t24 -32.5l28.5 -37z" />
    <glyph glyph-name="a" unicode="a" horiz-adv-x="464" 
d="M153 -11q34 0 64.5 22t58.5 54l4 -3q0 -31 10.5 -52t39.5 -21q26 0 58 12t61 30l-2 7q-35 1 -54.5 4t-28 8.5t-9 13.5t1.5 19l73 392l-6 4l-41 -35q-22 11 -38 15.5t-35 4.5q-57 0 -108.5 -27.5t-90.5 -72t-61.5 -101t-22.5 -113.5q0 -39 11 -69t28.5 -50.5t40 -31
t46.5 -10.5zM195 47q-38 0 -61 36t-23 89t12 98.5t31 78.5t43 51.5t47 18.5q25 0 48 -14t41 -35l-49 -280q-19 -17 -39.5 -30t-49.5 -13z" />
    <glyph glyph-name="b" unicode="b" horiz-adv-x="467" 
d="M165 -11q51 0 100.5 27.5t88 72t62.5 99.5t24 110q0 41 -10.5 72t-27.5 52t-40 31.5t-47 10.5q-38 0 -69.5 -18.5t-62.5 -46.5l-4 3l56 337l-4 3l-153 -52v-10l65 -31l-102 -613q22 -20 52.5 -33.5t71.5 -13.5zM218 34q-29 0 -52.5 14t-41.5 35l52 295q20 14 40 21t46 7
q46 0 70 -36.5t24 -93.5q0 -51 -12 -95.5t-31.5 -77t-44.5 -51t-50 -18.5z" />
    <glyph glyph-name="c" unicode="c" horiz-adv-x="397" 
d="M192 -11q51 0 97 28.5t69 73.5l-7 9q-26 -26 -56.5 -39.5t-63.5 -13.5q-25 0 -46.5 7.5t-37.5 23.5t-25.5 42t-9.5 64q0 47 14.5 93.5t40 83.5t60 60t75.5 23q-6 -14 -8.5 -28t-2.5 -27q0 -28 14 -45t40 -17q21 0 34 16t13 40q0 13 -6 27.5t-19 26.5t-32.5 19.5
t-47.5 7.5q-53 0 -100 -26t-82.5 -68t-56.5 -95.5t-21 -108.5q0 -36 11 -68t32 -56.5t51.5 -38.5t70.5 -14z" />
    <glyph glyph-name="d" unicode="d" horiz-adv-x="474" 
d="M158 -11q38 0 69 22t59 54l4 -3q0 -31 10.5 -52t39.5 -21q26 0 59 12t62 30l-2 7q-32 0 -50.5 2.5t-28 7.5t-11.5 13.5t0 21.5l111 656l-4 3l-152 -52v-10l65 -31l-32 -190q-10 3 -19 4t-20 1q-60 0 -113 -27.5t-92.5 -71.5t-62.5 -99.5t-23 -110.5q0 -41 11.5 -72
t30 -52t42 -31.5t47.5 -10.5zM205 47q-46 0 -70 36.5t-24 93.5q0 51 12 95.5t31.5 77t44.5 51t50 18.5q29 0 52.5 -14t41.5 -35l-49 -280q-19 -17 -39.5 -30t-49.5 -13z" />
    <glyph glyph-name="e" unicode="e" horiz-adv-x="403" 
d="M115 229q76 -3 128.5 9.5t85.5 34t47.5 48t14.5 51.5q0 36 -29.5 64t-83.5 28q-58 0 -104.5 -28t-79.5 -71.5t-50.5 -96.5t-17.5 -104q0 -37 10.5 -69t31.5 -55.5t51.5 -37t69.5 -13.5q23 0 47 7.5t46 21t40.5 32.5t29.5 41l-7 9q-23 -26 -55.5 -40.5t-62.5 -14.5
q-64 0 -93.5 49t-18.5 135zM119 254q7 34 20.5 67.5t32.5 60t43 42.5t52 16q24 0 36 -16.5t12 -41.5q0 -23 -11 -48t-35 -45t-61 -30.5t-89 -4.5z" />
    <glyph glyph-name="f" unicode="f" horiz-adv-x="296" 
d="M-37 -219q28 0 54.5 12.5t48.5 35.5q22 22 37 44.5t26.5 51.5t19.5 67.5t16 94.5l44 315h112l7 41h-113l6 43q7 53 16.5 89.5t21 62t25 42.5t30.5 29q15 -35 38 -53.5t49 -18.5t39.5 14t13.5 34q0 22 -21 39t-61 17q-35 0 -63.5 -11.5t-54.5 -31.5q-24 -19 -42 -39.5
t-31.5 -45.5t-22.5 -56.5t-15 -73.5l-5 -35l-109 -28l-3 -18h105l-60 -425q-8 -54 -19 -90.5t-28 -62.5q-14 23 -35 38.5t-45 15.5t-38 -12.5t-14 -31.5q0 -20 18.5 -36.5t52.5 -16.5z" />
    <glyph glyph-name="g" unicode="g" horiz-adv-x="439" 
d="M163 -219q53 0 93.5 13.5t67.5 35.5t41 49t14 54q0 23 -8.5 42.5t-29.5 37t-56 34t-88 34.5q-16 5 -21 16t3 34h7q45 0 82 17t63.5 44.5t40.5 62t14 70.5q0 49 -25 85l61 11q-2 -19 9.5 -30.5t27.5 -11.5q20 0 31 15t11 35t-14 33.5t-40 13.5q-39 0 -96 -54
q-18 20 -44.5 31t-58.5 11q-45 0 -82.5 -17t-63.5 -45t-40.5 -62.5t-14.5 -70.5q0 -45 23 -81t68 -50l-24 -96q-32 -6 -59.5 -18t-48 -29t-32.5 -38.5t-12 -46.5q0 -26 13.5 -49.5t39.5 -41t63 -28t85 -10.5zM207 156q-20 0 -34.5 9.5t-25 25.5t-15.5 37t-5 44q0 33 7 63
t20.5 53t31.5 37t41 14q19 0 34 -9.5t25.5 -25.5t15.5 -37t5 -44q0 -33 -7 -63t-20.5 -53t-32 -37t-40.5 -14zM190 -189q-33 0 -60.5 9.5t-47.5 25t-31 35t-11 40.5q0 32 17.5 58t56.5 44q57 -16 94.5 -31.5t59 -31.5t30.5 -32.5t9 -32.5q0 -42 -34 -63t-83 -21z" />
    <glyph glyph-name="h" unicode="h" horiz-adv-x="494" 
d="M361 -11q26 0 58 12t61 30l-3 7q-32 0 -50.5 3t-28 8t-11.5 13.5t0 20.5l41 221q14 74 -5.5 117t-73.5 43q-37 0 -76.5 -22.5t-93.5 -67.5l-4 2l60 363l-4 3l-153 -52v-10l65 -31l-108 -649h77l59 354q38 20 63.5 30.5t57.5 10.5q45 0 55.5 -29.5t0.5 -86.5l-33 -187
q-2 -11 -4.5 -26.5t-2.5 -26.5q0 -20 11.5 -35t41.5 -15z" />
    <glyph glyph-name="i" unicode="i" horiz-adv-x="255" 
d="M182 555q14 0 25 6.5t19 17.5t12.5 25t4.5 29q0 23 -12.5 34.5t-29.5 11.5q-14 0 -25.5 -6.5t-19.5 -17.5t-12.5 -24.5t-4.5 -28.5q0 -23 13 -35t30 -12zM106 -11q26 0 60 12t63 30l-2 7q-31 0 -50 2.5t-28.5 7.5t-11.5 13.5t0 21.5l65 384l-4 3l-153 -52v-10l65 -31
l-55 -317q-5 -27 7 -49t44 -22z" />
    <glyph glyph-name="j" unicode="j" horiz-adv-x="248" 
d="M187 555q13 0 24.5 6.5t19 17.5t12 25t4.5 29q0 23 -12.5 34.5t-29.5 11.5q-14 0 -25.5 -6.5t-19.5 -17.5t-12.5 -24.5t-4.5 -28.5q0 -23 13 -35t31 -12zM-49 -219q28 0 54.5 12.5t48.5 35.5q22 22 37 44.5t26.5 52t19.5 68t16 93.5l54 380l-4 3l-152 -52v-10l66 -31
l-58 -400q-8 -54 -19.5 -90.5t-27.5 -62.5q-14 23 -36 38.5t-46 15.5t-37.5 -12.5t-12.5 -31.5q1 -20 19 -36.5t52 -16.5z" />
    <glyph glyph-name="k" unicode="k" horiz-adv-x="446" 
d="M348 -11q26 0 55 12t58 30l-2 7q-32 0 -52 3t-32 8t-17.5 13.5t-7.5 20.5t-6.5 30t-10 36t-12 34t-12.5 25q-14 22 -29.5 33.5t-45.5 17.5v4q51 14 85.5 30.5t55 34.5t29 37t8.5 40q0 25 -11 43t-37 18q-20 0 -36 -19.5t-16 -49.5q0 -28 17 -55q-17 -20 -62 -43.5
t-112 -39.5l80 480l-4 3l-153 -52v-10l66 -31l-109 -649h77l39 231q29 -4 47.5 -14.5t31 -30.5t22.5 -53t22 -82q15 -62 74 -62z" />
    <glyph glyph-name="l" unicode="l" horiz-adv-x="255" 
d="M107 -11q26 0 60 12t63 30l-2 7q-32 0 -50.5 2.5t-28 7.5t-11.5 13.5t0 21.5l109 656l-4 3l-153 -52v-10l65 -31l-100 -589q-5 -28 7.5 -49.5t44.5 -21.5z" />
    <glyph glyph-name="m" unicode="m" horiz-adv-x="748" 
d="M615 -11q26 0 58 12t61 30l-3 7q-32 0 -50.5 3t-28 8t-11.5 13.5t0 20.5l41 221q7 37 7.5 66.5t-7 50.5t-23.5 32t-43 11q-38 0 -79.5 -23.5t-93.5 -69.5l-4 3q0 36 -16.5 63t-59.5 27q-38 0 -77.5 -22.5t-92.5 -67.5l-4 2l9 91l-4 3l-146 -52v-10l65 -31l-64 -377h77
l59 354q38 20 63.5 30.5t57.5 10.5q22 0 33.5 -7.5t15.5 -22.5t1.5 -36.5t-7.5 -49.5l-47 -279h77l59 354q37 20 63 30.5t58 10.5q22 0 33.5 -7.5t15 -22t1.5 -36.5t-7 -50l-33 -187q-2 -11 -4.5 -26.5t-2.5 -26.5q0 -20 12 -35t41 -15z" />
    <glyph glyph-name="n" unicode="n" horiz-adv-x="508" 
d="M375 -11q26 0 57.5 12t60.5 30l-2 7q-32 0 -51 3t-28.5 8t-11 13.5t0.5 20.5l41 221q14 74 -5.5 117t-73.5 43q-38 0 -77.5 -22.5t-92.5 -67.5l-5 2l10 91l-4 3l-146 -52v-10l65 -31l-64 -377h77l59 354q38 20 63.5 30.5t57.5 10.5q45 0 56 -29.5t0 -86.5l-34 -187
q-2 -11 -4 -26.5t-2 -26.5q0 -20 11.5 -35t41.5 -15z" />
    <glyph glyph-name="o" unicode="o" horiz-adv-x="452" 
d="M180 -11q59 0 104.5 27.5t77 70.5t47.5 96t16 103q0 87 -41.5 132.5t-108.5 45.5q-59 0 -105 -27.5t-78 -70.5t-48.5 -96t-16.5 -103q0 -86 43 -132t110 -46zM210 19q-28 0 -46.5 15t-30 39t-16 54t-4.5 60q0 31 7 74t22.5 81t40 65t59.5 27q28 0 47 -15t30 -38.5
t16 -53.5t5 -60q0 -32 -7 -74.5t-22.5 -81t-40.5 -65.5t-60 -27z" />
    <glyph glyph-name="p" unicode="p" horiz-adv-x="481" 
d="M-55 -209h226l2 13l-78 24l29 169q26 -8 54 -8q51 0 100.5 27.5t88.5 72t63 99.5t24 110q0 41 -10.5 72t-28 52t-40 31.5t-46.5 10.5q-38 0 -72.5 -21.5t-62.5 -53.5l-3 3l7 75l-4 3l-146 -52v-10l65 -31l-95 -549l-70 -24zM232 34q-29 0 -52.5 14t-41.5 35l48 281
q19 17 40 29.5t50 12.5q45 0 69 -36.5t24 -93.5q0 -51 -12 -95.5t-31.5 -77t-44 -51t-49.5 -18.5z" />
    <glyph glyph-name="q" unicode="q" horiz-adv-x="451" 
d="M168 -209h219l2 13l-62 24l111 647l-7 4l-41 -35q-22 11 -37 15.5t-35 4.5q-60 0 -113 -27.5t-92.5 -71.5t-62.5 -99.5t-23 -110.5q0 -41 11.5 -72t29.5 -52t41.5 -31.5t47.5 -10.5q39 0 70 22t59 54l4 -3l-40 -234l-80 -24zM205 47q-46 0 -70 36.5t-24 93.5
q0 51 12 95.5t31.5 77t44 51t50.5 18.5q29 0 52 -14t41 -35l-48 -280q-19 -17 -39.5 -30t-49.5 -13z" />
    <glyph glyph-name="r" unicode="r" horiz-adv-x="364" 
d="M49 0h77l56 338q20 23 38 36.5t42 21.5q31 -30 64 -30q21 0 36 14t15 37q0 22 -16.5 35.5t-42.5 13.5q-31 0 -66 -28.5t-61 -74.5l-4 3l12 101l-4 3l-147 -52v-10l65 -31z" />
    <glyph glyph-name="s" unicode="s" horiz-adv-x="363" 
d="M145 -11q38 0 69 12t53.5 32.5t34.5 46.5t12 55q0 36 -19 62.5t-51 48.5l-57 38q-26 17 -42 38.5t-16 47.5q0 27 15.5 45.5t45.5 18.5q13 0 33 -5q8 -42 25 -63.5t39 -21.5q19 0 30 12t11 32q0 12 -6.5 25.5t-20 25t-34 18.5t-47.5 7q-35 0 -63.5 -12t-49 -31t-32 -43.5
t-11.5 -48.5q0 -38 18.5 -64t56.5 -52l45 -31q34 -23 47.5 -43.5t13.5 -43.5q0 -34 -20 -55t-54 -21q-20 0 -40.5 5t-35.5 14q14 44 4.5 74.5t-41.5 30.5q-20 0 -34.5 -16.5t-14.5 -44.5q0 -38 36.5 -65.5t99.5 -27.5z" />
    <glyph glyph-name="t" unicode="t" horiz-adv-x="307" 
d="M146 -8q35 0 67.5 13t69.5 33v10q-32 -3 -56 -3q-55 0 -72 13q-14 11 -15 28.5t4 43.5l46 272h122l7 41h-122l19 110l-23 6l-61 -86l-86 -57l-2 -14h69l-52 -305q-9 -54 11 -79.5t74 -25.5z" />
    <glyph glyph-name="u" unicode="u" horiz-adv-x="504" 
d="M152 -11q38 0 77.5 23t87.5 68l4 -3q-1 -17 0 -33t7 -28t18 -19.5t33 -7.5q26 0 53.5 12t56.5 30l-2 7q-32 0 -51 2.5t-28.5 7.5t-11 13.5t0.5 21.5l65 384l-4 3l-152 -52v-10l65 -31l-47 -277q-38 -20 -63.5 -31t-57.5 -11q-45 0 -55 30t0 87l52 292l-4 3l-153 -52v-10
l65 -31l-41 -228q-14 -74 8.5 -117t76.5 -43z" />
    <glyph glyph-name="v" unicode="v" horiz-adv-x="455" 
d="M160 -17q52 50 102 105t90 109t64.5 104t24.5 90q0 32 -13 52.5t-36 20.5q-20 0 -35.5 -17t-15.5 -52q0 -18 7 -39.5t18 -45.5q-14 -47 -47 -99t-86 -118l-4 2q0 43 -3 92t-8.5 93.5t-12 80t-14.5 53.5q-9 20 -21 35t-41 15q-13 0 -27.5 -6.5t-29 -16.5t-28 -22.5
t-23.5 -24.5l5 -7q37 12 54 12q14 0 21.5 -7t12.5 -22q13 -34 24.5 -113t19.5 -210l-19 -53z" />
    <glyph glyph-name="w" unicode="w" horiz-adv-x="661" 
d="M160 -17q61 59 112 126t89 130l13 -92.5l15 -99.5l-18 -53l21 -11q50 50 97 105t82.5 109t56 104t19.5 90q-2 32 -15 52.5t-36 20.5q-20 0 -35 -17t-13 -52q1 -18 8 -39.5t19 -45.5q-11 -47 -36.5 -99t-75.5 -118l-4 2q-7 46 -13.5 96t-13.5 98.5t-13 95l-11 85.5h-5
l-71 -40q2 -18 7 -50.5l12 -76.5q-20 -45 -49.5 -100t-67.5 -110l-4 2q-1 43 -4 92t-8 93.5t-11.5 80t-14.5 53.5q-9 20 -21 35t-42 15q-13 0 -27.5 -6.5t-29 -16.5t-28 -22.5t-23.5 -24.5l5 -7q37 12 55 12q14 0 21.5 -6.5t12.5 -22.5q12 -34 23.5 -113t20.5 -210l-20 -53z
" />
    <glyph glyph-name="x" unicode="x" horiz-adv-x="474" 
d="M58 -13q17 0 35 10t38 32t41.5 57.5t44.5 87.5l5 -1q11 -38 23 -71.5t26 -58.5t31.5 -39.5t39.5 -14.5q25 0 46.5 12l51.5 30l-1 7q-26 0 -42.5 3t-26.5 8.5t-16.5 13.5t-12.5 20q-20 36 -36 74.5t-34 86.5q25 54 53 93t47 56q14 -15 27.5 -21t28.5 -6q20 0 35 14t15 37
q0 22 -16.5 35.5t-41.5 13.5q-20 0 -38.5 -10t-37.5 -33t-39 -60t-41 -91l-4 1q-12 38 -25 72.5t-28.5 61t-34 42t-40.5 15.5q-24 0 -44.5 -12l-50.5 -29l2 -8q26 0 42 -3t26 -8.5t16 -14t13 -19.5q20 -35 38.5 -79.5l37.5 -92.5q-29 -51 -56.5 -87.5t-46.5 -50.5
q-29 27 -59 27q-20 0 -35 -14t-15 -37q0 -22 16.5 -35.5t42.5 -13.5z" />
    <glyph glyph-name="y" unicode="y" horiz-adv-x="452" 
d="M48 -219q28 0 52 14.5t50 36.5q28 24 55 64t54 90t53 107.5l50.5 116l48.5 115l46 105.5l-75 40h-4q-6 -31 -16.5 -73.5l-23.5 -91t-28.5 -100.5t-32.5 -101h-5q-5 43 -14 90.5t-20.5 90.5t-23.5 77t-21 52q-5 10 -11 19t-13.5 16t-17.5 11t-25 4q-13 0 -26.5 -6.5
t-26.5 -16.5t-24.5 -22.5t-20.5 -24.5l5 -7q36 12 53 12q14 0 22 -7t15 -22q7 -16 19.5 -54t26.5 -90t28 -113.5t26 -123.5q-13 -26 -30 -52t-36 -49t-39.5 -41.5t-41.5 -30.5q2 40 -13 68t-42 28q-23 0 -35 -16t-12 -41q0 -29 20 -51.5t54 -22.5z" />
    <glyph glyph-name="z" unicode="z" horiz-adv-x="409" 
d="M293 -11q25 0 43.5 25.5t41.5 93.5l-6 3q-24 -23 -42 -33.5t-43 -5.5l-168 34l302 353l-16 13l-50 -31l-120 19q-9 2 -17 3t-22 1q-32 0 -57.5 -11t-48.5 -31q-20 -17 -31.5 -38t-11.5 -45q0 -26 17 -43t40 -17q17 0 27 13t10 31t-13.5 34.5t-43.5 23.5v4q6 5 17 8t25 3
q29 0 73 -6t116 -21l-305 -361l13 -11l70 47l96 -31q34 -11 59 -17.5t45 -6.5z" />
    <glyph glyph-name="braceleft" unicode="{" horiz-adv-x="341" 
d="M269 -176l3 19q-32 5 -52 13t-30.5 22t-12.5 36.5t3 56.5l22 140q8 52 4 85t-18.5 52.5t-39.5 29.5t-58 16l1 2q35 6 63 15.5t49 29t35.5 52.5t22.5 86l17 114q5 34 14 56.5t24.5 36.5t38.5 22t56 13l4 20q-46 -2 -84 -9.5t-66.5 -26t-47.5 -51.5t-27 -86l-18 -121
q-6 -37 -17 -62.5t-29.5 -42.5t-45.5 -26t-64 -13l-3 -16q36 -5 59.5 -14t37 -25.5t16.5 -42t-3 -62.5l-23 -146q-8 -53 0 -86t30.5 -51.5t58 -26t80.5 -9.5z" />
    <glyph glyph-name="bar" unicode="|" horiz-adv-x="276" 
d="M120 -241h36l-3 471l3 471h-36l3 -471z" />
    <glyph glyph-name="braceright" unicode="}" horiz-adv-x="341" 
d="M-77 -176q46 2 83.5 9.5t66 26t47.5 51.5t27 86l20 127q6 37 17 62.5t29.5 42t45.5 26t64 13.5l3 16q-72 8 -97.5 39t-13.5 105l23 140q9 53 0.5 85.5t-31 51.5t-58 26.5t-80.5 9.5l-3 -20q31 -5 51.5 -13t31.5 -22t13 -36.5t-4 -56.5l-22 -133q-9 -53 -5 -85.5t19 -52
t40 -29.5t58 -16v-2q-35 -6 -63 -16t-49 -29.5t-35.5 -52t-22.5 -85.5l-19 -121q-5 -34 -14 -56.5t-24.5 -36.5t-38.5 -22t-56 -13z" />
    <glyph glyph-name="asciitilde" unicode="~" horiz-adv-x="369" 
d="M77 264q10 23 22.5 32t27.5 9t31 -5.5l33.5 -12t36 -12t37.5 -5.5q30 0 51 21.5t29 77.5l-13 6q-9 -23 -22 -32.5t-28 -9.5q-14 0 -30.5 5.5t-33.5 12t-35.5 12t-37.5 5.5q-30 0 -51 -21.5t-30 -77.5z" />
    <glyph glyph-name="quotesinglbase" unicode="&#x201a;" horiz-adv-x="240" 
d="M44 -124q62 31 91 69t29 76q0 37 -18.5 60t-50.5 23q-26 0 -43 -18t-17 -43q0 -22 13.5 -36.5t34.5 -14.5q5 0 15 2l17 4l2 -1q-6 -22 -23.5 -47.5t-59.5 -61.5z" />
    <glyph glyph-name="florin" unicode="&#x192;" horiz-adv-x="456" 
d="M1 -185q28 0 57.5 12t52.5 35q22 22 37.5 44.5t27 51.5t20.5 68t18 94l31 183h112l8 40h-113l5 30q9 53 19 91t22 65t26.5 44.5t31.5 29.5q10 -42 35 -62t51 -20q23 0 37.5 14t14.5 33q0 28 -25.5 44t-63.5 16q-29 0 -61 -10.5t-60 -32.5q-24 -19 -42.5 -39.5
t-31.5 -45.5t-22 -56.5t-15 -73.5l-3 -21l-107 -29l-4 -17h103l-49 -296q-10 -58 -20.5 -95t-29.5 -62q-15 32 -39 48t-48 16q-25 0 -39.5 -13.5t-14.5 -33.5q0 -22 20 -37t59 -15z" />
    <glyph glyph-name="quotedblbase" unicode="&#x201e;" horiz-adv-x="380" 
d="M203 -113q58 29 86 66t28 73q0 35 -17.5 56.5t-48.5 21.5q-24 0 -40.5 -17.5t-16.5 -40.5q0 -20 13 -34.5t33 -14.5q4 0 14 2l16 5l2 -1q-6 -21 -22.5 -45.5t-56.5 -58.5zM44 -113q59 29 86.5 66t27.5 73q0 35 -17.5 56.5t-47.5 21.5q-25 0 -41.5 -17.5t-16.5 -40.5
q0 -20 13 -34.5t33 -14.5q5 0 15 2l16 5l2 -1q-6 -21 -22.5 -45.5t-56.5 -58.5z" />
    <glyph glyph-name="ellipsis" unicode="&#x2026;" horiz-adv-x="641" 
d="M522 -16q25 0 42.5 17.5t17.5 42.5t-17.5 42.5t-42.5 17.5q-26 0 -43.5 -17.5t-17.5 -42.5t17.5 -42.5t43.5 -17.5zM311 -16q25 0 42.5 17.5t17.5 42.5t-17.5 42.5t-42.5 17.5q-26 0 -43.5 -17.5t-17.5 -42.5t17.5 -42.5t43.5 -17.5zM100 -16q25 0 42.5 17.5t17.5 42.5
t-17.5 42.5t-42.5 17.5q-26 0 -43.5 -17.5t-17.5 -42.5t17.5 -42.5t43.5 -17.5z" />
    <glyph glyph-name="dagger" unicode="&#x2020;" horiz-adv-x="435" 
d="M125 -83h38l74 490l182 -4l5 32l-183 -4l42 239h-38l-34 -239l-182 4l-5 -32l183 4z" />
    <glyph glyph-name="daggerdbl" unicode="&#x2021;" horiz-adv-x="435" 
d="M125 -83h38l34 239l182 -4l5 32l-183 -4l36 227l181 -4l6 32l-184 -4l43 239h-38l-34 -239l-182 4l-5 -32l183 4l-36 -227l-182 4l-5 -32l183 4z" />
    <glyph glyph-name="circumflex" unicode="&#x2c6;" horiz-adv-x="307" 
d="M66 515l130 99l96 -99l13 10l-86 177h-14l-149 -177z" />
    <glyph glyph-name="perthousand" unicode="&#x2030;" horiz-adv-x="742" 
d="M371 -15q69 0 130 26t106 71.5t71.5 106.5t26.5 130t-26.5 129.5t-71.5 106t-106 71.5t-130 26t-130 -26t-106 -71.5t-71.5 -106t-26.5 -129.5t26.5 -130t71.5 -106.5t106 -71.5t130 -26zM371 8q-64 0 -120 24.5t-98 66.5t-66.5 98.5t-24.5 121.5q0 64 24.5 120.5
t66.5 98.5t98 66.5t120 24.5t120.5 -24.5t98.5 -66.5t66 -98.5t24 -120.5q0 -65 -24 -121.5t-66 -98.5t-98.5 -66.5t-120.5 -24.5zM222 150h164v16l-49 11v125h13q22 0 35.5 -6t24.5 -31l25 -57q7 -16 13 -27t13.5 -18t17.5 -10t25 -3h63v16q-13 2 -21 5t-18 13
q-11 11 -19.5 27.5t-19.5 41.5q-9 21 -25 38t-45 23v2q50 9 74 32.5t24 54.5q0 35 -30 59.5t-89 24.5h-176v-15l49 -11v-284l-49 -11v-16zM337 321v145q4 1 16 1h19q31 0 52.5 -17.5t21.5 -53.5q0 -37 -21.5 -55t-52.5 -19z" />
    <glyph glyph-name="guilsinglleft" unicode="&#x2039;" horiz-adv-x="294" 
d="M173 31l21 15l-87 180l143 174l-17 19l-220 -189l-2 -10z" />
    <glyph glyph-name="OE" unicode="&#x152;" horiz-adv-x="955" 
d="M353 0h491l48 195l-8 4l-105 -112q-13 -14 -23 -23.5t-22 -16.5t-27 -10t-37 -3h-144l43 273h44q45 0 66.5 -21t26.5 -74l3 -31h16l44 281h-15l-14 -33q-11 -26 -23 -44t-26.5 -29t-32.5 -16t-41 -5h-43l43 269h110q23 0 37.5 -4t25 -11.5t19 -18.5l19.5 -26l64 -85l11 7
l3 171h-457q-99 0 -174.5 -30t-127 -81t-77.5 -117.5t-26 -139.5q0 -59 20.5 -108.5t60.5 -85t97 -55.5t131 -20zM367 33q-56 0 -97 16.5t-67.5 46.5t-39 71t-12.5 91q0 68 18 130.5t54.5 110.5t91 76.5t128.5 28.5h77l-91 -571h-62z" />
    <glyph glyph-name="quoteleft" unicode="&#x2018;" horiz-adv-x="208" 
d="M125 431q26 0 43 18t17 43q0 22 -13.5 36.5t-35.5 14.5q-5 0 -15 -2l-17 -4l-2 1q7 22 24 48t59 61l-10 12q-61 -30 -90.5 -68.5t-29.5 -76.5q0 -37 19 -60t51 -23z" />
    <glyph glyph-name="quoteright" unicode="&#x2019;" horiz-adv-x="208" 
d="M85 424q62 31 91 69t29 76q0 37 -18.5 60t-50.5 23q-26 0 -43 -18t-17 -43q0 -22 13.5 -36.5t34.5 -14.5q5 0 15 2l17 4l2 -1q-6 -22 -23.5 -47.5t-59.5 -61.5z" />
    <glyph glyph-name="quotedblleft" unicode="&#x201c;" horiz-adv-x="359" 
d="M279 442q24 0 40.5 17.5t16.5 41.5q0 20 -13 34t-33 14q-4 0 -14 -2l-16 -4l-2 1q6 21 22.5 45.5t56.5 58.5l-10 11q-58 -29 -86 -65.5t-28 -72.5q0 -35 17.5 -57t48.5 -22zM121 442q24 0 40.5 17.5t16.5 41.5q0 20 -13 34t-33 14q-5 0 -15 -2l-16 -4l-1 1
q5 21 21.5 45.5t56.5 58.5l-9 11q-58 -29 -86 -65.5t-28 -72.5q0 -35 17.5 -57t48.5 -22z" />
    <glyph glyph-name="quotedblright" unicode="&#x201d;" horiz-adv-x="361" 
d="M244 435q58 29 86 66t28 73q0 35 -17.5 56.5t-48.5 21.5q-24 0 -40.5 -17.5t-16.5 -40.5q0 -20 13 -34.5t33 -14.5q4 0 14 2l16 5l2 -1q-6 -21 -22.5 -45.5t-56.5 -58.5zM85 435q59 29 86.5 66t27.5 73q0 35 -17.5 56.5t-47.5 21.5q-25 0 -41.5 -17.5t-16.5 -40.5
q0 -20 13 -34.5t33 -14.5q5 0 15 2l16 5l2 -1q-6 -21 -22.5 -45.5t-56.5 -58.5z" />
    <glyph glyph-name="bullet" unicode="&#x2022;" horiz-adv-x="478" 
d="M238 184q28 0 52.5 10.5t43 29t29 43t10.5 52.5t-10.5 52.5t-29 42.5t-43 28.5t-52.5 10.5t-52.5 -10.5t-42.5 -28.5t-28.5 -42.5t-10.5 -52.5t10.5 -52.5t28.5 -43t42.5 -29t52.5 -10.5z" />
    <glyph glyph-name="endash" unicode="&#x2013;" horiz-adv-x="546" 
d="M40 230h425l6 33h-426z" />
    <glyph glyph-name="emdash" unicode="&#x2014;" horiz-adv-x="796" 
d="M40 230h675l6 33h-676z" />
    <glyph glyph-name="tilde" unicode="&#x2dc;" horiz-adv-x="339" 
d="M84 537q9 23 21 32t27 9q14 0 30.5 -5.5t33.5 -12t35.5 -12t37.5 -5.5q31 0 51.5 21.5t29.5 77.5l-15 6q-9 -23 -21 -32.5t-27 -9.5t-31 5.5l-33.5 12t-36 12t-36.5 5.5q-31 0 -52 -21.5t-29 -77.5z" />
    <glyph glyph-name="trademark" unicode="&#x2122;" horiz-adv-x="518" 
d="M279 459h65v9l-23 11v135h4l62 -155h20l60 155h3v-137l-24 -9v-9h91v9l-26 9v142l26 9v9h-82l-11 -31l-34 -93h-3l-36 93l-12 31h-80v-9l22 -10v-139l-22 -11v-9zM122 459h94v9l-26 9v144h11q11 0 16.5 -4t14.5 -16l21 -27l7 1l-9 62h-165l-9 -62l7 -1l21 27
q9 12 14.5 16t16.5 4h13v-144l-27 -9v-9z" />
    <glyph glyph-name="guilsinglright" unicode="&#x203a;" horiz-adv-x="294" 
d="M27 31l220 189l2 10l-162 189l-20 -15l86 -180l-143 -174z" />
    <glyph glyph-name="oe" unicode="&#x153;" horiz-adv-x="709" 
d="M401 364q-14 48 -46.5 74t-79.5 26q-59 0 -105 -27.5t-78 -70.5t-48.5 -96t-16.5 -103q0 -86 43 -132t110 -46q57 0 99 25.5t71 66.5q18 -42 55.5 -67t91.5 -25q23 0 47 7.5t46 21t40.5 32.5t29.5 41l-7 9q-23 -26 -55.5 -40.5t-62.5 -14.5q-64 0 -93.5 49t-18.5 135
q76 -3 128.5 9.5t85.5 34t47.5 48t14.5 51.5q0 36 -29.5 64t-83.5 28q-59 0 -105.5 -27.5t-79.5 -72.5zM427 254q7 34 20.5 67.5t32.5 60t43 42.5t52 16q24 0 36 -16.5t12 -41.5q0 -23 -11 -48t-35 -45t-61 -30.5t-89 -4.5zM210 19q-28 0 -46.5 15t-30 39t-16 54t-4.5 60
q0 31 7 74t22.5 81t40 65t59.5 27q28 0 47 -15t30 -38.5t16 -53.5t5 -60q0 -32 -7 -74.5t-22.5 -81t-40.5 -65.5t-60 -27z" />
    <glyph glyph-name="Ydieresis" unicode="&#x178;" horiz-adv-x="638" 
d="M494 736q23 0 38 16.5t15 37.5t-13.5 35t-34.5 14q-23 0 -38 -16.5t-15 -37.5t13.5 -35t34.5 -14zM337 736q23 0 38 16.5t15 37.5t-13.5 35t-34.5 14q-23 0 -38.5 -16.5t-15.5 -37.5t14 -35t35 -14zM120 0h302l2 17l-99 18l41 257l231 301l83 27l3 17h-205l-3 -17l69 -24
l-196 -278l-109 284l89 18l3 17h-282l-3 -17l84 -23l137 -314l-39 -248l-105 -18z" />
    <glyph glyph-name="exclamdown" unicode="&#xa1;" horiz-adv-x="261" 
d="M142 281q25 0 42.5 17.5t17.5 42.5t-17.5 42.5t-42.5 17.5t-42.5 -17.5t-17.5 -42.5t17.5 -42.5t42.5 -17.5zM60 -266q19 0 33.5 13.5t19.5 42.5q3 20 6 64t5.5 101.5t4.5 123.5l4 131l-21 3l-36.5 -128.5l-34 -125t-25.5 -102.5t-10 -60q0 -33 14.5 -48t39.5 -15z" />
    <glyph glyph-name="cent" unicode="&#xa2;" horiz-adv-x="447" 
d="M189 -91l13 80q22 1 47 9t47.5 21.5t41 32t29.5 39.5l-7 9q-12 -13 -27.5 -23t-32.5 -16.5t-34.5 -10t-32.5 -3.5q-5 0 -11 0.5t-11 1.5l27 172l37 216q21 3 42 -1q-12 -24 -13.5 -45.5t4.5 -37.5t19 -25.5t32 -9.5q21 0 33.5 16.5t12.5 40.5q0 17 -7 33t-21.5 28.5
t-36.5 20t-51 7.5h-9l12 72l-34 4l-13 -81q-45 -11 -84 -41t-67.5 -71t-45 -88.5t-16.5 -92.5q0 -34 9 -64t26 -53t43 -38.5t59 -19.5l-14 -79zM180 58q-27 14 -45 44t-18 82q0 34 8 71t24 71t38.5 60.5t52.5 40.5l-31 -202z" />
    <glyph glyph-name="sterling" unicode="&#xa3;" horiz-adv-x="531" 
d="M25 -15q23 0 49 19.5t45 54.5l54.5 -27.5t53 -24t48.5 -16.5t41 -6q31 0 57 14.5t46 40t33.5 61.5t20.5 78l-22 1q-9 -23 -17 -41t-18.5 -30t-24.5 -18.5t-35 -6.5q-20 0 -46.5 2.5l-55 5t-57.5 4t-54 -1.5v7q32 16 56.5 37.5t40.5 45t24 48t8 45.5v12h135l6 40h-145
q-4 25 -8.5 47t-4.5 50q0 63 21.5 104.5t77.5 66.5q15 -37 39 -59t51 -22q28 0 41 14.5t13 37.5t-20.5 41.5t-65.5 18.5q-53 0 -99 -19t-80.5 -51t-54 -73.5t-19.5 -86.5q0 -20 2.5 -37t5.5 -32h-108l-6 -40h123q6 -24 6 -52q0 -35 -17 -67.5t-57 -73.5q-64 -3 -97 -24.5
t-33 -47.5q0 -17 11.5 -28t35.5 -11z" />
    <glyph glyph-name="currency" unicode="&#xa4;" horiz-adv-x="560" 
d="M300 -15q63 0 117 30.5t85 90.5l-9 10q-67 -61 -161 -61q-26 0 -52 11t-47 32t-36.5 53t-20.5 74h252l5 33h-259q0 22 2 45t6 46h264l5 33h-261q11 42 30.5 81t47.5 70t64.5 49.5t82.5 19.5q-11 -25 -12.5 -48.5t5 -42t21.5 -29.5t38 -11t39 18.5t16 47.5q0 14 -5.5 30
t-19 29.5t-36.5 22.5t-58 9q-47 0 -92 -19t-84.5 -52t-71 -78t-50.5 -97h-64l-6 -33h59q-13 -47 -14 -91h-58l-5 -33h64q3 -51 18.5 -94.5t43.5 -76t67.5 -51t89.5 -18.5z" />
    <glyph glyph-name="yen" unicode="&#xa5;" horiz-adv-x="615" 
d="M100 0h301l3 17l-99 18l22 143h168l6 34h-169l11 66h168l6 34h-154l202 256l83 27l2 17h-204l-3 -17l69 -24l-184 -252l-91 258l90 18l3 17h-283l-3 -17l84 -23l108 -260h-153l-5 -34h167l-10 -66h-168l-5 -34h168l-23 -143l-105 -18z" />
    <glyph glyph-name="section" unicode="&#xa7;" horiz-adv-x="461" 
d="M176 -98q49 0 89 20.5t67.5 56t42.5 82.5t15 101q0 94 -60 181.5t-192 171.5q9 30 24.5 53.5t34 39.5t37.5 24.5t36 8.5q19 0 30.5 -4t24.5 -15q0 -51 20.5 -75t48.5 -24q23 0 36 15.5t13 38.5q0 17 -7.5 34t-23.5 30.5t-39.5 21.5t-56.5 8q-55 0 -99.5 -23.5
t-75.5 -62.5t-48 -90t-17 -106q0 -107 64 -189.5t186 -159.5q-16 -56 -49.5 -84t-71.5 -28q-39 0 -61.5 13t-35.5 30q10 23 11.5 44t-4.5 37.5t-18.5 26.5t-31.5 10q-27 0 -42.5 -18.5t-15.5 -47.5q0 -22 12 -43.5t34 -39t53 -28t70 -10.5zM331 63l-83.5 103.5t-64 94.5
t-41 90.5t-14.5 91.5q0 23 5 48l78 -98t64.5 -92.5t44 -90.5t16.5 -93q0 -26 -5 -54z" />
    <glyph glyph-name="dieresis" unicode="&#xa8;" horiz-adv-x="330" 
d="M282 550q23 0 38 16.5t15 37.5t-13.5 35t-34.5 14q-23 0 -38 -16.5t-15 -37.5t13.5 -35t34.5 -14zM125 550q23 0 38 16.5t15 37.5t-13.5 35t-34.5 14q-23 0 -38.5 -16.5t-15.5 -37.5t14 -35t35 -14z" />
    <glyph glyph-name="copyright" unicode="&#xa9;" horiz-adv-x="742" 
d="M371 -15q69 0 130 26t106 71.5t71.5 106.5t26.5 130t-26.5 129.5t-71.5 106t-106 71.5t-130 26t-130 -26t-106 -71.5t-71.5 -106t-26.5 -129.5t26.5 -130t71.5 -106.5t106 -71.5t130 -26zM371 8q-64 0 -120 24.5t-98 66.5t-66.5 98.5t-24.5 121.5q0 64 24.5 120.5
t66.5 98.5t98 66.5t120 24.5t120.5 -24.5t98.5 -66.5t66 -98.5t24 -120.5q0 -65 -24 -121.5t-66 -98.5t-98.5 -66.5t-120.5 -24.5zM381 142q36 0 60.5 6.5t50.5 18.5l11 82l-10 2l-62 -79q-8 -4 -16 -5t-20 -1q-53 0 -87 40t-34 118q0 41 8 69.5t21.5 46.5t30.5 26t34 8
q36 0 63.5 -24t50.5 -75l14 1l-6 121h-12l-18 -18q-15 8 -36 12t-41 4q-40 0 -73.5 -14.5t-58 -39t-38 -57t-13.5 -69.5q0 -39 13 -71t37 -54.5t57 -35t74 -12.5z" />
    <glyph glyph-name="ordfeminine" unicode="&#xaa;" horiz-adv-x="404" 
d="M158 318q29 0 50.5 15t42.5 38l3 -2q0 -21 9 -36t31 -15q20 0 43.5 8.5t45.5 20.5l-2 6q-26 0 -40 2.5t-20 6t-6 8.5q0 6 2 14l55 276l-5 2l-34 -28q-16 8 -28 13t-28 5q-45 0 -85 -19.5t-70 -50.5t-47.5 -69.5t-17.5 -77.5q0 -29 9 -51t23.5 -36.5t32.5 -22t36 -7.5z
M193 359q-34 0 -50.5 25.5t-16.5 65.5q0 36 8.5 67t22.5 54t32 36t37 13q22 0 37.5 -9.5t29.5 -24.5l-35 -190q-13 -14 -28 -25.5t-37 -11.5z" />
    <glyph glyph-name="guillemotleft" unicode="&#xab;" horiz-adv-x="479" 
d="M358 31l20 15l-86 180l143 174l-17 19l-220 -189l-2 -10zM173 31l21 15l-87 180l143 174l-17 19l-220 -189l-2 -10z" />
    <glyph glyph-name="logicalnot" unicode="&#xac;" horiz-adv-x="505" 
d="M455 284l7 45h-413l-7 -45h413z" />
    <glyph glyph-name="registered" unicode="&#xae;" horiz-adv-x="376" 
d="M218 352q32 0 59.5 11.5t47.5 31.5t31.5 47.5t11.5 59.5t-11.5 59.5t-31.5 47.5t-47.5 31.5t-59.5 11.5t-59.5 -11.5t-47.5 -31.5t-31.5 -47.5t-11.5 -59.5t11.5 -59.5t31.5 -47.5t47.5 -31.5t59.5 -11.5zM218 368q-28 0 -52 10t-41.5 28t-27.5 42.5t-10 53.5
q0 28 10 52.5t27.5 42.5t41.5 28.5t52 10.5t52 -10.5t41.5 -28.5t27.5 -42.5t10 -52.5q0 -29 -10 -53.5t-27.5 -42.5t-41.5 -28t-52 -10zM282 543q0 15 -13 26.5t-41 11.5h-85v-9l27 -7v-122l-27 -6v-9h83v9l-26 6v52h8q12 0 17.5 -3t9.5 -12l11 -26q6 -15 11.5 -20.5
t19.5 -5.5h30v9q-13 1 -21 8q-5 4 -8.5 11t-8.5 19q-10 21 -30 25v4q22 4 32.5 14.5t10.5 24.5zM250 539q0 -15 -9 -23.5t-30 -8.5h-11v62h15q35 0 35 -30z" />
    <glyph glyph-name="macron" unicode="&#xaf;" horiz-adv-x="329" 
d="M89 549h240l6 42h-239z" />
    <glyph glyph-name="macron" unicode="&#x2c9;" horiz-adv-x="329" 
d="M89 549h240l6 42h-239z" />
    <glyph glyph-name="degree" unicode="&#xb0;" horiz-adv-x="392" 
d="M192 352q42 0 74.5 17.5t54.5 44.5t33.5 60.5t11.5 65.5q0 54 -31.5 83.5t-87.5 29.5q-42 0 -74 -17.5t-54.5 -45t-34 -61t-11.5 -64.5q0 -55 32 -84t87 -29zM208 372q-20 0 -32.5 9t-19.5 24t-9.5 34t-2.5 38q0 20 4 46.5t13.5 50.5t26.5 41t43 17q21 0 33.5 -9
t19.5 -24t9.5 -33.5t2.5 -37.5q0 -20 -4 -47t-14 -51t-27 -41t-43 -17z" />
    <glyph glyph-name="plusminus" unicode="&#xb1;" 
d="M25 -200h450v1000h-450v-1000z" />
    <glyph glyph-name="acute" unicode="&#xb4;" horiz-adv-x="246" 
d="M90 518q19 19 40 37l40 34.5l34 30t24 24.5q14 17 15 34t-12 26t-30 3t-30 -22q-9 -11 -19 -28.5l-21.5 -38.5l-24.5 -45t-27 -46z" />
    <glyph glyph-name="mu" unicode="&#xb5;" horiz-adv-x="505" 
d="M279 301l164 133l-26 32l-160 -131l-108 150l-37 -27l111 -150l-164 -133l26 -32l160 131l108 -150l37 27z" />
    <glyph glyph-name="mu" unicode="&#x3bc;" horiz-adv-x="505" 
d="M279 301l164 133l-26 32l-160 -131l-108 150l-37 -27l111 -150l-164 -133l26 -32l160 131l108 -150l37 27z" />
    <glyph glyph-name="paragraph" unicode="&#xb6;" horiz-adv-x="691" 
d="M433 -83h188l2 17l-107 18l110 690l107 19l2 16h-199q-105 0 -194.5 -32t-154.5 -89t-102 -134.5t-37 -167.5q0 -68 24.5 -129.5t73 -107.5t120.5 -73t167 -27zM404 -50l111 694l77 -2l-110 -690z" />
    <glyph glyph-name="periodcentered" unicode="&#xb7;" horiz-adv-x="219" 
d="M110 258q25 0 42.5 17.5t17.5 42.5t-17.5 42.5t-42.5 17.5q-26 0 -43.5 -17.5t-17.5 -42.5t17.5 -42.5t43.5 -17.5z" />
    <glyph glyph-name="cedilla" unicode="&#xb8;" horiz-adv-x="290" 
d="M10 -248q47 0 76.5 26t29.5 67q0 35 -23 58t-59 28l119 100l-14 19l-179 -150l16 -17l14.5 3.5t14.5 1.5q29 0 42.5 -17t13.5 -43q0 -29 -12.5 -43.5t-35.5 -14.5q-15 0 -27 7q4 4 7 10t3 13q0 12 -6.5 21t-20.5 9t-21.5 -9t-7.5 -23q0 -20 17.5 -33t52.5 -13z" />
    <glyph glyph-name="ordmasculine" unicode="&#xba;" horiz-adv-x="412" 
d="M187 318q44 0 78.5 18t58 47.5t36 67t12.5 76.5q0 60 -32 92.5t-82 32.5q-44 0 -79 -18t-59 -47.5t-37 -67t-13 -76.5q0 -60 33.5 -92.5t83.5 -32.5zM206 339q-21 0 -33.5 10.5t-20 27.5t-10 38t-2.5 42q0 22 5.5 52t17 57t29.5 45.5t44 18.5q21 0 34 -10.5t20.5 -27
t10 -37.5t2.5 -42q0 -22 -5.5 -52t-17 -57t-30 -46t-44.5 -19z" />
    <glyph glyph-name="guillemotright" unicode="&#xbb;" horiz-adv-x="479" 
d="M212 31l220 189l2 10l-162 189l-21 -15l87 -180l-143 -174zM27 31l220 189l2 10l-162 189l-20 -15l86 -180l-143 -174z" />
    <glyph glyph-name="questiondown" unicode="&#xbf;" horiz-adv-x="356" 
d="M231 401q-25 0 -42.5 -17.5t-17.5 -42.5t17.5 -42.5t42.5 -17.5q26 0 43.5 17.5t17.5 42.5t-17.5 42.5t-43.5 17.5zM166 217q-39 0 -61 -17l3 -11q17 1 34.5 -0.5t32 -7.5t23.5 -17.5t9 -29.5q0 -27 -25.5 -42.5t-76.5 -36.5q-30 -12 -55.5 -26t-45 -32.5t-30.5 -43
t-11 -58.5q0 -35 13 -64t36.5 -51t56.5 -34t73 -12q63 0 100 23.5t37 57.5q0 29 -16.5 44t-38.5 15t-38 -17t-16 -46q0 -8 1.5 -18t5.5 -20q-20 -13 -47 -13q-45 1 -72.5 31t-27.5 76q0 40 33 66t89 52q28 13 51.5 26.5t40.5 28.5t26.5 33.5t9.5 41.5q0 27 -11 46t-28 31.5
t-37 18.5t-38 6z" />
    <glyph glyph-name="Agrave" unicode="&#xc0;" horiz-adv-x="627" 
d="M393 704l13 9q-7 22 -13.5 46.5l-12.5 46.5l-11 40t-10 27q-8 14 -21.5 19.5t-27.5 -2.5t-18 -23.5t4 -30.5q5 -9 15.5 -24t24 -32.5l28.5 -37zM-51 0h197l3 17l-69 24l93 193h200l40 -199l-102 -18l-2 -17h282l3 17l-78 23l-133 603h-40l-316 -599l-75 -27zM188 267
l9.5 19l23.5 48l30 62.5l30 62.5l23 48l9 19h1l52 -259h-178z" />
    <glyph glyph-name="Aacute" unicode="&#xc1;" horiz-adv-x="627" 
d="M362 704q19 19 40 37l40 34.5l34 30t24 24.5q14 17 15 34t-12 26t-30 3t-30 -22q-9 -11 -19 -28.5l-21.5 -38.5l-24.5 -45t-27 -46zM-51 0h197l3 17l-69 24l93 193h200l40 -199l-102 -18l-2 -17h282l3 17l-78 23l-133 603h-40l-316 -599l-75 -27zM188 267l9.5 19l23.5 48
l30 62.5l30 62.5l23 48l9 19h1l52 -259h-178z" />
    <glyph glyph-name="Acircumflex" unicode="&#xc2;" horiz-adv-x="627" 
d="M255 691l130 99l96 -99l13 10l-86 177h-14l-149 -177zM-51 0h197l3 17l-69 24l93 193h200l40 -199l-102 -18l-2 -17h282l3 17l-78 23l-133 603h-40l-316 -599l-75 -27zM188 267l9.5 19l23.5 48l30 62.5l30 62.5l23 48l9 19h1l52 -259h-178z" />
    <glyph glyph-name="Atilde" unicode="&#xc3;" horiz-adv-x="627" 
d="M254 723q9 23 21 32t27 9q14 0 30.5 -5.5t33.5 -12t35.5 -12t37.5 -5.5q31 0 51.5 21.5t29.5 77.5l-15 6q-9 -23 -21 -32.5t-27 -9.5t-31 5.5l-33.5 12t-36 12t-36.5 5.5q-31 0 -52 -21.5t-29 -77.5zM-51 0h197l3 17l-69 24l93 193h200l40 -199l-102 -18l-2 -17h282l3 17
l-78 23l-133 603h-40l-316 -599l-75 -27zM188 267l9.5 19l23.5 48l30 62.5l30 62.5l23 48l9 19h1l52 -259h-178z" />
    <glyph glyph-name="Adieresis" unicode="&#xc4;" horiz-adv-x="627" 
d="M466 736q23 0 38 16.5t15 37.5t-13.5 35t-34.5 14q-23 0 -38 -16.5t-15 -37.5t13.5 -35t34.5 -14zM309 736q23 0 38 16.5t15 37.5t-13.5 35t-34.5 14q-23 0 -38.5 -16.5t-15.5 -37.5t14 -35t35 -14zM-51 0h197l3 17l-69 24l93 193h200l40 -199l-102 -18l-2 -17h282l3 17
l-78 23l-133 603h-40l-316 -599l-75 -27zM188 267l9.5 19l23.5 48l30 62.5l30 62.5l23 48l9 19h1l52 -259h-178z" />
    <glyph glyph-name="Aring" unicode="&#xc5;" horiz-adv-x="627" 
d="M-51 0h197l3 17l-69 24l93 193h200l40 -199l-102 -18l-2 -17h282l3 17l-78 23l-132 596q35 10 56 39.5t21 61.5t-20.5 53.5t-54.5 21.5q-23 0 -42 -9t-32.5 -24t-21 -33.5t-7.5 -37.5q0 -28 15 -47.5t41 -25.5l-312 -591l-75 -27zM363 649q-33 0 -33 59q0 12 2.5 27
t8.5 28.5t16 23t25 9.5t24 -15.5t9 -44.5q0 -12 -3 -27t-9 -28.5t-16 -22.5t-24 -9zM188 267l9.5 19l23.5 48l30 62.5l30 62.5l23 48l9 19h1l52 -259h-178z" />
    <glyph glyph-name="AE" unicode="&#xc6;" horiz-adv-x="898" 
d="M-66 0h197l2 17l-69 24l166 221h178l-36 -227l-102 -18l-2 -17h519l48 195l-8 4l-105 -112q-13 -14 -23 -23.5t-21.5 -16.5t-27 -10t-37.5 -3h-144l44 273h43q45 0 66.5 -21t26.5 -74l3 -31h16l45 281h-15l-15 -33q-12 -26 -24 -44t-26.5 -29t-32 -16t-39.5 -5h-44
l43 269h110q23 0 37.5 -4t25 -11.5t19 -18.5l19.5 -26l64 -85l11 7l3 171h-493l-2 -17l92 -26l-434 -550l-76 -27zM255 295l198 263h2l-42 -263h-158z" />
    <glyph glyph-name="Ccedilla" unicode="&#xc7;" horiz-adv-x="653" 
d="M266 -248q47 0 76.5 26t29.5 67q0 35 -23 58t-59 28l65 54q50 2 94.5 12.5t90.5 32.5l28 146l-9 4l-124 -151q-18 -8 -38 -10.5t-43 -2.5q-39 0 -75.5 17t-65 49t-45.5 76.5t-17 100.5q0 85 20.5 153.5t54 116.5t76 74t86.5 26q136 0 192 -190l16 2l27 214h-12l-55 -43
q-30 17 -73.5 28.5t-97.5 11.5q-75 0 -137.5 -32.5t-107.5 -85.5t-70.5 -120.5t-25.5 -137.5q0 -64 21 -116t58 -89.5t87 -59t109 -25.5l-103 -86l16 -17l14.5 3.5t14.5 1.5q29 0 42.5 -17t13.5 -43q0 -29 -12.5 -43.5t-35.5 -14.5q-15 0 -27 7q4 4 7 10t3 13q0 12 -6.5 21
t-20.5 9t-21.5 -9t-7.5 -23q0 -20 17.5 -33t52.5 -13z" />
    <glyph glyph-name="Egrave" unicode="&#xc8;" horiz-adv-x="620" 
d="M391 704l13 9q-7 22 -13.5 46.5l-12.5 46.5l-11 40t-10 27q-8 14 -21.5 19.5t-27.5 -2.5t-18 -23.5t4 -30.5q5 -9 15.5 -24t24 -32.5l28.5 -37zM-10 0h519l49 195l-9 4l-105 -112q-13 -14 -23 -23.5t-21.5 -16.5t-26.5 -10t-37 -3h-144l43 273h43q46 0 66 -21t27 -74
l4 -31h15l45 281h-15l-14 -33q-11 -26 -23.5 -44t-27 -29t-32.5 -16t-40 -5h-44l43 269h110q24 0 38.5 -4t25 -11.5t19 -18.5l19.5 -26l63 -85l11 7l3 171h-480l-2 -17l96 -18l-90 -567l-102 -18z" />
    <glyph glyph-name="Eacute" unicode="&#xc9;" horiz-adv-x="620" 
d="M344 704q19 19 40 37l40 34.5l34 30t24 24.5q14 17 15 34t-12 26t-30 3t-30 -22q-9 -11 -19 -28.5l-21.5 -38.5l-24.5 -45t-27 -46zM-10 0h519l49 195l-9 4l-105 -112q-13 -14 -23 -23.5t-21.5 -16.5t-26.5 -10t-37 -3h-144l43 273h43q46 0 66 -21t27 -74l4 -31h15
l45 281h-15l-14 -33q-11 -26 -23.5 -44t-27 -29t-32.5 -16t-40 -5h-44l43 269h110q24 0 38.5 -4t25 -11.5t19 -18.5l19.5 -26l63 -85l11 7l3 171h-480l-2 -17l96 -18l-90 -567l-102 -18z" />
    <glyph glyph-name="Ecircumflex" unicode="&#xca;" horiz-adv-x="620" 
d="M262 701l130 99l96 -99l13 10l-86 177h-14l-149 -177zM-10 0h519l49 195l-9 4l-105 -112q-13 -14 -23 -23.5t-21.5 -16.5t-26.5 -10t-37 -3h-144l43 273h43q46 0 66 -21t27 -74l4 -31h15l45 281h-15l-14 -33q-11 -26 -23.5 -44t-27 -29t-32.5 -16t-40 -5h-44l43 269h110
q24 0 38.5 -4t25 -11.5t19 -18.5l19.5 -26l63 -85l11 7l3 171h-480l-2 -17l96 -18l-90 -567l-102 -18z" />
    <glyph glyph-name="Edieresis" unicode="&#xcb;" horiz-adv-x="620" 
d="M460 736q23 0 38 16.5t15 37.5t-13.5 35t-34.5 14q-23 0 -38 -16.5t-15 -37.5t13.5 -35t34.5 -14zM303 736q23 0 38 16.5t15 37.5t-13.5 35t-34.5 14q-23 0 -38.5 -16.5t-15.5 -37.5t14 -35t35 -14zM-10 0h519l49 195l-9 4l-105 -112q-13 -14 -23 -23.5t-21.5 -16.5
t-26.5 -10t-37 -3h-144l43 273h43q46 0 66 -21t27 -74l4 -31h15l45 281h-15l-14 -33q-11 -26 -23.5 -44t-27 -29t-32.5 -16t-40 -5h-44l43 269h110q24 0 38.5 -4t25 -11.5t19 -18.5l19.5 -26l63 -85l11 7l3 171h-480l-2 -17l96 -18l-90 -567l-102 -18z" />
    <glyph glyph-name="Igrave" unicode="&#xcc;" horiz-adv-x="408" 
d="M261 704l13 9q-7 22 -13.5 46.5l-12.5 46.5l-11 40t-10 27q-8 14 -21.5 19.5t-27.5 -2.5t-18 -23.5t4 -30.5q5 -9 15.5 -24t24 -32.5l28.5 -37zM2 0h302l2 17l-99 18l90 567l105 18l3 17h-302l-2 -17l99 -18l-90 -567l-105 -18z" />
    <glyph glyph-name="Iacute" unicode="&#xcd;" horiz-adv-x="408" 
d="M238 704q19 19 40 37l40 34.5l34 30t24 24.5q14 17 15 34t-12 26t-30 3t-30 -22q-9 -11 -19 -28.5l-21.5 -38.5l-24.5 -45t-27 -46zM2 0h302l2 17l-99 18l90 567l105 18l3 17h-302l-2 -17l99 -18l-90 -567l-105 -18z" />
    <glyph glyph-name="Icircumflex" unicode="&#xce;" horiz-adv-x="408" 
d="M150 701l130 99l96 -99l13 10l-86 177h-14l-149 -177zM2 0h302l2 17l-99 18l90 567l105 18l3 17h-302l-2 -17l99 -18l-90 -567l-105 -18z" />
    <glyph glyph-name="Idieresis" unicode="&#xcf;" horiz-adv-x="408" 
d="M354 736q23 0 38 16.5t15 37.5t-13.5 35t-34.5 14q-23 0 -38 -16.5t-15 -37.5t13.5 -35t34.5 -14zM197 736q23 0 38 16.5t15 37.5t-13.5 35t-34.5 14q-23 0 -38.5 -16.5t-15.5 -37.5t14 -35t35 -14zM2 0h302l2 17l-99 18l90 567l105 18l3 17h-302l-2 -17l99 -18l-90 -567
l-105 -18z" />
    <glyph glyph-name="Ntilde" unicode="&#xd1;" horiz-adv-x="730" 
d="M300 723q9 23 21 32t27 9q14 0 30.5 -5.5t33.5 -12t35.5 -12t37.5 -5.5q31 0 51.5 21.5t29.5 77.5l-15 6q-9 -23 -21 -32.5t-27 -9.5t-31 5.5l-33.5 12t-36 12t-36.5 5.5q-31 0 -52 -21.5t-29 -77.5zM525 -6h29l95 599l84 27l2 17h-191l-3 -17l75 -27l-68 -426h-7
l-209 368l-57 102h-168l-3 -17l75 -26l-88 -550l-83 -27l-3 -17h192l2 17l-74 27l79 495h6l258 -443z" />
    <glyph glyph-name="Ograve" unicode="&#xd2;" horiz-adv-x="696" 
d="M413 704l13 9q-7 22 -13.5 46.5l-12.5 46.5l-11 40t-10 27q-8 14 -21.5 19.5t-27.5 -2.5t-18 -23.5t4 -30.5q5 -9 15.5 -24t24 -32.5l28.5 -37zM312 -15q75 0 136.5 32.5t106 86t69 121t24.5 137.5q0 62 -19 115t-53.5 92t-84 61t-110.5 22q-75 0 -137 -32.5
t-106.5 -85.5t-69 -120.5t-24.5 -137.5q0 -62 19 -115.5t53.5 -92.5t84 -61t111.5 -22zM310 8q-42 0 -72 21t-49.5 55.5t-28.5 78t-9 89.5q0 87 20.5 157t53.5 119t74.5 75t82.5 26q42 0 72 -21t49.5 -55t28.5 -78t9 -90q0 -87 -20.5 -157t-53.5 -119t-74.5 -75t-82.5 -26z
" />
    <glyph glyph-name="Oacute" unicode="&#xd3;" horiz-adv-x="696" 
d="M378 704q19 19 40 37l40 34.5l34 30t24 24.5q14 17 15 34t-12 26t-30 3t-30 -22q-9 -11 -19 -28.5l-21.5 -38.5l-24.5 -45t-27 -46zM312 -15q75 0 136.5 32.5t106 86t69 121t24.5 137.5q0 62 -19 115t-53.5 92t-84 61t-110.5 22q-75 0 -137 -32.5t-106.5 -85.5
t-69 -120.5t-24.5 -137.5q0 -62 19 -115.5t53.5 -92.5t84 -61t111.5 -22zM310 8q-42 0 -72 21t-49.5 55.5t-28.5 78t-9 89.5q0 87 20.5 157t53.5 119t74.5 75t82.5 26q42 0 72 -21t49.5 -55t28.5 -78t9 -90q0 -87 -20.5 -157t-53.5 -119t-74.5 -75t-82.5 -26z" />
    <glyph glyph-name="Ocircumflex" unicode="&#xd4;" horiz-adv-x="696" 
d="M282 701l130 99l96 -99l13 10l-86 177h-14l-149 -177zM312 -15q75 0 136.5 32.5t106 86t69 121t24.5 137.5q0 62 -19 115t-53.5 92t-84 61t-110.5 22q-75 0 -137 -32.5t-106.5 -85.5t-69 -120.5t-24.5 -137.5q0 -62 19 -115.5t53.5 -92.5t84 -61t111.5 -22zM310 8
q-42 0 -72 21t-49.5 55.5t-28.5 78t-9 89.5q0 87 20.5 157t53.5 119t74.5 75t82.5 26q42 0 72 -21t49.5 -55t28.5 -78t9 -90q0 -87 -20.5 -157t-53.5 -119t-74.5 -75t-82.5 -26z" />
    <glyph glyph-name="Otilde" unicode="&#xd5;" horiz-adv-x="696" 
d="M276 723q9 23 21 32t27 9q14 0 30.5 -5.5t33.5 -12t35.5 -12t37.5 -5.5q31 0 51.5 21.5t29.5 77.5l-15 6q-9 -23 -21 -32.5t-27 -9.5t-31 5.5l-33.5 12t-36 12t-36.5 5.5q-31 0 -52 -21.5t-29 -77.5zM312 -15q75 0 136.5 32.5t106 86t69 121t24.5 137.5q0 62 -19 115
t-53.5 92t-84 61t-110.5 22q-75 0 -137 -32.5t-106.5 -85.5t-69 -120.5t-24.5 -137.5q0 -62 19 -115.5t53.5 -92.5t84 -61t111.5 -22zM310 8q-42 0 -72 21t-49.5 55.5t-28.5 78t-9 89.5q0 87 20.5 157t53.5 119t74.5 75t82.5 26q42 0 72 -21t49.5 -55t28.5 -78t9 -90
q0 -87 -20.5 -157t-53.5 -119t-74.5 -75t-82.5 -26z" />
    <glyph glyph-name="Odieresis" unicode="&#xd6;" horiz-adv-x="696" 
d="M472 736q23 0 38 16.5t15 37.5t-13.5 35t-34.5 14q-23 0 -38 -16.5t-15 -37.5t13.5 -35t34.5 -14zM315 736q23 0 38 16.5t15 37.5t-13.5 35t-34.5 14q-23 0 -38.5 -16.5t-15.5 -37.5t14 -35t35 -14zM312 -15q75 0 136.5 32.5t106 86t69 121t24.5 137.5q0 62 -19 115
t-53.5 92t-84 61t-110.5 22q-75 0 -137 -32.5t-106.5 -85.5t-69 -120.5t-24.5 -137.5q0 -62 19 -115.5t53.5 -92.5t84 -61t111.5 -22zM310 8q-42 0 -72 21t-49.5 55.5t-28.5 78t-9 89.5q0 87 20.5 157t53.5 119t74.5 75t82.5 26q42 0 72 -21t49.5 -55t28.5 -78t9 -90
q0 -87 -20.5 -157t-53.5 -119t-74.5 -75t-82.5 -26z" />
    <glyph glyph-name="Oslash" unicode="&#xd8;" horiz-adv-x="696" 
d="M79 -32l62 76q34 -28 77 -43.5t94 -15.5q75 0 136.5 32.5t106 86t69 121t24.5 137.5q0 63 -19 116.5t-55 91.5l64 78l-25 21l-62 -76q-33 28 -76 43.5t-94 15.5q-75 0 -137 -32.5t-106.5 -85.5t-69 -120.5t-24.5 -137.5q0 -63 19 -117t55 -93l-64 -78zM169 128
q-18 57 -18 124q0 87 20.5 157t53.5 119t74.5 75t82.5 26q45 0 76.5 -24t50.5 -63zM310 8q-45 0 -76.5 24t-50.5 63l340 413q18 -56 18 -123q0 -87 -20.5 -157t-53.5 -119t-74.5 -75t-82.5 -26z" />
    <glyph glyph-name="Ugrave" unicode="&#xd9;" horiz-adv-x="723" 
d="M465 704l13 9q-7 22 -13.5 46.5l-12.5 46.5l-11 40t-10 27q-8 14 -21.5 19.5t-27.5 -2.5t-18 -23.5t4 -30.5q5 -9 15.5 -24t24 -32.5l28.5 -37zM334 -17q50 0 93 16.5t77 46.5t56 70.5t30 88.5l62 388l83 27l3 17h-191l-3 -17l75 -27l-58 -366q-6 -40 -21.5 -74.5
t-40.5 -60t-59.5 -40t-79.5 -14.5q-38 0 -68 10t-50 32t-28 57.5t0 85.5l60 379l102 18l2 17h-296l-3 -17l96 -18l-59 -371q-20 -127 36.5 -187.5t181.5 -60.5z" />
    <glyph glyph-name="Uacute" unicode="&#xda;" horiz-adv-x="723" 
d="M436 704q19 19 40 37l40 34.5l34 30t24 24.5q14 17 15 34t-12 26t-30 3t-30 -22q-9 -11 -19 -28.5l-21.5 -38.5l-24.5 -45t-27 -46zM334 -17q50 0 93 16.5t77 46.5t56 70.5t30 88.5l62 388l83 27l3 17h-191l-3 -17l75 -27l-58 -366q-6 -40 -21.5 -74.5t-40.5 -60
t-59.5 -40t-79.5 -14.5q-38 0 -68 10t-50 32t-28 57.5t0 85.5l60 379l102 18l2 17h-296l-3 -17l96 -18l-59 -371q-20 -127 36.5 -187.5t181.5 -60.5z" />
    <glyph glyph-name="Ucircumflex" unicode="&#xdb;" horiz-adv-x="723" 
d="M350 701l130 99l96 -99l13 10l-86 177h-14l-149 -177zM334 -17q50 0 93 16.5t77 46.5t56 70.5t30 88.5l62 388l83 27l3 17h-191l-3 -17l75 -27l-58 -366q-6 -40 -21.5 -74.5t-40.5 -60t-59.5 -40t-79.5 -14.5q-38 0 -68 10t-50 32t-28 57.5t0 85.5l60 379l102 18l2 17
h-296l-3 -17l96 -18l-59 -371q-20 -127 36.5 -187.5t181.5 -60.5z" />
    <glyph glyph-name="Udieresis" unicode="&#xdc;" horiz-adv-x="723" 
d="M536 736q23 0 38 16.5t15 37.5t-13.5 35t-34.5 14q-23 0 -38 -16.5t-15 -37.5t13.5 -35t34.5 -14zM379 736q23 0 38 16.5t15 37.5t-13.5 35t-34.5 14q-23 0 -38.5 -16.5t-15.5 -37.5t14 -35t35 -14zM334 -17q50 0 93 16.5t77 46.5t56 70.5t30 88.5l62 388l83 27l3 17
h-191l-3 -17l75 -27l-58 -366q-6 -40 -21.5 -74.5t-40.5 -60t-59.5 -40t-79.5 -14.5q-38 0 -68 10t-50 32t-28 57.5t0 85.5l60 379l102 18l2 17h-296l-3 -17l96 -18l-59 -371q-20 -127 36.5 -187.5t181.5 -60.5z" />
    <glyph glyph-name="germandbls" unicode="&#xdf;" horiz-adv-x="466" 
d="M-82 -219q27 0 54 12.5t49 35.5q21 22 36 44.5t26.5 51.5t19.5 67.5t16 94.5l57 399q16 109 52 169.5t81 60.5q35 0 53.5 -24.5t18.5 -78.5q0 -66 -42 -135t-129 -129v-10q75 -69 117 -136.5t42 -118.5q0 -29 -16 -47t-45 -18q-17 0 -30 5.5t-24 13.5q14 38 5 65t-38 27
q-19 0 -32.5 -14.5t-13.5 -38.5q0 -33 30 -60.5t93 -27.5q31 0 56.5 12t43.5 32t28 46t10 55q0 26 -11 57t-30.5 63.5t-46.5 64t-60 58.5q34 24 65.5 51t55.5 56t38.5 60.5t14.5 63.5q0 26 -8 50t-24.5 42.5t-42 29.5t-60.5 11q-36 0 -64 -11.5t-54 -31.5q-51 -40 -76 -91
t-36 -124l-71 -506q-8 -54 -19.5 -90.5t-27.5 -62.5q-14 23 -35.5 38.5t-45.5 15.5t-37.5 -12.5t-13.5 -31.5q0 -20 18 -36.5t53 -16.5z" />
    <glyph glyph-name="agrave" unicode="&#xe0;" horiz-adv-x="464" 
d="M308 518l13 9q-7 22 -13.5 46.5l-12.5 46.5l-11 40t-10 27q-8 14 -21.5 19.5t-27.5 -2.5t-18 -23.5t4 -30.5q5 -9 15.5 -24t24 -32.5l28.5 -37zM153 -11q34 0 64.5 22t58.5 54l4 -3q0 -31 10.5 -52t39.5 -21q26 0 58 12t61 30l-2 7q-35 1 -54.5 4t-28 8.5t-9 13.5t1.5 19
l73 392l-6 4l-41 -35q-22 11 -38 15.5t-35 4.5q-57 0 -108.5 -27.5t-90.5 -72t-61.5 -101t-22.5 -113.5q0 -39 11 -69t28.5 -50.5t40 -31t46.5 -10.5zM195 47q-38 0 -61 36t-23 89t12 98.5t31 78.5t43 51.5t47 18.5q25 0 48 -14t41 -35l-49 -280q-19 -17 -39.5 -30
t-49.5 -13z" />
    <glyph glyph-name="aacute" unicode="&#xe1;" horiz-adv-x="464" 
d="M265 518q19 19 40 37l40 34.5l34 30t24 24.5q14 17 15 34t-12 26t-30 3t-30 -22q-9 -11 -19 -28.5l-21.5 -38.5l-24.5 -45t-27 -46zM153 -11q34 0 64.5 22t58.5 54l4 -3q0 -31 10.5 -52t39.5 -21q26 0 58 12t61 30l-2 7q-35 1 -54.5 4t-28 8.5t-9 13.5t1.5 19l73 392
l-6 4l-41 -35q-22 11 -38 15.5t-35 4.5q-57 0 -108.5 -27.5t-90.5 -72t-61.5 -101t-22.5 -113.5q0 -39 11 -69t28.5 -50.5t40 -31t46.5 -10.5zM195 47q-38 0 -61 36t-23 89t12 98.5t31 78.5t43 51.5t47 18.5q25 0 48 -14t41 -35l-49 -280q-19 -17 -39.5 -30t-49.5 -13z" />
    <glyph glyph-name="acircumflex" unicode="&#xe2;" horiz-adv-x="464" 
d="M193 515l130 99l96 -99l13 10l-86 177h-14l-149 -177zM153 -11q34 0 64.5 22t58.5 54l4 -3q0 -31 10.5 -52t39.5 -21q26 0 58 12t61 30l-2 7q-35 1 -54.5 4t-28 8.5t-9 13.5t1.5 19l73 392l-6 4l-41 -35q-22 11 -38 15.5t-35 4.5q-57 0 -108.5 -27.5t-90.5 -72
t-61.5 -101t-22.5 -113.5q0 -39 11 -69t28.5 -50.5t40 -31t46.5 -10.5zM195 47q-38 0 -61 36t-23 89t12 98.5t31 78.5t43 51.5t47 18.5q25 0 48 -14t41 -35l-49 -280q-19 -17 -39.5 -30t-49.5 -13z" />
    <glyph glyph-name="atilde" unicode="&#xe3;" horiz-adv-x="464" 
d="M183 537q9 23 21 32t27 9q14 0 30.5 -5.5t33.5 -12t35.5 -12t37.5 -5.5q31 0 51.5 21.5t29.5 77.5l-15 6q-9 -23 -21 -32.5t-27 -9.5t-31 5.5l-33.5 12t-36 12t-36.5 5.5q-31 0 -52 -21.5t-29 -77.5zM153 -11q34 0 64.5 22t58.5 54l4 -3q0 -31 10.5 -52t39.5 -21
q26 0 58 12t61 30l-2 7q-35 1 -54.5 4t-28 8.5t-9 13.5t1.5 19l73 392l-6 4l-41 -35q-22 11 -38 15.5t-35 4.5q-57 0 -108.5 -27.5t-90.5 -72t-61.5 -101t-22.5 -113.5q0 -39 11 -69t28.5 -50.5t40 -31t46.5 -10.5zM195 47q-38 0 -61 36t-23 89t12 98.5t31 78.5t43 51.5
t47 18.5q25 0 48 -14t41 -35l-49 -280q-19 -17 -39.5 -30t-49.5 -13z" />
    <glyph glyph-name="adieresis" unicode="&#xe4;" horiz-adv-x="464" 
d="M385 550q23 0 38 16.5t15 37.5t-13.5 35t-34.5 14q-23 0 -38 -16.5t-15 -37.5t13.5 -35t34.5 -14zM228 550q23 0 38 16.5t15 37.5t-13.5 35t-34.5 14q-23 0 -38.5 -16.5t-15.5 -37.5t14 -35t35 -14zM153 -11q34 0 64.5 22t58.5 54l4 -3q0 -31 10.5 -52t39.5 -21
q26 0 58 12t61 30l-2 7q-35 1 -54.5 4t-28 8.5t-9 13.5t1.5 19l73 392l-6 4l-41 -35q-22 11 -38 15.5t-35 4.5q-57 0 -108.5 -27.5t-90.5 -72t-61.5 -101t-22.5 -113.5q0 -39 11 -69t28.5 -50.5t40 -31t46.5 -10.5zM195 47q-38 0 -61 36t-23 89t12 98.5t31 78.5t43 51.5
t47 18.5q25 0 48 -14t41 -35l-49 -280q-19 -17 -39.5 -30t-49.5 -13z" />
    <glyph glyph-name="aring" unicode="&#xe5;" horiz-adv-x="464" 
d="M296 513q23 0 42 9t32.5 24t21 33.5t7.5 37.5q0 32 -20.5 53.5t-54.5 21.5q-23 0 -42 -9t-32.5 -24t-21 -33.5t-7.5 -37.5q0 -33 20.5 -54t54.5 -21zM153 -11q34 0 64.5 22t58.5 54l4 -3q0 -31 10.5 -52t39.5 -21q26 0 58 12t61 30l-2 7q-35 1 -54.5 4t-28 8.5t-9 13.5
t1.5 19l73 392l-6 4l-41 -35q-22 11 -38 15.5t-35 4.5q-57 0 -108.5 -27.5t-90.5 -72t-61.5 -101t-22.5 -113.5q0 -39 11 -69t28.5 -50.5t40 -31t46.5 -10.5zM301 529q-33 0 -33 59q0 12 2.5 27t8.5 28.5t16 23t25 9.5t24 -15.5t9 -44.5q0 -12 -3 -27t-9 -28.5t-16 -22.5
t-24 -9zM195 47q-38 0 -61 36t-23 89t12 98.5t31 78.5t43 51.5t47 18.5q25 0 48 -14t41 -35l-49 -280q-19 -17 -39.5 -30t-49.5 -13z" />
    <glyph glyph-name="ae" unicode="&#xe6;" horiz-adv-x="637" 
d="M279 76q18 -39 54.5 -63t89.5 -24q23 0 47 7.5t46 21t40.5 32.5t29.5 41l-7 9q-23 -26 -55.5 -40.5t-62.5 -14.5q-64 0 -93.5 49t-18.5 135q76 -3 128.5 9.5t85.5 34t47.5 48t14.5 51.5q0 36 -29.5 64t-83.5 28q-35 0 -66 -10.5t-58 -29.5q-14 19 -34.5 29.5t-51.5 10.5
q-55 0 -105.5 -31.5t-89 -80t-61.5 -106.5t-23 -110q0 -35 10.5 -62t28.5 -46t41 -29t49 -10q42 0 71.5 24.5t51.5 62.5h4zM353 254q7 35 20.5 68.5t32.5 59.5t43 42t52 16q24 0 36 -16.5t12 -41.5q0 -23 -11 -48.5t-35 -45.5t-61 -30.5t-89 -3.5zM331 369
q-34 -44 -52.5 -98t-18.5 -107q0 -38 12 -71q-21 -23 -39 -33.5t-41 -10.5q-37 0 -61 29.5t-24 80.5q0 54 12 102t31.5 84t45.5 57t55 21q22 0 41 -13.5t39 -40.5z" />
    <glyph glyph-name="ccedilla" unicode="&#xe7;" horiz-adv-x="397" 
d="M150 -248q47 0 76.5 26t29.5 67q0 35 -23 58t-59 28l86 72q32 14 57.5 36.5t40.5 51.5l-7 9q-26 -26 -56.5 -39.5t-63.5 -13.5q-25 0 -46.5 7.5t-37.5 23.5t-25.5 42t-9.5 64q0 47 14.5 93.5t40 83.5t60 60t75.5 23q-6 -14 -8.5 -28t-2.5 -27q0 -28 14 -45t40 -17
q21 0 34 16t13 40q0 13 -6 27.5t-19 26.5t-32.5 19.5t-47.5 7.5q-53 0 -100 -26t-82.5 -68t-56.5 -95.5t-21 -108.5q0 -36 11 -68t32 -56.5t51.5 -38.5t70.5 -14q10 0 15 1l-107 -90l16 -17l14.5 3.5t14.5 1.5q29 0 42.5 -17t13.5 -43q0 -29 -12.5 -43.5t-35.5 -14.5
q-15 0 -27 7q4 4 7 10t3 13q0 12 -6.5 21t-20.5 9t-21.5 -9t-7.5 -23q0 -20 17.5 -33t52.5 -13z" />
    <glyph glyph-name="egrave" unicode="&#xe8;" horiz-adv-x="403" 
d="M273 518l13 9q-7 22 -13.5 46.5l-12.5 46.5l-11 40t-10 27q-8 14 -21.5 19.5t-27.5 -2.5t-18 -23.5t4 -30.5q5 -9 15.5 -24t24 -32.5l28.5 -37zM115 229q76 -3 128.5 9.5t85.5 34t47.5 48t14.5 51.5q0 36 -29.5 64t-83.5 28q-58 0 -104.5 -28t-79.5 -71.5t-50.5 -96.5
t-17.5 -104q0 -37 10.5 -69t31.5 -55.5t51.5 -37t69.5 -13.5q23 0 47 7.5t46 21t40.5 32.5t29.5 41l-7 9q-23 -26 -55.5 -40.5t-62.5 -14.5q-64 0 -93.5 49t-18.5 135zM119 254q7 34 20.5 67.5t32.5 60t43 42.5t52 16q24 0 36 -16.5t12 -41.5q0 -23 -11 -48t-35 -45
t-61 -30.5t-89 -4.5z" />
    <glyph glyph-name="eacute" unicode="&#xe9;" horiz-adv-x="403" 
d="M234 518q19 19 40 37l40 34.5l34 30t24 24.5q14 17 15 34t-12 26t-30 3t-30 -22q-9 -11 -19 -28.5l-21.5 -38.5l-24.5 -45t-27 -46zM115 229q76 -3 128.5 9.5t85.5 34t47.5 48t14.5 51.5q0 36 -29.5 64t-83.5 28q-58 0 -104.5 -28t-79.5 -71.5t-50.5 -96.5t-17.5 -104
q0 -37 10.5 -69t31.5 -55.5t51.5 -37t69.5 -13.5q23 0 47 7.5t46 21t40.5 32.5t29.5 41l-7 9q-23 -26 -55.5 -40.5t-62.5 -14.5q-64 0 -93.5 49t-18.5 135zM119 254q7 34 20.5 67.5t32.5 60t43 42.5t52 16q24 0 36 -16.5t12 -41.5q0 -23 -11 -48t-35 -45t-61 -30.5t-89 -4.5
z" />
    <glyph glyph-name="ecircumflex" unicode="&#xea;" horiz-adv-x="403" 
d="M156 515l130 99l96 -99l13 10l-86 177h-14l-149 -177zM115 229q76 -3 128.5 9.5t85.5 34t47.5 48t14.5 51.5q0 36 -29.5 64t-83.5 28q-58 0 -104.5 -28t-79.5 -71.5t-50.5 -96.5t-17.5 -104q0 -37 10.5 -69t31.5 -55.5t51.5 -37t69.5 -13.5q23 0 47 7.5t46 21t40.5 32.5
t29.5 41l-7 9q-23 -26 -55.5 -40.5t-62.5 -14.5q-64 0 -93.5 49t-18.5 135zM119 254q7 34 20.5 67.5t32.5 60t43 42.5t52 16q24 0 36 -16.5t12 -41.5q0 -23 -11 -48t-35 -45t-61 -30.5t-89 -4.5z" />
    <glyph glyph-name="edieresis" unicode="&#xeb;" horiz-adv-x="403" 
d="M346 550q23 0 38 16.5t15 37.5t-13.5 35t-34.5 14q-23 0 -38 -16.5t-15 -37.5t13.5 -35t34.5 -14zM189 550q23 0 38 16.5t15 37.5t-13.5 35t-34.5 14q-23 0 -38.5 -16.5t-15.5 -37.5t14 -35t35 -14zM115 229q76 -3 128.5 9.5t85.5 34t47.5 48t14.5 51.5q0 36 -29.5 64
t-83.5 28q-58 0 -104.5 -28t-79.5 -71.5t-50.5 -96.5t-17.5 -104q0 -37 10.5 -69t31.5 -55.5t51.5 -37t69.5 -13.5q23 0 47 7.5t46 21t40.5 32.5t29.5 41l-7 9q-23 -26 -55.5 -40.5t-62.5 -14.5q-64 0 -93.5 49t-18.5 135zM119 254q7 34 20.5 67.5t32.5 60t43 42.5t52 16
q24 0 36 -16.5t12 -41.5q0 -23 -11 -48t-35 -45t-61 -30.5t-89 -4.5z" />
    <glyph glyph-name="igrave" unicode="&#xec;" horiz-adv-x="255" 
d="M179 518l13 9q-7 22 -13.5 46.5l-12.5 46.5l-11 40t-10 27q-8 14 -21.5 19.5t-27.5 -2.5t-18 -23.5t4 -30.5q5 -9 15.5 -24t24 -32.5l28.5 -37zM106 -11q26 0 60 12t63 30l-2 7q-31 0 -50 2.5t-28.5 7.5t-11.5 13.5t0 21.5l65 384l-4 3l-153 -52v-10l65 -31l-55 -317
q-5 -27 7 -49t44 -22z" />
    <glyph glyph-name="iacute" unicode="&#xed;" horiz-adv-x="255" 
d="M122 518q19 19 40 37l40 34.5l34 30t24 24.5q14 17 15 34t-12 26t-30 3t-30 -22q-9 -11 -19 -28.5l-21.5 -38.5l-24.5 -45t-27 -46zM106 -11q26 0 60 12t63 30l-2 7q-31 0 -50 2.5t-28.5 7.5t-11.5 13.5t0 21.5l65 384l-4 3l-153 -52v-10l65 -31l-55 -317q-5 -27 7 -49
t44 -22z" />
    <glyph glyph-name="icircumflex" unicode="&#xee;" horiz-adv-x="255" 
d="M46 515l130 99l96 -99l13 10l-86 177h-14l-149 -177zM106 -11q26 0 60 12t63 30l-2 7q-31 0 -50 2.5t-28.5 7.5t-11.5 13.5t0 21.5l65 384l-4 3l-153 -52v-10l65 -31l-55 -317q-5 -27 7 -49t44 -22z" />
    <glyph glyph-name="idieresis" unicode="&#xef;" horiz-adv-x="255" 
d="M248 550q23 0 38 16.5t15 37.5t-13.5 35t-34.5 14q-23 0 -38 -16.5t-15 -37.5t13.5 -35t34.5 -14zM91 550q23 0 38 16.5t15 37.5t-13.5 35t-34.5 14q-23 0 -38.5 -16.5t-15.5 -37.5t14 -35t35 -14zM106 -11q26 0 60 12t63 30l-2 7q-31 0 -50 2.5t-28.5 7.5t-11.5 13.5
t0 21.5l65 384l-4 3l-153 -52v-10l65 -31l-55 -317q-5 -27 7 -49t44 -22z" />
    <glyph glyph-name="ntilde" unicode="&#xf1;" horiz-adv-x="508" 
d="M170 537q9 23 21 32t27 9q14 0 30.5 -5.5t33.5 -12t35.5 -12t37.5 -5.5q31 0 51.5 21.5t29.5 77.5l-15 6q-9 -23 -21 -32.5t-27 -9.5t-31 5.5l-33.5 12t-36 12t-36.5 5.5q-31 0 -52 -21.5t-29 -77.5zM375 -11q26 0 57.5 12t60.5 30l-2 7q-32 0 -51 3t-28.5 8t-11 13.5
t0.5 20.5l41 221q14 74 -5.5 117t-73.5 43q-38 0 -77.5 -22.5t-92.5 -67.5l-5 2l10 91l-4 3l-146 -52v-10l65 -31l-64 -377h77l59 354q38 20 63.5 30.5t57.5 10.5q45 0 56 -29.5t0 -86.5l-34 -187q-2 -11 -4 -26.5t-2 -26.5q0 -20 11.5 -35t41.5 -15z" />
    <glyph glyph-name="ograve" unicode="&#xf2;" horiz-adv-x="452" 
d="M275 518l13 9q-7 22 -13.5 46.5l-12.5 46.5l-11 40t-10 27q-8 14 -21.5 19.5t-27.5 -2.5t-18 -23.5t4 -30.5q5 -9 15.5 -24t24 -32.5l28.5 -37zM180 -11q59 0 104.5 27.5t77 70.5t47.5 96t16 103q0 87 -41.5 132.5t-108.5 45.5q-59 0 -105 -27.5t-78 -70.5t-48.5 -96
t-16.5 -103q0 -86 43 -132t110 -46zM210 19q-28 0 -46.5 15t-30 39t-16 54t-4.5 60q0 31 7 74t22.5 81t40 65t59.5 27q28 0 47 -15t30 -38.5t16 -53.5t5 -60q0 -32 -7 -74.5t-22.5 -81t-40.5 -65.5t-60 -27z" />
    <glyph glyph-name="oacute" unicode="&#xf3;" horiz-adv-x="452" 
d="M244 518q19 19 40 37l40 34.5l34 30t24 24.5q14 17 15 34t-12 26t-30 3t-30 -22q-9 -11 -19 -28.5l-21.5 -38.5l-24.5 -45t-27 -46zM180 -11q59 0 104.5 27.5t77 70.5t47.5 96t16 103q0 87 -41.5 132.5t-108.5 45.5q-59 0 -105 -27.5t-78 -70.5t-48.5 -96t-16.5 -103
q0 -86 43 -132t110 -46zM210 19q-28 0 -46.5 15t-30 39t-16 54t-4.5 60q0 31 7 74t22.5 81t40 65t59.5 27q28 0 47 -15t30 -38.5t16 -53.5t5 -60q0 -32 -7 -74.5t-22.5 -81t-40.5 -65.5t-60 -27z" />
    <glyph glyph-name="ocircumflex" unicode="&#xf4;" horiz-adv-x="452" 
d="M154 515l130 99l96 -99l13 10l-86 177h-14l-149 -177zM180 -11q59 0 104.5 27.5t77 70.5t47.5 96t16 103q0 87 -41.5 132.5t-108.5 45.5q-59 0 -105 -27.5t-78 -70.5t-48.5 -96t-16.5 -103q0 -86 43 -132t110 -46zM210 19q-28 0 -46.5 15t-30 39t-16 54t-4.5 60
q0 31 7 74t22.5 81t40 65t59.5 27q28 0 47 -15t30 -38.5t16 -53.5t5 -60q0 -32 -7 -74.5t-22.5 -81t-40.5 -65.5t-60 -27z" />
    <glyph glyph-name="otilde" unicode="&#xf5;" horiz-adv-x="452" 
d="M158 537q9 23 21 32t27 9q14 0 30.5 -5.5t33.5 -12t35.5 -12t37.5 -5.5q31 0 51.5 21.5t29.5 77.5l-15 6q-9 -23 -21 -32.5t-27 -9.5t-31 5.5l-33.5 12t-36 12t-36.5 5.5q-31 0 -52 -21.5t-29 -77.5zM180 -11q59 0 104.5 27.5t77 70.5t47.5 96t16 103q0 87 -41.5 132.5
t-108.5 45.5q-59 0 -105 -27.5t-78 -70.5t-48.5 -96t-16.5 -103q0 -86 43 -132t110 -46zM210 19q-28 0 -46.5 15t-30 39t-16 54t-4.5 60q0 31 7 74t22.5 81t40 65t59.5 27q28 0 47 -15t30 -38.5t16 -53.5t5 -60q0 -32 -7 -74.5t-22.5 -81t-40.5 -65.5t-60 -27z" />
    <glyph glyph-name="odieresis" unicode="&#xf6;" horiz-adv-x="452" 
d="M364 550q23 0 38 16.5t15 37.5t-13.5 35t-34.5 14q-23 0 -38 -16.5t-15 -37.5t13.5 -35t34.5 -14zM207 550q23 0 38 16.5t15 37.5t-13.5 35t-34.5 14q-23 0 -38.5 -16.5t-15.5 -37.5t14 -35t35 -14zM180 -11q59 0 104.5 27.5t77 70.5t47.5 96t16 103q0 87 -41.5 132.5
t-108.5 45.5q-59 0 -105 -27.5t-78 -70.5t-48.5 -96t-16.5 -103q0 -86 43 -132t110 -46zM210 19q-28 0 -46.5 15t-30 39t-16 54t-4.5 60q0 31 7 74t22.5 81t40 65t59.5 27q28 0 47 -15t30 -38.5t16 -53.5t5 -60q0 -32 -7 -74.5t-22.5 -81t-40.5 -65.5t-60 -27z" />
    <glyph glyph-name="divide" unicode="&#xf7;" horiz-adv-x="505" 
d="M277 403q23 0 39.5 16.5t16.5 39.5t-16.5 39.5t-39.5 16.5t-39.5 -16.5t-16.5 -39.5t16.5 -39.5t39.5 -16.5zM455 284l7 45h-413l-7 -45h413zM228 98q23 0 39.5 16.5t16.5 39.5t-16.5 39.5t-39.5 16.5t-39.5 -16.5t-16.5 -39.5t16.5 -39.5t39.5 -16.5z" />
    <glyph glyph-name="oslash" unicode="&#xf8;" horiz-adv-x="452" 
d="M49 -32l39 51q37 -30 92 -30q59 0 104.5 27.5t77 70.5t47.5 96t16 103q0 40 -9 70.5t-26 53.5l6.5 8.5l14 18.5l14 18.5l6.5 8.5l-25 21l-6 -8l-13.5 -17.5l-14 -17.5l-6.5 -8q-36 30 -91 30q-59 0 -105 -27.5t-78 -70.5t-48.5 -96t-16.5 -103q0 -79 38 -126l-41 -53z
M120 113q-7 34 -7 74q0 31 7 74t22.5 81t40 65t59.5 27q30 0 49 -16.5t30 -42.5zM210 19q-29 0 -48 15.5t-30 41.5l201 261q4 -17 5.5 -34.5t1.5 -35.5q0 -32 -7 -74.5t-22.5 -81t-40.5 -65.5t-60 -27z" />
    <glyph glyph-name="ugrave" unicode="&#xf9;" horiz-adv-x="504" 
d="M287 518l13 9q-7 22 -13.5 46.5l-12.5 46.5l-11 40t-10 27q-8 14 -21.5 19.5t-27.5 -2.5t-18 -23.5t4 -30.5q5 -9 15.5 -24t24 -32.5l28.5 -37zM152 -11q38 0 77.5 23t87.5 68l4 -3q-1 -17 0 -33t7 -28t18 -19.5t33 -7.5q26 0 53.5 12t56.5 30l-2 7q-32 0 -51 2.5
t-28.5 7.5t-11 13.5t0.5 21.5l65 384l-4 3l-152 -52v-10l65 -31l-47 -277q-38 -20 -63.5 -31t-57.5 -11q-45 0 -55 30t0 87l52 292l-4 3l-153 -52v-10l65 -31l-41 -228q-14 -74 8.5 -117t76.5 -43z" />
    <glyph glyph-name="uacute" unicode="&#xfa;" horiz-adv-x="504" 
d="M256 518q19 19 40 37l40 34.5l34 30t24 24.5q14 17 15 34t-12 26t-30 3t-30 -22q-9 -11 -19 -28.5l-21.5 -38.5l-24.5 -45t-27 -46zM152 -11q38 0 77.5 23t87.5 68l4 -3q-1 -17 0 -33t7 -28t18 -19.5t33 -7.5q26 0 53.5 12t56.5 30l-2 7q-32 0 -51 2.5t-28.5 7.5
t-11 13.5t0.5 21.5l65 384l-4 3l-152 -52v-10l65 -31l-47 -277q-38 -20 -63.5 -31t-57.5 -11q-45 0 -55 30t0 87l52 292l-4 3l-153 -52v-10l65 -31l-41 -228q-14 -74 8.5 -117t76.5 -43z" />
    <glyph glyph-name="ucircumflex" unicode="&#xfb;" horiz-adv-x="504" 
d="M172 515l130 99l96 -99l13 10l-86 177h-14l-149 -177zM152 -11q38 0 77.5 23t87.5 68l4 -3q-1 -17 0 -33t7 -28t18 -19.5t33 -7.5q26 0 53.5 12t56.5 30l-2 7q-32 0 -51 2.5t-28.5 7.5t-11 13.5t0.5 21.5l65 384l-4 3l-152 -52v-10l65 -31l-47 -277q-38 -20 -63.5 -31
t-57.5 -11q-45 0 -55 30t0 87l52 292l-4 3l-153 -52v-10l65 -31l-41 -228q-14 -74 8.5 -117t76.5 -43z" />
    <glyph glyph-name="udieresis" unicode="&#xfc;" horiz-adv-x="504" 
d="M366 550q23 0 38 16.5t15 37.5t-13.5 35t-34.5 14q-23 0 -38 -16.5t-15 -37.5t13.5 -35t34.5 -14zM209 550q23 0 38 16.5t15 37.5t-13.5 35t-34.5 14q-23 0 -38.5 -16.5t-15.5 -37.5t14 -35t35 -14zM152 -11q38 0 77.5 23t87.5 68l4 -3q-1 -17 0 -33t7 -28t18 -19.5
t33 -7.5q26 0 53.5 12t56.5 30l-2 7q-32 0 -51 2.5t-28.5 7.5t-11 13.5t0.5 21.5l65 384l-4 3l-152 -52v-10l65 -31l-47 -277q-38 -20 -63.5 -31t-57.5 -11q-45 0 -55 30t0 87l52 292l-4 3l-153 -52v-10l65 -31l-41 -228q-14 -74 8.5 -117t76.5 -43z" />
    <glyph glyph-name="ydieresis" unicode="&#xff;" horiz-adv-x="452" 
d="M348 550q23 0 38 16.5t15 37.5t-13.5 35t-34.5 14q-23 0 -38 -16.5t-15 -37.5t13.5 -35t34.5 -14zM191 550q23 0 38 16.5t15 37.5t-13.5 35t-34.5 14q-23 0 -38.5 -16.5t-15.5 -37.5t14 -35t35 -14zM48 -219q28 0 52 14.5t50 36.5q28 24 55 64t54 90t53 107.5l50.5 116
l48.5 115l46 105.5l-75 40h-4q-6 -31 -16.5 -73.5l-23.5 -91t-28.5 -100.5t-32.5 -101h-5q-5 43 -14 90.5t-20.5 90.5t-23.5 77t-21 52q-5 10 -11 19t-13.5 16t-17.5 11t-25 4q-13 0 -26.5 -6.5t-26.5 -16.5t-24.5 -22.5t-20.5 -24.5l5 -7q36 12 53 12q14 0 22 -7t15 -22
q7 -16 19.5 -54t26.5 -90t28 -113.5t26 -123.5q-13 -26 -30 -52t-36 -49t-39.5 -41.5t-41.5 -30.5q2 40 -13 68t-42 28q-23 0 -35 -16t-12 -41q0 -29 20 -51.5t54 -22.5z" />
    <glyph glyph-name="breve" unicode="&#x2d8;" horiz-adv-x="344" 
d="M206 527q60 0 96.5 34t53.5 95l-16 7q-25 -39 -52 -58.5t-69 -19.5q-83 0 -108 78l-18 -7q-2 -61 25.5 -95t87.5 -34z" />
    <glyph glyph-name="dotaccent" unicode="&#x2d9;" horiz-adv-x="172" 
d="M124 550q23 0 38 16.5t15 37.5t-13.5 35t-34.5 14q-23 0 -38 -16.5t-15 -37.5t13.5 -35t34.5 -14z" />
    <glyph glyph-name="apple" unicode="&#xf8ff;" horiz-adv-x="694" 
d="M644 -200v921h-101l-29 79h-334l-30 -79h-100v-554q14 0 23 -9.5t9 -22.5q0 -14 -9 -23t-23 -9v-303h207l8 14h163l8 -14h208zM400 563h58v-14h-43v-66h38v-14h-38v-78h-15v172zM184 563h15v-79h47v79h15v-172h-15v79h-47v-79h-15v172zM460 394v16q4 -2 10 -4t10 -2
q16 0 16 22v137h16v-137q0 -36 -31 -36q-5 0 -11.5 1t-9.5 3zM349 438l4.5 15l4.5 15l13 -3q-2 -11 -5.5 -20.5t-7.5 -18.5l16 -30l-11 -8l-12 24h-1q-4 -9 -10.5 -16.5t-16.5 -7.5q-14 0 -22.5 11t-8.5 28q0 27 23 45q-6 11 -10 19.5t-4 19.5t7.5 21t20.5 10q14 0 20.5 -10
t6.5 -21q0 -12 -6.5 -22.5t-16.5 -19.5zM523 323h8v-24l21 24h10l-18 -20l19 -26h-9l-16 20l-7 -7v-13h-8v46zM488 292h-12v-15h-8v46h21q8 0 12 -4.5t4 -9.5q0 -12 -10 -15l12 -17h-9zM426 276q-11 0 -17 7t-6 17q0 9 6 16.5t17 7.5t17.5 -7.5t6.5 -16.5q0 -10 -6.5 -17
t-17.5 -7zM370 301l13 22h9l-18 -29v-17h-8v17l-18 29h9zM193 323h33v-7h-25v-12h22v-7h-22v-13h25v-7h-33v46zM132 323h7l25 -32v32h8v-46h-7l-25 32v-32h-8v46zM241 323h8l10 -35h1l11 35h8l10 -35h1l10 35h8l-14 -47h-8l-11 34h-1l-10 -34h-8zM327 479q15 16 15 32
q0 8 -3.5 13.5t-9.5 5.5t-10 -5.5t-4 -13.5t3.5 -15zM342 423l-20 39q-15 -15 -15 -33q0 -11 4.5 -19t12.5 -8q5 0 10.5 6.5t7.5 14.5zM488 299q9 0 9 9q0 8 -10 8h-11v-17h12zM426 283q7 0 11.5 5t4.5 12q0 6 -4.5 11.5t-11.5 5.5t-11 -5.5t-4 -11.5q0 -7 4 -12t11 -5z" />
    <glyph glyph-name="approxequal" unicode="&#x2248;" horiz-adv-x="801" 
d="M240 -219q27 0 54 12.5t49 35.5q21 22 36 44.5t26.5 51.5t19.5 67.5t16 94.5l45 315h174l-59 -342q-5 -28 7 -49.5t44 -21.5q26 0 60 12t63 30l-2 7q-32 0 -50.5 2.5t-28 7.5t-11.5 13.5t0 21.5l64 384l-4 3l-80 -27h-171l6 43q10 69 24 113t32 69.5t40 35t48 9.5
q8 0 14 -2t10 -4q-5 -52 14 -79t48 -27q23 0 36 14t13 35q0 15 -8 31t-24 29.5t-40 22t-56 8.5q-68 0 -121 -40q-10 -8 -18.5 -15.5t-16.5 -16.5q-11 25 -41 44t-80 19q-70 0 -122 -39q-45 -33 -70.5 -86t-37.5 -133l-4 -26l-109 -28l-3 -18h105l-59 -417q-8 -54 -19 -90.5
t-27 -62.5q-14 23 -35.5 38.5t-45.5 15.5t-38 -12.5t-14 -32.5t18.5 -36t52.5 -16q58 0 103 47q22 22 37 44.5t26.5 51.5t19.5 68t16 94l43 308h199l-60 -425q-8 -54 -19.5 -90.5t-27.5 -62.5q-14 23 -35.5 38.5t-45.5 15.5t-37.5 -12.5t-13.5 -31.5q0 -20 18 -36.5
t53 -16.5zM215 443l5 34q10 69 24.5 113t32.5 69.5t40 35t48 9.5q7 0 13.5 -2t10.5 -4q-5 -51 12 -77.5t45 -28.5q-10 -24 -16 -51t-11 -58q0 -1 -1 -10t-3 -19.5l-2 -10.5h-198z" />
    <glyph glyph-name="greaterequal" unicode="&#x2265;" 
d="M25 -200h450v1000h-450v-1000z" />
    <glyph glyph-name="infinity" unicode="&#x221e;" 
d="M25 -200h450v1000h-450v-1000z" />
    <glyph glyph-name="integral" unicode="&#x222b;" 
d="M25 -200h450v1000h-450v-1000z" />
    <glyph glyph-name="lessequal" unicode="&#x2264;" 
d="M25 -200h450v1000h-450v-1000z" />
    <glyph glyph-name="lozenge" unicode="&#x25ca;" horiz-adv-x="498" 
d="M491 619l26 9v9h-82l-11 -31l-34 -93h-3l-36 93l-12 31h-80v-9l22 -10v-139l-22 -11v-9h65v9l-23 11v135h4l62 -155h20l60 155h3v-137l-24 -9v-9h91v9l-26 9v142zM230 514q0 22 -15 32.5t-38 18.5q-24 8 -35.5 15.5t-11.5 21.5q0 13 6.5 20t17.5 7q25 0 58 -48l10 1
l-4 61h-9l-8 -9q-8 3 -20 5t-23 2q-25 0 -44 -14.5t-19 -40.5q0 -24 16.5 -36t37.5 -19q23 -8 35 -15.5t12 -21.5q0 -13 -8.5 -20t-22.5 -7q-31 0 -66 53l-9 -1l1 -68h9l9 11q9 -4 25 -6.5t29 -2.5q26 0 46.5 15.5t20.5 45.5z" />
    <glyph glyph-name="nonbreakingspace" unicode="&#xa0;" horiz-adv-x="105" 
 />
    <glyph glyph-name="notequal" unicode="&#x2260;" 
d="M25 -200h450v1000h-450v-1000z" />
    <glyph glyph-name="partialdiff" unicode="&#x2202;" 
d="M25 -200h450v1000h-450v-1000z" />
    <glyph glyph-name="pi" unicode="&#x3c0;" horiz-adv-x="742" 
d="M371 -16q69 0 130 26t106 71.5t71.5 106.5t26.5 130t-26.5 129.5t-71.5 106t-106 71.5t-130 26t-130 -26t-106 -71.5t-71.5 -106t-26.5 -129.5t26.5 -130t71.5 -106.5t106 -71.5t130 -26zM371 7q-64 0 -120 24.5t-98 66.5t-66.5 98.5t-24.5 121.5q0 64 24.5 120.5
t66.5 98.5t98 66.5t120 24.5t120.5 -24.5t98.5 -66.5t66 -98.5t24 -120.5q0 -65 -24 -121.5t-66 -98.5t-98.5 -66.5t-120.5 -24.5zM235 149h168v16l-52 11v116q13 -2 27.5 -3t27.5 -1q29 0 51 9t37 23.5t22.5 32.5t7.5 37q0 39 -29.5 67.5t-94.5 28.5h-165v-15l50 -11v-284
l-50 -11v-16zM385 310h-19q-12 0 -15 1v154q4 1 16 1h18q68 -2 68 -76q0 -78 -68 -80z" />
    <glyph glyph-name="product" unicode="&#x220f;" 
d="M25 -200h450v1000h-450v-1000z" />
    <glyph glyph-name="radical" unicode="&#x221a;" horiz-adv-x="799" 
d="M239 -219q28 0 54.5 12.5t48.5 35.5q22 22 37 44.5t26.5 51.5t19.5 67.5t16 94.5l44 315h173l-58 -342q-5 -27 7.5 -49t44.5 -22q26 0 60 12t63 30l-2 7q-32 0 -51 2.5t-28.5 7.5t-11.5 13.5t0 21.5l109 656l-4 3l-58 -20q-15 8 -35 13.5t-45 5.5q-68 0 -121 -40
q-10 -8 -18.5 -15.5t-16.5 -16.5q-11 25 -41 44t-81 19q-69 0 -121 -39q-45 -33 -70.5 -86t-37.5 -133l-4 -26l-109 -28l-3 -18h105l-59 -417q-8 -54 -19 -90.5t-27 -62.5q-14 23 -35.5 38.5t-45.5 15.5t-38 -12.5t-14 -32.5t18.5 -36t52.5 -16q58 0 103 47q22 22 37 44.5
t26.5 51.5t19.5 68t16 94l43 308h199l-61 -425q-8 -54 -19 -90.5t-27 -62.5q-15 23 -36 38.5t-45 15.5t-38 -12.5t-14 -31.5q0 -20 18.5 -36.5t52.5 -16.5zM491 443l6 43q10 69 24 113t32.5 69.5t40.5 35t48 9.5q8 0 14 -2t10 -4q-3 -35 5 -58.5t23 -35.5l-29 -170h-174z
M215 443l5 34q10 69 24.5 113t32.5 69.5t40 35t47 9.5q8 0 14 -2t10 -4q-5 -51 12.5 -77.5t45.5 -28.5q-10 -24 -16 -51t-11 -58q0 -1 -1 -10t-3 -19.5l-2 -10.5h-198z" />
    <glyph glyph-name="summation" unicode="&#x2211;" 
d="M25 -200h450v1000h-450v-1000z" />
    <glyph glyph-name="fraction" unicode="&#x2215;" horiz-adv-x="544" 
d="M54 -32l230 329l235 325l-29 21l-230 -329l-235 -326z" />
    <glyph glyph-name="Lslash" unicode="&#x141;" horiz-adv-x="594" 
d="M-10 0h513l49 195l-9 4l-105 -112q-13 -14 -23 -23.5t-21.5 -16.5t-26.5 -10t-37 -3h-138l44 282l138 37l-9 32l-123 -33l40 250l102 18l3 17h-296l-2 -17l96 -18l-44 -277l-80 -22l8 -32l66 18l-40 -254l-102 -18z" />
    <glyph glyph-name="lslash" unicode="&#x142;" horiz-adv-x="270" 
d="M107 -11q26 0 60 12t63 30l-2 7q-32 0 -50.5 2.5t-28 7.5t-11.5 13.5t0 21.5l44 267l89 26l-9 32l-74 -22l59 353l-4 3l-153 -52v-10l65 -31l-49 -287l-73 -21l8 -32l59 17l-45 -266q-5 -27 7.5 -49t44.5 -22z" />
    <glyph glyph-name="Zcaron" unicode="&#x17d;" horiz-adv-x="627" 
d="M349 714h14l149 177l-10 10l-130 -100l-95 100l-14 -10zM-1 0h504l52 179l-10 6l-101 -108q-12 -13 -22.5 -21.5t-21.5 -13t-25.5 -6.5t-35.5 -2h-210l478 593l-2 10h-475l-48 -163l8 -7l91 85q16 15 29.5 25t26.5 16t27.5 8.5t34.5 2.5h175l-477 -594z" />
    <glyph glyph-name="zcaron" unicode="&#x17e;" horiz-adv-x="409" 
d="M238 528h14l149 177l-10 10l-130 -100l-95 100l-14 -10zM293 -11q25 0 43.5 25.5t41.5 93.5l-6 3q-24 -23 -42 -33.5t-43 -5.5l-168 34l302 353l-16 13l-50 -31l-120 19q-9 2 -17 3t-22 1q-32 0 -57.5 -11t-48.5 -31q-20 -17 -31.5 -38t-11.5 -45q0 -26 17 -43t40 -17
q17 0 27 13t10 31t-13.5 34.5t-43.5 23.5v4q6 5 17 8t25 3q29 0 73 -6t116 -21l-305 -361l13 -11l70 47l96 -31q34 -11 59 -17.5t45 -6.5z" />
    <glyph glyph-name="Scaron" unicode="&#x160;" horiz-adv-x="519" 
d="M310 714h14l149 177l-10 10l-130 -100l-95 100l-14 -10zM26 -18h14l46 34q26 -14 60 -22.5t85 -8.5q34 0 72.5 13t71 39.5t53.5 65t21 89.5q0 35 -12 60t-31.5 44t-44.5 33.5l-50 28.5l-47 26t-41 29.5t-29 37.5t-11 50q0 28 10 51t26.5 38.5t37 24t41.5 8.5
q25 0 44 -9.5t34.5 -29t29 -50t28.5 -73.5l16 2l13 192h-14l-46 -34q-22 14 -48 22.5t-58 8.5q-41 0 -77.5 -15.5t-63.5 -43t-43 -64t-16 -78.5q0 -37 12 -63.5t32 -46t45 -34.5t51 -28q24 -12 46.5 -25t40.5 -29t28.5 -36.5t10.5 -48.5q0 -57 -35.5 -91.5t-90.5 -34.5
q-26 0 -50.5 8.5t-46.5 30t-41 58t-34 92.5l-17 -2z" />
    <glyph glyph-name="scaron" unicode="&#x161;" horiz-adv-x="363" 
d="M226 528h14l149 177l-10 10l-130 -100l-95 100l-14 -10zM145 -11q38 0 69 12t53.5 32.5t34.5 46.5t12 55q0 36 -19 62.5t-51 48.5l-57 38q-26 17 -42 38.5t-16 47.5q0 27 15.5 45.5t45.5 18.5q13 0 33 -5q8 -42 25 -63.5t39 -21.5q19 0 30 12t11 32q0 12 -6.5 25.5
t-20 25t-34 18.5t-47.5 7q-35 0 -63.5 -12t-49 -31t-32 -43.5t-11.5 -48.5q0 -38 18.5 -64t56.5 -52l45 -31q34 -23 47.5 -43.5t13.5 -43.5q0 -34 -20 -55t-54 -21q-20 0 -40.5 5t-35.5 14q14 44 4.5 74.5t-41.5 30.5q-20 0 -34.5 -16.5t-14.5 -44.5q0 -38 36.5 -65.5
t99.5 -27.5z" />
    <glyph glyph-name="brokenbar" unicode="&#xa6;" horiz-adv-x="268" 
d="M152 289l-3 206l3 206h-36l3 -206l-3 -206h36zM152 -241l-3 206l3 206h-36l3 -206l-3 -206h36z" />
    <glyph glyph-name="minus" unicode="&#x2212;" horiz-adv-x="505" 
d="M455 284l7 45h-413l-7 -45h413z" />
    <glyph glyph-name="twosuperior" unicode="&#xb2;" 
d="M25 -200h450v1000h-450v-1000z" />
    <glyph glyph-name="threesuperior" unicode="&#xb3;" 
d="M25 -200h450v1000h-450v-1000z" />
    <glyph glyph-name="onesuperior" unicode="&#xb9;" 
d="M25 -200h450v1000h-450v-1000z" />
    <glyph glyph-name="onequarter" unicode="&#xbc;" 
d="M25 -200h450v1000h-450v-1000z" />
    <glyph glyph-name="onehalf" unicode="&#xbd;" 
d="M25 -200h450v1000h-450v-1000z" />
    <glyph glyph-name="threequarters" unicode="&#xbe;" 
d="M25 -200h450v1000h-450v-1000z" />
    <glyph glyph-name="Eth" unicode="&#xd0;" horiz-adv-x="702" 
d="M-9 0h272q99 0 174.5 30.5t127 81.5t77.5 117.5t26 139.5q0 59 -21 108.5t-60.5 85t-97 55t-130.5 19.5h-268l-3 -17l97 -18l-41 -255h-90v-33h85l-44 -279l-102 -18zM192 33l3.5 21l8.5 52l10.5 67.5l10.5 67.5t8 52l3 21h119v33h-114l4.5 26.5l10.5 63.5l12 76.5l10 64
t4 26.5h62q56 0 97 -16.5t67.5 -46t39.5 -71t13 -90.5q0 -68 -18 -131t-54.5 -111t-91.5 -76.5t-128 -28.5h-77z" />
    <glyph glyph-name="multiply" unicode="&#xd7;" horiz-adv-x="505" 
d="M279 301l164 133l-26 32l-160 -131l-108 150l-37 -27l111 -150l-164 -133l26 -32l160 131l108 -150l37 27z" />
    <glyph glyph-name="Yacute" unicode="&#xdd;" horiz-adv-x="638" 
d="M392 704q19 19 40 37l40 34.5l34 30t24 24.5q14 17 15 34t-12 26t-30 3t-30 -22q-9 -11 -19 -28.5l-21.5 -38.5l-24.5 -45t-27 -46zM120 0h302l2 17l-99 18l41 257l231 301l83 27l3 17h-205l-3 -17l69 -24l-196 -278l-109 284l89 18l3 17h-282l-3 -17l84 -23l137 -314
l-39 -248l-105 -18z" />
    <glyph glyph-name="Thorn" unicode="&#xde;" horiz-adv-x="580" 
d="M-11 0h295l3 16l-96 18l17 112q20 -4 45.5 -7t50.5 -3q57 0 102.5 16.5t76.5 44t47.5 63t16.5 73.5q0 31 -12 60.5t-37.5 53t-65.5 37.5t-96 14q-21 0 -40 -2.5t-33 -6.5l18 113l102 18l2 17h-295l-3 -17l97 -18l-90 -568l-102 -18zM273 166q-19 0 -33 1t-28 3l47 296
q11 2 25 4t30 2q31 0 54.5 -11t39.5 -29.5t24.5 -44t8.5 -54.5q0 -36 -11 -66.5t-32 -53t-52.5 -35t-72.5 -12.5z" />
    <glyph glyph-name="eth" unicode="&#xf0;" horiz-adv-x="457" 
d="M163 -11q28 0 54.5 8.5t50 22.5t43.5 32t37 38q18 20 34 48.5t28 61t19 67t7 67.5q0 82 -35 156.5t-103 131.5l72 53l-17 25l-81 -59q-73 53 -174 80l-8 -16q45 -25 78.5 -48t59.5 -49l-84 -62l18 -25q1 1 9.5 7t21.5 16t26 19l22 15.5l9 6.5q42 -49 69 -121
q-60 -1 -112 -29t-91 -72t-61.5 -98.5t-22.5 -109.5q0 -41 11.5 -72t30 -52t42 -31.5t47.5 -10.5zM213 35q-23 0 -40.5 11.5t-30 31t-19 45t-6.5 54.5q0 51 12 95.5t31.5 77t44 51t49.5 18.5q23 0 41 -11.5t30.5 -31.5t19 -46t6.5 -54q0 -51 -12 -95.5t-31.5 -76.5
t-44.5 -50.5t-50 -18.5z" />
    <glyph glyph-name="yacute" unicode="&#xfd;" horiz-adv-x="452" 
d="M264 518q19 19 40 37l40 34.5l34 30t24 24.5q14 17 15 34t-12 26t-30 3t-30 -22q-9 -11 -19 -28.5l-21.5 -38.5l-24.5 -45t-27 -46zM48 -219q28 0 52 14.5t50 36.5q28 24 55 64t54 90t53 107.5l50.5 116l48.5 115l46 105.5l-75 40h-4q-6 -31 -16.5 -73.5l-23.5 -91
t-28.5 -100.5t-32.5 -101h-5q-5 43 -14 90.5t-20.5 90.5t-23.5 77t-21 52q-5 10 -11 19t-13.5 16t-17.5 11t-25 4q-13 0 -26.5 -6.5t-26.5 -16.5t-24.5 -22.5t-20.5 -24.5l5 -7q36 12 53 12q14 0 22 -7t15 -22q7 -16 19.5 -54t26.5 -90t28 -113.5t26 -123.5q-13 -26 -30 -52
t-36 -49t-39.5 -41.5t-41.5 -30.5q2 40 -13 68t-42 28q-23 0 -35 -16t-12 -41q0 -29 20 -51.5t54 -22.5z" />
    <glyph glyph-name="thorn" unicode="&#xfe;" horiz-adv-x="469" 
d="M-68 -209h226l2 13l-78 24l29 169q26 -8 54 -8q51 0 100.5 27.5t88.5 72t63 99.5t24 111q0 41 -10.5 72t-28 51.5t-40 31t-46.5 10.5q-38 0 -69.5 -18t-63.5 -46l-3 3l56 337l-4 2l-153 -52v-10l65 -31l-139 -821l-70 -24zM219 35q-29 0 -52.5 13.5t-41.5 34.5l51 295
q21 14 41 21.5t46 7.5q45 0 69 -37t24 -94q0 -51 -12 -95.5t-31.5 -76.5t-44 -50.5t-49.5 -18.5z" />
    <glyph glyph-name="Delta" unicode="&#x394;" 
d="M25 -200h450v1000h-450v-1000z" />
    <glyph glyph-name="Omega" unicode="&#x3a9;" horiz-adv-x="573" 
d="M496 659q-8 27 -38.5 50t-85.5 23q-70 0 -122 -39q-45 -33 -70.5 -86t-37.5 -133l-4 -26l-109 -28l-3 -18h105l-59 -417q-8 -54 -19 -90.5t-27 -62.5q-14 23 -35.5 38.5t-45.5 15.5t-38 -12.5t-14 -32.5t18.5 -36t52.5 -16q58 0 103 47q22 22 37 44.5t26.5 51.5t19.5 68
t16 94l43 308h199l-60 -425q-8 -54 -19 -90.5t-28 -62.5q-14 23 -35 38.5t-45 15.5t-38 -12.5t-14 -31.5q0 -20 18.5 -36.5t52.5 -16.5q28 0 54.5 12.5t48.5 35.5q22 22 37 44.5t26.5 51.5t19.5 67.5t16 94.5l44 315h112l7 41h-113l6 43q7 52 17.5 89t23 63t28.5 42.5
t36 28.5q15 -35 38 -53.5t49 -18.5t39.5 14t13.5 34q0 22 -21 39t-61 17q-35 0 -66.5 -11.5t-57.5 -31.5q-11 -9 -21 -18.5t-20 -20.5zM452 592q-23 -51 -32 -109l-6 -40h-199l5 34q10 69 24.5 113t32.5 69.5t40 35t48 9.5q8 0 14 -2t10 -4q-5 -51 13.5 -79t49.5 -27z" />
    </font>
</defs>
</svg>
