<?xml version="1.0" standalone="no"?>
<!DOCTYPE svg PUBLIC "-//W3C//DTD SVG 1.1//EN" "http://www.w3.org/Graphics/SVG/1.1/DTD/svg11.dtd" >
<svg>
<metadata>
Created by FontForge 20090622 at Wed Aug 29 06:31:42 2018
 By deploy user
Copyright (c) 2010 by Tomas Brousil. All rights reserved.
</metadata>
<defs>
<font id="MSGloriolaIIStd" horiz-adv-x="558" >
  <font-face 
    font-family="MS Gloriola II Std"
    font-weight="400"
    font-stretch="normal"
    units-per-em="1000"
    panose-1="2 0 0 0 0 0 0 0 0 0"
    ascent="750"
    descent="-250"
    x-height="479"
    cap-height="702"
    bbox="-68 -285 1182 1029"
    underline-thickness="50"
    underline-position="-50"
    unicode-range="U+0020-U+FB04"
  />
<missing-glyph horiz-adv-x="830" 
d="M100 630h630v-630h-630v630zM185 50h460l-230 230zM415 350l230 230h-460zM680 85v460l-230 -230zM150 545v-460l230 230z" />
    <glyph glyph-name="fi" unicode="fi" horiz-adv-x="557" 
d="M101 585q0 173 141 173q42 0 96 -15l-7 -70q-43 13 -75 13q-40 0 -57.5 -26.5t-17.5 -83.5v-97h307v-479h-80v407h-227v-407h-80v407h-80l6 72h74v106zM448 659q23 0 37.5 -14.5t14.5 -37.5t-14.5 -37.5t-37.5 -14.5t-37.5 14.5t-14.5 37.5t14.5 37.5t37.5 14.5z" />
    <glyph glyph-name="fl" unicode="fl" horiz-adv-x="625" 
d="M101 585q0 92 45 132t151 41q77 0 191 -16v-622q0 -57 48 -57q29 0 78 15l7 -69q-59 -19 -107 -19q-45 0 -75.5 27.5t-30.5 93.5v566q-66 9 -109 9q-65 0 -91.5 -24.5t-26.5 -86.5v-96h142l-6 -72h-136v-407h-80v407h-80l6 72h74v106z" />
    <glyph glyph-name=".notdef" horiz-adv-x="830" 
d="M100 630h630v-630h-630v630zM185 50h460l-230 230zM415 350l230 230h-460zM680 85v460l-230 -230zM150 545v-460l230 230z" />
    <glyph glyph-name="NULL" horiz-adv-x="0" 
 />
    <glyph glyph-name="nonmarkingreturn" horiz-adv-x="0" 
 />
    <glyph glyph-name="space" unicode=" " horiz-adv-x="264" 
 />
    <glyph glyph-name="A" unicode="A" horiz-adv-x="639" 
d="M319 626l-128 -377h256zM168 171l-58 -171h-90l240 699l117 6l242 -705h-91l-58 171h-302z" />
    <glyph glyph-name="B" unicode="B" horiz-adv-x="595" 
d="M69 702h273q81 0 132.5 -46.5t51.5 -123.5q0 -104 -90 -175q117 -64 117 -180q0 -91 -71 -139t-196 -48q-87 0 -217 24v688zM155 308v-226q68 -13 135 -13q89 0 133 31.5t44 84.5q0 38 -22.5 70.5t-62.5 52.5h-227zM362 387q77 50 77 138q0 43 -28 71t-77 28h-179v-237
h207z" />
    <glyph glyph-name="C" unicode="C" horiz-adv-x="605" 
d="M376 634q-114 0 -171 -74t-57 -209q0 -137 57.5 -209.5t170.5 -72.5q80 0 171 33l17 -78q-94 -34 -192 -34q-152 0 -232.5 93t-80.5 268q0 174 80.5 267.5t232.5 93.5q98 0 192 -34l-17 -78q-94 34 -171 34z" />
    <glyph glyph-name="D" unicode="D" horiz-adv-x="690" 
d="M313 702q157 0 237.5 -88t80.5 -261q0 -176 -88.5 -269.5t-251.5 -93.5q-117 0 -222 25v687h244zM155 624v-543q65 -12 143 -12q115 0 179.5 72t64.5 211q0 272 -230 272h-157z" />
    <glyph glyph-name="E" unicode="E" horiz-adv-x="548" 
d="M69 702h438l-6 -78h-346v-237h299l-5 -79h-294v-229h352l-6 -79h-432v702z" />
    <glyph glyph-name="F" unicode="F" horiz-adv-x="521" 
d="M155 0h-86v702h438l-6 -78h-346v-255h299l-5 -79h-294v-290z" />
    <glyph glyph-name="G" unicode="G" horiz-adv-x="673" 
d="M386 634q-117 0 -177.5 -73.5t-60.5 -209.5q0 -282 235 -282q71 0 135 23v184h-171l5 79h252v-321q-122 -44 -226 -44q-157 0 -238 92.5t-81 268.5t83 268.5t240 92.5q100 0 194 -34l-16 -78q-91 34 -174 34z" />
    <glyph glyph-name="H" unicode="H" horiz-adv-x="661" 
d="M155 702v-315h350v315h87v-702h-87v308h-350v-308h-86v702h86z" />
    <glyph glyph-name="I" unicode="I" horiz-adv-x="224" 
d="M155 702v-702h-86v702h86z" />
    <glyph glyph-name="J" unicode="J" horiz-adv-x="249" 
d="M180 702v-601q0 -81 -32 -140t-105 -117l-66 52q55 46 86 94t31 112v600h86z" />
    <glyph glyph-name="K" unicode="K" horiz-adv-x="590" 
d="M155 326v-326h-86v702h86v-326l304 329l102 -6l-323 -344l329 -352l-109 -6z" />
    <glyph glyph-name="L" unicode="L" horiz-adv-x="518" 
d="M155 702v-623h332l-6 -79h-412v702h86z" />
    <glyph glyph-name="M" unicode="M" horiz-adv-x="849" 
d="M153 549v-549h-84v699l111 6l245 -601l246 601l109 -6v-699h-84v549l-223 -546l-95 -6z" />
    <glyph glyph-name="N" unicode="N" horiz-adv-x="661" 
d="M154 0h-85v699l83 6l355 -555v552h85v-699l-83 -6l-355 555v-552z" />
    <glyph glyph-name="O" unicode="O" horiz-adv-x="749" 
d="M148 351q0 -282 227 -282q226 0 226 282q0 283 -226 283q-227 0 -227 -283zM59 351q0 361 316 361q315 0 315 -361t-315 -361q-316 0 -316 361z" />
    <glyph glyph-name="P" unicode="P" horiz-adv-x="576" 
d="M155 324q80 -8 101 -8q95 0 147 42t52 119q0 78 -51 112.5t-148 34.5h-101v-300zM155 0h-86v702h194q139 0 210 -57.5t71 -169.5q0 -111 -75.5 -174t-208.5 -63q-41 0 -105 8v-246z" />
    <glyph glyph-name="Q" unicode="Q" horiz-adv-x="749" 
d="M59 351q0 361 316 361q315 0 315 -361q0 -276 -188 -342q19 -62 42.5 -90t64.5 -28q27 0 75 16l10 -73q-59 -19 -107 -19q-58 0 -99.5 40t-68.5 137l-44 -2q-316 0 -316 361zM148 351q0 -282 227 -282q226 0 226 282q0 283 -226 283q-227 0 -227 -283z" />
    <glyph glyph-name="R" unicode="R" horiz-adv-x="605" 
d="M155 0h-86v702h188q134 0 202.5 -55t68.5 -162q0 -140 -125 -197l168 -285l-99 -6l-152 267q-30 -4 -63 -4q-22 0 -102 7v-267zM155 344q72 -8 98 -8q89 0 139 39t50 113t-48.5 106t-141.5 32h-97v-282z" />
    <glyph glyph-name="S" unicode="S" 
d="M86 108q93 -39 191 -39q67 0 106 31t39 87q0 40 -38.5 68.5t-146.5 71.5q-90 36 -136.5 84.5t-46.5 113.5q0 91 62 139t173 48q107 0 199 -39l-16 -78q-91 39 -189 39q-65 0 -102.5 -30t-37.5 -81v-5q1 -36 40.5 -64.5t145.5 -69.5q183 -72 183 -199q0 -93 -63 -144
t-179 -51q-106 0 -200 40z" />
    <glyph glyph-name="T" unicode="T" horiz-adv-x="557" 
d="M6 624l6 78h539l-6 -78h-223v-624h-87v624h-229z" />
    <glyph glyph-name="U" unicode="U" horiz-adv-x="661" 
d="M155 220q0 -151 175 -151t175 151v482h87v-488q0 -109 -66.5 -166.5t-195.5 -57.5q-130 0 -195.5 58t-65.5 166v488h86v-482z" />
    <glyph glyph-name="V" unicode="V" horiz-adv-x="637" 
d="M617 699l-241 -699h-115l-241 699l89 6l210 -627l209 627z" />
    <glyph glyph-name="W" unicode="W" horiz-adv-x="953" 
d="M933 699l-196 -699h-105l-154 564l-154 -564h-108l-196 699l88 6l164 -620l159 614l96 6l160 -620l163 620z" />
    <glyph glyph-name="X" unicode="X" horiz-adv-x="648" 
d="M274 351l-240 348l100 6l190 -283l190 283l100 -6l-240 -348l240 -348l-99 -6l-191 283l-190 -283l-100 6z" />
    <glyph glyph-name="Y" unicode="Y" horiz-adv-x="603" 
d="M258 293l-247 406l100 6l191 -328l189 328l101 -6l-247 -406v-293h-87v293z" />
    <glyph glyph-name="Z" unicode="Z" horiz-adv-x="577" 
d="M46 702h485l6 -78l-389 -545h389l-5 -79h-486l-5 79l388 545h-389z" />
    <glyph glyph-name="AE" unicode="&#xc6;" horiz-adv-x="928" 
d="M-14 0l421 702h480l-6 -78h-346v-237h299l-5 -79h-294v-229h352l-6 -79h-432v171h-263l-100 -171h-100zM449 249v374l-221 -374h221z" />
    <glyph glyph-name="Eng" unicode="&#x14a;" horiz-adv-x="661" 
d="M154 552v-552h-85v699l83 6l355 -555v552h85v-661q0 -80 -31 -137.5t-107 -119.5l-65 52q100 83 114 173z" />
    <glyph glyph-name="Eth" unicode="&#xd0;" horiz-adv-x="690" 
d="M313 702q157 0 237.5 -88t80.5 -261q0 -176 -88.5 -269.5t-251.5 -93.5q-117 0 -222 25v305h-65l5 63h60v319h244zM155 624v-241h148l-5 -63h-143v-239q65 -12 143 -12q115 0 179.5 72t64.5 211q0 272 -230 272h-157z" />
    <glyph glyph-name="IJ" unicode="&#x132;" horiz-adv-x="466" 
d="M155 702v-702h-86v702h86zM396 702v-601q0 -81 -32 -140t-105 -117l-66 52q55 46 86 94t31 112v600h86z" />
    <glyph glyph-name="OE" unicode="&#x152;" horiz-adv-x="1081" 
d="M601 102q-73 -112 -239 -112q-150 0 -226.5 92t-76.5 269q0 178 76.5 269.5t226.5 91.5q166 0 239 -113v103h438l-5 -78h-346v-237h299l-6 -79h-293v-229h351l-5 -79h-433v102zM148 351q0 -282 227 -282q226 0 226 282v15q-7 268 -226 268q-227 0 -227 -283z" />
    <glyph glyph-name="Oslash" unicode="&#xd8;" horiz-adv-x="749" 
d="M676 744l-75 -112q89 -91 89 -281q0 -361 -315 -361q-106 0 -179 42l-68 -101l-55 27l75 112q-89 91 -89 281q0 361 316 361q105 0 178 -42l68 101zM148 351q0 -136 51 -205l306 453q-53 35 -130 35q-227 0 -227 -283zM601 351q0 134 -52 205l-305 -453q51 -34 131 -34
q226 0 226 282z" />
    <glyph glyph-name="Thorn" unicode="&#xde;" horiz-adv-x="576" 
d="M155 202q53 -8 101 -8q96 0 147.5 40.5t51.5 116.5t-52 116.5t-147 40.5q-48 0 -101 -8v-298zM69 702h86v-123q64 8 105 8q133 0 208.5 -63t75.5 -174t-77 -173t-207 -62l-55 3l-50 5v-123h-86v702z" />
    <glyph glyph-name="Aacute" unicode="&#xc1;" horiz-adv-x="639" 
d="M319 626l-128 -377h256zM168 171l-58 -171h-90l240 699l117 6l242 -705h-91l-58 171h-302zM476 893l-137 -133h-88l114 133h111z" />
    <glyph glyph-name="Abreve" unicode="&#x102;" horiz-adv-x="639" 
d="M319 626l-128 -377h256zM168 171l-58 -171h-90l240 699l117 6l242 -705h-91l-58 171h-302zM227 897q8 -49 31 -65t54 -16q71 0 84 81l63 -5q-14 -139 -147 -139q-134 0 -148 139z" />
    <glyph glyph-name="Acircumflex" unicode="&#xc2;" horiz-adv-x="639" 
d="M319 626l-128 -377h256zM168 171l-58 -171h-90l240 699l117 6l242 -705h-91l-58 171h-302zM488 760h-93l-77 80l-77 -80h-92l127 133h86z" />
    <glyph glyph-name="Adieresis" unicode="&#xc4;" horiz-adv-x="639" 
d="M319 626l-128 -377h256zM168 171l-58 -171h-90l240 699l117 6l242 -705h-91l-58 171h-302zM218 863q21 0 35 -14t14 -35t-14 -34.5t-35 -13.5t-34.5 13.5t-13.5 34.5t13.5 35t34.5 14zM418 863q21 0 34.5 -14t13.5 -35t-13.5 -34.5t-34.5 -13.5t-35 13.5t-14 34.5t14 35
t35 14z" />
    <glyph glyph-name="Agrave" unicode="&#xc0;" horiz-adv-x="639" 
d="M319 626l-128 -377h256zM168 171l-58 -171h-90l240 699l117 6l242 -705h-91l-58 171h-302zM270 893l114 -133h-88l-137 133h111z" />
    <glyph glyph-name="Amacron" unicode="&#x100;" horiz-adv-x="639" 
d="M319 626l-128 -377h256zM168 171l-58 -171h-90l240 699l117 6l242 -705h-91l-58 171h-302zM471 833l-5 -63h-299l5 63h299z" />
    <glyph glyph-name="Aogonek" unicode="&#x104;" horiz-adv-x="639" 
d="M168 171l-58 -171h-90l240 699l117 6l242 -705h-17q-80 -43 -80 -105q0 -20 13 -34.5t41 -14.5q13 0 41 7l10 -59q-30 -10 -60 -10q-57 0 -85.5 30t-28.5 74q0 67 72 120l-55 163h-302zM319 626l-128 -377h256z" />
    <glyph glyph-name="Aring" unicode="&#xc5;" horiz-adv-x="639" 
d="M217 792q0 45 28 73t73 28q46 0 74.5 -28t28.5 -73q0 -60 -49 -88l5 1l242 -705h-91l-58 171h-302l-58 -171h-90l240 699l16 1q-27 11 -43 35t-16 57zM319 626l-128 -377h256zM274 792q0 -21 12 -34.5t32 -13.5q21 0 33.5 13.5t12.5 34.5q0 22 -12.5 35.5t-33.5 13.5
q-20 0 -32 -13.5t-12 -35.5z" />
    <glyph glyph-name="Aringacute" unicode="&#x1fa;" horiz-adv-x="639" 
d="M217 792q0 45 28 73t73 28q46 0 74.5 -28t28.5 -73q0 -60 -49 -88l5 1l242 -705h-91l-58 171h-302l-58 -171h-90l240 699l16 1q-27 11 -43 35t-16 57zM319 626l-128 -377h256zM447 1029l-117 -105h-87l93 105h111zM274 792q0 -21 12 -34.5t32 -13.5q21 0 33.5 13.5
t12.5 34.5q0 22 -12.5 35.5t-33.5 13.5q-20 0 -32 -13.5t-12 -35.5z" />
    <glyph glyph-name="Atilde" unicode="&#xc3;" horiz-adv-x="639" 
d="M319 626l-128 -377h256zM168 171l-58 -171h-90l240 699l117 6l242 -705h-91l-58 171h-302zM154 761q6 47 34.5 74t63.5 27q28 0 46 -9t32 -19.5l26.5 -19.5t30.5 -9q28 0 39 46l59 -11q-7 -45 -35 -72t-63 -27q-28 0 -46 8.5t-32 19l-27 19.5t-30 9q-30 0 -41 -46z" />
    <glyph glyph-name="Cacute" unicode="&#x106;" horiz-adv-x="605" 
d="M376 634q-114 0 -171 -74t-57 -209q0 -137 57.5 -209.5t170.5 -72.5q80 0 171 33l17 -78q-94 -34 -192 -34q-152 0 -232.5 93t-80.5 268q0 174 80.5 267.5t232.5 93.5q98 0 192 -34l-17 -78q-94 34 -171 34zM492 893l-137 -133h-88l114 133h111z" />
    <glyph glyph-name="Ccaron" unicode="&#x10c;" horiz-adv-x="605" 
d="M376 634q-114 0 -171 -74t-57 -209q0 -137 57.5 -209.5t170.5 -72.5q80 0 171 33l17 -78q-94 -34 -192 -34q-152 0 -232.5 93t-80.5 268q0 174 80.5 267.5t232.5 93.5q98 0 192 -34l-17 -78q-94 34 -171 34zM198 893h93l77 -81l77 81h92l-126 -133h-86z" />
    <glyph glyph-name="Ccircumflex" unicode="&#x108;" horiz-adv-x="605" 
d="M376 634q-114 0 -171 -74t-57 -209q0 -137 57.5 -209.5t170.5 -72.5q80 0 171 33l17 -78q-94 -34 -192 -34q-152 0 -232.5 93t-80.5 268q0 174 80.5 267.5t232.5 93.5q98 0 192 -34l-17 -78q-94 34 -171 34zM536 760h-93l-77 80l-77 -80h-92l127 133h86z" />
    <glyph glyph-name="Cdotaccent" unicode="&#x10a;" horiz-adv-x="605" 
d="M376 634q-114 0 -171 -74t-57 -209q0 -137 57.5 -209.5t170.5 -72.5q80 0 171 33l17 -78q-94 -34 -192 -34q-152 0 -232.5 93t-80.5 268q0 174 80.5 267.5t232.5 93.5q98 0 192 -34l-17 -78q-94 34 -171 34zM367 870q23 0 37.5 -14.5t14.5 -37.5t-14.5 -37.5t-37.5 -14.5
t-37.5 14.5t-14.5 37.5t14.5 37.5t37.5 14.5z" />
    <glyph glyph-name="Ccedilla" unicode="&#xc7;" horiz-adv-x="605" 
d="M376 634q-114 0 -171 -74t-57 -209q0 -137 57.5 -209.5t170.5 -72.5q80 0 171 33l17 -78q-67 -25 -153 -32l-27 -42l8 1h8q38 0 59 -23t21 -58q0 -37 -29.5 -61.5t-83.5 -24.5q-36 0 -71 11l10 53q29 -11 58 -11q51 0 51 32q0 33 -36 33q-14 0 -32 -6l-32 39l29 56
q-137 7 -211 100t-74 260q0 174 80.5 267.5t232.5 93.5q98 0 192 -34l-17 -78q-94 34 -171 34z" />
    <glyph glyph-name="Dcroat" unicode="&#x110;" horiz-adv-x="690" 
d="M313 702q157 0 237.5 -88t80.5 -261q0 -176 -88.5 -269.5t-251.5 -93.5q-117 0 -222 25v305h-65l5 63h60v319h244zM155 624v-241h148l-5 -63h-143v-239q65 -12 143 -12q115 0 179.5 72t64.5 211q0 272 -230 272h-157z" />
    <glyph glyph-name="Dcaron" unicode="&#x10e;" horiz-adv-x="690" 
d="M313 702q157 0 237.5 -88t80.5 -261q0 -176 -88.5 -269.5t-251.5 -93.5q-117 0 -222 25v687h244zM155 624v-543q65 -12 143 -12q115 0 179.5 72t64.5 211q0 272 -230 272h-157zM121 893h93l77 -81l77 81h92l-126 -133h-86z" />
    <glyph glyph-name="Eacute" unicode="&#xc9;" horiz-adv-x="548" 
d="M69 702h438l-6 -78h-346v-237h299l-5 -79h-294v-229h352l-6 -79h-432v702zM423 893l-137 -133h-88l114 133h111z" />
    <glyph glyph-name="Ebreve" unicode="&#x114;" horiz-adv-x="548" 
d="M69 702h438l-6 -78h-346v-237h299l-5 -79h-294v-229h352l-6 -79h-432v702zM204 897q8 -49 31 -65t54 -16q71 0 84 81l63 -5q-14 -139 -147 -139q-134 0 -148 139z" />
    <glyph glyph-name="Ecaron" unicode="&#x11a;" horiz-adv-x="548" 
d="M69 702h438l-6 -78h-346v-237h299l-5 -79h-294v-229h352l-6 -79h-432v702zM118 893h93l77 -81l77 81h92l-126 -133h-86z" />
    <glyph glyph-name="Ecircumflex" unicode="&#xca;" horiz-adv-x="548" 
d="M69 702h438l-6 -78h-346v-237h299l-5 -79h-294v-229h352l-6 -79h-432v702zM457 760h-93l-77 80l-77 -80h-92l127 133h86z" />
    <glyph glyph-name="Edieresis" unicode="&#xcb;" horiz-adv-x="548" 
d="M69 702h438l-6 -78h-346v-237h299l-5 -79h-294v-229h352l-6 -79h-432v702zM188 863q21 0 35 -14t14 -35t-14 -34.5t-35 -13.5t-34.5 13.5t-13.5 34.5t13.5 35t34.5 14zM388 863q21 0 34.5 -14t13.5 -35t-13.5 -34.5t-34.5 -13.5t-35 13.5t-14 34.5t14 35t35 14z" />
    <glyph glyph-name="Edotaccent" unicode="&#x116;" horiz-adv-x="548" 
d="M69 702h438l-6 -78h-346v-237h299l-5 -79h-294v-229h352l-6 -79h-432v702zM288 870q23 0 37.5 -14.5t14.5 -37.5t-14.5 -37.5t-37.5 -14.5t-37.5 14.5t-14.5 37.5t14.5 37.5t37.5 14.5z" />
    <glyph glyph-name="Egrave" unicode="&#xc8;" horiz-adv-x="548" 
d="M69 702h438l-6 -78h-346v-237h299l-5 -79h-294v-229h352l-6 -79h-432v702zM264 893l114 -133h-88l-137 133h111z" />
    <glyph glyph-name="Emacron" unicode="&#x112;" horiz-adv-x="548" 
d="M69 702h438l-6 -78h-346v-237h299l-5 -79h-294v-229h352l-6 -79h-432v702zM440 833l-5 -63h-299l5 63h299z" />
    <glyph glyph-name="Eogonek" unicode="&#x118;" horiz-adv-x="548" 
d="M69 702h438l-6 -78h-346v-237h299l-5 -79h-294v-229h352l-6 -79q-80 -43 -80 -105q0 -20 13 -34.5t41 -14.5q13 0 41 7l10 -59q-30 -10 -60 -10q-57 0 -85.5 30t-28.5 74q0 61 62 112h-345v702z" />
    <glyph glyph-name="Gbreve" unicode="&#x11e;" horiz-adv-x="673" 
d="M386 634q-117 0 -177.5 -73.5t-60.5 -209.5q0 -282 235 -282q71 0 135 23v184h-171l5 79h252v-321q-122 -44 -226 -44q-157 0 -238 92.5t-81 268.5t83 268.5t240 92.5q100 0 194 -34l-16 -78q-91 34 -174 34zM287 897q8 -49 31 -65t54 -16q71 0 84 81l63 -5
q-14 -139 -147 -139q-134 0 -148 139z" />
    <glyph glyph-name="Gcircumflex" unicode="&#x11c;" horiz-adv-x="673" 
d="M386 634q-117 0 -177.5 -73.5t-60.5 -209.5q0 -282 235 -282q71 0 135 23v184h-171l5 79h252v-321q-122 -44 -226 -44q-157 0 -238 92.5t-81 268.5t83 268.5t240 92.5q100 0 194 -34l-16 -78q-91 34 -174 34zM540 760h-93l-77 80l-77 -80h-92l127 133h86z" />
    <glyph glyph-name="Gcommaaccent" unicode="&#x122;" horiz-adv-x="673" 
d="M386 634q-117 0 -177.5 -73.5t-60.5 -209.5q0 -282 235 -282q71 0 135 23v184h-171l5 79h252v-321q-122 -44 -226 -44q-157 0 -238 92.5t-81 268.5t83 268.5t240 92.5q100 0 194 -34l-16 -78q-91 34 -174 34zM412 -66q22 -30 22 -64q0 -49 -37 -86l-65 4q30 34 30 66
q0 35 -26 71z" />
    <glyph glyph-name="Gdotaccent" unicode="&#x120;" horiz-adv-x="673" 
d="M386 634q-117 0 -177.5 -73.5t-60.5 -209.5q0 -282 235 -282q71 0 135 23v184h-171l5 79h252v-321q-122 -44 -226 -44q-157 0 -238 92.5t-81 268.5t83 268.5t240 92.5q100 0 194 -34l-16 -78q-91 34 -174 34zM371 870q23 0 37.5 -14.5t14.5 -37.5t-14.5 -37.5
t-37.5 -14.5t-37.5 14.5t-14.5 37.5t14.5 37.5t37.5 14.5z" />
    <glyph glyph-name="Hcircumflex" unicode="&#x124;" horiz-adv-x="661" 
d="M155 702v-315h350v315h87v-702h-87v308h-350v-308h-86v702h86zM500 760h-93l-77 80l-77 -80h-92l127 133h86z" />
    <glyph glyph-name="Hbar" unicode="&#x126;" horiz-adv-x="661" 
d="M155 702v-128h350v128h87v-128h65l-6 -63h-59v-511h-87v308h-350v-308h-86v511h-65l5 63h60v128h86zM505 387v124h-350v-124h350z" />
    <glyph glyph-name="Iacute" unicode="&#xcd;" horiz-adv-x="224" 
d="M155 702v-702h-86v702h86zM293 893l-137 -133h-88l114 133h111z" />
    <glyph glyph-name="Ibreve" unicode="&#x12c;" horiz-adv-x="224" 
d="M155 702v-702h-86v702h86zM28 897q8 -49 31 -65t54 -16q71 0 84 81l63 -5q-14 -139 -147 -139q-134 0 -148 139z" />
    <glyph glyph-name="Icircumflex" unicode="&#xce;" horiz-adv-x="224" 
d="M155 702v-702h-86v702h86zM282 760h-93l-77 80l-77 -80h-92l127 133h86z" />
    <glyph glyph-name="Idieresis" unicode="&#xcf;" horiz-adv-x="224" 
d="M155 702v-702h-86v702h86zM12 863q21 0 35 -14t14 -35t-14 -34.5t-35 -13.5t-34.5 13.5t-13.5 34.5t13.5 35t34.5 14zM212 863q21 0 34.5 -14t13.5 -35t-13.5 -34.5t-34.5 -13.5t-35 13.5t-14 34.5t14 35t35 14z" />
    <glyph glyph-name="Idotaccent" unicode="&#x130;" horiz-adv-x="224" 
d="M155 702v-702h-86v702h86zM112 870q23 0 37.5 -14.5t14.5 -37.5t-14.5 -37.5t-37.5 -14.5t-37.5 14.5t-14.5 37.5t14.5 37.5t37.5 14.5z" />
    <glyph glyph-name="Igrave" unicode="&#xcc;" horiz-adv-x="224" 
d="M155 702v-702h-86v702h86zM43 893l114 -133h-88l-137 133h111z" />
    <glyph glyph-name="Imacron" unicode="&#x12a;" horiz-adv-x="224" 
d="M155 702v-702h-86v702h86zM265 833l-5 -63h-299l5 63h299z" />
    <glyph glyph-name="Iogonek" unicode="&#x12e;" horiz-adv-x="224" 
d="M181 -206q-30 -10 -60 -10q-57 0 -85.5 30t-28.5 74q0 61 62 112v702h86v-702h1q-80 -43 -80 -105q0 -20 13 -34.5t41 -14.5q13 0 41 7z" />
    <glyph glyph-name="Itilde" unicode="&#x128;" horiz-adv-x="224" 
d="M155 702v-702h-86v702h86zM-52 761q6 47 34.5 74t63.5 27q28 0 46 -9t32 -19.5l26.5 -19.5t30.5 -9q28 0 39 46l59 -11q-7 -45 -35 -72t-63 -27q-28 0 -46 8.5t-32 19l-27 19.5t-30 9q-30 0 -41 -46z" />
    <glyph glyph-name="Jcircumflex" unicode="&#x134;" horiz-adv-x="249" 
d="M180 702v-601q0 -81 -32 -140t-105 -117l-66 52q55 46 86 94t31 112v600h86zM307 760h-93l-77 80l-77 -80h-92l127 133h86z" />
    <glyph glyph-name="Kcommaaccent" unicode="&#x136;" horiz-adv-x="590" 
d="M155 326v-326h-86v702h86v-326l304 329l102 -6l-323 -344l329 -352l-109 -6zM320 -66q22 -30 22 -64q0 -49 -37 -86l-65 4q30 34 30 66q0 35 -26 71z" />
    <glyph glyph-name="Lacute" unicode="&#x139;" horiz-adv-x="518" 
d="M155 702v-623h332l-6 -79h-412v702h86zM293 893l-137 -133h-88l114 133h111z" />
    <glyph glyph-name="Lcaron" unicode="&#x13d;" horiz-adv-x="518" 
d="M296 768q20 -43 20 -87q0 -57 -34 -113h-66q31 48 31 92q0 47 -25 99zM155 702v-623h332l-6 -79h-412v702h86z" />
    <glyph glyph-name="Lcommaaccent" unicode="&#x13b;" horiz-adv-x="518" 
d="M155 702v-623h332l-6 -79h-412v702h86zM308 -66q22 -30 22 -64q0 -49 -37 -86l-65 4q30 34 30 66q0 35 -26 71z" />
    <glyph glyph-name="Ldot" unicode="&#x13f;" horiz-adv-x="518" 
d="M155 702v-623h332l-6 -79h-412v702h86zM326 412q23 0 37.5 -14.5t14.5 -37.5t-14.5 -37.5t-37.5 -14.5t-37.5 14.5t-14.5 37.5t14.5 37.5t37.5 14.5z" />
    <glyph glyph-name="Lslash" unicode="&#x141;" horiz-adv-x="518" 
d="M155 702v-345l224 87l6 -75l-230 -89v-201h332l-6 -79h-412v246l-68 -26l-6 76l74 28v378h86z" />
    <glyph glyph-name="Nacute" unicode="&#x143;" horiz-adv-x="661" 
d="M154 0h-85v699l83 6l355 -555v552h85v-699l-83 -6l-355 555v-552zM475 893l-137 -133h-88l114 133h111z" />
    <glyph glyph-name="Ncaron" unicode="&#x147;" horiz-adv-x="661" 
d="M154 0h-85v699l83 6l355 -555v552h85v-699l-83 -6l-355 555v-552zM160 893h93l77 -81l77 81h92l-126 -133h-86z" />
    <glyph glyph-name="Ncommaaccent" unicode="&#x145;" horiz-adv-x="661" 
d="M154 0h-85v699l83 6l355 -555v552h85v-699l-83 -6l-355 555v-552zM356 -66q22 -30 22 -64q0 -49 -37 -86l-65 4q30 34 30 66q0 35 -26 71z" />
    <glyph glyph-name="Ntilde" unicode="&#xd1;" horiz-adv-x="661" 
d="M154 0h-85v699l83 6l355 -555v552h85v-699l-83 -6l-355 555v-552zM165 761q6 47 34.5 74t63.5 27q28 0 46 -9t32 -19.5l26.5 -19.5t30.5 -9q28 0 39 46l59 -11q-7 -45 -35 -72t-63 -27q-28 0 -46 8.5t-32 19l-27 19.5t-30 9q-30 0 -41 -46z" />
    <glyph glyph-name="Oacute" unicode="&#xd3;" horiz-adv-x="749" 
d="M148 351q0 -282 227 -282q226 0 226 282q0 283 -226 283q-227 0 -227 -283zM59 351q0 361 316 361q315 0 315 -361t-315 -361q-316 0 -316 361zM519 893l-137 -133h-88l114 133h111z" />
    <glyph glyph-name="Obreve" unicode="&#x14e;" horiz-adv-x="749" 
d="M148 351q0 -282 227 -282q226 0 226 282q0 283 -226 283q-227 0 -227 -283zM59 351q0 361 316 361q315 0 315 -361t-315 -361q-316 0 -316 361zM290 897q8 -49 31 -65t54 -16q71 0 84 81l63 -5q-14 -139 -147 -139q-134 0 -148 139z" />
    <glyph glyph-name="Ocircumflex" unicode="&#xd4;" horiz-adv-x="749" 
d="M148 351q0 -282 227 -282q226 0 226 282q0 283 -226 283q-227 0 -227 -283zM59 351q0 361 316 361q315 0 315 -361t-315 -361q-316 0 -316 361zM544 760h-93l-77 80l-77 -80h-92l127 133h86z" />
    <glyph glyph-name="Odieresis" unicode="&#xd6;" horiz-adv-x="749" 
d="M148 351q0 -282 227 -282q226 0 226 282q0 283 -226 283q-227 0 -227 -283zM59 351q0 361 316 361q315 0 315 -361t-315 -361q-316 0 -316 361zM274 863q21 0 35 -14t14 -35t-14 -34.5t-35 -13.5t-34.5 13.5t-13.5 34.5t13.5 35t34.5 14zM474 863q21 0 34.5 -14t13.5 -35
t-13.5 -34.5t-34.5 -13.5t-35 13.5t-14 34.5t14 35t35 14z" />
    <glyph glyph-name="Ograve" unicode="&#xd2;" horiz-adv-x="749" 
d="M148 351q0 -282 227 -282q226 0 226 282q0 283 -226 283q-227 0 -227 -283zM59 351q0 361 316 361q315 0 315 -361t-315 -361q-316 0 -316 361zM340 893l114 -133h-88l-137 133h111z" />
    <glyph glyph-name="Ohungarumlaut" unicode="&#x150;" horiz-adv-x="749" 
d="M148 351q0 -282 227 -282q226 0 226 282q0 283 -226 283q-227 0 -227 -283zM59 351q0 361 316 361q315 0 315 -361t-315 -361q-316 0 -316 361zM413 893l-129 -133h-73l106 133h96zM603 893l-130 -133h-75l106 133h99z" />
    <glyph glyph-name="Omacron" unicode="&#x14c;" horiz-adv-x="749" 
d="M148 351q0 -282 227 -282q226 0 226 282q0 283 -226 283q-227 0 -227 -283zM59 351q0 361 316 361q315 0 315 -361t-315 -361q-316 0 -316 361zM527 833l-5 -63h-299l5 63h299z" />
    <glyph glyph-name="Otilde" unicode="&#xd5;" horiz-adv-x="749" 
d="M148 351q0 -282 227 -282q226 0 226 282q0 283 -226 283q-227 0 -227 -283zM59 351q0 361 316 361q315 0 315 -361t-315 -361q-316 0 -316 361zM209 761q6 47 34.5 74t63.5 27q28 0 46 -9t32 -19.5l26.5 -19.5t30.5 -9q28 0 39 46l59 -11q-7 -45 -35 -72t-63 -27
q-28 0 -46 8.5t-32 19l-27 19.5t-30 9q-30 0 -41 -46z" />
    <glyph glyph-name="Racute" unicode="&#x154;" horiz-adv-x="605" 
d="M155 0h-86v702h188q134 0 202.5 -55t68.5 -162q0 -140 -125 -197l168 -285l-99 -6l-152 267q-30 -4 -63 -4q-22 0 -102 7v-267zM155 344q72 -8 98 -8q89 0 139 39t50 113t-48.5 106t-141.5 32h-97v-282zM399 893l-137 -133h-88l114 133h111z" />
    <glyph glyph-name="Rcaron" unicode="&#x158;" horiz-adv-x="605" 
d="M155 0h-86v702h188q134 0 202.5 -55t68.5 -162q0 -140 -125 -197l168 -285l-99 -6l-152 267q-30 -4 -63 -4q-22 0 -102 7v-267zM155 344q72 -8 98 -8q89 0 139 39t50 113t-48.5 106t-141.5 32h-97v-282zM110 893h93l77 -81l77 81h92l-126 -133h-86z" />
    <glyph glyph-name="Rcommaaccent" unicode="&#x156;" horiz-adv-x="605" 
d="M155 0h-86v702h188q134 0 202.5 -55t68.5 -162q0 -140 -125 -197l168 -285l-99 -6l-152 267q-30 -4 -63 -4q-22 0 -102 7v-267zM155 344q72 -8 98 -8q89 0 139 39t50 113t-48.5 106t-141.5 32h-97v-282zM313 -66q22 -30 22 -64q0 -49 -37 -86l-65 4q30 34 30 66
q0 35 -26 71z" />
    <glyph glyph-name="Sacute" unicode="&#x15a;" 
d="M86 108q93 -39 191 -39q67 0 106 31t39 87q0 40 -38.5 68.5t-146.5 71.5q-90 36 -136.5 84.5t-46.5 113.5q0 91 62 139t173 48q107 0 199 -39l-16 -78q-91 39 -189 39q-65 0 -102.5 -30t-37.5 -81v-5q1 -36 40.5 -64.5t145.5 -69.5q183 -72 183 -199q0 -93 -63 -144
t-179 -51q-106 0 -200 40zM414 893l-137 -133h-88l114 133h111z" />
    <glyph glyph-name="Scaron" unicode="&#x160;" 
d="M86 108q93 -39 191 -39q67 0 106 31t39 87q0 40 -38.5 68.5t-146.5 71.5q-90 36 -136.5 84.5t-46.5 113.5q0 91 62 139t173 48q107 0 199 -39l-16 -78q-91 39 -189 39q-65 0 -102.5 -30t-37.5 -81v-5q1 -36 40.5 -64.5t145.5 -69.5q183 -72 183 -199q0 -93 -63 -144
t-179 -51q-106 0 -200 40zM109 893h93l77 -81l77 81h92l-126 -133h-86z" />
    <glyph glyph-name="Scedilla" unicode="&#x15e;" 
d="M86 108q93 -39 191 -39q67 0 106 31t39 87q0 40 -38.5 68.5t-146.5 71.5q-90 36 -136.5 84.5t-46.5 113.5q0 91 62 139t173 48q107 0 199 -39l-16 -78q-91 39 -189 39q-65 0 -102.5 -30t-37.5 -81v-5q1 -36 40.5 -64.5t145.5 -69.5q183 -72 183 -199q0 -82 -49 -131.5
t-143 -60.5l-28 -43l8 1h8q38 0 59 -23t21 -58q0 -37 -29.5 -61.5t-83.5 -24.5q-36 0 -71 11l10 53q29 -11 58 -11q51 0 51 32q0 33 -36 33q-14 0 -32 -6l-32 39l29 55q-99 4 -182 40z" />
    <glyph glyph-name="Scircumflex" unicode="&#x15c;" 
d="M86 108q93 -39 191 -39q67 0 106 31t39 87q0 40 -38.5 68.5t-146.5 71.5q-90 36 -136.5 84.5t-46.5 113.5q0 91 62 139t173 48q107 0 199 -39l-16 -78q-91 39 -189 39q-65 0 -102.5 -30t-37.5 -81v-5q1 -36 40.5 -64.5t145.5 -69.5q183 -72 183 -199q0 -93 -63 -144
t-179 -51q-106 0 -200 40zM448 760h-93l-77 80l-77 -80h-92l127 133h86z" />
    <glyph glyph-name="Scommaaccent" unicode="&#x218;" 
d="M86 108q93 -39 191 -39q67 0 106 31t39 87q0 40 -38.5 68.5t-146.5 71.5q-90 36 -136.5 84.5t-46.5 113.5q0 91 62 139t173 48q107 0 199 -39l-16 -78q-91 39 -189 39q-65 0 -102.5 -30t-37.5 -81v-5q1 -36 40.5 -64.5t145.5 -69.5q183 -72 183 -199q0 -93 -63 -144
t-179 -51q-106 0 -200 40zM305 -66q22 -30 22 -64q0 -49 -37 -86l-65 4q30 34 30 66q0 35 -26 71z" />
    <glyph glyph-name="Tbar" unicode="&#x166;" horiz-adv-x="557" 
d="M6 624l6 78h539l-6 -78h-223v-256h108l-5 -63h-103v-305h-87v305h-109l5 63h104v256h-229z" />
    <glyph glyph-name="Tcaron" unicode="&#x164;" horiz-adv-x="557" 
d="M6 624l6 78h539l-6 -78h-223v-624h-87v624h-229zM108 893h93l77 -81l77 81h92l-126 -133h-86z" />
    <glyph glyph-name="Tcommaaccent" unicode="&#x162;" horiz-adv-x="557" 
d="M6 624l6 78h539l-6 -78h-223v-624h-87v624h-229zM309 -66q22 -30 22 -64q0 -49 -37 -86l-65 4q30 34 30 66q0 35 -26 71z" />
    <glyph glyph-name="Uacute" unicode="&#xda;" horiz-adv-x="661" 
d="M155 220q0 -151 175 -151t175 151v482h87v-488q0 -109 -66.5 -166.5t-195.5 -57.5q-130 0 -195.5 58t-65.5 166v488h86v-482zM475 893l-137 -133h-88l114 133h111z" />
    <glyph glyph-name="Ubreve" unicode="&#x16c;" horiz-adv-x="661" 
d="M155 220q0 -151 175 -151t175 151v482h87v-488q0 -109 -66.5 -166.5t-195.5 -57.5q-130 0 -195.5 58t-65.5 166v488h86v-482zM246 897q8 -49 31 -65t54 -16q71 0 84 81l63 -5q-14 -139 -147 -139q-134 0 -148 139z" />
    <glyph glyph-name="Ucircumflex" unicode="&#xdb;" horiz-adv-x="661" 
d="M155 220q0 -151 175 -151t175 151v482h87v-488q0 -109 -66.5 -166.5t-195.5 -57.5q-130 0 -195.5 58t-65.5 166v488h86v-482zM499 760h-93l-77 80l-77 -80h-92l127 133h86z" />
    <glyph glyph-name="Udieresis" unicode="&#xdc;" horiz-adv-x="661" 
d="M155 220q0 -151 175 -151t175 151v482h87v-488q0 -109 -66.5 -166.5t-195.5 -57.5q-130 0 -195.5 58t-65.5 166v488h86v-482zM230 863q21 0 35 -14t14 -35t-14 -34.5t-35 -13.5t-34.5 13.5t-13.5 34.5t13.5 35t34.5 14zM430 863q21 0 34.5 -14t13.5 -35t-13.5 -34.5
t-34.5 -13.5t-35 13.5t-14 34.5t14 35t35 14z" />
    <glyph glyph-name="Ugrave" unicode="&#xd9;" horiz-adv-x="661" 
d="M155 220q0 -151 175 -151t175 151v482h87v-488q0 -109 -66.5 -166.5t-195.5 -57.5q-130 0 -195.5 58t-65.5 166v488h86v-482zM296 893l114 -133h-88l-137 133h111z" />
    <glyph glyph-name="Uhungarumlaut" unicode="&#x170;" horiz-adv-x="661" 
d="M155 220q0 -151 175 -151t175 151v482h87v-488q0 -109 -66.5 -166.5t-195.5 -57.5q-130 0 -195.5 58t-65.5 166v488h86v-482zM369 893l-129 -133h-73l106 133h96zM559 893l-130 -133h-75l106 133h99z" />
    <glyph glyph-name="Umacron" unicode="&#x16a;" horiz-adv-x="661" 
d="M155 220q0 -151 175 -151t175 151v482h87v-488q0 -109 -66.5 -166.5t-195.5 -57.5q-130 0 -195.5 58t-65.5 166v488h86v-482zM482 833l-5 -63h-299l5 63h299z" />
    <glyph glyph-name="Uogonek" unicode="&#x172;" horiz-adv-x="661" 
d="M155 220q0 -151 175 -151t175 151v482h87v-488q0 -176 -166 -214q-80 -43 -80 -105q0 -20 13 -34.5t41 -14.5q13 0 41 7l10 -59q-30 -10 -60 -10q-57 0 -85.5 30t-28.5 74q0 57 51 102q-125 0 -192 56t-67 168v488h86v-482z" />
    <glyph glyph-name="Uring" unicode="&#x16e;" horiz-adv-x="661" 
d="M155 220q0 -151 175 -151t175 151v482h87v-488q0 -109 -66.5 -166.5t-195.5 -57.5q-130 0 -195.5 58t-65.5 166v488h86v-482zM285 792q0 -21 12 -34.5t32 -13.5q21 0 33.5 13.5t12.5 34.5q0 22 -12.5 35.5t-33.5 13.5q-20 0 -32 -13.5t-12 -35.5zM228 792q0 45 28 73
t73 28q46 0 74.5 -28t28.5 -73t-28.5 -72.5t-74.5 -27.5q-45 0 -73 27.5t-28 72.5z" />
    <glyph glyph-name="Utilde" unicode="&#x168;" horiz-adv-x="661" 
d="M155 220q0 -151 175 -151t175 151v482h87v-488q0 -109 -66.5 -166.5t-195.5 -57.5q-130 0 -195.5 58t-65.5 166v488h86v-482zM165 761q6 47 34.5 74t63.5 27q28 0 46 -9t32 -19.5l26.5 -19.5t30.5 -9q28 0 39 46l59 -11q-7 -45 -35 -72t-63 -27q-28 0 -46 8.5t-32 19
l-27 19.5t-30 9q-30 0 -41 -46z" />
    <glyph glyph-name="Wacute" unicode="&#x1e82;" horiz-adv-x="953" 
d="M933 699l-196 -699h-105l-154 564l-154 -564h-108l-196 699l88 6l164 -620l159 614l96 6l160 -620l163 620zM621 893l-137 -133h-88l114 133h111z" />
    <glyph glyph-name="Wcircumflex" unicode="&#x174;" horiz-adv-x="953" 
d="M933 699l-196 -699h-105l-154 564l-154 -564h-108l-196 699l88 6l164 -620l159 614l96 6l160 -620l163 620zM645 760h-93l-77 80l-77 -80h-92l127 133h86z" />
    <glyph glyph-name="Wdieresis" unicode="&#x1e84;" horiz-adv-x="953" 
d="M933 699l-196 -699h-105l-154 564l-154 -564h-108l-196 699l88 6l164 -620l159 614l96 6l160 -620l163 620zM376 863q21 0 35 -14t14 -35t-14 -34.5t-35 -13.5t-34.5 13.5t-13.5 34.5t13.5 35t34.5 14zM576 863q21 0 34.5 -14t13.5 -35t-13.5 -34.5t-34.5 -13.5t-35 13.5
t-14 34.5t14 35t35 14z" />
    <glyph glyph-name="Wgrave" unicode="&#x1e80;" horiz-adv-x="953" 
d="M933 699l-196 -699h-105l-154 564l-154 -564h-108l-196 699l88 6l164 -620l159 614l96 6l160 -620l163 620zM442 893l114 -133h-88l-137 133h111z" />
    <glyph glyph-name="Yacute" unicode="&#xdd;" horiz-adv-x="603" 
d="M258 293l-247 406l100 6l191 -328l189 328l101 -6l-247 -406v-293h-87v293zM446 893l-137 -133h-88l114 133h111z" />
    <glyph glyph-name="Ycircumflex" unicode="&#x176;" horiz-adv-x="603" 
d="M258 293l-247 406l100 6l191 -328l189 328l101 -6l-247 -406v-293h-87v293zM471 760h-93l-77 80l-77 -80h-92l127 133h86z" />
    <glyph glyph-name="Ydieresis" unicode="&#x178;" horiz-adv-x="603" 
d="M258 293l-247 406l100 6l191 -328l189 328l101 -6l-247 -406v-293h-87v293zM201 863q21 0 35 -14t14 -35t-14 -34.5t-35 -13.5t-34.5 13.5t-13.5 34.5t13.5 35t34.5 14zM401 863q21 0 34.5 -14t13.5 -35t-13.5 -34.5t-34.5 -13.5t-35 13.5t-14 34.5t14 35t35 14z" />
    <glyph glyph-name="Ygrave" unicode="&#x1ef2;" horiz-adv-x="603" 
d="M258 293l-247 406l100 6l191 -328l189 328l101 -6l-247 -406v-293h-87v293zM267 893l114 -133h-88l-137 133h111z" />
    <glyph glyph-name="Zacute" unicode="&#x179;" horiz-adv-x="577" 
d="M46 702h485l6 -78l-389 -545h389l-5 -79h-486l-5 79l388 545h-389zM434 893l-137 -133h-88l114 133h111z" />
    <glyph glyph-name="Zcaron" unicode="&#x17d;" horiz-adv-x="577" 
d="M46 702h485l6 -78l-389 -545h389l-5 -79h-486l-5 79l388 545h-389zM119 893h93l77 -81l77 81h92l-126 -133h-86z" />
    <glyph glyph-name="Zdotaccent" unicode="&#x17b;" horiz-adv-x="577" 
d="M46 702h485l6 -78l-389 -545h389l-5 -79h-486l-5 79l388 545h-389zM289 870q23 0 37.5 -14.5t14.5 -37.5t-14.5 -37.5t-37.5 -14.5t-37.5 14.5t-14.5 37.5t14.5 37.5t37.5 14.5z" />
    <glyph glyph-name="AEacute" unicode="&#x1fc;" horiz-adv-x="928" 
d="M-14 0l421 702h480l-6 -78h-346v-237h299l-5 -79h-294v-229h352l-6 -79h-432v171h-263l-100 -171h-100zM449 249v374l-221 -374h221zM662 893l-137 -133h-88l114 133h111z" />
    <glyph glyph-name="Oslashacute" unicode="&#x1fe;" horiz-adv-x="749" 
d="M676 744l-75 -112q89 -91 89 -281q0 -361 -315 -361q-106 0 -179 42l-68 -101l-55 27l75 112q-89 91 -89 281q0 361 316 361q105 0 178 -42l68 101zM148 351q0 -136 51 -205l306 453q-53 35 -130 35q-227 0 -227 -283zM601 351q0 134 -52 205l-305 -453q51 -34 131 -34
q226 0 226 282zM519 893l-137 -133h-88l114 133h111z" />
    <glyph glyph-name="E.alt" horiz-adv-x="605" 
d="M376 634q-104 0 -162 -63t-65 -185h305l-5 -78h-300q9 -118 66.5 -178.5t160.5 -60.5q80 0 171 33l17 -78q-94 -34 -192 -34q-152 0 -232.5 93t-80.5 268q0 174 80.5 267.5t232.5 93.5q98 0 192 -34l-17 -78q-94 34 -171 34z" />
    <glyph glyph-name="I.alt" horiz-adv-x="398" 
d="M349 79l-5 -79h-295l5 79h102v545h-107l5 78h295l-5 -78h-102v-545h107z" />
    <glyph glyph-name="R.alt" horiz-adv-x="614" 
d="M155 0h-86v702h188q134 0 202.5 -55t68.5 -162q0 -146 -134 -201q13 -100 46.5 -157.5t83.5 -57.5q36 0 83 18l11 -75q-60 -22 -111 -22q-74 0 -125 69t-71 204l-54 -3q-22 0 -102 7v-267zM155 344q72 -8 98 -8q89 0 139 39t50 113t-48.5 106t-141.5 32h-97v-282z" />
    <glyph glyph-name="U.alt" horiz-adv-x="661" 
d="M592 0h-74l-10 70q-55 -32 -114 -56t-125 -24q-95 0 -147.5 56t-52.5 155v501h86v-492q0 -70 36 -105.5t94 -35.5q46 0 95.5 16.5t124.5 58.5v558h87v-702z" />
    <glyph glyph-name="Y.alt" horiz-adv-x="646" 
d="M584 260q0 -125 -67 -197.5t-198 -72.5q-100 0 -223 45l16 80q118 -46 207 -46t135.5 49t46.5 140v84q-55 -32 -114 -56t-125 -24q-94 0 -147.5 55t-53.5 156v229h87v-220q0 -71 35.5 -106.5t94.5 -35.5q48 0 96.5 17t123.5 59v286h86v-442z" />
    <glyph glyph-name="Eacute.alt" horiz-adv-x="605" 
d="M376 634q-104 0 -162 -63t-65 -185h305l-5 -78h-300q9 -118 66.5 -178.5t160.5 -60.5q80 0 171 33l17 -78q-94 -34 -192 -34q-152 0 -232.5 93t-80.5 268q0 174 80.5 267.5t232.5 93.5q98 0 192 -34l-17 -78q-94 34 -171 34zM492 893l-137 -133h-88l114 133h111z" />
    <glyph glyph-name="Ebreve.alt" horiz-adv-x="605" 
d="M376 634q-104 0 -162 -63t-65 -185h305l-5 -78h-300q9 -118 66.5 -178.5t160.5 -60.5q80 0 171 33l17 -78q-94 -34 -192 -34q-152 0 -232.5 93t-80.5 268q0 174 80.5 267.5t232.5 93.5q98 0 192 -34l-17 -78q-94 34 -171 34zM275 897q8 -49 31 -65t54 -16q71 0 84 81
l63 -5q-14 -139 -147 -139q-134 0 -148 139z" />
    <glyph glyph-name="Ecaron.alt" horiz-adv-x="605" 
d="M376 634q-104 0 -162 -63t-65 -185h305l-5 -78h-300q9 -118 66.5 -178.5t160.5 -60.5q80 0 171 33l17 -78q-94 -34 -192 -34q-152 0 -232.5 93t-80.5 268q0 174 80.5 267.5t232.5 93.5q98 0 192 -34l-17 -78q-94 34 -171 34zM189 893h93l77 -81l77 81h92l-126 -133h-86z
" />
    <glyph glyph-name="Ecircumflex.alt" horiz-adv-x="605" 
d="M376 634q-104 0 -162 -63t-65 -185h305l-5 -78h-300q9 -118 66.5 -178.5t160.5 -60.5q80 0 171 33l17 -78q-94 -34 -192 -34q-152 0 -232.5 93t-80.5 268q0 174 80.5 267.5t232.5 93.5q98 0 192 -34l-17 -78q-94 34 -171 34zM528 760h-93l-77 80l-77 -80h-92l127 133h86z
" />
    <glyph glyph-name="Edieresis.alt" horiz-adv-x="605" 
d="M376 634q-104 0 -162 -63t-65 -185h305l-5 -78h-300q9 -118 66.5 -178.5t160.5 -60.5q80 0 171 33l17 -78q-94 -34 -192 -34q-152 0 -232.5 93t-80.5 268q0 174 80.5 267.5t232.5 93.5q98 0 192 -34l-17 -78q-94 34 -171 34zM259 863q21 0 35 -14t14 -35t-14 -34.5
t-35 -13.5t-34.5 13.5t-13.5 34.5t13.5 35t34.5 14zM459 863q21 0 34.5 -14t13.5 -35t-13.5 -34.5t-34.5 -13.5t-35 13.5t-14 34.5t14 35t35 14z" />
    <glyph glyph-name="Edotaccent.alt" horiz-adv-x="605" 
d="M376 634q-104 0 -162 -63t-65 -185h305l-5 -78h-300q9 -118 66.5 -178.5t160.5 -60.5q80 0 171 33l17 -78q-94 -34 -192 -34q-152 0 -232.5 93t-80.5 268q0 174 80.5 267.5t232.5 93.5q98 0 192 -34l-17 -78q-94 34 -171 34zM359 870q23 0 37.5 -14.5t14.5 -37.5
t-14.5 -37.5t-37.5 -14.5t-37.5 14.5t-14.5 37.5t14.5 37.5t37.5 14.5z" />
    <glyph glyph-name="Egrave.alt" horiz-adv-x="605" 
d="M376 634q-104 0 -162 -63t-65 -185h305l-5 -78h-300q9 -118 66.5 -178.5t160.5 -60.5q80 0 171 33l17 -78q-94 -34 -192 -34q-152 0 -232.5 93t-80.5 268q0 174 80.5 267.5t232.5 93.5q98 0 192 -34l-17 -78q-94 34 -171 34zM337 893l114 -133h-88l-137 133h111z" />
    <glyph glyph-name="Emacron.alt" horiz-adv-x="605" 
d="M376 634q-104 0 -162 -63t-65 -185h305l-5 -78h-300q9 -118 66.5 -178.5t160.5 -60.5q80 0 171 33l17 -78q-94 -34 -192 -34q-152 0 -232.5 93t-80.5 268q0 174 80.5 267.5t232.5 93.5q98 0 192 -34l-17 -78q-94 34 -171 34zM511 833l-5 -63h-299l5 63h299z" />
    <glyph glyph-name="Eogonek.alt" horiz-adv-x="605" 
d="M376 634q-104 0 -162 -63t-65 -185h305l-5 -78h-300q9 -118 66.5 -178.5t160.5 -60.5q80 0 171 33l17 -78q-95 -47 -95 -127q0 -22 13.5 -36.5t41.5 -14.5q14 0 42 7l9 -59q-30 -10 -59 -10q-57 0 -86 29.5t-29 74.5q0 59 43 107l-72 -5q-152 0 -232.5 93t-80.5 268
q0 174 80.5 267.5t232.5 93.5q98 0 192 -34l-17 -78q-94 34 -171 34z" />
    <glyph glyph-name="Iacute.alt" horiz-adv-x="398" 
d="M349 79l-5 -79h-295l5 79h102v545h-107l5 78h295l-5 -78h-102v-545h107zM344 893l-137 -133h-88l114 133h111z" />
    <glyph glyph-name="Ibreve.alt" horiz-adv-x="398" 
d="M349 79l-5 -79h-295l5 79h102v545h-107l5 78h295l-5 -78h-102v-545h107zM115 897q8 -49 31 -65t54 -16q71 0 84 81l63 -5q-14 -139 -147 -139q-134 0 -148 139z" />
    <glyph glyph-name="Icircumflex.alt" horiz-adv-x="398" 
d="M349 79l-5 -79h-295l5 79h102v545h-107l5 78h295l-5 -78h-102v-545h107zM369 760h-93l-77 80l-77 -80h-92l127 133h86z" />
    <glyph glyph-name="Idieresis.alt" horiz-adv-x="398" 
d="M349 79l-5 -79h-295l5 79h102v545h-107l5 78h295l-5 -78h-102v-545h107zM99 863q21 0 35 -14t14 -35t-14 -34.5t-35 -13.5t-34.5 13.5t-13.5 34.5t13.5 35t34.5 14zM299 863q21 0 34.5 -14t13.5 -35t-13.5 -34.5t-34.5 -13.5t-35 13.5t-14 34.5t14 35t35 14z" />
    <glyph glyph-name="Idotaccent.alt" horiz-adv-x="398" 
d="M349 79l-5 -79h-295l5 79h102v545h-107l5 78h295l-5 -78h-102v-545h107zM199 870q23 0 37.5 -14.5t14.5 -37.5t-14.5 -37.5t-37.5 -14.5t-37.5 14.5t-14.5 37.5t14.5 37.5t37.5 14.5z" />
    <glyph glyph-name="Igrave.alt" horiz-adv-x="398" 
d="M349 79l-5 -79h-295l5 79h102v545h-107l5 78h295l-5 -78h-102v-545h107zM165 893l114 -133h-88l-137 133h111z" />
    <glyph glyph-name="Imacron.alt" horiz-adv-x="398" 
d="M349 79l-5 -79h-295l5 79h102v545h-107l5 78h295l-5 -78h-102v-545h107zM352 833l-5 -63h-299l5 63h299z" />
    <glyph glyph-name="Iogonek.alt" horiz-adv-x="398" 
d="M286 -206q-30 -10 -60 -10q-57 0 -85.5 30t-28.5 74q0 61 62 112h-125l5 79h102v545h-107l5 78h295l-5 -78h-102v-545h107l-5 -79h-83q-80 -43 -80 -105q0 -20 13 -34.5t41 -14.5q13 0 41 7z" />
    <glyph glyph-name="Itilde.alt" horiz-adv-x="398" 
d="M349 79l-5 -79h-295l5 79h102v545h-107l5 78h295l-5 -78h-102v-545h107zM35 761q6 47 34.5 74t63.5 27q28 0 46 -9t32 -19.5l26.5 -19.5t30.5 -9q28 0 39 46l59 -11q-7 -45 -35 -72t-63 -27q-28 0 -46 8.5t-32 19l-27 19.5t-30 9q-30 0 -41 -46z" />
    <glyph glyph-name="Racute.alt" horiz-adv-x="614" 
d="M155 0h-86v702h188q134 0 202.5 -55t68.5 -162q0 -146 -134 -201q13 -100 46.5 -157.5t83.5 -57.5q36 0 83 18l11 -75q-60 -22 -111 -22q-74 0 -125 69t-71 204l-54 -3q-22 0 -102 7v-267zM155 344q72 -8 98 -8q89 0 139 39t50 113t-48.5 106t-141.5 32h-97v-282z
M399 893l-137 -133h-88l114 133h111z" />
    <glyph glyph-name="Rcaron.alt" horiz-adv-x="614" 
d="M155 0h-86v702h188q134 0 202.5 -55t68.5 -162q0 -146 -134 -201q13 -100 46.5 -157.5t83.5 -57.5q36 0 83 18l11 -75q-60 -22 -111 -22q-74 0 -125 69t-71 204l-54 -3q-22 0 -102 7v-267zM155 344q72 -8 98 -8q89 0 139 39t50 113t-48.5 106t-141.5 32h-97v-282z
M110 893h93l77 -81l77 81h92l-126 -133h-86z" />
    <glyph glyph-name="Rcommaaccent.alt" horiz-adv-x="614" 
d="M155 0h-86v702h188q134 0 202.5 -55t68.5 -162q0 -146 -134 -201q13 -100 46.5 -157.5t83.5 -57.5q36 0 83 18l11 -75q-60 -22 -111 -22q-74 0 -125 69t-71 204l-54 -3q-22 0 -102 7v-267zM155 344q72 -8 98 -8q89 0 139 39t50 113t-48.5 106t-141.5 32h-97v-282z
M313 -66q22 -30 22 -64q0 -49 -37 -86l-65 4q30 34 30 66q0 35 -26 71z" />
    <glyph glyph-name="Uacute.alt" horiz-adv-x="661" 
d="M592 0h-74l-10 70q-55 -32 -114 -56t-125 -24q-95 0 -147.5 56t-52.5 155v501h86v-492q0 -70 36 -105.5t94 -35.5q46 0 95.5 16.5t124.5 58.5v558h87v-702zM475 893l-137 -133h-88l114 133h111z" />
    <glyph glyph-name="Ubreve.alt" horiz-adv-x="661" 
d="M592 0h-74l-10 70q-55 -32 -114 -56t-125 -24q-95 0 -147.5 56t-52.5 155v501h86v-492q0 -70 36 -105.5t94 -35.5q46 0 95.5 16.5t124.5 58.5v558h87v-702zM246 897q8 -49 31 -65t54 -16q71 0 84 81l63 -5q-14 -139 -147 -139q-134 0 -148 139z" />
    <glyph glyph-name="Ucircumflex.alt" horiz-adv-x="661" 
d="M592 0h-74l-10 70q-55 -32 -114 -56t-125 -24q-95 0 -147.5 56t-52.5 155v501h86v-492q0 -70 36 -105.5t94 -35.5q46 0 95.5 16.5t124.5 58.5v558h87v-702zM499 760h-93l-77 80l-77 -80h-92l127 133h86z" />
    <glyph glyph-name="Udieresis.alt" horiz-adv-x="661" 
d="M592 0h-74l-10 70q-55 -32 -114 -56t-125 -24q-95 0 -147.5 56t-52.5 155v501h86v-492q0 -70 36 -105.5t94 -35.5q46 0 95.5 16.5t124.5 58.5v558h87v-702zM230 863q21 0 35 -14t14 -35t-14 -34.5t-35 -13.5t-34.5 13.5t-13.5 34.5t13.5 35t34.5 14zM430 863
q21 0 34.5 -14t13.5 -35t-13.5 -34.5t-34.5 -13.5t-35 13.5t-14 34.5t14 35t35 14z" />
    <glyph glyph-name="Ugrave.alt" horiz-adv-x="661" 
d="M592 0h-74l-10 70q-55 -32 -114 -56t-125 -24q-95 0 -147.5 56t-52.5 155v501h86v-492q0 -70 36 -105.5t94 -35.5q46 0 95.5 16.5t124.5 58.5v558h87v-702zM296 893l114 -133h-88l-137 133h111z" />
    <glyph glyph-name="Uhungarumlaut.alt" horiz-adv-x="661" 
d="M592 0h-74l-10 70q-55 -32 -114 -56t-125 -24q-95 0 -147.5 56t-52.5 155v501h86v-492q0 -70 36 -105.5t94 -35.5q46 0 95.5 16.5t124.5 58.5v558h87v-702zM369 893l-129 -133h-73l106 133h96zM559 893l-130 -133h-75l106 133h99z" />
    <glyph glyph-name="Umacron.alt" horiz-adv-x="661" 
d="M592 0h-74l-10 70q-55 -32 -114 -56t-125 -24q-95 0 -147.5 56t-52.5 155v501h86v-492q0 -70 36 -105.5t94 -35.5q46 0 95.5 16.5t124.5 58.5v558h87v-702zM482 833l-5 -63h-299l5 63h299z" />
    <glyph glyph-name="Uogonek.alt" horiz-adv-x="661" 
d="M592 0q-80 -43 -80 -105q0 -20 13 -34.5t41 -14.5q13 0 41 7l10 -59q-30 -10 -60 -10q-57 0 -85.5 30t-28.5 74q0 66 73 121l-8 61q-55 -32 -114 -56t-125 -24q-95 0 -147.5 56t-52.5 155v501h86v-492q0 -70 36 -105.5t94 -35.5q46 0 95.5 16.5t124.5 58.5v558h87v-702z
" />
    <glyph glyph-name="Uring.alt" horiz-adv-x="661" 
d="M592 0h-74l-10 70q-55 -32 -114 -56t-125 -24q-95 0 -147.5 56t-52.5 155v501h86v-492q0 -70 36 -105.5t94 -35.5q46 0 95.5 16.5t124.5 58.5v558h87v-702zM285 792q0 -21 12 -34.5t32 -13.5q21 0 33.5 13.5t12.5 34.5q0 22 -12.5 35.5t-33.5 13.5q-20 0 -32 -13.5
t-12 -35.5zM228 792q0 45 28 73t73 28q46 0 74.5 -28t28.5 -73t-28.5 -72.5t-74.5 -27.5q-45 0 -73 27.5t-28 72.5z" />
    <glyph glyph-name="Utilde.alt" horiz-adv-x="661" 
d="M592 0h-74l-10 70q-55 -32 -114 -56t-125 -24q-95 0 -147.5 56t-52.5 155v501h86v-492q0 -70 36 -105.5t94 -35.5q46 0 95.5 16.5t124.5 58.5v558h87v-702zM165 761q6 47 34.5 74t63.5 27q28 0 46 -9t32 -19.5l26.5 -19.5t30.5 -9q28 0 39 46l59 -11q-7 -45 -35 -72
t-63 -27q-28 0 -46 8.5t-32 19l-27 19.5t-30 9q-30 0 -41 -46z" />
    <glyph glyph-name="Yacute.alt" horiz-adv-x="646" 
d="M584 260q0 -125 -67 -197.5t-198 -72.5q-100 0 -223 45l16 80q118 -46 207 -46t135.5 49t46.5 140v84q-55 -32 -114 -56t-125 -24q-94 0 -147.5 55t-53.5 156v229h87v-220q0 -71 35.5 -106.5t94.5 -35.5q48 0 96.5 17t123.5 59v286h86v-442zM475 893l-137 -133h-88
l114 133h111z" />
    <glyph glyph-name="Ycircumflex.alt" horiz-adv-x="646" 
d="M584 260q0 -125 -67 -197.5t-198 -72.5q-100 0 -223 45l16 80q118 -46 207 -46t135.5 49t46.5 140v84q-55 -32 -114 -56t-125 -24q-94 0 -147.5 55t-53.5 156v229h87v-220q0 -71 35.5 -106.5t94.5 -35.5q48 0 96.5 17t123.5 59v286h86v-442zM499 760h-93l-77 80l-77 -80
h-92l127 133h86z" />
    <glyph glyph-name="Ydieresis.alt" horiz-adv-x="646" 
d="M584 260q0 -125 -67 -197.5t-198 -72.5q-100 0 -223 45l16 80q118 -46 207 -46t135.5 49t46.5 140v84q-55 -32 -114 -56t-125 -24q-94 0 -147.5 55t-53.5 156v229h87v-220q0 -71 35.5 -106.5t94.5 -35.5q48 0 96.5 17t123.5 59v286h86v-442zM231 863q21 0 35 -14t14 -35
t-14 -34.5t-35 -13.5t-34.5 13.5t-13.5 34.5t13.5 35t34.5 14zM431 863q21 0 34.5 -14t13.5 -35t-13.5 -34.5t-34.5 -13.5t-35 13.5t-14 34.5t14 35t35 14z" />
    <glyph glyph-name="Ygrave.alt" horiz-adv-x="646" 
d="M584 260q0 -125 -67 -197.5t-198 -72.5q-100 0 -223 45l16 80q118 -46 207 -46t135.5 49t46.5 140v84q-55 -32 -114 -56t-125 -24q-94 0 -147.5 55t-53.5 156v229h87v-220q0 -71 35.5 -106.5t94.5 -35.5q48 0 96.5 17t123.5 59v286h86v-442zM297 893l114 -133h-88
l-137 133h111z" />
    <glyph glyph-name="a" unicode="a" horiz-adv-x="473" 
d="M324 330q0 87 -75 87q-51 0 -178 -40l-12 70q117 42 199 42q146 0 146 -157v-332h-61l-11 56q-78 -66 -165 -66q-58 0 -93 34t-35 92q0 76 65.5 112.5t219.5 49.5v52zM180 56q40 0 78 18.5t66 47.5v95q-100 -8 -153.5 -30t-53.5 -66q0 -29 16.5 -47t46.5 -18z" />
    <glyph glyph-name="b" unicode="b" horiz-adv-x="542" 
d="M69 753l80 5v-334q108 65 176 65q80 0 124 -64.5t44 -185.5q0 -122 -55 -185.5t-159 -63.5q-95 0 -210 41v722zM149 84q62 -22 131 -22q64 0 98 46.5t34 132.5q0 82 -26 127t-76 45q-38 0 -79.5 -18.5t-81.5 -39.5v-271z" />
    <glyph glyph-name="c" unicode="c" horiz-adv-x="444" 
d="M269 -10q-105 0 -162.5 64t-57.5 185q0 119 57 184.5t163 65.5q65 0 136 -23l-11 -71q-64 22 -118 22q-146 0 -146 -178q0 -177 146 -177q48 0 118 22l11 -71q-69 -23 -136 -23z" />
    <glyph glyph-name="d" unicode="d" horiz-adv-x="542" 
d="M393 753l80 5v-758h-70l-10 55q-108 -65 -175 -65q-81 0 -125 64.5t-44 184.5q0 121 54.5 185.5t148.5 64.5q64 0 141 -33v297zM393 387q-72 30 -131 30q-64 0 -98 -46.5t-34 -132.5q0 -82 26 -127.5t77 -45.5q38 0 79.5 19t80.5 40v263z" />
    <glyph glyph-name="e" unicode="e" horiz-adv-x="496" 
d="M129 211q2 -71 37.5 -111t107.5 -40q53 0 139 27l11 -67q-81 -30 -157 -30q-107 0 -162.5 63t-55.5 186q0 122 55 186t159 64q86 0 135 -56.5t49 -154.5q0 -31 -5 -67h-313zM260 421q-120 0 -130 -147h238v9q0 64 -28.5 101t-79.5 37z" />
    <glyph glyph-name="f" unicode="f" horiz-adv-x="347" 
d="M101 585q0 173 144 173q42 0 98 -15l-7 -70q-43 13 -78 13q-40 0 -58.5 -26t-18.5 -84v-97h147l-6 -72h-141v-407h-80v407h-80l6 72h74v106z" />
    <glyph glyph-name="g" unicode="g" horiz-adv-x="509" 
d="M426 329q0 -73 -45.5 -115.5t-136.5 -42.5l-40 2q-31 -29 -31 -54q0 -36 59 -36h43q102 0 153.5 -35.5t51.5 -98.5q0 -74 -69.5 -119.5t-184.5 -45.5q-86 0 -136.5 34t-50.5 92q0 35 22 70.5t67 62.5q-29 25 -29 66q0 48 43 82q-80 37 -80 138q0 74 45.5 117t136.5 43
q41 0 75 -10h154l-6 -72h-58q17 -34 17 -78zM227 14l-36 3q-73 -41 -73 -101q0 -29 26.5 -49.5t86.5 -20.5q83 0 126.5 28.5t43.5 67.5q0 33 -34.5 52.5t-100.5 19.5h-39zM349 329q0 44 -26 69.5t-79 25.5t-79 -25.5t-26 -69.5q0 -42 26 -68t79 -26t79 26t26 68z" />
    <glyph glyph-name="h" unicode="h" horiz-adv-x="535" 
d="M149 0h-80v753l80 5v-334q113 65 182 65q65 0 100 -41t35 -118v-330h-80v316q0 97 -76 97q-38 0 -80 -18.5t-81 -39.5v-355z" />
    <glyph glyph-name="i" unicode="i" horiz-adv-x="218" 
d="M149 481v-481h-80v476zM109 659q23 0 37.5 -14.5t14.5 -37.5t-14.5 -37.5t-37.5 -14.5t-37.5 14.5t-14.5 37.5t14.5 37.5t37.5 14.5z" />
    <glyph glyph-name="j" unicode="j" horiz-adv-x="250" 
d="M181 481v-454q0 -79 -31.5 -134.5t-98.5 -108.5l-60 48q52 43 81 88.5t29 107.5v448zM141 659q23 0 37.5 -14.5t14.5 -37.5t-14.5 -37.5t-37.5 -14.5t-37.5 14.5t-14.5 37.5t14.5 37.5t37.5 14.5z" />
    <glyph glyph-name="k" unicode="k" horiz-adv-x="483" 
d="M149 224v-224h-80v753l80 5v-485l206 208l97 -5l-225 -224l249 -249l-103 -6z" />
    <glyph glyph-name="l" unicode="l" horiz-adv-x="285" 
d="M149 758v-638q0 -57 47 -57q29 0 78 15l7 -69q-67 -19 -106 -19q-106 0 -106 121v642z" />
    <glyph glyph-name="m" unicode="m" horiz-adv-x="813" 
d="M427 425q53 30 98 47t93 17q61 0 93.5 -41.5t32.5 -117.5v-330h-80v316q0 97 -70 97q-64 0 -151 -52q3 -15 3 -46v-315h-80v316q0 97 -70 97q-34 0 -72.5 -18.5t-74.5 -39.5v-355h-80v476l80 5v-57q104 65 171 65q78 0 107 -64z" />
    <glyph glyph-name="n" unicode="n" horiz-adv-x="535" 
d="M149 0h-80v476l80 5v-57q113 65 182 65q65 0 100 -41t35 -118v-330h-80v316q0 97 -76 97q-38 0 -80 -18.5t-81 -39.5v-355z" />
    <glyph glyph-name="o" unicode="o" horiz-adv-x="547" 
d="M130 239q0 -177 144 -177q64 0 103.5 41.5t39.5 135.5t-39.5 136t-103.5 42q-65 0 -104.5 -42t-39.5 -136zM49 239q0 128 61 189t164 61q102 0 163 -61t61 -189t-61 -188.5t-163 -60.5q-103 0 -164 60.5t-61 188.5z" />
    <glyph glyph-name="p" unicode="p" horiz-adv-x="542" 
d="M149 -203l-80 -6v685l80 5v-57q108 65 176 65q80 0 124 -64.5t44 -185.5q0 -119 -52.5 -184t-149.5 -65q-65 0 -142 33v-226zM149 92q72 -30 131 -30q64 0 98 46.5t34 132.5q0 82 -26 127t-76 45q-38 0 -79.5 -18.5t-81.5 -39.5v-263z" />
    <glyph glyph-name="q" unicode="q" horiz-adv-x="542" 
d="M473 -203l-80 -6v264q-108 -65 -175 -65q-81 0 -125 64.5t-44 184.5q0 121 55 185.5t159 64.5q95 0 210 -41v-651zM393 395q-62 22 -131 22q-64 0 -98 -46.5t-34 -132.5q0 -82 26 -127.5t77 -45.5q38 0 79.5 19t80.5 40v271z" />
    <glyph glyph-name="r" unicode="r" horiz-adv-x="368" 
d="M348 398q-44 12 -67 12q-27 0 -51.5 -19t-80.5 -90v-301h-80v476l80 5v-91q39 53 71 76t67 23q24 0 71 -11z" />
    <glyph glyph-name="s" unicode="s" horiz-adv-x="429" 
d="M76 88q65 -28 137 -28q87 0 87 70q0 27 -27.5 45t-94.5 44q-122 46 -122 138q0 67 46 99.5t120 32.5q73 0 143 -29l-12 -69q-65 28 -132 28q-84 0 -84 -61q0 -29 25 -46t98 -44q121 -46 121 -139q0 -66 -45.5 -102.5t-128.5 -36.5q-74 0 -142 29z" />
    <glyph glyph-name="t" unicode="t" horiz-adv-x="377" 
d="M101 407h-80l6 72h74v149l80 5v-154h147l-6 -72h-141v-237q0 -108 80 -108q33 0 77 11l7 -67q-53 -16 -98 -16q-72 0 -109 44.5t-37 128.5v244z" />
    <glyph glyph-name="u" unicode="u" horiz-adv-x="535" 
d="M386 476l80 5v-481h-70l-10 54q-113 -64 -182 -64q-65 0 -100 41t-35 117v328l80 5v-318q0 -98 76 -98q38 0 80 19t81 40v352z" />
    <glyph glyph-name="v" unicode="v" horiz-adv-x="481" 
d="M98 481l142 -399l142 399l87 -5l-177 -476h-103l-178 476z" />
    <glyph glyph-name="w" unicode="w" horiz-adv-x="748" 
d="M96 481l117 -404l113 399l94 5l115 -404l117 404l84 -5l-150 -476h-96l-116 380l-116 -380h-97l-150 476z" />
    <glyph glyph-name="x" unicode="x" horiz-adv-x="464" 
d="M357 481l92 -5l-167 -236l167 -237l-94 -6l-124 183l-124 -183l-92 6l167 236l-167 237l94 5l124 -182z" />
    <glyph glyph-name="y" unicode="y" horiz-adv-x="481" 
d="M240 82l142 399l87 -5l-255 -685l-86 6l78 203h-17l-178 476l87 5z" />
    <glyph glyph-name="z" unicode="z" horiz-adv-x="445" 
d="M410 72l-6 -72h-365l-5 67l272 340h-257l6 72h350l5 -67l-272 -340h272z" />
    <glyph glyph-name="ae" unicode="&#xe6;" horiz-adv-x="771" 
d="M542 -10q-130 0 -180 87q-103 -87 -195 -87q-58 0 -93 34t-35 92q0 78 69.5 115t215.5 47v52q0 87 -75 87q-51 0 -178 -40l-12 70q114 42 195 42q97 0 125 -77q50 77 159 77q85 0 134 -56t49 -155q0 -31 -5 -67h-313q4 -151 146 -151q53 0 139 27l11 -67
q-81 -30 -157 -30zM534 421q-120 0 -130 -147h238v13q0 61 -28.5 97.5t-79.5 36.5zM180 56q41 0 83.5 21.5t72.5 58.5q-9 26 -12 81q-109 -10 -158 -31.5t-49 -64.5q0 -32 17 -48.5t46 -16.5z" />
    <glyph glyph-name="eng" unicode="&#x14b;" horiz-adv-x="535" 
d="M149 0h-80v476l80 5v-57q113 65 182 65q65 0 100 -41t35 -118v-303q0 -79 -31.5 -134.5t-98.5 -108.5l-60 48q52 43 81 88.5t29 107.5v288q0 97 -76 97q-38 0 -80 -18.5t-81 -39.5v-355z" />
    <glyph glyph-name="eth" unicode="&#xf0;" horiz-adv-x="557" 
d="M269 649q-54 63 -117 109h106q41 -31 81 -79l145 64l19 -59l-126 -55q121 -178 121 -371q0 -268 -224 -268q-225 0 -225 249q0 121 54.5 185.5t148.5 64.5q59 0 126 -27q-26 69 -70 136l-153 -67l-19 59zM262 417q-64 0 -98 -46.5t-34 -131.5q0 -177 144 -177
q70 0 107 48.5t37 143.5q-1 59 -17 131q-85 32 -139 32z" />
    <glyph glyph-name="germandbls" unicode="&#xdf;" horiz-adv-x="565" 
d="M268 388l67 122q22 42 22 83q0 39 -24 66t-72 27q-53 0 -82.5 -32t-29.5 -96v-558h-80v558q0 200 192 200q82 0 128.5 -43.5t46.5 -116.5q0 -57 -34 -120l-47 -87q73 -20 116.5 -77.5t43.5 -129.5q0 -84 -53 -139t-143 -55q-49 0 -97 18l11 69q42 -15 75 -15
q54 0 89 35.5t35 92.5t-40 100t-106 53z" />
    <glyph glyph-name="ij" unicode="&#x133;" horiz-adv-x="460" 
d="M149 481v-481h-80v476zM109 659q23 0 37.5 -14.5t14.5 -37.5t-14.5 -37.5t-37.5 -14.5t-37.5 14.5t-14.5 37.5t14.5 37.5t37.5 14.5zM391 481v-454q0 -79 -31.5 -134.5t-98.5 -108.5l-60 48q52 43 81 88.5t29 107.5v448zM351 659q23 0 37.5 -14.5t14.5 -37.5t-14.5 -37.5
t-37.5 -14.5t-37.5 14.5t-14.5 37.5t14.5 37.5t37.5 14.5z" />
    <glyph glyph-name="kgreenlandic" unicode="&#x138;" horiz-adv-x="483" 
d="M149 224v-224h-80v476l80 5v-208l206 208l97 -5l-225 -224l249 -249l-103 -6z" />
    <glyph glyph-name="oe" unicode="&#x153;" horiz-adv-x="865" 
d="M497 211q7 -148 145 -148q52 0 140 27l10 -70q-81 -30 -157 -30q-130 0 -178 100q-51 -100 -183 -100q-105 0 -165 63.5t-60 185.5q0 120 59.5 185t165.5 65q131 0 182 -100q49 100 175 100q85 0 135 -58t50 -156q0 -30 -5 -64h-314zM130 239q0 -177 144 -177
q64 0 103.5 41.5t39.5 135.5t-39.5 136t-103.5 42q-65 0 -104.5 -42t-39.5 -136zM628 421q-120 0 -130 -147h238v9q0 64 -28 101t-80 37z" />
    <glyph glyph-name="oslash" unicode="&#xf8;" horiz-adv-x="547" 
d="M482 522l-54 -86q70 -64 70 -197q0 -128 -61 -188.5t-163 -60.5q-62 0 -112 22l-49 -78l-48 23l53 85q-69 65 -69 197q0 128 61 189t164 61q62 0 110 -23l50 79zM417 239q0 82 -33 127l-181 -289q30 -15 71 -15q64 0 103.5 41.5t39.5 135.5zM130 239q0 -83 32 -127
l182 289q-29 16 -70 16q-65 0 -104.5 -42t-39.5 -136z" />
    <glyph glyph-name="thorn" unicode="&#xfe;" horiz-adv-x="542" 
d="M149 -203l-80 -6v962l80 5v-334q108 65 176 65q80 0 124 -64.5t44 -185.5q0 -119 -52.5 -184t-149.5 -65q-65 0 -142 33v-226zM149 92q72 -30 131 -30q64 0 98 46.5t34 132.5q0 82 -26 127t-76 45q-38 0 -79.5 -18.5t-81.5 -39.5v-263z" />
    <glyph glyph-name="aacute" unicode="&#xe1;" horiz-adv-x="473" 
d="M324 330q0 87 -75 87q-51 0 -178 -40l-12 70q117 42 199 42q146 0 146 -157v-332h-61l-11 56q-78 -66 -165 -66q-58 0 -93 34t-35 92q0 76 65.5 112.5t219.5 49.5v52zM180 56q40 0 78 18.5t66 47.5v95q-100 -8 -153.5 -30t-53.5 -66q0 -29 16.5 -47t46.5 -18zM347 705
l-102 -161h-72l84 161h90z" />
    <glyph glyph-name="abreve" unicode="&#x103;" horiz-adv-x="473" 
d="M324 330q0 87 -75 87q-51 0 -178 -40l-12 70q117 42 199 42q146 0 146 -157v-332h-61l-11 56q-78 -66 -165 -66q-58 0 -93 34t-35 92q0 76 65.5 112.5t219.5 49.5v52zM180 56q40 0 78 18.5t66 47.5v95q-100 -8 -153.5 -30t-53.5 -66q0 -29 16.5 -47t46.5 -18zM153 706
q3 -101 84 -101q38 0 60 26.5t22 74.5l63 -6q0 -74 -38.5 -116t-106.5 -42q-69 0 -108 42t-39 116z" />
    <glyph glyph-name="acircumflex" unicode="&#xe2;" horiz-adv-x="473" 
d="M324 330q0 87 -75 87q-51 0 -178 -40l-12 70q117 42 199 42q146 0 146 -157v-332h-61l-11 56q-78 -66 -165 -66q-58 0 -93 34t-35 92q0 76 65.5 112.5t219.5 49.5v52zM180 56q40 0 78 18.5t66 47.5v95q-100 -8 -153.5 -30t-53.5 -66q0 -29 16.5 -47t46.5 -18zM384 544
h-80l-69 105l-69 -105h-79l109 161h79z" />
    <glyph glyph-name="adieresis" unicode="&#xe4;" horiz-adv-x="473" 
d="M324 330q0 87 -75 87q-51 0 -178 -40l-12 70q117 42 199 42q146 0 146 -157v-332h-61l-11 56q-78 -66 -165 -66q-58 0 -93 34t-35 92q0 76 65.5 112.5t219.5 49.5v52zM180 56q40 0 78 18.5t66 47.5v95q-100 -8 -153.5 -30t-53.5 -66q0 -29 16.5 -47t46.5 -18zM138 655
q21 0 35 -13.5t14 -34.5t-14 -35t-35 -14t-34.5 14t-13.5 35t13.5 34.5t34.5 13.5zM338 655q21 0 34.5 -13.5t13.5 -34.5t-13.5 -35t-34.5 -14t-35 14t-14 35t14 34.5t35 13.5z" />
    <glyph glyph-name="agrave" unicode="&#xe0;" horiz-adv-x="473" 
d="M324 330q0 87 -75 87q-51 0 -178 -40l-12 70q117 42 199 42q146 0 146 -157v-332h-61l-11 56q-78 -66 -165 -66q-58 0 -93 34t-35 92q0 76 65.5 112.5t219.5 49.5v52zM180 56q40 0 78 18.5t66 47.5v95q-100 -8 -153.5 -30t-53.5 -66q0 -29 16.5 -47t46.5 -18zM218 705
l84 -161h-72l-102 161h90z" />
    <glyph glyph-name="amacron" unicode="&#x101;" horiz-adv-x="473" 
d="M324 330q0 87 -75 87q-51 0 -178 -40l-12 70q117 42 199 42q146 0 146 -157v-332h-61l-11 56q-78 -66 -165 -66q-58 0 -93 34t-35 92q0 76 65.5 112.5t219.5 49.5v52zM180 56q40 0 78 18.5t66 47.5v95q-100 -8 -153.5 -30t-53.5 -66q0 -29 16.5 -47t46.5 -18zM379 634
l-5 -63h-294l5 63h294z" />
    <glyph glyph-name="aogonek" unicode="&#x105;" horiz-adv-x="473" 
d="M429 -206q-30 -10 -60 -10q-57 0 -85.5 30t-28.5 74q0 74 84 128l-7 40q-78 -66 -165 -66q-58 0 -93 34t-35 92q0 76 65.5 112.5t219.5 49.5v52q0 87 -75 87q-51 0 -178 -40l-12 70q117 42 199 42q146 0 146 -157v-332q-80 -43 -80 -105q0 -20 13 -34.5t41 -14.5
q13 0 41 7zM180 56q40 0 78 18.5t66 47.5v95q-100 -8 -153.5 -30t-53.5 -66q0 -29 16.5 -47t46.5 -18z" />
    <glyph glyph-name="aring" unicode="&#xe5;" horiz-adv-x="473" 
d="M324 330q0 87 -75 87q-51 0 -178 -40l-12 70q117 42 199 42q146 0 146 -157v-332h-61l-11 56q-78 -66 -165 -66q-58 0 -93 34t-35 92q0 76 65.5 112.5t219.5 49.5v52zM180 56q40 0 78 18.5t66 47.5v95q-100 -8 -153.5 -30t-53.5 -66q0 -29 16.5 -47t46.5 -18zM193 622
q0 -21 12 -34.5t32 -13.5q21 0 33.5 13.5t12.5 34.5q0 22 -12.5 35.5t-33.5 13.5q-20 0 -32 -13.5t-12 -35.5zM136 622q0 45 28 73t73 28q46 0 74.5 -28t28.5 -73t-28.5 -72.5t-74.5 -27.5q-45 0 -73 27.5t-28 72.5z" />
    <glyph glyph-name="aringacute" unicode="&#x1fb;" horiz-adv-x="473" 
d="M362 859l-117 -105h-88l94 105h111zM324 330q0 87 -75 87q-51 0 -178 -40l-12 70q117 42 199 42q146 0 146 -157v-332h-61l-11 56q-78 -66 -165 -66q-58 0 -93 34t-35 92q0 76 65.5 112.5t219.5 49.5v52zM180 56q40 0 78 18.5t66 47.5v95q-100 -8 -153.5 -30t-53.5 -66
q0 -29 16.5 -47t46.5 -18zM188 622q0 -21 12 -34.5t32 -13.5q21 0 33.5 13.5t12.5 34.5q0 22 -12.5 35.5t-33.5 13.5q-20 0 -32 -13.5t-12 -35.5zM131 622q0 45 28 73t73 28q46 0 74.5 -28t28.5 -73t-28.5 -72.5t-74.5 -27.5q-45 0 -73 27.5t-28 72.5z" />
    <glyph glyph-name="atilde" unicode="&#xe3;" horiz-adv-x="473" 
d="M324 330q0 87 -75 87q-51 0 -178 -40l-12 70q117 42 199 42q146 0 146 -157v-332h-61l-11 56q-78 -66 -165 -66q-58 0 -93 34t-35 92q0 76 65.5 112.5t219.5 49.5v52zM180 56q40 0 78 18.5t66 47.5v95q-100 -8 -153.5 -30t-53.5 -66q0 -29 16.5 -47t46.5 -18zM77 575
q6 47 34.5 74t63.5 27q22 0 38.5 -9t30 -19.5l25 -19t23.5 -8.5q29 0 40 46l58 -12q-6 -45 -34 -72t-63 -27q-22 0 -39 8.5t-30.5 19l-25 19.5t-23.5 9q-30 0 -41 -46z" />
    <glyph glyph-name="ccedilla" unicode="&#xe7;" horiz-adv-x="444" 
d="M405 13q-51 -18 -107 -22l-27 -41l8 1h8q38 0 59 -23t21 -58q0 -37 -29.5 -61.5t-83.5 -24.5q-36 0 -71 11l10 53q29 -11 58 -11q51 0 51 32q0 33 -36 33q-14 0 -32 -6l-32 39l30 57q-91 12 -137 75.5t-46 171.5q0 119 57 184.5t163 65.5q65 0 136 -23l-11 -71
q-64 22 -118 22q-146 0 -146 -178q0 -177 146 -177q48 0 118 22z" />
    <glyph glyph-name="cacute" unicode="&#x107;" horiz-adv-x="444" 
d="M269 -10q-105 0 -162.5 64t-57.5 185q0 119 57 184.5t163 65.5q65 0 136 -23l-11 -71q-64 22 -118 22q-146 0 -146 -178q0 -177 146 -177q48 0 118 22l11 -71q-69 -23 -136 -23zM360 705l-102 -161h-72l84 161h90z" />
    <glyph glyph-name="ccaron" unicode="&#x10d;" horiz-adv-x="444" 
d="M269 -10q-105 0 -162.5 64t-57.5 185q0 119 57 184.5t163 65.5q65 0 136 -23l-11 -71q-64 22 -118 22q-146 0 -146 -178q0 -177 146 -177q48 0 118 22l11 -71q-69 -23 -136 -23zM114 705h80l69 -105l69 105h79l-109 -161h-79z" />
    <glyph glyph-name="ccircumflex" unicode="&#x109;" horiz-adv-x="444" 
d="M269 -10q-105 0 -162.5 64t-57.5 185q0 119 57 184.5t163 65.5q65 0 136 -23l-11 -71q-64 22 -118 22q-146 0 -146 -178q0 -177 146 -177q48 0 118 22l11 -71q-69 -23 -136 -23zM410 544h-80l-69 105l-69 -105h-79l109 161h79z" />
    <glyph glyph-name="cdotaccent" unicode="&#x10b;" horiz-adv-x="444" 
d="M269 -10q-105 0 -162.5 64t-57.5 185q0 119 57 184.5t163 65.5q65 0 136 -23l-11 -71q-64 22 -118 22q-146 0 -146 -178q0 -177 146 -177q48 0 118 22l11 -71q-69 -23 -136 -23zM263 659q23 0 37.5 -14.5t14.5 -37.5t-14.5 -37.5t-37.5 -14.5t-37.5 14.5t-14.5 37.5
t14.5 37.5t37.5 14.5z" />
    <glyph glyph-name="dcroat" unicode="&#x111;" horiz-adv-x="542" 
d="M393 571h-154l5 63h149v119l80 5v-124h65l-5 -63h-60v-571h-70l-10 55q-108 -65 -175 -65q-81 0 -125 64.5t-44 184.5q0 121 54.5 185.5t148.5 64.5q64 0 141 -33v115zM393 387q-72 30 -131 30q-64 0 -98 -46.5t-34 -132.5q0 -82 26 -127.5t77 -45.5q38 0 79.5 19
t80.5 40v263z" />
    <glyph glyph-name="dcaron" unicode="&#x10f;" horiz-adv-x="609" 
d="M589 768q20 -43 20 -87q0 -57 -34 -113h-66q31 48 31 92q0 47 -25 99zM393 753l80 5v-758h-70l-10 55q-108 -65 -175 -65q-81 0 -125 64.5t-44 184.5q0 121 54.5 185.5t148.5 64.5q64 0 141 -33v297zM393 387q-72 30 -131 30q-64 0 -98 -46.5t-34 -132.5q0 -82 26 -127.5
t77 -45.5q38 0 79.5 19t80.5 40v263z" />
    <glyph glyph-name="eacute" unicode="&#xe9;" horiz-adv-x="496" 
d="M129 211q2 -71 37.5 -111t107.5 -40q53 0 139 27l11 -67q-81 -30 -157 -30q-107 0 -162.5 63t-55.5 186q0 122 55 186t159 64q86 0 135 -56.5t49 -154.5q0 -31 -5 -67h-313zM260 421q-120 0 -130 -147h238v9q0 64 -28.5 101t-79.5 37zM367 705l-102 -161h-72l84 161h90z
" />
    <glyph glyph-name="ebreve" unicode="&#x115;" horiz-adv-x="496" 
d="M129 211q2 -71 37.5 -111t107.5 -40q53 0 139 27l11 -67q-81 -30 -157 -30q-107 0 -162.5 63t-55.5 186q0 122 55 186t159 64q86 0 135 -56.5t49 -154.5q0 -31 -5 -67h-313zM260 421q-120 0 -130 -147h238v9q0 64 -28.5 101t-79.5 37zM174 706q3 -101 84 -101
q38 0 60 26.5t22 74.5l63 -6q0 -74 -38.5 -116t-106.5 -42q-69 0 -108 42t-39 116z" />
    <glyph glyph-name="ecaron" unicode="&#x11b;" horiz-adv-x="496" 
d="M129 211q2 -71 37.5 -111t107.5 -40q53 0 139 27l11 -67q-81 -30 -157 -30q-107 0 -162.5 63t-55.5 186q0 122 55 186t159 64q86 0 135 -56.5t49 -154.5q0 -31 -5 -67h-313zM260 421q-120 0 -130 -147h238v9q0 64 -28.5 101t-79.5 37zM109 705h80l69 -105l69 105h79
l-109 -161h-79z" />
    <glyph glyph-name="ecircumflex" unicode="&#xea;" horiz-adv-x="496" 
d="M129 211q2 -71 37.5 -111t107.5 -40q53 0 139 27l11 -67q-81 -30 -157 -30q-107 0 -162.5 63t-55.5 186q0 122 55 186t159 64q86 0 135 -56.5t49 -154.5q0 -31 -5 -67h-313zM260 421q-120 0 -130 -147h238v9q0 64 -28.5 101t-79.5 37zM406 544h-80l-69 105l-69 -105h-79
l109 161h79z" />
    <glyph glyph-name="edieresis" unicode="&#xeb;" horiz-adv-x="496" 
d="M129 211q2 -71 37.5 -111t107.5 -40q53 0 139 27l11 -67q-81 -30 -157 -30q-107 0 -162.5 63t-55.5 186q0 122 55 186t159 64q86 0 135 -56.5t49 -154.5q0 -31 -5 -67h-313zM260 421q-120 0 -130 -147h238v9q0 64 -28.5 101t-79.5 37zM159 655q21 0 35 -13.5t14 -34.5
t-14 -35t-35 -14t-34.5 14t-13.5 35t13.5 34.5t34.5 13.5zM359 655q21 0 34.5 -13.5t13.5 -34.5t-13.5 -35t-34.5 -14t-35 14t-14 35t14 34.5t35 13.5z" />
    <glyph glyph-name="edotaccent" unicode="&#x117;" horiz-adv-x="496" 
d="M129 211q2 -71 37.5 -111t107.5 -40q53 0 139 27l11 -67q-81 -30 -157 -30q-107 0 -162.5 63t-55.5 186q0 122 55 186t159 64q86 0 135 -56.5t49 -154.5q0 -31 -5 -67h-313zM260 421q-120 0 -130 -147h238v9q0 64 -28.5 101t-79.5 37zM258 659q23 0 37.5 -14.5
t14.5 -37.5t-14.5 -37.5t-37.5 -14.5t-37.5 14.5t-14.5 37.5t14.5 37.5t37.5 14.5z" />
    <glyph glyph-name="egrave" unicode="&#xe8;" horiz-adv-x="496" 
d="M129 211q2 -71 37.5 -111t107.5 -40q53 0 139 27l11 -67q-81 -30 -157 -30q-107 0 -162.5 63t-55.5 186q0 122 55 186t159 64q86 0 135 -56.5t49 -154.5q0 -31 -5 -67h-313zM260 421q-120 0 -130 -147h238v9q0 64 -28.5 101t-79.5 37zM228 705l84 -161h-72l-102 161h90z
" />
    <glyph glyph-name="emacron" unicode="&#x113;" horiz-adv-x="496" 
d="M129 211q2 -71 37.5 -111t107.5 -40q53 0 139 27l11 -67q-81 -30 -157 -30q-107 0 -162.5 63t-55.5 186q0 122 55 186t159 64q86 0 135 -56.5t49 -154.5q0 -31 -5 -67h-313zM260 421q-120 0 -130 -147h238v9q0 64 -28.5 101t-79.5 37zM407 634l-5 -63h-294l5 63h294z" />
    <glyph glyph-name="eogonek" unicode="&#x119;" horiz-adv-x="496" 
d="M129 211q2 -71 37.5 -111t107.5 -40q53 0 139 27l11 -67q-45 -24 -67.5 -57t-22.5 -66q0 -21 13.5 -36t41.5 -15q20 0 42 7l9 -59q-30 -10 -59 -10q-57 0 -86 29.5t-29 77.5q0 54 44 102l-43 -3q-107 0 -162.5 63t-55.5 186q0 122 55 186t159 64q86 0 135 -56.5
t49 -154.5q0 -31 -5 -67h-313zM260 421q-120 0 -130 -147h238v9q0 64 -28.5 101t-79.5 37z" />
    <glyph glyph-name="gbreve" unicode="&#x11f;" horiz-adv-x="509" 
d="M426 329q0 -73 -45.5 -115.5t-136.5 -42.5l-40 2q-31 -29 -31 -54q0 -36 59 -36h43q102 0 153.5 -35.5t51.5 -98.5q0 -74 -69.5 -119.5t-184.5 -45.5q-86 0 -136.5 34t-50.5 92q0 35 22 70.5t67 62.5q-29 25 -29 66q0 48 43 82q-80 37 -80 138q0 74 45.5 117t136.5 43
q41 0 75 -10h154l-6 -72h-58q17 -34 17 -78zM227 14l-36 3q-73 -41 -73 -101q0 -29 26.5 -49.5t86.5 -20.5q83 0 126.5 28.5t43.5 67.5q0 33 -34.5 52.5t-100.5 19.5h-39zM349 329q0 44 -26 69.5t-79 25.5t-79 -25.5t-26 -69.5q0 -42 26 -68t79 -26t79 26t26 68zM160 706
q3 -101 84 -101q38 0 60 26.5t22 74.5l63 -6q0 -74 -38.5 -116t-106.5 -42q-69 0 -108 42t-39 116z" />
    <glyph glyph-name="gcircumflex" unicode="&#x11d;" horiz-adv-x="509" 
d="M426 329q0 -73 -45.5 -115.5t-136.5 -42.5l-40 2q-31 -29 -31 -54q0 -36 59 -36h43q102 0 153.5 -35.5t51.5 -98.5q0 -74 -69.5 -119.5t-184.5 -45.5q-86 0 -136.5 34t-50.5 92q0 35 22 70.5t67 62.5q-29 25 -29 66q0 48 43 82q-80 37 -80 138q0 74 45.5 117t136.5 43
q41 0 75 -10h154l-6 -72h-58q17 -34 17 -78zM227 14l-36 3q-73 -41 -73 -101q0 -29 26.5 -49.5t86.5 -20.5q83 0 126.5 28.5t43.5 67.5q0 33 -34.5 52.5t-100.5 19.5h-39zM349 329q0 44 -26 69.5t-79 25.5t-79 -25.5t-26 -69.5q0 -42 26 -68t79 -26t79 26t26 68zM392 544
h-80l-69 105l-69 -105h-79l109 161h79z" />
    <glyph glyph-name="gcommaaccent" unicode="&#x123;" horiz-adv-x="509" 
d="M201 554q-22 30 -22 64q0 49 37 86l65 -4q-30 -34 -30 -66q0 -35 26 -71zM426 329q0 -73 -45.5 -115.5t-136.5 -42.5l-40 2q-31 -29 -31 -54q0 -36 59 -36h43q102 0 153.5 -35.5t51.5 -98.5q0 -74 -69.5 -119.5t-184.5 -45.5q-86 0 -136.5 34t-50.5 92q0 35 22 70.5
t67 62.5q-29 25 -29 66q0 48 43 82q-80 37 -80 138q0 74 45.5 117t136.5 43q41 0 75 -10h154l-6 -72h-58q17 -34 17 -78zM227 14l-36 3q-73 -41 -73 -101q0 -29 26.5 -49.5t86.5 -20.5q83 0 126.5 28.5t43.5 67.5q0 33 -34.5 52.5t-100.5 19.5h-39zM349 329q0 44 -26 69.5
t-79 25.5t-79 -25.5t-26 -69.5q0 -42 26 -68t79 -26t79 26t26 68z" />
    <glyph glyph-name="gdotaccent" unicode="&#x121;" horiz-adv-x="509" 
d="M426 329q0 -73 -45.5 -115.5t-136.5 -42.5l-40 2q-31 -29 -31 -54q0 -36 59 -36h43q102 0 153.5 -35.5t51.5 -98.5q0 -74 -69.5 -119.5t-184.5 -45.5q-86 0 -136.5 34t-50.5 92q0 35 22 70.5t67 62.5q-29 25 -29 66q0 48 43 82q-80 37 -80 138q0 74 45.5 117t136.5 43
q41 0 75 -10h154l-6 -72h-58q17 -34 17 -78zM227 14l-36 3q-73 -41 -73 -101q0 -29 26.5 -49.5t86.5 -20.5q83 0 126.5 28.5t43.5 67.5q0 33 -34.5 52.5t-100.5 19.5h-39zM349 329q0 44 -26 69.5t-79 25.5t-79 -25.5t-26 -69.5q0 -42 26 -68t79 -26t79 26t26 68zM243 659
q23 0 37.5 -14.5t14.5 -37.5t-14.5 -37.5t-37.5 -14.5t-37.5 14.5t-14.5 37.5t14.5 37.5t37.5 14.5z" />
    <glyph glyph-name="hcircumflex" unicode="&#x125;" horiz-adv-x="535" 
d="M149 0h-80v753l80 5v-334q113 65 182 65q65 0 100 -41t35 -118v-330h-80v316q0 97 -76 97q-38 0 -80 -18.5t-81 -39.5v-355zM279 782h-93l-77 80l-77 -80h-92l127 133h86z" />
    <glyph glyph-name="hbar" unicode="&#x127;" horiz-adv-x="535" 
d="M69 634v119l80 5v-124h154l-5 -63h-149v-147q113 65 182 65q65 0 100 -41t35 -118v-330h-80v316q0 97 -76 97q-38 0 -80 -18.5t-81 -39.5v-355h-80v571h-65l5 63h60z" />
    <glyph glyph-name="iacute" unicode="&#xed;" horiz-adv-x="218" 
d="M149 481v-481h-80v476zM242 705l-102 -161h-72l84 161h90z" />
    <glyph glyph-name="ibreve" unicode="&#x12d;" horiz-adv-x="218" 
d="M149 481v-481h-80v476zM26 706q3 -101 84 -101q38 0 60 26.5t22 74.5l63 -6q0 -74 -38.5 -116t-106.5 -42q-69 0 -108 42t-39 116z" />
    <glyph glyph-name="icircumflex" unicode="&#xee;" horiz-adv-x="218" 
d="M149 481v-481h-80v476zM258 544h-80l-69 105l-69 -105h-79l109 161h79z" />
    <glyph glyph-name="idieresis" unicode="&#xef;" horiz-adv-x="218" 
d="M149 481v-481h-80v476zM9 655q21 0 35 -13.5t14 -34.5t-14 -35t-35 -14t-34.5 14t-13.5 35t13.5 34.5t34.5 13.5zM209 655q21 0 34.5 -13.5t13.5 -34.5t-13.5 -35t-34.5 -14t-35 14t-14 35t14 34.5t35 13.5z" />
    <glyph glyph-name="igrave" unicode="&#xec;" horiz-adv-x="218" 
d="M149 481v-481h-80v476zM66 705l84 -161h-72l-102 161h90z" />
    <glyph glyph-name="imacron" unicode="&#x12b;" horiz-adv-x="218" 
d="M149 481v-481h-80v476zM259 634l-5 -63h-294l5 63h294z" />
    <glyph glyph-name="iogonek" unicode="&#x12f;" horiz-adv-x="218" 
d="M174 -206q-30 -10 -60 -10q-57 0 -85.5 30t-28.5 74q0 66 69 117v471l80 5v-481q-80 -43 -80 -105q0 -20 13 -34.5t41 -14.5q13 0 41 7zM109 659q23 0 37.5 -14.5t14.5 -37.5t-14.5 -37.5t-37.5 -14.5t-37.5 14.5t-14.5 37.5t14.5 37.5t37.5 14.5z" />
    <glyph glyph-name="itilde" unicode="&#x129;" horiz-adv-x="218" 
d="M149 481v-481h-80v476zM-47 575q6 47 34.5 74t63.5 27q22 0 38.5 -9t30 -19.5l25 -19t23.5 -8.5q29 0 40 46l58 -12q-6 -45 -34 -72t-63 -27q-22 0 -39 8.5t-30.5 19l-25 19.5t-23.5 9q-30 0 -41 -46z" />
    <glyph glyph-name="dotlessi" unicode="&#x131;" horiz-adv-x="218" 
d="M149 481v-481h-80v476z" />
    <glyph glyph-name="jcircumflex" unicode="&#x135;" horiz-adv-x="250" 
d="M178 481v-454q0 -79 -31.5 -134.5t-98.5 -108.5l-61 48q52 43 81.5 88.5t29.5 107.5v448zM290 544h-80l-69 105l-69 -105h-79l109 161h79z" />
    <glyph glyph-name="kcommaaccent" unicode="&#x137;" horiz-adv-x="483" 
d="M149 224v-224h-80v753l80 5v-485l206 208l97 -5l-225 -224l249 -249l-103 -6zM265 -66q22 -30 22 -64q0 -49 -37 -86l-65 4q30 34 30 66q0 35 -26 71z" />
    <glyph glyph-name="lacute" unicode="&#x13a;" horiz-adv-x="285" 
d="M149 758v-638q0 -57 47 -57q29 0 78 15l7 -69q-67 -19 -106 -19q-106 0 -106 121v642zM294 915l-137 -133h-88l114 133h111z" />
    <glyph glyph-name="lcaron" unicode="&#x13e;" horiz-adv-x="285" 
d="M265 768q20 -43 20 -87q0 -57 -34 -113h-66q31 48 31 92q0 47 -25 99zM149 758v-638q0 -57 47 -57q29 0 78 15l7 -69q-67 -19 -106 -19q-106 0 -106 121v642z" />
    <glyph glyph-name="lcommaaccent" unicode="&#x13c;" horiz-adv-x="285" 
d="M149 758v-638q0 -57 47 -57q29 0 78 15l7 -69q-67 -19 -106 -19q-106 0 -106 121v642zM188 -66q22 -30 22 -64q0 -49 -37 -86l-65 4q30 34 30 66q0 35 -26 71z" />
    <glyph glyph-name="ldot" unicode="&#x140;" horiz-adv-x="319" 
d="M149 758v-638q0 -57 47 -57q29 0 78 15l7 -69q-67 -19 -106 -19q-106 0 -106 121v642zM254 413q23 0 37.5 -14.5t14.5 -37.5t-14.5 -37.5t-37.5 -14.5t-37.5 14.5t-14.5 37.5t14.5 37.5t37.5 14.5z" />
    <glyph glyph-name="lslash" unicode="&#x142;" horiz-adv-x="310" 
d="M169 758v-381l92 52l6 -75l-98 -56v-178q0 -57 47 -57q29 0 78 15l7 -69q-66 -19 -106 -19q-106 0 -106 121v141l-83 -47l-6 76l89 50v422z" />
    <glyph glyph-name="nacute" unicode="&#x144;" horiz-adv-x="535" 
d="M149 0h-80v476l80 5v-57q113 65 182 65q65 0 100 -41t35 -118v-330h-80v316q0 97 -76 97q-38 0 -80 -18.5t-81 -39.5v-355zM367 705l-102 -161h-72l84 161h90z" />
    <glyph glyph-name="napostrophe" unicode="&#x149;" horiz-adv-x="535" 
d="M149 707q22 -30 22 -64q0 -49 -37 -86l-65 4q30 34 30 66q0 35 -26 71zM149 0h-80v476l80 5v-57q113 65 182 65q65 0 100 -41t35 -118v-330h-80v316q0 97 -76 97q-38 0 -80 -18.5t-81 -39.5v-355z" />
    <glyph glyph-name="ncaron" unicode="&#x148;" horiz-adv-x="535" 
d="M149 0h-80v476l80 5v-57q113 65 182 65q65 0 100 -41t35 -118v-330h-80v316q0 97 -76 97q-38 0 -80 -18.5t-81 -39.5v-355zM119 705h80l69 -105l69 105h79l-109 -161h-79z" />
    <glyph glyph-name="ncommaaccent" unicode="&#x146;" horiz-adv-x="535" 
d="M149 0h-80v476l80 5v-57q113 65 182 65q65 0 100 -41t35 -118v-330h-80v316q0 97 -76 97q-38 0 -80 -18.5t-81 -39.5v-355zM291 -66q22 -30 22 -64q0 -49 -37 -86l-65 4q30 34 30 66q0 35 -26 71z" />
    <glyph glyph-name="ntilde" unicode="&#xf1;" horiz-adv-x="535" 
d="M149 0h-80v476l80 5v-57q113 65 182 65q65 0 100 -41t35 -118v-330h-80v316q0 97 -76 97q-38 0 -80 -18.5t-81 -39.5v-355zM110 575q6 47 34.5 74t63.5 27q22 0 38.5 -9t30 -19.5l25 -19t23.5 -8.5q29 0 40 46l58 -12q-6 -45 -34 -72t-63 -27q-22 0 -39 8.5t-30.5 19
l-25 19.5t-23.5 9q-30 0 -41 -46z" />
    <glyph glyph-name="oacute" unicode="&#xf3;" horiz-adv-x="547" 
d="M130 239q0 -177 144 -177q64 0 103.5 41.5t39.5 135.5t-39.5 136t-103.5 42q-65 0 -104.5 -42t-39.5 -136zM49 239q0 128 61 189t164 61q102 0 163 -61t61 -189t-61 -188.5t-163 -60.5q-103 0 -164 60.5t-61 188.5zM382 705l-102 -161h-72l84 161h90z" />
    <glyph glyph-name="obreve" unicode="&#x14f;" horiz-adv-x="547" 
d="M130 239q0 -177 144 -177q64 0 103.5 41.5t39.5 135.5t-39.5 136t-103.5 42q-65 0 -104.5 -42t-39.5 -136zM49 239q0 128 61 189t164 61q102 0 163 -61t61 -189t-61 -188.5t-163 -60.5q-103 0 -164 60.5t-61 188.5zM190 706q3 -101 84 -101q38 0 60 26.5t22 74.5l63 -6
q0 -74 -38.5 -116t-106.5 -42q-69 0 -108 42t-39 116z" />
    <glyph glyph-name="ocircumflex" unicode="&#xf4;" horiz-adv-x="547" 
d="M130 239q0 -177 144 -177q64 0 103.5 41.5t39.5 135.5t-39.5 136t-103.5 42q-65 0 -104.5 -42t-39.5 -136zM49 239q0 128 61 189t164 61q102 0 163 -61t61 -189t-61 -188.5t-163 -60.5q-103 0 -164 60.5t-61 188.5zM421 544h-80l-69 105l-69 -105h-79l109 161h79z" />
    <glyph glyph-name="odieresis" unicode="&#xf6;" horiz-adv-x="547" 
d="M130 239q0 -177 144 -177q64 0 103.5 41.5t39.5 135.5t-39.5 136t-103.5 42q-65 0 -104.5 -42t-39.5 -136zM49 239q0 128 61 189t164 61q102 0 163 -61t61 -189t-61 -188.5t-163 -60.5q-103 0 -164 60.5t-61 188.5zM174 655q21 0 35 -13.5t14 -34.5t-14 -35t-35 -14
t-34.5 14t-13.5 35t13.5 34.5t34.5 13.5zM374 655q21 0 34.5 -13.5t13.5 -34.5t-13.5 -35t-34.5 -14t-35 14t-14 35t14 34.5t35 13.5z" />
    <glyph glyph-name="ograve" unicode="&#xf2;" horiz-adv-x="547" 
d="M130 239q0 -177 144 -177q64 0 103.5 41.5t39.5 135.5t-39.5 136t-103.5 42q-65 0 -104.5 -42t-39.5 -136zM49 239q0 128 61 189t164 61q102 0 163 -61t61 -189t-61 -188.5t-163 -60.5q-103 0 -164 60.5t-61 188.5zM253 705l84 -161h-72l-102 161h90z" />
    <glyph glyph-name="ohungarumlaut" unicode="&#x151;" horiz-adv-x="547" 
d="M130 239q0 -177 144 -177q64 0 103.5 41.5t39.5 135.5t-39.5 136t-103.5 42q-65 0 -104.5 -42t-39.5 -136zM49 239q0 128 61 189t164 61q102 0 163 -61t61 -189t-61 -188.5t-163 -60.5q-103 0 -164 60.5t-61 188.5zM292 705l-97 -161h-67l79 161h85zM463 705l-97 -161
h-68l79 161h86z" />
    <glyph glyph-name="omacron" unicode="&#x14d;" horiz-adv-x="547" 
d="M130 239q0 -177 144 -177q64 0 103.5 41.5t39.5 135.5t-39.5 136t-103.5 42q-65 0 -104.5 -42t-39.5 -136zM49 239q0 128 61 189t164 61q102 0 163 -61t61 -189t-61 -188.5t-163 -60.5q-103 0 -164 60.5t-61 188.5zM422 634l-5 -63h-294l5 63h294z" />
    <glyph glyph-name="otilde" unicode="&#xf5;" horiz-adv-x="547" 
d="M130 239q0 -177 144 -177q64 0 103.5 41.5t39.5 135.5t-39.5 136t-103.5 42q-65 0 -104.5 -42t-39.5 -136zM49 239q0 128 61 189t164 61q102 0 163 -61t61 -189t-61 -188.5t-163 -60.5q-103 0 -164 60.5t-61 188.5zM117 575q6 47 34.5 74t63.5 27q22 0 38.5 -9t30 -19.5
l25 -19t23.5 -8.5q29 0 40 46l58 -12q-6 -45 -34 -72t-63 -27q-22 0 -39 8.5t-30.5 19l-25 19.5t-23.5 9q-30 0 -41 -46z" />
    <glyph glyph-name="racute" unicode="&#x155;" horiz-adv-x="368" 
d="M348 398q-44 12 -67 12q-27 0 -51.5 -19t-80.5 -90v-301h-80v476l80 5v-91q39 53 71 76t67 23q24 0 71 -11zM293 705l-102 -161h-72l84 161h90z" />
    <glyph glyph-name="rcaron" unicode="&#x159;" horiz-adv-x="368" 
d="M348 398q-44 12 -67 12q-27 0 -51.5 -19t-80.5 -90v-301h-80v476l80 5v-91q39 53 71 76t67 23q24 0 71 -11zM37 705h80l69 -105l69 105h79l-109 -161h-79z" />
    <glyph glyph-name="rcommaaccent" unicode="&#x157;" horiz-adv-x="368" 
d="M348 398q-44 12 -67 12q-27 0 -51.5 -19t-80.5 -90v-301h-80v476l80 5v-91q39 53 71 76t67 23q24 0 71 -11zM143 -66q22 -30 22 -64q0 -49 -37 -86l-65 4q30 34 30 66q0 35 -26 71z" />
    <glyph glyph-name="sacute" unicode="&#x15b;" horiz-adv-x="429" 
d="M76 88q65 -28 137 -28q87 0 87 70q0 27 -27.5 45t-94.5 44q-122 46 -122 138q0 67 46 99.5t120 32.5q73 0 143 -29l-12 -69q-65 28 -132 28q-84 0 -84 -61q0 -29 25 -46t98 -44q121 -46 121 -139q0 -66 -45.5 -102.5t-128.5 -36.5q-74 0 -142 29zM313 705l-102 -161h-72
l84 161h90z" />
    <glyph glyph-name="scaron" unicode="&#x161;" horiz-adv-x="429" 
d="M76 88q65 -28 137 -28q87 0 87 70q0 27 -27.5 45t-94.5 44q-122 46 -122 138q0 67 46 99.5t120 32.5q73 0 143 -29l-12 -69q-65 28 -132 28q-84 0 -84 -61q0 -29 25 -46t98 -44q121 -46 121 -139q0 -66 -45.5 -102.5t-128.5 -36.5q-74 0 -142 29zM56 705h80l69 -105
l69 105h79l-109 -161h-79z" />
    <glyph glyph-name="scedilla" unicode="&#x15f;" horiz-adv-x="429" 
d="M76 88q65 -28 137 -28q87 0 87 70q0 27 -27.5 45t-94.5 44q-122 46 -122 138q0 67 46 99.5t120 32.5q73 0 143 -29l-12 -69q-65 28 -132 28q-84 0 -84 -61q0 -29 25 -46t98 -44q121 -46 121 -139q0 -63 -37 -96t-98 -40l-28 -43l8 1h8q38 0 59 -23t21 -58
q0 -37 -29.5 -61.5t-83.5 -24.5q-36 0 -71 11l10 53q29 -11 58 -11q51 0 51 32q0 33 -36 33q-14 0 -32 -6l-32 39l30 56q-63 4 -114 28z" />
    <glyph glyph-name="scircumflex" unicode="&#x15d;" horiz-adv-x="429" 
d="M76 88q65 -28 137 -28q87 0 87 70q0 27 -27.5 45t-94.5 44q-122 46 -122 138q0 67 46 99.5t120 32.5q73 0 143 -29l-12 -69q-65 28 -132 28q-84 0 -84 -61q0 -29 25 -46t98 -44q121 -46 121 -139q0 -66 -45.5 -102.5t-128.5 -36.5q-74 0 -142 29zM355 544h-80l-69 105
l-69 -105h-79l109 161h79z" />
    <glyph glyph-name="scommaaccent" unicode="&#x219;" horiz-adv-x="429" 
d="M76 88q65 -28 137 -28q87 0 87 70q0 27 -27.5 45t-94.5 44q-122 46 -122 138q0 67 46 99.5t120 32.5q73 0 143 -29l-12 -69q-65 28 -132 28q-84 0 -84 -61q0 -29 25 -46t98 -44q121 -46 121 -139q0 -66 -45.5 -102.5t-128.5 -36.5q-74 0 -142 29zM246 -66q22 -30 22 -64
q0 -49 -37 -86l-65 4q30 34 30 66q0 35 -26 71z" />
    <glyph glyph-name="tbar" unicode="&#x167;" horiz-adv-x="377" 
d="M101 223h-77l5 63h72v121h-80l6 72h74v149l80 5v-154h147l-6 -72h-141v-121h142l-5 -63h-137v-53q0 -108 80 -108q33 0 77 11l7 -67q-53 -16 -98 -16q-72 0 -109 44.5t-37 128.5v60z" />
    <glyph glyph-name="tcaron" unicode="&#x165;" horiz-adv-x="377" 
d="M297 768q20 -43 20 -87q0 -57 -34 -113h-66q31 48 31 92q0 47 -25 99zM101 407h-80l6 72h74v149l80 5v-154h147l-6 -72h-141v-237q0 -108 80 -108q33 0 77 11l7 -67q-53 -16 -98 -16q-72 0 -109 44.5t-37 128.5v244z" />
    <glyph glyph-name="tcommaaccent" unicode="&#x163;" horiz-adv-x="377" 
d="M101 407h-80l6 72h74v149l80 5v-154h147l-6 -72h-141v-237q0 -108 80 -108q33 0 77 11l7 -67q-53 -16 -98 -16q-72 0 -109 44.5t-37 128.5v244zM237 -66q22 -30 22 -64q0 -49 -37 -86l-65 4q30 34 30 66q0 35 -26 71z" />
    <glyph glyph-name="uacute" unicode="&#xfa;" horiz-adv-x="535" 
d="M386 476l80 5v-481h-70l-10 54q-113 -64 -182 -64q-65 0 -100 41t-35 117v328l80 5v-318q0 -98 76 -98q38 0 80 19t81 40v352zM377 705l-102 -161h-72l84 161h90z" />
    <glyph glyph-name="ubreve" unicode="&#x16d;" horiz-adv-x="535" 
d="M386 476l80 5v-481h-70l-10 54q-113 -64 -182 -64q-65 0 -100 41t-35 117v328l80 5v-318q0 -98 76 -98q38 0 80 19t81 40v352zM184 706q3 -101 84 -101q38 0 60 26.5t22 74.5l63 -6q0 -74 -38.5 -116t-106.5 -42q-69 0 -108 42t-39 116z" />
    <glyph glyph-name="ucircumflex" unicode="&#xfb;" horiz-adv-x="535" 
d="M386 476l80 5v-481h-70l-10 54q-113 -64 -182 -64q-65 0 -100 41t-35 117v328l80 5v-318q0 -98 76 -98q38 0 80 19t81 40v352zM416 544h-80l-69 105l-69 -105h-79l109 161h79z" />
    <glyph glyph-name="udieresis" unicode="&#xfc;" horiz-adv-x="535" 
d="M386 476l80 5v-481h-70l-10 54q-113 -64 -182 -64q-65 0 -100 41t-35 117v328l80 5v-318q0 -98 76 -98q38 0 80 19t81 40v352zM167 655q21 0 35 -13.5t14 -34.5t-14 -35t-35 -14t-34.5 14t-13.5 35t13.5 34.5t34.5 13.5zM367 655q21 0 34.5 -13.5t13.5 -34.5t-13.5 -35
t-34.5 -14t-35 14t-14 35t14 34.5t35 13.5z" />
    <glyph glyph-name="ugrave" unicode="&#xf9;" horiz-adv-x="535" 
d="M386 476l80 5v-481h-70l-10 54q-113 -64 -182 -64q-65 0 -100 41t-35 117v328l80 5v-318q0 -98 76 -98q38 0 80 19t81 40v352zM248 705l84 -161h-72l-102 161h90z" />
    <glyph glyph-name="uhungarumlaut" unicode="&#x171;" horiz-adv-x="535" 
d="M386 476l80 5v-481h-70l-10 54q-113 -64 -182 -64q-65 0 -100 41t-35 117v328l80 5v-318q0 -98 76 -98q38 0 80 19t81 40v352zM288 705l-97 -161h-67l79 161h85zM459 705l-97 -161h-68l79 161h86z" />
    <glyph glyph-name="umacron" unicode="&#x16b;" horiz-adv-x="535" 
d="M386 476l80 5v-481h-70l-10 54q-113 -64 -182 -64q-65 0 -100 41t-35 117v328l80 5v-318q0 -98 76 -98q38 0 80 19t81 40v352zM416 634l-5 -63h-294l5 63h294z" />
    <glyph glyph-name="uogonek" unicode="&#x173;" horiz-adv-x="535" 
d="M386 476l80 5v-481q-80 -43 -80 -105q0 -20 13 -34.5t41 -14.5q13 0 41 7l10 -59q-30 -10 -60 -10q-57 0 -85.5 30t-28.5 74q0 70 77 123l-8 43q-113 -64 -182 -64q-65 0 -100 41t-35 117v328l80 5v-318q0 -98 76 -98q38 0 80 19t81 40v352z" />
    <glyph glyph-name="uring" unicode="&#x16f;" horiz-adv-x="535" 
d="M386 476l80 5v-481h-70l-10 54q-113 -64 -182 -64q-65 0 -100 41t-35 117v328l80 5v-318q0 -98 76 -98q38 0 80 19t81 40v352zM222 622q0 -21 12 -34.5t32 -13.5q21 0 33.5 13.5t12.5 34.5q0 22 -12.5 35.5t-33.5 13.5q-20 0 -32 -13.5t-12 -35.5zM165 622q0 45 28 73
t73 28q46 0 74.5 -28t28.5 -73t-28.5 -72.5t-74.5 -27.5q-45 0 -73 27.5t-28 72.5z" />
    <glyph glyph-name="utilde" unicode="&#x169;" horiz-adv-x="535" 
d="M386 476l80 5v-481h-70l-10 54q-113 -64 -182 -64q-65 0 -100 41t-35 117v328l80 5v-318q0 -98 76 -98q38 0 80 19t81 40v352zM110 575q6 47 34.5 74t63.5 27q22 0 38.5 -9t30 -19.5l25 -19t23.5 -8.5q29 0 40 46l58 -12q-6 -45 -34 -72t-63 -27q-22 0 -39 8.5t-30.5 19
l-25 19.5t-23.5 9q-30 0 -41 -46z" />
    <glyph glyph-name="wacute" unicode="&#x1e83;" horiz-adv-x="748" 
d="M96 481l117 -404l113 399l94 5l115 -404l117 404l84 -5l-150 -476h-96l-116 380l-116 -380h-97l-150 476zM483 705l-102 -161h-72l84 161h90z" />
    <glyph glyph-name="wcircumflex" unicode="&#x175;" horiz-adv-x="748" 
d="M96 481l117 -404l113 399l94 5l115 -404l117 404l84 -5l-150 -476h-96l-116 380l-116 -380h-97l-150 476zM522 544h-80l-69 105l-69 -105h-79l109 161h79z" />
    <glyph glyph-name="wdieresis" unicode="&#x1e85;" horiz-adv-x="748" 
d="M96 481l117 -404l113 399l94 5l115 -404l117 404l84 -5l-150 -476h-96l-116 380l-116 -380h-97l-150 476zM273 655q21 0 35 -13.5t14 -34.5t-14 -35t-35 -14t-34.5 14t-13.5 35t13.5 34.5t34.5 13.5zM473 655q21 0 34.5 -13.5t13.5 -34.5t-13.5 -35t-34.5 -14t-35 14
t-14 35t14 34.5t35 13.5z" />
    <glyph glyph-name="wgrave" unicode="&#x1e81;" horiz-adv-x="748" 
d="M96 481l117 -404l113 399l94 5l115 -404l117 404l84 -5l-150 -476h-96l-116 380l-116 -380h-97l-150 476zM354 705l84 -161h-72l-102 161h90z" />
    <glyph glyph-name="yacute" unicode="&#xfd;" horiz-adv-x="481" 
d="M240 82l142 399l87 -5l-255 -685l-86 6l78 203h-17l-178 476l87 5zM357 705l-102 -161h-72l84 161h90z" />
    <glyph glyph-name="ycircumflex" unicode="&#x177;" horiz-adv-x="481" 
d="M240 82l142 399l87 -5l-255 -685l-86 6l78 203h-17l-178 476l87 5zM389 544h-80l-69 105l-69 -105h-79l109 161h79z" />
    <glyph glyph-name="ydieresis" unicode="&#xff;" horiz-adv-x="481" 
d="M240 82l142 399l87 -5l-255 -685l-86 6l78 203h-17l-178 476l87 5zM140 655q21 0 35 -13.5t14 -34.5t-14 -35t-35 -14t-34.5 14t-13.5 35t13.5 34.5t34.5 13.5zM340 655q21 0 34.5 -13.5t13.5 -34.5t-13.5 -35t-34.5 -14t-35 14t-14 35t14 34.5t35 13.5z" />
    <glyph glyph-name="ygrave" unicode="&#x1ef3;" horiz-adv-x="481" 
d="M240 82l142 399l87 -5l-255 -685l-86 6l78 203h-17l-178 476l87 5zM213 705l84 -161h-72l-102 161h90z" />
    <glyph glyph-name="zacute" unicode="&#x17a;" horiz-adv-x="445" 
d="M410 72l-6 -72h-365l-5 67l272 340h-257l6 72h350l5 -67l-272 -340h272zM331 705l-102 -161h-72l84 161h90z" />
    <glyph glyph-name="zcaron" unicode="&#x17e;" horiz-adv-x="445" 
d="M410 72l-6 -72h-365l-5 67l272 340h-257l6 72h350l5 -67l-272 -340h272zM76 705h80l69 -105l69 105h79l-109 -161h-79z" />
    <glyph glyph-name="zdotaccent" unicode="&#x17c;" horiz-adv-x="445" 
d="M410 72l-6 -72h-365l-5 67l272 340h-257l6 72h350l5 -67l-272 -340h272zM222 659q23 0 37.5 -14.5t14.5 -37.5t-14.5 -37.5t-37.5 -14.5t-37.5 14.5t-14.5 37.5t14.5 37.5t37.5 14.5z" />
    <glyph glyph-name="aeacute" unicode="&#x1fd;" horiz-adv-x="771" 
d="M542 -10q-130 0 -180 87q-103 -87 -195 -87q-58 0 -93 34t-35 92q0 78 69.5 115t215.5 47v52q0 87 -75 87q-51 0 -178 -40l-12 70q114 42 195 42q97 0 125 -77q50 77 159 77q85 0 134 -56t49 -155q0 -31 -5 -67h-313q4 -151 146 -151q53 0 139 27l11 -67
q-81 -30 -157 -30zM534 421q-120 0 -130 -147h238v13q0 61 -28.5 97.5t-79.5 36.5zM180 56q41 0 83.5 21.5t72.5 58.5q-9 26 -12 81q-109 -10 -158 -31.5t-49 -64.5q0 -32 17 -48.5t46 -16.5zM495 705l-102 -161h-72l84 161h90z" />
    <glyph glyph-name="iacute_jacute" horiz-adv-x="460" 
d="M149 481v-481h-80v476zM485 705l-102 -161h-73l84 161h91zM242 705l-102 -161h-72l84 161h90zM391 481v-454q0 -79 -31.5 -134.5t-98.5 -108.5l-60 48q52 43 81 88.5t29 107.5v448z" />
    <glyph glyph-name="oslashacute" unicode="&#x1ff;" horiz-adv-x="547" 
d="M482 522l-54 -86q70 -64 70 -197q0 -128 -61 -188.5t-163 -60.5q-62 0 -112 22l-49 -78l-48 23l53 85q-69 65 -69 197q0 128 61 189t164 61q62 0 110 -23l50 79zM417 239q0 82 -33 127l-181 -289q30 -15 71 -15q64 0 103.5 41.5t39.5 135.5zM130 239q0 -83 32 -127
l182 289q-29 16 -70 16q-65 0 -104.5 -42t-39.5 -136zM382 705l-102 -161h-72l84 161h90z" />
    <glyph glyph-name="g.alt" horiz-adv-x="542" 
d="M393 65q-108 -65 -175 -65q-79 0 -124 61.5t-45 177.5q0 121 55 185.5t159 64.5q95 0 210 -41v-455q0 -91 -58 -150t-150 -59q-86 0 -180 35l10 72q99 -35 170 -35q54 0 91 37.5t37 95.5v76zM393 395q-62 22 -131 22q-64 0 -98 -46.5t-34 -132.5q0 -87 29.5 -125
t73.5 -38q38 0 79.5 19t80.5 40v261z" />
    <glyph glyph-name="l.alt" horiz-adv-x="218" 
d="M149 758v-758h-80v753z" />
    <glyph glyph-name="gbreve.alt" horiz-adv-x="542" 
d="M393 65q-108 -65 -175 -65q-79 0 -124 61.5t-45 177.5q0 121 55 185.5t159 64.5q95 0 210 -41v-455q0 -91 -58 -150t-150 -59q-86 0 -180 35l10 72q99 -35 170 -35q54 0 91 37.5t37 95.5v76zM393 395q-62 22 -131 22q-64 0 -98 -46.5t-34 -132.5q0 -87 29.5 -125
t73.5 -38q38 0 79.5 19t80.5 40v261zM195 706q3 -101 84 -101q38 0 60 26.5t22 74.5l63 -6q0 -74 -38.5 -116t-106.5 -42q-69 0 -108 42t-39 116z" />
    <glyph glyph-name="gcircumflex.alt" horiz-adv-x="542" 
d="M393 65q-108 -65 -175 -65q-79 0 -124 61.5t-45 177.5q0 121 55 185.5t159 64.5q95 0 210 -41v-455q0 -91 -58 -150t-150 -59q-86 0 -180 35l10 72q99 -35 170 -35q54 0 91 37.5t37 95.5v76zM393 395q-62 22 -131 22q-64 0 -98 -46.5t-34 -132.5q0 -87 29.5 -125
t73.5 -38q38 0 79.5 19t80.5 40v261zM426 544h-80l-69 105l-69 -105h-79l109 161h79z" />
    <glyph glyph-name="gcommaaccent.alt" horiz-adv-x="542" 
d="M237 554q-22 30 -22 64q0 49 37 86l65 -4q-30 -34 -30 -66q0 -35 26 -71zM393 65q-108 -65 -175 -65q-79 0 -124 61.5t-45 177.5q0 121 55 185.5t159 64.5q95 0 210 -41v-455q0 -91 -58 -150t-150 -59q-86 0 -180 35l10 72q99 -35 170 -35q54 0 91 37.5t37 95.5v76z
M393 395q-62 22 -131 22q-64 0 -98 -46.5t-34 -132.5q0 -87 29.5 -125t73.5 -38q38 0 79.5 19t80.5 40v261z" />
    <glyph glyph-name="gdotaccent.alt" horiz-adv-x="542" 
d="M393 65q-108 -65 -175 -65q-79 0 -124 61.5t-45 177.5q0 121 55 185.5t159 64.5q95 0 210 -41v-455q0 -91 -58 -150t-150 -59q-86 0 -180 35l10 72q99 -35 170 -35q54 0 91 37.5t37 95.5v76zM393 395q-62 22 -131 22q-64 0 -98 -46.5t-34 -132.5q0 -87 29.5 -125
t73.5 -38q38 0 79.5 19t80.5 40v261zM277 659q23 0 37.5 -14.5t14.5 -37.5t-14.5 -37.5t-37.5 -14.5t-37.5 14.5t-14.5 37.5t14.5 37.5t37.5 14.5z" />
    <glyph glyph-name="lacute.alt" horiz-adv-x="218" 
d="M149 758v-758h-80v753zM294 915l-137 -133h-88l114 133h111z" />
    <glyph glyph-name="lcaron.alt" horiz-adv-x="285" 
d="M149 758v-758h-80v753zM265 768q20 -43 20 -87q0 -57 -34 -113h-66q31 48 31 92q0 47 -25 99z" />
    <glyph glyph-name="lcommaaccent.alt" horiz-adv-x="218" 
d="M149 758v-758h-80v753zM138 -66q22 -30 22 -64q0 -49 -37 -86l-65 4q30 34 30 66q0 35 -26 71z" />
    <glyph glyph-name="ldot.alt" horiz-adv-x="304" 
d="M149 758v-758h-80v753zM254 413q23 0 37.5 -14.5t14.5 -37.5t-14.5 -37.5t-37.5 -14.5t-37.5 14.5t-14.5 37.5t14.5 37.5t37.5 14.5z" />
    <glyph glyph-name="lslash.alt" horiz-adv-x="258" 
d="M169 758v-378l80 49l5 -75l-85 -52v-302h-80v253l-80 -48l-5 76l85 51v421z" />
    <glyph glyph-name="a.small" horiz-adv-x="522" 
d="M261 438l-90 -253h180zM150 116l-41 -116h-89l186 506l108 5l188 -511h-89l-42 116h-221z" />
    <glyph glyph-name="b.small" horiz-adv-x="500" 
d="M289 509q70 0 109 -35.5t39 -89.5q0 -68 -68 -124q90 -48 90 -129q0 -66 -54 -103.5t-161 -37.5q-79 0 -175 17v502h220zM149 219v-150q48 -8 99 -8q66 0 98.5 21.5t32.5 56.5q0 48 -60 80h-170zM303 286q54 37 54 91q0 26 -20 43.5t-55 17.5h-133v-152h154z" />
    <glyph glyph-name="c.small" horiz-adv-x="504" 
d="M313 447q-83 0 -128 -49.5t-45 -143.5q0 -93 43.5 -142.5t129.5 -49.5q66 0 139 23l11 -71q-77 -24 -154 -24q-121 0 -185.5 68t-64.5 196t65 196.5t185 68.5q71 0 154 -24l-11 -72q-70 24 -139 24z" />
    <glyph glyph-name="d.small" horiz-adv-x="578" 
d="M265 509q255 0 255 -255q0 -129 -72 -196.5t-201 -67.5q-99 0 -178 18v501h196zM149 437v-367q52 -9 104 -9q83 0 134.5 47t51.5 145q0 97 -47 140.5t-125 43.5h-118z" />
    <glyph glyph-name="e.small" horiz-adv-x="463" 
d="M69 509h353l-5 -72h-268v-150h232l-6 -69h-226v-146h273l-5 -72h-348v509z" />
    <glyph glyph-name="f.small" horiz-adv-x="431" 
d="M149 0h-80v509h348l-5 -72h-263v-164h227l-6 -72h-221v-201z" />
    <glyph glyph-name="g.small" horiz-adv-x="564" 
d="M322 447q-91 0 -136.5 -50.5t-45.5 -142.5q0 -192 179 -192q47 0 98 14v118h-135l5 70h208v-244q-93 -30 -180 -30q-124 0 -190 67t-66 197q0 129 67.5 197t191.5 68q73 0 156 -24l-11 -72q-72 24 -141 24z" />
    <glyph glyph-name="h.small" horiz-adv-x="561" 
d="M149 509v-221h264v221h80v-509h-80v216h-264v-216h-80v509h80z" />
    <glyph glyph-name="i.small" horiz-adv-x="218" 
d="M149 509v-509h-80v509h80z" />
    <glyph glyph-name="j.small" horiz-adv-x="243" 
d="M174 509v-435q0 -74 -31 -128t-99 -106l-58 45q51 42 79.5 85.5t28.5 103.5v435h80z" />
    <glyph glyph-name="k.small" horiz-adv-x="500" 
d="M149 229v-229h-80v509h80v-230l224 232l97 -5l-243 -248l249 -255l-103 -6z" />
    <glyph glyph-name="l.small" horiz-adv-x="441" 
d="M149 509v-437h261l-6 -72h-335v509h80z" />
    <glyph glyph-name="m.small" horiz-adv-x="716" 
d="M147 376v-376h-78v506l102 5l187 -419l187 419l102 -5v-506h-78v376l-167 -373l-86 -6z" />
    <glyph glyph-name="n.small" horiz-adv-x="561" 
d="M149 0h-80v506l77 5l267 -382v380h80v-506l-78 -6l-266 382v-379z" />
    <glyph glyph-name="o.small" horiz-adv-x="623" 
d="M140 254q0 -94 44 -143t128 -49q83 0 127 48.5t44 143.5q0 93 -43.5 143t-127.5 50q-85 0 -128.5 -49.5t-43.5 -143.5zM59 255q0 128 64 196t189 68q124 0 188 -68t64 -196t-63.5 -196.5t-188.5 -68.5t-189 67.5t-64 197.5z" />
    <glyph glyph-name="p.small" horiz-adv-x="480" 
d="M149 0h-80v509h154q226 0 226 -171q0 -82 -59.5 -130t-164.5 -48q-33 0 -76 5v-165zM149 237q35 -5 74 -5q70 0 107.5 28t37.5 79q0 98 -146 98h-73v-200z" />
    <glyph glyph-name="q.small" horiz-adv-x="623" 
d="M59 255q0 128 64 196t189 68q124 0 188 -68t64 -196q0 -197 -145 -249q27 -73 72 -73q29 0 66 13l10 -68q-47 -15 -86 -15q-99 0 -140 128l-29 -1q-125 0 -189 67.5t-64 197.5zM140 254q0 -94 44 -143t128 -49q83 0 127 48.5t44 143.5q0 93 -43.5 143t-127.5 50
q-85 0 -128.5 -49.5t-43.5 -143.5z" />
    <glyph glyph-name="r.small" horiz-adv-x="501" 
d="M149 0h-80v509h152q100 0 158 -40.5t58 -124.5q0 -99 -94 -146l129 -196l-91 -5l-111 178l-52 -4q-26 0 -69 5v-176zM149 248q35 -5 71 -5q60 0 98 26t38 75q0 93 -137 93h-70v-189z" />
    <glyph glyph-name="s.small" horiz-adv-x="460" 
d="M74 88q86 -27 148 -27q50 0 79 17.5t29 49.5v4q0 26 -34.5 48t-107.5 49q-142 52 -142 150q0 66 51 103t142 37q68 0 157 -31l-13 -71q-71 31 -146 31q-48 0 -77.5 -17.5t-29.5 -52.5q0 -25 32 -45.5t111 -50.5q141 -54 141 -150q0 -69 -50.5 -105.5t-144.5 -36.5
q-81 0 -160 27z" />
    <glyph glyph-name="t.small" horiz-adv-x="453" 
d="M6 437l5 72h435l-5 -72h-175v-437h-80v437h-180z" />
    <glyph glyph-name="u.small" horiz-adv-x="561" 
d="M149 172q0 -110 132 -110t132 110v337h80v-347q0 -82 -56 -127t-156 -45q-98 0 -155 43.5t-57 128.5v347h80v-337z" />
    <glyph glyph-name="v.small" horiz-adv-x="521" 
d="M501 506l-189 -506h-103l-189 506l88 5l152 -429l153 429z" />
    <glyph glyph-name="w.small" horiz-adv-x="778" 
d="M758 507l-155 -507h-97l-117 399l-115 -399h-96l-158 507l86 5l123 -433l118 427l84 5l120 -432l121 433z" />
    <glyph glyph-name="x.small" horiz-adv-x="537" 
d="M220 254l-186 252l94 5l141 -198l142 198l92 -5l-186 -251l186 -252l-94 -6l-141 198l-142 -198l-92 6z" />
    <glyph glyph-name="y.small" horiz-adv-x="492" 
d="M206 200l-195 306l94 5l141 -238l143 238l91 -5l-194 -306v-200h-80v200z" />
    <glyph glyph-name="z.small" horiz-adv-x="483" 
d="M442 72l-6 -72h-390l-5 67l297 370h-297l6 72h390l5 -67l-297 -370h297z" />
    <glyph glyph-name="ae.small" horiz-adv-x="766" 
d="M-14 0l337 509h401l-5 -72h-268v-150h232l-5 -69h-227v-146h273l-5 -72h-348v116h-214l-77 -116h-94zM371 185v262l-173 -262h173z" />
    <glyph glyph-name="eng.small" horiz-adv-x="561" 
d="M149 379v-379h-80v506l77 5l267 -382v380h80v-492q0 -72 -29.5 -125t-100.5 -108l-58 45q47 38 75 79t32 95z" />
    <glyph glyph-name="eth.small" horiz-adv-x="578" 
d="M265 509q255 0 255 -255q0 -129 -72 -196.5t-201 -67.5q-99 0 -178 18v215h-65l5 63h60v223h196zM149 437v-151h114l-5 -63h-109v-153q52 -9 104 -9q83 0 134.5 47t51.5 145q0 97 -47 140.5t-125 43.5h-118z" />
    <glyph glyph-name="ij.small" horiz-adv-x="453" 
d="M384 509v-435q0 -74 -31 -128t-99 -106l-58 45q51 42 79.5 85.5t28.5 103.5v435h80zM149 509v-509h-80v509h80z" />
    <glyph glyph-name="oe.small" horiz-adv-x="877" 
d="M483 58q-62 -68 -181 -68t-181 67t-62 198q0 130 62.5 197t180.5 67t181 -69v59h353l-5 -72h-268v-150h232l-6 -69h-226v-146h273l-5 -72h-348v58zM140 254q0 -94 44 -143t128 -49q83 0 127 48.5t44 143.5v10q-3 97 -50 140t-121 43q-85 0 -128.5 -49.5t-43.5 -143.5z
" />
    <glyph glyph-name="oslash.small" horiz-adv-x="623" 
d="M546 551l-60 -87q78 -67 78 -209q0 -128 -63.5 -196.5t-188.5 -68.5q-78 0 -133 27l-57 -83l-48 24l61 88q-76 68 -76 209q0 128 64 196t189 68q76 0 129 -26l57 82zM483 254q0 91 -43 143l-217 -316q37 -19 89 -19q83 0 127 48.5t44 143.5zM140 254q0 -93 41 -140
l217 315q-38 18 -86 18q-85 0 -128.5 -49.5t-43.5 -143.5z" />
    <glyph glyph-name="thorn.small" horiz-adv-x="480" 
d="M149 153q35 -5 74 -5q70 0 107.5 27.5t37.5 78.5t-39 78.5t-106 27.5q-39 0 -74 -5v-202zM69 509h80v-82q42 5 76 5q104 0 164 -47.5t60 -130.5q0 -82 -59.5 -130t-164.5 -48q-33 0 -76 5v-81h-80v509z" />
    <glyph glyph-name="aacute.small" horiz-adv-x="522" 
d="M261 438l-90 -253h180zM150 116l-41 -116h-89l186 506l108 5l188 -511h-89l-42 116h-221zM376 705l-102 -141h-73l84 141h91z" />
    <glyph glyph-name="abreve.small" horiz-adv-x="522" 
d="M261 438l-90 -253h180zM150 116l-41 -116h-89l186 506l108 5l188 -511h-89l-42 116h-221zM178 706q2 -38 24 -59.5t60 -21.5q35 0 58 21.5t24 59.5l63 -6q0 -65 -41 -101.5t-104 -36.5q-64 0 -105.5 36.5t-41.5 101.5z" />
    <glyph glyph-name="acircumflex.small" horiz-adv-x="522" 
d="M261 438l-90 -253h180zM150 116l-41 -116h-89l186 506l108 5l188 -511h-89l-42 116h-221zM410 564h-82l-68 87l-68 -87h-81l109 141h81z" />
    <glyph glyph-name="adieresis.small" horiz-adv-x="522" 
d="M261 438l-90 -253h180zM150 116l-41 -116h-89l186 506l108 5l188 -511h-89l-42 116h-221zM161 675q21 0 35 -13.5t14 -34.5t-14 -35t-35 -14t-34.5 14t-13.5 35t13.5 34.5t34.5 13.5zM361 675q21 0 34.5 -13.5t13.5 -34.5t-13.5 -35t-34.5 -14t-35 14t-14 35t14 34.5
t35 13.5z" />
    <glyph glyph-name="agrave.small" horiz-adv-x="522" 
d="M261 438l-90 -253h180zM150 116l-41 -116h-89l186 506l108 5l188 -511h-89l-42 116h-221zM244 705l84 -141h-73l-102 141h91z" />
    <glyph glyph-name="amacron.small" horiz-adv-x="522" 
d="M261 438l-90 -253h180zM150 116l-41 -116h-89l186 506l108 5l188 -511h-89l-42 116h-221zM411 654l-5 -63h-294l5 63h294z" />
    <glyph glyph-name="aogonek.small" horiz-adv-x="522" 
d="M150 116l-41 -116h-89l186 506l108 5l188 -511h-15q-80 -43 -80 -105q0 -20 13 -34.5t41 -14.5q13 0 41 7l10 -59q-30 -10 -60 -10q-57 0 -85.5 30t-28.5 74q0 68 72 120l-39 108h-221zM261 438l-90 -253h180z" />
    <glyph glyph-name="aring.small" horiz-adv-x="522" 
d="M261 438l-90 -253h180zM150 116l-41 -116h-89l186 506l108 5l188 -511h-89l-42 116h-221zM216 627q0 -21 12 -34.5t32 -13.5q21 0 33.5 13.5t12.5 34.5q0 22 -12.5 35.5t-33.5 13.5q-20 0 -32 -13.5t-12 -35.5zM159 627q0 45 28 73t73 28q46 0 74.5 -28t28.5 -73
t-28.5 -72.5t-74.5 -27.5q-45 0 -73 27.5t-28 72.5z" />
    <glyph glyph-name="aringacute.small" horiz-adv-x="522" 
d="M390 864l-117 -105h-88l94 105h111zM216 627q0 -21 12 -34.5t32 -13.5q21 0 33.5 13.5t12.5 34.5q0 22 -12.5 35.5t-33.5 13.5q-20 0 -32 -13.5t-12 -35.5zM159 627q0 45 28 73t73 28q46 0 74.5 -28t28.5 -73t-28.5 -72.5t-74.5 -27.5q-45 0 -73 27.5t-28 72.5zM261 438
l-90 -253h180zM150 116l-41 -116h-89l186 506l108 5l188 -511h-89l-42 116h-221z" />
    <glyph glyph-name="atilde.small" horiz-adv-x="522" 
d="M261 438l-90 -253h180zM150 116l-41 -116h-89l186 506l108 5l188 -511h-89l-42 116h-221zM105 595q6 47 34.5 74t63.5 27q22 0 38.5 -9t30 -19.5l25 -19t23.5 -8.5q29 0 40 46l58 -12q-6 -45 -34 -72t-63 -27q-22 0 -39 8.5t-30.5 19l-25 19.5t-23.5 9q-30 0 -41 -46z
" />
    <glyph glyph-name="ccedilla.small" horiz-adv-x="504" 
d="M313 447q-83 0 -128 -49.5t-45 -143.5q0 -93 43.5 -142.5t129.5 -49.5q66 0 139 23l11 -71q-56 -19 -120 -23l-27 -41l8 1h8q38 0 59 -23t21 -58q0 -37 -29.5 -61.5t-83.5 -24.5q-36 0 -71 11l10 53q29 -11 58 -11q51 0 51 32q0 33 -36 33q-14 0 -32 -6l-32 39l30 56
q-107 9 -162.5 77t-55.5 186q0 128 65 196.5t185 68.5q71 0 154 -24l-11 -72q-70 24 -139 24z" />
    <glyph glyph-name="cacute.small" horiz-adv-x="504" 
d="M313 447q-83 0 -128 -49.5t-45 -143.5q0 -93 43.5 -142.5t129.5 -49.5q66 0 139 23l11 -71q-77 -24 -154 -24q-121 0 -185.5 68t-64.5 196t65 196.5t185 68.5q71 0 154 -24l-11 -72q-70 24 -139 24zM406 705l-102 -141h-73l84 141h91z" />
    <glyph glyph-name="ccircumflex.small" horiz-adv-x="504" 
d="M313 447q-83 0 -128 -49.5t-45 -143.5q0 -93 43.5 -142.5t129.5 -49.5q66 0 139 23l11 -71q-77 -24 -154 -24q-121 0 -185.5 68t-64.5 196t65 196.5t185 68.5q71 0 154 -24l-11 -72q-70 24 -139 24zM448 564h-82l-68 87l-68 -87h-81l109 141h81z" />
    <glyph glyph-name="ccaron.small" horiz-adv-x="504" 
d="M313 447q-83 0 -128 -49.5t-45 -143.5q0 -93 43.5 -142.5t129.5 -49.5q66 0 139 23l11 -71q-77 -24 -154 -24q-121 0 -185.5 68t-64.5 196t65 196.5t185 68.5q71 0 154 -24l-11 -72q-70 24 -139 24zM148 705h82l68 -87l68 87h81l-109 -141h-81z" />
    <glyph glyph-name="cdotaccent.small" horiz-adv-x="504" 
d="M313 447q-83 0 -128 -49.5t-45 -143.5q0 -93 43.5 -142.5t129.5 -49.5q66 0 139 23l11 -71q-77 -24 -154 -24q-121 0 -185.5 68t-64.5 196t65 196.5t185 68.5q71 0 154 -24l-11 -72q-70 24 -139 24zM298 679q23 0 37.5 -14.5t14.5 -37.5t-14.5 -37.5t-37.5 -14.5
t-37.5 14.5t-14.5 37.5t14.5 37.5t37.5 14.5z" />
    <glyph glyph-name="dcroat.small" horiz-adv-x="578" 
d="M265 509q255 0 255 -255q0 -129 -72 -196.5t-201 -67.5q-99 0 -178 18v215h-65l5 63h60v223h196zM149 437v-151h114l-5 -63h-109v-153q52 -9 104 -9q83 0 134.5 47t51.5 145q0 97 -47 140.5t-125 43.5h-118z" />
    <glyph glyph-name="dcaron.small" horiz-adv-x="578" 
d="M265 509q255 0 255 -255q0 -129 -72 -196.5t-201 -67.5q-99 0 -178 18v501h196zM149 437v-367q52 -9 104 -9q83 0 134.5 47t51.5 145q0 97 -47 140.5t-125 43.5h-118zM103 705h82l68 -87l68 87h81l-109 -141h-81z" />
    <glyph glyph-name="eacute.small" horiz-adv-x="463" 
d="M69 509h353l-5 -72h-268v-150h232l-6 -69h-226v-146h273l-5 -72h-348v509zM348 705l-102 -141h-73l84 141h91z" />
    <glyph glyph-name="ebreve.small" horiz-adv-x="463" 
d="M69 509h353l-5 -72h-268v-150h232l-6 -69h-226v-146h273l-5 -72h-348v509zM162 706q2 -38 24 -59.5t60 -21.5q35 0 58 21.5t24 59.5l63 -6q0 -65 -41 -101.5t-104 -36.5q-64 0 -105.5 36.5t-41.5 101.5z" />
    <glyph glyph-name="ecaron.small" horiz-adv-x="463" 
d="M69 509h353l-5 -72h-268v-150h232l-6 -69h-226v-146h273l-5 -72h-348v509zM95 705h82l68 -87l68 87h81l-109 -141h-81z" />
    <glyph glyph-name="ecircumflex.small" horiz-adv-x="463" 
d="M69 509h353l-5 -72h-268v-150h232l-6 -69h-226v-146h273l-5 -72h-348v509zM394 564h-82l-68 87l-68 -87h-81l109 141h81z" />
    <glyph glyph-name="edieresis.small" horiz-adv-x="463" 
d="M69 509h353l-5 -72h-268v-150h232l-6 -69h-226v-146h273l-5 -72h-348v509zM145 675q21 0 35 -13.5t14 -34.5t-14 -35t-35 -14t-34.5 14t-13.5 35t13.5 34.5t34.5 13.5zM345 675q21 0 34.5 -13.5t13.5 -34.5t-13.5 -35t-34.5 -14t-35 14t-14 35t14 34.5t35 13.5z" />
    <glyph glyph-name="edotaccent.small" horiz-adv-x="463" 
d="M69 509h353l-5 -72h-268v-150h232l-6 -69h-226v-146h273l-5 -72h-348v509zM245 679q23 0 37.5 -14.5t14.5 -37.5t-14.5 -37.5t-37.5 -14.5t-37.5 14.5t-14.5 37.5t14.5 37.5t37.5 14.5z" />
    <glyph glyph-name="egrave.small" horiz-adv-x="463" 
d="M69 509h353l-5 -72h-268v-150h232l-6 -69h-226v-146h273l-5 -72h-348v509zM226 705l84 -141h-73l-102 141h91z" />
    <glyph glyph-name="emacron.small" horiz-adv-x="463" 
d="M69 509h353l-5 -72h-268v-150h232l-6 -69h-226v-146h273l-5 -72h-348v509zM395 654l-5 -63h-294l5 63h294z" />
    <glyph glyph-name="eogonek.small" horiz-adv-x="463" 
d="M69 509h353l-5 -72h-268v-150h232l-6 -69h-226v-146h273l-5 -72h-1q-80 -43 -80 -105q0 -20 13 -34.5t41 -14.5q13 0 41 7l10 -59q-30 -10 -60 -10q-57 0 -85.5 30t-28.5 74q0 61 62 112h-260v509z" />
    <glyph glyph-name="gbreve.small" horiz-adv-x="564" 
d="M322 447q-91 0 -136.5 -50.5t-45.5 -142.5q0 -192 179 -192q47 0 98 14v118h-135l5 70h208v-244q-93 -30 -180 -30q-124 0 -190 67t-66 197q0 129 67.5 197t191.5 68q73 0 156 -24l-11 -72q-72 24 -141 24zM226 706q2 -38 24 -59.5t60 -21.5q35 0 58 21.5t24 59.5l63 -6
q0 -65 -41 -101.5t-104 -36.5q-64 0 -105.5 36.5t-41.5 101.5z" />
    <glyph glyph-name="gcircumflex.small" horiz-adv-x="564" 
d="M322 447q-91 0 -136.5 -50.5t-45.5 -142.5q0 -192 179 -192q47 0 98 14v118h-135l5 70h208v-244q-93 -30 -180 -30q-124 0 -190 67t-66 197q0 129 67.5 197t191.5 68q73 0 156 -24l-11 -72q-72 24 -141 24zM458 564h-82l-68 87l-68 -87h-81l109 141h81z" />
    <glyph glyph-name="gcommaaccent.small" horiz-adv-x="564" 
d="M322 447q-91 0 -136.5 -50.5t-45.5 -142.5q0 -192 179 -192q47 0 98 14v118h-135l5 70h208v-244q-93 -30 -180 -30q-124 0 -190 67t-66 197q0 129 67.5 197t191.5 68q73 0 156 -24l-11 -72q-72 24 -141 24zM335 -66q22 -30 22 -64q0 -49 -37 -86l-65 4q30 34 30 66
q0 35 -26 71z" />
    <glyph glyph-name="gdotaccent.small" horiz-adv-x="564" 
d="M322 447q-91 0 -136.5 -50.5t-45.5 -142.5q0 -192 179 -192q47 0 98 14v118h-135l5 70h208v-244q-93 -30 -180 -30q-124 0 -190 67t-66 197q0 129 67.5 197t191.5 68q73 0 156 -24l-11 -72q-72 24 -141 24zM309 679q23 0 37.5 -14.5t14.5 -37.5t-14.5 -37.5t-37.5 -14.5
t-37.5 14.5t-14.5 37.5t14.5 37.5t37.5 14.5z" />
    <glyph glyph-name="hcircumflex.small" horiz-adv-x="561" 
d="M149 509v-221h264v221h80v-509h-80v216h-264v-216h-80v509h80zM430 564h-82l-68 87l-68 -87h-81l109 141h81z" />
    <glyph glyph-name="hbar.small" horiz-adv-x="561" 
d="M149 509v-86h264v86h80v-86h65l-6 -63h-59v-360h-80v216h-264v-216h-80v360h-65l5 63h60v86h80zM413 288v72h-264v-72h264z" />
    <glyph glyph-name="iacute.small" horiz-adv-x="218" 
d="M149 509v-509h-80v509h80zM244 705l-102 -141h-73l84 141h91z" />
    <glyph glyph-name="ibreve.small" horiz-adv-x="218" 
d="M149 509v-509h-80v509h80zM26 706q2 -38 24 -59.5t60 -21.5q35 0 58 21.5t24 59.5l63 -6q0 -65 -41 -101.5t-104 -36.5q-64 0 -105.5 36.5t-41.5 101.5z" />
    <glyph glyph-name="icircumflex.small" horiz-adv-x="218" 
d="M149 509v-509h-80v509h80zM259 564h-82l-68 87l-68 -87h-81l109 141h81z" />
    <glyph glyph-name="idieresis.small" horiz-adv-x="218" 
d="M149 509v-509h-80v509h80zM9 675q21 0 35 -13.5t14 -34.5t-14 -35t-35 -14t-34.5 14t-13.5 35t13.5 34.5t34.5 13.5zM209 675q21 0 34.5 -13.5t13.5 -34.5t-13.5 -35t-34.5 -14t-35 14t-14 35t14 34.5t35 13.5z" />
    <glyph glyph-name="idotaccent.small" horiz-adv-x="218" 
d="M149 509v-509h-80v509h80zM109 679q23 0 37.5 -14.5t14.5 -37.5t-14.5 -37.5t-37.5 -14.5t-37.5 14.5t-14.5 37.5t14.5 37.5t37.5 14.5z" />
    <glyph glyph-name="igrave.small" horiz-adv-x="218" 
d="M149 509v-509h-80v509h80zM66 705l84 -141h-73l-102 141h91z" />
    <glyph glyph-name="imacron.small" horiz-adv-x="218" 
d="M149 509v-509h-80v509h80zM259 654l-5 -63h-294l5 63h294z" />
    <glyph glyph-name="iogonek.small" horiz-adv-x="218" 
d="M149 509v-509h-10q-80 -43 -80 -105q0 -20 13 -34.5t41 -14.5q13 0 41 7l10 -59q-30 -10 -60 -10q-57 0 -85.5 30t-28.5 74q0 70 79 125v496h80z" />
    <glyph glyph-name="itilde.small" horiz-adv-x="218" 
d="M149 509v-509h-80v509h80zM-47 595q6 47 34.5 74t63.5 27q22 0 38.5 -9t30 -19.5l25 -19t23.5 -8.5q29 0 40 46l58 -12q-6 -45 -34 -72t-63 -27q-22 0 -39 8.5t-30.5 19l-25 19.5t-23.5 9q-30 0 -41 -46z" />
    <glyph glyph-name="jcircumflex.small" horiz-adv-x="243" 
d="M174 509v-435q0 -74 -31 -128t-99 -106l-58 45q51 42 79.5 85.5t28.5 103.5v435h80zM284 564h-82l-68 87l-68 -87h-81l109 141h81z" />
    <glyph glyph-name="kcommaaccent.small" horiz-adv-x="500" 
d="M149 229v-229h-80v509h80v-230l224 232l97 -5l-243 -248l249 -255l-103 -6zM272 -66q22 -30 22 -64q0 -49 -37 -86l-65 4q30 34 30 66q0 35 -26 71z" />
    <glyph glyph-name="lacute.small" horiz-adv-x="441" 
d="M149 509v-437h261l-6 -72h-335v509h80zM244 703l-102 -141h-73l84 141h91z" />
    <glyph glyph-name="lcaron.small" horiz-adv-x="441" 
d="M149 509v-437h261l-6 -72h-335v509h80zM282 554q20 -43 20 -87q0 -57 -34 -113h-66q31 48 31 92q0 47 -25 99z" />
    <glyph glyph-name="lcommaaccent.small" horiz-adv-x="441" 
d="M149 509v-437h261l-6 -72h-335v509h80zM264 -66q22 -30 22 -64q0 -49 -37 -86l-65 4q30 34 30 66q0 35 -26 71z" />
    <glyph glyph-name="ldot.small" horiz-adv-x="441" 
d="M149 509v-437h261l-6 -72h-335v509h80zM280 314q23 0 37.5 -14.5t14.5 -37.5t-14.5 -37.5t-37.5 -14.5t-37.5 14.5t-14.5 37.5t14.5 37.5t37.5 14.5z" />
    <glyph glyph-name="lslash.small" horiz-adv-x="441" 
d="M149 509v-219l166 79l5 -75l-171 -82v-140h261l-6 -72h-335v174l-62 -29l-6 76l68 32v256h80z" />
    <glyph glyph-name="nacute.small" horiz-adv-x="561" 
d="M149 0h-80v506l77 5l267 -382v380h80v-506l-78 -6l-266 382v-379zM393 705l-102 -141h-73l84 141h91z" />
    <glyph glyph-name="napostrophe.small" horiz-adv-x="561" 
d="M149 717q22 -30 22 -64q0 -49 -37 -86l-65 4q30 34 30 66q0 35 -26 71zM149 0h-80v506l77 5l267 -382v380h80v-506l-78 -6l-266 382v-379z" />
    <glyph glyph-name="ncaron.small" horiz-adv-x="561" 
d="M149 0h-80v506l77 5l267 -382v380h80v-506l-78 -6l-266 382v-379zM131 705h82l68 -87l68 87h81l-109 -141h-81z" />
    <glyph glyph-name="ncommaaccent.small" horiz-adv-x="561" 
d="M149 0h-80v506l77 5l267 -382v380h80v-506l-78 -6l-266 382v-379zM304 -66q22 -30 22 -64q0 -49 -37 -86l-65 4q30 34 30 66q0 35 -26 71z" />
    <glyph glyph-name="ntilde.small" horiz-adv-x="561" 
d="M149 0h-80v506l77 5l267 -382v380h80v-506l-78 -6l-266 382v-379zM124 575q6 47 34.5 74t63.5 27q22 0 38.5 -9t30 -19.5l25 -19t23.5 -8.5q29 0 40 46l58 -12q-6 -45 -34 -72t-63 -27q-22 0 -39 8.5t-30.5 19l-25 19.5t-23.5 9q-30 0 -41 -46z" />
    <glyph glyph-name="oacute.small" horiz-adv-x="623" 
d="M140 254q0 -94 44 -143t128 -49q83 0 127 48.5t44 143.5q0 93 -43.5 143t-127.5 50q-85 0 -128.5 -49.5t-43.5 -143.5zM59 255q0 128 64 196t189 68q124 0 188 -68t64 -196t-63.5 -196.5t-188.5 -68.5t-189 67.5t-64 197.5zM424 705l-102 -141h-73l84 141h91z" />
    <glyph glyph-name="obreve.small" horiz-adv-x="623" 
d="M140 254q0 -94 44 -143t128 -49q83 0 127 48.5t44 143.5q0 93 -43.5 143t-127.5 50q-85 0 -128.5 -49.5t-43.5 -143.5zM59 255q0 128 64 196t189 68q124 0 188 -68t64 -196t-63.5 -196.5t-188.5 -68.5t-189 67.5t-64 197.5zM228 706q2 -38 24 -59.5t60 -21.5
q35 0 58 21.5t24 59.5l63 -6q0 -65 -41 -101.5t-104 -36.5q-64 0 -105.5 36.5t-41.5 101.5z" />
    <glyph glyph-name="ocircumflex.small" horiz-adv-x="623" 
d="M140 254q0 -94 44 -143t128 -49q83 0 127 48.5t44 143.5q0 93 -43.5 143t-127.5 50q-85 0 -128.5 -49.5t-43.5 -143.5zM59 255q0 128 64 196t189 68q124 0 188 -68t64 -196t-63.5 -196.5t-188.5 -68.5t-189 67.5t-64 197.5zM461 564h-82l-68 87l-68 -87h-81l109 141h81z
" />
    <glyph glyph-name="odieresis.small" horiz-adv-x="623" 
d="M140 254q0 -94 44 -143t128 -49q83 0 127 48.5t44 143.5q0 93 -43.5 143t-127.5 50q-85 0 -128.5 -49.5t-43.5 -143.5zM59 255q0 128 64 196t189 68q124 0 188 -68t64 -196t-63.5 -196.5t-188.5 -68.5t-189 67.5t-64 197.5zM211 675q21 0 35 -13.5t14 -34.5t-14 -35
t-35 -14t-34.5 14t-13.5 35t13.5 34.5t34.5 13.5zM411 675q21 0 34.5 -13.5t13.5 -34.5t-13.5 -35t-34.5 -14t-35 14t-14 35t14 34.5t35 13.5z" />
    <glyph glyph-name="ograve.small" horiz-adv-x="623" 
d="M140 254q0 -94 44 -143t128 -49q83 0 127 48.5t44 143.5q0 93 -43.5 143t-127.5 50q-85 0 -128.5 -49.5t-43.5 -143.5zM59 255q0 128 64 196t189 68q124 0 188 -68t64 -196t-63.5 -196.5t-188.5 -68.5t-189 67.5t-64 197.5zM290 705l84 -141h-73l-102 141h91z" />
    <glyph glyph-name="ohungarumlaut.small" horiz-adv-x="623" 
d="M140 254q0 -94 44 -143t128 -49q83 0 127 48.5t44 143.5q0 93 -43.5 143t-127.5 50q-85 0 -128.5 -49.5t-43.5 -143.5zM59 255q0 128 64 196t189 68q124 0 188 -68t64 -196t-63.5 -196.5t-188.5 -68.5t-189 67.5t-64 197.5zM334 705l-97 -141h-68l79 141h86zM504 705
l-97 -141h-68l79 141h86z" />
    <glyph glyph-name="omacron.small" horiz-adv-x="623" 
d="M140 254q0 -94 44 -143t128 -49q83 0 127 48.5t44 143.5q0 93 -43.5 143t-127.5 50q-85 0 -128.5 -49.5t-43.5 -143.5zM59 255q0 128 64 196t189 68q124 0 188 -68t64 -196t-63.5 -196.5t-188.5 -68.5t-189 67.5t-64 197.5zM461 654l-5 -63h-294l5 63h294z" />
    <glyph glyph-name="otilde.small" horiz-adv-x="623" 
d="M140 254q0 -94 44 -143t128 -49q83 0 127 48.5t44 143.5q0 93 -43.5 143t-127.5 50q-85 0 -128.5 -49.5t-43.5 -143.5zM59 255q0 128 64 196t189 68q124 0 188 -68t64 -196t-63.5 -196.5t-188.5 -68.5t-189 67.5t-64 197.5zM155 595q6 47 34.5 74t63.5 27q22 0 38.5 -9
t30 -19.5l25 -19t23.5 -8.5q29 0 40 46l58 -12q-6 -45 -34 -72t-63 -27q-22 0 -39 8.5t-30.5 19l-25 19.5t-23.5 9q-30 0 -41 -46z" />
    <glyph glyph-name="racute.small" horiz-adv-x="501" 
d="M149 0h-80v509h152q100 0 158 -40.5t58 -124.5q0 -99 -94 -146l129 -196l-91 -5l-111 178l-52 -4q-26 0 -69 5v-176zM149 248q35 -5 71 -5q60 0 98 26t38 75q0 93 -137 93h-70v-189zM327 705l-102 -141h-73l84 141h91z" />
    <glyph glyph-name="rcaron.small" horiz-adv-x="501" 
d="M149 0h-80v509h152q100 0 158 -40.5t58 -124.5q0 -99 -94 -146l129 -196l-91 -5l-111 178l-52 -4q-26 0 -69 5v-176zM149 248q35 -5 71 -5q60 0 98 26t38 75q0 93 -137 93h-70v-189zM75 705h82l68 -87l68 87h81l-109 -141h-81z" />
    <glyph glyph-name="rcommaaccent.small" horiz-adv-x="501" 
d="M149 0h-80v509h152q100 0 158 -40.5t58 -124.5q0 -99 -94 -146l129 -196l-91 -5l-111 178l-52 -4q-26 0 -69 5v-176zM149 248q35 -5 71 -5q60 0 98 26t38 75q0 93 -137 93h-70v-189zM266 -66q22 -30 22 -64q0 -49 -37 -86l-65 4q30 34 30 66q0 35 -26 71z" />
    <glyph glyph-name="sacute.small" horiz-adv-x="460" 
d="M74 88q86 -27 148 -27q50 0 79 17.5t29 49.5v4q0 26 -34.5 48t-107.5 49q-142 52 -142 150q0 66 51 103t142 37q68 0 157 -31l-13 -71q-71 31 -146 31q-48 0 -77.5 -17.5t-29.5 -52.5q0 -25 32 -45.5t111 -50.5q141 -54 141 -150q0 -69 -50.5 -105.5t-144.5 -36.5
q-81 0 -160 27zM339 705l-102 -141h-73l84 141h91z" />
    <glyph glyph-name="scaron.small" horiz-adv-x="460" 
d="M74 88q86 -27 148 -27q50 0 79 17.5t29 49.5v4q0 26 -34.5 48t-107.5 49q-142 52 -142 150q0 66 51 103t142 37q68 0 157 -31l-13 -71q-71 31 -146 31q-48 0 -77.5 -17.5t-29.5 -52.5q0 -25 32 -45.5t111 -50.5q141 -54 141 -150q0 -69 -50.5 -105.5t-144.5 -36.5
q-81 0 -160 27zM77 705h82l68 -87l68 87h81l-109 -141h-81z" />
    <glyph glyph-name="scedilla.small" horiz-adv-x="460" 
d="M74 88q86 -27 148 -27q50 0 79 17.5t29 49.5v4q0 26 -34.5 48t-107.5 49q-142 52 -142 150q0 66 51 103t142 37q68 0 157 -31l-13 -71q-71 31 -146 31q-48 0 -77.5 -17.5t-29.5 -52.5q0 -25 32 -45.5t111 -50.5q141 -54 141 -150q0 -121 -150 -139l-28 -43l8 1h8
q38 0 59 -23t21 -58q0 -37 -29.5 -61.5t-83.5 -24.5q-36 0 -71 11l10 53q29 -11 58 -11q51 0 51 32q0 33 -36 33q-14 0 -32 -6l-32 39l29 56q-74 4 -137 26z" />
    <glyph glyph-name="scircumflex.small" horiz-adv-x="460" 
d="M74 88q86 -27 148 -27q50 0 79 17.5t29 49.5v4q0 26 -34.5 48t-107.5 49q-142 52 -142 150q0 66 51 103t142 37q68 0 157 -31l-13 -71q-71 31 -146 31q-48 0 -77.5 -17.5t-29.5 -52.5q0 -25 32 -45.5t111 -50.5q141 -54 141 -150q0 -69 -50.5 -105.5t-144.5 -36.5
q-81 0 -160 27zM376 564h-82l-68 87l-68 -87h-81l109 141h81z" />
    <glyph glyph-name="scommaaccent.small" horiz-adv-x="460" 
d="M74 88q86 -27 148 -27q50 0 79 17.5t29 49.5v4q0 26 -34.5 48t-107.5 49q-142 52 -142 150q0 66 51 103t142 37q68 0 157 -31l-13 -71q-71 31 -146 31q-48 0 -77.5 -17.5t-29.5 -52.5q0 -25 32 -45.5t111 -50.5q141 -54 141 -150q0 -69 -50.5 -105.5t-144.5 -36.5
q-81 0 -160 27zM260 -66q22 -30 22 -64q0 -49 -37 -86l-65 4q30 34 30 66q0 35 -26 71z" />
    <glyph glyph-name="tbar.small" horiz-adv-x="453" 
d="M186 278v159h-180l5 72h435l-5 -72h-175v-159h111l-5 -63h-106v-215h-80v215h-108l5 63h103z" />
    <glyph glyph-name="tcaron.small" horiz-adv-x="453" 
d="M6 437l5 72h435l-5 -72h-175v-437h-80v437h-180zM77 705h82l68 -87l68 87h81l-109 -141h-81z" />
    <glyph glyph-name="tcommaaccent.small" horiz-adv-x="453" 
d="M6 437l5 72h435l-5 -72h-175v-437h-80v437h-180zM251 -66q22 -30 22 -64q0 -49 -37 -86l-65 4q30 34 30 66q0 35 -26 71z" />
    <glyph glyph-name="uacute.small" horiz-adv-x="561" 
d="M149 172q0 -110 132 -110t132 110v337h80v-347q0 -82 -56 -127t-156 -45q-98 0 -155 43.5t-57 128.5v347h80v-337zM393 705l-102 -141h-73l84 141h91z" />
    <glyph glyph-name="ubreve.small" horiz-adv-x="561" 
d="M149 172q0 -110 132 -110t132 110v337h80v-347q0 -82 -56 -127t-156 -45q-98 0 -155 43.5t-57 128.5v347h80v-337zM198 706q2 -38 24 -59.5t60 -21.5q35 0 58 21.5t24 59.5l63 -6q0 -65 -41 -101.5t-104 -36.5q-64 0 -105.5 36.5t-41.5 101.5z" />
    <glyph glyph-name="ucircumflex.small" horiz-adv-x="561" 
d="M149 172q0 -110 132 -110t132 110v337h80v-347q0 -82 -56 -127t-156 -45q-98 0 -155 43.5t-57 128.5v347h80v-337zM430 564h-82l-68 87l-68 -87h-81l109 141h81z" />
    <glyph glyph-name="udieresis.small" horiz-adv-x="561" 
d="M149 172q0 -110 132 -110t132 110v337h80v-347q0 -82 -56 -127t-156 -45q-98 0 -155 43.5t-57 128.5v347h80v-337zM180 675q21 0 35 -13.5t14 -34.5t-14 -35t-35 -14t-34.5 14t-13.5 35t13.5 34.5t34.5 13.5zM380 675q21 0 34.5 -13.5t13.5 -34.5t-13.5 -35t-34.5 -14
t-35 14t-14 35t14 34.5t35 13.5z" />
    <glyph glyph-name="ugrave.small" horiz-adv-x="561" 
d="M149 172q0 -110 132 -110t132 110v337h80v-347q0 -82 -56 -127t-156 -45q-98 0 -155 43.5t-57 128.5v347h80v-337zM259 705l84 -141h-73l-102 141h91z" />
    <glyph glyph-name="uhungarumlaut.small" horiz-adv-x="561" 
d="M149 172q0 -110 132 -110t132 110v337h80v-347q0 -82 -56 -127t-156 -45q-98 0 -155 43.5t-57 128.5v347h80v-337zM303 705l-97 -141h-68l79 141h86zM473 705l-97 -141h-68l79 141h86z" />
    <glyph glyph-name="umacron.small" horiz-adv-x="561" 
d="M149 172q0 -110 132 -110t132 110v337h80v-347q0 -82 -56 -127t-156 -45q-98 0 -155 43.5t-57 128.5v347h80v-337zM430 654l-5 -63h-294l5 63h294z" />
    <glyph glyph-name="uogonek.small" horiz-adv-x="561" 
d="M389 -206q-30 -10 -60 -10q-57 0 -85.5 30t-28.5 74q0 55 51 103q-93 2 -145 46.5t-52 124.5v347h80v-337q0 -110 132 -110t132 110v337h80v-347q0 -129 -129 -162q-80 -43 -80 -105q0 -20 13 -34.5t41 -14.5q13 0 41 7z" />
    <glyph glyph-name="uring.small" horiz-adv-x="561" 
d="M149 172q0 -110 132 -110t132 110v337h80v-347q0 -82 -56 -127t-156 -45q-98 0 -155 43.5t-57 128.5v347h80v-337zM236 627q0 -21 12 -34.5t32 -13.5q21 0 33.5 13.5t12.5 34.5q0 22 -12.5 35.5t-33.5 13.5q-20 0 -32 -13.5t-12 -35.5zM179 627q0 45 28 73t73 28
q46 0 74.5 -28t28.5 -73t-28.5 -72.5t-74.5 -27.5q-45 0 -73 27.5t-28 72.5z" />
    <glyph glyph-name="utilde.small" horiz-adv-x="561" 
d="M149 172q0 -110 132 -110t132 110v337h80v-347q0 -82 -56 -127t-156 -45q-98 0 -155 43.5t-57 128.5v347h80v-337zM124 595q6 47 34.5 74t63.5 27q22 0 38.5 -9t30 -19.5l25 -19t23.5 -8.5q29 0 40 46l58 -12q-6 -45 -34 -72t-63 -27q-22 0 -39 8.5t-30.5 19l-25 19.5
t-23.5 9q-30 0 -41 -46z" />
    <glyph glyph-name="wacute.small" horiz-adv-x="778" 
d="M758 507l-155 -507h-97l-117 399l-115 -399h-96l-158 507l86 5l123 -433l118 427l84 5l120 -432l121 433zM502 705l-102 -141h-73l84 141h91z" />
    <glyph glyph-name="wcircumflex.small" horiz-adv-x="778" 
d="M758 507l-155 -507h-97l-117 399l-115 -399h-96l-158 507l86 5l123 -433l118 427l84 5l120 -432l121 433zM539 564h-82l-68 87l-68 -87h-81l109 141h81z" />
    <glyph glyph-name="wdieresis.small" horiz-adv-x="778" 
d="M758 507l-155 -507h-97l-117 399l-115 -399h-96l-158 507l86 5l123 -433l118 427l84 5l120 -432l121 433zM289 675q21 0 35 -13.5t14 -34.5t-14 -35t-35 -14t-34.5 14t-13.5 35t13.5 34.5t34.5 13.5zM489 675q21 0 34.5 -13.5t13.5 -34.5t-13.5 -35t-34.5 -14t-35 14
t-14 35t14 34.5t35 13.5z" />
    <glyph glyph-name="wgrave.small" horiz-adv-x="778" 
d="M758 507l-155 -507h-97l-117 399l-115 -399h-96l-158 507l86 5l123 -433l118 427l84 5l120 -432l121 433zM368 705l84 -141h-73l-102 141h91z" />
    <glyph glyph-name="yacute.small" horiz-adv-x="472" 
d="M206 200l-195 306l94 5l141 -238l143 238l91 -5l-194 -306v-200h-80v200zM366 705l-102 -141h-73l84 141h91z" />
    <glyph glyph-name="ycircumflex.small" horiz-adv-x="472" 
d="M206 200l-195 306l94 5l141 -238l143 238l91 -5l-194 -306v-200h-80v200zM395 564h-82l-68 87l-68 -87h-81l109 141h81z" />
    <glyph glyph-name="ydieresis.small" horiz-adv-x="472" 
d="M206 200l-195 306l94 5l141 -238l143 238l91 -5l-194 -306v-200h-80v200zM145 675q21 0 35 -13.5t14 -34.5t-14 -35t-35 -14t-34.5 14t-13.5 35t13.5 34.5t34.5 13.5zM345 675q21 0 34.5 -13.5t13.5 -34.5t-13.5 -35t-34.5 -14t-35 14t-14 35t14 34.5t35 13.5z" />
    <glyph glyph-name="ygrave.small" horiz-adv-x="472" 
d="M206 200l-195 306l94 5l141 -238l143 238l91 -5l-194 -306v-200h-80v200zM217 705l84 -141h-73l-102 141h91z" />
    <glyph glyph-name="zacute.small" horiz-adv-x="483" 
d="M442 72l-6 -72h-390l-5 67l297 370h-297l6 72h390l5 -67l-297 -370h297zM362 705l-102 -141h-73l84 141h91z" />
    <glyph glyph-name="zcaron.small" horiz-adv-x="483" 
d="M442 72l-6 -72h-390l-5 67l297 370h-297l6 72h390l5 -67l-297 -370h297zM92 705h82l68 -87l68 87h81l-109 -141h-81z" />
    <glyph glyph-name="zdotaccent.small" horiz-adv-x="483" 
d="M442 72l-6 -72h-390l-5 67l297 370h-297l6 72h390l5 -67l-297 -370h297zM242 679q23 0 37.5 -14.5t14.5 -37.5t-14.5 -37.5t-37.5 -14.5t-37.5 14.5t-14.5 37.5t14.5 37.5t37.5 14.5z" />
    <glyph glyph-name="aeacute.small" horiz-adv-x="766" 
d="M-14 0l337 509h401l-5 -72h-268v-150h232l-5 -69h-227v-146h273l-5 -72h-348v116h-214l-77 -116h-94zM371 185v262l-173 -262h173zM546 705l-102 -141h-73l84 141h91z" />
    <glyph glyph-name="oslashacute.small" horiz-adv-x="623" 
d="M546 551l-60 -87q78 -67 78 -209q0 -128 -63.5 -196.5t-188.5 -68.5q-78 0 -133 27l-57 -83l-48 24l61 88q-76 68 -76 209q0 128 64 196t189 68q76 0 129 -26l57 82zM483 254q0 91 -43 143l-217 -316q37 -19 89 -19q83 0 127 48.5t44 143.5zM140 254q0 -93 41 -140
l217 315q-38 18 -86 18q-85 0 -128.5 -49.5t-43.5 -143.5zM424 705l-102 -141h-73l84 141h91z" />
    <glyph glyph-name="e.small_alt" horiz-adv-x="504" 
d="M313 447q-77 0 -121 -41.5t-51 -118.5h240l-6 -69h-234q7 -73 50.5 -114.5t121.5 -41.5q66 0 139 23l11 -71q-77 -24 -154 -24q-121 0 -185.5 68t-64.5 196t65 196.5t185 68.5q71 0 154 -24l-11 -72q-70 24 -139 24z" />
    <glyph glyph-name="i.small_alt" horiz-adv-x="388" 
d="M339 72l-5 -72h-285l5 72h100v365h-105l5 72h285l-5 -72h-100v-365h105z" />
    <glyph glyph-name="r.small_alt" horiz-adv-x="501" 
d="M149 0h-80v509h152q100 0 158 -40.5t58 -124.5q0 -101 -97 -148q23 -133 91 -133q28 0 65 13l9 -70q-47 -16 -89 -16q-117 0 -151 184l-47 -3q-26 0 -69 5v-176zM149 248q35 -5 71 -5q60 0 98 26t38 75q0 93 -137 93h-70v-189z" />
    <glyph glyph-name="u.small_alt" horiz-adv-x="561" 
d="M413 509h80v-509h-70l-10 58q-112 -68 -184 -68q-76 0 -118 40.5t-42 117.5v361h80v-348q0 -46 25.5 -71t71.5 -25q68 0 167 64v380z" />
    <glyph glyph-name="y.small_alt" horiz-adv-x="561" 
d="M493 186q0 -91 -54 -143.5t-162 -52.5q-81 0 -180 33l13 71q97 -33 165 -33q140 0 140 128v68q-110 -69 -186 -69q-77 0 -118.5 41.5t-41.5 116.5v163h80v-150q0 -45 25 -70.5t72 -25.5q71 0 167 64v182h80v-323z" />
    <glyph glyph-name="eacute.small_alt" horiz-adv-x="504" 
d="M313 447q-77 0 -121 -41.5t-51 -118.5h240l-6 -69h-234q7 -73 50.5 -114.5t121.5 -41.5q66 0 139 23l11 -71q-77 -24 -154 -24q-121 0 -185.5 68t-64.5 196t65 196.5t185 68.5q71 0 154 -24l-11 -72q-70 24 -139 24zM409 705l-102 -141h-73l84 141h91z" />
    <glyph glyph-name="ebreve.small_alt" horiz-adv-x="504" 
d="M313 447q-77 0 -121 -41.5t-51 -118.5h240l-6 -69h-234q7 -73 50.5 -114.5t121.5 -41.5q66 0 139 23l11 -71q-77 -24 -154 -24q-121 0 -185.5 68t-64.5 196t65 196.5t185 68.5q71 0 154 -24l-11 -72q-70 24 -139 24zM205 706q2 -38 24 -59.5t60 -21.5q35 0 58 21.5
t24 59.5l63 -6q0 -65 -41 -101.5t-104 -36.5q-64 0 -105.5 36.5t-41.5 101.5z" />
    <glyph glyph-name="ecaron.small_alt" horiz-adv-x="504" 
d="M313 447q-77 0 -121 -41.5t-51 -118.5h240l-6 -69h-234q7 -73 50.5 -114.5t121.5 -41.5q66 0 139 23l11 -71q-77 -24 -154 -24q-121 0 -185.5 68t-64.5 196t65 196.5t185 68.5q71 0 154 -24l-11 -72q-70 24 -139 24zM139 705h82l68 -87l68 87h81l-109 -141h-81z" />
    <glyph glyph-name="ecircumflex.small_alt" horiz-adv-x="504" 
d="M313 447q-77 0 -121 -41.5t-51 -118.5h240l-6 -69h-234q7 -73 50.5 -114.5t121.5 -41.5q66 0 139 23l11 -71q-77 -24 -154 -24q-121 0 -185.5 68t-64.5 196t65 196.5t185 68.5q71 0 154 -24l-11 -72q-70 24 -139 24zM438 564h-82l-68 87l-68 -87h-81l109 141h81z" />
    <glyph glyph-name="edieresis.small_alt" horiz-adv-x="504" 
d="M313 447q-77 0 -121 -41.5t-51 -118.5h240l-6 -69h-234q7 -73 50.5 -114.5t121.5 -41.5q66 0 139 23l11 -71q-77 -24 -154 -24q-121 0 -185.5 68t-64.5 196t65 196.5t185 68.5q71 0 154 -24l-11 -72q-70 24 -139 24zM188 675q21 0 35 -13.5t14 -34.5t-14 -35t-35 -14
t-34.5 14t-13.5 35t13.5 34.5t34.5 13.5zM388 675q21 0 34.5 -13.5t13.5 -34.5t-13.5 -35t-34.5 -14t-35 14t-14 35t14 34.5t35 13.5z" />
    <glyph glyph-name="edotaccent.small_alt" horiz-adv-x="504" 
d="M313 447q-77 0 -121 -41.5t-51 -118.5h240l-6 -69h-234q7 -73 50.5 -114.5t121.5 -41.5q66 0 139 23l11 -71q-77 -24 -154 -24q-121 0 -185.5 68t-64.5 196t65 196.5t185 68.5q71 0 154 -24l-11 -72q-70 24 -139 24zM288 679q23 0 37.5 -14.5t14.5 -37.5t-14.5 -37.5
t-37.5 -14.5t-37.5 14.5t-14.5 37.5t14.5 37.5t37.5 14.5z" />
    <glyph glyph-name="egrave.small_alt" horiz-adv-x="504" 
d="M313 447q-77 0 -121 -41.5t-51 -118.5h240l-6 -69h-234q7 -73 50.5 -114.5t121.5 -41.5q66 0 139 23l11 -71q-77 -24 -154 -24q-121 0 -185.5 68t-64.5 196t65 196.5t185 68.5q71 0 154 -24l-11 -72q-70 24 -139 24zM262 705l84 -141h-73l-102 141h91z" />
    <glyph glyph-name="emacron.small_alt" horiz-adv-x="504" 
d="M313 447q-77 0 -121 -41.5t-51 -118.5h240l-6 -69h-234q7 -73 50.5 -114.5t121.5 -41.5q66 0 139 23l11 -71q-77 -24 -154 -24q-121 0 -185.5 68t-64.5 196t65 196.5t185 68.5q71 0 154 -24l-11 -72q-70 24 -139 24zM438 654l-5 -63h-294l5 63h294z" />
    <glyph glyph-name="eogonek.small_alt" horiz-adv-x="504" 
d="M313 447q-77 0 -121 -41.5t-51 -118.5h240l-6 -69h-234q7 -73 50.5 -114.5t121.5 -41.5q66 0 139 23l11 -71q-45 -22 -68 -53.5t-23 -64.5q0 -20 13.5 -35t41.5 -15q14 0 42 7l9 -59q-30 -10 -59 -10q-57 0 -85.5 30.5t-28.5 76.5q0 52 44 101l-40 -2q-121 0 -185.5 68
t-64.5 196t65 196.5t185 68.5q71 0 154 -24l-11 -72q-70 24 -139 24z" />
    <glyph glyph-name="iacute.small_alt" horiz-adv-x="388" 
d="M339 72l-5 -72h-285l5 72h100v365h-105l5 72h285l-5 -72h-100v-365h105zM306 705l-102 -141h-73l84 141h91z" />
    <glyph glyph-name="ibreve.small_alt" horiz-adv-x="388" 
d="M339 72l-5 -72h-285l5 72h100v365h-105l5 72h285l-5 -72h-100v-365h105zM111 706q2 -38 24 -59.5t60 -21.5q35 0 58 21.5t24 59.5l63 -6q0 -65 -41 -101.5t-104 -36.5q-64 0 -105.5 36.5t-41.5 101.5z" />
    <glyph glyph-name="icircumflex.small_alt" horiz-adv-x="388" 
d="M339 72l-5 -72h-285l5 72h100v365h-105l5 72h285l-5 -72h-100v-365h105zM344 564h-82l-68 87l-68 -87h-81l109 141h81z" />
    <glyph glyph-name="idieresis.small_alt" horiz-adv-x="388" 
d="M339 72l-5 -72h-285l5 72h100v365h-105l5 72h285l-5 -72h-100v-365h105zM94 675q21 0 35 -13.5t14 -34.5t-14 -35t-35 -14t-34.5 14t-13.5 35t13.5 34.5t34.5 13.5zM294 675q21 0 34.5 -13.5t13.5 -34.5t-13.5 -35t-34.5 -14t-35 14t-14 35t14 34.5t35 13.5z" />
    <glyph glyph-name="idotaccent.small_alt" horiz-adv-x="388" 
d="M339 72l-5 -72h-285l5 72h100v365h-105l5 72h285l-5 -72h-100v-365h105zM194 679q23 0 37.5 -14.5t14.5 -37.5t-14.5 -37.5t-37.5 -14.5t-37.5 14.5t-14.5 37.5t14.5 37.5t37.5 14.5z" />
    <glyph glyph-name="igrave.small_alt" horiz-adv-x="388" 
d="M339 72l-5 -72h-285l5 72h100v365h-105l5 72h285l-5 -72h-100v-365h105zM172 705l84 -141h-73l-102 141h91z" />
    <glyph glyph-name="imacron.small_alt" horiz-adv-x="388" 
d="M339 72l-5 -72h-285l5 72h100v365h-105l5 72h285l-5 -72h-100v-365h105zM344 654l-5 -63h-294l5 63h294z" />
    <glyph glyph-name="iogonek.small_alt" horiz-adv-x="388" 
d="M339 72l-5 -72h-78q-80 -43 -80 -105q0 -20 13 -34.5t41 -14.5q13 0 41 7l10 -59q-30 -10 -60 -10q-57 0 -85.5 30t-28.5 74q0 61 62 112h-120l5 72h100v365h-105l5 72h285l-5 -72h-100v-365h105z" />
    <glyph glyph-name="itilde.small_alt" horiz-adv-x="388" 
d="M339 72l-5 -72h-285l5 72h100v365h-105l5 72h285l-5 -72h-100v-365h105zM38 595q6 47 34.5 74t63.5 27q22 0 38.5 -9t30 -19.5l25 -19t23.5 -8.5q29 0 40 46l58 -12q-6 -45 -34 -72t-63 -27q-22 0 -39 8.5t-30.5 19l-25 19.5t-23.5 9q-30 0 -41 -46z" />
    <glyph glyph-name="racute.small_alt" horiz-adv-x="501" 
d="M149 0h-80v509h152q100 0 158 -40.5t58 -124.5q0 -101 -97 -148q23 -133 91 -133q28 0 65 13l9 -70q-47 -16 -89 -16q-117 0 -151 184l-47 -3q-26 0 -69 5v-176zM149 248q35 -5 71 -5q60 0 98 26t38 75q0 93 -137 93h-70v-189zM327 705l-102 -141h-73l84 141h91z" />
    <glyph glyph-name="rcaron.small_alt" horiz-adv-x="501" 
d="M149 0h-80v509h152q100 0 158 -40.5t58 -124.5q0 -101 -97 -148q23 -133 91 -133q28 0 65 13l9 -70q-47 -16 -89 -16q-117 0 -151 184l-47 -3q-26 0 -69 5v-176zM149 248q35 -5 71 -5q60 0 98 26t38 75q0 93 -137 93h-70v-189zM75 705h82l68 -87l68 87h81l-109 -141h-81z
" />
    <glyph glyph-name="rcommaaccent.small_alt" horiz-adv-x="501" 
d="M149 0h-80v509h152q100 0 158 -40.5t58 -124.5q0 -101 -97 -148q23 -133 91 -133q28 0 65 13l9 -70q-47 -16 -89 -16q-117 0 -151 184l-47 -3q-26 0 -69 5v-176zM149 248q35 -5 71 -5q60 0 98 26t38 75q0 93 -137 93h-70v-189zM266 -66q22 -30 22 -64q0 -49 -37 -86
l-65 4q30 34 30 66q0 35 -26 71z" />
    <glyph glyph-name="uacute.small_alt" horiz-adv-x="561" 
d="M413 509h80v-509h-70l-10 58q-112 -68 -184 -68q-76 0 -118 40.5t-42 117.5v361h80v-348q0 -46 25.5 -71t71.5 -25q68 0 167 64v380zM393 705l-102 -141h-73l84 141h91z" />
    <glyph glyph-name="ubreve.small_alt" horiz-adv-x="561" 
d="M413 509h80v-509h-70l-10 58q-112 -68 -184 -68q-76 0 -118 40.5t-42 117.5v361h80v-348q0 -46 25.5 -71t71.5 -25q68 0 167 64v380zM198 706q2 -38 24 -59.5t60 -21.5q35 0 58 21.5t24 59.5l63 -6q0 -65 -41 -101.5t-104 -36.5q-64 0 -105.5 36.5t-41.5 101.5z" />
    <glyph glyph-name="ucircumflex.small_alt" horiz-adv-x="561" 
d="M413 509h80v-509h-70l-10 58q-112 -68 -184 -68q-76 0 -118 40.5t-42 117.5v361h80v-348q0 -46 25.5 -71t71.5 -25q68 0 167 64v380zM430 564h-82l-68 87l-68 -87h-81l109 141h81z" />
    <glyph glyph-name="udieresis.small_alt" horiz-adv-x="561" 
d="M413 509h80v-509h-70l-10 58q-112 -68 -184 -68q-76 0 -118 40.5t-42 117.5v361h80v-348q0 -46 25.5 -71t71.5 -25q68 0 167 64v380zM180 675q21 0 35 -13.5t14 -34.5t-14 -35t-35 -14t-34.5 14t-13.5 35t13.5 34.5t34.5 13.5zM380 675q21 0 34.5 -13.5t13.5 -34.5
t-13.5 -35t-34.5 -14t-35 14t-14 35t14 34.5t35 13.5z" />
    <glyph glyph-name="ugrave.small_alt" horiz-adv-x="561" 
d="M413 509h80v-509h-70l-10 58q-112 -68 -184 -68q-76 0 -118 40.5t-42 117.5v361h80v-348q0 -46 25.5 -71t71.5 -25q68 0 167 64v380zM259 705l84 -141h-73l-102 141h91z" />
    <glyph glyph-name="uhungarumlaut.small_alt" horiz-adv-x="561" 
d="M413 509h80v-509h-70l-10 58q-112 -68 -184 -68q-76 0 -118 40.5t-42 117.5v361h80v-348q0 -46 25.5 -71t71.5 -25q68 0 167 64v380zM303 705l-97 -141h-68l79 141h86zM473 705l-97 -141h-68l79 141h86z" />
    <glyph glyph-name="umacron.small_alt" horiz-adv-x="561" 
d="M413 509h80v-509h-70l-10 58q-112 -68 -184 -68q-76 0 -118 40.5t-42 117.5v361h80v-348q0 -46 25.5 -71t71.5 -25q68 0 167 64v380zM430 654l-5 -63h-294l5 63h294z" />
    <glyph glyph-name="uogonek.small_alt" horiz-adv-x="561" 
d="M517 -206q-30 -10 -60 -10q-57 0 -85.5 30t-28.5 74q0 69 78 124l-8 46q-112 -68 -184 -68q-76 0 -118 40.5t-42 117.5v361h80v-348q0 -46 25.5 -71t71.5 -25q68 0 167 64v380h80v-509h-1q-80 -43 -80 -105q0 -20 13 -34.5t41 -14.5q13 0 41 7z" />
    <glyph glyph-name="uring.small_alt" horiz-adv-x="561" 
d="M413 509h80v-509h-70l-10 58q-112 -68 -184 -68q-76 0 -118 40.5t-42 117.5v361h80v-348q0 -46 25.5 -71t71.5 -25q68 0 167 64v380zM236 627q0 -21 12 -34.5t32 -13.5q21 0 33.5 13.5t12.5 34.5q0 22 -12.5 35.5t-33.5 13.5q-20 0 -32 -13.5t-12 -35.5zM179 627
q0 45 28 73t73 28q46 0 74.5 -28t28.5 -73t-28.5 -72.5t-74.5 -27.5q-45 0 -73 27.5t-28 72.5z" />
    <glyph glyph-name="utilde.small_alt" horiz-adv-x="561" 
d="M413 509h80v-509h-70l-10 58q-112 -68 -184 -68q-76 0 -118 40.5t-42 117.5v361h80v-348q0 -46 25.5 -71t71.5 -25q68 0 167 64v380zM124 595q6 47 34.5 74t63.5 27q22 0 38.5 -9t30 -19.5l25 -19t23.5 -8.5q29 0 40 46l58 -12q-6 -45 -34 -72t-63 -27q-22 0 -39 8.5
t-30.5 19l-25 19.5t-23.5 9q-30 0 -41 -46z" />
    <glyph glyph-name="yacute.small_alt" horiz-adv-x="561" 
d="M493 186q0 -91 -54 -143.5t-162 -52.5q-81 0 -180 33l13 71q97 -33 165 -33q140 0 140 128v68q-110 -69 -186 -69q-77 0 -118.5 41.5t-41.5 116.5v163h80v-150q0 -45 25 -70.5t72 -25.5q71 0 167 64v182h80v-323zM393 705l-102 -141h-73l84 141h91z" />
    <glyph glyph-name="ycircumflex.small_alt" horiz-adv-x="561" 
d="M493 186q0 -91 -54 -143.5t-162 -52.5q-81 0 -180 33l13 71q97 -33 165 -33q140 0 140 128v68q-110 -69 -186 -69q-77 0 -118.5 41.5t-41.5 116.5v163h80v-150q0 -45 25 -70.5t72 -25.5q71 0 167 64v182h80v-323zM430 564h-82l-68 87l-68 -87h-81l109 141h81z" />
    <glyph glyph-name="ydieresis.small_alt" horiz-adv-x="561" 
d="M493 186q0 -91 -54 -143.5t-162 -52.5q-81 0 -180 33l13 71q97 -33 165 -33q140 0 140 128v68q-110 -69 -186 -69q-77 0 -118.5 41.5t-41.5 116.5v163h80v-150q0 -45 25 -70.5t72 -25.5q71 0 167 64v182h80v-323zM180 675q21 0 35 -13.5t14 -34.5t-14 -35t-35 -14
t-34.5 14t-13.5 35t13.5 34.5t34.5 13.5zM380 675q21 0 34.5 -13.5t13.5 -34.5t-13.5 -35t-34.5 -14t-35 14t-14 35t14 34.5t35 13.5z" />
    <glyph glyph-name="ygrave.small_alt" horiz-adv-x="561" 
d="M493 186q0 -91 -54 -143.5t-162 -52.5q-81 0 -180 33l13 71q97 -33 165 -33q140 0 140 128v68q-110 -69 -186 -69q-77 0 -118.5 41.5t-41.5 116.5v163h80v-150q0 -45 25 -70.5t72 -25.5q71 0 167 64v182h80v-323zM259 705l84 -141h-73l-102 141h91z" />
    <glyph glyph-name="f_f" unicode="&#xfb00;" horiz-adv-x="654" 
d="M101 585q0 173 144 173q42 0 98 -15l-7 -70q-43 13 -78 13q-40 0 -58.5 -26t-18.5 -84v-97h227v106q0 173 144 173q43 0 99 -15l-7 -70q-45 13 -78 13q-40 0 -59 -25.5t-19 -84.5v-97h147l-5 -72h-142v-407h-80v407h-227v-407h-80v407h-80l6 72h74v106z" />
    <glyph glyph-name="f_b" horiz-adv-x="882" 
d="M408 677q-66 9 -109 9q-65 0 -91.5 -24.5t-26.5 -86.5v-96h142l-6 -72h-136v-407h-80v407h-80l6 72h74v106q0 92 45 132t151 41q77 0 191 -16v-318q108 65 176 65q81 0 125 -66.5t44 -183.5q0 -122 -55 -185.5t-159 -63.5q-96 0 -211 41v646zM488 84q64 -22 131 -22
q64 0 98.5 46t34.5 133q0 82 -26 127t-77 45q-38 0 -79.5 -18.5t-81.5 -39.5v-271z" />
    <glyph glyph-name="f_h" horiz-adv-x="875" 
d="M488 0h-80v677q-66 9 -109 9q-65 0 -91.5 -24.5t-26.5 -86.5v-96h142l-6 -72h-136v-407h-80v407h-80l6 72h74v106q0 92 45 132t151 41q77 0 191 -16v-318q113 65 183 65q65 0 100 -41t35 -118v-330h-80v316q0 97 -77 97q-38 0 -79.5 -18.5t-81.5 -39.5v-355z" />
    <glyph glyph-name="f_j" horiz-adv-x="557" 
d="M488 27q0 -79 -31.5 -134.5t-98.5 -108.5l-60 48q52 43 81 88.5t29 107.5v379h-227v-407h-80v407h-80l6 72h74v106q0 173 141 173q42 0 96 -15l-7 -70q-43 13 -75 13q-40 0 -57.5 -26.5t-17.5 -83.5v-97h307v-452zM448 659q23 0 37.5 -14.5t14.5 -37.5t-14.5 -37.5
t-37.5 -14.5t-37.5 14.5t-14.5 37.5t14.5 37.5t37.5 14.5z" />
    <glyph glyph-name="f_k" horiz-adv-x="823" 
d="M488 225v-225h-80v677q-66 9 -109 9q-65 0 -91.5 -24.5t-26.5 -86.5v-96h142l-6 -72h-136v-407h-80v407h-80l6 72h74v106q0 92 45 132t151 41q77 0 191 -16v-470l206 209l97 -5l-224 -224l248 -249l-103 -6z" />
    <glyph glyph-name="f_t" horiz-adv-x="684" 
d="M408 407h-227v-407h-80v407h-80l6 72h74v106q0 173 142 173q42 0 98 -15l-7 -70q-43 13 -77 13q-39 0 -57.5 -26t-18.5 -84v-97h227v149l80 5v-154h147l-5 -72h-142v-237q0 -108 81 -108q33 0 77 11l7 -67q-53 -16 -98 -16q-72 0 -109.5 44t-37.5 129v244z" />
    <glyph glyph-name="f_f_b" horiz-adv-x="1189" 
d="M101 585q0 173 144 173q42 0 98 -15l-7 -70q-43 13 -78 13q-40 0 -58.5 -26t-18.5 -84v-97h227v106q0 92 46 132.5t151 40.5q77 0 191 -16v-318q108 65 176 65q80 0 124 -64.5t44 -185.5q0 -122 -55 -185.5t-159 -63.5q-95 0 -210 41v646q-66 9 -110 9q-63 0 -90.5 -24
t-27.5 -87v-96h142l-5 -72h-137v-407h-80v407h-227v-407h-80v407h-80l6 72h74v106zM796 84q62 -22 131 -22q64 0 98 46.5t34 132.5q0 82 -26 127t-76 45q-38 0 -79.5 -18.5t-81.5 -39.5v-271z" />
    <glyph glyph-name="f_f_h" horiz-adv-x="1182" 
d="M101 585q0 173 144 173q42 0 98 -15l-7 -70q-43 13 -78 13q-40 0 -58.5 -26t-18.5 -84v-97h227v106q0 92 46 132.5t151 40.5q77 0 191 -16v-318q113 65 182 65q65 0 100 -41t35 -118v-330h-80v316q0 97 -76 97q-38 0 -80 -18.5t-81 -39.5v-355h-80v677q-66 9 -110 9
q-63 0 -90.5 -24t-27.5 -87v-96h142l-5 -72h-137v-407h-80v407h-227v-407h-80v407h-80l6 72h74v106z" />
    <glyph glyph-name="ffi" unicode="&#xfb03;" horiz-adv-x="865" 
d="M101 585q0 173 144 173q42 0 98 -15l-7 -70q-43 13 -78 13q-40 0 -58.5 -26t-18.5 -84v-97h227v106q0 173 141 173q41 0 97 -15l-7 -70q-43 13 -76 13q-39 0 -57 -25t-18 -85v-97h308v-479h-80v407h-228v-407h-80v407h-227v-407h-80v407h-80l6 72h74v106zM756 659
q23 0 37.5 -14.5t14.5 -37.5t-14.5 -37.5t-37.5 -14.5t-37.5 14.5t-14.5 37.5t14.5 37.5t37.5 14.5z" />
    <glyph glyph-name="f_f_j" horiz-adv-x="865" 
d="M796 27q0 -79 -31.5 -134.5t-98.5 -108.5l-60 48q51 43 80.5 88.5t29.5 107.5v379h-228v-407h-80v407h-227v-407h-80v407h-80l6 72h74v106q0 173 144 173q42 0 98 -15l-7 -70q-43 13 -78 13q-40 0 -58.5 -26t-18.5 -84v-97h227v106q0 173 141 173q41 0 97 -15l-7 -70
q-43 13 -76 13q-39 0 -57 -25t-18 -85v-97h308v-452zM756 659q23 0 37.5 -14.5t14.5 -37.5t-14.5 -37.5t-37.5 -14.5t-37.5 14.5t-14.5 37.5t14.5 37.5t37.5 14.5z" />
    <glyph glyph-name="f_f_k" horiz-adv-x="1130" 
d="M796 224v-224h-80v677q-66 9 -110 9q-63 0 -90.5 -24t-27.5 -87v-96h142l-5 -72h-137v-407h-80v407h-227v-407h-80v407h-80l6 72h74v106q0 173 144 173q42 0 98 -15l-7 -70q-43 13 -78 13q-40 0 -58.5 -26t-18.5 -84v-97h227v106q0 92 46 132.5t151 40.5q77 0 191 -16
v-469l206 208l97 -5l-225 -224l249 -249l-103 -6z" />
    <glyph glyph-name="ffl" unicode="&#xfb04;" horiz-adv-x="932" 
d="M716 677q-66 9 -110 9q-63 0 -90.5 -24t-27.5 -87v-96h142l-5 -72h-137v-407h-80v407h-227v-407h-80v407h-80l6 72h74v106q0 173 144 173q42 0 98 -15l-7 -70q-43 13 -78 13q-40 0 -58.5 -26t-18.5 -84v-97h227v106q0 92 46 132.5t151 40.5q77 0 191 -16v-622
q0 -57 47 -57q29 0 78 15l7 -69q-59 -19 -106 -19q-45 0 -75.5 27.5t-30.5 93.5v566z" />
    <glyph glyph-name="longs" unicode="&#x17f;" horiz-adv-x="315" 
d="M69 585q0 173 144 173q42 0 98 -15l-7 -70q-43 13 -78 13q-40 0 -58.5 -26t-18.5 -84v-576h-80v585z" />
    <glyph glyph-name="fl.alt" horiz-adv-x="557" 
d="M101 585q0 92 45 132t151 41q77 0 191 -16v-742h-80v677q-66 9 -109 9q-65 0 -91.5 -24.5t-26.5 -86.5v-96h142l-6 -72h-136v-407h-80v407h-80l6 72h74v106z" />
    <glyph glyph-name="ffl.alt" horiz-adv-x="865" 
d="M101 585q0 173 144 173q42 0 98 -15l-7 -70q-43 13 -78 13q-40 0 -58.5 -26t-18.5 -84v-97h227v106q0 92 46 132.5t151 40.5q77 0 191 -16v-742h-80v677q-66 9 -110 9q-63 0 -90.5 -24t-27.5 -87v-96h142l-5 -72h-137v-407h-80v407h-227v-407h-80v407h-80l6 72h74v106z
" />
    <glyph glyph-name="a.superior" horiz-adv-x="303" 
d="M197 663q0 47 -42 47q-38 0 -109 -23l-9 56q70 24 129 24q45 0 70 -22t25 -79v-206h-48l-9 33q-45 -39 -98 -39q-33 0 -57.5 19.5t-24.5 61.5q0 49 41.5 72t131.5 30v26zM121 505q42 0 76 34v53q-57 -5 -84.5 -17t-27.5 -36q0 -34 36 -34z" />
    <glyph glyph-name="b.superior" horiz-adv-x="348" 
d="M42 929l64 4v-204q65 38 106 38q46 0 76 -38t30 -119q0 -76 -36.5 -116t-103.5 -40q-63 0 -136 25v450zM106 523q33 -12 72 -12q75 0 75 101q0 94 -58 94q-26 0 -89 -30v-153z" />
    <glyph glyph-name="c.superior" horiz-adv-x="282" 
d="M169 454q-62 0 -100.5 36.5t-38.5 119.5q0 157 139 157q42 0 90 -10l-8 -56q-41 9 -77 9q-79 0 -79 -100q0 -99 79 -99q31 0 77 8l8 -56q-43 -9 -90 -9z" />
    <glyph glyph-name="d.superior" horiz-adv-x="348" 
d="M242 929l63 4v-473h-57l-6 32q-65 -38 -106 -38q-46 0 -76 38t-30 118q0 75 34.5 116t93.5 41q40 0 84 -19v181zM242 695q-43 15 -72 15q-75 0 -75 -101q0 -95 57 -95q25 0 90 31v150z" />
    <glyph glyph-name="e.superior" horiz-adv-x="316" 
d="M93 589q4 -80 80 -80q42 0 90 16l8 -51q-50 -20 -102 -20q-68 0 -103.5 40t-35.5 116q0 75 34.5 116t102.5 41q61 0 90.5 -38t29.5 -96l-3 -44h-191zM164 715q-66 0 -70 -81h129v8q0 32 -15 52.5t-44 20.5z" />
    <glyph glyph-name="egrave.superior" horiz-adv-x="316" 
d="M93 589q4 -80 80 -80q42 0 90 16l8 -51q-50 -20 -102 -20q-68 0 -103.5 40t-35.5 116q0 75 34.5 116t102.5 41q61 0 90.5 -38t29.5 -96l-3 -44h-191zM164 715q-66 0 -70 -81h129v8q0 32 -15 52.5t-44 20.5zM152 901l53 -101h-56l-68 101h71z" />
    <glyph glyph-name="f.superior" horiz-adv-x="227" 
d="M62 821q0 112 96 112q28 0 65 -10l-5 -54q-30 7 -47 7q-44 0 -44 -61v-54h87l-4 -57h-83v-244h-65v244h-49l4 57h45v60z" />
    <glyph glyph-name="g.superior" horiz-adv-x="325" 
d="M274 667q0 -48 -30.5 -74.5t-88.5 -26.5h-11l-9 1q-15 -16 -15 -29q0 -21 32 -21h28q127 0 127 -86q0 -47 -44.5 -76.5t-117.5 -29.5q-65 0 -93 24.5t-28 56.5q0 48 54 81q-15 15 -15 39q0 31 25 53q-50 24 -50 88q0 47 29.5 73.5t87.5 26.5q31 0 48 -6h101l-4 -55h-35
q9 -18 9 -39zM171 464h-36l-9 1q-43 -21 -43 -56q0 -15 16 -26.5t49 -11.5q48 0 72.5 16.5t24.5 37.5q0 39 -74 39zM213 667q0 52 -58 52q-57 0 -57 -52q0 -53 57 -53q58 0 58 53z" />
    <glyph glyph-name="h.superior" horiz-adv-x="345" 
d="M106 460h-64v469l64 4v-204q70 38 113 38q39 0 61.5 -25t22.5 -74v-208h-64v192q0 54 -44 54q-26 0 -89 -30v-216z" />
    <glyph glyph-name="i.superior" horiz-adv-x="148" 
d="M106 763v-303h-64v299zM74 882q17 0 28 -11t11 -28t-11 -28t-28 -11t-28 11t-11 28t11 28t28 11z" />
    <glyph glyph-name="j.superior" horiz-adv-x="163" 
d="M121 763v-279q0 -48 -18 -83.5t-65 -74.5l-48 38q68 57 68 120v275zM90 882q17 0 28 -11t11 -28t-11 -28t-28 -11t-28.5 11t-11.5 28t11.5 28t28.5 11z" />
    <glyph glyph-name="k.superior" horiz-adv-x="318" 
d="M106 597v-137h-64v469l64 4v-297l116 127l75 -4l-131 -140l146 -157l-79 -4z" />
    <glyph glyph-name="l.superior" horiz-adv-x="180" 
d="M106 933v-393q0 -28 23 -28q15 0 42 9l5 -55q-41 -12 -66 -12q-28 0 -48 18t-20 60v397z" />
    <glyph glyph-name="m.superior" horiz-adv-x="517" 
d="M278 729q68 38 118 38q38 0 58.5 -26t20.5 -73v-208h-64v192q0 54 -39 54q-34 0 -83 -27l2 -28v-191h-64v192q0 54 -39 54q-27 0 -82 -30v-216h-64v299l64 4v-34q65 38 106 38q45 0 66 -38z" />
    <glyph glyph-name="n.superior" unicode="&#x207f;" horiz-adv-x="345" 
d="M106 460h-64v299l64 4v-34q70 38 113 38q39 0 61.5 -25t22.5 -74v-208h-64v192q0 54 -44 54q-26 0 -89 -30v-216z" />
    <glyph glyph-name="o.superior" horiz-adv-x="349" 
d="M95 610q0 -99 80 -99q79 0 79 99q0 100 -79 100q-80 0 -80 -100zM30 610q0 81 39 119t106 38q66 0 105 -38t39 -119q0 -80 -39 -118t-105 -38q-67 0 -106 38t-39 118z" />
    <glyph glyph-name="p.superior" horiz-adv-x="348" 
d="M106 334l-64 -5v430l64 4v-34q65 38 106 38q46 0 76 -38t30 -119q0 -74 -34.5 -115t-93.5 -41q-37 0 -84 18v-138zM106 527q39 -16 72 -16q75 0 75 101q0 94 -58 94q-26 0 -89 -30v-149z" />
    <glyph glyph-name="q.superior" horiz-adv-x="348" 
d="M305 334l-63 -5v163q-65 -38 -106 -38q-46 0 -76 38t-30 118q0 75 35.5 116t104.5 41q62 0 135 -25v-408zM242 698q-38 12 -72 12q-75 0 -75 -101q0 -95 57 -95q25 0 90 31v153z" />
    <glyph glyph-name="r.superior" horiz-adv-x="242" 
d="M226 695q-27 8 -41 8q-19 0 -33.5 -11t-45.5 -51v-181h-64v299l64 4v-54q44 59 85 59q16 0 43 -7z" />
    <glyph glyph-name="s.superior" horiz-adv-x="277" 
d="M49 525q43 -17 88 -17q46 0 46 34v6q-2 18 -39 32q-69 25 -89.5 47.5t-20.5 53.5q0 86 110 86q51 0 93 -17l-9 -55q-43 18 -86 18q-45 0 -45 -31v-5q2 -18 40 -32q51 -19 69 -30.5t29.5 -28.5t11.5 -42q0 -90 -114 -90q-46 0 -93 17z" />
    <glyph glyph-name="t.superior" horiz-adv-x="244" 
d="M62 704h-49l4 57h45v93l65 3v-96h87l-4 -57h-83v-132q0 -61 45 -61q24 0 47 7l5 -55q-36 -9 -65 -9q-97 0 -97 112v138z" />
    <glyph glyph-name="u.superior" horiz-adv-x="345" 
d="M239 759l64 4v-303h-58l-6 32q-68 -38 -112 -38q-40 0 -62.5 25t-22.5 75v205l64 4v-193q0 -56 44 -56q24 0 89 31v214z" />
    <glyph glyph-name="v.superior" horiz-adv-x="311" 
d="M77 763l79 -236l78 236l70 -4l-108 -299h-82l-107 299z" />
    <glyph glyph-name="w.superior" horiz-adv-x="475" 
d="M77 763l62 -236l62 232l73 4l62 -236l62 236l70 -4l-91 -299h-77l-62 210l-63 -210h-77l-91 299z" />
    <glyph glyph-name="x.superior" horiz-adv-x="303" 
d="M221 763l73 -4l-102 -148l102 -149l-74 -4l-68 105l-69 -105l-74 4l102 148l-102 149l75 4l68 -106z" />
    <glyph glyph-name="y.superior" horiz-adv-x="311" 
d="M156 527l78 236l70 -4l-154 -430l-69 5l46 126h-13l-107 299l70 4z" />
    <glyph glyph-name="z.superior" horiz-adv-x="287" 
d="M264 518l-4 -58h-233l-4 53l158 191h-150l4 57h226l3 -53l-158 -190h158z" />
    <glyph glyph-name="a.inferior" horiz-adv-x="303" 
d="M197 53q0 47 -42 47q-38 0 -109 -23l-9 56q70 24 129 24q45 0 70 -22t25 -79v-206h-48l-9 33q-43 -39 -98 -39q-33 0 -57.5 19.5t-24.5 61.5q0 49 41.5 72t131.5 30v26zM121 -105q42 0 76 34v52q-112 -7 -112 -52q0 -34 36 -34z" />
    <glyph glyph-name="b.inferior" horiz-adv-x="348" 
d="M42 319l64 4v-204q65 38 106 38q46 0 76 -38t30 -119q0 -76 -36.5 -116t-103.5 -40q-63 0 -136 25v450zM106 -87q33 -12 72 -12q75 0 75 101q0 94 -58 94q-26 0 -89 -30v-153z" />
    <glyph glyph-name="c.inferior" horiz-adv-x="282" 
d="M169 -156q-62 0 -100.5 36.5t-38.5 119.5q0 157 139 157q42 0 90 -10l-8 -56q-41 9 -77 9q-79 0 -79 -100q0 -99 79 -99q31 0 77 8l8 -56q-43 -9 -90 -9z" />
    <glyph glyph-name="d.inferior" horiz-adv-x="348" 
d="M242 319l63 4v-473h-57l-6 32q-65 -38 -106 -38q-46 0 -76 37.5t-30 118.5q0 75 34.5 116t93.5 41q40 0 84 -19v181zM242 85q-42 15 -72 15q-75 0 -75 -101q0 -95 57 -95q25 0 90 31v150z" />
    <glyph glyph-name="e.inferior" horiz-adv-x="316" 
d="M93 -21q4 -81 80 -81q41 0 90 17l8 -51q-50 -20 -102 -20q-68 0 -103.5 40t-35.5 116q0 75 34.5 116t102.5 41q61 0 90.5 -38t29.5 -96l-3 -44h-191zM164 105q-66 0 -70 -81h129v8q0 32 -15 52.5t-44 20.5z" />
    <glyph glyph-name="f.inferior" horiz-adv-x="227" 
d="M62 211q0 112 96 112q28 0 65 -10l-5 -54q-30 7 -47 7q-44 0 -44 -61v-54h87l-4 -57h-83v-244h-65v244h-49l4 57h45v60z" />
    <glyph glyph-name="g.inferior" horiz-adv-x="325" 
d="M274 57q0 -48 -30.5 -74.5t-88.5 -26.5l-20 1q-15 -16 -15 -29q0 -21 32 -21h28q127 0 127 -86q0 -47 -44.5 -76.5t-117.5 -29.5q-65 0 -93 24.5t-28 55.5q0 49 54 82q-15 16 -15 39q0 31 25 53q-50 24 -50 88q0 47 29.5 73.5t87.5 26.5q31 0 48 -6h101l-4 -55h-35
q9 -18 9 -39zM146 -146l-20 2q-43 -23 -43 -57q0 -16 16 -27t49 -11q48 0 72.5 16t24.5 38q0 39 -74 39h-25zM213 57q0 52 -58 52q-57 0 -57 -52q0 -53 57 -53q58 0 58 53z" />
    <glyph glyph-name="h.inferior" horiz-adv-x="345" 
d="M106 -150h-64v469l64 4v-204q70 38 113 38q39 0 61.5 -25t22.5 -74v-208h-64v192q0 54 -44 54q-26 0 -89 -30v-216z" />
    <glyph glyph-name="i.inferior" horiz-adv-x="148" 
d="M106 153v-303h-64v299zM74 272q17 0 28 -11t11 -28t-11 -28t-28 -11t-28 11t-11 28t11 28t28 11z" />
    <glyph glyph-name="j.inferior" horiz-adv-x="163" 
d="M121 153v-280q0 -52 -19.5 -87t-63.5 -70l-48 38q68 57 68 120v275zM90 272q17 0 28 -11t11 -28t-11 -28t-28 -11t-28.5 11t-11.5 28t11.5 28t28.5 11z" />
    <glyph glyph-name="k.inferior" horiz-adv-x="318" 
d="M106 -12v-138h-64v469l64 4v-297l116 127l75 -4l-131 -140l146 -157l-79 -4z" />
    <glyph glyph-name="l.inferior" horiz-adv-x="180" 
d="M106 323v-394q0 -27 24 -27q15 0 41 8l5 -54q-41 -12 -66 -12q-28 0 -48 18t-20 60v397z" />
    <glyph glyph-name="m.inferior" horiz-adv-x="517" 
d="M278 119q68 38 118 38q38 0 58.5 -26t20.5 -73v-208h-64v192q0 54 -39 54q-34 0 -83 -27l2 -28v-191h-64v192q0 54 -39 54q-27 0 -82 -30v-216h-64v299l64 4v-34q65 38 106 38q45 0 66 -38z" />
    <glyph glyph-name="n.inferior" horiz-adv-x="345" 
d="M106 -150h-64v299l64 4v-34q70 38 113 38q39 0 61.5 -25t22.5 -74v-208h-64v192q0 54 -44 54q-26 0 -89 -30v-216z" />
    <glyph glyph-name="o.inferior" horiz-adv-x="349" 
d="M95 0q0 -99 80 -99q79 0 79 99q0 100 -79 100q-80 0 -80 -100zM30 0q0 81 39 119t106 38q66 0 105 -38t39 -119q0 -80 -39 -118t-105 -38q-67 0 -106 38t-39 118z" />
    <glyph glyph-name="p.inferior" horiz-adv-x="348" 
d="M106 -277l-64 -4v430l64 4v-34q65 38 106 38q46 0 76 -38t30 -119q0 -74 -34.5 -115t-93.5 -41q-37 0 -84 18v-139zM106 -84q43 -15 72 -15q75 0 75 101q0 94 -58 94q-26 0 -89 -30v-150z" />
    <glyph glyph-name="q.inferior" horiz-adv-x="348" 
d="M305 -277l-63 -4v163q-65 -38 -106 -38q-46 0 -76 37.5t-30 118.5q0 75 35.5 116t104.5 41q62 0 135 -25v-409zM242 88q-38 12 -72 12q-75 0 -75 -101q0 -95 57 -95q25 0 90 31v153z" />
    <glyph glyph-name="r.inferior" horiz-adv-x="242" 
d="M226 85q-27 8 -41 8q-19 0 -33.5 -11t-45.5 -51v-181h-64v299l64 4v-54q44 59 85 59q16 0 43 -7z" />
    <glyph glyph-name="s.inferior" horiz-adv-x="277" 
d="M49 -85q42 -17 88 -17t46 34q0 16 -12 24t-63 27q-74 27 -74 88q0 86 110 86q51 0 93 -17l-9 -55q-43 18 -86 18q-45 0 -45 -31v-5q2 -18 40 -32q51 -19 69.5 -30.5t29.5 -29.5t11 -42q0 -89 -114 -89q-51 0 -93 17z" />
    <glyph glyph-name="t.inferior" horiz-adv-x="244" 
d="M62 94h-49l4 57h45v93l65 3v-96h87l-4 -57h-83v-132q0 -28 9 -44.5t36 -16.5q24 0 47 7l5 -55q-36 -9 -65 -9q-97 0 -97 112v138z" />
    <glyph glyph-name="u.inferior" horiz-adv-x="345" 
d="M239 149l64 4v-303h-58l-6 32q-68 -38 -112 -38q-85 0 -85 99v206l64 4v-194q0 -55 44 -55q24 0 89 31v214z" />
    <glyph glyph-name="v.inferior" horiz-adv-x="311" 
d="M77 153l79 -236l78 236l70 -4l-108 -299h-82l-107 299z" />
    <glyph glyph-name="w.inferior" horiz-adv-x="475" 
d="M77 153l62 -236l62 232l73 4l62 -236l62 236l70 -4l-91 -299h-77l-62 210l-63 -210h-77l-91 299z" />
    <glyph glyph-name="x.inferior" horiz-adv-x="303" 
d="M221 153l73 -4l-102 -148l102 -149l-74 -4l-68 105l-69 -105l-74 4l102 148l-102 149l75 4l68 -106z" />
    <glyph glyph-name="y.inferior" horiz-adv-x="311" 
d="M156 -83l78 236l70 -4l-154 -430l-69 4l46 127h-13l-107 299l70 4z" />
    <glyph glyph-name="z.inferior" horiz-adv-x="287" 
d="M264 -93l-4 -57h-233l-4 53l158 191h-150l4 57h226l3 -53l-158 -191h158z" />
    <glyph glyph-name="dollar" unicode="$" horiz-adv-x="548" 
d="M313 711q90 -4 170 -38l-16 -78q-75 31 -154 37v-244q111 -46 152.5 -94t41.5 -109q0 -89 -53.5 -136t-140.5 -56v-110l-69 -5v113q-98 4 -179 39l16 78q76 -34 163 -38v251q-111 46 -153 93.5t-42 110.5q0 86 53.5 131.5t141.5 53.5v109l69 5v-113zM313 292v-220
q104 18 104 116q0 36 -26.5 58.5t-77.5 45.5zM244 417v214q-48 -7 -77 -33.5t-29 -73.5q0 -37 26.5 -60t79.5 -47z" />
    <glyph glyph-name="cent" unicode="&#xa2;" horiz-adv-x="486" 
d="M316 711q65 -3 129 -23l-11 -73q-73 23 -138 23q-84 0 -129 -49t-45 -142q0 -94 45 -142.5t129 -48.5q65 0 138 23l11 -71q-57 -19 -129 -24v-106l-70 -6v115q-101 14 -153 80t-52 181q0 116 53 182t152 79v110l70 5v-113z" />
    <glyph glyph-name="sterling" unicode="&#xa3;" horiz-adv-x="531" 
d="M183 365l-18 39q-26 49 -36 80t-10 64q0 77 43.5 120.5t119.5 43.5q93 0 180 -25l-17 -78q-83 25 -158 25q-38 0 -58.5 -23.5t-20.5 -59.5v-4q0 -27 31 -82q33 -60 40 -100h181l-6 -67h-173q-6 -73 -40 -123.5t-88 -95.5h337l-6 -79h-435l-7 79q88 74 116 120t33 99h-147
l6 67h133z" />
    <glyph glyph-name="yen" unicode="&#xa5;" horiz-adv-x="603" 
d="M210 372l-199 327l100 6l191 -328l189 328l101 -6l-199 -327h135l-5 -67h-171l-7 -12v-88h183l-5 -67h-178v-138h-87v138h-186l6 67h180v88l-8 12h-178l6 67h132z" />
    <glyph glyph-name="florin" unicode="&#x192;" horiz-adv-x="375" 
d="M129 539q0 173 144 173q42 0 98 -15l-7 -70q-43 13 -78 13q-40 0 -58.5 -26t-18.5 -84v-172h147l-6 -72h-141v-283q0 -173 -144 -173q-43 0 -99 15l7 70q46 -13 78 -13q40 0 59 25.5t19 84.5v274h-115l5 72h110v181z" />
    <glyph glyph-name="Euro" unicode="&#x20ac;" horiz-adv-x="604" 
d="M99 469q23 117 95.5 180t189.5 63q89 0 180 -34l-15 -78q-85 33 -159 33q-160 0 -200 -164h304l-6 -67h-308l-2 -25v-26l2 -49h274l-6 -67h-258q40 -166 200 -166q74 0 159 33l15 -78q-91 -34 -180 -34q-116 0 -189 63t-96 182h-95l5 67h81l-1 23v52l1 25h-86l5 67h90z
" />
    <glyph glyph-name="numbersign" unicode="#" 
d="M154 517l49 187l75 -4l-48 -183h180l49 187l75 -4l-48 -183h78l-6 -72h-89l-50 -187h94l-6 -72h-105l-48 -188l-75 4l47 184h-179l-49 -188l-75 4l48 184h-78l6 72h89l50 187h-93l5 72h104zM164 258h179l50 187h-179z" />
    <glyph glyph-name="currency" unicode="&#xa4;" 
d="M92 352q0 60 29 104l-71 71l58 50l67 -67q43 29 104 29q58 0 104 -29l67 67l58 -50l-71 -71q29 -46 29 -104q0 -60 -29 -104l71 -71l-57 -51l-68 68q-44 -29 -104 -29q-61 0 -104 29l-67 -67l-58 50l71 71q-29 43 -29 104zM164 352q0 -53 32 -85.5t83 -32.5t83 32.5
t32 85.5t-32 85.5t-83 32.5t-83 -32.5t-32 -85.5z" />
    <glyph glyph-name="zero" unicode="0" horiz-adv-x="658" 
d="M148 352q0 -138 46 -210.5t136 -72.5t135 73t45 210q0 138 -46 210t-134 72q-89 0 -135.5 -71.5t-46.5 -210.5zM59 352q0 175 69 267.5t202 92.5q131 0 200 -92t69 -268q0 -177 -68.5 -269.5t-200.5 -92.5q-133 0 -202 92t-69 270z" />
    <glyph glyph-name="one" unicode="1" horiz-adv-x="351" 
d="M195 0v613l-174 -67v85l184 71h77v-702h-87z" />
    <glyph glyph-name="two" unicode="2" horiz-adv-x="519" 
d="M459 502q0 -90 -77.5 -191t-237.5 -232h334l-5 -79h-436l-5 79q206 178 273 266t67 156q0 64 -37.5 98.5t-106.5 34.5q-81 0 -173 -39l-16 78q108 39 197 39q108 0 165.5 -55t57.5 -155z" />
    <glyph glyph-name="three" unicode="3" horiz-adv-x="513" 
d="M288 387q77 50 77 134q0 58 -40.5 85.5t-103.5 27.5q-80 0 -172 -39l-17 78q104 39 197 39q104 0 163.5 -47.5t59.5 -135.5q0 -102 -94 -176q114 -63 114 -176q0 -89 -63 -138t-175 -49q-106 0 -203 40l17 78q91 -39 180 -39q74 0 115.5 29t41.5 87q0 38 -22 70.5
t-63 52.5h-152l5 79h135z" />
    <glyph glyph-name="four" unicode="4" horiz-adv-x="567" 
d="M261 702q0 -140 -36 -245t-115 -209h215v174l86 6v-180h135l-6 -79h-129v-169h-86v169h-298l-6 79q81 101 117 210t36 244h87z" />
    <glyph glyph-name="five" unicode="5" horiz-adv-x="504" 
d="M153 399q43 4 79 4q122 0 181.5 -49.5t59.5 -153.5q0 -102 -63 -156t-174 -54q-99 0 -195 40l17 78q86 -39 174 -39q76 0 115.5 36t39.5 97q0 128 -171 128h-145v372h366l-6 -78h-278v-225z" />
    <glyph glyph-name="six" unicode="6" horiz-adv-x="567" 
d="M330 634q-179 0 -190 -278q110 62 204 62q89 0 140.5 -55t51.5 -156q0 -96 -65 -156.5t-174 -60.5q-116 0 -181 86.5t-65 244.5q0 191 71 291t206 100q84 0 175 -35l-19 -78q-93 35 -154 35zM331 345q-78 0 -190 -59q6 -117 49 -168.5t107 -51.5q72 0 112 41t40 102
q0 66 -31 101t-87 35z" />
    <glyph glyph-name="seven" unicode="7" horiz-adv-x="471" 
d="M142 0q0 197 55.5 347t176.5 277h-363l6 78h437l6 -78q-126 -151 -179 -292.5t-53 -331.5h-86z" />
    <glyph glyph-name="eight" unicode="8" horiz-adv-x="582" 
d="M291 712q105 0 167 -47t62 -127q0 -54 -33.5 -96t-111.5 -79q92 -43 128.5 -88.5t36.5 -104.5q0 -88 -65 -134t-184 -46t-184.5 46t-65.5 134q0 58 36.5 103.5t128.5 89.5q-80 40 -112.5 82t-32.5 93q0 80 62 127t168 47zM291 400q143 57 143 133q0 45 -35.5 74
t-107.5 29t-107.5 -29t-35.5 -74q0 -76 143 -133zM291 326q-163 -71 -163 -151q0 -52 41.5 -80.5t121.5 -28.5t121.5 28.5t41.5 80.5q0 80 -163 151z" />
    <glyph glyph-name="nine" unicode="9" horiz-adv-x="567" 
d="M237 69q91 0 137.5 69t51.5 207q-110 -61 -203 -61q-88 0 -140 55t-52 156q0 98 66 157.5t173 59.5q116 0 181 -86.5t65 -244.5q0 -191 -71 -291t-206 -100q-85 0 -175 36l19 77q90 -34 154 -34zM236 358q78 0 190 58q-7 116 -49.5 168t-106.5 52q-72 0 -112 -41
t-40 -102q0 -66 31 -100.5t87 -34.5z" />
    <glyph glyph-name="zero.alt_TF" 
d="M522 744l-60 -113q74 -91 74 -279q0 -176 -65 -269t-191 -93q-82 0 -140 39l-48 -91l-56 20l60 112q-75 94 -75 282q0 176 66 268t193 92q80 0 137 -39l49 91zM110 352q0 -125 33 -193l234 438q-37 37 -97 37q-82 0 -126 -70.5t-44 -211.5zM447 352q0 122 -33 190
l-233 -437q40 -36 99 -36q167 0 167 283z" />
    <glyph glyph-name="zero.TF" 
d="M110 352q0 -139 43 -211t127 -72q167 0 167 283q0 138 -42.5 210t-124.5 72t-126 -70.5t-44 -211.5zM21 352q0 176 66 268t193 92q126 0 191 -92.5t65 -267.5q0 -176 -65 -269t-191 -93q-127 0 -193 92t-66 270z" />
    <glyph glyph-name="one.TF" 
d="M502 79l-5 -79h-429l5 79h169v534l-174 -67v85l184 71h76v-623h174z" />
    <glyph glyph-name="two.TF" 
d="M483 502q0 -90 -77.5 -191t-237.5 -232h334l-5 -79h-436l-5 79q206 178 273 266t67 156q0 64 -37.5 98.5t-106.5 34.5q-81 0 -173 -39l-16 78q108 39 197 39q108 0 165.5 -55t57.5 -155z" />
    <glyph glyph-name="three.TF" 
d="M314 387q77 50 77 134q0 58 -40 85.5t-104 27.5q-78 0 -172 -39l-16 78q104 39 196 39q104 0 163.5 -47.5t59.5 -135.5q0 -104 -94 -176q114 -63 114 -176q0 -89 -63 -138t-175 -49q-107 0 -202 40l16 78q91 -39 181 -39q74 0 115 29.5t41 86.5q0 38 -22 70.5t-62 52.5
h-153l6 79h134z" />
    <glyph glyph-name="four.TF" 
d="M427 702v-454h109l-5 -79h-104v-169h-86v169h-315l-5 79l298 454h108zM341 248v361l-237 -361h237z" />
    <glyph glyph-name="five.TF" 
d="M175 399q43 4 79 4q122 0 181.5 -49.5t59.5 -153.5q0 -99 -62 -154.5t-175 -55.5q-98 0 -195 40l16 78q88 -39 175 -39q76 0 115.5 36t39.5 97q0 128 -171 128h-145v372h366l-6 -78h-278v-225z" />
    <glyph glyph-name="six.TF" 
d="M315 634q-176 0 -187 -277q110 61 201 61q85 0 137 -53t52 -158q0 -97 -64 -157t-172 -60q-114 0 -178.5 85.5t-64.5 245.5q0 189 70 290t204 101q83 0 174 -35l-19 -78q-93 35 -153 35zM315 345q-75 0 -186 -59q6 -117 48 -168.5t105 -51.5q66 0 108 38.5t42 104.5
t-30.5 101t-86.5 35z" />
    <glyph glyph-name="seven.TF" 
d="M185 0q0 190 57.5 341t182.5 283h-378l6 78h452l6 -78q-133 -159 -186 -299.5t-53 -324.5h-87z" />
    <glyph glyph-name="eight.TF" 
d="M279 712q105 0 166 -47.5t61 -126.5q0 -54 -33.5 -96t-111.5 -79q92 -43 128.5 -88.5t36.5 -104.5q0 -88 -64.5 -134t-182.5 -46t-182.5 46t-64.5 134q0 58 36.5 104t127.5 89q-80 40 -112 81t-32 94q0 79 61 126.5t166 47.5zM279 400q140 58 140 133q0 45 -35 74
t-105 29t-105.5 -29t-35.5 -74q0 -75 141 -133zM279 326q-161 -72 -161 -151q0 -52 41.5 -80.5t119.5 -28.5t119 28.5t41 80.5q0 79 -160 151z" />
    <glyph glyph-name="nine.TF" 
d="M242 69q88 0 134 67.5t52 207.5q-106 -60 -199 -60q-86 0 -138 53.5t-52 157.5q0 97 65 157t171 60q114 0 178.5 -85.5t64.5 -245.5q0 -194 -71.5 -292.5t-201.5 -98.5q-84 0 -174 36l19 77q90 -34 152 -34zM243 358q75 0 185 57q-6 117 -48 169t-105 52
q-65 0 -107 -38.5t-42 -104.5t30.5 -100.5t86.5 -34.5z" />
    <glyph glyph-name="dollar.TF" 
d="M318 711q90 -4 170 -38l-16 -78q-75 31 -154 37v-244q111 -46 152.5 -94t41.5 -109q0 -89 -53.5 -136t-140.5 -56v-110l-69 -5v113q-98 4 -179 39l16 78q76 -34 163 -38v251q-111 46 -153 93.5t-42 110.5q0 86 53.5 131.5t141.5 53.5v109l69 5v-113zM318 292v-220
q104 18 104 116q0 36 -26.5 58.5t-77.5 45.5zM249 417v214q-48 -7 -77 -33.5t-29 -73.5q0 -37 26.5 -60t79.5 -47z" />
    <glyph glyph-name="cent.TF" 
d="M351 711q65 -3 129 -23l-10 -73q-73 23 -139 23q-85 0 -129 -49.5t-44 -141.5q0 -93 44 -142t129 -49q66 0 139 23l10 -71q-57 -19 -129 -24v-106l-69 -6v114q-101 14 -153 80.5t-52 181.5q0 116 53 183t152 78v110l69 5v-113z" />
    <glyph glyph-name="sterling.TF" 
d="M196 365l-18 39q-26 49 -36 80t-10 64q0 77 43.5 120.5t119.5 43.5q93 0 180 -25l-17 -78q-83 25 -158 25q-38 0 -58.5 -23.5t-20.5 -59.5v-4q0 -27 31 -82q33 -60 40 -100h181l-6 -67h-173q-6 -73 -40 -123.5t-88 -95.5h337l-6 -79h-435l-7 79q88 74 116 120t33 99h-147
l6 67h133z" />
    <glyph glyph-name="yen.TF" 
d="M189 372l-191 327l101 6l180 -331l179 331l101 -6l-191 -327h137l-5 -67h-171l-7 -12v-88h183l-5 -67h-178v-138h-86v138h-186l5 67h181v88l-7 12h-179l5 67h134z" />
    <glyph glyph-name="florin.TF" 
d="M239 539q0 173 144 173q42 0 98 -15l-7 -70q-43 13 -78 13q-40 0 -58.5 -26t-18.5 -84v-172h147l-6 -72h-141v-283q0 -173 -144 -173q-42 0 -98 15l7 70q43 -13 78 -13q40 0 58.5 26t18.5 84v274h-115l5 72h110v181z" />
    <glyph glyph-name="Euro.TF" 
d="M95 469q23 117 95.5 180t189.5 63q89 0 180 -34l-15 -78q-85 33 -159 33q-160 0 -200 -164h304l-6 -67h-308l-2 -25v-26l2 -49h274l-6 -67h-258q40 -166 200 -166q74 0 159 33l15 -78q-91 -34 -180 -34q-116 0 -189 63t-96 182h-95l5 67h81l-1 23v52l1 25h-86l5 67h90z
" />
    <glyph glyph-name="numbersign.TF" 
d="M154 517l50 187l75 -4l-49 -183h180l49 187l75 -4l-48 -183h78l-6 -72h-88l-50 -187h93l-6 -72h-104l-49 -188l-75 4l48 184h-180l-48 -188l-75 4l47 184h-77l5 72h89l50 187h-93l5 72h104zM164 258h180l50 187h-180z" />
    <glyph glyph-name="zero.OSF" horiz-adv-x="630" 
d="M125 254q0 -91 48 -141.5t135 -50.5t135 50.5t48 141.5t-48 142t-135 51t-135 -51t-48 -142zM44 254q0 125 70.5 195t193.5 70q125 0 194.5 -70t69.5 -195q0 -124 -69.5 -194t-194.5 -70t-194.5 69.5t-69.5 194.5z" />
    <glyph glyph-name="one.OSF" horiz-adv-x="372" 
d="M213 0v426l-169 -65v79l179 69h70v-509h-80z" />
    <glyph glyph-name="two.OSF" horiz-adv-x="471" 
d="M405 362q0 -73 -69 -150.5t-193 -139.5h287l-5 -72h-386l-5 72q151 85 219 153t68 132q0 46 -31 67.5t-80 21.5q-75 0 -155 -38l-16 71q96 40 179 40q84 0 135.5 -39t51.5 -118z" />
    <glyph glyph-name="three.OSF" horiz-adv-x="457" 
d="M251 237q67 48 67 114q0 49 -33 72t-87 23q-68 0 -150 -33l-16 71q86 35 172 35q93 0 143.5 -42.5t50.5 -118.5q0 -91 -82 -153q100 -56 100 -153q0 -78 -55 -120.5t-153 -42.5q-93 0 -177 34l16 71q83 -33 160 -33q60 0 94.5 24.5t34.5 73.5q0 30 -21 59t-55 46h-126
l5 73h112z" />
    <glyph glyph-name="four.OSF" horiz-adv-x="511" 
d="M254 509q0 -131 -35 -233t-113 -204h187v171l80 6v-177h117l-5 -72h-112v-150h-80v150h-266l-6 72q81 103 117 208.5t36 228.5h80z" />
    <glyph glyph-name="five.OSF" horiz-adv-x="450" 
d="M136 246l69 4q213 0 213 -178q0 -88 -54 -136t-156 -48q-88 0 -174 35l15 72q83 -35 156 -35q57 0 95.5 27t38.5 87q0 52 -33 80.5t-117 28.5h-128v326h325l-5 -73h-245v-190z" />
    <glyph glyph-name="six.OSF" horiz-adv-x="514" 
d="M301 560q-157 0 -168 -242q98 53 179 53q77 0 123.5 -47.5t46.5 -140.5q0 -85 -57 -139t-155 -54q-104 0 -161.5 76.5t-57.5 218.5q0 171 63.5 259.5t183.5 88.5q73 0 156 -32l-18 -71q-78 30 -135 30zM300 303q-68 0 -166 -51q6 -97 41 -144.5t95 -47.5q61 0 97 35.5
t36 89.5q0 57 -27 87.5t-76 30.5z" />
    <glyph glyph-name="seven.OSF" horiz-adv-x="464" 
d="M143 -131q0 328 228 568h-360l6 72h430l5 -72q-117 -141 -173 -275.5t-56 -292.5h-80z" />
    <glyph glyph-name="eight.OSF" horiz-adv-x="524" 
d="M262 633q96 0 147 -42t51 -115q0 -46 -28.5 -83.5t-92.5 -70.5q80 -39 112 -80t32 -92q0 -78 -57.5 -119t-163.5 -41t-163.5 41t-57.5 119q0 53 34 95t110 77q-51 26 -86 62t-35 92q0 72 50.5 114.5t147.5 42.5zM262 356q50 21 84 48t34 68q0 38 -27.5 64.5t-90.5 26.5
t-90.5 -26.5t-27.5 -64.5q0 -41 34 -68t84 -48zM262 286q-83 -37 -112 -67.5t-29 -64.5q0 -45 36 -69.5t105 -24.5t105 24.5t36 69.5q0 35 -31.5 66t-109.5 66z" />
    <glyph glyph-name="nine.OSF" horiz-adv-x="514" 
d="M212 -38q160 0 167 229q-96 -53 -177 -53q-77 0 -124 47t-47 140q0 87 58.5 140.5t154.5 53.5q104 0 161 -76.5t57 -218.5q0 -164 -62.5 -249.5t-183.5 -85.5q-75 0 -156 32l18 71q78 -30 134 -30zM214 205q63 0 165 51q-6 102 -43 147t-92 45q-63 0 -98 -35.5t-35 -89.5
q0 -57 27 -87.5t76 -30.5z" />
    <glyph glyph-name="zero.TOSF" 
d="M105 254q0 -91 45.5 -141.5t128.5 -50.5q82 0 128 50.5t46 141.5t-46 142t-128 51q-83 0 -128.5 -51t-45.5 -142zM24 254q0 125 67 195t188 70t188 -70t67 -195t-67 -194.5t-188 -69.5t-188 69.5t-67 194.5z" />
    <glyph glyph-name="one.TOSF" 
d="M495 72l-5 -72h-413l6 72h163v354l-169 -65v79l179 69h70v-437h169z" />
    <glyph glyph-name="two.TOSF" 
d="M453 362q0 -73 -69 -150.5t-193 -139.5h287l-5 -72h-386l-5 72q151 85 219 153t68 132q0 46 -31 67.5t-80 21.5q-75 0 -155 -38l-16 71q96 40 179 40q84 0 135.5 -39t51.5 -118z" />
    <glyph glyph-name="three.TOSF" 
d="M299 237q66 47 66 114q0 49 -33 72t-87 23q-67 0 -150 -33l-15 71q86 35 171 35q93 0 143.5 -42.5t50.5 -118.5q0 -91 -82 -153q100 -55 100 -153q0 -78 -55 -120.5t-153 -42.5q-91 0 -176 34l15 71q82 -33 160 -33q55 0 92 22.5t37 75.5q0 30 -21 59t-54 46h-127l5 73
h113z" />
    <glyph glyph-name="four.TOSF" 
d="M277 509q0 -131 -35 -233t-113 -204h187v171l80 6v-177h117l-6 -72h-111v-150h-80v150h-266l-6 72q81 103 117 208.5t36 228.5h80z" />
    <glyph glyph-name="five.TOSF" 
d="M189 246l69 4q213 0 213 -178q0 -89 -55.5 -136.5t-155.5 -47.5q-87 0 -173 35l15 72q83 -35 156 -35q57 0 95.5 27t38.5 87q0 52 -33.5 80.5t-116.5 28.5h-128v326h325l-5 -73h-245v-190z" />
    <glyph glyph-name="six.TOSF" 
d="M320 560q-157 0 -168 -242q98 53 179 53q77 0 123.5 -47.5t46.5 -140.5q0 -85 -57 -139t-155 -54q-104 0 -161.5 76.5t-57.5 218.5q0 171 63.5 259.5t183.5 88.5q73 0 156 -32l-18 -71q-78 30 -135 30zM319 303q-68 0 -166 -51q6 -97 41 -144.5t95 -47.5q61 0 97 35.5
t36 89.5q0 57 -27 87.5t-76 30.5z" />
    <glyph glyph-name="seven.TOSF" 
d="M183 -131q0 329 227 568h-359l5 72h430l6 -72q-117 -141 -173 -275.5t-56 -292.5h-80z" />
    <glyph glyph-name="eight.TOSF" 
d="M278 633q95 0 147 -41.5t52 -115.5q0 -56 -35.5 -92t-86.5 -62q75 -35 109.5 -76.5t34.5 -95.5q0 -78 -57.5 -119t-163.5 -41t-163 41t-57 119q0 54 33 94.5t111 77.5q-52 26 -87 62t-35 92q0 74 52 115.5t146 41.5zM278 356q119 48 119 116q0 38 -27.5 64.5t-91.5 26.5
q-63 0 -90.5 -26.5t-27.5 -64.5q0 -41 34 -68t84 -48zM278 286q-82 -36 -111 -66t-29 -66q0 -45 35.5 -69.5t104.5 -24.5t105 24.5t36 69.5q0 35 -31.5 66t-109.5 66z" />
    <glyph glyph-name="nine.TOSF" 
d="M236 -38q160 0 167 229q-96 -53 -177 -53q-77 0 -124 47t-47 140q0 87 58.5 140.5t154.5 53.5q104 0 161 -76.5t57 -218.5q0 -164 -62.5 -249.5t-183.5 -85.5q-75 0 -156 32l18 71q78 -30 134 -30zM238 205q63 0 165 51q-6 102 -43 147t-92 45q-63 0 -98 -35.5t-35 -89.5
q0 -57 27 -87.5t76 -30.5z" />
    <glyph glyph-name="zero.small" horiz-adv-x="528" 
d="M128 255q0 -94 35.5 -143.5t100.5 -49.5t100.5 49t35.5 144t-35.5 143.5t-100.5 48.5t-100.5 -48.5t-35.5 -143.5zM47 255q0 129 56 196.5t161 67.5t161 -67t56 -197q0 -129 -55.5 -197t-161.5 -68t-161.5 68t-55.5 197z" />
    <glyph glyph-name="one.small" horiz-adv-x="282" 
d="M156 0v426l-138 -52v79l148 56h70v-509h-80z" />
    <glyph glyph-name="two.small" horiz-adv-x="420" 
d="M373 359q0 -61 -53 -126t-191 -161h258l-5 -72h-349l-6 72q142 102 202 166.5t60 115.5q0 92 -106 92q-66 0 -137 -32l-14 72q76 33 158 33q89 0 136 -42t47 -118z" />
    <glyph glyph-name="three.small" horiz-adv-x="418" 
d="M230 286q55 42 55 91q0 69 -97 69q-69 0 -146 -32l-16 71q86 34 164 34q83 0 129.5 -35.5t46.5 -98.5q0 -80 -76 -129q93 -47 93 -128q0 -66 -50.5 -102t-138.5 -36q-80 0 -168 34l16 70q30 -13 76.5 -22t76.5 -9q47 0 76.5 17.5t29.5 55.5q0 48 -64 81h-120l6 69h107z
" />
    <glyph glyph-name="four.small" horiz-adv-x="456" 
d="M220 509q0 -94 -26.5 -167.5t-94.5 -158.5h156v126l80 6v-132h107l-6 -72h-101v-111h-80v111h-232l-6 72q68 84 94.5 159t26.5 167h82z" />
    <glyph glyph-name="five.small" horiz-adv-x="412" 
d="M133 291l67 4q186 0 186 -150q0 -75 -48 -115t-140 -40q-84 0 -165 33l15 73q79 -34 146 -34q113 0 113 85q0 41 -28.5 60.5t-101.5 19.5h-119v282h298l-4 -73h-219v-145z" />
    <glyph glyph-name="six.small" horiz-adv-x="453" 
d="M264 447q-132 0 -143 -184q84 40 155 40q70 0 112.5 -38.5t42.5 -115.5q0 -71 -52.5 -115t-140.5 -44q-96 0 -147.5 65t-51.5 177q0 138 56 212.5t166 74.5q68 0 144 -26l-18 -70q-72 24 -123 24zM266 236q-65 0 -145 -39q7 -72 39.5 -104t77.5 -32q54 0 83 26t29 64
q0 42 -23 63.5t-61 21.5z" />
    <glyph glyph-name="seven.small" horiz-adv-x="379" 
d="M115 0q0 138 38.5 240.5t130.5 196.5h-274l5 72h350l5 -72q-100 -108 -137.5 -204.5t-37.5 -232.5h-80z" />
    <glyph glyph-name="eight.small" horiz-adv-x="469" 
d="M241 -10q-104 0 -153.5 35.5t-49.5 92.5q0 41 29.5 73.5t100.5 65.5q-110 52 -110 127q0 61 47.5 98t135.5 37q86 0 134 -36.5t48 -98.5q0 -77 -109 -127q70 -32 100 -65t30 -74q0 -57 -49.5 -92.5t-153.5 -35.5zM240 222q-77 -31 -99 -52t-22 -46q0 -66 122 -66t122 66
q0 19 -12.5 34t-33 28t-77.5 36zM139 378q0 -32 29.5 -51.5t71.5 -36.5q54 21 78 41.5t24 46.5q0 31 -25 51.5t-76 20.5t-76.5 -20.5t-25.5 -51.5z" />
    <glyph glyph-name="nine.small" horiz-adv-x="453" 
d="M205 62q132 0 143 183q-86 -39 -155 -39t-112 38.5t-43 115.5q0 70 53 114.5t141 44.5q95 0 146.5 -64.5t51.5 -177.5q0 -139 -57 -213t-165 -74q-73 0 -143 26l17 70q72 -24 123 -24zM204 273q62 0 143 38q-7 72 -39 104.5t-77 32.5q-54 0 -83 -26t-29 -64
q0 -42 23 -63.5t62 -21.5z" />
    <glyph glyph-name="dollar.small" horiz-adv-x="456" 
d="M263 518q60 -4 134 -30l-13 -71q-58 24 -121 30v-161q84 -33 118 -70t34 -84q0 -122 -152 -140v-94l-69 -5v98q-70 4 -134 26l15 71q55 -19 119 -26v164q-86 35 -116.5 70.5t-30.5 82.5q0 61 40.5 95t106.5 42v94l69 6v-98zM263 198v-134q68 14 68 65q0 23 -16 37.5
t-52 31.5zM194 315v128q-63 -13 -63 -62q0 -23 16.5 -38t46.5 -28z" />
    <glyph glyph-name="cent.small" horiz-adv-x="407" 
d="M266 517q49 -3 99 -17l-11 -70q-49 15 -105 15q-55 0 -91 -27.5t-36 -91.5q0 -120 127 -120q49 0 105 15l11 -68q-48 -14 -99 -18v-84l-69 -5v92q-77 12 -116.5 60.5t-39.5 128.5q0 79 39.5 127.5t116.5 60.5v88l69 5v-91z" />
    <glyph glyph-name="sterling.small" horiz-adv-x="439" 
d="M148 278l-29.5 55t-16.5 66q0 56 35 88t96 32q74 0 144 -19l-15 -71q-66 17 -113 17q-68 0 -68 -54v-6q0 -18 35 -76l14 -32h144l-5 -67h-130q-6 -77 -92 -139h253l-5 -69v-3h-349l-5 72l47 37q35 27 51.5 50t20.5 52h-118l5 67h101z" />
    <glyph glyph-name="yen.small" horiz-adv-x="492" 
d="M178 244l-167 262l94 5l141 -238l143 238l91 -5l-166 -262h119l-5 -67h-142v-177h-80v177h-144l5 67h111z" />
    <glyph glyph-name="florin.small" horiz-adv-x="310" 
d="M184 3q0 -126 -121 -126q-37 0 -81 11l6 71q34 -10 64 -10q52 0 52 67v177h-92l5 72h87v127q0 127 121 127q34 0 81 -12l-6 -70q-38 9 -64 9q-52 0 -52 -66v-115h118l-5 -72h-113v-190z" />
    <glyph glyph-name="Euro.small" horiz-adv-x="509" 
d="M65 289q9 113 74 171.5t175 58.5q71 0 154 -24l-11 -72q-70 24 -139 24q-76 0 -120.5 -41.5t-51.5 -116.5h215l-6 -67h-209q8 -86 55.5 -123t116.5 -37q66 0 139 23l11 -71q-77 -24 -154 -24q-113 0 -177.5 61t-71.5 171h-61l5 67h56z" />
    <glyph glyph-name="numbersign.small" horiz-adv-x="457" 
d="M126 376l40 135l72 -3l-38 -132h131l39 135l73 -3l-38 -132h54l-4 -68h-68l-32 -107h63l-4 -67h-77l-38 -135l-73 3l38 132h-131l-39 -135l-73 3l38 132h-62l5 67h75l32 107h-70l4 68h83zM150 201h131l32 107h-131z" />
    <glyph glyph-name="percent" unicode="%" horiz-adv-x="778" 
d="M501 192q0 -143 94 -143q93 0 93 143q0 142 -93 142q-94 0 -94 -142zM436 192q0 95 40 146.5t119 51.5q80 0 119.5 -51t39.5 -147t-39.5 -147.5t-119.5 -51.5q-79 0 -119 51t-40 148zM556 702h72l-407 -702h-72zM90 511q0 -143 94 -143q93 0 93 143q0 142 -93 142
q-94 0 -94 -142zM25 511q0 95 40 146.5t119 51.5q80 0 119.5 -51t39.5 -147t-39.5 -147.5t-119.5 -51.5q-79 0 -119 51t-40 148z" />
    <glyph glyph-name="perthousand" unicode="&#x2030;" horiz-adv-x="1152" 
d="M501 192q0 -143 94 -143q93 0 93 143q0 142 -93 142q-94 0 -94 -142zM436 192q0 95 40 146.5t119 51.5q80 0 119.5 -51t39.5 -147t-39.5 -147.5t-119.5 -51.5q-79 0 -119 51t-40 148zM875 192q0 -143 94 -143q93 0 93 143q0 142 -93 142q-94 0 -94 -142zM810 192
q0 95 40 146.5t119 51.5q80 0 119.5 -51t39.5 -147t-39.5 -147.5t-119.5 -51.5q-79 0 -119 51t-40 148zM556 702h72l-407 -702h-72zM90 511q0 -143 94 -143q93 0 93 143q0 142 -93 142q-94 0 -94 -142zM25 511q0 95 40 146.5t119 51.5q80 0 119.5 -51t39.5 -147
t-39.5 -147.5t-119.5 -51.5q-79 0 -119 51t-40 148z" />
    <glyph glyph-name="fraction" unicode="&#x2044;" horiz-adv-x="487" 
d="M411 702h72l-407 -702h-72z" />
    <glyph glyph-name="asciicircum" unicode="^" horiz-adv-x="481" 
d="M382 221l-142 400l-142 -400l-87 5l178 476h103l177 -476z" />
    <glyph glyph-name="asciitilde" unicode="~" 
d="M385 255q-41 0 -69 16t-50.5 35l-43 35t-46.5 16q-27 0 -42.5 -23t-26.5 -61l-74 12q15 76 54 113t87 37q41 0 69 -16t51 -35l43.5 -35t46.5 -16q46 0 68 84l74 -11q-15 -77 -53.5 -114t-87.5 -37z" />
    <glyph glyph-name="periodcentered" unicode="&#xb7;" horiz-adv-x="213" 
d="M106 407q24 0 39.5 -16t15.5 -39q0 -24 -15.5 -39.5t-39.5 -15.5q-23 0 -39 15.5t-16 39.5q0 23 16 39t39 16z" />
    <glyph glyph-name="plus" unicode="+" 
d="M239 316h-206l5 72h201v205l80 5v-210h206l-5 -72h-201v-205l-80 -6v211z" />
    <glyph glyph-name="plusminus" unicode="&#xb1;" 
d="M239 333h-206l5 72h201v198l80 5v-203h206l-5 -72h-201v-197l-80 -6v203zM525 72l-5 -72h-487l5 72h487z" />
    <glyph glyph-name="less" unicode="&#x3c;" 
d="M38 317l5 72l454 211l27 -67l-397 -181l397 -181l-27 -67z" />
    <glyph glyph-name="equal" unicode="=" 
d="M525 527l-5 -72h-487l5 72h487zM525 248l-5 -72h-487l5 72h487z" />
    <glyph glyph-name="greater" unicode="&#x3e;" 
d="M520 387l-5 -72l-454 -211l-27 67l397 181l-397 181l27 67z" />
    <glyph glyph-name="bar" unicode="|" horiz-adv-x="243" 
d="M159 844v-924l-75 -6v924z" />
    <glyph glyph-name="brokenbar" unicode="&#xa6;" horiz-adv-x="243" 
d="M159 302v-382l-75 -6v382zM159 844v-382l-75 -6v382z" />
    <glyph glyph-name="multiply" unicode="&#xd7;" 
d="M225 352l-175 175l58 50l171 -171l171 171l58 -50l-175 -175l175 -175l-57 -51l-172 172l-171 -171l-58 50z" />
    <glyph glyph-name="divide" unicode="&#xf7;" 
d="M525 388l-5 -72h-487l5 72h487zM279 196q23 0 39 -16t16 -39q0 -24 -16 -39.5t-39 -15.5q-24 0 -39.5 15.5t-15.5 39.5q0 23 15.5 39t39.5 16zM279 618q23 0 39 -15.5t16 -39.5q0 -23 -16 -39t-39 -16q-24 0 -39.5 16t-15.5 39q0 24 15.5 39.5t39.5 15.5z" />
    <glyph glyph-name="minus" unicode="&#x2212;" 
d="M525 388l-5 -72h-487l5 72h487z" />
    <glyph glyph-name="partialdiff" unicode="&#x2202;" horiz-adv-x="557" 
d="M262 417q-64 0 -98 -46.5t-34 -131.5q0 -177 144 -177q70 0 107 48.5t37 143.5q-1 59 -17 131q-85 32 -139 32zM258 758q99 -73 169.5 -215t70.5 -285q0 -268 -224 -268q-225 0 -225 249q0 121 54.5 185.5t148.5 64.5q59 0 126 -27q-63 177 -226 296h106z" />
    <glyph glyph-name="mu" unicode="&#xb5;" horiz-adv-x="535" 
d="M149 481v-318q0 -98 76 -98q38 0 80.5 19t80.5 40v352l80 5v-481h-70l-10 54q-110 -64 -178 -64q-43 0 -71 26l10 -219l-78 -6v685z" />
    <glyph glyph-name="pi" unicode="&#x3c0;" horiz-adv-x="631" 
d="M483 407v-305q0 -41 29 -41q19 0 55 12l7 -67q-44 -16 -87 -16q-82 0 -82 104v313h-185l-34 -407h-80l39 407h-96l5 72h528l-6 -72h-93z" />
    <glyph glyph-name="Delta" unicode="&#x2206;" horiz-adv-x="615" 
d="M307 626l-186 -547h372zM61 0l-35 55l222 644l117 6l224 -648l-36 -57h-492z" />
    <glyph glyph-name="product" unicode="&#x220f;" horiz-adv-x="661" 
d="M592 702v-702h-87v624h-350v-624h-86v702h523z" />
    <glyph glyph-name="summation" unicode="&#x2211;" horiz-adv-x="527" 
d="M372 354l-226 -275h339l-5 -79h-433l-6 79l227 272l-227 273l6 78h438l-5 -78h-331z" />
    <glyph glyph-name="uni03A9" unicode="&#x3a9;" horiz-adv-x="749" 
d="M312 0h-248l-5 79h157q-76 67 -115.5 153t-39.5 175q0 138 85.5 221.5t228.5 83.5q142 0 227.5 -83.5t85.5 -221.5q0 -89 -39.5 -175t-115.5 -153h157l-5 -79h-248l-5 79q78 59 123.5 146.5t45.5 177.5q0 103 -60 167.5t-166 64.5q-105 0 -165.5 -64t-60.5 -168
q0 -89 45 -177.5t124 -146.5z" />
    <glyph glyph-name="radical" unicode="&#x221a;" horiz-adv-x="637" 
d="M617 699l-241 -699h-115l-142 407h-98l6 72h158l134 -401l209 627z" />
    <glyph glyph-name="infinity" unicode="&#x221e;" horiz-adv-x="683" 
d="M669 352q0 -85 -45 -131t-116 -46q-52 0 -92 26t-77 86q-38 -62 -76.5 -87t-86.5 -25q-73 0 -117.5 48t-44.5 129t44.5 129t117.5 48q46 0 83 -23t80 -89q41 65 80.5 88.5t88.5 23.5q71 0 116 -46t45 -131zM599 352q0 51 -25.5 78t-68.5 27q-35 0 -64.5 -22t-63.5 -83
q33 -61 63 -83t65 -22q43 0 68.5 27t25.5 78zM179 247q32 0 58 19t65 86q-37 66 -64 85.5t-59 19.5q-42 0 -68.5 -26.5t-26.5 -78.5t26.5 -78.5t68.5 -26.5z" />
    <glyph glyph-name="integral" unicode="&#x222b;" horiz-adv-x="375" 
d="M129 539q0 173 144 173q42 0 98 -15l-7 -70q-43 13 -78 13q-40 0 -58.5 -26t-18.5 -84v-527q0 -173 -144 -173q-43 0 -99 15l7 70q46 -13 78 -13q40 0 59 25.5t19 84.5v527z" />
    <glyph glyph-name="approxequal" unicode="&#x2248;" 
d="M385 373q-41 0 -69 16t-50.5 35l-43 35t-46.5 16q-27 0 -42.5 -23t-26.5 -61l-74 11q15 77 54 113.5t87 36.5q41 0 69 -16t51 -35l43.5 -35t46.5 -16q46 0 68 85l74 -12q-15 -77 -53.5 -113.5t-87.5 -36.5zM385 151q-41 0 -69 16t-50.5 35l-43 35t-46.5 16
q-27 0 -42.5 -23t-26.5 -61l-74 12q15 76 54 113t87 37q41 0 69 -16t51 -35l43.5 -35t46.5 -16q46 0 68 84l74 -11q-15 -77 -53.5 -114t-87.5 -37z" />
    <glyph glyph-name="notequal" unicode="&#x2260;" 
d="M203 248l75 207h-245l5 72h266l44 121l75 -4l-43 -117h145l-5 -72h-166l-75 -207h246l-5 -72h-267l-43 -120l-75 4l42 116h-144l5 72h165z" />
    <glyph glyph-name="lessequal" unicode="&#x2264;" 
d="M33 335l5 72l454 203l27 -67l-397 -174l397 -173l-27 -67zM525 72l-5 -72h-487l5 72h487z" />
    <glyph glyph-name="greaterequal" unicode="&#x2265;" 
d="M516 404l-6 -72l-454 -203l-26 67l396 173l-396 174l26 67zM525 72l-5 -72h-487l5 72h487z" />
    <glyph glyph-name="lozenge" unicode="&#x25ca;" horiz-adv-x="602" 
d="M344 702l214 -351l-214 -351h-86l-214 351l214 351h86zM301 85l159 266l-159 266l-158 -266z" />
    <glyph glyph-name="logicalnot" unicode="&#xac;" 
d="M442 316h-409l5 72h484v-277l-80 -6v211z" />
    <glyph glyph-name="estimated" unicode="&#x212e;" horiz-adv-x="792" 
d="M137 327v-156q40 -63 107 -98t152 -35t152 35.5t107 98.5l43 -30q-47 -72 -124.5 -112t-177.5 -40q-159 0 -260 101.5t-101 259.5q0 159 101.5 260t259.5 101q159 0 260 -101.5t101 -259.5l-1 -24h-619zM137 375h518v155q-40 63 -107 98.5t-152 35.5t-152 -35.5
t-107 -98.5v-155z" />
    <glyph glyph-name="afii61289" unicode="&#x2113;" horiz-adv-x="375" 
d="M183 -10q-60 0 -87 33t-27 99v582q42 8 79 8q105 0 163.5 -55t58.5 -152q-1 -78 -57.5 -158t-163.5 -171v-51q0 -35 11.5 -48t36.5 -13q31 0 99 22l7 -73q-73 -23 -120 -23zM283 504q0 61 -35 96t-99 35v-363q64 69 99 125t35 107z" />
    <glyph glyph-name="emptyset" unicode="&#x2205;" horiz-adv-x="592" 
d="M517 673l-63 -108q49 -35 76.5 -90t27.5 -124q0 -115 -73 -188.5t-189 -73.5q-55 0 -106 19l-61 -105l-54 26l62 107q-48 35 -75.5 90t-27.5 125q0 115 73 188.5t189 73.5q55 0 106 -19l61 105zM109 351q0 -96 65 -151l192 332q-33 12 -70 12q-80 0 -133.5 -53
t-53.5 -140zM483 351q0 95 -65 151l-192 -331q31 -12 70 -12q84 0 135.5 54.5t51.5 137.5z" />
    <glyph glyph-name="degree" unicode="&#xb0;" horiz-adv-x="327" 
d="M96 578q0 -32 18.5 -52t48.5 -20q31 0 49.5 20t18.5 52t-18.5 52t-49.5 20q-30 0 -48.5 -20t-18.5 -52zM30 578q0 60 37 97t96 37q60 0 97.5 -37.5t37.5 -96.5t-37 -96.5t-98 -37.5q-59 0 -96 37t-37 97z" />
    <glyph glyph-name="ordfeminine" unicode="&#xaa;" horiz-adv-x="303" 
d="M197 608q0 47 -42 47q-36 0 -109 -23l-9 55q73 25 129 25q45 0 70 -22t25 -79v-206h-48l-9 33q-43 -39 -98 -39q-33 0 -57.5 19.5t-24.5 61.5q0 47 36.5 69.5t136.5 32.5v26zM121 450q42 0 76 34v52q-112 -7 -112 -52q0 -34 36 -34z" />
    <glyph glyph-name="ordmasculine" unicode="&#xba;" horiz-adv-x="349" 
d="M95 555q0 -99 80 -99q79 0 79 99q0 100 -79 100q-80 0 -80 -100zM30 555q0 80 39 118.5t106 38.5q66 0 105 -38.5t39 -118.5t-39 -118t-105 -38q-67 0 -106 38t-39 118z" />
    <glyph glyph-name="underscore" unicode="_" horiz-adv-x="461" 
d="M457 -29l-6 -67h-447l5 67h448z" />
    <glyph glyph-name="emdash" unicode="&#x2014;" horiz-adv-x="1059" 
d="M1025 275l-6 -72h-995l5 72h996z" />
    <glyph glyph-name="endash" unicode="&#x2013;" horiz-adv-x="562" 
d="M538 275l-6 -72h-508l5 72h509z" />
    <glyph glyph-name="hyphen" unicode="-" horiz-adv-x="283" 
d="M249 275l-6 -72h-209l5 72h210z" />
    <glyph glyph-name="quotesingle" unicode="'" horiz-adv-x="149" 
d="M115 702l-10 -245h-61l-10 245h81z" />
    <glyph glyph-name="quotedbl" unicode="&#x22;" horiz-adv-x="281" 
d="M115 702l-10 -245h-61l-10 245h81zM247 702l-10 -245h-61l-11 245h82z" />
    <glyph glyph-name="quotedblleft" unicode="&#x201c;" horiz-adv-x="343" 
d="M213 564q-17 49 -17 95q0 71 47 174l69 -8q-34 -72 -34 -135q0 -50 23 -119zM50 564q-17 49 -17 95q0 71 47 174l70 -8q-35 -74 -35 -135q0 -52 24 -119z" />
    <glyph glyph-name="guillemotleft" unicode="&#xab;" horiz-adv-x="486" 
d="M24 213l5 57l185 185l53 -61l-158 -155l158 -155l-53 -60zM219 213l5 57l185 185l53 -61l-158 -155l158 -155l-53 -60z" />
    <glyph glyph-name="guilsinglleft" unicode="&#x2039;" horiz-adv-x="291" 
d="M24 213l5 57l185 185l53 -61l-158 -155l158 -155l-53 -60z" />
    <glyph glyph-name="guilsinglright" unicode="&#x203a;" horiz-adv-x="291" 
d="M267 266l-6 -57l-184 -185l-53 60l158 155l-158 155l53 61z" />
    <glyph glyph-name="guillemotright" unicode="&#xbb;" horiz-adv-x="486" 
d="M462 266l-6 -57l-184 -185l-53 60l158 155l-158 155l53 61zM267 266l-6 -57l-184 -185l-53 60l158 155l-158 155l53 61z" />
    <glyph glyph-name="quotesinglbase" unicode="&#x201a;" horiz-adv-x="180" 
d="M132 123q17 -49 17 -95q0 -71 -47 -174l-69 8q34 77 34 136q0 49 -23 118z" />
    <glyph glyph-name="quotedblbase" unicode="&#x201e;" horiz-adv-x="343" 
d="M132 123q17 -49 17 -95q0 -71 -47 -174l-69 8q34 77 34 136q0 49 -23 118zM294 123q17 -48 17 -95q0 -40 -10 -77.5t-36 -96.5l-70 8q34 77 34 136q0 49 -23 118z" />
    <glyph glyph-name="quotedblright" unicode="&#x201d;" horiz-adv-x="343" 
d="M132 833q16 -49 16 -95q0 -40 -10 -77.5t-36 -96.5l-69 7q34 77 34 136q0 49 -23 118zM294 833q17 -48 17 -95q0 -40 -10 -77.5t-36 -96.5l-70 7q34 77 34 136q0 49 -23 118z" />
    <glyph glyph-name="quoteright" unicode="&#x2019;" horiz-adv-x="180" 
d="M132 833q16 -49 16 -95q0 -40 -10 -77.5t-36 -96.5l-69 7q34 77 34 136q0 49 -23 118z" />
    <glyph glyph-name="quoteleft" unicode="&#x2018;" horiz-adv-x="180" 
d="M50 564q-17 49 -17 95q0 71 47 174l70 -8q-35 -74 -35 -135q0 -52 24 -119z" />
    <glyph glyph-name="comma" unicode="," horiz-adv-x="213" 
d="M144 123q17 -48 17 -95q0 -40 -10 -77.5t-36 -96.5l-70 8q34 77 34 136q0 49 -23 118z" />
    <glyph glyph-name="period" unicode="." horiz-adv-x="213" 
d="M106 104q24 0 39.5 -16t15.5 -39q0 -24 -15.5 -39.5t-39.5 -15.5q-23 0 -39 15.5t-16 39.5q0 23 16 39t39 16z" />
    <glyph glyph-name="colon" unicode=":" horiz-adv-x="213" 
d="M106 104q24 0 39.5 -16t15.5 -39q0 -24 -15.5 -39.5t-39.5 -15.5q-23 0 -39 15.5t-16 39.5q0 23 16 39t39 16zM106 485q24 0 39.5 -16t15.5 -39q0 -24 -15.5 -39.5t-39.5 -15.5q-23 0 -39 15.5t-16 39.5q0 23 16 39t39 16z" />
    <glyph glyph-name="semicolon" unicode=";" horiz-adv-x="213" 
d="M144 123q17 -48 17 -95q0 -40 -10 -77.5t-36 -96.5l-70 8q34 77 34 136q0 49 -23 118zM102 485q23 0 39 -16t16 -39q0 -24 -16 -39.5t-39 -15.5q-24 0 -39.5 15.5t-15.5 39.5q0 23 15.5 39t39.5 16z" />
    <glyph glyph-name="ellipsis" unicode="&#x2026;" horiz-adv-x="832" 
d="M106 104q24 0 39.5 -16t15.5 -39q0 -24 -15.5 -39.5t-39.5 -15.5q-23 0 -39 15.5t-16 39.5q0 23 16 39t39 16zM416 104q24 0 39.5 -16t15.5 -39q0 -24 -15.5 -39.5t-39.5 -15.5q-23 0 -39 15.5t-16 39.5q0 23 16 39t39 16zM726 104q23 0 39 -16t16 -39q0 -24 -16 -39.5
t-39 -15.5q-24 0 -39.5 15.5t-15.5 39.5q0 23 15.5 39t39.5 16z" />
    <glyph glyph-name="question" unicode="?" horiz-adv-x="482" 
d="M193 187l-2 168q81 18 127 61t46 105q0 53 -37 83t-100 30q-65 0 -179 -32l-17 78q109 32 196 32q106 0 165 -49t59 -134q0 -73 -48.5 -132.5t-131.5 -85.5l-1 -119zM231 104q24 0 39.5 -16t15.5 -39q0 -24 -15.5 -39.5t-39.5 -15.5q-23 0 -39 15.5t-16 39.5q0 23 16 39
t39 16z" />
    <glyph glyph-name="questiondown" unicode="&#xbf;" horiz-adv-x="482" 
d="M290 292l2 -169q-84 -19 -128.5 -62.5t-44.5 -103.5q0 -53 37 -82.5t100 -29.5q68 0 179 31l16 -78q-109 -32 -196 -32q-106 0 -164.5 49t-58.5 134q0 72 48 132.5t132 86.5l1 118zM251 375q-23 0 -39 15.5t-16 39.5q0 23 16 39t39 16q24 0 39.5 -16t15.5 -39
q0 -24 -15.5 -39.5t-39.5 -15.5z" />
    <glyph glyph-name="exclam" unicode="!" horiz-adv-x="346" 
d="M134 187l-5 515h88l-6 -510zM173 104q23 0 39 -16t16 -39q0 -24 -16 -39.5t-39 -15.5q-24 0 -39.5 15.5t-15.5 39.5q0 23 15.5 39t39.5 16z" />
    <glyph glyph-name="exclamdown" unicode="&#xa1;" horiz-adv-x="346" 
d="M211 292l6 -516h-88l5 510zM173 375q-24 0 -39.5 15.5t-15.5 39.5q0 23 15.5 39t39.5 16q23 0 39 -16t16 -39q0 -24 -16 -39.5t-39 -15.5z" />
    <glyph glyph-name="parenleft" unicode="(" horiz-adv-x="336" 
d="M46 379q0 171 65 291t183 183l58 -50q-224 -121 -224 -424t224 -424l-58 -50q-118 63 -183 183.5t-65 290.5z" />
    <glyph glyph-name="parenright" unicode=")" horiz-adv-x="336" 
d="M290 379q0 -170 -65 -290.5t-183 -183.5l-58 50q224 120 224 424t-224 424l58 50q118 -63 183 -183t65 -291z" />
    <glyph glyph-name="bracketleft" unicode="[" horiz-adv-x="290" 
d="M286 838l-6 -72h-116v-774h122l-6 -72h-196v918h202z" />
    <glyph glyph-name="bracketright" unicode="]" horiz-adv-x="290" 
d="M4 -80l5 72h117v774h-122l5 72h197v-918h-202z" />
    <glyph glyph-name="braceleft" unicode="{" horiz-adv-x="344" 
d="M133 668q0 82 39 126.5t114 44.5l34 -2l-5 -71h-8q-52 0 -73 -27t-21 -80v-123q0 -120 -71 -157q71 -37 71 -157v-123q0 -59 24 -83t70 -24h13l-5 -71l-32 -2q-70 0 -110 43.5t-40 128.5v142q0 59 -19 84.5t-58 25.5h-32l5 72h32q37 2 54.5 27t17.5 83v143z" />
    <glyph glyph-name="braceright" unicode="}" horiz-adv-x="344" 
d="M211 91q0 -83 -39 -127.5t-114 -44.5l-34 2l5 71h8q52 0 73 27t21 80v123q0 121 71 157q-71 36 -71 157v123q0 54 -21.5 80.5t-73.5 26.5h-12l5 71l32 2q70 0 110 -43.5t40 -127.5v-143q0 -59 19 -84.5t58 -25.5h32l-5 -72h-32q-39 -2 -55.5 -28t-16.5 -82v-142z" />
    <glyph glyph-name="slash" unicode="/" horiz-adv-x="315" 
d="M361 834l-332 -914l-75 4l332 914z" />
    <glyph glyph-name="backslash" unicode="\" horiz-adv-x="315" 
d="M29 838l332 -914l-75 -4l-332 914z" />
    <glyph glyph-name="asterisk" unicode="*" horiz-adv-x="480" 
d="M52 605l153 -60l-10 160l84 6l-9 -165l148 58l31 -78l-158 -42l101 -122l-65 -54l-89 141l-88 -137l-70 45l104 127l-153 40z" />
    <glyph glyph-name="bullet" unicode="&#x2022;" horiz-adv-x="380" 
d="M34 351q0 69 43.5 112.5t112.5 43.5t112.5 -43.5t43.5 -112.5t-43.5 -112.5t-112.5 -43.5t-112.5 43.5t-43.5 112.5z" />
    <glyph glyph-name="section" unicode="&#xa7;" horiz-adv-x="605" 
d="M504 598q-85 31 -173 36q-4 -28 -4 -54q0 -115 102 -257q66 -93 96.5 -161t30.5 -133q0 -114 -74.5 -179.5t-202.5 -65.5q-96 0 -195 37l17 77q85 -31 173 -36q4 27 4 53q0 114 -101 259q-72 102 -100 166.5t-28 126.5q0 113 75 179t202 66q96 0 195 -37zM133 467
q0 -50 25 -104t98 -162q105 -154 105 -289l-2 -39q113 35 113 156q0 50 -25 104t-98 163q-106 155 -106 284l2 43q-112 -36 -112 -156z" />
    <glyph glyph-name="dagger" unicode="&#x2020;" horiz-adv-x="528" 
d="M221 -70l13 476l-210 -9l5 82l205 -9l-13 229l89 6l-13 -235l211 9l-6 -82l-205 9l13 -471z" />
    <glyph glyph-name="daggerdbl" unicode="&#x2021;" horiz-adv-x="528" 
d="M234 406l-210 -9l5 82l205 -9l-13 229l89 6l-13 -235l211 9l-6 -82l-205 9l13 -155l-12 -161l210 9l-6 -81l-204 8l13 -229l-90 -6l13 235l-210 -8l6 81l204 -9l-13 155z" />
    <glyph glyph-name="paragraph" unicode="&#xb6;" horiz-adv-x="513" 
d="M513 702l-4 -60h-62v-642h-65v642h-77v-642h-62v390h-52q-69 0 -112.5 43.5t-43.5 112.5t43.5 112.5t112.5 43.5h322z" />
    <glyph glyph-name="copyright" unicode="&#xa9;" horiz-adv-x="790" 
d="M100 351q0 -133 82 -217t213 -84t213 84.5t82 216.5q0 133 -82 217t-213 84t-213 -84.5t-82 -216.5zM34 351q0 160 100.5 260.5t260.5 100.5t260.5 -100.5t100.5 -260.5t-100.5 -260.5t-260.5 -100.5t-260.5 100.5t-100.5 260.5zM404 487q-59 0 -89 -35t-30 -101
q0 -64 29.5 -100.5t89.5 -36.5q43 0 100 19l10 -61q-52 -18 -112 -18q-92 0 -138.5 52t-46.5 145q0 95 47.5 146t137.5 51q57 0 112 -19l-10 -60q-54 18 -100 18z" />
    <glyph glyph-name="publish" horiz-adv-x="790" 
d="M100 351q0 -133 82 -217t213 -84t213 84.5t82 216.5q0 133 -82 217t-213 84t-213 -84.5t-82 -216.5zM34 351q0 160 100.5 260.5t260.5 100.5t260.5 -100.5t100.5 -260.5t-100.5 -260.5t-260.5 -100.5t-260.5 100.5t-100.5 260.5zM344 160h-67v380h115q166 0 166 -127
q0 -61 -42.5 -96.5t-121.5 -35.5q-31 0 -50 3v-124zM344 344q15 -3 49 -3q42 0 70 17t28 55q0 67 -98 67h-49v-136z" />
    <glyph glyph-name="registered" unicode="&#xae;" horiz-adv-x="430" 
d="M34 531q0 81 49.5 131t131.5 50q81 0 131 -49.5t50 -131.5q0 -81 -49.5 -131t-131.5 -50q-81 0 -131 49.5t-50 131.5zM77 531q0 -63 38.5 -102.5t99.5 -39.5q60 0 99 40t39 102q0 65 -39.5 103.5t-98.5 38.5t-98.5 -38.5t-39.5 -103.5zM190 434h-44v192h63q80 0 80 -65
q0 -39 -34 -57q6 -32 22 -32l22 5l5 -39q-17 -7 -36 -7q-41 0 -56 63h-4l-18 2v-62zM190 535l18 -2q37 0 37 29q0 26 -37 26h-18v-53z" />
    <glyph glyph-name="trademark" unicode="&#x2122;" horiz-adv-x="593" 
d="M4 659l2 43h218l-3 -43h-83v-211h-48v211h-86zM292 627v-179h-46v253l64 2l77 -198l78 198l64 -2v-253h-47v179l-69 -178l-50 -3z" />
    <glyph glyph-name="at" unicode="@" horiz-adv-x="1009" 
d="M673 126q0 -67 51 -67q68 0 109 63.5t41 187.5q0 154 -84 233.5t-239 79.5q-197 0 -306.5 -124.5t-109.5 -345.5q0 -145 80 -222.5t232 -77.5q96 0 188 39l27 -65q-98 -43 -215 -43q-188 0 -288 97t-100 272q0 255 131 397t361 142q190 0 294.5 -97.5t104.5 -284.5
q0 -149 -61.5 -234.5t-169.5 -85.5q-103 0 -114 121q-105 -121 -195 -121q-63 0 -97 50.5t-34 136.5q0 141 62.5 224t169.5 83q84 0 198 -58l-34 -273zM625 382q-64 30 -116 30q-70 0 -110.5 -62t-40.5 -168q0 -119 63 -119q36 0 86.5 40.5t96.5 111.5z" />
    <glyph glyph-name="zero.superior" unicode="&#x2070;" horiz-adv-x="381" 
d="M97 652q0 -143 94 -143q93 0 93 143q0 142 -93 142q-94 0 -94 -142zM32 652q0 95 40 146.5t119 51.5q80 0 119.5 -51t39.5 -147t-39.5 -147.5t-119.5 -51.5q-79 0 -119 51t-40 148z" />
    <glyph glyph-name="one.superior" horiz-adv-x="304" 
d="M289 515l-4 -55h-264l4 55h100v264l-104 -39v61l112 42h55v-328h101z" />
    <glyph glyph-name="two.superior" horiz-adv-x="318" 
d="M281 728q0 -52 -45.5 -101.5t-132.5 -111.5h190l-4 -55h-265l-4 55q99 73 147.5 122t48.5 91q0 66 -78 66q-49 0 -103 -23l-12 56q61 23 121 23q65 0 101 -31t36 -91z" />
    <glyph glyph-name="three.superior" horiz-adv-x="316" 
d="M173 677q41 31 41 66q0 51 -74 51q-50 0 -107 -23l-12 55q64 24 123 24q65 0 99.5 -27t34.5 -74q0 -56 -57 -96q69 -36 69 -96q0 -50 -37 -77t-106 -27q-66 0 -127 23l13 55q58 -22 113 -22q80 0 80 53q0 35 -47 61h-89l4 54h79z" />
    <glyph glyph-name="four.superior" unicode="&#x2074;" horiz-adv-x="340" 
d="M168 843q0 -74 -20.5 -130t-68.5 -115h111v90l64 4v-94h74l-4 -55h-70v-83h-64v83h-172l-4 55q45 54 67.5 111t22.5 134h64z" />
    <glyph glyph-name="five.superior" unicode="&#x2075;" horiz-adv-x="312" 
d="M103 678l53 3q135 0 135 -112q0 -59 -39.5 -87.5t-103.5 -28.5q-62 0 -123 24l12 56q59 -24 108 -24q36 0 59 15t23 47q0 30 -21 45t-72 15h-90v212h224l-3 -56h-162v-109z" />
    <glyph glyph-name="six.superior" unicode="&#x2076;" horiz-adv-x="338" 
d="M198 794q-98 0 -105 -133q63 29 113 29q52 0 84 -29t32 -87q0 -53 -38.5 -87t-107.5 -34q-65 0 -107 44t-42 138q0 104 42 159.5t126 55.5q53 0 108 -19l-14 -54q-57 17 -91 17zM196 638q-44 0 -102 -27q9 -104 83 -104q38 0 59.5 19.5t21.5 48.5q0 63 -62 63z" />
    <glyph glyph-name="seven.superior" unicode="&#x2077;" horiz-adv-x="297" 
d="M90 460q0 107 30.5 183t98.5 144h-207l4 56h266l3 -56q-75 -81 -103.5 -153.5t-28.5 -173.5h-63z" />
    <glyph glyph-name="eight.superior" unicode="&#x2078;" horiz-adv-x="346" 
d="M178 850q68 0 101.5 -30t33.5 -72q0 -35 -23.5 -57t-55.5 -38q94 -40 94 -103q0 -46 -38.5 -71.5t-111.5 -25.5q-74 0 -112.5 25.5t-38.5 71.5q0 39 28 62.5t66 40.5q-80 40 -80 95q0 42 34 72t103 30zM178 679q71 28 71 65q0 22 -18 37.5t-53 15.5q-36 0 -54 -15.5
t-18 -37.5q0 -37 72 -65zM178 627q-35 -14 -61 -30.5t-26 -41.5q0 -48 87 -48t87 48q0 24 -26.5 41t-60.5 31z" />
    <glyph glyph-name="nine.superior" unicode="&#x2079;" horiz-adv-x="338" 
d="M151 509q97 0 104 133q-60 -28 -113 -28q-51 0 -83.5 28.5t-32.5 87.5q0 52 38.5 86t107.5 34q70 0 110 -46.5t40 -135.5q0 -106 -43 -160.5t-125 -54.5q-53 0 -108 19l14 54q55 -17 91 -17zM153 664q40 0 102 27q-9 105 -83 105q-39 0 -60 -19.5t-21 -48.5q0 -64 62 -64
z" />
    <glyph glyph-name="parenleft.superior" unicode="&#x207d;" horiz-adv-x="211" 
d="M34 656q0 93 39 159t111 100l41 -41q-124 -66 -124 -218q0 -153 124 -219l-41 -42q-150 73 -150 261z" />
    <glyph glyph-name="parenright.superior" unicode="&#x207e;" horiz-adv-x="211" 
d="M178 656q0 -94 -39 -160t-110 -100l-43 41q125 67 125 219q0 151 -125 218l43 42q71 -35 110 -101t39 -159z" />
    <glyph glyph-name="plus.superior" unicode="&#x207a;" horiz-adv-x="343" 
d="M141 624h-117l5 56h112v103l62 4v-107h116l-3 -56h-113v-103l-62 -5v108z" />
    <glyph glyph-name="minus.superior" unicode="&#x207b;" horiz-adv-x="343" 
d="M319 680l-3 -56h-292l5 56h290z" />
    <glyph glyph-name="equal.superior" unicode="&#x207c;" horiz-adv-x="343" 
d="M319 755l-3 -56h-292l5 56h290zM319 608l-3 -55h-292l5 55h290z" />
    <glyph glyph-name="period.superior" horiz-adv-x="166" 
d="M83 544q19 0 31.5 -12.5t12.5 -31.5q0 -20 -12.5 -33t-31.5 -13t-31.5 13t-12.5 33q0 19 12.5 31.5t31.5 12.5z" />
    <glyph glyph-name="comma.superior" horiz-adv-x="166" 
d="M114 556q13 -38 13 -73q0 -56 -36 -134l-57 6q26 53 27 98q0 44 -18 98z" />
    <glyph glyph-name="zero.inferior" unicode="&#x2080;" horiz-adv-x="381" 
d="M97 42q0 -144 94 -144q93 0 93 144q0 142 -93 142q-94 0 -94 -142zM32 42q0 95 40 146.5t119 51.5q80 0 119.5 -51t39.5 -147t-39.5 -147.5t-119.5 -51.5q-79 0 -119 51t-40 148z" />
    <glyph glyph-name="one.inferior" unicode="&#x2081;" horiz-adv-x="304" 
d="M289 -95l-4 -55h-264l4 55h100v264l-104 -39v61l112 42h55v-328h101z" />
    <glyph glyph-name="two.inferior" unicode="&#x2082;" horiz-adv-x="318" 
d="M281 118q0 -52 -45.5 -101.5t-132.5 -111.5h190l-4 -55h-265l-4 55q99 73 147.5 122t48.5 91q0 66 -78 66q-49 0 -103 -23l-12 56q61 23 121 23q65 0 101 -31t36 -91z" />
    <glyph glyph-name="three.inferior" unicode="&#x2083;" horiz-adv-x="316" 
d="M173 67q41 31 41 66q0 51 -74 51q-50 0 -107 -23l-12 55q64 24 123 24q65 0 99.5 -27t34.5 -74q0 -56 -57 -96q69 -36 69 -97q0 -49 -37.5 -76t-105.5 -27q-66 0 -127 23l13 55q61 -23 113 -23q80 0 80 54q0 35 -47 61h-89l4 54h79z" />
    <glyph glyph-name="four.inferior" unicode="&#x2084;" horiz-adv-x="340" 
d="M168 233q0 -74 -20.5 -130t-68.5 -115h111v90l64 4v-94h74l-4 -55h-70v-83h-64v83h-172l-4 55q45 54 67.5 111t22.5 134h64z" />
    <glyph glyph-name="five.inferior" unicode="&#x2085;" horiz-adv-x="312" 
d="M103 68l53 3q135 0 135 -112q0 -59 -39.5 -87.5t-103.5 -28.5q-62 0 -123 24l12 56q61 -25 108 -25q36 0 59 15.5t23 47.5q0 30 -21 45t-72 15h-90v212h224l-3 -56h-162v-109z" />
    <glyph glyph-name="six.inferior" unicode="&#x2086;" horiz-adv-x="338" 
d="M198 184q-98 0 -105 -133q63 29 113 29q52 0 84 -29t32 -88q0 -52 -38.5 -86t-107.5 -34q-65 0 -107 44t-42 138q0 104 42 159.5t126 55.5q53 0 108 -19l-14 -54q-57 17 -91 17zM196 28q-44 0 -102 -27q9 -104 83 -104q38 0 59.5 19.5t21.5 47.5q0 64 -62 64z" />
    <glyph glyph-name="seven.inferior" unicode="&#x2087;" horiz-adv-x="297" 
d="M90 -150q0 107 30.5 183t98.5 144h-207l4 56h266l3 -56q-75 -81 -103.5 -153.5t-28.5 -173.5h-63z" />
    <glyph glyph-name="eight.inferior" unicode="&#x2088;" horiz-adv-x="346" 
d="M178 240q68 0 101.5 -30t33.5 -72q0 -35 -23.5 -57t-55.5 -38q94 -40 94 -103q0 -46 -38.5 -71.5t-111.5 -25.5q-74 0 -112.5 25.5t-38.5 71.5q0 38 28 62t66 41q-80 40 -80 95q0 42 34 72t103 30zM178 69q71 28 71 65q0 22 -18 37.5t-53 15.5q-36 0 -54 -15.5t-18 -37.5
q0 -37 72 -65zM178 17q-35 -14 -61 -31t-26 -41q0 -49 87 -49q42 0 64.5 13t22.5 36q0 24 -26.5 41t-60.5 31z" />
    <glyph glyph-name="nine.inferior" unicode="&#x2089;" horiz-adv-x="338" 
d="M151 -102q97 0 104 134q-60 -28 -113 -28q-51 0 -83.5 28.5t-32.5 87.5q0 52 38.5 86t107.5 34q70 0 110 -46.5t40 -135.5q0 -106 -43 -160.5t-125 -54.5q-53 0 -108 19l14 54q59 -18 91 -18zM153 54q40 0 102 27q-9 105 -83 105q-39 0 -60 -19.5t-21 -48.5q0 -64 62 -64
z" />
    <glyph glyph-name="parenleft.inferior" unicode="&#x208d;" horiz-adv-x="211" 
d="M34 46q0 93 39 159t111 100l41 -41q-124 -66 -124 -218q0 -153 124 -219l-41 -42q-150 73 -150 261z" />
    <glyph glyph-name="parenright.inferior" unicode="&#x208e;" horiz-adv-x="211" 
d="M178 46q0 -94 -39 -160t-110 -101l-43 42q125 67 125 219q0 151 -125 218l43 42q71 -35 110 -101t39 -159z" />
    <glyph glyph-name="plus.inferior" horiz-adv-x="343" 
d="M141 14h-117l5 56h112v103l62 4v-107h116l-3 -56h-113v-104l-62 -4v108z" />
    <glyph glyph-name="minus.inferior" horiz-adv-x="343" 
d="M319 70l-3 -56h-292l5 56h290z" />
    <glyph glyph-name="equal.inferior" horiz-adv-x="343" 
d="M319 145l-3 -56h-292l5 56h290zM319 -2l-3 -55h-292l5 55h290z" />
    <glyph glyph-name="period.inferior" horiz-adv-x="166" 
d="M83 -66q19 0 31.5 -12.5t12.5 -31.5q0 -20 -12.5 -33t-31.5 -13t-31.5 13t-12.5 33q0 19 12.5 31.5t31.5 12.5z" />
    <glyph glyph-name="comma.inferior" horiz-adv-x="166" 
d="M114 -54q13 -38 13 -73q0 -56 -36 -134l-57 5q26 55 27 98q0 46 -18 98z" />
    <glyph glyph-name="zero.numr" horiz-adv-x="381" 
d="M97 511q0 -143 94 -143q93 0 93 143q0 142 -93 142q-94 0 -94 -142zM32 511q0 95 40 146.5t119 51.5q80 0 119.5 -51t39.5 -147t-39.5 -147.5t-119.5 -51.5q-79 0 -119 51t-40 148z" />
    <glyph glyph-name="one.numr" horiz-adv-x="304" 
d="M289 374l-4 -55h-264l4 55h100v264l-104 -39v61l112 42h55v-328h101z" />
    <glyph glyph-name="two.numr" horiz-adv-x="318" 
d="M281 587q0 -52 -45.5 -101.5t-132.5 -111.5h190l-4 -55h-265l-4 55q99 73 147.5 122t48.5 91q0 66 -78 66q-49 0 -103 -23l-12 56q61 23 121 23q65 0 101 -31t36 -91z" />
    <glyph glyph-name="three.numr" horiz-adv-x="316" 
d="M173 536q41 31 41 66q0 51 -74 51q-50 0 -107 -23l-12 55q64 24 123 24q65 0 99.5 -27t34.5 -74q0 -56 -57 -96q69 -36 69 -96q0 -50 -37 -77t-106 -27q-66 0 -127 23l13 55q58 -22 113 -22q80 0 80 53q0 35 -47 61h-89l4 54h79z" />
    <glyph glyph-name="four.numr" horiz-adv-x="340" 
d="M168 702q0 -74 -20.5 -130t-68.5 -115h111v90l64 4v-94h74l-4 -55h-70v-83h-64v83h-172l-4 55q45 54 67.5 111t22.5 134h64z" />
    <glyph glyph-name="five.numr" horiz-adv-x="312" 
d="M103 537l53 3q135 0 135 -112q0 -59 -39.5 -87.5t-103.5 -28.5q-62 0 -123 24l12 56q59 -24 108 -24q36 0 59 15t23 47q0 30 -21 45t-72 15h-90v212h224l-3 -56h-162v-109z" />
    <glyph glyph-name="six.numr" horiz-adv-x="338" 
d="M198 653q-98 0 -105 -133q63 29 113 29q52 0 84 -29t32 -87q0 -53 -38.5 -87t-107.5 -34q-65 0 -107 44t-42 138q0 104 42 159.5t126 55.5q53 0 108 -19l-14 -54q-57 17 -91 17zM196 497q-44 0 -102 -27q9 -104 83 -104q38 0 59.5 19.5t21.5 48.5q0 63 -62 63z" />
    <glyph glyph-name="seven.numr" horiz-adv-x="297" 
d="M90 319q0 107 30.5 183t98.5 144h-207l4 56h266l3 -56q-75 -81 -103.5 -153.5t-28.5 -173.5h-63z" />
    <glyph glyph-name="eight.numr" horiz-adv-x="346" 
d="M178 709q68 0 101.5 -30t33.5 -72q0 -35 -23.5 -57t-55.5 -38q94 -40 94 -103q0 -46 -38.5 -71.5t-111.5 -25.5q-74 0 -112.5 25.5t-38.5 71.5q0 39 28 62.5t66 40.5q-80 40 -80 95q0 42 34 72t103 30zM178 538q71 28 71 65q0 22 -18 37.5t-53 15.5q-36 0 -54 -15.5
t-18 -37.5q0 -37 72 -65zM178 486q-35 -14 -61 -30.5t-26 -41.5q0 -48 87 -48t87 48q0 24 -26.5 41t-60.5 31z" />
    <glyph glyph-name="nine.numr" horiz-adv-x="338" 
d="M151 368q97 0 104 133q-60 -28 -113 -28q-51 0 -83.5 28.5t-32.5 87.5q0 52 38.5 86t107.5 34q70 0 110 -46.5t40 -135.5q0 -106 -43 -160.5t-125 -54.5q-53 0 -108 19l14 54q55 -17 91 -17zM153 523q40 0 102 27q-9 105 -83 105q-39 0 -60 -19.5t-21 -48.5q0 -64 62 -64
z" />
    <glyph glyph-name="zero.dnom" horiz-adv-x="381" 
d="M97 192q0 -143 94 -143q93 0 93 143q0 142 -93 142q-94 0 -94 -142zM32 192q0 95 40 146.5t119 51.5q80 0 119.5 -51t39.5 -147t-39.5 -147.5t-119.5 -51.5q-79 0 -119 51t-40 148z" />
    <glyph glyph-name="one.dnom" horiz-adv-x="304" 
d="M289 55l-4 -55h-264l4 55h100v264l-104 -39v61l112 42h55v-328h101z" />
    <glyph glyph-name="two.dnom" horiz-adv-x="318" 
d="M281 268q0 -52 -45.5 -101.5t-132.5 -111.5h190l-4 -55h-265l-4 55q99 73 147.5 122t48.5 91q0 66 -78 66q-49 0 -103 -23l-12 56q61 23 121 23q65 0 101 -31t36 -91z" />
    <glyph glyph-name="three.dnom" horiz-adv-x="316" 
d="M173 217q41 31 41 66q0 51 -74 51q-50 0 -107 -23l-12 55q64 24 123 24q65 0 99.5 -27t34.5 -74q0 -56 -57 -96q69 -36 69 -96q0 -50 -37 -77t-106 -27q-66 0 -127 23l13 55q58 -22 113 -22q80 0 80 53q0 35 -47 61h-89l4 54h79z" />
    <glyph glyph-name="four.dnom" horiz-adv-x="340" 
d="M168 383q0 -74 -20.5 -130t-68.5 -115h111v90l64 4v-94h74l-4 -55h-70v-83h-64v83h-172l-4 55q45 54 67.5 111t22.5 134h64z" />
    <glyph glyph-name="five.dnom" horiz-adv-x="312" 
d="M103 218l53 3q135 0 135 -112q0 -59 -39.5 -87.5t-103.5 -28.5q-62 0 -123 24l12 56q59 -24 108 -24q36 0 59 15t23 47q0 30 -21 45t-72 15h-90v212h224l-3 -56h-162v-109z" />
    <glyph glyph-name="six.dnom" horiz-adv-x="338" 
d="M198 334q-98 0 -105 -133q63 29 113 29q52 0 84 -29t32 -87q0 -53 -38.5 -87t-107.5 -34q-65 0 -107 44t-42 138q0 104 42 159.5t126 55.5q53 0 108 -19l-14 -54q-57 17 -91 17zM196 178q-44 0 -102 -27q9 -104 83 -104q38 0 59.5 19.5t21.5 48.5q0 63 -62 63z" />
    <glyph glyph-name="seven.dnom" horiz-adv-x="297" 
d="M90 0q0 107 30.5 183t98.5 144h-207l4 56h266l3 -56q-75 -81 -103.5 -153.5t-28.5 -173.5h-63z" />
    <glyph glyph-name="eight.dnom" horiz-adv-x="346" 
d="M178 390q68 0 101.5 -30t33.5 -72q0 -35 -23.5 -57t-55.5 -38q94 -40 94 -103q0 -46 -38.5 -71.5t-111.5 -25.5q-74 0 -112.5 25.5t-38.5 71.5q0 39 28 62.5t66 40.5q-80 40 -80 95q0 42 34 72t103 30zM178 219q71 28 71 65q0 22 -18 37.5t-53 15.5q-36 0 -54 -15.5
t-18 -37.5q0 -37 72 -65zM178 167q-35 -14 -61 -30.5t-26 -41.5q0 -48 87 -48t87 48q0 24 -26.5 41t-60.5 31z" />
    <glyph glyph-name="nine.dnom" horiz-adv-x="338" 
d="M151 49q97 0 104 133q-60 -28 -113 -28q-51 0 -83.5 28.5t-32.5 87.5q0 52 38.5 86t107.5 34q70 0 110 -46.5t40 -135.5q0 -106 -43 -160.5t-125 -54.5q-53 0 -108 19l14 54q55 -17 91 -17zM153 204q40 0 102 27q-9 105 -83 105q-39 0 -60 -19.5t-21 -48.5q0 -64 62 -64z
" />
    <glyph glyph-name="onequarter" unicode="&#xbc;" horiz-adv-x="750" 
d="M565 383q0 -74 -20.5 -130t-68.5 -115h111v90l64 4v-94h74l-4 -55h-70v-83h-64v83h-172l-4 55q45 54 67.5 111t22.5 134h64zM291 374l-4 -55h-264l4 55h100v264l-104 -39v61l112 42h55v-328h101zM554 702h72l-407 -702h-72z" />
    <glyph glyph-name="onehalf" unicode="&#xbd;" horiz-adv-x="763" 
d="M727 268q0 -52 -45.5 -101.5t-132.5 -111.5h190l-4 -55h-265l-4 55q99 73 147.5 122t48.5 91q0 66 -78 66q-49 0 -103 -23l-12 56q61 23 121 23q65 0 101 -31t36 -91zM291 374l-4 -55h-264l4 55h100v264l-104 -39v61l112 42h55v-328h101zM554 702h72l-407 -702h-72z" />
    <glyph glyph-name="threequarters" unicode="&#xbe;" horiz-adv-x="736" 
d="M551 383q0 -74 -20.5 -130t-68.5 -115h111v90l64 4v-94h74l-4 -55h-70v-83h-64v83h-172l-4 55q45 54 67.5 111t22.5 134h64zM176 536q41 31 41 66q0 51 -74 51q-50 0 -107 -23l-12 55q64 24 123 24q65 0 99.5 -27t34.5 -74q0 -56 -57 -96q69 -36 69 -96q0 -50 -37 -77
t-106 -27q-66 0 -127 23l13 55q58 -22 113 -22q80 0 80 53q0 35 -47 61h-89l4 54h79zM534 702h72l-407 -702h-72z" />
    <glyph glyph-name="oneeighth" unicode="&#x215b;" horiz-adv-x="769" 
d="M595 390q68 0 101.5 -30t33.5 -72q0 -35 -23.5 -57t-55.5 -38q94 -40 94 -103q0 -46 -38.5 -71.5t-111.5 -25.5q-74 0 -112.5 25.5t-38.5 71.5q0 39 28 62.5t66 40.5q-80 40 -80 95q0 42 34 72t103 30zM595 219q71 28 71 65q0 22 -18 37.5t-53 15.5q-36 0 -54 -15.5
t-18 -37.5q0 -37 72 -65zM595 167q-35 -14 -61 -30.5t-26 -41.5q0 -48 87 -48t87 48q0 24 -26.5 41t-60.5 31zM291 374l-4 -55h-264l4 55h100v264l-104 -39v61l112 42h55v-328h101zM554 702h72l-407 -702h-72z" />
    <glyph glyph-name="threeeighths" unicode="&#x215c;" horiz-adv-x="748" 
d="M573 390q68 0 101.5 -30t33.5 -72q0 -35 -23.5 -57t-55.5 -38q94 -40 94 -103q0 -46 -38.5 -71.5t-111.5 -25.5q-74 0 -112.5 25.5t-38.5 71.5q0 39 28 62.5t66 40.5q-80 40 -80 95q0 42 34 72t103 30zM573 219q71 28 71 65q0 22 -18 37.5t-53 15.5q-36 0 -54 -15.5
t-18 -37.5q0 -37 72 -65zM573 167q-35 -14 -61 -30.5t-26 -41.5q0 -48 87 -48t87 48q0 24 -26.5 41t-60.5 31zM176 536q41 31 41 66q0 51 -74 51q-50 0 -107 -23l-12 55q64 24 123 24q65 0 99.5 -27t34.5 -74q0 -56 -57 -96q69 -36 69 -96q0 -50 -37 -77t-106 -27
q-66 0 -127 23l13 55q58 -22 113 -22q80 0 80 53q0 35 -47 61h-89l4 54h79zM533 702h72l-407 -702h-72z" />
    <glyph glyph-name="fiveeighths" unicode="&#x215d;" horiz-adv-x="736" 
d="M102 537l53 3q135 0 135 -112q0 -59 -39.5 -87.5t-103.5 -28.5q-62 0 -123 24l12 56q59 -24 108 -24q36 0 59 15t23 47q0 30 -21 45t-72 15h-90v212h224l-3 -56h-162v-109zM521 702h72l-407 -702h-72zM561 390q68 0 101.5 -30t33.5 -72q0 -35 -23.5 -57t-55.5 -38
q94 -40 94 -103q0 -46 -38.5 -71.5t-111.5 -25.5q-74 0 -112.5 25.5t-38.5 71.5q0 39 28 62.5t66 40.5q-80 40 -80 95q0 42 34 72t103 30zM561 219q71 28 71 65q0 22 -18 37.5t-53 15.5q-36 0 -54 -15.5t-18 -37.5q0 -37 72 -65zM561 167q-35 -14 -61 -30.5t-26 -41.5
q0 -48 87 -48t87 48q0 24 -26.5 41t-60.5 31z" />
    <glyph glyph-name="seveneighths" unicode="&#x215e;" horiz-adv-x="711" 
d="M536 390q68 0 101.5 -30t33.5 -72q0 -35 -23.5 -57t-55.5 -38q94 -40 94 -103q0 -46 -38.5 -71.5t-111.5 -25.5q-74 0 -112.5 25.5t-38.5 71.5q0 39 28 62.5t66 40.5q-80 40 -80 95q0 42 34 72t103 30zM536 219q71 28 71 65q0 22 -18 37.5t-53 15.5q-36 0 -54 -15.5
t-18 -37.5q0 -37 72 -65zM536 167q-35 -14 -61 -30.5t-26 -41.5q0 -48 87 -48t87 48q0 24 -26.5 41t-60.5 31zM496 702h72l-407 -702h-72zM102 319q0 107 30.5 183t98.5 144h-207l4 56h266l3 -56q-75 -81 -103.5 -153.5t-28.5 -173.5h-63z" />
    <glyph glyph-name="onethird" unicode="&#x2153;" horiz-adv-x="762" 
d="M291 374l-4 -55h-264l4 55h100v264l-104 -39v61l112 42h55v-328h101zM554 702h72l-407 -702h-72zM621 217q41 31 41 66q0 51 -74 51q-50 0 -107 -23l-12 55q64 24 123 24q65 0 99.5 -27t34.5 -74q0 -56 -57 -96q69 -36 69 -96q0 -50 -37 -77t-106 -27q-66 0 -127 23
l13 55q58 -22 113 -22q80 0 80 53q0 35 -47 61h-89l4 54h79z" />
    <glyph glyph-name="twothirds" unicode="&#x2154;" horiz-adv-x="771" 
d="M563 702h72l-407 -702h-72zM630 217q41 31 41 66q0 51 -74 51q-50 0 -107 -23l-12 55q64 24 123 24q65 0 99.5 -27t34.5 -74q0 -56 -57 -96q69 -36 69 -96q0 -50 -37 -77t-106 -27q-66 0 -127 23l13 55q58 -22 113 -22q80 0 80 53q0 35 -47 61h-89l4 54h79zM285 587
q0 -52 -45.5 -101.5t-132.5 -111.5h190l-4 -55h-265l-4 55q99 73 147.5 122t48.5 91q0 66 -78 66q-49 0 -103 -23l-12 56q61 23 121 23q65 0 101 -31t36 -91z" />
    <glyph glyph-name="questiondown.cap" horiz-adv-x="482" 
d="M290 515l2 -168q-81 -18 -127 -61t-46 -105q0 -53 37 -82.5t100 -29.5q68 0 179 31l16 -78q-109 -32 -196 -32q-106 0 -164.5 49t-58.5 134q0 73 48.5 132.5t131.5 85.5l1 119zM251 598q-23 0 -39 16t-16 39q0 24 16 39.5t39 15.5q24 0 39.5 -15.5t15.5 -39.5
q0 -23 -15.5 -39t-39.5 -16z" />
    <glyph glyph-name="exclamdown.cap" horiz-adv-x="346" 
d="M211 515l6 -515h-88l5 510zM173 598q-24 0 -39.5 16t-15.5 39q0 24 15.5 39.5t39.5 15.5q23 0 39 -15.5t16 -39.5q0 -23 -16 -39t-39 -16z" />
    <glyph glyph-name="guillemotleft.cap" horiz-adv-x="486" 
d="M24 325l5 57l185 184l53 -60l-158 -155l158 -155l-53 -60zM219 325l5 57l185 184l53 -60l-158 -155l158 -155l-53 -60z" />
    <glyph glyph-name="guillemotright.cap" horiz-adv-x="486" 
d="M462 378l-6 -57l-184 -185l-53 60l158 155l-158 155l53 60zM267 378l-6 -57l-184 -185l-53 60l158 155l-158 155l53 60z" />
    <glyph glyph-name="guilsinglleft.cap" horiz-adv-x="291" 
d="M24 325l5 57l185 184l53 -60l-158 -155l158 -155l-53 -60z" />
    <glyph glyph-name="guilsinglright.cap" horiz-adv-x="291" 
d="M267 378l-6 -57l-184 -185l-53 60l158 155l-158 155l53 60z" />
    <glyph glyph-name="emdash.cap" horiz-adv-x="1059" 
d="M1025 387l-6 -72h-995l5 72h996z" />
    <glyph glyph-name="endash.cap" horiz-adv-x="562" 
d="M538 387l-6 -72h-508l5 72h509z" />
    <glyph glyph-name="hyphen.cap" horiz-adv-x="283" 
d="M249 387l-6 -72h-209l5 72h210z" />
    <glyph glyph-name="at.cap" horiz-adv-x="1009" 
d="M673 218q0 -67 51 -67q68 0 109 63.5t41 187.5q0 154 -84 233.5t-239 79.5q-197 0 -306.5 -124.5t-109.5 -345.5q0 -144 80 -222t232 -78q96 0 188 39l27 -65q-98 -43 -215 -43q-188 0 -288 97t-100 272q0 255 131 397t361 142q190 0 294.5 -97.5t104.5 -284.5
q0 -149 -61.5 -234.5t-169.5 -85.5q-103 0 -114 121q-105 -121 -195 -121q-63 0 -97 50.5t-34 136.5q0 141 62.5 224t169.5 83q84 0 198 -58l-34 -273zM625 474q-64 30 -116 30q-70 0 -110.5 -62t-40.5 -168q0 -119 63 -119q36 0 86.5 40.5t96.5 111.5z" />
    </font>
</defs>
</svg>
