<?xml version="1.0" standalone="no"?>
<!DOCTYPE svg PUBLIC "-//W3C//DTD SVG 1.1//EN" "http://www.w3.org/Graphics/SVG/1.1/DTD/svg11.dtd" >
<svg>
<metadata>
Created by FontForge 20090622 at Wed Aug 29 06:30:19 2018
 By deploy user
Copyright (c) 2010 by Tomas Brousil. All rights reserved.
</metadata>
<defs>
<font id="MSGloriolaIIStdLight" horiz-adv-x="552" >
  <font-face 
    font-family="MS Gloriola II Std Light"
    font-weight="300"
    font-stretch="normal"
    units-per-em="1000"
    panose-1="2 0 0 0 0 0 0 0 0 0"
    ascent="750"
    descent="-250"
    x-height="474"
    cap-height="702"
    bbox="-58 -285 1183 1011"
    underline-thickness="50"
    underline-position="-50"
    unicode-range="U+0020-U+FB04"
  />
<missing-glyph horiz-adv-x="830" 
d="M100 630h630v-630h-630v630zM185 50h460l-230 230zM415 350l230 230h-460zM680 85v460l-230 -230zM150 545v-460l230 230z" />
    <glyph glyph-name="fi" unicode="fi" horiz-adv-x="531" 
d="M106 594q0 83 34.5 123.5t97.5 40.5q39 0 90 -15l-5 -45q-49 14 -81 14q-43 0 -64.5 -28t-21.5 -96v-114h300v-474h-50v428h-250v-428h-50v428h-81l4 46h77v120zM431 635q17 0 27.5 -10.5t10.5 -27.5t-10.5 -27.5t-27.5 -10.5t-27.5 10.5t-10.5 27.5t10.5 27.5t27.5 10.5
z" />
    <glyph glyph-name="fl" unicode="fl" horiz-adv-x="606" 
d="M106 594q0 90 43 127t136 37q69 0 171 -15v-640q0 -66 53 -66q32 0 87 17l5 -45q-55 -19 -98 -19q-97 0 -97 114v597q-79 11 -121 11q-70 0 -99.5 -27t-29.5 -97v-114h156l-4 -46h-152v-428h-50v428h-81l4 46h77v120z" />
    <glyph glyph-name=".notdef" horiz-adv-x="830" 
d="M100 630h630v-630h-630v630zM185 50h460l-230 230zM415 350l230 230h-460zM680 85v460l-230 -230zM150 545v-460l230 230z" />
    <glyph glyph-name="NULL" horiz-adv-x="0" 
 />
    <glyph glyph-name="nonmarkingreturn" horiz-adv-x="0" 
 />
    <glyph glyph-name="space" unicode=" " horiz-adv-x="273" 
 />
    <glyph glyph-name="A" unicode="A" horiz-adv-x="630" 
d="M314 654l-150 -417h300zM147 189l-68 -189h-54l255 700l68 4l257 -704h-56l-68 189h-334z" />
    <glyph glyph-name="B" unicode="B" horiz-adv-x="586" 
d="M367 370q92 58 92 166q0 51 -33.5 84.5t-91.5 33.5h-207v-284h240zM75 702h259q79 0 128 -45.5t49 -120.5q0 -107 -87 -179q59 -33 88 -81.5t29 -99.5q0 -89 -68 -137.5t-189 -48.5q-62 0 -209 25v687zM127 322v-268q80 -16 157 -16q105 0 155 37.5t50 100.5q0 46 -27 85
t-75 61h-260z" />
    <glyph glyph-name="C" unicode="C" horiz-adv-x="608" 
d="M374 664q-122 0 -189.5 -80.5t-67.5 -232.5t67 -232.5t190 -80.5q88 0 178 37l11 -48q-94 -37 -189 -37q-148 0 -228.5 94t-80.5 267t80.5 267t228.5 94q95 0 189 -37l-11 -48q-90 37 -178 37z" />
    <glyph glyph-name="D" unicode="D" horiz-adv-x="690" 
d="M310 702q157 0 236 -88.5t79 -259.5q0 -173 -86 -268.5t-245 -95.5q-116 0 -219 23v689h235zM127 654v-601q84 -15 170 -15q132 0 204 82.5t72 233.5q0 300 -264 300h-182z" />
    <glyph glyph-name="E" unicode="E" horiz-adv-x="545" 
d="M75 702h425l-4 -48h-369v-284h323l-4 -48h-319v-274h373l-4 -48h-421v702z" />
    <glyph glyph-name="F" unicode="F" horiz-adv-x="515" 
d="M127 0h-52v702h425l-4 -48h-369v-294h323l-4 -48h-319v-312z" />
    <glyph glyph-name="G" unicode="G" horiz-adv-x="675" 
d="M384 664q-128 0 -197.5 -81t-69.5 -232q0 -152 67 -232.5t199 -80.5q83 0 165 31v218h-199l4 48h247v-301q-122 -44 -221 -44q-155 0 -234.5 93t-79.5 268t82 268t237 93q95 0 189 -37l-11 -48q-94 37 -178 37z" />
    <glyph glyph-name="H" unicode="H" horiz-adv-x="654" 
d="M127 702v-332h400v332h52v-702h-52v322h-400v-322h-52v702h52z" />
    <glyph glyph-name="I" unicode="I" horiz-adv-x="202" 
d="M127 702v-702h-52v702h52z" />
    <glyph glyph-name="J" unicode="J" horiz-adv-x="227" 
d="M152 702v-611q0 -76 -31.5 -132.5t-103.5 -114.5l-39 33q56 46 89 96.5t33 118.5v610h52z" />
    <glyph glyph-name="K" unicode="K" horiz-adv-x="568" 
d="M127 335v-335h-52v702h52v-335l337 337l65 -4l-348 -346l352 -352l-70 -4z" />
    <glyph glyph-name="L" unicode="L" horiz-adv-x="515" 
d="M127 702v-654h353l-4 -48h-401v702h52z" />
    <glyph glyph-name="M" unicode="M" horiz-adv-x="833" 
d="M127 604v-604h-52v700l67 4l275 -646l275 646l66 -4v-700h-52v604l-256 -602l-64 -4z" />
    <glyph glyph-name="N" unicode="N" horiz-adv-x="654" 
d="M127 0h-52v700l52 4l400 -613v611h52v-700l-52 -4l-400 613v-611z" />
    <glyph glyph-name="O" unicode="O" horiz-adv-x="752" 
d="M117 351q0 -313 259 -313t259 313t-259 313t-259 -313zM65 351q0 361 311 361t311 -361t-311 -361t-311 361z" />
    <glyph glyph-name="P" unicode="P" horiz-adv-x="566" 
d="M127 309q69 -9 118 -9q110 0 172 48t62 137q0 91 -61 130t-172 39h-119v-345zM127 0h-52v702h173q283 0 283 -219q0 -108 -75.5 -169.5t-210.5 -61.5q-40 0 -118 9v-261z" />
    <glyph glyph-name="Q" unicode="Q" horiz-adv-x="752" 
d="M65 351q0 361 311 361t311 -361q0 -297 -210 -350q23 -72 50.5 -105t75.5 -33q34 0 79 17l7 -46q-55 -19 -97 -19q-56 0 -97 41t-69 137l-50 -3q-311 0 -311 361zM117 351q0 -313 259 -313t259 313t-259 313t-259 -313z" />
    <glyph glyph-name="R" unicode="R" horiz-adv-x="597" 
d="M127 0h-52v702h169q267 0 267 -207q0 -147 -136 -197l182 -296l-59 -4l-174 285q-35 -7 -83 -7q-14 0 -114 8v-284zM127 333q90 -9 113 -9q103 0 161 45t58 128q0 85 -57 121t-162 36h-113v-321z" />
    <glyph glyph-name="S" unicode="S" 
d="M89 79q88 -41 181 -41q84 0 129.5 37t45.5 104q0 47 -44.5 83.5t-145.5 77.5q-96 39 -143 86t-47 110q0 83 58 129.5t162 46.5q97 0 189 -41l-11 -48q-80 42 -178 42q-81 0 -124.5 -35t-43.5 -97q0 -46 42 -81t148 -79q97 -41 143.5 -87.5t46.5 -109.5q0 -88 -61.5 -137
t-167.5 -49q-98 0 -190 41z" />
    <glyph glyph-name="T" unicode="T" horiz-adv-x="548" 
d="M5 654l4 48h534l-4 -48h-239v-654h-52v654h-243z" />
    <glyph glyph-name="U" unicode="U" horiz-adv-x="654" 
d="M127 206q0 -80 49.5 -124t150.5 -44q100 0 150 44t50 124v496h52v-496q0 -106 -65 -161t-187 -55t-187 54t-65 162v496h52v-496z" />
    <glyph glyph-name="V" unicode="V" horiz-adv-x="627" 
d="M602 700l-255 -700h-67l-255 700l54 4l235 -654l235 654z" />
    <glyph glyph-name="W" unicode="W" horiz-adv-x="954" 
d="M929 700l-205 -700h-67l-180 625l-180 -625h-67l-205 700l54 4l185 -654l184 650l58 4l185 -654l185 654z" />
    <glyph glyph-name="X" unicode="X" horiz-adv-x="642" 
d="M292 351l-247 349l60 4l216 -311l215 311l61 -4l-247 -349l247 -349l-60 -4l-216 311l-216 -311l-60 4z" />
    <glyph glyph-name="Y" unicode="Y" horiz-adv-x="582" 
d="M265 303l-250 397l60 4l216 -351l215 351l61 -4l-250 -397v-303h-52v303z" />
    <glyph glyph-name="Z" unicode="Z" horiz-adv-x="576" 
d="M49 702h478l4 -48l-421 -606h421l-4 -48h-478l-4 48l421 606h-421z" />
    <glyph glyph-name="AE" unicode="&#xc6;" horiz-adv-x="918" 
d="M-15 0l443 702h445l-4 -48h-369v-284h323l-4 -48h-319v-274h373l-4 -48h-421v189h-285l-117 -189h-61zM448 237v411l-255 -411h255z" />
    <glyph glyph-name="Eng" unicode="&#x14a;" horiz-adv-x="654" 
d="M127 611v-611h-52v700l52 4l400 -613v611h52v-671q0 -76 -31.5 -132.5t-103.5 -114.5l-39 33q50 41 81.5 84t38.5 100z" />
    <glyph glyph-name="Eth" unicode="&#xd0;" horiz-adv-x="690" 
d="M75 373v329h235q157 0 236 -88.5t79 -259.5q0 -173 -86 -268.5t-245 -95.5q-116 0 -219 23v316h-70l4 44h66zM127 654v-281h167l-4 -44h-163v-276q84 -15 170 -15q132 0 204 82.5t72 233.5q0 300 -264 300h-182z" />
    <glyph glyph-name="IJ" unicode="&#x132;" horiz-adv-x="419" 
d="M127 702v-702h-52v702h52zM344 702v-611q0 -76 -31.5 -132.5t-103.5 -114.5l-39 33q56 46 89 96.5t33 118.5v610h52z" />
    <glyph glyph-name="OE" unicode="&#x152;" horiz-adv-x="1105" 
d="M635 129q-70 -139 -259 -139q-311 0 -311 361t311 361q188 0 259 -140v130h425l-4 -48h-369v-284h323l-4 -48h-319v-274h373l-4 -48h-421v129zM117 351q0 -313 259 -313t259 313v17q-7 296 -259 296q-259 0 -259 -313z" />
    <glyph glyph-name="Oslash" unicode="&#xd8;" horiz-adv-x="752" 
d="M676 740l-76 -109q87 -89 87 -280q0 -361 -311 -361q-114 0 -186 49l-69 -100l-45 23l75 109q-86 90 -86 280q0 361 311 361q114 0 186 -49l69 100zM635 351q0 157 -66 235l-349 -505q60 -43 156 -43q259 0 259 313zM117 351q0 -155 65 -235l350 505q-60 43 -156 43
q-259 0 -259 -313z" />
    <glyph glyph-name="Thorn" unicode="&#xde;" horiz-adv-x="566" 
d="M127 178q69 -9 118 -9q111 0 172.5 46.5t61.5 135.5t-61.5 135.5t-172.5 46.5q-49 0 -118 -9v-346zM75 702h52v-130q78 9 118 9q134 0 210 -61.5t76 -169.5t-76.5 -168.5t-209.5 -60.5q-40 0 -118 9v-130h-52v702z" />
    <glyph glyph-name="Aacute" unicode="&#xc1;" horiz-adv-x="630" 
d="M314 654l-150 -417h300zM147 189l-68 -189h-54l255 700l68 4l257 -704h-56l-68 189h-334zM457 890l-129 -128h-57l114 128h72z" />
    <glyph glyph-name="Abreve" unicode="&#x102;" horiz-adv-x="630" 
d="M314 654l-150 -417h300zM147 189l-68 -189h-54l255 700l68 4l257 -704h-56l-68 189h-334zM213 895q13 -92 92 -92q38 0 59.5 21.5t30.5 70.5l45 -4q-14 -134 -135 -134q-123 0 -137 134z" />
    <glyph glyph-name="Acircumflex" unicode="&#xc2;" horiz-adv-x="630" 
d="M314 654l-150 -417h300zM147 189l-68 -189h-54l255 700l68 4l257 -704h-56l-68 189h-334zM470 762h-67l-89 87l-89 -87h-67l134 128h44z" />
    <glyph glyph-name="Adieresis" unicode="&#xc4;" horiz-adv-x="630" 
d="M314 654l-150 -417h300zM147 189l-68 -189h-54l255 700l68 4l257 -704h-56l-68 189h-334zM221 848q17 0 27.5 -10.5t10.5 -27.5t-10.5 -27.5t-27.5 -10.5t-27.5 10.5t-10.5 27.5t10.5 27.5t27.5 10.5zM407 848q17 0 27.5 -10.5t10.5 -27.5t-10.5 -27.5t-27.5 -10.5
t-27.5 10.5t-10.5 27.5t10.5 27.5t27.5 10.5z" />
    <glyph glyph-name="Agrave" unicode="&#xc0;" horiz-adv-x="630" 
d="M314 654l-150 -417h300zM147 189l-68 -189h-54l255 700l68 4l257 -704h-56l-68 189h-334zM243 890l114 -128h-57l-129 128h72z" />
    <glyph glyph-name="Amacron" unicode="&#x100;" horiz-adv-x="630" 
d="M314 654l-150 -417h300zM147 189l-68 -189h-54l255 700l68 4l257 -704h-56l-68 189h-334zM459 816l-4 -44h-285l4 44h285z" />
    <glyph glyph-name="Aogonek" unicode="&#x104;" horiz-adv-x="630" 
d="M147 189l-68 -189h-54l255 700l68 4l257 -704q-44 -24 -65.5 -55t-21.5 -60q0 -23 14.5 -39t44.5 -16q17 0 44 8l7 -46q-29 -8 -51 -8q-56 0 -82.5 29t-26.5 72q0 70 77 125l-64 179h-334zM314 654l-150 -417h300z" />
    <glyph glyph-name="Aring" unicode="&#xc5;" horiz-adv-x="630" 
d="M219 786q0 43 26 69.5t68 26.5q43 0 69.5 -26.5t26.5 -69.5q0 -32 -16 -55t-43 -33l255 -698h-56l-68 189h-334l-68 -189h-54l254 697q-28 10 -44 33.5t-16 55.5zM314 654l-150 -417h300zM265 786q0 -23 13.5 -37.5t34.5 -14.5q23 0 36.5 14.5t13.5 37.5q0 24 -13.5 39
t-36.5 15q-21 0 -34.5 -15t-13.5 -39z" />
    <glyph glyph-name="Aringacute" unicode="&#x1fa;" horiz-adv-x="630" 
d="M219 786q0 43 26 69.5t68 26.5q43 0 69.5 -26.5t26.5 -69.5q0 -32 -16 -55t-43 -33l255 -698h-56l-68 189h-334l-68 -189h-54l254 697q-28 10 -44 33.5t-16 55.5zM314 654l-150 -417h300zM265 786q0 -23 13.5 -37.5t34.5 -14.5q23 0 36.5 14.5t13.5 37.5q0 24 -13.5 39
t-36.5 15q-21 0 -34.5 -15t-13.5 -39zM415 1011l-102 -98h-57l87 98h72z" />
    <glyph glyph-name="Atilde" unicode="&#xc3;" horiz-adv-x="630" 
d="M314 654l-150 -417h300zM147 189l-68 -189h-54l255 700l68 4l257 -704h-56l-68 189h-334zM157 759q7 38 32.5 61.5t57.5 23.5q27 0 44.5 -9t31.5 -19.5t28 -19.5t35 -9q30 0 44 47l42 -9q-8 -35 -32.5 -59t-56.5 -24q-27 0 -44.5 8.5t-32 19t-28.5 19.5t-35 9
q-32 0 -45 -47z" />
    <glyph glyph-name="Cacute" unicode="&#x106;" horiz-adv-x="608" 
d="M374 664q-122 0 -189.5 -80.5t-67.5 -232.5t67 -232.5t190 -80.5q88 0 178 37l11 -48q-94 -37 -189 -37q-148 0 -228.5 94t-80.5 267t80.5 267t228.5 94q95 0 189 -37l-11 -48q-90 37 -178 37zM470 890l-129 -128h-57l114 128h72z" />
    <glyph glyph-name="Ccaron" unicode="&#x10c;" horiz-adv-x="608" 
d="M374 664q-122 0 -189.5 -80.5t-67.5 -232.5t67 -232.5t190 -80.5q88 0 178 37l11 -48q-94 -37 -189 -37q-148 0 -228.5 94t-80.5 267t80.5 267t228.5 94q95 0 189 -37l-11 -48q-90 37 -178 37zM212 890h67l89 -87l89 87h67l-134 -128h-44z" />
    <glyph glyph-name="Ccircumflex" unicode="&#x108;" horiz-adv-x="608" 
d="M374 664q-122 0 -189.5 -80.5t-67.5 -232.5t67 -232.5t190 -80.5q88 0 178 37l11 -48q-94 -37 -189 -37q-148 0 -228.5 94t-80.5 267t80.5 267t228.5 94q95 0 189 -37l-11 -48q-90 37 -178 37zM523 762h-67l-89 87l-89 -87h-67l134 128h44z" />
    <glyph glyph-name="Cdotaccent" unicode="&#x10a;" horiz-adv-x="608" 
d="M374 664q-122 0 -189.5 -80.5t-67.5 -232.5t67 -232.5t190 -80.5q88 0 178 37l11 -48q-94 -37 -189 -37q-148 0 -228.5 94t-80.5 267t80.5 267t228.5 94q95 0 189 -37l-11 -48q-90 37 -178 37zM367 848q17 0 27.5 -10.5t10.5 -27.5t-10.5 -27.5t-27.5 -10.5t-27.5 10.5
t-10.5 27.5t10.5 27.5t27.5 10.5z" />
    <glyph glyph-name="Ccedilla" unicode="&#xc7;" horiz-adv-x="608" 
d="M374 664q-122 0 -189.5 -80.5t-67.5 -232.5t67 -232.5t190 -80.5q88 0 178 37l11 -48q-73 -29 -149 -35l-28 -46l9 1h8q37 0 58 -21.5t21 -58.5t-29.5 -60t-77.5 -23q-34 0 -67 11l8 43q28 -10 56 -10q59 0 59 39q0 38 -41 38l-32 -5l-31 31l31 59q-141 5 -217 99
t-76 262q0 173 80.5 267t228.5 94q95 0 189 -37l-11 -48q-90 37 -178 37z" />
    <glyph glyph-name="Dcroat" unicode="&#x110;" horiz-adv-x="690" 
d="M75 373v329h235q157 0 236 -88.5t79 -259.5q0 -173 -86 -268.5t-245 -95.5q-116 0 -219 23v316h-70l4 44h66zM127 654v-281h167l-4 -44h-163v-276q84 -15 170 -15q132 0 204 82.5t72 233.5q0 300 -264 300h-182z" />
    <glyph glyph-name="Dcaron" unicode="&#x10e;" horiz-adv-x="690" 
d="M310 702q157 0 236 -88.5t79 -259.5q0 -173 -86 -268.5t-245 -95.5q-116 0 -219 23v689h235zM127 654v-601q84 -15 170 -15q132 0 204 82.5t72 233.5q0 300 -264 300h-182zM135 890h67l89 -87l89 87h67l-134 -128h-44z" />
    <glyph glyph-name="Eacute" unicode="&#xc9;" horiz-adv-x="545" 
d="M75 702h425l-4 -48h-369v-284h323l-4 -48h-319v-274h373l-4 -48h-421v702zM401 890l-129 -128h-57l114 128h72z" />
    <glyph glyph-name="Ebreve" unicode="&#x114;" horiz-adv-x="545" 
d="M75 702h425l-4 -48h-369v-284h323l-4 -48h-319v-274h373l-4 -48h-421v702zM197 895q13 -92 92 -92q38 0 59.5 21.5t30.5 70.5l45 -4q-14 -134 -135 -134q-123 0 -137 134z" />
    <glyph glyph-name="Ecaron" unicode="&#x11a;" horiz-adv-x="545" 
d="M75 702h425l-4 -48h-369v-284h323l-4 -48h-319v-274h373l-4 -48h-421v702zM132 890h67l89 -87l89 87h67l-134 -128h-44z" />
    <glyph glyph-name="Ecircumflex" unicode="&#xca;" horiz-adv-x="545" 
d="M75 702h425l-4 -48h-369v-284h323l-4 -48h-319v-274h373l-4 -48h-421v702zM444 762h-67l-89 87l-89 -87h-67l134 128h44z" />
    <glyph glyph-name="Edieresis" unicode="&#xcb;" horiz-adv-x="545" 
d="M75 702h425l-4 -48h-369v-284h323l-4 -48h-319v-274h373l-4 -48h-421v702zM195 848q17 0 27.5 -10.5t10.5 -27.5t-10.5 -27.5t-27.5 -10.5t-27.5 10.5t-10.5 27.5t10.5 27.5t27.5 10.5zM381 848q17 0 27.5 -10.5t10.5 -27.5t-10.5 -27.5t-27.5 -10.5t-27.5 10.5
t-10.5 27.5t10.5 27.5t27.5 10.5z" />
    <glyph glyph-name="Edotaccent" unicode="&#x116;" horiz-adv-x="545" 
d="M75 702h425l-4 -48h-369v-284h323l-4 -48h-319v-274h373l-4 -48h-421v702zM288 848q17 0 27.5 -10.5t10.5 -27.5t-10.5 -27.5t-27.5 -10.5t-27.5 10.5t-10.5 27.5t10.5 27.5t27.5 10.5z" />
    <glyph glyph-name="Egrave" unicode="&#xc8;" horiz-adv-x="545" 
d="M75 702h425l-4 -48h-369v-284h323l-4 -48h-319v-274h373l-4 -48h-421v702zM247 890l114 -128h-57l-129 128h72z" />
    <glyph glyph-name="Emacron" unicode="&#x112;" horiz-adv-x="545" 
d="M75 702h425l-4 -48h-369v-284h323l-4 -48h-319v-274h373l-4 -48h-421v702zM433 816l-4 -44h-285l4 44h285z" />
    <glyph glyph-name="Eogonek" unicode="&#x118;" horiz-adv-x="545" 
d="M75 702h425l-4 -48h-369v-284h323l-4 -48h-319v-274h373l-4 -48q-44 -24 -65.5 -55t-21.5 -60q0 -23 14.5 -39t44.5 -16q17 0 44 8l7 -46q-29 -8 -51 -8q-56 0 -82.5 29t-26.5 72q0 61 63 115h-347v702z" />
    <glyph glyph-name="Gbreve" unicode="&#x11e;" horiz-adv-x="675" 
d="M384 664q-128 0 -197.5 -81t-69.5 -232q0 -152 67 -232.5t199 -80.5q83 0 165 31v218h-199l4 48h247v-301q-122 -44 -221 -44q-155 0 -234.5 93t-79.5 268t82 268t237 93q95 0 189 -37l-11 -48q-94 37 -178 37zM282 895q13 -92 92 -92q38 0 59.5 21.5t30.5 70.5l45 -4
q-14 -134 -135 -134q-123 0 -137 134z" />
    <glyph glyph-name="Gcircumflex" unicode="&#x11c;" horiz-adv-x="675" 
d="M384 664q-128 0 -197.5 -81t-69.5 -232q0 -152 67 -232.5t199 -80.5q83 0 165 31v218h-199l4 48h247v-301q-122 -44 -221 -44q-155 0 -234.5 93t-79.5 268t82 268t237 93q95 0 189 -37l-11 -48q-94 37 -178 37zM528 762h-67l-89 87l-89 -87h-67l134 128h44z" />
    <glyph glyph-name="Gcommaaccent" unicode="&#x122;" horiz-adv-x="675" 
d="M384 664q-128 0 -197.5 -81t-69.5 -232q0 -152 67 -232.5t199 -80.5q83 0 165 31v218h-199l4 48h247v-301q-122 -44 -221 -44q-155 0 -234.5 93t-79.5 268t82 268t237 93q95 0 189 -37l-11 -48q-94 37 -178 37zM406 -77q19 -29 19 -59q0 -41 -33 -80l-44 3q29 34 29 64
q0 31 -24 68z" />
    <glyph glyph-name="Gdotaccent" unicode="&#x120;" horiz-adv-x="675" 
d="M384 664q-128 0 -197.5 -81t-69.5 -232q0 -152 67 -232.5t199 -80.5q83 0 165 31v218h-199l4 48h247v-301q-122 -44 -221 -44q-155 0 -234.5 93t-79.5 268t82 268t237 93q95 0 189 -37l-11 -48q-94 37 -178 37zM372 848q17 0 27.5 -10.5t10.5 -27.5t-10.5 -27.5
t-27.5 -10.5t-27.5 10.5t-10.5 27.5t10.5 27.5t27.5 10.5z" />
    <glyph glyph-name="Hcircumflex" unicode="&#x124;" horiz-adv-x="654" 
d="M127 702v-332h400v332h52v-702h-52v322h-400v-322h-52v702h52zM483 762h-67l-89 87l-89 -87h-67l134 128h44z" />
    <glyph glyph-name="Hbar" unicode="&#x126;" horiz-adv-x="654" 
d="M127 702v-144h400v144h52v-144h70l-4 -44h-66v-514h-52v322h-400v-322h-52v514h-70l4 44h66v144h52zM527 370v144h-400v-144h400z" />
    <glyph glyph-name="Iacute" unicode="&#xcd;" horiz-adv-x="202" 
d="M127 702v-702h-52v702h52zM260 890l-129 -128h-57l114 128h72z" />
    <glyph glyph-name="Ibreve" unicode="&#x12c;" horiz-adv-x="202" 
d="M127 702v-702h-52v702h52zM10 895q13 -92 92 -92q38 0 59.5 21.5t30.5 70.5l45 -4q-14 -134 -135 -134q-123 0 -137 134z" />
    <glyph glyph-name="Icircumflex" unicode="&#xce;" horiz-adv-x="202" 
d="M127 702v-702h-52v702h52zM257 762h-67l-89 87l-89 -87h-67l134 128h44z" />
    <glyph glyph-name="Idieresis" unicode="&#xcf;" horiz-adv-x="202" 
d="M127 702v-702h-52v702h52zM8 848q17 0 27.5 -10.5t10.5 -27.5t-10.5 -27.5t-27.5 -10.5t-27.5 10.5t-10.5 27.5t10.5 27.5t27.5 10.5zM194 848q17 0 27.5 -10.5t10.5 -27.5t-10.5 -27.5t-27.5 -10.5t-27.5 10.5t-10.5 27.5t10.5 27.5t27.5 10.5z" />
    <glyph glyph-name="Idotaccent" unicode="&#x130;" horiz-adv-x="202" 
d="M127 702v-702h-52v702h52zM101 848q17 0 27.5 -10.5t10.5 -27.5t-10.5 -27.5t-27.5 -10.5t-27.5 10.5t-10.5 27.5t10.5 27.5t27.5 10.5z" />
    <glyph glyph-name="Igrave" unicode="&#xcc;" horiz-adv-x="202" 
d="M127 702v-702h-52v702h52zM14 890l114 -128h-57l-129 128h72z" />
    <glyph glyph-name="Imacron" unicode="&#x12a;" horiz-adv-x="202" 
d="M127 702v-702h-52v702h52zM246 816l-4 -44h-285l4 44h285z" />
    <glyph glyph-name="Iogonek" unicode="&#x12e;" horiz-adv-x="202" 
d="M150 -208q-29 -8 -51 -8q-56 0 -82.5 29t-26.5 72q0 74 85 131v686h52v-702q-44 -24 -65.5 -55t-21.5 -60q0 -23 14.5 -39t44.5 -16q17 0 44 8z" />
    <glyph glyph-name="Itilde" unicode="&#x128;" horiz-adv-x="202" 
d="M127 702v-702h-52v702h52zM-56 759q7 38 32.5 61.5t57.5 23.5q27 0 44.5 -9t31.5 -19.5t28 -19.5t35 -9q30 0 44 47l42 -9q-8 -35 -32.5 -59t-56.5 -24q-27 0 -44.5 8.5t-32 19t-28.5 19.5t-35 9q-32 0 -45 -47z" />
    <glyph glyph-name="Jcircumflex" unicode="&#x134;" horiz-adv-x="227" 
d="M152 702v-611q0 -76 -31.5 -132.5t-103.5 -114.5l-39 33q56 46 89 96.5t33 118.5v610h52zM282 762h-67l-89 87l-89 -87h-67l134 128h44z" />
    <glyph glyph-name="Kcommaaccent" unicode="&#x136;" horiz-adv-x="568" 
d="M127 335v-335h-52v702h52v-335l337 337l65 -4l-348 -346l352 -352l-70 -4zM294 -77q19 -29 19 -59q0 -41 -33 -80l-44 3q29 34 29 64q0 31 -24 68z" />
    <glyph glyph-name="Lacute" unicode="&#x139;" horiz-adv-x="515" 
d="M127 702v-654h353l-4 -48h-401v702h52zM260 890l-129 -128h-57l114 128h72z" />
    <glyph glyph-name="Lcaron" unicode="&#x13d;" horiz-adv-x="515" 
d="M127 702v-654h353l-4 -48h-401v702h52zM250 763q17 -37 17 -75q0 -55 -34 -110h-46q32 48 32 95q0 42 -22 85z" />
    <glyph glyph-name="Lcommaaccent" unicode="&#x13b;" horiz-adv-x="515" 
d="M127 702v-654h353l-4 -48h-401v702h52zM299 -77q19 -29 19 -59q0 -41 -33 -80l-44 3q29 34 29 64q0 31 -24 68z" />
    <glyph glyph-name="Ldot" unicode="&#x13f;" horiz-adv-x="515" 
d="M127 702v-654h353l-4 -48h-401v702h52zM308 388q17 0 27.5 -10.5t10.5 -27.5t-10.5 -27.5t-27.5 -10.5t-27.5 10.5t-10.5 27.5t10.5 27.5t27.5 10.5z" />
    <glyph glyph-name="Lslash" unicode="&#x141;" horiz-adv-x="515" 
d="M127 702v-367l234 96l4 -50l-238 -98v-235h353l-4 -48h-401v261l-71 -29l-4 51l75 30v389h52z" />
    <glyph glyph-name="Nacute" unicode="&#x143;" horiz-adv-x="654" 
d="M127 0h-52v700l52 4l400 -613v611h52v-700l-52 -4l-400 613v-611zM450 890l-129 -128h-57l114 128h72z" />
    <glyph glyph-name="Ncaron" unicode="&#x147;" horiz-adv-x="654" 
d="M127 0h-52v700l52 4l400 -613v611h52v-700l-52 -4l-400 613v-611zM171 890h67l89 -87l89 87h67l-134 -128h-44z" />
    <glyph glyph-name="Ncommaaccent" unicode="&#x145;" horiz-adv-x="654" 
d="M127 0h-52v700l52 4l400 -613v611h52v-700l-52 -4l-400 613v-611zM341 -77q19 -29 19 -59q0 -41 -33 -80l-44 3q29 34 29 64q0 31 -24 68z" />
    <glyph glyph-name="Ntilde" unicode="&#xd1;" horiz-adv-x="654" 
d="M127 0h-52v700l52 4l400 -613v611h52v-700l-52 -4l-400 613v-611zM170 759q7 38 32.5 61.5t57.5 23.5q27 0 44.5 -9t31.5 -19.5t28 -19.5t35 -9q30 0 44 47l42 -9q-8 -35 -32.5 -59t-56.5 -24q-27 0 -44.5 8.5t-32 19t-28.5 19.5t-35 9q-32 0 -45 -47z" />
    <glyph glyph-name="Oacute" unicode="&#xd3;" horiz-adv-x="752" 
d="M117 351q0 -313 259 -313t259 313t-259 313t-259 -313zM65 351q0 361 311 361t311 -361t-311 -361t-311 361zM499 890l-129 -128h-57l114 128h72z" />
    <glyph glyph-name="Obreve" unicode="&#x14e;" horiz-adv-x="752" 
d="M117 351q0 -313 259 -313t259 313t-259 313t-259 -313zM65 351q0 361 311 361t311 -361t-311 -361t-311 361zM285 895q13 -92 92 -92q38 0 59.5 21.5t30.5 70.5l45 -4q-14 -134 -135 -134q-123 0 -137 134z" />
    <glyph glyph-name="Ocircumflex" unicode="&#xd4;" horiz-adv-x="752" 
d="M117 351q0 -313 259 -313t259 313t-259 313t-259 -313zM65 351q0 361 311 361t311 -361t-311 -361t-311 361zM532 762h-67l-89 87l-89 -87h-67l134 128h44z" />
    <glyph glyph-name="Odieresis" unicode="&#xd6;" horiz-adv-x="752" 
d="M117 351q0 -313 259 -313t259 313t-259 313t-259 -313zM65 351q0 361 311 361t311 -361t-311 -361t-311 361zM283 848q17 0 27.5 -10.5t10.5 -27.5t-10.5 -27.5t-27.5 -10.5t-27.5 10.5t-10.5 27.5t10.5 27.5t27.5 10.5zM469 848q17 0 27.5 -10.5t10.5 -27.5t-10.5 -27.5
t-27.5 -10.5t-27.5 10.5t-10.5 27.5t10.5 27.5t27.5 10.5z" />
    <glyph glyph-name="Ograve" unicode="&#xd2;" horiz-adv-x="752" 
d="M117 351q0 -313 259 -313t259 313t-259 313t-259 -313zM65 351q0 361 311 361t311 -361t-311 -361t-311 361zM325 890l114 -128h-57l-129 128h72z" />
    <glyph glyph-name="Ohungarumlaut" unicode="&#x150;" horiz-adv-x="752" 
d="M117 351q0 -313 259 -313t259 313t-259 313t-259 -313zM65 351q0 361 311 361t311 -361t-311 -361t-311 361zM411 890l-129 -128h-57l114 128h72zM588 890l-129 -128h-57l114 128h72z" />
    <glyph glyph-name="Omacron" unicode="&#x14c;" horiz-adv-x="752" 
d="M117 351q0 -313 259 -313t259 313t-259 313t-259 -313zM65 351q0 361 311 361t311 -361t-311 -361t-311 361zM521 816l-4 -44h-285l4 44h285z" />
    <glyph glyph-name="Otilde" unicode="&#xd5;" horiz-adv-x="752" 
d="M117 351q0 -313 259 -313t259 313t-259 313t-259 -313zM65 351q0 361 311 361t311 -361t-311 -361t-311 361zM219 759q7 38 32.5 61.5t57.5 23.5q27 0 44.5 -9t31.5 -19.5t28 -19.5t35 -9q30 0 44 47l42 -9q-8 -35 -32.5 -59t-56.5 -24q-27 0 -44.5 8.5t-32 19
t-28.5 19.5t-35 9q-32 0 -45 -47z" />
    <glyph glyph-name="Racute" unicode="&#x154;" horiz-adv-x="597" 
d="M127 0h-52v702h169q267 0 267 -207q0 -147 -136 -197l182 -296l-59 -4l-174 285q-35 -7 -83 -7q-14 0 -114 8v-284zM127 333q90 -9 113 -9q103 0 161 45t58 128q0 85 -57 121t-162 36h-113v-321zM364 890l-129 -128h-57l114 128h72z" />
    <glyph glyph-name="Rcaron" unicode="&#x158;" horiz-adv-x="597" 
d="M127 0h-52v702h169q267 0 267 -207q0 -147 -136 -197l182 -296l-59 -4l-174 285q-35 -7 -83 -7q-14 0 -114 8v-284zM127 333q90 -9 113 -9q103 0 161 45t58 128q0 85 -57 121t-162 36h-113v-321zM116 890h67l89 -87l89 87h67l-134 -128h-44z" />
    <glyph glyph-name="Rcommaaccent" unicode="&#x156;" horiz-adv-x="597" 
d="M127 0h-52v702h169q267 0 267 -207q0 -147 -136 -197l182 -296l-59 -4l-174 285q-35 -7 -83 -7q-14 0 -114 8v-284zM127 333q90 -9 113 -9q103 0 161 45t58 128q0 85 -57 121t-162 36h-113v-321zM296 -77q19 -29 19 -59q0 -41 -33 -80l-44 3q29 34 29 64q0 31 -24 68z
" />
    <glyph glyph-name="Sacute" unicode="&#x15a;" 
d="M89 79q88 -41 181 -41q84 0 129.5 37t45.5 104q0 47 -44.5 83.5t-145.5 77.5q-96 39 -143 86t-47 110q0 83 58 129.5t162 46.5q97 0 189 -41l-11 -48q-80 42 -178 42q-81 0 -124.5 -35t-43.5 -97q0 -46 42 -81t148 -79q97 -41 143.5 -87.5t46.5 -109.5q0 -88 -61.5 -137
t-167.5 -49q-98 0 -190 41zM389 890l-129 -128h-57l114 128h72z" />
    <glyph glyph-name="Scaron" unicode="&#x160;" 
d="M89 79q88 -41 181 -41q84 0 129.5 37t45.5 104q0 47 -44.5 83.5t-145.5 77.5q-96 39 -143 86t-47 110q0 83 58 129.5t162 46.5q97 0 189 -41l-11 -48q-80 42 -178 42q-81 0 -124.5 -35t-43.5 -97q0 -46 42 -81t148 -79q97 -41 143.5 -87.5t46.5 -109.5q0 -88 -61.5 -137
t-167.5 -49q-98 0 -190 41zM120 890h67l89 -87l89 87h67l-134 -128h-44z" />
    <glyph glyph-name="Scedilla" unicode="&#x15e;" 
d="M89 79q88 -41 181 -41q84 0 129.5 37t45.5 104q0 47 -44.5 83.5t-145.5 77.5q-96 39 -143 86t-47 110q0 83 58 129.5t162 46.5q97 0 189 -41l-11 -48q-80 42 -178 42q-81 0 -124.5 -35t-43.5 -97q0 -46 42 -81t148 -79q97 -41 143.5 -87.5t46.5 -109.5q0 -77 -49 -125.5
t-134 -57.5l-28 -47l9 1h8q37 0 58 -21.5t21 -58.5t-29.5 -60t-77.5 -23q-34 0 -67 11l8 43q28 -10 56 -10q59 0 59 39q0 38 -41 38l-32 -5l-31 31l31 59q-97 4 -180 41z" />
    <glyph glyph-name="Scircumflex" unicode="&#x15c;" 
d="M89 79q88 -41 181 -41q84 0 129.5 37t45.5 104q0 47 -44.5 83.5t-145.5 77.5q-96 39 -143 86t-47 110q0 83 58 129.5t162 46.5q97 0 189 -41l-11 -48q-80 42 -178 42q-81 0 -124.5 -35t-43.5 -97q0 -46 42 -81t148 -79q97 -41 143.5 -87.5t46.5 -109.5q0 -88 -61.5 -137
t-167.5 -49q-98 0 -190 41zM432 762h-67l-89 87l-89 -87h-67l134 128h44z" />
    <glyph glyph-name="Scommaaccent" unicode="&#x218;" 
d="M89 79q88 -41 181 -41q84 0 129.5 37t45.5 104q0 47 -44.5 83.5t-145.5 77.5q-96 39 -143 86t-47 110q0 83 58 129.5t162 46.5q97 0 189 -41l-11 -48q-80 42 -178 42q-81 0 -124.5 -35t-43.5 -97q0 -46 42 -81t148 -79q97 -41 143.5 -87.5t46.5 -109.5q0 -88 -61.5 -137
t-167.5 -49q-98 0 -190 41zM290 -77q19 -29 19 -59q0 -41 -33 -80l-44 3q29 34 29 64q0 31 -24 68z" />
    <glyph glyph-name="Tbar" unicode="&#x166;" horiz-adv-x="548" 
d="M248 372v282h-243l4 48h534l-4 -48h-239v-282h119l-4 -44h-115v-328h-52v328h-118l4 44h114z" />
    <glyph glyph-name="Tcaron" unicode="&#x164;" horiz-adv-x="548" 
d="M5 654l4 48h534l-4 -48h-239v-654h-52v654h-243zM118 890h67l89 -87l89 87h67l-134 -128h-44z" />
    <glyph glyph-name="Tcommaaccent" unicode="&#x162;" horiz-adv-x="548" 
d="M5 654l4 48h534l-4 -48h-239v-654h-52v654h-243zM293 -77q19 -29 19 -59q0 -41 -33 -80l-44 3q29 34 29 64q0 31 -24 68z" />
    <glyph glyph-name="Uacute" unicode="&#xda;" horiz-adv-x="654" 
d="M127 206q0 -80 49.5 -124t150.5 -44q100 0 150 44t50 124v496h52v-496q0 -106 -65 -161t-187 -55t-187 54t-65 162v496h52v-496zM450 890l-129 -128h-57l114 128h72z" />
    <glyph glyph-name="Ubreve" unicode="&#x16c;" horiz-adv-x="654" 
d="M127 206q0 -80 49.5 -124t150.5 -44q100 0 150 44t50 124v496h52v-496q0 -106 -65 -161t-187 -55t-187 54t-65 162v496h52v-496zM236 895q13 -92 92 -92q38 0 59.5 21.5t30.5 70.5l45 -4q-14 -134 -135 -134q-123 0 -137 134z" />
    <glyph glyph-name="Ucircumflex" unicode="&#xdb;" horiz-adv-x="654" 
d="M127 206q0 -80 49.5 -124t150.5 -44q100 0 150 44t50 124v496h52v-496q0 -106 -65 -161t-187 -55t-187 54t-65 162v496h52v-496zM483 762h-67l-89 87l-89 -87h-67l134 128h44z" />
    <glyph glyph-name="Udieresis" unicode="&#xdc;" horiz-adv-x="654" 
d="M127 206q0 -80 49.5 -124t150.5 -44q100 0 150 44t50 124v496h52v-496q0 -106 -65 -161t-187 -55t-187 54t-65 162v496h52v-496zM234 848q17 0 27.5 -10.5t10.5 -27.5t-10.5 -27.5t-27.5 -10.5t-27.5 10.5t-10.5 27.5t10.5 27.5t27.5 10.5zM420 848q17 0 27.5 -10.5
t10.5 -27.5t-10.5 -27.5t-27.5 -10.5t-27.5 10.5t-10.5 27.5t10.5 27.5t27.5 10.5z" />
    <glyph glyph-name="Ugrave" unicode="&#xd9;" horiz-adv-x="654" 
d="M127 206q0 -80 49.5 -124t150.5 -44q100 0 150 44t50 124v496h52v-496q0 -106 -65 -161t-187 -55t-187 54t-65 162v496h52v-496zM276 890l114 -128h-57l-129 128h72z" />
    <glyph glyph-name="Uhungarumlaut" unicode="&#x170;" horiz-adv-x="654" 
d="M127 206q0 -80 49.5 -124t150.5 -44q100 0 150 44t50 124v496h52v-496q0 -106 -65 -161t-187 -55t-187 54t-65 162v496h52v-496zM362 890l-129 -128h-57l114 128h72zM539 890l-129 -128h-57l114 128h72z" />
    <glyph glyph-name="Umacron" unicode="&#x16a;" horiz-adv-x="654" 
d="M127 206q0 -80 49.5 -124t150.5 -44q100 0 150 44t50 124v496h52v-496q0 -106 -65 -161t-187 -55t-187 54t-65 162v496h52v-496zM472 816l-4 -44h-285l4 44h285z" />
    <glyph glyph-name="Uogonek" unicode="&#x172;" horiz-adv-x="654" 
d="M444 -208q-29 -8 -51 -8q-56 0 -82.5 29t-26.5 72q0 56 52 105h-9q-122 0 -187 54t-65 162v496h52v-496q0 -80 49.5 -124t150.5 -44q100 0 150 44t50 124v496h52v-496q0 -168 -158 -206q-44 -24 -65.5 -55t-21.5 -60q0 -23 14.5 -39t44.5 -16q17 0 44 8z" />
    <glyph glyph-name="Uring" unicode="&#x16e;" horiz-adv-x="654" 
d="M127 206q0 -80 49.5 -124t150.5 -44q100 0 150 44t50 124v496h52v-496q0 -106 -65 -161t-187 -55t-187 54t-65 162v496h52v-496zM278 786q0 -23 13.5 -37.5t34.5 -14.5q23 0 36.5 14.5t13.5 37.5q0 24 -13.5 39t-36.5 15q-21 0 -34.5 -15t-13.5 -39zM232 786
q0 43 26 69.5t68 26.5q43 0 69.5 -26.5t26.5 -69.5q0 -42 -26.5 -68t-69.5 -26q-42 0 -68 26t-26 68z" />
    <glyph glyph-name="Utilde" unicode="&#x168;" horiz-adv-x="654" 
d="M127 206q0 -80 49.5 -124t150.5 -44q100 0 150 44t50 124v496h52v-496q0 -106 -65 -161t-187 -55t-187 54t-65 162v496h52v-496zM170 759q7 38 32.5 61.5t57.5 23.5q27 0 44.5 -9t31.5 -19.5t28 -19.5t35 -9q30 0 44 47l42 -9q-8 -35 -32.5 -59t-56.5 -24
q-27 0 -44.5 8.5t-32 19t-28.5 19.5t-35 9q-32 0 -45 -47z" />
    <glyph glyph-name="Wacute" unicode="&#x1e82;" horiz-adv-x="954" 
d="M929 700l-205 -700h-67l-180 625l-180 -625h-67l-205 700l54 4l185 -654l184 650l58 4l185 -654l185 654zM600 890l-129 -128h-57l114 128h72z" />
    <glyph glyph-name="Wcircumflex" unicode="&#x174;" horiz-adv-x="954" 
d="M929 700l-205 -700h-67l-180 625l-180 -625h-67l-205 700l54 4l185 -654l184 650l58 4l185 -654l185 654zM633 762h-67l-89 87l-89 -87h-67l134 128h44z" />
    <glyph glyph-name="Wdieresis" unicode="&#x1e84;" horiz-adv-x="954" 
d="M929 700l-205 -700h-67l-180 625l-180 -625h-67l-205 700l54 4l185 -654l184 650l58 4l185 -654l185 654zM384 848q17 0 27.5 -10.5t10.5 -27.5t-10.5 -27.5t-27.5 -10.5t-27.5 10.5t-10.5 27.5t10.5 27.5t27.5 10.5zM570 848q17 0 27.5 -10.5t10.5 -27.5t-10.5 -27.5
t-27.5 -10.5t-27.5 10.5t-10.5 27.5t10.5 27.5t27.5 10.5z" />
    <glyph glyph-name="Wgrave" unicode="&#x1e80;" horiz-adv-x="954" 
d="M929 700l-205 -700h-67l-180 625l-180 -625h-67l-205 700l54 4l185 -654l184 650l58 4l185 -654l185 654zM426 890l114 -128h-57l-129 128h72z" />
    <glyph glyph-name="Yacute" unicode="&#xdd;" horiz-adv-x="582" 
d="M265 303l-250 397l60 4l216 -351l215 351l61 -4l-250 -397v-303h-52v303zM414 890l-129 -128h-57l114 128h72z" />
    <glyph glyph-name="Ycircumflex" unicode="&#x176;" horiz-adv-x="582" 
d="M265 303l-250 397l60 4l216 -351l215 351l61 -4l-250 -397v-303h-52v303zM447 762h-67l-89 87l-89 -87h-67l134 128h44z" />
    <glyph glyph-name="Ydieresis" unicode="&#x178;" horiz-adv-x="582" 
d="M265 303l-250 397l60 4l216 -351l215 351l61 -4l-250 -397v-303h-52v303zM198 848q17 0 27.5 -10.5t10.5 -27.5t-10.5 -27.5t-27.5 -10.5t-27.5 10.5t-10.5 27.5t10.5 27.5t27.5 10.5zM384 848q17 0 27.5 -10.5t10.5 -27.5t-10.5 -27.5t-27.5 -10.5t-27.5 10.5
t-10.5 27.5t10.5 27.5t27.5 10.5z" />
    <glyph glyph-name="Ygrave" unicode="&#x1ef2;" horiz-adv-x="582" 
d="M265 303l-250 397l60 4l216 -351l215 351l61 -4l-250 -397v-303h-52v303zM240 890l114 -128h-57l-129 128h72z" />
    <glyph glyph-name="Zacute" unicode="&#x179;" horiz-adv-x="576" 
d="M49 702h478l4 -48l-421 -606h421l-4 -48h-478l-4 48l421 606h-421zM411 890l-129 -128h-57l114 128h72z" />
    <glyph glyph-name="Zcaron" unicode="&#x17d;" horiz-adv-x="576" 
d="M49 702h478l4 -48l-421 -606h421l-4 -48h-478l-4 48l421 606h-421zM132 890h67l89 -87l89 87h67l-134 -128h-44z" />
    <glyph glyph-name="Zdotaccent" unicode="&#x17b;" horiz-adv-x="576" 
d="M49 702h478l4 -48l-421 -606h421l-4 -48h-478l-4 48l421 606h-421zM288 848q17 0 27.5 -10.5t10.5 -27.5t-10.5 -27.5t-27.5 -10.5t-27.5 10.5t-10.5 27.5t10.5 27.5t27.5 10.5z" />
    <glyph glyph-name="AEacute" unicode="&#x1fc;" horiz-adv-x="918" 
d="M-15 0l443 702h445l-4 -48h-369v-284h323l-4 -48h-319v-274h373l-4 -48h-421v189h-285l-117 -189h-61zM448 237v411l-255 -411h255zM624 890l-129 -128h-57l114 128h72z" />
    <glyph glyph-name="Oslashacute" unicode="&#x1fe;" horiz-adv-x="752" 
d="M676 740l-76 -109q87 -89 87 -280q0 -361 -311 -361q-114 0 -186 49l-69 -100l-45 23l75 109q-86 90 -86 280q0 361 311 361q114 0 186 -49l69 100zM635 351q0 157 -66 235l-349 -505q60 -43 156 -43q259 0 259 313zM117 351q0 -155 65 -235l350 505q-60 43 -156 43
q-259 0 -259 -313zM499 890l-129 -128h-57l114 128h72z" />
    <glyph glyph-name="E.alt" horiz-adv-x="608" 
d="M374 664q-119 0 -186.5 -76.5t-70.5 -217.5h333l-4 -48h-329q7 -139 74 -211.5t183 -72.5q88 0 178 37l11 -48q-94 -37 -189 -37q-148 0 -228.5 94t-80.5 267t80.5 267t228.5 94q95 0 189 -37l-11 -48q-90 37 -178 37z" />
    <glyph glyph-name="I.alt" horiz-adv-x="376" 
d="M321 48l-4 -48h-262l4 48h103v606h-107l4 48h262l-4 -48h-103v-606h107z" />
    <glyph glyph-name="R.alt" horiz-adv-x="609" 
d="M127 0h-52v702h169q267 0 267 -207q0 -150 -144 -200q14 -121 54 -189t96 -68q38 0 90 18l7 -47q-54 -19 -102 -19q-77 0 -128 76t-69 216q-35 -6 -74 -6q-14 0 -114 8v-284zM127 333q90 -9 113 -9q103 0 161 45t58 128q0 85 -57 121t-162 36h-113v-321z" />
    <glyph glyph-name="U.alt" horiz-adv-x="654" 
d="M579 0h-42l-10 74q-93 -51 -145 -67.5t-104 -16.5q-96 0 -149.5 56t-53.5 155v501h52v-501q0 -81 42 -122t109 -41q63 0 120 23t129 65v576h52v-702z" />
    <glyph glyph-name="Y.alt" horiz-adv-x="634" 
d="M569 255q0 -128 -67.5 -196.5t-190.5 -68.5q-100 0 -217 47l11 49q115 -48 206 -48q96 0 151 56.5t55 160.5v99q-93 -51 -145 -67.5t-104 -16.5q-96 0 -149.5 56t-53.5 155v221h52v-221q0 -81 42 -122t109 -41q63 0 120 23t129 65v296h52v-447z" />
    <glyph glyph-name="Eacute.alt" horiz-adv-x="608" 
d="M374 664q-119 0 -186.5 -76.5t-70.5 -217.5h333l-4 -48h-329q7 -139 74 -211.5t183 -72.5q88 0 178 37l11 -48q-94 -37 -189 -37q-148 0 -228.5 94t-80.5 267t80.5 267t228.5 94q95 0 189 -37l-11 -48q-90 37 -178 37zM470 890l-129 -128h-57l114 128h72z" />
    <glyph glyph-name="Ebreve.alt" horiz-adv-x="608" 
d="M374 664q-119 0 -186.5 -76.5t-70.5 -217.5h333l-4 -48h-329q7 -139 74 -211.5t183 -72.5q88 0 178 37l11 -48q-94 -37 -189 -37q-148 0 -228.5 94t-80.5 267t80.5 267t228.5 94q95 0 189 -37l-11 -48q-90 37 -178 37zM272 895q13 -92 92 -92q38 0 59.5 21.5t30.5 70.5
l45 -4q-14 -134 -135 -134q-123 0 -137 134z" />
    <glyph glyph-name="Ecaron.alt" horiz-adv-x="608" 
d="M374 664q-119 0 -186.5 -76.5t-70.5 -217.5h333l-4 -48h-329q7 -139 74 -211.5t183 -72.5q88 0 178 37l11 -48q-94 -37 -189 -37q-148 0 -228.5 94t-80.5 267t80.5 267t228.5 94q95 0 189 -37l-11 -48q-90 37 -178 37zM207 890h67l89 -87l89 87h67l-134 -128h-44z" />
    <glyph glyph-name="Ecircumflex.alt" horiz-adv-x="608" 
d="M374 664q-119 0 -186.5 -76.5t-70.5 -217.5h333l-4 -48h-329q7 -139 74 -211.5t183 -72.5q88 0 178 37l11 -48q-94 -37 -189 -37q-148 0 -228.5 94t-80.5 267t80.5 267t228.5 94q95 0 189 -37l-11 -48q-90 37 -178 37zM519 762h-67l-89 87l-89 -87h-67l134 128h44z" />
    <glyph glyph-name="Edieresis.alt" horiz-adv-x="608" 
d="M374 664q-119 0 -186.5 -76.5t-70.5 -217.5h333l-4 -48h-329q7 -139 74 -211.5t183 -72.5q88 0 178 37l11 -48q-94 -37 -189 -37q-148 0 -228.5 94t-80.5 267t80.5 267t228.5 94q95 0 189 -37l-11 -48q-90 37 -178 37zM270 848q17 0 27.5 -10.5t10.5 -27.5t-10.5 -27.5
t-27.5 -10.5t-27.5 10.5t-10.5 27.5t10.5 27.5t27.5 10.5zM456 848q17 0 27.5 -10.5t10.5 -27.5t-10.5 -27.5t-27.5 -10.5t-27.5 10.5t-10.5 27.5t10.5 27.5t27.5 10.5z" />
    <glyph glyph-name="Edotaccent.alt" horiz-adv-x="608" 
d="M374 664q-119 0 -186.5 -76.5t-70.5 -217.5h333l-4 -48h-329q7 -139 74 -211.5t183 -72.5q88 0 178 37l11 -48q-94 -37 -189 -37q-148 0 -228.5 94t-80.5 267t80.5 267t228.5 94q95 0 189 -37l-11 -48q-90 37 -178 37zM363 848q17 0 27.5 -10.5t10.5 -27.5t-10.5 -27.5
t-27.5 -10.5t-27.5 10.5t-10.5 27.5t10.5 27.5t27.5 10.5z" />
    <glyph glyph-name="Egrave.alt" horiz-adv-x="608" 
d="M374 664q-119 0 -186.5 -76.5t-70.5 -217.5h333l-4 -48h-329q7 -139 74 -211.5t183 -72.5q88 0 178 37l11 -48q-94 -37 -189 -37q-148 0 -228.5 94t-80.5 267t80.5 267t228.5 94q95 0 189 -37l-11 -48q-90 37 -178 37zM328 890l114 -128h-57l-129 128h72z" />
    <glyph glyph-name="Emacron.alt" horiz-adv-x="608" 
d="M374 664q-119 0 -186.5 -76.5t-70.5 -217.5h333l-4 -48h-329q7 -139 74 -211.5t183 -72.5q88 0 178 37l11 -48q-94 -37 -189 -37q-148 0 -228.5 94t-80.5 267t80.5 267t228.5 94q95 0 189 -37l-11 -48q-90 37 -178 37zM508 816l-4 -44h-285l4 44h285z" />
    <glyph glyph-name="Eogonek.alt" horiz-adv-x="608" 
d="M374 664q-119 0 -186.5 -76.5t-70.5 -217.5h333l-4 -48h-329q7 -139 74 -211.5t183 -72.5q88 0 178 37l11 -48q-102 -51 -102 -142q0 -23 14.5 -39t43.5 -16q18 0 45 8l7 -46q-29 -8 -51 -8q-56 0 -82.5 29t-26.5 72q0 64 46 112q-37 -7 -83 -7q-148 0 -228.5 94
t-80.5 267t80.5 267t228.5 94q95 0 189 -37l-11 -48q-90 37 -178 37z" />
    <glyph glyph-name="Iacute.alt" horiz-adv-x="376" 
d="M321 48l-4 -48h-262l4 48h103v606h-107l4 48h262l-4 -48h-103v-606h107zM311 890l-129 -128h-57l114 128h72z" />
    <glyph glyph-name="Ibreve.alt" horiz-adv-x="376" 
d="M321 48l-4 -48h-262l4 48h103v606h-107l4 48h262l-4 -48h-103v-606h107zM97 895q13 -92 92 -92q38 0 59.5 21.5t30.5 70.5l45 -4q-14 -134 -135 -134q-123 0 -137 134z" />
    <glyph glyph-name="Icircumflex.alt" horiz-adv-x="376" 
d="M321 48l-4 -48h-262l4 48h103v606h-107l4 48h262l-4 -48h-103v-606h107zM344 762h-67l-89 87l-89 -87h-67l134 128h44z" />
    <glyph glyph-name="Idieresis.alt" horiz-adv-x="376" 
d="M321 48l-4 -48h-262l4 48h103v606h-107l4 48h262l-4 -48h-103v-606h107zM95 848q17 0 27.5 -10.5t10.5 -27.5t-10.5 -27.5t-27.5 -10.5t-27.5 10.5t-10.5 27.5t10.5 27.5t27.5 10.5zM281 848q17 0 27.5 -10.5t10.5 -27.5t-10.5 -27.5t-27.5 -10.5t-27.5 10.5t-10.5 27.5
t10.5 27.5t27.5 10.5z" />
    <glyph glyph-name="Idotaccent.alt" horiz-adv-x="376" 
d="M321 48l-4 -48h-262l4 48h103v606h-107l4 48h262l-4 -48h-103v-606h107zM188 848q17 0 27.5 -10.5t10.5 -27.5t-10.5 -27.5t-27.5 -10.5t-27.5 10.5t-10.5 27.5t10.5 27.5t27.5 10.5z" />
    <glyph glyph-name="Igrave.alt" horiz-adv-x="376" 
d="M321 48l-4 -48h-262l4 48h103v606h-107l4 48h262l-4 -48h-103v-606h107zM137 890l114 -128h-57l-129 128h72z" />
    <glyph glyph-name="Imacron.alt" horiz-adv-x="376" 
d="M321 48l-4 -48h-262l4 48h103v606h-107l4 48h262l-4 -48h-103v-606h107zM333 816l-4 -44h-285l4 44h285z" />
    <glyph glyph-name="Iogonek.alt" horiz-adv-x="376" 
d="M268 -208q-29 -8 -51 -8q-56 0 -82.5 29t-26.5 72q0 61 63 115h-116l4 48h103v606h-107l4 48h262l-4 -48h-103v-606h107l-4 -48h-72q-44 -24 -65.5 -55t-21.5 -60q0 -23 14.5 -39t44.5 -16q17 0 44 8z" />
    <glyph glyph-name="Itilde.alt" horiz-adv-x="376" 
d="M321 48l-4 -48h-262l4 48h103v606h-107l4 48h262l-4 -48h-103v-606h107zM31 759q7 38 32.5 61.5t57.5 23.5q27 0 44.5 -9t31.5 -19.5t28 -19.5t35 -9q30 0 44 47l42 -9q-8 -35 -32.5 -59t-56.5 -24q-27 0 -44.5 8.5t-32 19t-28.5 19.5t-35 9q-32 0 -45 -47z" />
    <glyph glyph-name="Racute.alt" horiz-adv-x="609" 
d="M127 0h-52v702h169q267 0 267 -207q0 -150 -144 -200q14 -121 54 -189t96 -68q38 0 90 18l7 -47q-54 -19 -102 -19q-77 0 -128 76t-69 216q-35 -6 -74 -6q-14 0 -114 8v-284zM127 333q90 -9 113 -9q103 0 161 45t58 128q0 85 -57 121t-162 36h-113v-321zM364 890
l-129 -128h-57l114 128h72z" />
    <glyph glyph-name="Rcaron.alt" horiz-adv-x="609" 
d="M127 0h-52v702h169q267 0 267 -207q0 -150 -144 -200q14 -121 54 -189t96 -68q38 0 90 18l7 -47q-54 -19 -102 -19q-77 0 -128 76t-69 216q-35 -6 -74 -6q-14 0 -114 8v-284zM127 333q90 -9 113 -9q103 0 161 45t58 128q0 85 -57 121t-162 36h-113v-321zM116 890h67
l89 -87l89 87h67l-134 -128h-44z" />
    <glyph glyph-name="Rcommaaccent.alt" horiz-adv-x="609" 
d="M127 0h-52v702h169q267 0 267 -207q0 -150 -144 -200q14 -121 54 -189t96 -68q38 0 90 18l7 -47q-54 -19 -102 -19q-77 0 -128 76t-69 216q-35 -6 -74 -6q-14 0 -114 8v-284zM127 333q90 -9 113 -9q103 0 161 45t58 128q0 85 -57 121t-162 36h-113v-321zM296 -77
q19 -29 19 -59q0 -41 -33 -80l-44 3q29 34 29 64q0 31 -24 68z" />
    <glyph glyph-name="Uacute.alt" horiz-adv-x="654" 
d="M579 0h-42l-10 74q-93 -51 -145 -67.5t-104 -16.5q-96 0 -149.5 56t-53.5 155v501h52v-501q0 -81 42 -122t109 -41q63 0 120 23t129 65v576h52v-702zM450 890l-129 -128h-57l114 128h72z" />
    <glyph glyph-name="Ubreve.alt" horiz-adv-x="654" 
d="M579 0h-42l-10 74q-93 -51 -145 -67.5t-104 -16.5q-96 0 -149.5 56t-53.5 155v501h52v-501q0 -81 42 -122t109 -41q63 0 120 23t129 65v576h52v-702zM236 895q13 -92 92 -92q38 0 59.5 21.5t30.5 70.5l45 -4q-14 -134 -135 -134q-123 0 -137 134z" />
    <glyph glyph-name="Ucircumflex.alt" horiz-adv-x="654" 
d="M579 0h-42l-10 74q-93 -51 -145 -67.5t-104 -16.5q-96 0 -149.5 56t-53.5 155v501h52v-501q0 -81 42 -122t109 -41q63 0 120 23t129 65v576h52v-702zM483 762h-67l-89 87l-89 -87h-67l134 128h44z" />
    <glyph glyph-name="Udieresis.alt" horiz-adv-x="654" 
d="M579 0h-42l-10 74q-93 -51 -145 -67.5t-104 -16.5q-96 0 -149.5 56t-53.5 155v501h52v-501q0 -81 42 -122t109 -41q63 0 120 23t129 65v576h52v-702zM234 848q17 0 27.5 -10.5t10.5 -27.5t-10.5 -27.5t-27.5 -10.5t-27.5 10.5t-10.5 27.5t10.5 27.5t27.5 10.5zM420 848
q17 0 27.5 -10.5t10.5 -27.5t-10.5 -27.5t-27.5 -10.5t-27.5 10.5t-10.5 27.5t10.5 27.5t27.5 10.5z" />
    <glyph glyph-name="Ugrave.alt" horiz-adv-x="654" 
d="M579 0h-42l-10 74q-93 -51 -145 -67.5t-104 -16.5q-96 0 -149.5 56t-53.5 155v501h52v-501q0 -81 42 -122t109 -41q63 0 120 23t129 65v576h52v-702zM276 890l114 -128h-57l-129 128h72z" />
    <glyph glyph-name="Uhungarumlaut.alt" horiz-adv-x="654" 
d="M579 0h-42l-10 74q-93 -51 -145 -67.5t-104 -16.5q-96 0 -149.5 56t-53.5 155v501h52v-501q0 -81 42 -122t109 -41q63 0 120 23t129 65v576h52v-702zM362 890l-129 -128h-57l114 128h72zM539 890l-129 -128h-57l114 128h72z" />
    <glyph glyph-name="Umacron.alt" horiz-adv-x="654" 
d="M579 0h-42l-10 74q-93 -51 -145 -67.5t-104 -16.5q-96 0 -149.5 56t-53.5 155v501h52v-501q0 -81 42 -122t109 -41q63 0 120 23t129 65v576h52v-702zM472 816l-4 -44h-285l4 44h285z" />
    <glyph glyph-name="Uogonek.alt" horiz-adv-x="654" 
d="M602 -208q-29 -8 -51 -8q-56 0 -82.5 29t-26.5 72q0 77 92 136l-7 53q-93 -51 -145 -67.5t-104 -16.5q-96 0 -149.5 56t-53.5 155v501h52v-501q0 -81 42 -122t109 -41q63 0 120 23t129 65v576h52v-702q-44 -24 -65.5 -55t-21.5 -60q0 -23 14.5 -39t44.5 -16q17 0 44 8z
" />
    <glyph glyph-name="Uring.alt" horiz-adv-x="654" 
d="M579 0h-42l-10 74q-93 -51 -145 -67.5t-104 -16.5q-96 0 -149.5 56t-53.5 155v501h52v-501q0 -81 42 -122t109 -41q63 0 120 23t129 65v576h52v-702zM278 786q0 -23 13.5 -37.5t34.5 -14.5q23 0 36.5 14.5t13.5 37.5q0 24 -13.5 39t-36.5 15q-21 0 -34.5 -15t-13.5 -39z
M232 786q0 43 26 69.5t68 26.5q43 0 69.5 -26.5t26.5 -69.5q0 -42 -26.5 -68t-69.5 -26q-42 0 -68 26t-26 68z" />
    <glyph glyph-name="Utilde.alt" horiz-adv-x="654" 
d="M579 0h-42l-10 74q-93 -51 -145 -67.5t-104 -16.5q-96 0 -149.5 56t-53.5 155v501h52v-501q0 -81 42 -122t109 -41q63 0 120 23t129 65v576h52v-702zM170 759q7 38 32.5 61.5t57.5 23.5q27 0 44.5 -9t31.5 -19.5t28 -19.5t35 -9q30 0 44 47l42 -9q-8 -35 -32.5 -59
t-56.5 -24q-27 0 -44.5 8.5t-32 19t-28.5 19.5t-35 9q-32 0 -45 -47z" />
    <glyph glyph-name="Yacute.alt" horiz-adv-x="634" 
d="M569 255q0 -128 -67.5 -196.5t-190.5 -68.5q-100 0 -217 47l11 49q115 -48 206 -48q96 0 151 56.5t55 160.5v99q-93 -51 -145 -67.5t-104 -16.5q-96 0 -149.5 56t-53.5 155v221h52v-221q0 -81 42 -122t109 -41q63 0 120 23t129 65v296h52v-447zM450 890l-129 -128h-57
l114 128h72z" />
    <glyph glyph-name="Ycircumflex.alt" horiz-adv-x="634" 
d="M569 255q0 -128 -67.5 -196.5t-190.5 -68.5q-100 0 -217 47l11 49q115 -48 206 -48q96 0 151 56.5t55 160.5v99q-93 -51 -145 -67.5t-104 -16.5q-96 0 -149.5 56t-53.5 155v221h52v-221q0 -81 42 -122t109 -41q63 0 120 23t129 65v296h52v-447zM483 762h-67l-89 87
l-89 -87h-67l134 128h44z" />
    <glyph glyph-name="Ydieresis.alt" horiz-adv-x="634" 
d="M569 255q0 -128 -67.5 -196.5t-190.5 -68.5q-100 0 -217 47l11 49q115 -48 206 -48q96 0 151 56.5t55 160.5v99q-93 -51 -145 -67.5t-104 -16.5q-96 0 -149.5 56t-53.5 155v221h52v-221q0 -81 42 -122t109 -41q63 0 120 23t129 65v296h52v-447zM234 848q17 0 27.5 -10.5
t10.5 -27.5t-10.5 -27.5t-27.5 -10.5t-27.5 10.5t-10.5 27.5t10.5 27.5t27.5 10.5zM420 848q17 0 27.5 -10.5t10.5 -27.5t-10.5 -27.5t-27.5 -10.5t-27.5 10.5t-10.5 27.5t10.5 27.5t27.5 10.5z" />
    <glyph glyph-name="Ygrave.alt" horiz-adv-x="634" 
d="M569 255q0 -128 -67.5 -196.5t-190.5 -68.5q-100 0 -217 47l11 49q115 -48 206 -48q96 0 151 56.5t55 160.5v99q-93 -51 -145 -67.5t-104 -16.5q-96 0 -149.5 56t-53.5 155v221h52v-221q0 -81 42 -122t109 -41q63 0 120 23t129 65v296h52v-447zM276 890l114 -128h-57
l-129 128h72z" />
    <glyph glyph-name="a" unicode="a" horiz-adv-x="463" 
d="M338 334q0 104 -85 104q-60 0 -182 -43l-7 46q115 43 189 43q135 0 135 -150v-334h-38l-9 63q-39 -36 -85 -54.5t-88 -18.5q-58 0 -90.5 32t-32.5 87q0 78 72.5 115t220.5 47v63zM168 36q49 0 94 23.5t76 60.5v105q-124 -10 -183.5 -36.5t-59.5 -76.5q0 -36 19.5 -56
t53.5 -20z" />
    <glyph glyph-name="b" unicode="b" horiz-adv-x="531" 
d="M75 754l50 4v-342q116 68 185 68q80 0 123 -64t43 -183q0 -118 -52 -182.5t-147 -64.5q-94 0 -202 41v723zM125 62q69 -26 152 -26q73 0 111 53t38 149q0 95 -29.5 147.5t-86.5 52.5q-63 0 -185 -72v-304z" />
    <glyph glyph-name="c" unicode="c" horiz-adv-x="441" 
d="M266 -10q-101 0 -156 64t-55 183q0 118 54.5 182.5t156.5 64.5q63 0 130 -25l-7 -46q-64 25 -120 25q-79 0 -121.5 -51t-42.5 -150t42 -150t122 -51q50 0 120 25l7 -46q-67 -25 -130 -25z" />
    <glyph glyph-name="d" unicode="d" horiz-adv-x="531" 
d="M406 754l50 4v-758h-40l-10 58q-116 -68 -185 -68q-80 0 -123 64t-43 183q0 118 52 182.5t147 64.5q74 0 152 -36v306zM406 402q-87 36 -152 36q-73 0 -111 -53t-38 -149q0 -107 33 -153.5t83 -46.5q63 0 185 72v294z" />
    <glyph glyph-name="e" unicode="e" horiz-adv-x="491" 
d="M105 218q7 -181 165 -181q63 0 138 28l7 -46q-77 -29 -149 -29q-103 0 -157 64.5t-54 182.5q0 123 52.5 185t152.5 62q82 0 128.5 -54.5t47.5 -150.5q0 -28 -5 -61h-326zM260 438q-144 0 -154 -174h280v13q0 76 -33 118.5t-93 42.5z" />
    <glyph glyph-name="f" unicode="f" horiz-adv-x="333" 
d="M106 594q0 83 34.5 123.5t97.5 40.5q39 0 90 -15l-5 -45q-49 14 -81 14q-43 0 -64.5 -28t-21.5 -96v-114h156l-4 -46h-152v-428h-50v428h-81l4 46h77v120z" />
    <glyph glyph-name="g" unicode="g" horiz-adv-x="503" 
d="M414 328q0 -69 -42.5 -112.5t-130.5 -43.5q-29 0 -49 4q-41 -35 -41 -65q0 -40 69 -40h49q100 0 149.5 -34.5t49.5 -94.5q0 -70 -67.5 -114t-178.5 -44q-82 0 -129.5 34.5t-47.5 89.5q0 36 23 72.5t71 62.5q-37 22 -37 68q0 45 45 79q-79 40 -79 138q0 70 42.5 113
t130.5 43q41 0 73 -10h144l-4 -46h-71q31 -39 31 -100zM220 25l-35 2q-46 -24 -68 -56.5t-22 -62.5q0 -32 31.5 -55t95.5 -23q89 0 142.5 31t53.5 81q0 38 -37 60.5t-112 22.5h-49zM364 328q0 50 -30 80t-93 30t-93 -30t-30 -80q0 -49 30 -79.5t93 -30.5t93 30.5t30 79.5z
" />
    <glyph glyph-name="h" unicode="h" horiz-adv-x="520" 
d="M125 0h-50v754l50 4v-342q116 68 185 68q65 0 100 -40.5t35 -116.5v-327h-50v327q0 57 -24 84t-61 27q-63 0 -185 -72v-366z" />
    <glyph glyph-name="i" unicode="i" horiz-adv-x="200" 
d="M125 476v-476h-50v472zM100 635q17 0 27.5 -10.5t10.5 -27.5t-10.5 -27.5t-27.5 -10.5t-27.5 10.5t-10.5 27.5t10.5 27.5t27.5 10.5z" />
    <glyph glyph-name="j" unicode="j" horiz-adv-x="235" 
d="M160 476v-454q0 -74 -30.5 -128.5t-99.5 -109.5l-37 31q54 44 85.5 93t31.5 115v449zM135 635q17 0 27.5 -10.5t10.5 -27.5t-10.5 -27.5t-27.5 -10.5t-27.5 10.5t-10.5 27.5t10.5 27.5t27.5 10.5z" />
    <glyph glyph-name="k" unicode="k" horiz-adv-x="457" 
d="M125 231v-231h-50v754l50 4v-497l233 215l65 -4l-243 -224l267 -246l-70 -4z" />
    <glyph glyph-name="l" unicode="l" horiz-adv-x="275" 
d="M125 758v-655q0 -66 53 -66q32 0 87 17l5 -45q-62 -19 -97 -19q-98 0 -98 114v650z" />
    <glyph glyph-name="m" unicode="m" horiz-adv-x="800" 
d="M408 417q51 30 96.5 48.5t94.5 18.5q60 0 93 -41t33 -116v-327h-50v327q0 57 -22 84t-57 27q-77 0 -175 -64q4 -20 4 -47v-327h-50v327q0 57 -22 84t-57 27q-60 0 -171 -72v-366h-50v472l50 4v-60q109 68 174 68q80 0 109 -67z" />
    <glyph glyph-name="n" unicode="n" horiz-adv-x="520" 
d="M125 0h-50v472l50 4v-60q116 68 185 68q65 0 100 -40.5t35 -116.5v-327h-50v327q0 57 -24 84t-61 27q-63 0 -185 -72v-366z" />
    <glyph glyph-name="o" unicode="o" horiz-adv-x="539" 
d="M105 237q0 -105 45.5 -153t119.5 -48q81 0 122.5 52.5t41.5 148.5q0 97 -43 149t-121 52q-74 0 -119.5 -48.5t-45.5 -152.5zM55 237q0 119 55 183t160 64q104 0 159 -64.5t55 -182.5q0 -121 -55.5 -184t-158.5 -63q-105 0 -160 63.5t-55 183.5z" />
    <glyph glyph-name="p" unicode="p" horiz-adv-x="531" 
d="M125 -204l-50 -4v680l50 4v-60q116 68 185 68q80 0 123 -64t43 -183q0 -118 -52 -182.5t-147 -64.5q-74 0 -152 36v-230zM125 72q87 -36 152 -36q73 0 111 53t38 149q0 95 -29.5 147.5t-86.5 52.5q-63 0 -185 -72v-294z" />
    <glyph glyph-name="q" unicode="q" horiz-adv-x="531" 
d="M456 -204l-50 -4v266q-116 -68 -185 -68q-80 0 -123 64t-43 183q0 118 52 182.5t147 64.5q94 0 202 -41v-647zM406 412q-69 26 -152 26q-73 0 -111 -53t-38 -149q0 -107 33 -153.5t83 -46.5q63 0 185 72v304z" />
    <glyph glyph-name="r" unicode="r" horiz-adv-x="351" 
d="M334 427q-42 11 -65 11q-26 0 -48.5 -15.5t-95.5 -106.5v-316h-50v472l50 4v-96q39 56 70.5 80t69.5 24q20 0 76 -11z" />
    <glyph glyph-name="s" unicode="s" horiz-adv-x="419" 
d="M77 66q65 -30 131 -30q106 0 106 87q0 30 -26.5 52t-97.5 51q-62 25 -93.5 57.5t-31.5 77.5q0 59 41 91t110 32t133 -30l-7 -46q-60 30 -126 30q-101 0 -101 -77q0 -31 29.5 -54t95.5 -49q61 -25 92.5 -57.5t31.5 -77.5q0 -61 -42.5 -97t-118.5 -36q-67 0 -133 30z" />
    <glyph glyph-name="t" unicode="t" horiz-adv-x="366" 
d="M106 428h-81l4 46h77v150l50 4v-154h156l-4 -46h-152v-270q0 -122 90 -122q38 0 80 12l5 -43q-51 -15 -90 -15q-65 0 -100 43t-35 121v274z" />
    <glyph glyph-name="u" unicode="u" horiz-adv-x="520" 
d="M395 472l50 4v-476h-40l-10 58q-116 -68 -185 -68q-65 0 -100 40.5t-35 116.5v325l50 4v-329q0 -57 24 -84t61 -27q63 0 185 72v364z" />
    <glyph glyph-name="v" unicode="v" horiz-adv-x="466" 
d="M69 476l164 -428l164 428l54 -4l-186 -472h-64l-186 472z" />
    <glyph glyph-name="w" unicode="w" horiz-adv-x="738" 
d="M69 476l134 -428l133 424l65 4l134 -428l134 428l54 -4l-156 -472h-64l-134 428l-134 -428h-64l-156 472z" />
    <glyph glyph-name="x" unicode="x" horiz-adv-x="444" 
d="M367 476l57 -4l-172 -234l172 -236l-60 -4l-143 200l-144 -200l-57 4l172 234l-172 236l60 4l143 -200z" />
    <glyph glyph-name="y" unicode="y" horiz-adv-x="466" 
d="M233 48l164 428l54 -4l-268 -680l-52 4l82 204h-12l-186 472l54 4z" />
    <glyph glyph-name="z" unicode="z" horiz-adv-x="432" 
d="M397 46l-4 -46h-354l-4 42l296 386h-277l4 46h334l4 -42l-296 -386h297z" />
    <glyph glyph-name="ae" unicode="&#xe6;" horiz-adv-x="774" 
d="M549 -10q-126 0 -179 95q-104 -95 -202 -95q-58 0 -90.5 32t-32.5 87q0 76 70 113t223 48v64q0 104 -85 104q-60 0 -182 -43l-7 46q115 43 189 43q100 0 124 -87q49 87 166 87q82 0 128.5 -54.5t47.5 -150.5q0 -28 -5 -61h-326q7 -181 165 -181q63 0 138 28l7 -46
q-77 -29 -149 -29zM543 438q-144 0 -154 -174h280v13q0 76 -33 118.5t-93 42.5zM168 36q93 0 185 92q-14 40 -15 96q-125 -10 -184 -36.5t-59 -75.5q0 -36 19.5 -56t53.5 -20z" />
    <glyph glyph-name="eng" unicode="&#x14b;" horiz-adv-x="520" 
d="M125 0h-50v472l50 4v-60q116 68 185 68q65 0 100 -40.5t35 -116.5v-305q0 -74 -30.5 -128.5t-99.5 -109.5l-37 31q54 44 85.5 93t31.5 115v304q0 57 -24 84t-61 27q-63 0 -185 -72v-366z" />
    <glyph glyph-name="eth" unicode="&#xf0;" horiz-adv-x="549" 
d="M289 647q-47 58 -117 111h72q45 -34 89 -91l150 70l16 -43l-138 -64q123 -187 123 -377q0 -130 -51 -196.5t-163 -66.5q-215 0 -215 247q0 118 52 182.5t147 64.5q64 0 144 -32q-32 89 -81 157l-158 -73l-16 43zM254 438q-73 0 -111 -52.5t-38 -148.5q0 -201 165 -201
q164 0 164 205q0 69 -20 159q-94 38 -160 38z" />
    <glyph glyph-name="germandbls" unicode="&#xdf;" horiz-adv-x="545" 
d="M266 387l68 127q24 46 24 93q0 44 -27 74.5t-83 30.5q-57 0 -90 -34.5t-33 -104.5v-573h-50v573q0 94 46 139.5t127 45.5q74 0 117.5 -40t43.5 -112q0 -53 -31 -113l-55 -103q76 -20 121.5 -76t45.5 -133q0 -83 -53.5 -137t-140.5 -54q-42 0 -89 16l7 46q45 -16 82 -16
q63 0 103 40.5t40 105.5q0 61 -39.5 109t-113.5 59z" />
    <glyph glyph-name="ij" unicode="&#x133;" horiz-adv-x="425" 
d="M125 476v-476h-50v472zM100 635q17 0 27.5 -10.5t10.5 -27.5t-10.5 -27.5t-27.5 -10.5t-27.5 10.5t-10.5 27.5t10.5 27.5t27.5 10.5zM350 476v-454q0 -74 -30.5 -128.5t-99.5 -109.5l-37 31q54 44 85.5 93t31.5 115v449zM325 635q17 0 27.5 -10.5t10.5 -27.5t-10.5 -27.5
t-27.5 -10.5t-27.5 10.5t-10.5 27.5t10.5 27.5t27.5 10.5z" />
    <glyph glyph-name="kgreenlandic" unicode="&#x138;" horiz-adv-x="457" 
d="M125 231v-231h-50v472l50 4v-215l233 215l65 -4l-243 -224l267 -246l-70 -4z" />
    <glyph glyph-name="oe" unicode="&#x153;" horiz-adv-x="870" 
d="M484 218q7 -181 165 -181q63 0 138 28l7 -46q-77 -29 -149 -29q-140 0 -186 120q-46 -120 -189 -120q-105 0 -160 63.5t-55 183.5q0 119 55 183t160 64q142 0 188 -119q43 119 181 119q82 0 128.5 -54.5t47.5 -150.5q0 -28 -5 -61h-326zM105 237q0 -105 45.5 -153
t119.5 -48q81 0 122.5 52.5t41.5 148.5q0 97 -43 149t-121 52q-74 0 -119.5 -48.5t-45.5 -152.5zM639 438q-144 0 -154 -174h280v13q0 76 -33 118.5t-93 42.5z" />
    <glyph glyph-name="oslash" unicode="&#xf8;" horiz-adv-x="539" 
d="M471 514l-52 -83q65 -63 65 -194q0 -121 -55.5 -184t-158.5 -63q-65 0 -112 25l-47 -76l-43 21l52 83q-65 63 -65 194q0 119 55 183t160 64q64 0 110 -25l48 76zM105 237q0 -97 42 -150l207 330q-36 21 -84 21q-74 0 -119.5 -48.5t-45.5 -152.5zM434 237q0 95 -43 149
l-207 -330q37 -20 86 -20q81 0 122.5 52.5t41.5 148.5z" />
    <glyph glyph-name="thorn" unicode="&#xfe;" horiz-adv-x="531" 
d="M125 -204l-50 -4v962l50 4v-342q116 68 185 68q80 0 123 -64t43 -183q0 -118 -52 -182.5t-147 -64.5q-74 0 -152 36v-230zM125 72q87 -36 152 -36q73 0 111 53t38 149q0 95 -29.5 147.5t-86.5 52.5q-63 0 -185 -72v-294z" />
    <glyph glyph-name="aacute" unicode="&#xe1;" horiz-adv-x="463" 
d="M338 334q0 104 -85 104q-60 0 -182 -43l-7 46q115 43 189 43q135 0 135 -150v-334h-38l-9 63q-39 -36 -85 -54.5t-88 -18.5q-58 0 -90.5 32t-32.5 87q0 78 72.5 115t220.5 47v63zM168 36q49 0 94 23.5t76 60.5v105q-124 -10 -183.5 -36.5t-59.5 -76.5q0 -36 19.5 -56
t53.5 -20zM322 702l-92 -158h-50l84 158h58z" />
    <glyph glyph-name="abreve" unicode="&#x103;" horiz-adv-x="463" 
d="M338 334q0 104 -85 104q-60 0 -182 -43l-7 46q115 43 189 43q135 0 135 -150v-334h-38l-9 63q-39 -36 -85 -54.5t-88 -18.5q-58 0 -90.5 32t-32.5 87q0 78 72.5 115t220.5 47v63zM168 36q49 0 94 23.5t76 60.5v105q-124 -10 -183.5 -36.5t-59.5 -76.5q0 -36 19.5 -56
t53.5 -20zM139 702q2 -55 26 -83.5t66 -28.5q41 0 65 29t25 83l45 -4q0 -73 -36.5 -113.5t-98.5 -40.5t-99.5 39t-37.5 115z" />
    <glyph glyph-name="acircumflex" unicode="&#xe2;" horiz-adv-x="463" 
d="M338 334q0 104 -85 104q-60 0 -182 -43l-7 46q115 43 189 43q135 0 135 -150v-334h-38l-9 63q-39 -36 -85 -54.5t-88 -18.5q-58 0 -90.5 32t-32.5 87q0 78 72.5 115t220.5 47v63zM168 36q49 0 94 23.5t76 60.5v105q-124 -10 -183.5 -36.5t-59.5 -76.5q0 -36 19.5 -56
t53.5 -20zM367 544h-56l-80 114l-80 -114h-56l114 158h44z" />
    <glyph glyph-name="adieresis" unicode="&#xe4;" horiz-adv-x="463" 
d="M338 334q0 104 -85 104q-60 0 -182 -43l-7 46q115 43 189 43q135 0 135 -150v-334h-38l-9 63q-39 -36 -85 -54.5t-88 -18.5q-58 0 -90.5 32t-32.5 87q0 78 72.5 115t220.5 47v63zM168 36q49 0 94 23.5t76 60.5v105q-124 -10 -183.5 -36.5t-59.5 -76.5q0 -36 19.5 -56
t53.5 -20zM142 635q17 0 27.5 -10.5t10.5 -27.5t-10.5 -27.5t-27.5 -10.5t-27.5 10.5t-10.5 27.5t10.5 27.5t27.5 10.5zM328 635q17 0 27.5 -10.5t10.5 -27.5t-10.5 -27.5t-27.5 -10.5t-27.5 10.5t-10.5 27.5t10.5 27.5t27.5 10.5z" />
    <glyph glyph-name="agrave" unicode="&#xe0;" horiz-adv-x="463" 
d="M338 334q0 104 -85 104q-60 0 -182 -43l-7 46q115 43 189 43q135 0 135 -150v-334h-38l-9 63q-39 -36 -85 -54.5t-88 -18.5q-58 0 -90.5 32t-32.5 87q0 78 72.5 115t220.5 47v63zM168 36q49 0 94 23.5t76 60.5v105q-124 -10 -183.5 -36.5t-59.5 -76.5q0 -36 19.5 -56
t53.5 -20zM198 702l84 -158h-50l-92 158h58z" />
    <glyph glyph-name="amacron" unicode="&#x101;" horiz-adv-x="463" 
d="M338 334q0 104 -85 104q-60 0 -182 -43l-7 46q115 43 189 43q135 0 135 -150v-334h-38l-9 63q-39 -36 -85 -54.5t-88 -18.5q-58 0 -90.5 32t-32.5 87q0 78 72.5 115t220.5 47v63zM168 36q49 0 94 23.5t76 60.5v105q-124 -10 -183.5 -36.5t-59.5 -76.5q0 -36 19.5 -56
t53.5 -20zM369 620l-4 -44h-285l4 44h285z" />
    <glyph glyph-name="aogonek" unicode="&#x105;" horiz-adv-x="463" 
d="M411 -208q-29 -8 -51 -8q-56 0 -82.5 29t-26.5 72q0 79 95 138l-5 40q-39 -36 -85 -54.5t-88 -18.5q-58 0 -90.5 32t-32.5 87q0 78 72.5 115t220.5 47v63q0 104 -85 104q-60 0 -182 -43l-7 46q115 43 189 43q135 0 135 -150v-334q-44 -24 -65.5 -55t-21.5 -60
q0 -23 14.5 -39t44.5 -16q17 0 44 8zM168 36q49 0 94 23.5t76 60.5v105q-124 -10 -183.5 -36.5t-59.5 -76.5q0 -36 19.5 -56t53.5 -20z" />
    <glyph glyph-name="aring" unicode="&#xe5;" horiz-adv-x="463" 
d="M338 334q0 104 -85 104q-60 0 -182 -43l-7 46q115 43 189 43q135 0 135 -150v-334h-38l-9 63q-39 -36 -85 -54.5t-88 -18.5q-58 0 -90.5 32t-32.5 87q0 78 72.5 115t220.5 47v63zM168 36q49 0 94 23.5t76 60.5v105q-124 -10 -183.5 -36.5t-59.5 -76.5q0 -36 19.5 -56
t53.5 -20zM182 616q0 -23 13.5 -37.5t34.5 -14.5q23 0 36.5 14.5t13.5 37.5q0 24 -13.5 39t-36.5 15q-21 0 -34.5 -15t-13.5 -39zM136 616q0 43 26 69.5t68 26.5q43 0 69.5 -26.5t26.5 -69.5q0 -42 -26.5 -68t-69.5 -26q-42 0 -68 26t-26 68z" />
    <glyph glyph-name="aringacute" unicode="&#x1fb;" horiz-adv-x="463" 
d="M332 841l-102 -98h-57l87 98h72zM338 334q0 104 -85 104q-60 0 -182 -43l-7 46q115 43 189 43q135 0 135 -150v-334h-38l-9 63q-39 -36 -85 -54.5t-88 -18.5q-58 0 -90.5 32t-32.5 87q0 78 72.5 115t220.5 47v63zM168 36q49 0 94 23.5t76 60.5v105q-124 -10 -183.5 -36.5
t-59.5 -76.5q0 -36 19.5 -56t53.5 -20zM182 616q0 -23 13.5 -37.5t34.5 -14.5q23 0 36.5 14.5t13.5 37.5q0 24 -13.5 39t-36.5 15q-21 0 -34.5 -15t-13.5 -39zM136 616q0 43 26 69.5t68 26.5q43 0 69.5 -26.5t26.5 -69.5q0 -42 -26.5 -68t-69.5 -26q-42 0 -68 26t-26 68z
" />
    <glyph glyph-name="atilde" unicode="&#xe3;" horiz-adv-x="463" 
d="M338 334q0 104 -85 104q-60 0 -182 -43l-7 46q115 43 189 43q135 0 135 -150v-334h-38l-9 63q-39 -36 -85 -54.5t-88 -18.5q-58 0 -90.5 32t-32.5 87q0 78 72.5 115t220.5 47v63zM168 36q49 0 94 23.5t76 60.5v105q-124 -10 -183.5 -36.5t-59.5 -76.5q0 -36 19.5 -56
t53.5 -20zM80 579q7 38 32.5 61.5t57.5 23.5q20 0 36 -9t30 -19.5l26.5 -19.5t26.5 -9q30 0 44 47l42 -9q-8 -35 -32.5 -59t-56.5 -24q-20 0 -36 8.5t-30.5 19l-27.5 19.5t-26 9q-32 0 -45 -47z" />
    <glyph glyph-name="ccedilla" unicode="&#xe7;" horiz-adv-x="441" 
d="M396 15q-49 -19 -102 -24l-27 -45l9 1h8q37 0 58 -21.5t21 -58.5t-29.5 -60t-77.5 -23q-34 0 -67 11l8 43q28 -10 56 -10q59 0 59 39q0 38 -41 38l-32 -5l-31 31l32 60q-88 7 -136.5 70.5t-48.5 175.5q0 118 54.5 182.5t156.5 64.5q63 0 130 -25l-7 -46q-64 25 -120 25
q-79 0 -121.5 -51t-42.5 -150t42 -150t122 -51q50 0 120 25z" />
    <glyph glyph-name="cacute" unicode="&#x107;" horiz-adv-x="441" 
d="M266 -10q-101 0 -156 64t-55 183q0 118 54.5 182.5t156.5 64.5q63 0 130 -25l-7 -46q-64 25 -120 25q-79 0 -121.5 -51t-42.5 -150t42 -150t122 -51q50 0 120 25l7 -46q-67 -25 -130 -25zM341 702l-92 -158h-50l84 158h58z" />
    <glyph glyph-name="ccaron" unicode="&#x10d;" horiz-adv-x="441" 
d="M266 -10q-101 0 -156 64t-55 183q0 118 54.5 182.5t156.5 64.5q63 0 130 -25l-7 -46q-64 25 -120 25q-79 0 -121.5 -51t-42.5 -150t42 -150t122 -51q50 0 120 25l7 -46q-67 -25 -130 -25zM123 702h56l80 -114l80 114h56l-114 -158h-44z" />
    <glyph glyph-name="ccircumflex" unicode="&#x109;" horiz-adv-x="441" 
d="M266 -10q-101 0 -156 64t-55 183q0 118 54.5 182.5t156.5 64.5q63 0 130 -25l-7 -46q-64 25 -120 25q-79 0 -121.5 -51t-42.5 -150t42 -150t122 -51q50 0 120 25l7 -46q-67 -25 -130 -25zM396 544h-56l-80 114l-80 -114h-56l114 158h44z" />
    <glyph glyph-name="cdotaccent" unicode="&#x10b;" horiz-adv-x="441" 
d="M266 -10q-101 0 -156 64t-55 183q0 118 54.5 182.5t156.5 64.5q63 0 130 -25l-7 -46q-64 25 -120 25q-79 0 -121.5 -51t-42.5 -150t42 -150t122 -51q50 0 120 25l7 -46q-67 -25 -130 -25zM260 635q17 0 27.5 -10.5t10.5 -27.5t-10.5 -27.5t-27.5 -10.5t-27.5 10.5
t-10.5 27.5t10.5 27.5t27.5 10.5z" />
    <glyph glyph-name="dcroat" unicode="&#x111;" horiz-adv-x="531" 
d="M406 620v134l50 4v-138h70l-4 -44h-66v-576h-40l-10 58q-116 -68 -185 -68q-80 0 -123 64t-43 183q0 118 52 182.5t147 64.5q74 0 152 -36v128h-169l4 44h165zM406 402q-87 36 -152 36q-73 0 -111 -53t-38 -149q0 -107 33 -153.5t83 -46.5q63 0 185 72v294z" />
    <glyph glyph-name="dcaron" unicode="&#x10f;" horiz-adv-x="576" 
d="M406 754l50 4v-758h-40l-10 58q-116 -68 -185 -68q-80 0 -123 64t-43 183q0 118 52 182.5t147 64.5q74 0 152 -36v306zM406 402q-87 36 -152 36q-73 0 -111 -53t-38 -149q0 -107 33 -153.5t83 -46.5q63 0 185 72v294zM559 763q17 -37 17 -75q0 -55 -34 -110h-46
q32 48 32 95q0 42 -22 85z" />
    <glyph glyph-name="eacute" unicode="&#xe9;" horiz-adv-x="491" 
d="M105 218q7 -181 165 -181q63 0 138 28l7 -46q-77 -29 -149 -29q-103 0 -157 64.5t-54 182.5q0 123 52.5 185t152.5 62q82 0 128.5 -54.5t47.5 -150.5q0 -28 -5 -61h-326zM260 438q-144 0 -154 -174h280v13q0 76 -33 118.5t-93 42.5zM346 702l-92 -158h-50l84 158h58z" />
    <glyph glyph-name="ebreve" unicode="&#x115;" horiz-adv-x="491" 
d="M105 218q7 -181 165 -181q63 0 138 28l7 -46q-77 -29 -149 -29q-103 0 -157 64.5t-54 182.5q0 123 52.5 185t152.5 62q82 0 128.5 -54.5t47.5 -150.5q0 -28 -5 -61h-326zM260 438q-144 0 -154 -174h280v13q0 76 -33 118.5t-93 42.5zM164 702q2 -55 26 -83.5t66 -28.5
q41 0 65 29t25 83l45 -4q0 -73 -36.5 -113.5t-98.5 -40.5t-99.5 39t-37.5 115z" />
    <glyph glyph-name="ecaron" unicode="&#x11b;" horiz-adv-x="491" 
d="M105 218q7 -181 165 -181q63 0 138 28l7 -46q-77 -29 -149 -29q-103 0 -157 64.5t-54 182.5q0 123 52.5 185t152.5 62q82 0 128.5 -54.5t47.5 -150.5q0 -28 -5 -61h-326zM260 438q-144 0 -154 -174h280v13q0 76 -33 118.5t-93 42.5zM119 702h56l80 -114l80 114h56
l-114 -158h-44z" />
    <glyph glyph-name="ecircumflex" unicode="&#xea;" horiz-adv-x="491" 
d="M105 218q7 -181 165 -181q63 0 138 28l7 -46q-77 -29 -149 -29q-103 0 -157 64.5t-54 182.5q0 123 52.5 185t152.5 62q82 0 128.5 -54.5t47.5 -150.5q0 -28 -5 -61h-326zM260 438q-144 0 -154 -174h280v13q0 76 -33 118.5t-93 42.5zM391 544h-56l-80 114l-80 -114h-56
l114 158h44z" />
    <glyph glyph-name="edieresis" unicode="&#xeb;" horiz-adv-x="491" 
d="M105 218q7 -181 165 -181q63 0 138 28l7 -46q-77 -29 -149 -29q-103 0 -157 64.5t-54 182.5q0 123 52.5 185t152.5 62q82 0 128.5 -54.5t47.5 -150.5q0 -28 -5 -61h-326zM260 438q-144 0 -154 -174h280v13q0 76 -33 118.5t-93 42.5zM166 635q17 0 27.5 -10.5t10.5 -27.5
t-10.5 -27.5t-27.5 -10.5t-27.5 10.5t-10.5 27.5t10.5 27.5t27.5 10.5zM352 635q17 0 27.5 -10.5t10.5 -27.5t-10.5 -27.5t-27.5 -10.5t-27.5 10.5t-10.5 27.5t10.5 27.5t27.5 10.5z" />
    <glyph glyph-name="edotaccent" unicode="&#x117;" horiz-adv-x="491" 
d="M105 218q7 -181 165 -181q63 0 138 28l7 -46q-77 -29 -149 -29q-103 0 -157 64.5t-54 182.5q0 123 52.5 185t152.5 62q82 0 128.5 -54.5t47.5 -150.5q0 -28 -5 -61h-326zM260 438q-144 0 -154 -174h280v13q0 76 -33 118.5t-93 42.5zM255 635q17 0 27.5 -10.5t10.5 -27.5
t-10.5 -27.5t-27.5 -10.5t-27.5 10.5t-10.5 27.5t10.5 27.5t27.5 10.5z" />
    <glyph glyph-name="egrave" unicode="&#xe8;" horiz-adv-x="491" 
d="M105 218q7 -181 165 -181q63 0 138 28l7 -46q-77 -29 -149 -29q-103 0 -157 64.5t-54 182.5q0 123 52.5 185t152.5 62q82 0 128.5 -54.5t47.5 -150.5q0 -28 -5 -61h-326zM260 438q-144 0 -154 -174h280v13q0 76 -33 118.5t-93 42.5zM212 702l84 -158h-50l-92 158h58z" />
    <glyph glyph-name="emacron" unicode="&#x113;" horiz-adv-x="491" 
d="M105 218q7 -181 165 -181q63 0 138 28l7 -46q-77 -29 -149 -29q-103 0 -157 64.5t-54 182.5q0 123 52.5 185t152.5 62q82 0 128.5 -54.5t47.5 -150.5q0 -28 -5 -61h-326zM260 438q-144 0 -154 -174h280v13q0 76 -33 118.5t-93 42.5zM400 620l-4 -44h-285l4 44h285z" />
    <glyph glyph-name="eogonek" unicode="&#x119;" horiz-adv-x="491" 
d="M105 218q7 -181 165 -181q63 0 138 28l7 -46q-48 -26 -72 -61.5t-24 -72.5q0 -23 14.5 -39t44.5 -16q21 0 44 8l7 -46q-29 -8 -51 -8q-56 0 -82.5 29t-26.5 75q0 55 49 106l-52 -4q-103 0 -157 64.5t-54 182.5q0 123 52.5 185t152.5 62q82 0 128.5 -54.5t47.5 -150.5
q0 -28 -5 -61h-326zM260 438q-144 0 -154 -174h280v13q0 76 -33 118.5t-93 42.5z" />
    <glyph glyph-name="gbreve" unicode="&#x11f;" horiz-adv-x="503" 
d="M414 328q0 -69 -42.5 -112.5t-130.5 -43.5q-29 0 -49 4q-41 -35 -41 -65q0 -40 69 -40h49q100 0 149.5 -34.5t49.5 -94.5q0 -70 -67.5 -114t-178.5 -44q-82 0 -129.5 34.5t-47.5 89.5q0 36 23 72.5t71 62.5q-37 22 -37 68q0 45 45 79q-79 40 -79 138q0 70 42.5 113
t130.5 43q41 0 73 -10h144l-4 -46h-71q31 -39 31 -100zM220 25l-35 2q-46 -24 -68 -56.5t-22 -62.5q0 -32 31.5 -55t95.5 -23q89 0 142.5 31t53.5 81q0 38 -37 60.5t-112 22.5h-49zM364 328q0 50 -30 80t-93 30t-93 -30t-30 -80q0 -49 30 -79.5t93 -30.5t93 30.5t30 79.5z
M150 702q2 -55 26 -83.5t66 -28.5q41 0 65 29t25 83l45 -4q0 -73 -36.5 -113.5t-98.5 -40.5t-99.5 39t-37.5 115z" />
    <glyph glyph-name="gcircumflex" unicode="&#x11d;" horiz-adv-x="503" 
d="M414 328q0 -69 -42.5 -112.5t-130.5 -43.5q-29 0 -49 4q-41 -35 -41 -65q0 -40 69 -40h49q100 0 149.5 -34.5t49.5 -94.5q0 -70 -67.5 -114t-178.5 -44q-82 0 -129.5 34.5t-47.5 89.5q0 36 23 72.5t71 62.5q-37 22 -37 68q0 45 45 79q-79 40 -79 138q0 70 42.5 113
t130.5 43q41 0 73 -10h144l-4 -46h-71q31 -39 31 -100zM220 25l-35 2q-46 -24 -68 -56.5t-22 -62.5q0 -32 31.5 -55t95.5 -23q89 0 142.5 31t53.5 81q0 38 -37 60.5t-112 22.5h-49zM364 328q0 50 -30 80t-93 30t-93 -30t-30 -80q0 -49 30 -79.5t93 -30.5t93 30.5t30 79.5z
M377 544h-56l-80 114l-80 -114h-56l114 158h44z" />
    <glyph glyph-name="gcommaaccent" unicode="&#x123;" horiz-adv-x="503" 
d="M414 328q0 -69 -42.5 -112.5t-130.5 -43.5q-29 0 -49 4q-41 -35 -41 -65q0 -40 69 -40h49q100 0 149.5 -34.5t49.5 -94.5q0 -70 -67.5 -114t-178.5 -44q-82 0 -129.5 34.5t-47.5 89.5q0 36 23 72.5t71 62.5q-37 22 -37 68q0 45 45 79q-79 40 -79 138q0 70 42.5 113
t130.5 43q41 0 73 -10h144l-4 -46h-71q31 -39 31 -100zM220 25l-35 2q-46 -24 -68 -56.5t-22 -62.5q0 -32 31.5 -55t95.5 -23q89 0 142.5 31t53.5 81q0 38 -37 60.5t-112 22.5h-49zM364 328q0 50 -30 80t-93 30t-93 -30t-30 -80q0 -49 30 -79.5t93 -30.5t93 30.5t30 79.5z
M207 561q-19 29 -19 59q0 41 33 80l44 -3q-29 -34 -29 -64q0 -31 24 -68z" />
    <glyph glyph-name="gdotaccent" unicode="&#x121;" horiz-adv-x="503" 
d="M414 328q0 -69 -42.5 -112.5t-130.5 -43.5q-29 0 -49 4q-41 -35 -41 -65q0 -40 69 -40h49q100 0 149.5 -34.5t49.5 -94.5q0 -70 -67.5 -114t-178.5 -44q-82 0 -129.5 34.5t-47.5 89.5q0 36 23 72.5t71 62.5q-37 22 -37 68q0 45 45 79q-79 40 -79 138q0 70 42.5 113
t130.5 43q41 0 73 -10h144l-4 -46h-71q31 -39 31 -100zM220 25l-35 2q-46 -24 -68 -56.5t-22 -62.5q0 -32 31.5 -55t95.5 -23q89 0 142.5 31t53.5 81q0 38 -37 60.5t-112 22.5h-49zM364 328q0 50 -30 80t-93 30t-93 -30t-30 -80q0 -49 30 -79.5t93 -30.5t93 30.5t30 79.5z
M241 635q17 0 27.5 -10.5t10.5 -27.5t-10.5 -27.5t-27.5 -10.5t-27.5 10.5t-10.5 27.5t10.5 27.5t27.5 10.5z" />
    <glyph glyph-name="hcircumflex" unicode="&#x125;" horiz-adv-x="520" 
d="M125 0h-50v754l50 4v-342q116 68 185 68q65 0 100 -40.5t35 -116.5v-327h-50v327q0 57 -24 84t-61 27q-63 0 -185 -72v-366zM256 782h-67l-89 87l-89 -87h-67l134 128h44z" />
    <glyph glyph-name="hbar" unicode="&#x127;" horiz-adv-x="520" 
d="M75 620v134l50 4v-138h169l-4 -44h-165v-160q116 68 185 68q65 0 100 -40.5t35 -116.5v-327h-50v327q0 57 -24 84t-61 27q-63 0 -185 -72v-366h-50v576h-70l4 44h66z" />
    <glyph glyph-name="iacute" unicode="&#xed;" horiz-adv-x="200" 
d="M125 476v-476h-50v472zM216 702l-92 -158h-50l84 158h58z" />
    <glyph glyph-name="ibreve" unicode="&#x12d;" horiz-adv-x="200" 
d="M125 476v-476h-50v472zM9 702q2 -55 26 -83.5t66 -28.5q41 0 65 29t25 83l45 -4q0 -73 -36.5 -113.5t-98.5 -40.5t-99.5 39t-37.5 115z" />
    <glyph glyph-name="icircumflex" unicode="&#xee;" horiz-adv-x="200" 
d="M125 476v-476h-50v472zM236 544h-56l-80 114l-80 -114h-56l114 158h44z" />
    <glyph glyph-name="idieresis" unicode="&#xef;" horiz-adv-x="200" 
d="M125 476v-476h-50v472zM7 635q17 0 27.5 -10.5t10.5 -27.5t-10.5 -27.5t-27.5 -10.5t-27.5 10.5t-10.5 27.5t10.5 27.5t27.5 10.5zM193 635q17 0 27.5 -10.5t10.5 -27.5t-10.5 -27.5t-27.5 -10.5t-27.5 10.5t-10.5 27.5t10.5 27.5t27.5 10.5z" />
    <glyph glyph-name="igrave" unicode="&#xec;" horiz-adv-x="200" 
d="M125 476v-476h-50v472zM42 702l84 -158h-50l-92 158h58z" />
    <glyph glyph-name="imacron" unicode="&#x12b;" horiz-adv-x="200" 
d="M125 476v-476h-50v472zM245 620l-4 -44h-285l4 44h285z" />
    <glyph glyph-name="iogonek" unicode="&#x12f;" horiz-adv-x="200" 
d="M148 -208q-29 -8 -51 -8q-56 0 -82.5 29t-26.5 72q0 74 87 133v454l50 4v-476q-44 -24 -65.5 -55t-21.5 -60q0 -23 14.5 -39t44.5 -16q17 0 44 8zM100 635q17 0 27.5 -10.5t10.5 -27.5t-10.5 -27.5t-27.5 -10.5t-27.5 10.5t-10.5 27.5t10.5 27.5t27.5 10.5z" />
    <glyph glyph-name="itilde" unicode="&#x129;" horiz-adv-x="200" 
d="M125 476v-476h-50v472zM-47 579q7 38 32.5 61.5t57.5 23.5q20 0 36 -9t30 -19.5l26.5 -19.5t26.5 -9q30 0 44 47l42 -9q-8 -35 -32.5 -59t-56.5 -24q-20 0 -36 8.5t-30.5 19l-27.5 19.5t-26 9q-32 0 -45 -47z" />
    <glyph glyph-name="dotlessi" unicode="&#x131;" horiz-adv-x="200" 
d="M125 476v-476h-50v472z" />
    <glyph glyph-name="jcircumflex" unicode="&#x135;" horiz-adv-x="235" 
d="M155 476v-454q0 -74 -30.5 -128.5t-99.5 -109.5l-37 31q54 44 85.5 93t31.5 115v449zM271 544h-56l-80 114l-80 -114h-56l114 158h44z" />
    <glyph glyph-name="kcommaaccent" unicode="&#x137;" horiz-adv-x="457" 
d="M125 231v-231h-50v754l50 4v-497l233 215l65 -4l-243 -224l267 -246l-70 -4zM242 -77q19 -29 19 -59q0 -41 -33 -80l-44 3q29 34 29 64q0 31 -24 68z" />
    <glyph glyph-name="lacute" unicode="&#x13a;" horiz-adv-x="275" 
d="M125 758v-655q0 -66 53 -66q32 0 87 17l5 -45q-62 -19 -97 -19q-98 0 -98 114v650zM262 910l-129 -128h-57l114 128h72z" />
    <glyph glyph-name="lcaron" unicode="&#x13e;" horiz-adv-x="275" 
d="M125 758v-655q0 -66 53 -66q32 0 87 17l5 -45q-62 -19 -97 -19q-98 0 -98 114v650zM228 763q17 -37 17 -75q0 -55 -34 -110h-46q32 48 32 95q0 42 -22 85z" />
    <glyph glyph-name="lcommaaccent" unicode="&#x13c;" horiz-adv-x="275" 
d="M125 758v-655q0 -66 53 -66q32 0 87 17l5 -45q-62 -19 -97 -19q-98 0 -98 114v650zM171 -77q19 -29 19 -59q0 -41 -33 -80l-44 3q29 34 29 64q0 31 -24 68z" />
    <glyph glyph-name="ldot" unicode="&#x140;" horiz-adv-x="275" 
d="M125 758v-655q0 -66 53 -66q32 0 87 17l5 -45q-62 -19 -97 -19q-98 0 -98 114v650zM220 388q17 0 27.5 -10.5t10.5 -27.5t-10.5 -27.5t-27.5 -10.5t-27.5 10.5t-10.5 27.5t10.5 27.5t27.5 10.5z" />
    <glyph glyph-name="lslash" unicode="&#x142;" horiz-adv-x="295" 
d="M145 758v-406l96 59l4 -50l-100 -62v-196q0 -66 53 -66q32 0 87 17l5 -45q-62 -19 -97 -19q-98 0 -98 114v164l-91 -56l-4 51l95 58v433z" />
    <glyph glyph-name="nacute" unicode="&#x144;" horiz-adv-x="520" 
d="M125 0h-50v472l50 4v-60q116 68 185 68q65 0 100 -40.5t35 -116.5v-327h-50v327q0 57 -24 84t-61 27q-63 0 -185 -72v-366zM341 702l-92 -158h-50l84 158h58z" />
    <glyph glyph-name="napostrophe" unicode="&#x149;" horiz-adv-x="520" 
d="M125 0h-50v472l50 4v-60q116 68 185 68q65 0 100 -40.5t35 -116.5v-327h-50v327q0 57 -24 84t-61 27q-63 0 -185 -72v-366zM133 706q19 -29 19 -59q0 -41 -33 -80l-44 3q29 34 29 64q0 31 -24 68z" />
    <glyph glyph-name="ncaron" unicode="&#x148;" horiz-adv-x="520" 
d="M125 0h-50v472l50 4v-60q116 68 185 68q65 0 100 -40.5t35 -116.5v-327h-50v327q0 57 -24 84t-61 27q-63 0 -185 -72v-366zM124 702h56l80 -114l80 114h56l-114 -158h-44z" />
    <glyph glyph-name="ncommaaccent" unicode="&#x146;" horiz-adv-x="520" 
d="M125 0h-50v472l50 4v-60q116 68 185 68q65 0 100 -40.5t35 -116.5v-327h-50v327q0 57 -24 84t-61 27q-63 0 -185 -72v-366zM274 -77q19 -29 19 -59q0 -41 -33 -80l-44 3q29 34 29 64q0 31 -24 68z" />
    <glyph glyph-name="ntilde" unicode="&#xf1;" horiz-adv-x="520" 
d="M125 0h-50v472l50 4v-60q116 68 185 68q65 0 100 -40.5t35 -116.5v-327h-50v327q0 57 -24 84t-61 27q-63 0 -185 -72v-366zM112 579q7 38 32.5 61.5t57.5 23.5q20 0 36 -9t30 -19.5l26.5 -19.5t26.5 -9q30 0 44 47l42 -9q-8 -35 -32.5 -59t-56.5 -24q-20 0 -36 8.5
t-30.5 19l-27.5 19.5t-26 9q-32 0 -45 -47z" />
    <glyph glyph-name="oacute" unicode="&#xf3;" horiz-adv-x="539" 
d="M105 237q0 -105 45.5 -153t119.5 -48q81 0 122.5 52.5t41.5 148.5q0 97 -43 149t-121 52q-74 0 -119.5 -48.5t-45.5 -152.5zM55 237q0 119 55 183t160 64q104 0 159 -64.5t55 -182.5q0 -121 -55.5 -184t-158.5 -63q-105 0 -160 63.5t-55 183.5zM360 702l-92 -158h-50
l84 158h58z" />
    <glyph glyph-name="obreve" unicode="&#x14f;" horiz-adv-x="539" 
d="M105 237q0 -105 45.5 -153t119.5 -48q81 0 122.5 52.5t41.5 148.5q0 97 -43 149t-121 52q-74 0 -119.5 -48.5t-45.5 -152.5zM55 237q0 119 55 183t160 64q104 0 159 -64.5t55 -182.5q0 -121 -55.5 -184t-158.5 -63q-105 0 -160 63.5t-55 183.5zM178 702q2 -55 26 -83.5
t66 -28.5q41 0 65 29t25 83l45 -4q0 -73 -36.5 -113.5t-98.5 -40.5t-99.5 39t-37.5 115z" />
    <glyph glyph-name="ocircumflex" unicode="&#xf4;" horiz-adv-x="539" 
d="M105 237q0 -105 45.5 -153t119.5 -48q81 0 122.5 52.5t41.5 148.5q0 97 -43 149t-121 52q-74 0 -119.5 -48.5t-45.5 -152.5zM55 237q0 119 55 183t160 64q104 0 159 -64.5t55 -182.5q0 -121 -55.5 -184t-158.5 -63q-105 0 -160 63.5t-55 183.5zM405 544h-56l-80 114
l-80 -114h-56l114 158h44z" />
    <glyph glyph-name="odieresis" unicode="&#xf6;" horiz-adv-x="539" 
d="M105 237q0 -105 45.5 -153t119.5 -48q81 0 122.5 52.5t41.5 148.5q0 97 -43 149t-121 52q-74 0 -119.5 -48.5t-45.5 -152.5zM55 237q0 119 55 183t160 64q104 0 159 -64.5t55 -182.5q0 -121 -55.5 -184t-158.5 -63q-105 0 -160 63.5t-55 183.5zM177 635q17 0 27.5 -10.5
t10.5 -27.5t-10.5 -27.5t-27.5 -10.5t-27.5 10.5t-10.5 27.5t10.5 27.5t27.5 10.5zM363 635q17 0 27.5 -10.5t10.5 -27.5t-10.5 -27.5t-27.5 -10.5t-27.5 10.5t-10.5 27.5t10.5 27.5t27.5 10.5z" />
    <glyph glyph-name="ograve" unicode="&#xf2;" horiz-adv-x="539" 
d="M105 237q0 -105 45.5 -153t119.5 -48q81 0 122.5 52.5t41.5 148.5q0 97 -43 149t-121 52q-74 0 -119.5 -48.5t-45.5 -152.5zM55 237q0 119 55 183t160 64q104 0 159 -64.5t55 -182.5q0 -121 -55.5 -184t-158.5 -63q-105 0 -160 63.5t-55 183.5zM236 702l84 -158h-50
l-92 158h58z" />
    <glyph glyph-name="ohungarumlaut" unicode="&#x151;" horiz-adv-x="539" 
d="M105 237q0 -105 45.5 -153t119.5 -48q81 0 122.5 52.5t41.5 148.5q0 97 -43 149t-121 52q-74 0 -119.5 -48.5t-45.5 -152.5zM55 237q0 119 55 183t160 64q104 0 159 -64.5t55 -182.5q0 -121 -55.5 -184t-158.5 -63q-105 0 -160 63.5t-55 183.5zM281 702l-92 -158h-50
l84 158h58zM439 702l-92 -158h-50l84 158h58z" />
    <glyph glyph-name="omacron" unicode="&#x14d;" horiz-adv-x="539" 
d="M105 237q0 -105 45.5 -153t119.5 -48q81 0 122.5 52.5t41.5 148.5q0 97 -43 149t-121 52q-74 0 -119.5 -48.5t-45.5 -152.5zM55 237q0 119 55 183t160 64q104 0 159 -64.5t55 -182.5q0 -121 -55.5 -184t-158.5 -63q-105 0 -160 63.5t-55 183.5zM414 620l-4 -44h-285l4 44
h285z" />
    <glyph glyph-name="otilde" unicode="&#xf5;" horiz-adv-x="539" 
d="M105 237q0 -105 45.5 -153t119.5 -48q81 0 122.5 52.5t41.5 148.5q0 97 -43 149t-121 52q-74 0 -119.5 -48.5t-45.5 -152.5zM55 237q0 119 55 183t160 64q104 0 159 -64.5t55 -182.5q0 -121 -55.5 -184t-158.5 -63q-105 0 -160 63.5t-55 183.5zM122 579q7 38 32.5 61.5
t57.5 23.5q20 0 36 -9t30 -19.5l26.5 -19.5t26.5 -9q30 0 44 47l42 -9q-8 -35 -32.5 -59t-56.5 -24q-20 0 -36 8.5t-30.5 19l-27.5 19.5t-26 9q-32 0 -45 -47z" />
    <glyph glyph-name="racute" unicode="&#x155;" horiz-adv-x="351" 
d="M334 427q-42 11 -65 11q-26 0 -48.5 -15.5t-95.5 -106.5v-316h-50v472l50 4v-96q39 56 70.5 80t69.5 24q20 0 76 -11zM266 702l-92 -158h-50l84 158h58z" />
    <glyph glyph-name="rcaron" unicode="&#x159;" horiz-adv-x="351" 
d="M334 427q-42 11 -65 11q-26 0 -48.5 -15.5t-95.5 -106.5v-316h-50v472l50 4v-96q39 56 70.5 80t69.5 24q20 0 76 -11zM40 702h56l80 -114l80 114h56l-114 -158h-44z" />
    <glyph glyph-name="rcommaaccent" unicode="&#x157;" horiz-adv-x="351" 
d="M334 427q-42 11 -65 11q-26 0 -48.5 -15.5t-95.5 -106.5v-316h-50v472l50 4v-96q39 56 70.5 80t69.5 24q20 0 76 -11zM124 -77q19 -29 19 -59q0 -41 -33 -80l-44 3q29 34 29 64q0 31 -24 68z" />
    <glyph glyph-name="sacute" unicode="&#x15b;" horiz-adv-x="419" 
d="M77 66q65 -30 131 -30q106 0 106 87q0 30 -26.5 52t-97.5 51q-62 25 -93.5 57.5t-31.5 77.5q0 59 41 91t110 32t133 -30l-7 -46q-60 30 -126 30q-101 0 -101 -77q0 -31 29.5 -54t95.5 -49q61 -25 92.5 -57.5t31.5 -77.5q0 -61 -42.5 -97t-118.5 -36q-67 0 -133 30z
M290 702l-92 -158h-50l84 158h58z" />
    <glyph glyph-name="scaron" unicode="&#x161;" horiz-adv-x="419" 
d="M77 66q65 -30 131 -30q106 0 106 87q0 30 -26.5 52t-97.5 51q-62 25 -93.5 57.5t-31.5 77.5q0 59 41 91t110 32t133 -30l-7 -46q-60 30 -126 30q-101 0 -101 -77q0 -31 29.5 -54t95.5 -49q61 -25 92.5 -57.5t31.5 -77.5q0 -61 -42.5 -97t-118.5 -36q-67 0 -133 30z
M63 702h56l80 -114l80 114h56l-114 -158h-44z" />
    <glyph glyph-name="scedilla" unicode="&#x15f;" horiz-adv-x="419" 
d="M77 66q65 -30 131 -30q106 0 106 87q0 30 -26.5 52t-97.5 51q-62 25 -93.5 57.5t-31.5 77.5q0 59 41 91t110 32t133 -30l-7 -46q-60 30 -126 30q-101 0 -101 -77q0 -31 29.5 -54t95.5 -49q61 -25 92.5 -57.5t31.5 -77.5q0 -53 -32.5 -87.5t-93.5 -43.5l-28 -46l9 1h8
q37 0 58 -21.5t21 -58.5t-29.5 -60t-77.5 -23q-34 0 -67 11l8 43q28 -10 56 -10q59 0 59 39q0 38 -41 38l-32 -5l-31 31l31 60q-58 4 -112 29z" />
    <glyph glyph-name="scircumflex" unicode="&#x15d;" horiz-adv-x="419" 
d="M77 66q65 -30 131 -30q106 0 106 87q0 30 -26.5 52t-97.5 51q-62 25 -93.5 57.5t-31.5 77.5q0 59 41 91t110 32t133 -30l-7 -46q-60 30 -126 30q-101 0 -101 -77q0 -31 29.5 -54t95.5 -49q61 -25 92.5 -57.5t31.5 -77.5q0 -61 -42.5 -97t-118.5 -36q-67 0 -133 30z
M335 544h-56l-80 114l-80 -114h-56l114 158h44z" />
    <glyph glyph-name="scommaaccent" unicode="&#x219;" horiz-adv-x="419" 
d="M77 66q65 -30 131 -30q106 0 106 87q0 30 -26.5 52t-97.5 51q-62 25 -93.5 57.5t-31.5 77.5q0 59 41 91t110 32t133 -30l-7 -46q-60 30 -126 30q-101 0 -101 -77q0 -31 29.5 -54t95.5 -49q61 -25 92.5 -57.5t31.5 -77.5q0 -61 -42.5 -97t-118.5 -36q-67 0 -133 30z
M231 -77q19 -29 19 -59q0 -41 -33 -80l-44 3q29 34 29 64q0 31 -24 68z" />
    <glyph glyph-name="tbar" unicode="&#x167;" horiz-adv-x="366" 
d="M106 278v150h-81l4 46h77v150l50 4v-154h156l-4 -46h-152v-150h155l-4 -44h-151v-76q0 -122 90 -122q38 0 80 12l5 -43q-51 -15 -90 -15q-65 0 -100 43t-35 121v80h-84l4 44h80z" />
    <glyph glyph-name="tcaron" unicode="&#x165;" horiz-adv-x="366" 
d="M106 428h-81l4 46h77v150l50 4v-154h156l-4 -46h-152v-270q0 -122 90 -122q38 0 80 12l5 -43q-51 -15 -90 -15q-65 0 -100 43t-35 121v274zM259 763q17 -37 17 -75q0 -55 -34 -110h-46q32 48 32 95q0 42 -22 85z" />
    <glyph glyph-name="tcommaaccent" unicode="&#x163;" horiz-adv-x="366" 
d="M106 428h-81l4 46h77v150l50 4v-154h156l-4 -46h-152v-270q0 -122 90 -122q38 0 80 12l5 -43q-51 -15 -90 -15q-65 0 -100 43t-35 121v274zM217 -77q19 -29 19 -59q0 -41 -33 -80l-44 3q29 34 29 64q0 31 -24 68z" />
    <glyph glyph-name="uacute" unicode="&#xfa;" horiz-adv-x="520" 
d="M395 472l50 4v-476h-40l-10 58q-116 -68 -185 -68q-65 0 -100 40.5t-35 116.5v325l50 4v-329q0 -57 24 -84t61 -27q63 0 185 72v364zM351 702l-92 -158h-50l84 158h58z" />
    <glyph glyph-name="ubreve" unicode="&#x16d;" horiz-adv-x="520" 
d="M395 472l50 4v-476h-40l-10 58q-116 -68 -185 -68q-65 0 -100 40.5t-35 116.5v325l50 4v-329q0 -57 24 -84t61 -27q63 0 185 72v364zM169 702q2 -55 26 -83.5t66 -28.5q41 0 65 29t25 83l45 -4q0 -73 -36.5 -113.5t-98.5 -40.5t-99.5 39t-37.5 115z" />
    <glyph glyph-name="ucircumflex" unicode="&#xfb;" horiz-adv-x="520" 
d="M395 472l50 4v-476h-40l-10 58q-116 -68 -185 -68q-65 0 -100 40.5t-35 116.5v325l50 4v-329q0 -57 24 -84t61 -27q63 0 185 72v364zM396 544h-56l-80 114l-80 -114h-56l114 158h44z" />
    <glyph glyph-name="udieresis" unicode="&#xfc;" horiz-adv-x="520" 
d="M395 472l50 4v-476h-40l-10 58q-116 -68 -185 -68q-65 0 -100 40.5t-35 116.5v325l50 4v-329q0 -57 24 -84t61 -27q63 0 185 72v364zM167 635q17 0 27.5 -10.5t10.5 -27.5t-10.5 -27.5t-27.5 -10.5t-27.5 10.5t-10.5 27.5t10.5 27.5t27.5 10.5zM353 635q17 0 27.5 -10.5
t10.5 -27.5t-10.5 -27.5t-27.5 -10.5t-27.5 10.5t-10.5 27.5t10.5 27.5t27.5 10.5z" />
    <glyph glyph-name="ugrave" unicode="&#xf9;" horiz-adv-x="520" 
d="M395 472l50 4v-476h-40l-10 58q-116 -68 -185 -68q-65 0 -100 40.5t-35 116.5v325l50 4v-329q0 -57 24 -84t61 -27q63 0 185 72v364zM227 702l84 -158h-50l-92 158h58z" />
    <glyph glyph-name="uhungarumlaut" unicode="&#x171;" horiz-adv-x="520" 
d="M395 472l50 4v-476h-40l-10 58q-116 -68 -185 -68q-65 0 -100 40.5t-35 116.5v325l50 4v-329q0 -57 24 -84t61 -27q63 0 185 72v364zM276 702l-92 -158h-50l84 158h58zM434 702l-92 -158h-50l84 158h58z" />
    <glyph glyph-name="umacron" unicode="&#x16b;" horiz-adv-x="520" 
d="M395 472l50 4v-476h-40l-10 58q-116 -68 -185 -68q-65 0 -100 40.5t-35 116.5v325l50 4v-329q0 -57 24 -84t61 -27q63 0 185 72v364zM404 620l-4 -44h-285l4 44h285z" />
    <glyph glyph-name="uogonek" unicode="&#x173;" horiz-adv-x="520" 
d="M468 -208q-29 -8 -51 -8q-56 0 -82.5 29t-26.5 72q0 36 23.5 72t69.5 65l-6 36q-116 -68 -185 -68q-65 0 -100 40.5t-35 116.5v325l50 4v-329q0 -57 24 -84t61 -27q63 0 185 72v364l50 4v-476q-44 -24 -65.5 -55t-21.5 -60q0 -23 14.5 -39t44.5 -16q17 0 44 8z" />
    <glyph glyph-name="uring" unicode="&#x16f;" horiz-adv-x="520" 
d="M395 472l50 4v-476h-40l-10 58q-116 -68 -185 -68q-65 0 -100 40.5t-35 116.5v325l50 4v-329q0 -57 24 -84t61 -27q63 0 185 72v364zM211 616q0 -23 13.5 -37.5t34.5 -14.5q23 0 36.5 14.5t13.5 37.5q0 24 -13.5 39t-36.5 15q-21 0 -34.5 -15t-13.5 -39zM165 616
q0 43 26 69.5t68 26.5q43 0 69.5 -26.5t26.5 -69.5q0 -42 -26.5 -68t-69.5 -26q-42 0 -68 26t-26 68z" />
    <glyph glyph-name="utilde" unicode="&#x169;" horiz-adv-x="520" 
d="M395 472l50 4v-476h-40l-10 58q-116 -68 -185 -68q-65 0 -100 40.5t-35 116.5v325l50 4v-329q0 -57 24 -84t61 -27q63 0 185 72v364zM112 579q7 38 32.5 61.5t57.5 23.5q20 0 36 -9t30 -19.5l26.5 -19.5t26.5 -9q30 0 44 47l42 -9q-8 -35 -32.5 -59t-56.5 -24
q-20 0 -36 8.5t-30.5 19l-27.5 19.5t-26 9q-32 0 -45 -47z" />
    <glyph glyph-name="wacute" unicode="&#x1e83;" horiz-adv-x="738" 
d="M69 476l134 -428l133 424l65 4l134 -428l134 428l54 -4l-156 -472h-64l-134 428l-134 -428h-64l-156 472zM460 702l-92 -158h-50l84 158h58z" />
    <glyph glyph-name="wcircumflex" unicode="&#x175;" horiz-adv-x="738" 
d="M69 476l134 -428l133 424l65 4l134 -428l134 428l54 -4l-156 -472h-64l-134 428l-134 -428h-64l-156 472zM505 544h-56l-80 114l-80 -114h-56l114 158h44z" />
    <glyph glyph-name="wdieresis" unicode="&#x1e85;" horiz-adv-x="738" 
d="M69 476l134 -428l133 424l65 4l134 -428l134 428l54 -4l-156 -472h-64l-134 428l-134 -428h-64l-156 472zM276 635q17 0 27.5 -10.5t10.5 -27.5t-10.5 -27.5t-27.5 -10.5t-27.5 10.5t-10.5 27.5t10.5 27.5t27.5 10.5zM462 635q17 0 27.5 -10.5t10.5 -27.5t-10.5 -27.5
t-27.5 -10.5t-27.5 10.5t-10.5 27.5t10.5 27.5t27.5 10.5z" />
    <glyph glyph-name="wgrave" unicode="&#x1e81;" horiz-adv-x="738" 
d="M69 476l134 -428l133 424l65 4l134 -428l134 428l54 -4l-156 -472h-64l-134 428l-134 -428h-64l-156 472zM336 702l84 -158h-50l-92 158h58z" />
    <glyph glyph-name="yacute" unicode="&#xfd;" horiz-adv-x="466" 
d="M233 48l164 428l54 -4l-268 -680l-52 4l82 204h-12l-186 472l54 4zM334 702l-92 -158h-50l84 158h58z" />
    <glyph glyph-name="ycircumflex" unicode="&#x177;" horiz-adv-x="466" 
d="M233 48l164 428l54 -4l-268 -680l-52 4l82 204h-12l-186 472l54 4zM369 544h-56l-80 114l-80 -114h-56l114 158h44z" />
    <glyph glyph-name="ydieresis" unicode="&#xff;" horiz-adv-x="466" 
d="M233 48l164 428l54 -4l-268 -680l-52 4l82 204h-12l-186 472l54 4zM140 635q17 0 27.5 -10.5t10.5 -27.5t-10.5 -27.5t-27.5 -10.5t-27.5 10.5t-10.5 27.5t10.5 27.5t27.5 10.5zM326 635q17 0 27.5 -10.5t10.5 -27.5t-10.5 -27.5t-27.5 -10.5t-27.5 10.5t-10.5 27.5
t10.5 27.5t27.5 10.5z" />
    <glyph glyph-name="ygrave" unicode="&#x1ef3;" horiz-adv-x="466" 
d="M233 48l164 428l54 -4l-268 -680l-52 4l82 204h-12l-186 472l54 4zM190 702l84 -158h-50l-92 158h58z" />
    <glyph glyph-name="zacute" unicode="&#x17a;" horiz-adv-x="432" 
d="M397 46l-4 -46h-354l-4 42l296 386h-277l4 46h334l4 -42l-296 -386h297zM307 702l-92 -158h-50l84 158h58z" />
    <glyph glyph-name="zcaron" unicode="&#x17e;" horiz-adv-x="432" 
d="M397 46l-4 -46h-354l-4 42l296 386h-277l4 46h334l4 -42l-296 -386h297zM83 702h56l80 -114l80 114h56l-114 -158h-44z" />
    <glyph glyph-name="zdotaccent" unicode="&#x17c;" horiz-adv-x="432" 
d="M397 46l-4 -46h-354l-4 42l296 386h-277l4 46h334l4 -42l-296 -386h297zM216 635q17 0 27.5 -10.5t10.5 -27.5t-10.5 -27.5t-27.5 -10.5t-27.5 10.5t-10.5 27.5t10.5 27.5t27.5 10.5z" />
    <glyph glyph-name="aeacute" unicode="&#x1fd;" horiz-adv-x="774" 
d="M549 -10q-126 0 -179 95q-104 -95 -202 -95q-58 0 -90.5 32t-32.5 87q0 76 70 113t223 48v64q0 104 -85 104q-60 0 -182 -43l-7 46q115 43 189 43q100 0 124 -87q49 87 166 87q82 0 128.5 -54.5t47.5 -150.5q0 -28 -5 -61h-326q7 -181 165 -181q63 0 138 28l7 -46
q-77 -29 -149 -29zM543 438q-144 0 -154 -174h280v13q0 76 -33 118.5t-93 42.5zM168 36q93 0 185 92q-14 40 -15 96q-125 -10 -184 -36.5t-59 -75.5q0 -36 19.5 -56t53.5 -20zM478 702l-92 -158h-50l84 158h58z" />
    <glyph glyph-name="iacute_jacute" horiz-adv-x="425" 
d="M125 476v-476h-50v472zM441 702l-92 -158h-50l84 158h58zM216 702l-92 -158h-50l84 158h58zM350 476v-454q0 -74 -30.5 -128.5t-99.5 -109.5l-37 31q54 44 85.5 93t31.5 115v449z" />
    <glyph glyph-name="oslashacute" unicode="&#x1ff;" horiz-adv-x="539" 
d="M471 514l-52 -83q65 -63 65 -194q0 -121 -55.5 -184t-158.5 -63q-65 0 -112 25l-47 -76l-43 21l52 83q-65 63 -65 194q0 119 55 183t160 64q64 0 110 -25l48 76zM105 237q0 -97 42 -150l207 330q-36 21 -84 21q-74 0 -119.5 -48.5t-45.5 -152.5zM434 237q0 95 -43 149
l-207 -330q37 -20 86 -20q81 0 122.5 52.5t41.5 148.5zM360 702l-92 -158h-50l84 158h58z" />
    <glyph glyph-name="g.alt" horiz-adv-x="531" 
d="M406 68q-116 -68 -185 -68q-79 0 -122.5 62t-43.5 175q0 118 52 182.5t147 64.5q94 0 202 -41v-461q0 -84 -56 -141t-136 -57q-79 0 -177 35l7 47q96 -36 170 -36q59 0 100.5 44.5t41.5 107.5v86zM406 412q-69 26 -152 26q-73 0 -111 -53t-38 -149q0 -91 30.5 -140.5
t85.5 -49.5q63 0 185 72v294z" />
    <glyph glyph-name="l.alt" horiz-adv-x="200" 
d="M125 758v-758h-50v754z" />
    <glyph glyph-name="gbreve.alt" horiz-adv-x="531" 
d="M406 68q-116 -68 -185 -68q-79 0 -122.5 62t-43.5 175q0 118 52 182.5t147 64.5q94 0 202 -41v-461q0 -84 -56 -141t-136 -57q-79 0 -177 35l7 47q96 -36 170 -36q59 0 100.5 44.5t41.5 107.5v86zM406 412q-69 26 -152 26q-73 0 -111 -53t-38 -149q0 -91 30.5 -140.5
t85.5 -49.5q63 0 185 72v294zM184 702q2 -55 26 -83.5t66 -28.5q41 0 65 29t25 83l45 -4q0 -73 -36.5 -113.5t-98.5 -40.5t-99.5 39t-37.5 115z" />
    <glyph glyph-name="gcircumflex.alt" horiz-adv-x="531" 
d="M406 68q-116 -68 -185 -68q-79 0 -122.5 62t-43.5 175q0 118 52 182.5t147 64.5q94 0 202 -41v-461q0 -84 -56 -141t-136 -57q-79 0 -177 35l7 47q96 -36 170 -36q59 0 100.5 44.5t41.5 107.5v86zM406 412q-69 26 -152 26q-73 0 -111 -53t-38 -149q0 -91 30.5 -140.5
t85.5 -49.5q63 0 185 72v294zM410 544h-56l-80 114l-80 -114h-56l114 158h44z" />
    <glyph glyph-name="gcommaaccent.alt" horiz-adv-x="531" 
d="M406 68q-116 -68 -185 -68q-79 0 -122.5 62t-43.5 175q0 118 52 182.5t147 64.5q94 0 202 -41v-461q0 -84 -56 -141t-136 -57q-79 0 -177 35l7 47q96 -36 170 -36q59 0 100.5 44.5t41.5 107.5v86zM406 412q-69 26 -152 26q-73 0 -111 -53t-38 -149q0 -91 30.5 -140.5
t85.5 -49.5q63 0 185 72v294zM240 561q-19 29 -19 59q0 41 33 80l44 -3q-29 -34 -29 -64q0 -31 24 -68z" />
    <glyph glyph-name="gdotaccent.alt" horiz-adv-x="531" 
d="M406 68q-116 -68 -185 -68q-79 0 -122.5 62t-43.5 175q0 118 52 182.5t147 64.5q94 0 202 -41v-461q0 -84 -56 -141t-136 -57q-79 0 -177 35l7 47q96 -36 170 -36q59 0 100.5 44.5t41.5 107.5v86zM406 412q-69 26 -152 26q-73 0 -111 -53t-38 -149q0 -91 30.5 -140.5
t85.5 -49.5q63 0 185 72v294zM274 635q17 0 27.5 -10.5t10.5 -27.5t-10.5 -27.5t-27.5 -10.5t-27.5 10.5t-10.5 27.5t10.5 27.5t27.5 10.5z" />
    <glyph glyph-name="lacute.alt" horiz-adv-x="200" 
d="M125 758v-758h-50v754zM262 910l-129 -128h-57l114 128h72z" />
    <glyph glyph-name="lcaron.alt" horiz-adv-x="245" 
d="M125 758v-758h-50v754zM228 763q17 -37 17 -75q0 -55 -34 -110h-46q32 48 32 95q0 42 -22 85z" />
    <glyph glyph-name="lcommaaccent.alt" horiz-adv-x="200" 
d="M125 758v-758h-50v754zM119 -77q19 -29 19 -59q0 -41 -33 -80l-44 3q29 34 29 64q0 31 -24 68z" />
    <glyph glyph-name="ldot.alt" horiz-adv-x="255" 
d="M125 758v-758h-50v754zM220 388q17 0 27.5 -10.5t10.5 -27.5t-10.5 -27.5t-27.5 -10.5t-27.5 10.5t-10.5 27.5t10.5 27.5t27.5 10.5z" />
    <glyph glyph-name="lslash.alt" horiz-adv-x="240" 
d="M145 758v-404l86 57l4 -50l-90 -60v-301h-50v268l-86 -56l-4 51l90 59v432z" />
    <glyph glyph-name="a.small" horiz-adv-x="512" 
d="M256 456l-107 -280h214zM131 130l-49 -130h-57l198 502l64 4l200 -506h-57l-50 130h-249z" />
    <glyph glyph-name="b.small" horiz-adv-x="492" 
d="M282 504q66 0 103.5 -34t37.5 -87q0 -69 -63 -124q43 -24 65 -58.5t22 -70.5q0 -63 -50 -101.5t-155 -38.5q-66 0 -167 18v496h207zM125 226v-180q58 -10 117 -10q79 0 117 26t38 68q0 27 -19.5 53t-53.5 43h-199zM307 272q66 43 66 111q0 32 -24.5 53.5t-66.5 21.5h-157
v-186h182z" />
    <glyph glyph-name="c.small" horiz-adv-x="507" 
d="M312 468q-94 0 -145.5 -56t-51.5 -160t51.5 -160t145.5 -56q72 0 143 26l7 -46q-72 -26 -150 -26q-120 0 -183.5 69t-63.5 193q0 125 64 193.5t183 68.5q78 0 150 -26l-7 -46q-71 26 -143 26z" />
    <glyph glyph-name="d.small" horiz-adv-x="579" 
d="M263 504q251 0 251 -251q0 -127 -69 -195t-195 -68q-97 0 -175 17v497h188zM125 458v-413q70 -10 125 -10q101 0 157.5 55.5t56.5 161.5q0 206 -200 206h-139z" />
    <glyph glyph-name="e.small" horiz-adv-x="459" 
d="M75 504h339l-4 -46h-285v-186h249l-4 -46h-245v-180h289l-4 -46h-335v504z" />
    <glyph glyph-name="f.small" horiz-adv-x="429" 
d="M125 0h-50v504h339l-4 -46h-285v-196h249l-4 -46h-245v-216z" />
    <glyph glyph-name="g.small" horiz-adv-x="567" 
d="M320 468q-98 0 -151.5 -55t-53.5 -161q0 -108 52.5 -162t148.5 -54q57 0 126 19v142h-154l4 46h200v-221q-93 -32 -176 -32q-122 0 -186.5 67t-64.5 195q0 127 65.5 194.5t189.5 67.5q78 0 150 -26l-7 -46q-71 26 -143 26z" />
    <glyph glyph-name="h.small" 
d="M125 504v-232h302v232h50v-504h-50v226h-302v-226h-50v504h50z" />
    <glyph glyph-name="i.small" horiz-adv-x="200" 
d="M125 504v-504h-50v504h50z" />
    <glyph glyph-name="j.small" horiz-adv-x="225" 
d="M150 504v-422q0 -74 -30.5 -128.5t-99.5 -109.5l-37 31q54 44 85.5 93t31.5 115v421h50z" />
    <glyph glyph-name="k.small" horiz-adv-x="482" 
d="M125 237v-237h-50v504h50v-237l252 239l65 -4l-262 -248l267 -252l-70 -4z" />
    <glyph glyph-name="l.small" horiz-adv-x="434" 
d="M125 504v-458h274l-4 -46h-320v504h50z" />
    <glyph glyph-name="m.small" horiz-adv-x="697" 
d="M125 417v-417h-50v502l65 4l209 -452l209 452l64 -4v-502h-50v417l-193 -415l-59 -4z" />
    <glyph glyph-name="n.small" 
d="M125 0h-50v502l50 4l302 -425v423h50v-502l-50 -4l-302 424v-422z" />
    <glyph glyph-name="o.small" horiz-adv-x="626" 
d="M115 252q0 -106 51 -161t148 -55q95 0 146 54.5t51 161.5q0 106 -52 161t-145 55q-90 0 -144.5 -52t-54.5 -164zM65 252q0 127 64 194.5t185 67.5t184 -68t63 -194t-63 -194t-184 -68t-185 67t-64 195z" />
    <glyph glyph-name="p.small" horiz-adv-x="474" 
d="M125 0h-50v504h138q226 0 226 -162q0 -81 -59.5 -126t-162.5 -45q-32 0 -92 6v-177zM125 223q51 -6 89 -6q84 0 129.5 34t45.5 92q0 115 -175 115h-89v-235z" />
    <glyph glyph-name="q.small" horiz-adv-x="626" 
d="M65 252q0 127 64 194.5t185 67.5t184 -68t63 -194q0 -206 -159 -251q32 -91 84 -91q29 0 69 14l8 -46q-40 -14 -77 -14q-45 0 -77.5 29.5t-55.5 98.5l-39 -2q-121 0 -185 67t-64 195zM115 252q0 -106 51 -161t148 -55q95 0 146 54.5t51 161.5q0 106 -52 161t-145 55
q-90 0 -144.5 -52t-54.5 -164z" />
    <glyph glyph-name="r.small" horiz-adv-x="500" 
d="M125 0h-50v504h135q100 0 156.5 -37.5t56.5 -116.5q0 -52 -29.5 -88t-75.5 -55l142 -206l-56 -3l-132 194q-32 -6 -65 -6q-22 0 -82 6v-192zM125 238q48 -6 85 -6q72 0 117.5 31.5t45.5 86.5q0 108 -163 108h-85v-220z" />
    <glyph glyph-name="s.small" horiz-adv-x="455" 
d="M76 63q88 -27 141 -27q62 0 97.5 23.5t35.5 62.5q0 33 -31 57.5t-116 58.5q-76 29 -112 64.5t-36 82.5q0 60 49 94.5t132 34.5q59 0 148 -32l-10 -45q-66 31 -138 31q-59 0 -95 -22t-36 -61q0 -33 34 -59t114 -57q72 -28 109.5 -64t37.5 -83q0 -62 -49.5 -97t-133.5 -35
q-74 0 -152 28z" />
    <glyph glyph-name="t.small" horiz-adv-x="440" 
d="M5 458l4 46h426l-4 -46h-186v-458h-50v458h-190z" />
    <glyph glyph-name="u.small" 
d="M125 157q0 -121 151 -121t151 121v347h50v-347q0 -80 -54 -123.5t-147 -43.5t-147 43.5t-54 123.5v347h50v-347z" />
    <glyph glyph-name="v.small" horiz-adv-x="510" 
d="M485 502l-198 -502h-64l-198 502l55 4l175 -458l175 458z" />
    <glyph glyph-name="w.small" horiz-adv-x="775" 
d="M750 503l-163 -503h-64l-135 442l-133 -442h-64l-166 503l54 4l144 -459l137 454l55 4l140 -458l141 459z" />
    <glyph glyph-name="x.small" horiz-adv-x="534" 
d="M236 251l-191 251l60 4l163 -219l164 219l57 -4l-191 -249l191 -251l-60 -4l-163 219l-164 -219l-57 4z" />
    <glyph glyph-name="y.small" horiz-adv-x="474" 
d="M212 208l-197 294l60 4l162 -253l165 253l57 -4l-197 -294v-208h-50v208z" />
    <glyph glyph-name="z.small" horiz-adv-x="483" 
d="M438 46l-4 -46h-384l-4 42l326 416h-327l4 46h384l4 -42l-326 -416h327z" />
    <glyph glyph-name="ae.small" horiz-adv-x="757" 
d="M-15 0l358 504h369l-4 -46h-285v-186h249l-4 -46h-245v-180h289l-4 -46h-335v130h-235l-91 -130h-62zM373 176v290l-203 -290h203z" />
    <glyph glyph-name="eng.small" 
d="M125 422v-422h-50v502l50 4l302 -425v423h50v-482q0 -74 -30.5 -128.5t-99.5 -109.5l-37 31q49 41 80 84.5t36 100.5z" />
    <glyph glyph-name="eth.small" horiz-adv-x="579" 
d="M263 504q251 0 251 -251q0 -127 -69 -195t-195 -68q-97 0 -175 17v223h-70l4 44h66v230h188zM125 458v-184h129l-4 -44h-125v-185q70 -10 125 -10q101 0 157.5 55.5t56.5 161.5q0 206 -200 206h-139z" />
    <glyph glyph-name="ij.small" horiz-adv-x="415" 
d="M125 504v-504h-50v504h50zM340 504v-422q0 -74 -30.5 -128.5t-99.5 -109.5l-37 31q54 44 85.5 93t31.5 115v421h50z" />
    <glyph glyph-name="oe.small" horiz-adv-x="895" 
d="M511 73q-62 -83 -197 -83q-121 0 -185 67t-64 195q0 127 64 194.5t185 67.5q134 0 197 -84v74h339l-4 -46h-285v-186h249l-4 -46h-245v-180h289l-4 -46h-335v73zM115 252q0 -106 51 -161t148 -55q86 0 140 49t57 156v22q-3 106 -57 155.5t-140 49.5q-90 0 -144.5 -52
t-54.5 -164z" />
    <glyph glyph-name="oslash.small" horiz-adv-x="626" 
d="M546 542l-60 -85q75 -67 75 -205q0 -126 -63 -194t-184 -68q-77 0 -135 29l-56 -80l-43 23l59 85q-74 68 -74 205q0 127 64 194.5t185 67.5q76 0 132 -30l57 81zM115 252q0 -108 54 -164l249 356q-44 24 -104 24q-90 0 -144.5 -52t-54.5 -164zM511 252q0 109 -54 163
l-250 -356q43 -23 107 -23q95 0 146 54.5t51 161.5z" />
    <glyph glyph-name="thorn.small" horiz-adv-x="474" 
d="M125 132q51 -6 89 -6q87 0 131 34t44 92t-45.5 91.5t-129.5 33.5q-38 0 -89 -6v-239zM75 504h50v-87q60 6 92 6q103 0 162.5 -45t59.5 -126q0 -82 -59.5 -127t-162.5 -45q-32 0 -92 6v-86h-50v504z" />
    <glyph glyph-name="aacute.small" horiz-adv-x="512" 
d="M256 456l-107 -280h214zM131 130l-49 -130h-57l198 502l64 4l200 -506h-57l-50 130h-249zM358 702l-92 -138h-51l84 138h59z" />
    <glyph glyph-name="abreve.small" horiz-adv-x="512" 
d="M256 456l-107 -280h214zM131 130l-49 -130h-57l198 502l64 4l200 -506h-57l-50 130h-249zM165 702q2 -42 26.5 -67t65.5 -25q32 0 60 21.5t30 70.5l45 -4q0 -60 -37 -97t-98 -37t-99 36t-38 98z" />
    <glyph glyph-name="acircumflex.small" horiz-adv-x="512" 
d="M256 456l-107 -280h214zM131 130l-49 -130h-57l198 502l64 4l200 -506h-57l-50 130h-249zM392 564h-57l-79 97l-79 -97h-57l114 138h44z" />
    <glyph glyph-name="adieresis.small" horiz-adv-x="512" 
d="M256 456l-107 -280h214zM131 130l-49 -130h-57l198 502l64 4l200 -506h-57l-50 130h-249zM163 655q17 0 27.5 -10.5t10.5 -27.5t-10.5 -27.5t-27.5 -10.5t-27.5 10.5t-10.5 27.5t10.5 27.5t27.5 10.5zM349 655q17 0 27.5 -10.5t10.5 -27.5t-10.5 -27.5t-27.5 -10.5
t-27.5 10.5t-10.5 27.5t10.5 27.5t27.5 10.5z" />
    <glyph glyph-name="agrave.small" horiz-adv-x="512" 
d="M256 456l-107 -280h214zM131 130l-49 -130h-57l198 502l64 4l200 -506h-57l-50 130h-249zM223 702l84 -138h-51l-92 138h59z" />
    <glyph glyph-name="amacron.small" horiz-adv-x="512" 
d="M256 456l-107 -280h214zM131 130l-49 -130h-57l198 502l64 4l200 -506h-57l-50 130h-249zM401 640l-4 -44h-285l4 44h285z" />
    <glyph glyph-name="aogonek.small" horiz-adv-x="512" 
d="M131 130l-49 -130h-57l198 502l64 4l200 -506q-44 -24 -65.5 -55t-21.5 -60q0 -23 14.5 -39t44.5 -16q17 0 44 8l7 -46q-29 -8 -51 -8q-56 0 -82.5 29t-26.5 72q0 69 76 125l-46 120h-249zM256 456l-107 -280h214z" />
    <glyph glyph-name="aring.small" horiz-adv-x="512" 
d="M256 456l-107 -280h214zM131 130l-49 -130h-57l198 502l64 4l200 -506h-57l-50 130h-249zM207 616q0 -23 13.5 -37.5t34.5 -14.5q23 0 36.5 14.5t13.5 37.5q0 24 -13.5 39t-36.5 15q-21 0 -34.5 -15t-13.5 -39zM161 616q0 43 26 69.5t68 26.5q43 0 69.5 -26.5t26.5 -69.5
q0 -42 -26.5 -68t-69.5 -26q-42 0 -68 26t-26 68z" />
    <glyph glyph-name="aringacute.small" horiz-adv-x="512" 
d="M357 841l-102 -98h-57l87 98h72zM256 456l-107 -280h214zM131 130l-49 -130h-57l198 502l64 4l200 -506h-57l-50 130h-249zM207 616q0 -23 13.5 -37.5t34.5 -14.5q23 0 36.5 14.5t13.5 37.5q0 24 -13.5 39t-36.5 15q-21 0 -34.5 -15t-13.5 -39zM161 616q0 43 26 69.5
t68 26.5q43 0 69.5 -26.5t26.5 -69.5q0 -42 -26.5 -68t-69.5 -26q-42 0 -68 26t-26 68z" />
    <glyph glyph-name="atilde.small" horiz-adv-x="512" 
d="M256 456l-107 -280h214zM131 130l-49 -130h-57l198 502l64 4l200 -506h-57l-50 130h-249zM109 599q7 38 32.5 61.5t57.5 23.5q20 0 36 -9t30 -19.5l26.5 -19.5t26.5 -9q30 0 44 47l42 -9q-8 -35 -32.5 -59t-56.5 -24q-20 0 -36 8.5t-30.5 19l-27.5 19.5t-26 9
q-32 0 -45 -47z" />
    <glyph glyph-name="ccedilla.small" horiz-adv-x="507" 
d="M312 468q-94 0 -145.5 -56t-51.5 -160t51.5 -160t145.5 -56q72 0 143 26l7 -46q-55 -21 -121 -25l-27 -45l9 1h8q37 0 58 -21.5t21 -58.5t-29.5 -60t-77.5 -23q-34 0 -67 11l8 43q28 -10 56 -10q59 0 59 39q0 38 -41 38l-32 -5l-31 31l32 60q-107 7 -164.5 74t-57.5 187
q0 125 64 193.5t183 68.5q78 0 150 -26l-7 -46q-71 26 -143 26z" />
    <glyph glyph-name="cacute.small" horiz-adv-x="507" 
d="M312 468q-94 0 -145.5 -56t-51.5 -160t51.5 -160t145.5 -56q72 0 143 26l7 -46q-72 -26 -150 -26q-120 0 -183.5 69t-63.5 193q0 125 64 193.5t183 68.5q78 0 150 -26l-7 -46q-71 26 -143 26zM393 702l-92 -138h-51l84 138h59z" />
    <glyph glyph-name="ccircumflex.small" horiz-adv-x="507" 
d="M312 468q-94 0 -145.5 -56t-51.5 -160t51.5 -160t145.5 -56q72 0 143 26l7 -46q-72 -26 -150 -26q-120 0 -183.5 69t-63.5 193q0 125 64 193.5t183 68.5q78 0 150 -26l-7 -46q-71 26 -143 26zM437 564h-57l-79 97l-79 -97h-57l114 138h44z" />
    <glyph glyph-name="ccaron.small" horiz-adv-x="507" 
d="M312 468q-94 0 -145.5 -56t-51.5 -160t51.5 -160t145.5 -56q72 0 143 26l7 -46q-72 -26 -150 -26q-120 0 -183.5 69t-63.5 193q0 125 64 193.5t183 68.5q78 0 150 -26l-7 -46q-71 26 -143 26zM164 702h57l79 -97l79 97h57l-114 -138h-44z" />
    <glyph glyph-name="cdotaccent.small" horiz-adv-x="507" 
d="M312 468q-94 0 -145.5 -56t-51.5 -160t51.5 -160t145.5 -56q72 0 143 26l7 -46q-72 -26 -150 -26q-120 0 -183.5 69t-63.5 193q0 125 64 193.5t183 68.5q78 0 150 -26l-7 -46q-71 26 -143 26zM301 655q17 0 27.5 -10.5t10.5 -27.5t-10.5 -27.5t-27.5 -10.5t-27.5 10.5
t-10.5 27.5t10.5 27.5t27.5 10.5z" />
    <glyph glyph-name="dcroat.small" horiz-adv-x="579" 
d="M263 504q251 0 251 -251q0 -127 -69 -195t-195 -68q-97 0 -175 17v223h-70l4 44h66v230h188zM125 458v-184h129l-4 -44h-125v-185q70 -10 125 -10q101 0 157.5 55.5t56.5 161.5q0 206 -200 206h-139z" />
    <glyph glyph-name="dcaron.small" horiz-adv-x="579" 
d="M263 504q251 0 251 -251q0 -127 -69 -195t-195 -68q-97 0 -175 17v497h188zM125 458v-413q70 -10 125 -10q101 0 157.5 55.5t56.5 161.5q0 206 -200 206h-139zM114 702h57l79 -97l79 97h57l-114 -138h-44z" />
    <glyph glyph-name="eacute.small" horiz-adv-x="459" 
d="M75 504h339l-4 -46h-285v-186h249l-4 -46h-245v-180h289l-4 -46h-335v504zM326 702l-92 -138h-51l84 138h59z" />
    <glyph glyph-name="ebreve.small" horiz-adv-x="459" 
d="M75 504h339l-4 -46h-285v-186h249l-4 -46h-245v-180h289l-4 -46h-335v504zM153 702q2 -42 26.5 -67t65.5 -25q32 0 60 21.5t30 70.5l45 -4q0 -60 -37 -97t-98 -37t-99 36t-38 98z" />
    <glyph glyph-name="ecaron.small" horiz-adv-x="459" 
d="M75 504h339l-4 -46h-285v-186h249l-4 -46h-245v-180h289l-4 -46h-335v504zM108 702h57l79 -97l79 97h57l-114 -138h-44z" />
    <glyph glyph-name="ecircumflex.small" horiz-adv-x="459" 
d="M75 504h339l-4 -46h-285v-186h249l-4 -46h-245v-180h289l-4 -46h-335v504zM380 564h-57l-79 97l-79 -97h-57l114 138h44z" />
    <glyph glyph-name="edieresis.small" horiz-adv-x="459" 
d="M75 504h339l-4 -46h-285v-186h249l-4 -46h-245v-180h289l-4 -46h-335v504zM151 655q17 0 27.5 -10.5t10.5 -27.5t-10.5 -27.5t-27.5 -10.5t-27.5 10.5t-10.5 27.5t10.5 27.5t27.5 10.5zM337 655q17 0 27.5 -10.5t10.5 -27.5t-10.5 -27.5t-27.5 -10.5t-27.5 10.5
t-10.5 27.5t10.5 27.5t27.5 10.5z" />
    <glyph glyph-name="edotaccent.small" horiz-adv-x="459" 
d="M75 504h339l-4 -46h-285v-186h249l-4 -46h-245v-180h289l-4 -46h-335v504zM244 655q17 0 27.5 -10.5t10.5 -27.5t-10.5 -27.5t-27.5 -10.5t-27.5 10.5t-10.5 27.5t10.5 27.5t27.5 10.5z" />
    <glyph glyph-name="egrave.small" horiz-adv-x="459" 
d="M75 504h339l-4 -46h-285v-186h249l-4 -46h-245v-180h289l-4 -46h-335v504zM212 702l84 -138h-51l-92 138h59z" />
    <glyph glyph-name="emacron.small" horiz-adv-x="459" 
d="M75 504h339l-4 -46h-285v-186h249l-4 -46h-245v-180h289l-4 -46h-335v504zM389 640l-4 -44h-285l4 44h285z" />
    <glyph glyph-name="eogonek.small" horiz-adv-x="459" 
d="M75 504h339l-4 -46h-285v-186h249l-4 -46h-245v-180h289l-4 -46q-44 -24 -65.5 -55t-21.5 -60q0 -23 14.5 -39t44.5 -16q17 0 44 8l7 -46q-29 -8 -51 -8q-56 0 -82.5 29t-26.5 72q0 61 63 115h-261v504z" />
    <glyph glyph-name="gbreve.small" horiz-adv-x="567" 
d="M320 468q-98 0 -151.5 -55t-53.5 -161q0 -108 52.5 -162t148.5 -54q57 0 126 19v142h-154l4 46h200v-221q-93 -32 -176 -32q-122 0 -186.5 67t-64.5 195q0 127 65.5 194.5t189.5 67.5q78 0 150 -26l-7 -46q-71 26 -143 26zM220 702q2 -42 26.5 -67t65.5 -25q32 0 60 21.5
t30 70.5l45 -4q0 -60 -37 -97t-98 -37t-99 36t-38 98z" />
    <glyph glyph-name="gcircumflex.small" horiz-adv-x="567" 
d="M320 468q-98 0 -151.5 -55t-53.5 -161q0 -108 52.5 -162t148.5 -54q57 0 126 19v142h-154l4 46h200v-221q-93 -32 -176 -32q-122 0 -186.5 67t-64.5 195q0 127 65.5 194.5t189.5 67.5q78 0 150 -26l-7 -46q-71 26 -143 26zM447 564h-57l-79 97l-79 -97h-57l114 138h44z
" />
    <glyph glyph-name="gcommaaccent.small" horiz-adv-x="567" 
d="M320 468q-98 0 -151.5 -55t-53.5 -161q0 -108 52.5 -162t148.5 -54q57 0 126 19v142h-154l4 46h200v-221q-93 -32 -176 -32q-122 0 -186.5 67t-64.5 195q0 127 65.5 194.5t189.5 67.5q78 0 150 -26l-7 -46q-71 26 -143 26zM325 -77q19 -29 19 -59q0 -41 -33 -80l-44 3
q29 34 29 64q0 31 -24 68z" />
    <glyph glyph-name="gdotaccent.small" horiz-adv-x="567" 
d="M320 468q-98 0 -151.5 -55t-53.5 -161q0 -108 52.5 -162t148.5 -54q57 0 126 19v142h-154l4 46h200v-221q-93 -32 -176 -32q-122 0 -186.5 67t-64.5 195q0 127 65.5 194.5t189.5 67.5q78 0 150 -26l-7 -46q-71 26 -143 26zM311 655q17 0 27.5 -10.5t10.5 -27.5
t-10.5 -27.5t-27.5 -10.5t-27.5 10.5t-10.5 27.5t10.5 27.5t27.5 10.5z" />
    <glyph glyph-name="hcircumflex.small" 
d="M125 504v-232h302v232h50v-504h-50v226h-302v-226h-50v504h50zM412 564h-57l-79 97l-79 -97h-57l114 138h44z" />
    <glyph glyph-name="hbar.small" 
d="M125 504v-102h302v102h50v-102h70l-4 -44h-66v-358h-50v226h-302v-226h-50v358h-70l4 44h66v102h50zM427 272v86h-302v-86h302z" />
    <glyph glyph-name="iacute.small" horiz-adv-x="200" 
d="M125 504v-504h-50v504h50zM217 702l-92 -138h-51l84 138h59z" />
    <glyph glyph-name="ibreve.small" horiz-adv-x="200" 
d="M125 504v-504h-50v504h50zM9 702q2 -42 26.5 -67t65.5 -25q32 0 60 21.5t30 70.5l45 -4q0 -60 -37 -97t-98 -37t-99 36t-38 98z" />
    <glyph glyph-name="icircumflex.small" horiz-adv-x="200" 
d="M125 504v-504h-50v504h50zM236 564h-57l-79 97l-79 -97h-57l114 138h44z" />
    <glyph glyph-name="idieresis.small" horiz-adv-x="200" 
d="M125 504v-504h-50v504h50zM7 655q17 0 27.5 -10.5t10.5 -27.5t-10.5 -27.5t-27.5 -10.5t-27.5 10.5t-10.5 27.5t10.5 27.5t27.5 10.5zM193 655q17 0 27.5 -10.5t10.5 -27.5t-10.5 -27.5t-27.5 -10.5t-27.5 10.5t-10.5 27.5t10.5 27.5t27.5 10.5z" />
    <glyph glyph-name="idotaccent.small" horiz-adv-x="200" 
d="M125 504v-504h-50v504h50zM100 655q17 0 27.5 -10.5t10.5 -27.5t-10.5 -27.5t-27.5 -10.5t-27.5 10.5t-10.5 27.5t10.5 27.5t27.5 10.5z" />
    <glyph glyph-name="igrave.small" horiz-adv-x="200" 
d="M125 504v-504h-50v504h50zM43 702l84 -138h-51l-92 138h59z" />
    <glyph glyph-name="imacron.small" horiz-adv-x="200" 
d="M125 504v-504h-50v504h50zM245 640l-4 -44h-285l4 44h285z" />
    <glyph glyph-name="iogonek.small" horiz-adv-x="200" 
d="M148 -208q-29 -8 -51 -8q-56 0 -82.5 29t-26.5 72q0 74 87 133v486h50v-504q-44 -24 -65.5 -55t-21.5 -60q0 -23 14.5 -39t44.5 -16q17 0 44 8z" />
    <glyph glyph-name="itilde.small" horiz-adv-x="200" 
d="M125 504v-504h-50v504h50zM-47 599q7 38 32.5 61.5t57.5 23.5q20 0 36 -9t30 -19.5l26.5 -19.5t26.5 -9q30 0 44 47l42 -9q-8 -35 -32.5 -59t-56.5 -24q-20 0 -36 8.5t-30.5 19l-27.5 19.5t-26 9q-32 0 -45 -47z" />
    <glyph glyph-name="jcircumflex.small" horiz-adv-x="225" 
d="M150 504v-422q0 -74 -30.5 -128.5t-99.5 -109.5l-37 31q54 44 85.5 93t31.5 115v421h50zM261 564h-57l-79 97l-79 -97h-57l114 138h44z" />
    <glyph glyph-name="kcommaaccent.small" horiz-adv-x="482" 
d="M125 237v-237h-50v504h50v-237l252 239l65 -4l-262 -248l267 -252l-70 -4zM251 -77q19 -29 19 -59q0 -41 -33 -80l-44 3q29 34 29 64q0 31 -24 68z" />
    <glyph glyph-name="lacute.small" horiz-adv-x="434" 
d="M125 504v-458h274l-4 -46h-320v504h50zM217 700l-92 -138h-51l84 138h59z" />
    <glyph glyph-name="lcaron.small" horiz-adv-x="434" 
d="M125 504v-458h274l-4 -46h-320v504h50zM248 549q17 -37 17 -75q0 -55 -34 -110h-46q32 48 32 95q0 42 -22 85z" />
    <glyph glyph-name="lcommaaccent.small" horiz-adv-x="434" 
d="M125 504v-458h274l-4 -46h-320v504h50zM251 -77q19 -29 19 -59q0 -41 -33 -80l-44 3q29 34 29 64q0 31 -24 68z" />
    <glyph glyph-name="ldot.small" horiz-adv-x="434" 
d="M125 504v-458h274l-4 -46h-320v504h50zM257 290q17 0 27.5 -10.5t10.5 -27.5t-10.5 -27.5t-27.5 -10.5t-27.5 10.5t-10.5 27.5t10.5 27.5t27.5 10.5z" />
    <glyph glyph-name="lslash.small" horiz-adv-x="434" 
d="M125 504v-242l181 89l4 -50l-185 -92v-163h274l-4 -46h-320v184l-66 -32l-4 51l70 34v267h50z" />
    <glyph glyph-name="nacute.small" 
d="M125 0h-50v502l50 4l302 -425v423h50v-502l-50 -4l-302 424v-422zM368 702l-92 -138h-51l84 138h59z" />
    <glyph glyph-name="napostrophe.small" 
d="M125 0h-50v502l50 4l302 -425v423h50v-502l-50 -4l-302 424v-422zM133 706q19 -29 19 -59q0 -41 -33 -80l-44 3q29 34 29 64q0 31 -24 68z" />
    <glyph glyph-name="ncaron.small" 
d="M125 0h-50v502l50 4l302 -425v423h50v-502l-50 -4l-302 424v-422zM140 702h57l79 -97l79 97h57l-114 -138h-44z" />
    <glyph glyph-name="ncommaaccent.small" 
d="M125 0h-50v502l50 4l302 -425v423h50v-502l-50 -4l-302 424v-422zM290 -77q19 -29 19 -59q0 -41 -33 -80l-44 3q29 34 29 64q0 31 -24 68z" />
    <glyph glyph-name="ntilde.small" 
d="M125 0h-50v502l50 4l302 -425v423h50v-502l-50 -4l-302 424v-422zM129 579q7 38 32.5 61.5t57.5 23.5q20 0 36 -9t30 -19.5l26.5 -19.5t26.5 -9q30 0 44 47l42 -9q-8 -35 -32.5 -59t-56.5 -24q-20 0 -36 8.5t-30.5 19l-27.5 19.5t-26 9q-32 0 -45 -47z" />
    <glyph glyph-name="oacute.small" horiz-adv-x="626" 
d="M115 252q0 -106 51 -161t148 -55q95 0 146 54.5t51 161.5q0 106 -52 161t-145 55q-90 0 -144.5 -52t-54.5 -164zM65 252q0 127 64 194.5t185 67.5t184 -68t63 -194t-63 -194t-184 -68t-185 67t-64 195zM405 702l-92 -138h-51l84 138h59z" />
    <glyph glyph-name="obreve.small" horiz-adv-x="626" 
d="M115 252q0 -106 51 -161t148 -55q95 0 146 54.5t51 161.5q0 106 -52 161t-145 55q-90 0 -144.5 -52t-54.5 -164zM65 252q0 127 64 194.5t185 67.5t184 -68t63 -194t-63 -194t-184 -68t-185 67t-64 195zM222 702q2 -42 26.5 -67t65.5 -25q32 0 60 21.5t30 70.5l45 -4
q0 -60 -37 -97t-98 -37t-99 36t-38 98z" />
    <glyph glyph-name="ocircumflex.small" horiz-adv-x="626" 
d="M115 252q0 -106 51 -161t148 -55q95 0 146 54.5t51 161.5q0 106 -52 161t-145 55q-90 0 -144.5 -52t-54.5 -164zM65 252q0 127 64 194.5t185 67.5t184 -68t63 -194t-63 -194t-184 -68t-185 67t-64 195zM449 564h-57l-79 97l-79 -97h-57l114 138h44z" />
    <glyph glyph-name="odieresis.small" horiz-adv-x="626" 
d="M115 252q0 -106 51 -161t148 -55q95 0 146 54.5t51 161.5q0 106 -52 161t-145 55q-90 0 -144.5 -52t-54.5 -164zM65 252q0 127 64 194.5t185 67.5t184 -68t63 -194t-63 -194t-184 -68t-185 67t-64 195zM220 655q17 0 27.5 -10.5t10.5 -27.5t-10.5 -27.5t-27.5 -10.5
t-27.5 10.5t-10.5 27.5t10.5 27.5t27.5 10.5zM406 655q17 0 27.5 -10.5t10.5 -27.5t-10.5 -27.5t-27.5 -10.5t-27.5 10.5t-10.5 27.5t10.5 27.5t27.5 10.5z" />
    <glyph glyph-name="ograve.small" horiz-adv-x="626" 
d="M115 252q0 -106 51 -161t148 -55q95 0 146 54.5t51 161.5q0 106 -52 161t-145 55q-90 0 -144.5 -52t-54.5 -164zM65 252q0 127 64 194.5t185 67.5t184 -68t63 -194t-63 -194t-184 -68t-185 67t-64 195zM281 702l84 -138h-51l-92 138h59z" />
    <glyph glyph-name="ohungarumlaut.small" horiz-adv-x="626" 
d="M115 252q0 -106 51 -161t148 -55q95 0 146 54.5t51 161.5q0 106 -52 161t-145 55q-90 0 -144.5 -52t-54.5 -164zM65 252q0 127 64 194.5t185 67.5t184 -68t63 -194t-63 -194t-184 -68t-185 67t-64 195zM326 702l-92 -138h-51l84 138h59zM484 702l-92 -138h-51l84 138h59z
" />
    <glyph glyph-name="omacron.small" horiz-adv-x="626" 
d="M115 252q0 -106 51 -161t148 -55q95 0 146 54.5t51 161.5q0 106 -52 161t-145 55q-90 0 -144.5 -52t-54.5 -164zM65 252q0 127 64 194.5t185 67.5t184 -68t63 -194t-63 -194t-184 -68t-185 67t-64 195zM458 640l-4 -44h-285l4 44h285z" />
    <glyph glyph-name="otilde.small" horiz-adv-x="626" 
d="M115 252q0 -106 51 -161t148 -55q95 0 146 54.5t51 161.5q0 106 -52 161t-145 55q-90 0 -144.5 -52t-54.5 -164zM65 252q0 127 64 194.5t185 67.5t184 -68t63 -194t-63 -194t-184 -68t-185 67t-64 195zM166 599q7 38 32.5 61.5t57.5 23.5q20 0 36 -9t30 -19.5l26.5 -19.5
t26.5 -9q30 0 44 47l42 -9q-8 -35 -32.5 -59t-56.5 -24q-20 0 -36 8.5t-30.5 19l-27.5 19.5t-26 9q-32 0 -45 -47z" />
    <glyph glyph-name="racute.small" horiz-adv-x="500" 
d="M125 0h-50v504h135q100 0 156.5 -37.5t56.5 -116.5q0 -52 -29.5 -88t-75.5 -55l142 -206l-56 -3l-132 194q-32 -6 -65 -6q-22 0 -82 6v-192zM125 238q48 -6 85 -6q72 0 117.5 31.5t45.5 86.5q0 108 -163 108h-85v-220zM299 702l-92 -138h-51l84 138h59z" />
    <glyph glyph-name="rcaron.small" horiz-adv-x="500" 
d="M125 0h-50v504h135q100 0 156.5 -37.5t56.5 -116.5q0 -52 -29.5 -88t-75.5 -55l142 -206l-56 -3l-132 194q-32 -6 -65 -6q-22 0 -82 6v-192zM125 238q48 -6 85 -6q72 0 117.5 31.5t45.5 86.5q0 108 -163 108h-85v-220zM81 702h57l79 -97l79 97h57l-114 -138h-44z" />
    <glyph glyph-name="rcommaaccent.small" horiz-adv-x="500" 
d="M125 0h-50v504h135q100 0 156.5 -37.5t56.5 -116.5q0 -52 -29.5 -88t-75.5 -55l142 -206l-56 -3l-132 194q-32 -6 -65 -6q-22 0 -82 6v-192zM125 238q48 -6 85 -6q72 0 117.5 31.5t45.5 86.5q0 108 -163 108h-85v-220zM251 -77q19 -29 19 -59q0 -41 -33 -80l-44 3
q29 34 29 64q0 31 -24 68z" />
    <glyph glyph-name="sacute.small" horiz-adv-x="455" 
d="M76 63q88 -27 141 -27q62 0 97.5 23.5t35.5 62.5q0 33 -31 57.5t-116 58.5q-76 29 -112 64.5t-36 82.5q0 60 49 94.5t132 34.5q59 0 148 -32l-10 -45q-66 31 -138 31q-59 0 -95 -22t-36 -61q0 -33 34 -59t114 -57q72 -28 109.5 -64t37.5 -83q0 -62 -49.5 -97t-133.5 -35
q-74 0 -152 28zM315 702l-92 -138h-51l84 138h59z" />
    <glyph glyph-name="scaron.small" horiz-adv-x="455" 
d="M76 63q88 -27 141 -27q62 0 97.5 23.5t35.5 62.5q0 33 -31 57.5t-116 58.5q-76 29 -112 64.5t-36 82.5q0 60 49 94.5t132 34.5q59 0 148 -32l-10 -45q-66 31 -138 31q-59 0 -95 -22t-36 -61q0 -33 34 -59t114 -57q72 -28 109.5 -64t37.5 -83q0 -62 -49.5 -97t-133.5 -35
q-74 0 -152 28zM87 702h57l79 -97l79 97h57l-114 -138h-44z" />
    <glyph glyph-name="scedilla.small" horiz-adv-x="455" 
d="M76 63q88 -27 141 -27q62 0 97.5 23.5t35.5 62.5q0 33 -31 57.5t-116 58.5q-76 29 -112 64.5t-36 82.5q0 60 49 94.5t132 34.5q59 0 148 -32l-10 -45q-66 31 -138 31q-59 0 -95 -22t-36 -61q0 -33 34 -59t114 -57q72 -28 109.5 -64t37.5 -83q0 -55 -38.5 -89t-108.5 -41
l-28 -46l9 1h8q37 0 58 -21.5t21 -58.5t-29.5 -60t-77.5 -23q-34 0 -67 11l8 43q28 -10 56 -10q59 0 59 39q0 38 -41 38l-32 -5l-31 31l31 60q-65 4 -132 27z" />
    <glyph glyph-name="scircumflex.small" horiz-adv-x="455" 
d="M76 63q88 -27 141 -27q62 0 97.5 23.5t35.5 62.5q0 33 -31 57.5t-116 58.5q-76 29 -112 64.5t-36 82.5q0 60 49 94.5t132 34.5q59 0 148 -32l-10 -45q-66 31 -138 31q-59 0 -95 -22t-36 -61q0 -33 34 -59t114 -57q72 -28 109.5 -64t37.5 -83q0 -62 -49.5 -97t-133.5 -35
q-74 0 -152 28zM359 564h-57l-79 97l-79 -97h-57l114 138h44z" />
    <glyph glyph-name="scommaaccent.small" horiz-adv-x="455" 
d="M76 63q88 -27 141 -27q62 0 97.5 23.5t35.5 62.5q0 33 -31 57.5t-116 58.5q-76 29 -112 64.5t-36 82.5q0 60 49 94.5t132 34.5q59 0 148 -32l-10 -45q-66 31 -138 31q-59 0 -95 -22t-36 -61q0 -33 34 -59t114 -57q72 -28 109.5 -64t37.5 -83q0 -62 -49.5 -97t-133.5 -35
q-74 0 -152 28zM247 -77q19 -29 19 -59q0 -41 -33 -80l-44 3q29 34 29 64q0 31 -24 68z" />
    <glyph glyph-name="tbar.small" horiz-adv-x="440" 
d="M195 274v184h-190l4 46h426l-4 -46h-186v-184h121l-4 -44h-117v-230h-50v230h-118l4 44h114z" />
    <glyph glyph-name="tcaron.small" horiz-adv-x="440" 
d="M5 458l4 46h426l-4 -46h-186v-458h-50v458h-190zM84 702h57l79 -97l79 97h57l-114 -138h-44z" />
    <glyph glyph-name="tcommaaccent.small" horiz-adv-x="440" 
d="M5 458l4 46h426l-4 -46h-186v-458h-50v458h-190zM235 -77q19 -29 19 -59q0 -41 -33 -80l-44 3q29 34 29 64q0 31 -24 68z" />
    <glyph glyph-name="uacute.small" 
d="M125 157q0 -121 151 -121t151 121v347h50v-347q0 -80 -54 -123.5t-147 -43.5t-147 43.5t-54 123.5v347h50v-347zM368 702l-92 -138h-51l84 138h59z" />
    <glyph glyph-name="ubreve.small" 
d="M125 157q0 -121 151 -121t151 121v347h50v-347q0 -80 -54 -123.5t-147 -43.5t-147 43.5t-54 123.5v347h50v-347zM185 702q2 -42 26.5 -67t65.5 -25q32 0 60 21.5t30 70.5l45 -4q0 -60 -37 -97t-98 -37t-99 36t-38 98z" />
    <glyph glyph-name="ucircumflex.small" 
d="M125 157q0 -121 151 -121t151 121v347h50v-347q0 -80 -54 -123.5t-147 -43.5t-147 43.5t-54 123.5v347h50v-347zM412 564h-57l-79 97l-79 -97h-57l114 138h44z" />
    <glyph glyph-name="udieresis.small" 
d="M125 157q0 -121 151 -121t151 121v347h50v-347q0 -80 -54 -123.5t-147 -43.5t-147 43.5t-54 123.5v347h50v-347zM183 655q17 0 27.5 -10.5t10.5 -27.5t-10.5 -27.5t-27.5 -10.5t-27.5 10.5t-10.5 27.5t10.5 27.5t27.5 10.5zM369 655q17 0 27.5 -10.5t10.5 -27.5
t-10.5 -27.5t-27.5 -10.5t-27.5 10.5t-10.5 27.5t10.5 27.5t27.5 10.5z" />
    <glyph glyph-name="ugrave.small" 
d="M125 157q0 -121 151 -121t151 121v347h50v-347q0 -80 -54 -123.5t-147 -43.5t-147 43.5t-54 123.5v347h50v-347zM244 702l84 -138h-51l-92 138h59z" />
    <glyph glyph-name="uhungarumlaut.small" 
d="M125 157q0 -121 151 -121t151 121v347h50v-347q0 -80 -54 -123.5t-147 -43.5t-147 43.5t-54 123.5v347h50v-347zM289 702l-92 -138h-51l84 138h59zM447 702l-92 -138h-51l84 138h59z" />
    <glyph glyph-name="umacron.small" 
d="M125 157q0 -121 151 -121t151 121v347h50v-347q0 -80 -54 -123.5t-147 -43.5t-147 43.5t-54 123.5v347h50v-347zM421 640l-4 -44h-285l4 44h285z" />
    <glyph glyph-name="uogonek.small" 
d="M378 -208q-29 -8 -51 -8q-56 0 -82.5 29t-26.5 72q0 56 52 105q-93 2 -144 46t-51 121v347h50v-347q0 -121 151 -121t151 121v347h50v-347q0 -124 -122 -157q-44 -24 -65.5 -55t-21.5 -60q0 -23 14.5 -39t44.5 -16q17 0 44 8z" />
    <glyph glyph-name="uring.small" 
d="M125 157q0 -121 151 -121t151 121v347h50v-347q0 -80 -54 -123.5t-147 -43.5t-147 43.5t-54 123.5v347h50v-347zM227 616q0 -23 13.5 -37.5t34.5 -14.5q23 0 36.5 14.5t13.5 37.5q0 24 -13.5 39t-36.5 15q-21 0 -34.5 -15t-13.5 -39zM181 616q0 43 26 69.5t68 26.5
q43 0 69.5 -26.5t26.5 -69.5q0 -42 -26.5 -68t-69.5 -26q-42 0 -68 26t-26 68z" />
    <glyph glyph-name="utilde.small" 
d="M125 157q0 -121 151 -121t151 121v347h50v-347q0 -80 -54 -123.5t-147 -43.5t-147 43.5t-54 123.5v347h50v-347zM129 599q7 38 32.5 61.5t57.5 23.5q20 0 36 -9t30 -19.5l26.5 -19.5t26.5 -9q30 0 44 47l42 -9q-8 -35 -32.5 -59t-56.5 -24q-20 0 -36 8.5t-30.5 19
l-27.5 19.5t-26 9q-32 0 -45 -47z" />
    <glyph glyph-name="wacute.small" horiz-adv-x="775" 
d="M750 503l-163 -503h-64l-135 442l-133 -442h-64l-166 503l54 4l144 -459l137 454l55 4l140 -458l141 459zM480 702l-92 -138h-51l84 138h59z" />
    <glyph glyph-name="wcircumflex.small" horiz-adv-x="775" 
d="M750 503l-163 -503h-64l-135 442l-133 -442h-64l-166 503l54 4l144 -459l137 454l55 4l140 -458l141 459zM524 564h-57l-79 97l-79 -97h-57l114 138h44z" />
    <glyph glyph-name="wdieresis.small" horiz-adv-x="775" 
d="M750 503l-163 -503h-64l-135 442l-133 -442h-64l-166 503l54 4l144 -459l137 454l55 4l140 -458l141 459zM295 655q17 0 27.5 -10.5t10.5 -27.5t-10.5 -27.5t-27.5 -10.5t-27.5 10.5t-10.5 27.5t10.5 27.5t27.5 10.5zM481 655q17 0 27.5 -10.5t10.5 -27.5t-10.5 -27.5
t-27.5 -10.5t-27.5 10.5t-10.5 27.5t10.5 27.5t27.5 10.5z" />
    <glyph glyph-name="wgrave.small" horiz-adv-x="775" 
d="M750 503l-163 -503h-64l-135 442l-133 -442h-64l-166 503l54 4l144 -459l137 454l55 4l140 -458l141 459zM356 702l84 -138h-51l-92 138h59z" />
    <glyph glyph-name="yacute.small" horiz-adv-x="474" 
d="M212 208l-197 294l60 4l162 -253l165 253l57 -4l-197 -294v-208h-50v208zM339 702l-92 -138h-51l84 138h59z" />
    <glyph glyph-name="ycircumflex.small" horiz-adv-x="474" 
d="M212 208l-197 294l60 4l162 -253l165 253l57 -4l-197 -294v-208h-50v208zM373 564h-57l-79 97l-79 -97h-57l114 138h44z" />
    <glyph glyph-name="ydieresis.small" horiz-adv-x="474" 
d="M212 208l-197 294l60 4l162 -253l165 253l57 -4l-197 -294v-208h-50v208zM144 655q17 0 27.5 -10.5t10.5 -27.5t-10.5 -27.5t-27.5 -10.5t-27.5 10.5t-10.5 27.5t10.5 27.5t27.5 10.5zM330 655q17 0 27.5 -10.5t10.5 -27.5t-10.5 -27.5t-27.5 -10.5t-27.5 10.5
t-10.5 27.5t10.5 27.5t27.5 10.5z" />
    <glyph glyph-name="ygrave.small" horiz-adv-x="474" 
d="M212 208l-197 294l60 4l162 -253l165 253l57 -4l-197 -294v-208h-50v208zM195 702l84 -138h-51l-92 138h59z" />
    <glyph glyph-name="zacute.small" horiz-adv-x="483" 
d="M438 46l-4 -46h-384l-4 42l326 416h-327l4 46h384l4 -42l-326 -416h327zM344 702l-92 -138h-51l84 138h59z" />
    <glyph glyph-name="zcaron.small" horiz-adv-x="483" 
d="M438 46l-4 -46h-384l-4 42l326 416h-327l4 46h384l4 -42l-326 -416h327zM106 702h57l79 -97l79 97h57l-114 -138h-44z" />
    <glyph glyph-name="zdotaccent.small" horiz-adv-x="483" 
d="M438 46l-4 -46h-384l-4 42l326 416h-327l4 46h384l4 -42l-326 -416h327zM242 655q17 0 27.5 -10.5t10.5 -27.5t-10.5 -27.5t-27.5 -10.5t-27.5 10.5t-10.5 27.5t10.5 27.5t27.5 10.5z" />
    <glyph glyph-name="aeacute.small" horiz-adv-x="757" 
d="M-15 0l358 504h369l-4 -46h-285v-186h249l-4 -46h-245v-180h289l-4 -46h-335v130h-235l-91 -130h-62zM373 176v290l-203 -290h203zM515 702l-92 -138h-51l84 138h59z" />
    <glyph glyph-name="oslashacute.small" horiz-adv-x="626" 
d="M546 542l-60 -85q75 -67 75 -205q0 -126 -63 -194t-184 -68q-77 0 -135 29l-56 -80l-43 23l59 85q-74 68 -74 205q0 127 64 194.5t185 67.5q76 0 132 -30l57 81zM115 252q0 -108 54 -164l249 356q-44 24 -104 24q-90 0 -144.5 -52t-54.5 -164zM511 252q0 109 -54 163
l-250 -356q43 -23 107 -23q95 0 146 54.5t51 161.5zM405 702l-92 -138h-51l84 138h59z" />
    <glyph glyph-name="e.small_alt" horiz-adv-x="507" 
d="M312 468q-90 0 -141 -51.5t-56 -144.5h259l-4 -46h-254q5 -91 55.5 -140.5t140.5 -49.5q72 0 143 26l7 -46q-72 -26 -150 -26q-120 0 -183.5 69t-63.5 193q0 125 64 193.5t183 68.5q78 0 150 -26l-7 -46q-71 26 -143 26z" />
    <glyph glyph-name="i.small_alt" horiz-adv-x="380" 
d="M325 46l-4 -46h-266l4 46h106v412h-110l4 46h266l-4 -46h-106v-412h110z" />
    <glyph glyph-name="r.small_alt" horiz-adv-x="500" 
d="M125 0h-50v504h135q100 0 156.5 -37.5t56.5 -116.5q0 -98 -106 -144q24 -170 111 -170q33 0 72 13l5 -45q-38 -14 -81 -14q-60 0 -100.5 52.5t-55.5 149.5q-30 -6 -61 -6q-22 0 -82 6v-192zM125 238q48 -6 85 -6q72 0 117.5 31.5t45.5 86.5q0 108 -163 108h-85v-220z" />
    <glyph glyph-name="u.small_alt" 
d="M427 504h50v-504h-40l-10 63q-112 -73 -189 -73q-80 0 -121.5 40t-41.5 117v357h50v-360q0 -50 29 -79t81 -29q84 0 192 77v391z" />
    <glyph glyph-name="y.small_alt" 
d="M477 180q0 -91 -54 -140.5t-152 -49.5q-78 0 -173 34l9 47q91 -35 164 -35q75 0 115.5 38t40.5 106v84q-112 -73 -189 -73q-80 0 -121.5 40t-41.5 117v156h50v-159q0 -50 29 -79t81 -29q84 0 192 77v190h50v-324z" />
    <glyph glyph-name="eacute.small_alt" horiz-adv-x="507" 
d="M312 468q-90 0 -141 -51.5t-56 -144.5h259l-4 -46h-254q5 -91 55.5 -140.5t140.5 -49.5q72 0 143 26l7 -46q-72 -26 -150 -26q-120 0 -183.5 69t-63.5 193q0 125 64 193.5t183 68.5q78 0 150 -26l-7 -46q-71 26 -143 26zM393 702l-92 -138h-51l84 138h59z" />
    <glyph glyph-name="ebreve.small_alt" horiz-adv-x="507" 
d="M312 468q-90 0 -141 -51.5t-56 -144.5h259l-4 -46h-254q5 -91 55.5 -140.5t140.5 -49.5q72 0 143 26l7 -46q-72 -26 -150 -26q-120 0 -183.5 69t-63.5 193q0 125 64 193.5t183 68.5q78 0 150 -26l-7 -46q-71 26 -143 26zM200 702q2 -42 26.5 -67t65.5 -25q32 0 60 21.5
t30 70.5l45 -4q0 -60 -37 -97t-98 -37t-99 36t-38 98z" />
    <glyph glyph-name="ecaron.small_alt" horiz-adv-x="507" 
d="M312 468q-90 0 -141 -51.5t-56 -144.5h259l-4 -46h-254q5 -91 55.5 -140.5t140.5 -49.5q72 0 143 26l7 -46q-72 -26 -150 -26q-120 0 -183.5 69t-63.5 193q0 125 64 193.5t183 68.5q78 0 150 -26l-7 -46q-71 26 -143 26zM155 702h57l79 -97l79 97h57l-114 -138h-44z" />
    <glyph glyph-name="ecircumflex.small_alt" horiz-adv-x="507" 
d="M312 468q-90 0 -141 -51.5t-56 -144.5h259l-4 -46h-254q5 -91 55.5 -140.5t140.5 -49.5q72 0 143 26l7 -46q-72 -26 -150 -26q-120 0 -183.5 69t-63.5 193q0 125 64 193.5t183 68.5q78 0 150 -26l-7 -46q-71 26 -143 26zM427 564h-57l-79 97l-79 -97h-57l114 138h44z" />
    <glyph glyph-name="edieresis.small_alt" horiz-adv-x="507" 
d="M312 468q-90 0 -141 -51.5t-56 -144.5h259l-4 -46h-254q5 -91 55.5 -140.5t140.5 -49.5q72 0 143 26l7 -46q-72 -26 -150 -26q-120 0 -183.5 69t-63.5 193q0 125 64 193.5t183 68.5q78 0 150 -26l-7 -46q-71 26 -143 26zM198 655q17 0 27.5 -10.5t10.5 -27.5t-10.5 -27.5
t-27.5 -10.5t-27.5 10.5t-10.5 27.5t10.5 27.5t27.5 10.5zM384 655q17 0 27.5 -10.5t10.5 -27.5t-10.5 -27.5t-27.5 -10.5t-27.5 10.5t-10.5 27.5t10.5 27.5t27.5 10.5z" />
    <glyph glyph-name="edotaccent.small_alt" horiz-adv-x="507" 
d="M312 468q-90 0 -141 -51.5t-56 -144.5h259l-4 -46h-254q5 -91 55.5 -140.5t140.5 -49.5q72 0 143 26l7 -46q-72 -26 -150 -26q-120 0 -183.5 69t-63.5 193q0 125 64 193.5t183 68.5q78 0 150 -26l-7 -46q-71 26 -143 26zM291 655q17 0 27.5 -10.5t10.5 -27.5t-10.5 -27.5
t-27.5 -10.5t-27.5 10.5t-10.5 27.5t10.5 27.5t27.5 10.5z" />
    <glyph glyph-name="egrave.small_alt" horiz-adv-x="507" 
d="M312 468q-90 0 -141 -51.5t-56 -144.5h259l-4 -46h-254q5 -91 55.5 -140.5t140.5 -49.5q72 0 143 26l7 -46q-72 -26 -150 -26q-120 0 -183.5 69t-63.5 193q0 125 64 193.5t183 68.5q78 0 150 -26l-7 -46q-71 26 -143 26zM249 702l84 -138h-51l-92 138h59z" />
    <glyph glyph-name="emacron.small_alt" horiz-adv-x="507" 
d="M312 468q-90 0 -141 -51.5t-56 -144.5h259l-4 -46h-254q5 -91 55.5 -140.5t140.5 -49.5q72 0 143 26l7 -46q-72 -26 -150 -26q-120 0 -183.5 69t-63.5 193q0 125 64 193.5t183 68.5q78 0 150 -26l-7 -46q-71 26 -143 26zM436 640l-4 -44h-285l4 44h285z" />
    <glyph glyph-name="eogonek.small_alt" horiz-adv-x="507" 
d="M312 468q-90 0 -141 -51.5t-56 -144.5h259l-4 -46h-254q5 -91 55.5 -140.5t140.5 -49.5q72 0 143 26l7 -46q-96 -52 -96 -131q0 -23 14.5 -39t44.5 -16q17 0 44 8l7 -46q-29 -8 -51 -8q-56 0 -82.5 29t-26.5 75q0 56 51 106l-55 -4q-120 0 -183.5 69t-63.5 193
q0 125 64 193.5t183 68.5q78 0 150 -26l-7 -46q-71 26 -143 26z" />
    <glyph glyph-name="iacute.small_alt" horiz-adv-x="380" 
d="M325 46l-4 -46h-266l4 46h106v412h-110l4 46h266l-4 -46h-106v-412h110zM282 702l-92 -138h-51l84 138h59z" />
    <glyph glyph-name="ibreve.small_alt" horiz-adv-x="380" 
d="M325 46l-4 -46h-266l4 46h106v412h-110l4 46h266l-4 -46h-106v-412h110zM99 702q2 -42 26.5 -67t65.5 -25q32 0 60 21.5t30 70.5l45 -4q0 -60 -37 -97t-98 -37t-99 36t-38 98z" />
    <glyph glyph-name="icircumflex.small_alt" horiz-adv-x="380" 
d="M325 46l-4 -46h-266l4 46h106v412h-110l4 46h266l-4 -46h-106v-412h110zM326 564h-57l-79 97l-79 -97h-57l114 138h44z" />
    <glyph glyph-name="idieresis.small_alt" horiz-adv-x="380" 
d="M325 46l-4 -46h-266l4 46h106v412h-110l4 46h266l-4 -46h-106v-412h110zM97 655q17 0 27.5 -10.5t10.5 -27.5t-10.5 -27.5t-27.5 -10.5t-27.5 10.5t-10.5 27.5t10.5 27.5t27.5 10.5zM283 655q17 0 27.5 -10.5t10.5 -27.5t-10.5 -27.5t-27.5 -10.5t-27.5 10.5t-10.5 27.5
t10.5 27.5t27.5 10.5z" />
    <glyph glyph-name="idotaccent.small_alt" horiz-adv-x="380" 
d="M325 46l-4 -46h-266l4 46h106v412h-110l4 46h266l-4 -46h-106v-412h110zM190 655q17 0 27.5 -10.5t10.5 -27.5t-10.5 -27.5t-27.5 -10.5t-27.5 10.5t-10.5 27.5t10.5 27.5t27.5 10.5z" />
    <glyph glyph-name="igrave.small_alt" horiz-adv-x="380" 
d="M325 46l-4 -46h-266l4 46h106v412h-110l4 46h266l-4 -46h-106v-412h110zM158 702l84 -138h-51l-92 138h59z" />
    <glyph glyph-name="imacron.small_alt" horiz-adv-x="380" 
d="M325 46l-4 -46h-266l4 46h106v412h-110l4 46h266l-4 -46h-106v-412h110zM335 640l-4 -44h-285l4 44h285z" />
    <glyph glyph-name="iogonek.small_alt" horiz-adv-x="380" 
d="M270 -208q-29 -8 -51 -8q-56 0 -82.5 29t-26.5 72q0 61 63 115h-118l4 46h106v412h-110l4 46h266l-4 -46h-106v-412h110l-4 -46h-74q-44 -24 -65.5 -55t-21.5 -60q0 -23 14.5 -39t44.5 -16q17 0 44 8z" />
    <glyph glyph-name="itilde.small_alt" horiz-adv-x="380" 
d="M325 46l-4 -46h-266l4 46h106v412h-110l4 46h266l-4 -46h-106v-412h110zM43 599q7 38 32.5 61.5t57.5 23.5q20 0 36 -9t30 -19.5l26.5 -19.5t26.5 -9q30 0 44 47l42 -9q-8 -35 -32.5 -59t-56.5 -24q-20 0 -36 8.5t-30.5 19l-27.5 19.5t-26 9q-32 0 -45 -47z" />
    <glyph glyph-name="racute.small_alt" horiz-adv-x="500" 
d="M125 0h-50v504h135q100 0 156.5 -37.5t56.5 -116.5q0 -98 -106 -144q24 -170 111 -170q33 0 72 13l5 -45q-38 -14 -81 -14q-60 0 -100.5 52.5t-55.5 149.5q-30 -6 -61 -6q-22 0 -82 6v-192zM125 238q48 -6 85 -6q72 0 117.5 31.5t45.5 86.5q0 108 -163 108h-85v-220z
M299 702l-92 -138h-51l84 138h59z" />
    <glyph glyph-name="rcaron.small_alt" horiz-adv-x="500" 
d="M125 0h-50v504h135q100 0 156.5 -37.5t56.5 -116.5q0 -98 -106 -144q24 -170 111 -170q33 0 72 13l5 -45q-38 -14 -81 -14q-60 0 -100.5 52.5t-55.5 149.5q-30 -6 -61 -6q-22 0 -82 6v-192zM125 238q48 -6 85 -6q72 0 117.5 31.5t45.5 86.5q0 108 -163 108h-85v-220z
M81 702h57l79 -97l79 97h57l-114 -138h-44z" />
    <glyph glyph-name="rcommaaccent.small_alt" horiz-adv-x="500" 
d="M125 0h-50v504h135q100 0 156.5 -37.5t56.5 -116.5q0 -98 -106 -144q24 -170 111 -170q33 0 72 13l5 -45q-38 -14 -81 -14q-60 0 -100.5 52.5t-55.5 149.5q-30 -6 -61 -6q-22 0 -82 6v-192zM125 238q48 -6 85 -6q72 0 117.5 31.5t45.5 86.5q0 108 -163 108h-85v-220z
M251 -77q19 -29 19 -59q0 -41 -33 -80l-44 3q29 34 29 64q0 31 -24 68z" />
    <glyph glyph-name="uacute.small_alt" 
d="M427 504h50v-504h-40l-10 63q-112 -73 -189 -73q-80 0 -121.5 40t-41.5 117v357h50v-360q0 -50 29 -79t81 -29q84 0 192 77v391zM368 702l-92 -138h-51l84 138h59z" />
    <glyph glyph-name="ubreve.small_alt" 
d="M427 504h50v-504h-40l-10 63q-112 -73 -189 -73q-80 0 -121.5 40t-41.5 117v357h50v-360q0 -50 29 -79t81 -29q84 0 192 77v391zM185 702q2 -42 26.5 -67t65.5 -25q32 0 60 21.5t30 70.5l45 -4q0 -60 -37 -97t-98 -37t-99 36t-38 98z" />
    <glyph glyph-name="ucircumflex.small_alt" 
d="M427 504h50v-504h-40l-10 63q-112 -73 -189 -73q-80 0 -121.5 40t-41.5 117v357h50v-360q0 -50 29 -79t81 -29q84 0 192 77v391zM412 564h-57l-79 97l-79 -97h-57l114 138h44z" />
    <glyph glyph-name="udieresis.small_alt" 
d="M427 504h50v-504h-40l-10 63q-112 -73 -189 -73q-80 0 -121.5 40t-41.5 117v357h50v-360q0 -50 29 -79t81 -29q84 0 192 77v391zM183 655q17 0 27.5 -10.5t10.5 -27.5t-10.5 -27.5t-27.5 -10.5t-27.5 10.5t-10.5 27.5t10.5 27.5t27.5 10.5zM369 655q17 0 27.5 -10.5
t10.5 -27.5t-10.5 -27.5t-27.5 -10.5t-27.5 10.5t-10.5 27.5t10.5 27.5t27.5 10.5z" />
    <glyph glyph-name="ugrave.small_alt" 
d="M427 504h50v-504h-40l-10 63q-112 -73 -189 -73q-80 0 -121.5 40t-41.5 117v357h50v-360q0 -50 29 -79t81 -29q84 0 192 77v391zM244 702l84 -138h-51l-92 138h59z" />
    <glyph glyph-name="uhungarumlaut.small_alt" 
d="M427 504h50v-504h-40l-10 63q-112 -73 -189 -73q-80 0 -121.5 40t-41.5 117v357h50v-360q0 -50 29 -79t81 -29q84 0 192 77v391zM289 702l-92 -138h-51l84 138h59zM447 702l-92 -138h-51l84 138h59z" />
    <glyph glyph-name="umacron.small_alt" 
d="M427 504h50v-504h-40l-10 63q-112 -73 -189 -73q-80 0 -121.5 40t-41.5 117v357h50v-360q0 -50 29 -79t81 -29q84 0 192 77v391zM421 640l-4 -44h-285l4 44h285z" />
    <glyph glyph-name="uogonek.small_alt" 
d="M500 -208q-29 -8 -51 -8q-56 0 -82.5 29t-26.5 72q0 36 24 72t69 65l-6 41q-112 -73 -189 -73q-80 0 -121.5 40t-41.5 117v357h50v-360q0 -50 29 -79t81 -29q84 0 192 77v391h50v-504q-44 -24 -65.5 -55t-21.5 -60q0 -23 14.5 -39t44.5 -16q17 0 44 8z" />
    <glyph glyph-name="uring.small_alt" 
d="M427 504h50v-504h-40l-10 63q-112 -73 -189 -73q-80 0 -121.5 40t-41.5 117v357h50v-360q0 -50 29 -79t81 -29q84 0 192 77v391zM227 616q0 -23 13.5 -37.5t34.5 -14.5q23 0 36.5 14.5t13.5 37.5q0 24 -13.5 39t-36.5 15q-21 0 -34.5 -15t-13.5 -39zM181 616
q0 43 26 69.5t68 26.5q43 0 69.5 -26.5t26.5 -69.5q0 -42 -26.5 -68t-69.5 -26q-42 0 -68 26t-26 68z" />
    <glyph glyph-name="utilde.small_alt" 
d="M427 504h50v-504h-40l-10 63q-112 -73 -189 -73q-80 0 -121.5 40t-41.5 117v357h50v-360q0 -50 29 -79t81 -29q84 0 192 77v391zM129 599q7 38 32.5 61.5t57.5 23.5q20 0 36 -9t30 -19.5l26.5 -19.5t26.5 -9q30 0 44 47l42 -9q-8 -35 -32.5 -59t-56.5 -24q-20 0 -36 8.5
t-30.5 19l-27.5 19.5t-26 9q-32 0 -45 -47z" />
    <glyph glyph-name="yacute.small_alt" 
d="M477 180q0 -91 -54 -140.5t-152 -49.5q-78 0 -173 34l9 47q91 -35 164 -35q75 0 115.5 38t40.5 106v84q-112 -73 -189 -73q-80 0 -121.5 40t-41.5 117v156h50v-159q0 -50 29 -79t81 -29q84 0 192 77v190h50v-324zM368 702l-92 -138h-51l84 138h59z" />
    <glyph glyph-name="ycircumflex.small_alt" 
d="M477 180q0 -91 -54 -140.5t-152 -49.5q-78 0 -173 34l9 47q91 -35 164 -35q75 0 115.5 38t40.5 106v84q-112 -73 -189 -73q-80 0 -121.5 40t-41.5 117v156h50v-159q0 -50 29 -79t81 -29q84 0 192 77v190h50v-324zM412 564h-57l-79 97l-79 -97h-57l114 138h44z" />
    <glyph glyph-name="ydieresis.small_alt" 
d="M477 180q0 -91 -54 -140.5t-152 -49.5q-78 0 -173 34l9 47q91 -35 164 -35q75 0 115.5 38t40.5 106v84q-112 -73 -189 -73q-80 0 -121.5 40t-41.5 117v156h50v-159q0 -50 29 -79t81 -29q84 0 192 77v190h50v-324zM183 655q17 0 27.5 -10.5t10.5 -27.5t-10.5 -27.5
t-27.5 -10.5t-27.5 10.5t-10.5 27.5t10.5 27.5t27.5 10.5zM369 655q17 0 27.5 -10.5t10.5 -27.5t-10.5 -27.5t-27.5 -10.5t-27.5 10.5t-10.5 27.5t10.5 27.5t27.5 10.5z" />
    <glyph glyph-name="ygrave.small_alt" 
d="M477 180q0 -91 -54 -140.5t-152 -49.5q-78 0 -173 34l9 47q91 -35 164 -35q75 0 115.5 38t40.5 106v84q-112 -73 -189 -73q-80 0 -121.5 40t-41.5 117v156h50v-159q0 -50 29 -79t81 -29q84 0 192 77v190h50v-324zM244 702l84 -138h-51l-92 138h59z" />
    <glyph glyph-name="f_f" unicode="&#xfb00;" horiz-adv-x="633" 
d="M106 594q0 83 34.5 123.5t97.5 40.5q39 0 90 -15l-5 -45q-49 14 -81 14q-43 0 -64.5 -28t-21.5 -96v-114h250v120q0 83 34.5 123.5t97.5 40.5q39 0 90 -15l-5 -45q-49 14 -81 14q-43 0 -64.5 -28t-21.5 -96v-114h156l-4 -46h-152v-428h-50v428h-250v-428h-50v428h-81
l4 46h77v120z" />
    <glyph glyph-name="f_b" horiz-adv-x="862" 
d="M406 701q-79 11 -121 11q-70 0 -99.5 -27t-29.5 -97v-114h156l-4 -46h-152v-428h-50v428h-81l4 46h77v120q0 90 43 127t136 37q69 0 171 -15v-327q116 68 185 68q80 0 123 -64t43 -183q0 -118 -52 -182.5t-147 -64.5q-94 0 -202 41v670zM456 62q69 -26 152 -26
q73 0 111 53t38 149q0 95 -29.5 147.5t-86.5 52.5q-63 0 -185 -72v-304z" />
    <glyph glyph-name="f_h" horiz-adv-x="851" 
d="M456 0h-50v701q-79 11 -121 11q-70 0 -99.5 -27t-29.5 -97v-114h156l-4 -46h-152v-428h-50v428h-81l4 46h77v120q0 90 43 127t136 37q69 0 171 -15v-327q116 68 185 68q65 0 100 -40.5t35 -116.5v-327h-50v327q0 57 -24 84t-61 27q-63 0 -185 -72v-366z" />
    <glyph glyph-name="f_j" horiz-adv-x="531" 
d="M456 22q0 -74 -30.5 -128.5t-99.5 -109.5l-37 31q54 44 85.5 93t31.5 115v405h-250v-428h-50v428h-81l4 46h77v120q0 83 34.5 123.5t97.5 40.5q39 0 90 -15l-5 -45q-49 14 -81 14q-43 0 -64.5 -28t-21.5 -96v-114h300v-452zM431 635q17 0 27.5 -10.5t10.5 -27.5
t-10.5 -27.5t-27.5 -10.5t-27.5 10.5t-10.5 27.5t10.5 27.5t27.5 10.5z" />
    <glyph glyph-name="f_k" horiz-adv-x="788" 
d="M456 231v-231h-50v701q-79 11 -121 11q-70 0 -99.5 -27t-29.5 -97v-114h156l-4 -46h-152v-428h-50v428h-81l4 46h77v120q0 90 43 127t136 37q69 0 171 -15v-482l233 215l65 -4l-243 -224l267 -246l-70 -4z" />
    <glyph glyph-name="f_t" horiz-adv-x="666" 
d="M406 428h-250v-428h-50v428h-81l4 46h77v120q0 83 34.5 123.5t97.5 40.5q39 0 90 -15l-5 -45q-49 14 -81 14q-43 0 -64.5 -28t-21.5 -96v-114h250v150l50 4v-154h156l-4 -46h-152v-270q0 -122 90 -122q38 0 80 12l5 -43q-51 -15 -90 -15q-65 0 -100 43t-35 121v274z" />
    <glyph glyph-name="f_f_b" horiz-adv-x="1162" 
d="M106 594q0 83 34.5 123.5t97.5 40.5q39 0 90 -15l-5 -45q-49 14 -81 14q-43 0 -64.5 -28t-21.5 -96v-114h250v120q0 90 43 127t136 37q69 0 171 -15v-327q116 68 185 68q80 0 123 -64t43 -183q0 -118 -52 -182.5t-147 -64.5q-94 0 -202 41v670q-79 11 -121 11
q-70 0 -99.5 -27t-29.5 -97v-114h156l-4 -46h-152v-428h-50v428h-250v-428h-50v428h-81l4 46h77v120zM756 62q69 -26 152 -26q73 0 111 53t38 149q0 95 -29.5 147.5t-86.5 52.5q-63 0 -185 -72v-304z" />
    <glyph glyph-name="f_f_h" horiz-adv-x="1151" 
d="M106 594q0 83 34.5 123.5t97.5 40.5q39 0 90 -15l-5 -45q-49 14 -81 14q-43 0 -64.5 -28t-21.5 -96v-114h250v120q0 90 43 127t136 37q69 0 171 -15v-327q116 68 185 68q65 0 100 -40.5t35 -116.5v-327h-50v327q0 57 -24 84t-61 27q-63 0 -185 -72v-366h-50v701
q-79 11 -121 11q-70 0 -99.5 -27t-29.5 -97v-114h156l-4 -46h-152v-428h-50v428h-250v-428h-50v428h-81l4 46h77v120z" />
    <glyph glyph-name="ffi" unicode="&#xfb03;" horiz-adv-x="831" 
d="M106 594q0 83 34.5 123.5t97.5 40.5q39 0 90 -15l-5 -45q-49 14 -81 14q-43 0 -64.5 -28t-21.5 -96v-114h250v120q0 83 34.5 123.5t97.5 40.5q39 0 90 -15l-5 -45q-49 14 -81 14q-43 0 -64.5 -28t-21.5 -96v-114h300v-474h-50v428h-250v-428h-50v428h-250v-428h-50v428
h-81l4 46h77v120zM731 635q17 0 27.5 -10.5t10.5 -27.5t-10.5 -27.5t-27.5 -10.5t-27.5 10.5t-10.5 27.5t10.5 27.5t27.5 10.5z" />
    <glyph glyph-name="f_f_j" horiz-adv-x="831" 
d="M756 22q0 -74 -30.5 -128.5t-99.5 -109.5l-37 31q54 44 85.5 93t31.5 115v405h-250v-428h-50v428h-250v-428h-50v428h-81l4 46h77v120q0 83 34.5 123.5t97.5 40.5q39 0 90 -15l-5 -45q-49 14 -81 14q-43 0 -64.5 -28t-21.5 -96v-114h250v120q0 83 34.5 123.5t97.5 40.5
q39 0 90 -15l-5 -45q-49 14 -81 14q-43 0 -64.5 -28t-21.5 -96v-114h300v-452zM731 635q17 0 27.5 -10.5t10.5 -27.5t-10.5 -27.5t-27.5 -10.5t-27.5 10.5t-10.5 27.5t10.5 27.5t27.5 10.5z" />
    <glyph glyph-name="f_f_k" horiz-adv-x="1088" 
d="M756 231v-231h-50v701q-79 11 -121 11q-70 0 -99.5 -27t-29.5 -97v-114h156l-4 -46h-152v-428h-50v428h-250v-428h-50v428h-81l4 46h77v120q0 83 34.5 123.5t97.5 40.5q39 0 90 -15l-5 -45q-49 14 -81 14q-43 0 -64.5 -28t-21.5 -96v-114h250v120q0 90 43 127t136 37
q69 0 171 -15v-482l233 215l65 -4l-243 -224l267 -246l-70 -4z" />
    <glyph glyph-name="ffl" unicode="&#xfb04;" horiz-adv-x="906" 
d="M706 701q-79 11 -121 11q-70 0 -99.5 -27t-29.5 -97v-114h156l-4 -46h-152v-428h-50v428h-250v-428h-50v428h-81l4 46h77v120q0 83 34.5 123.5t97.5 40.5q39 0 90 -15l-5 -45q-49 14 -81 14q-43 0 -64.5 -28t-21.5 -96v-114h250v120q0 90 43 127t136 37q69 0 171 -15
v-640q0 -66 53 -66q32 0 87 17l5 -45q-55 -19 -97 -19q-98 0 -98 114v597z" />
    <glyph glyph-name="longs" unicode="&#x17f;" horiz-adv-x="302" 
d="M75 594q0 83 34.5 123.5t97.5 40.5q39 0 90 -15l-5 -45q-49 14 -81 14q-43 0 -64.5 -28t-21.5 -96v-588h-50v594z" />
    <glyph glyph-name="fl.alt" horiz-adv-x="531" 
d="M106 594q0 90 43 127t136 37q69 0 171 -15v-743h-50v701q-79 11 -121 11q-70 0 -99.5 -27t-29.5 -97v-114h156l-4 -46h-152v-428h-50v428h-81l4 46h77v120z" />
    <glyph glyph-name="ffl.alt" horiz-adv-x="831" 
d="M106 594q0 83 34.5 123.5t97.5 40.5q39 0 90 -15l-5 -45q-49 14 -81 14q-43 0 -64.5 -28t-21.5 -96v-114h250v120q0 90 43 127t136 37q69 0 171 -15v-743h-50v701q-79 11 -121 11q-70 0 -99.5 -27t-29.5 -97v-114h156l-4 -46h-152v-428h-50v428h-250v-428h-50v428h-81
l4 46h77v120z" />
    <glyph glyph-name="a.superior" horiz-adv-x="299" 
d="M206 666q0 57 -48 57q-36 0 -111 -25l-7 41q73 26 123 26q90 0 90 -97v-208h-35l-7 36q-50 -42 -104 -42q-32 0 -55.5 18.5t-23.5 58.5q0 50 43.5 72.5t134.5 29.5v33zM114 493q54 0 92 43v60q-66 -5 -99.5 -19t-33.5 -43q0 -41 41 -41z" />
    <glyph glyph-name="b.superior" horiz-adv-x="343" 
d="M46 931l47 3v-210q68 41 111 41q45 0 75 -37t30 -119q0 -74 -34 -114.5t-98 -40.5q-58 0 -131 25v452zM93 510q39 -14 84 -14q35 0 60 25.5t25 88.5q0 111 -66 111q-35 0 -103 -38v-173z" />
    <glyph glyph-name="c.superior" horiz-adv-x="282" 
d="M167 454q-133 0 -133 155q0 156 133 156q41 0 87 -10l-6 -41q-40 9 -79 9q-88 0 -88 -114q0 -113 88 -113q35 0 79 8l6 -41q-41 -9 -87 -9z" />
    <glyph glyph-name="d.superior" horiz-adv-x="343" 
d="M250 931l46 3v-474h-40l-6 34q-69 -40 -111 -40q-46 0 -75.5 37t-29.5 118q0 73 32.5 114.5t93.5 41.5q44 0 90 -21v187zM250 704q-47 19 -84 19q-35 0 -60 -25.5t-25 -89.5q0 -111 65 -111q25 0 51.5 12.5t52.5 26.5v168z" />
    <glyph glyph-name="e.superior" horiz-adv-x="314" 
d="M80 593q4 -97 93 -97q40 0 87 17l6 -40q-51 -19 -97 -19q-67 0 -101 40.5t-34 114.5q0 84 37 120t95 36t86.5 -37.5t28.5 -91.5l-3 -43h-198zM165 725q-80 0 -84 -95h153v9q0 39 -18 62.5t-51 23.5z" />
    <glyph glyph-name="egrave.superior" horiz-adv-x="314" 
d="M80 593q4 -97 93 -97q40 0 87 17l6 -40q-51 -19 -97 -19q-67 0 -101 40.5t-34 114.5q0 84 37 120t95 36t86.5 -37.5t28.5 -91.5l-3 -43h-198zM165 725q-80 0 -84 -95h153v9q0 39 -18 62.5t-51 23.5zM143 900l53 -100h-43l-62 100h52z" />
    <glyph glyph-name="f.superior" horiz-adv-x="220" 
d="M66 827q0 107 88 107q27 0 61 -10l-4 -40q-26 8 -49 8q-31 0 -40 -20.5t-9 -49.5v-63h93l-4 -42h-89v-257h-47v257h-50l3 42h47v68z" />
    <glyph glyph-name="g.superior" horiz-adv-x="323" 
d="M268 666q0 -45 -28.5 -72t-85.5 -27h-14l-12 1q-20 -19 -20 -35q0 -23 38 -23h28q63 0 95 -22t32 -61q0 -45 -42.5 -73.5t-115.5 -28.5q-60 0 -87.5 23.5t-27.5 55.5q0 50 55 83q-18 15 -18 41q0 30 27 51q-50 23 -50 87q0 45 27.5 72t84.5 27q26 0 46 -6h96l-3 -42h-37
q12 -23 12 -51zM169 470h-39l-10 1q-47 -29 -47 -65q0 -18 17.5 -31t55.5 -13q54 0 81.5 18.5t27.5 43.5q0 46 -86 46zM223 666q0 61 -69 61q-67 0 -67 -61t67 -61q69 0 69 61z" />
    <glyph glyph-name="h.superior" horiz-adv-x="338" 
d="M93 460h-47v471l47 3v-210q69 41 114 41q39 0 61.5 -25t22.5 -74v-206h-46v199q0 32 -14 47t-35 15q-35 0 -103 -38v-223z" />
    <glyph glyph-name="i.superior" horiz-adv-x="139" 
d="M93 760v-300h-47v297zM69 869q14 0 22.5 -8.5t8.5 -22.5t-8.5 -22.5t-22.5 -8.5q-13 0 -21.5 8.5t-8.5 22.5t8.5 22.5t21.5 8.5z" />
    <glyph glyph-name="j.superior" horiz-adv-x="159" 
d="M113 760v-284q0 -49 -19.5 -82.5t-61.5 -68.5l-35 28q70 57 70 124v280zM90 869q14 0 22.5 -8.5t8.5 -22.5t-8.5 -22.5t-22.5 -8.5q-13 0 -22 8.5t-9 22.5t9 22.5t22 8.5z" />
    <glyph glyph-name="k.superior" horiz-adv-x="304" 
d="M93 601v-141h-47v471l47 3v-305l131 131l57 -3l-142 -140l157 -155l-60 -4z" />
    <glyph glyph-name="l.superior" horiz-adv-x="172" 
d="M93 934v-406q0 -32 27 -32q16 0 43 10l4 -40q-38 -12 -59 -12q-62 0 -62 74v403z" />
    <glyph glyph-name="m.superior" horiz-adv-x="511" 
d="M267 724q71 41 119 41q36 0 57.5 -24.5t21.5 -74.5v-206h-46v199q0 62 -45 62q-41 0 -97 -34l2 -29v-198h-46v199q0 62 -45 62q-33 0 -95 -38v-223h-47v297l47 3v-36q65 41 107 41q49 0 67 -41z" />
    <glyph glyph-name="n.superior" unicode="&#x207f;" horiz-adv-x="338" 
d="M93 460h-47v297l47 3v-36q69 41 114 41q39 0 61.5 -25t22.5 -74v-206h-46v199q0 62 -49 62q-35 0 -103 -38v-223z" />
    <glyph glyph-name="o.superior" horiz-adv-x="346" 
d="M81 609q0 -113 92 -113t92 113q0 114 -92 114t-92 -114zM34 609q0 81 38 118.5t101 37.5t101 -37.5t38 -118.5t-38 -118t-101 -37t-101 37t-38 118z" />
    <glyph glyph-name="p.superior" horiz-adv-x="343" 
d="M93 333l-47 -4v428l47 3v-36q68 41 111 41q45 0 75 -37t30 -119q0 -74 -33.5 -114.5t-92.5 -40.5q-41 0 -90 20v-141zM93 515q45 -19 84 -19q35 0 60 25.5t25 88.5q0 111 -66 111q-35 0 -103 -38v-168z" />
    <glyph glyph-name="q.superior" horiz-adv-x="343" 
d="M296 333l-46 -4v165q-69 -40 -111 -40q-46 0 -75.5 37t-29.5 118q0 76 35 116t97 40q61 0 130 -26v-406zM250 709q-39 14 -84 14q-35 0 -60 -25.5t-25 -89.5q0 -111 65 -111q25 0 51.5 12.5t52.5 26.5v173z" />
    <glyph glyph-name="r.superior" horiz-adv-x="233" 
d="M218 713q-27 7 -41 7q-16 0 -31.5 -11.5t-52.5 -58.5v-190h-47v297l47 3v-57q26 34 44.5 48t42.5 14q15 0 44 -7z" />
    <glyph glyph-name="s.superior" horiz-adv-x="272" 
d="M50 512q40 -18 85 -18q57 0 57 45q0 19 -17 31t-60 28q-76 28 -76 86q0 42 28.5 61.5t73.5 19.5q47 0 87 -18l-6 -41q-38 18 -82 18q-55 0 -55 -39q0 -19 14 -29t63 -30q76 -30 76 -86q0 -45 -30 -65.5t-77 -20.5t-87 18z" />
    <glyph glyph-name="t.superior" horiz-adv-x="239" 
d="M66 717h-50l3 42h47v93l47 3v-96h93l-4 -42h-89v-152q0 -69 51 -69q24 0 49 7l3 -40q-32 -9 -60 -9q-90 0 -90 107v156z" />
    <glyph glyph-name="u.superior" horiz-adv-x="338" 
d="M245 757l46 3v-300h-40l-6 34q-71 -40 -114 -40q-85 0 -85 99v204l47 3v-200q0 -32 13.5 -47.5t34.5 -15.5q25 0 51.5 12.5t52.5 26.5v221z" />
    <glyph glyph-name="v.superior" horiz-adv-x="304" 
d="M60 760l92 -253l91 253l51 -3l-113 -297h-59l-112 297z" />
    <glyph glyph-name="w.superior" horiz-adv-x="471" 
d="M60 760l74 -253l74 250l55 3l74 -253l74 253l50 -3l-95 -297h-57l-73 241l-75 -241h-57l-94 297z" />
    <glyph glyph-name="x.superior" horiz-adv-x="293" 
d="M227 760l53 -3l-105 -147l105 -148l-54 -4l-80 116l-80 -116l-53 4l105 147l-105 148l54 3l80 -116z" />
    <glyph glyph-name="y.superior" horiz-adv-x="304" 
d="M152 507l91 253l51 -3l-161 -428l-50 4l49 127h-10l-112 297l50 3z" />
    <glyph glyph-name="z.superior" horiz-adv-x="281" 
d="M257 502l-3 -42h-227l-3 39l173 218h-163l3 42h217l3 -39l-173 -218h173z" />
    <glyph glyph-name="a.inferior" horiz-adv-x="299" 
d="M206 56q0 57 -48 57q-36 0 -111 -25l-7 41q73 26 123 26q90 0 90 -97v-208h-35l-7 36q-50 -42 -104 -42q-32 0 -55.5 18.5t-23.5 58.5q0 50 43.5 72.5t134.5 29.5v33zM114 -117q54 0 92 43v60q-66 -5 -99.5 -19t-33.5 -43q0 -41 41 -41z" />
    <glyph glyph-name="b.inferior" horiz-adv-x="343" 
d="M46 321l47 3v-210q68 41 111 41q45 0 75 -37t30 -119q0 -74 -34 -114.5t-98 -40.5q-58 0 -131 25v452zM93 -100q38 -14 84 -14q35 0 60 25.5t25 88.5q0 111 -66 111q-35 0 -103 -38v-173z" />
    <glyph glyph-name="c.inferior" horiz-adv-x="282" 
d="M167 -156q-133 0 -133 155q0 156 133 156q41 0 87 -10l-6 -41q-40 9 -79 9q-88 0 -88 -114q0 -113 88 -113q35 0 79 8l6 -41q-41 -9 -87 -9z" />
    <glyph glyph-name="d.inferior" horiz-adv-x="343" 
d="M250 321l46 3v-474h-40l-6 34q-69 -40 -111 -40q-46 0 -75.5 37t-29.5 118q0 73 32.5 114.5t93.5 41.5q44 0 90 -21v187zM250 94q-47 19 -84 19q-35 0 -60 -25.5t-25 -89.5q0 -111 65 -111q25 0 51.5 12.5t52.5 26.5v168z" />
    <glyph glyph-name="e.inferior" horiz-adv-x="314" 
d="M80 -17q4 -97 93 -97q40 0 87 17l6 -40q-51 -19 -97 -19q-67 0 -101 40.5t-34 114.5q0 84 37 120t95 36t86.5 -37.5t28.5 -91.5l-3 -43h-198zM165 115q-80 0 -84 -95h153v9q0 39 -18 62.5t-51 23.5z" />
    <glyph glyph-name="f.inferior" horiz-adv-x="220" 
d="M66 217q0 107 88 107q27 0 61 -10l-4 -40q-26 8 -49 8q-31 0 -40 -20.5t-9 -49.5v-63h93l-4 -42h-89v-257h-47v257h-50l3 42h47v68z" />
    <glyph glyph-name="g.inferior" horiz-adv-x="323" 
d="M268 56q0 -45 -28.5 -72t-85.5 -27l-26 2q-20 -19 -20 -36q0 -23 38 -23h28q63 0 95 -22t32 -61q0 -45 -42.5 -73.5t-115.5 -28.5q-60 0 -87.5 23.5t-27.5 55.5q0 50 55 83q-18 16 -18 41q0 30 27 51q-50 23 -50 87q0 45 27.5 72t84.5 27q26 0 46 -6h96l-3 -42h-37
q12 -23 12 -51zM143 -140l-23 2q-47 -29 -47 -66q0 -18 17.5 -31t55.5 -13q54 0 81.5 18.5t27.5 43.5q0 46 -86 46h-26zM223 56q0 61 -69 61q-67 0 -67 -61t67 -61q69 0 69 61z" />
    <glyph glyph-name="h.inferior" horiz-adv-x="338" 
d="M93 -150h-47v471l47 3v-210q69 41 114 41q39 0 61.5 -25t22.5 -74v-206h-46v199q0 32 -14 47t-35 15q-35 0 -103 -38v-223z" />
    <glyph glyph-name="i.inferior" horiz-adv-x="139" 
d="M93 150v-300h-47v297zM69 259q14 0 22.5 -8.5t8.5 -22.5t-8.5 -22.5t-22.5 -8.5q-13 0 -21.5 8.5t-8.5 22.5t8.5 22.5t21.5 8.5z" />
    <glyph glyph-name="j.inferior" horiz-adv-x="159" 
d="M113 150v-284q0 -49 -19.5 -82.5t-61.5 -68.5l-35 28q70 57 70 124v280zM90 259q14 0 22.5 -8.5t8.5 -22.5t-8.5 -22.5t-22.5 -8.5q-13 0 -22 8.5t-9 22.5t9 22.5t22 8.5z" />
    <glyph glyph-name="k.inferior" horiz-adv-x="304" 
d="M93 -9v-141h-47v471l47 3v-305l131 131l57 -3l-142 -140l157 -155l-60 -4z" />
    <glyph glyph-name="l.inferior" horiz-adv-x="172" 
d="M93 324v-406q0 -32 27 -32q16 0 43 10l4 -40q-38 -12 -59 -12q-62 0 -62 74v403z" />
    <glyph glyph-name="m.inferior" horiz-adv-x="511" 
d="M267 114q71 41 119 41q36 0 57.5 -24.5t21.5 -74.5v-206h-46v199q0 62 -45 62q-41 0 -97 -34l2 -29v-198h-46v199q0 62 -45 62q-33 0 -95 -38v-223h-47v297l47 3v-36q65 41 107 41q49 0 67 -41z" />
    <glyph glyph-name="n.inferior" horiz-adv-x="338" 
d="M93 -150h-47v297l47 3v-36q69 41 114 41q39 0 61.5 -25t22.5 -74v-206h-46v199q0 62 -49 62q-35 0 -103 -38v-223z" />
    <glyph glyph-name="o.inferior" horiz-adv-x="346" 
d="M81 -1q0 -113 92 -113t92 113q0 114 -92 114t-92 -114zM34 -1q0 81 38 118.5t101 37.5t101 -37.5t38 -118.5t-38 -118t-101 -37t-101 37t-38 118z" />
    <glyph glyph-name="p.inferior" horiz-adv-x="343" 
d="M93 -277l-47 -4v428l47 3v-36q68 41 111 41q45 0 75 -37t30 -119q0 -74 -33.5 -114.5t-92.5 -40.5q-41 0 -90 20v-141zM93 -95q45 -19 84 -19q35 0 60 25.5t25 88.5q0 111 -66 111q-35 0 -103 -38v-168z" />
    <glyph glyph-name="q.inferior" horiz-adv-x="343" 
d="M296 -277l-46 -4v165q-69 -40 -111 -40q-46 0 -75.5 37t-29.5 118q0 76 35 116t97 40q61 0 130 -26v-406zM250 99q-38 14 -84 14q-35 0 -60 -25.5t-25 -89.5q0 -111 65 -111q25 0 51.5 12.5t52.5 26.5v173z" />
    <glyph glyph-name="r.inferior" horiz-adv-x="233" 
d="M218 103q-27 7 -41 7q-16 0 -31.5 -11.5t-52.5 -58.5v-190h-47v297l47 3v-57q26 34 44.5 48t42.5 14q15 0 44 -7z" />
    <glyph glyph-name="s.inferior" horiz-adv-x="272" 
d="M50 -98q41 -18 85 -18q57 0 57 45q0 19 -17 31t-60 28q-76 28 -76 86q0 42 28.5 61.5t73.5 19.5q47 0 87 -18l-6 -41q-38 18 -82 18q-55 0 -55 -39q0 -18 14.5 -29t62.5 -30q76 -30 76 -86q0 -45 -30 -65.5t-77 -20.5t-87 18z" />
    <glyph glyph-name="t.inferior" horiz-adv-x="239" 
d="M66 107h-50l3 42h47v93l47 3v-96h93l-4 -42h-89v-152q0 -69 51 -69q25 0 49 7l3 -40q-32 -9 -60 -9q-90 0 -90 107v156z" />
    <glyph glyph-name="u.inferior" horiz-adv-x="338" 
d="M245 147l46 3v-300h-40l-6 34q-71 -40 -114 -40q-85 0 -85 99v204l47 3v-200q0 -32 13.5 -47.5t34.5 -15.5q25 0 51.5 12.5t52.5 26.5v221z" />
    <glyph glyph-name="v.inferior" horiz-adv-x="304" 
d="M60 150l92 -253l91 253l51 -3l-113 -297h-59l-112 297z" />
    <glyph glyph-name="w.inferior" horiz-adv-x="471" 
d="M60 150l74 -253l74 250l55 3l74 -253l74 253l50 -3l-95 -297h-57l-73 241l-75 -241h-57l-94 297z" />
    <glyph glyph-name="x.inferior" horiz-adv-x="293" 
d="M227 150l53 -3l-105 -147l105 -148l-54 -4l-80 116l-80 -116l-53 4l105 147l-105 148l54 3l80 -116z" />
    <glyph glyph-name="y.inferior" horiz-adv-x="304" 
d="M152 -103l91 253l51 -3l-161 -428l-50 4l49 127h-10l-112 297l50 3z" />
    <glyph glyph-name="z.inferior" horiz-adv-x="281" 
d="M257 -108l-3 -42h-227l-3 39l173 218h-163l3 42h217l3 -39l-173 -218h173z" />
    <glyph glyph-name="dollar" unicode="$" horiz-adv-x="532" 
d="M295 711q86 -3 169 -40l-11 -48q-76 37 -158 41v-291q85 -38 119.5 -64t53.5 -58t19 -75q0 -81 -52 -129t-140 -55v-110l-46 -4v112q-98 4 -181 41l11 48q78 -37 170 -41v300q-117 52 -155.5 96.5t-38.5 101.5q0 77 51 122.5t143 52.5v109l46 4v-113zM435 179
q0 37 -28 68t-112 70v-277q67 7 103.5 43t36.5 96zM107 533q0 -39 30 -70.5t112 -68.5v270q-70 -7 -106 -41t-36 -90z" />
    <glyph glyph-name="cent" unicode="&#xa2;" horiz-adv-x="487" 
d="M305 712q70 -3 137 -26l-7 -46q-71 26 -143 26q-94 0 -145.5 -56t-51.5 -160t51.5 -160t145.5 -56q72 0 143 26l7 -46q-67 -24 -137 -26v-107l-46 -4v112q-104 9 -159 77.5t-55 183.5q0 117 55.5 184t158.5 76v110l46 4v-112z" />
    <glyph glyph-name="sterling" unicode="&#xa3;" horiz-adv-x="517" 
d="M194 352l-17 44q-49 99 -49 155q0 75 37 118t106 43q83 0 166 -25l-11 -48q-84 25 -155 25q-40 0 -65.5 -26t-25.5 -75q0 -38 30 -101q34 -70 40 -110h189l-4 -46h-184q-3 -77 -32 -131.5t-109 -126.5h362l-4 -48h-418l-4 48q74 69 99 103.5t38.5 71t15.5 83.5h-154l4 46
h145z" />
    <glyph glyph-name="yen" unicode="&#xa5;" horiz-adv-x="582" 
d="M234 352l-219 348l60 4l216 -351l215 351l61 -4l-219 -348h158l-4 -46h-183l-2 -3v-117h189l-4 -46h-185v-140h-52v140h-193l4 46h189v117l-2 3h-191l4 46h158z" />
    <glyph glyph-name="florin" unicode="&#x192;" horiz-adv-x="364" 
d="M137 548q0 83 34.5 123.5t97.5 40.5q39 0 90 -15l-5 -45q-49 14 -81 14q-43 0 -64.5 -28t-21.5 -96v-196h156l-4 -46h-152v-306q0 -83 -34.5 -123.5t-97.5 -40.5q-39 0 -90 15l5 45q49 -14 81 -14q43 0 64.5 28t21.5 96v300h-119l4 46h115v202z" />
    <glyph glyph-name="Euro" unicode="&#x20ac;" horiz-adv-x="607" 
d="M103 458q21 122 93.5 188t189.5 66q88 0 177 -37l-10 -48q-84 37 -166 37q-93 0 -152 -53t-79 -153h343l-4 -46h-346l-2 -29v-32l2 -59h310l-4 -46h-299q19 -99 77.5 -153.5t153.5 -54.5q82 0 166 37l10 -48q-89 -37 -177 -37q-118 0 -190 65.5t-93 190.5h-98l4 46h88
l-2 29v30l2 61h-92l4 46h94z" />
    <glyph glyph-name="numbersign" unicode="#" horiz-adv-x="560" 
d="M164 504l56 200l51 -4l-55 -196h212l56 200l51 -4l-55 -196h85l-4 -46h-93l-60 -214h101l-4 -46h-110l-55 -200l-51 4l54 196h-212l-55 -200l-51 4l54 196h-84l4 46h93l60 214h-101l4 46h109zM144 244h212l60 214h-212z" />
    <glyph glyph-name="currency" unicode="&#xa4;" horiz-adv-x="560" 
d="M101 352q0 65 34 111l-72 72l37 31l69 -69q47 34 111 34q62 0 111 -34l69 69l37 -31l-72 -72q34 -49 34 -111q0 -64 -34 -111l72 -72l-36 -32l-70 70q-46 -34 -111 -34q-66 0 -111 34l-69 -69l-37 31l72 72q-34 45 -34 111zM151 352q0 -59 36 -96t93 -37q58 0 93.5 37
t35.5 96t-36 96t-93 37q-58 0 -93.5 -37t-35.5 -96z" />
    <glyph glyph-name="zero" unicode="0" horiz-adv-x="650" 
d="M117 352q0 -152 53.5 -233t155.5 -81t154.5 81.5t52.5 232.5t-53 231.5t-154 80.5t-155 -79.5t-54 -232.5zM65 352q0 174 66.5 267t194.5 93q127 0 193 -94t66 -266q0 -175 -66 -268.5t-193 -93.5t-194 92.5t-67 269.5z" />
    <glyph glyph-name="one" unicode="1" horiz-adv-x="335" 
d="M208 0v650l-183 -70v52l183 70h52v-702h-52z" />
    <glyph glyph-name="two" unicode="2" horiz-adv-x="506" 
d="M444 512q0 -87 -76 -191.5t-269 -272.5h362l-4 -48h-418l-4 48q165 151 228.5 222t96 129.5t32.5 111.5q0 75 -42.5 114.5t-120.5 39.5q-87 0 -173 -42l-11 48q94 41 187 41q103 0 157.5 -53.5t54.5 -146.5z" />
    <glyph glyph-name="three" unicode="3" horiz-adv-x="499" 
d="M290 370q92 58 92 161q0 62 -42 97.5t-121 35.5q-87 0 -173 -41l-11 48q90 41 186 41q97 0 155 -46.5t58 -133.5q0 -105 -92 -181q59 -33 85.5 -80t26.5 -95q0 -87 -59 -136.5t-166 -49.5q-99 0 -194 41l11 48q86 -41 179 -41q84 0 130.5 36.5t46.5 101.5q0 46 -27 85
t-75 61h-156l4 48h142z" />
    <glyph glyph-name="four" unicode="4" horiz-adv-x="561" 
d="M240 702q0 -146 -37 -253.5t-119 -215.5h247v189l52 4v-193h153l-4 -48h-149v-185h-52v185h-302l-4 48q86 104 124.5 217.5t38.5 251.5h52z" />
    <glyph glyph-name="five" unicode="5" horiz-adv-x="491" 
d="M127 392l74 3q133 0 194 -48t61 -153q0 -96 -58.5 -150t-165.5 -54q-90 0 -187 42l11 47q84 -41 174 -41q84 0 129 41.5t45 114.5q0 152 -198 152h-131v356h345l-4 -48h-289v-262z" />
    <glyph glyph-name="six" unicode="6" 
d="M316 664q-101 0 -154 -85t-55 -241q127 70 224 70q88 0 137 -53.5t49 -152.5q0 -94 -62 -153t-166 -59q-111 0 -172.5 86.5t-61.5 244.5q0 190 68 290.5t195 100.5q79 0 168 -39l-15 -47q-87 38 -155 38zM330 360q-89 0 -222 -74q6 -120 53.5 -184t127.5 -64t128 45.5
t48 118.5q0 78 -36.5 118t-98.5 40z" />
    <glyph glyph-name="seven" unicode="7" horiz-adv-x="462" 
d="M154 0q0 206 56.5 363.5t181.5 290.5h-377l4 48h424l4 -48q-132 -159 -186.5 -306t-54.5 -348h-52z" />
    <glyph glyph-name="eight" unicode="8" horiz-adv-x="572" 
d="M286 712q105 0 163 -46.5t58 -122.5q0 -52 -35 -94.5t-126 -83.5q98 -42 139.5 -89.5t41.5 -109.5q0 -84 -61.5 -130t-179.5 -46t-179.5 46t-61.5 130q0 63 42.5 111t137.5 88q-89 40 -124.5 82.5t-35.5 95.5q0 77 58 123t163 46zM286 391q103 44 136 77.5t33 74.5
q0 54 -43 87.5t-126 33.5t-126 -33.5t-43 -87.5q0 -41 33 -74.5t136 -77.5zM286 339q-108 -49 -148.5 -90t-40.5 -83q0 -61 48.5 -94.5t140.5 -33.5t140.5 33.5t48.5 94.5q0 42 -41.5 84t-147.5 89z" />
    <glyph glyph-name="nine" unicode="9" 
d="M236 38q98 0 151.5 81.5t57.5 244.5q-124 -70 -224 -70q-88 0 -137 53.5t-49 152.5q0 94 63.5 153t164.5 59q111 0 172.5 -86.5t61.5 -244.5q0 -190 -68 -290.5t-195 -100.5q-80 0 -168 39l15 47q87 -38 155 -38zM222 342q91 0 222 73q-7 128 -56.5 188.5t-124.5 60.5
q-80 0 -128 -45.5t-48 -118.5q0 -78 36.5 -118t98.5 -40z" />
    <glyph glyph-name="zero.alt_TF" horiz-adv-x="560" 
d="M524 740l-62 -111q73 -92 73 -277q0 -176 -65 -269t-189 -93q-88 0 -147 46l-51 -92l-47 18l61 111q-72 91 -72 279q0 176 66 268t190 92q86 0 145 -46l51 92zM483 352q0 146 -49 227l-275 -497q50 -44 122 -44q99 0 150.5 80.5t51.5 233.5zM77 352q0 -149 48 -228
l276 496q-48 44 -120 44q-99 0 -151.5 -79.5t-52.5 -232.5z" />
    <glyph glyph-name="zero.TF" horiz-adv-x="560" 
d="M77 352q0 -153 52.5 -233.5t151.5 -80.5t150.5 80.5t51.5 233.5q0 152 -52 232t-150 80q-99 0 -151.5 -79.5t-52.5 -232.5zM25 352q0 176 66 268t190 92t189 -92.5t65 -267.5q0 -176 -65 -269t-189 -93q-125 0 -190.5 93t-65.5 269z" />
    <glyph glyph-name="one.TF" horiz-adv-x="560" 
d="M495 48l-4 -48h-414l4 48h179v602l-183 -70v52l183 70h52v-654h183z" />
    <glyph glyph-name="two.TF" horiz-adv-x="560" 
d="M476 512q0 -87 -76 -191.5t-269 -272.5h362l-4 -48h-418l-4 48q165 151 228.5 222t96 129.5t32.5 111.5q0 75 -42.5 114.5t-120.5 39.5q-87 0 -173 -42l-11 48q94 41 187 41q103 0 157.5 -53.5t54.5 -146.5z" />
    <glyph glyph-name="three.TF" horiz-adv-x="560" 
d="M325 370q92 58 92 161q0 62 -42 97.5t-121 35.5q-87 0 -173 -41l-11 48q90 41 186 41q97 0 155 -46.5t58 -133.5q0 -105 -92 -181q59 -33 85.5 -80t26.5 -95q0 -87 -59 -136.5t-166 -49.5q-99 0 -194 41l11 48q86 -41 179 -41q84 0 130.5 36.5t46.5 101.5q0 46 -27 85
t-75 61h-156l4 48h142z" />
    <glyph glyph-name="four.TF" horiz-adv-x="560" 
d="M412 702v-469h123l-4 -48h-119v-185h-52v185h-332l-4 48l323 469h65zM360 233v408l-281 -408h281z" />
    <glyph glyph-name="five.TF" horiz-adv-x="560" 
d="M156 392l74 3q133 0 194 -48t61 -153q0 -96 -58.5 -150t-165.5 -54q-90 0 -187 42l11 47q84 -41 174 -41q84 0 129 41.5t45 114.5q0 152 -198 152h-131v356h345l-4 -48h-289v-262z" />
    <glyph glyph-name="six.TF" horiz-adv-x="560" 
d="M310 664q-101 0 -154 -85t-55 -241q127 70 224 70q88 0 137 -53.5t49 -152.5q0 -94 -62 -153t-166 -59q-111 0 -172.5 86.5t-61.5 244.5q0 190 68 290.5t195 100.5q79 0 168 -39l-15 -47q-87 38 -155 38zM324 360q-89 0 -222 -74q6 -120 53.5 -184t127.5 -64t128 45.5
t48 118.5q0 78 -36.5 118t-98.5 40z" />
    <glyph glyph-name="seven.TF" horiz-adv-x="560" 
d="M203 0q0 199 58.5 356t189.5 298h-397l4 48h444l4 -48q-139 -168 -195 -317t-56 -337h-52z" />
    <glyph glyph-name="eight.TF" horiz-adv-x="560" 
d="M280 712q105 0 163 -46.5t58 -122.5q0 -52 -35 -94.5t-126 -83.5q98 -42 139.5 -89.5t41.5 -109.5q0 -84 -61.5 -130t-179.5 -46t-179.5 46t-61.5 130q0 63 42.5 111t137.5 88q-89 40 -124.5 82.5t-35.5 95.5q0 77 58 123t163 46zM280 391q103 44 136 77.5t33 74.5
q0 54 -43 87.5t-126 33.5t-126 -33.5t-43 -87.5q0 -41 33 -74.5t136 -77.5zM280 339q-108 -49 -148.5 -90t-40.5 -83q0 -61 48.5 -94.5t140.5 -33.5t140.5 33.5t48.5 94.5q0 42 -41.5 84t-147.5 89z" />
    <glyph glyph-name="nine.TF" horiz-adv-x="560" 
d="M250 38q98 0 151.5 81.5t57.5 244.5q-124 -70 -224 -70q-88 0 -137 53.5t-49 152.5q0 94 63.5 153t164.5 59q111 0 172.5 -86.5t61.5 -244.5q0 -190 -68 -290.5t-195 -100.5q-80 0 -168 39l15 47q87 -38 155 -38zM236 342q91 0 222 73q-7 128 -56.5 188.5t-124.5 60.5
q-80 0 -128 -45.5t-48 -118.5q0 -78 36.5 -118t98.5 -40z" />
    <glyph glyph-name="dollar.TF" horiz-adv-x="560" 
d="M309 711q86 -3 169 -40l-11 -48q-76 37 -158 41v-291q85 -38 119.5 -64t53.5 -58t19 -75q0 -81 -52 -129t-140 -55v-110l-46 -4v112q-98 4 -181 41l11 48q78 -37 170 -41v300q-117 52 -155.5 96.5t-38.5 101.5q0 77 51 122.5t143 52.5v109l46 4v-113zM449 179
q0 37 -28 68t-112 70v-277q67 7 103.5 43t36.5 96zM121 533q0 -39 30 -70.5t112 -68.5v270q-70 -7 -106 -41t-36 -90z" />
    <glyph glyph-name="cent.TF" horiz-adv-x="560" 
d="M341 712q70 -3 137 -26l-7 -46q-71 26 -143 26q-94 0 -145.5 -56t-51.5 -160t51.5 -160t145.5 -56q72 0 143 26l7 -46q-67 -24 -137 -26v-107l-46 -4v112q-104 9 -159 77.5t-55 183.5q0 117 55.5 184t158.5 76v110l46 4v-112z" />
    <glyph glyph-name="sterling.TF" horiz-adv-x="560" 
d="M215 352l-17 44q-49 99 -49 155q0 75 37 118t106 43q83 0 166 -25l-11 -48q-84 25 -155 25q-40 0 -65.5 -26t-25.5 -75q0 -38 30 -101q34 -70 40 -110h189l-4 -46h-184q-3 -77 -32 -131.5t-109 -126.5h362l-4 -48h-418l-4 48q74 69 99 103.5t38.5 71t15.5 83.5h-154l4 46
h145z" />
    <glyph glyph-name="yen.TF" horiz-adv-x="560" 
d="M223 352l-219 348l60 4l216 -351l215 351l61 -4l-219 -348h158l-4 -46h-183l-2 -3v-117h189l-4 -46h-185v-140h-52v140h-193l4 46h189v117l-2 3h-191l4 46h158z" />
    <glyph glyph-name="florin.TF" horiz-adv-x="560" 
d="M255 548q0 83 34.5 123.5t97.5 40.5q39 0 90 -15l-5 -45q-49 14 -81 14q-43 0 -64.5 -28t-21.5 -96v-196h156l-4 -46h-152v-306q0 -83 -34.5 -123.5t-97.5 -40.5q-39 0 -90 15l5 45q49 -14 81 -14q43 0 64.5 28t21.5 96v300h-119l4 46h115v202z" />
    <glyph glyph-name="Euro.TF" horiz-adv-x="560" 
d="M100 458q21 122 93.5 188t189.5 66q88 0 177 -37l-10 -48q-84 37 -166 37q-93 0 -152 -53t-79 -153h343l-4 -46h-346l-2 -29v-32l2 -59h310l-4 -46h-299q19 -99 77.5 -153.5t153.5 -54.5q82 0 166 37l10 -48q-89 -37 -177 -37q-118 0 -190 65.5t-93 190.5h-98l4 46h88
l-2 29v30l2 61h-92l4 46h94z" />
    <glyph glyph-name="numbersign.TF" horiz-adv-x="560" 
d="M164 504l56 200l51 -4l-55 -196h212l56 200l51 -4l-55 -196h85l-4 -46h-93l-60 -214h101l-4 -46h-110l-55 -200l-51 4l54 196h-212l-55 -200l-51 4l54 196h-84l4 46h93l60 214h-101l4 46h109zM144 244h212l60 214h-212z" />
    <glyph glyph-name="zero.OSF" horiz-adv-x="632" 
d="M95 252q0 -102 56 -159t156 -57t156 57t56 159t-56 159t-156 57t-156 -57t-56 -159zM45 252q0 124 69 193t193 69t193 -69t69 -193t-69 -193t-193 -69t-193 69t-69 193z" />
    <glyph glyph-name="one.OSF" horiz-adv-x="363" 
d="M228 0v454l-183 -70v50l183 70h50v-504h-50z" />
    <glyph glyph-name="two.OSF" horiz-adv-x="466" 
d="M392 364q0 -82 -76 -165.5t-207 -152.5h312l-4 -46h-378l-4 46q127 75 185 123t90 96.5t32 98.5q0 55 -36.5 79.5t-90.5 24.5q-87 0 -159 -41l-11 46q84 41 172 41q81 0 128 -40t47 -110z" />
    <glyph glyph-name="three.OSF" horiz-adv-x="443" 
d="M251 220q79 55 79 136q0 53 -35.5 82.5t-98.5 29.5q-74 0 -150 -35l-11 45q80 36 161 36q83 0 133.5 -39.5t50.5 -117.5q0 -89 -80 -156q98 -56 98 -151q0 -76 -52.5 -118.5t-142.5 -42.5q-84 0 -168 35l11 45q75 -34 158 -34q69 0 106.5 29.5t37.5 85.5q0 36 -25.5 70
t-65.5 54h-127l4 46h117z" />
    <glyph glyph-name="four.OSF" horiz-adv-x="507" 
d="M238 504q0 -140 -38 -247t-118 -211h217v191l50 4v-195h133l-4 -46h-129v-156h-50v156h-270l-4 46q86 105 124.5 216.5t38.5 241.5h50z" />
    <glyph glyph-name="five.OSF" horiz-adv-x="436" 
d="M112 238l61 2q117 0 172.5 -42t55.5 -133q0 -83 -52.5 -130t-146.5 -47q-78 0 -167 37l11 45q78 -36 156 -36q73 0 111 35t38 96q0 67 -42 98t-131 31h-116v310h307l-4 -46h-253v-220z" />
    <glyph glyph-name="six.OSF" horiz-adv-x="501" 
d="M290 586q-88 0 -136 -73.5t-49 -210.5q111 60 196 60q78 0 121.5 -47.5t43.5 -135.5q0 -86 -56.5 -137.5t-146.5 -51.5q-100 0 -154 77.5t-54 217.5q0 168 60.5 258t174.5 90q71 0 149 -35l-15 -45q-72 33 -134 33zM300 316q-82 0 -194 -63q6 -108 48 -162.5t109 -54.5
q71 0 112 41t41 102q0 67 -31 102t-85 35z" />
    <glyph glyph-name="seven.OSF" horiz-adv-x="462" 
d="M156 -131q0 335 238 589h-379l4 46h424l4 -46q-123 -149 -182 -288.5t-59 -300.5h-50z" />
    <glyph glyph-name="eight.OSF" horiz-adv-x="515" 
d="M257 633q90 0 139.5 -39.5t49.5 -113.5q0 -48 -31 -85.5t-101 -71.5q89 -42 122.5 -83t33.5 -94q0 -74 -54 -115t-159 -41q-104 0 -158 41t-54 115q0 39 16.5 69t46 54.5t93.5 53.5q-69 33 -100.5 70.5t-31.5 86.5q0 74 49 113.5t139 39.5zM257 348q83 35 111 65t28 67
q0 47 -32.5 77t-106.5 30q-73 0 -105.5 -30t-32.5 -77q0 -26 13.5 -47.5t38.5 -39.5t86 -45zM257 297q-87 -36 -124.5 -72t-37.5 -79q0 -52 41.5 -81t120.5 -29q80 0 121.5 29t41.5 81q0 41 -35.5 76.5t-127.5 74.5z" />
    <glyph glyph-name="nine.OSF" horiz-adv-x="501" 
d="M211 -64q178 0 185 266q-108 -60 -196 -60q-78 0 -121.5 47.5t-43.5 135.5q0 86 56.5 137.5t146.5 51.5q100 0 154 -77.5t54 -217.5q0 -160 -59.5 -245t-175.5 -85q-71 0 -149 35l15 45q72 -33 134 -33zM201 188q79 0 194 62q-6 112 -49 165t-108 53q-71 0 -112 -41
t-41 -102q0 -67 31 -102t85 -35z" />
    <glyph glyph-name="zero.TOSF" horiz-adv-x="560" 
d="M75 252q0 -102 54 -159t151 -57t151 57t54 159t-54 159t-151 57t-151 -57t-54 -159zM25 252q0 124 67 193t188 69t188 -69t67 -193t-67 -193t-188 -69t-188 69t-67 193z" />
    <glyph glyph-name="one.TOSF" horiz-adv-x="560" 
d="M498 46l-4 -46h-412l4 46h179v408l-183 -70v50l183 70h50v-458h183z" />
    <glyph glyph-name="two.TOSF" horiz-adv-x="560" 
d="M444 364q0 -82 -76 -165.5t-207 -152.5h312l-4 -46h-378l-4 46q127 75 185 123t90 96.5t32 98.5q0 55 -36.5 79.5t-90.5 24.5q-87 0 -159 -41l-11 46q84 41 172 41q81 0 128 -40t47 -110z" />
    <glyph glyph-name="three.TOSF" horiz-adv-x="560" 
d="M304 220q79 55 79 136q0 53 -35.5 82.5t-98.5 29.5q-74 0 -150 -35l-11 45q80 36 161 36q83 0 133.5 -39.5t50.5 -117.5q0 -89 -80 -156q98 -56 98 -151q0 -76 -52.5 -118.5t-142.5 -42.5q-84 0 -168 35l11 45q75 -34 158 -34q69 0 106.5 29.5t37.5 85.5q0 36 -25.5 70
t-65.5 54h-127l4 46h117z" />
    <glyph glyph-name="four.TOSF" horiz-adv-x="560" 
d="M264 504q0 -140 -38 -247t-118 -211h217v191l50 4v-195h133l-4 -46h-129v-156h-50v156h-270l-4 46q86 105 124.5 216.5t38.5 241.5h50z" />
    <glyph glyph-name="five.TOSF" horiz-adv-x="560" 
d="M174 238l61 2q117 0 172.5 -42t55.5 -133q0 -83 -52.5 -130t-146.5 -47q-78 0 -167 37l11 45q78 -36 156 -36q73 0 111 35t38 96q0 67 -42 98t-131 31h-116v310h307l-4 -46h-253v-220z" />
    <glyph glyph-name="six.TOSF" horiz-adv-x="560" 
d="M319 586q-88 0 -136 -73.5t-49 -210.5q111 60 196 60q78 0 121.5 -47.5t43.5 -135.5q0 -86 -56.5 -137.5t-146.5 -51.5q-100 0 -154 77.5t-54 217.5q0 168 60.5 258t174.5 90q71 0 149 -35l-15 -45q-72 33 -134 33zM329 316q-82 0 -194 -63q6 -108 48 -162.5t109 -54.5
q71 0 112 41t41 102q0 67 -31 102t-85 35z" />
    <glyph glyph-name="seven.TOSF" horiz-adv-x="560" 
d="M195 -131q0 335 238 589h-379l4 46h424l4 -46q-123 -149 -182 -288.5t-59 -300.5h-50z" />
    <glyph glyph-name="eight.TOSF" horiz-adv-x="560" 
d="M279 633q90 0 139.5 -39.5t49.5 -113.5q0 -48 -31 -85.5t-101 -71.5q89 -42 122.5 -83t33.5 -94q0 -74 -54 -115t-159 -41q-104 0 -158 41t-54 115q0 39 16.5 69t46 54.5t93.5 53.5q-69 33 -100.5 70.5t-31.5 86.5q0 74 49 113.5t139 39.5zM279 348q83 35 111 65t28 67
q0 47 -32.5 77t-106.5 30q-73 0 -105.5 -30t-32.5 -77q0 -26 13.5 -47.5t38.5 -39.5t86 -45zM279 297q-87 -36 -124.5 -72t-37.5 -79q0 -52 41.5 -81t120.5 -29q80 0 121.5 29t41.5 81q0 41 -35.5 76.5t-127.5 74.5z" />
    <glyph glyph-name="nine.TOSF" horiz-adv-x="560" 
d="M240 -64q178 0 185 266q-108 -60 -196 -60q-78 0 -121.5 47.5t-43.5 135.5q0 86 56.5 137.5t146.5 51.5q100 0 154 -77.5t54 -217.5q0 -160 -59.5 -245t-175.5 -85q-71 0 -149 35l15 45q72 -33 134 -33zM230 188q79 0 194 62q-6 112 -49 165t-108 53q-71 0 -112 -41
t-41 -102q0 -67 31 -102t85 -35z" />
    <glyph glyph-name="zero.small" horiz-adv-x="521" 
d="M103 253q0 -105 40 -161t118 -56q77 0 117 55.5t40 161.5q0 105 -40 160t-117 55q-78 0 -118 -54.5t-40 -160.5zM53 253q0 125 52 193t156 68q102 0 154.5 -67t52.5 -194q0 -126 -52.5 -194.5t-154.5 -68.5q-104 0 -156 69t-52 194z" />
    <glyph glyph-name="one.small" horiz-adv-x="269" 
d="M167 0v454l-146 -56v50l146 56h50v-504h-50z" />
    <glyph glyph-name="two.small" horiz-adv-x="406" 
d="M355 360q0 -63 -54 -129.5t-209 -184.5h277l-4 -46h-333l-4 46q173 140 225 202t52 112q0 54 -32.5 81t-89.5 27q-64 0 -137 -32l-9 46q70 32 146 32q82 0 127 -40t45 -114z" />
    <glyph glyph-name="three.small" horiz-adv-x="400" 
d="M228 271q69 54 69 113q0 39 -30 61.5t-84 22.5q-60 0 -143 -32l-11 45q78 33 153 33q76 0 120.5 -34t44.5 -96q0 -78 -73 -132q89 -45 89 -127q0 -64 -45.5 -99.5t-127.5 -35.5q-32 0 -77.5 9t-83.5 24l11 45q31 -13 74 -22.5t76 -9.5q52 0 87.5 21t35.5 68q0 60 -82 100
h-119l4 46h112z" />
    <glyph glyph-name="four.small" horiz-adv-x="450" 
d="M201 504q0 -107 -29.5 -183.5t-93.5 -153.5h182v135l50 4v-139h119l-4 -46h-115v-121h-50v121h-235l-4 46q67 75 98.5 155t31.5 182h50z" />
    <glyph glyph-name="five.small" horiz-adv-x="394" 
d="M111 280l55 2q103 0 151 -35t48 -110q0 -71 -48 -109t-125 -38q-78 0 -155 34l11 47q70 -35 142 -35q61 0 93 27.5t32 73.5q0 48 -33.5 73.5t-116.5 25.5h-104v268h275l-3 -46h-222v-178z" />
    <glyph glyph-name="six.small" horiz-adv-x="443" 
d="M255 468q-77 0 -117.5 -59t-42.5 -162q98 46 173 46q71 0 110.5 -38.5t39.5 -110.5q0 -70 -52 -112t-132 -42q-90 0 -139.5 63t-49.5 177q0 136 54 210t156 74q70 0 138 -28l-15 -44q-69 26 -123 26zM268 247q-74 0 -172 -47q5 -78 41 -121t97 -43q64 0 99 31t35 77
q0 52 -27.5 77.5t-72.5 25.5z" />
    <glyph glyph-name="seven.small" horiz-adv-x="371" 
d="M125 0q0 146 40.5 256t133.5 202h-286l4 46h337l4 -46q-97 -103 -140 -203.5t-43 -254.5h-50z" />
    <glyph glyph-name="eight.small" horiz-adv-x="458" 
d="M237 -10q-94 0 -143 32.5t-49 91.5q0 40 32 73.5t108 65.5q-65 31 -91.5 62t-26.5 67q0 58 44 95t126 37q84 0 127 -37t43 -95q0 -78 -117 -129q82 -36 111 -68.5t29 -70.5q0 -59 -49.5 -91.5t-143.5 -32.5zM237 227q-84 -32 -113 -57t-29 -56q0 -37 36.5 -57.5
t105.5 -20.5q70 0 106.5 20.5t36.5 57.5q0 28 -27 52.5t-116 60.5zM117 382q0 -31 27 -55t93 -49q62 23 91 47.5t29 56.5q0 38 -30.5 62t-89.5 24q-58 0 -89 -24t-31 -62z" />
    <glyph glyph-name="nine.small" horiz-adv-x="443" 
d="M209 36q74 0 115.5 56.5t44.5 164.5q-96 -46 -173 -46q-71 0 -110.5 38.5t-39.5 110.5q0 70 52 112t132 42q90 0 139.5 -63t49.5 -177q0 -136 -54 -210t-156 -74q-70 0 -138 28l15 44q69 -26 123 -26zM196 257q73 0 172 47q-5 76 -41 120t-97 44q-64 0 -99 -31t-35 -77
q0 -52 27.5 -77.5t72.5 -25.5z" />
    <glyph glyph-name="dollar.small" horiz-adv-x="443" 
d="M245 514q59 -4 137 -32l-10 -45q-63 27 -127 31v-197q93 -40 123 -73.5t30 -75.5q0 -56 -39 -90t-114 -41v-89l-46 -4v92q-65 4 -136 28l11 45q72 -23 125 -27v202q-88 38 -117 71.5t-29 75.5q0 53 39 86.5t107 40.5v90l46 4v-92zM348 122q0 35 -30.5 57t-72.5 40v-182
q43 5 73 25.5t30 59.5zM103 385q0 -34 28 -55.5t68 -38.5v174q-41 -5 -68.5 -25t-27.5 -55z" />
    <glyph glyph-name="cent.small" horiz-adv-x="407" 
d="M255 514q60 -5 107 -19l-8 -45q-59 18 -112 18q-71 0 -109 -37.5t-38 -104.5t37.5 -104.5t109.5 -37.5q54 0 112 18l8 -45q-55 -17 -107 -19v-87l-46 -4v92q-164 19 -164 187q0 82 42 129.5t122 56.5v90l46 4v-92z" />
    <glyph glyph-name="sterling.small" horiz-adv-x="431" 
d="M162 260l-14 31q-36 68 -36 107q0 55 30 85.5t84 30.5q68 0 132 -18l-11 -45q-66 17 -108 17q-44 0 -60.5 -18.5t-16.5 -51.5q0 -21 20 -64q24 -52 31 -74h146l-4 -46h-136q-1 -96 -100 -168h267l-4 -46h-332l-3 46l48 41q68 59 73 127h-123l4 46h113z" />
    <glyph glyph-name="yen.small" horiz-adv-x="474" 
d="M192 237l-177 265l60 4l162 -253l165 253l57 -4l-178 -265h128l-4 -46h-143v-191h-50v191h-147l4 46h123z" />
    <glyph glyph-name="florin.small" horiz-adv-x="292" 
d="M160 -4q0 -118 -106 -118q-33 0 -71 11l3 45q34 -10 68 -10q56 0 56 72v213h-95l4 46h91v141q0 118 106 118q33 0 71 -11l-3 -45q-34 10 -68 10q-56 0 -56 -72v-141h125l-4 -46h-121v-213z" />
    <glyph glyph-name="Euro.small" horiz-adv-x="507" 
d="M65 276q5 113 69 175.5t178 62.5q78 0 150 -26l-7 -46q-71 26 -143 26q-87 0 -139.5 -49t-57.5 -143h234l-4 -46h-230q5 -92 56 -143t141 -51q72 0 143 26l7 -46q-72 -26 -150 -26q-115 0 -178.5 63t-68.5 177h-60l4 46h56z" />
    <glyph glyph-name="numbersign.small" horiz-adv-x="455" 
d="M135 362l45 144l50 -3l-44 -141h159l45 144l51 -3l-44 -141h58l-3 -46h-69l-40 -127h67l-3 -46h-78l-44 -144l-50 3l43 141h-159l-44 -144l-51 3l43 141h-67l3 46h79l39 127h-76l3 46h87zM133 189h159l39 127h-159z" />
    <glyph glyph-name="percent" unicode="%" horiz-adv-x="766" 
d="M72 513q0 -77 29 -116.5t83 -39.5t82.5 40t28.5 116q0 74 -28.5 113.5t-82.5 39.5q-48 0 -80 -34.5t-32 -118.5zM25 513q0 95 40 145.5t119 50.5q78 0 118 -50t40 -146t-39.5 -147.5t-118.5 -51.5t-119 51t-40 148zM569 702h53l-425 -702h-54zM471 191q0 -77 29 -116.5
t83 -39.5t82.5 40t28.5 116q0 74 -28.5 113.5t-82.5 39.5q-48 0 -80 -34.5t-32 -118.5zM424 191q0 95 40 145.5t119 50.5q78 0 118 -50t40 -146t-39.5 -147.5t-118.5 -51.5t-119 51t-40 148z" />
    <glyph glyph-name="perthousand" unicode="&#x2030;" horiz-adv-x="1143" 
d="M72 513q0 -77 29 -116.5t83 -39.5t82.5 40t28.5 116q0 74 -28.5 113.5t-82.5 39.5q-48 0 -80 -34.5t-32 -118.5zM25 513q0 95 40 145.5t119 50.5q78 0 118 -50t40 -146t-39.5 -147.5t-118.5 -51.5t-119 51t-40 148zM569 702h53l-425 -702h-54zM471 191q0 -77 29 -116.5
t83 -39.5t82.5 40t28.5 116q0 74 -28.5 113.5t-82.5 39.5q-48 0 -80 -34.5t-32 -118.5zM424 191q0 95 40 145.5t119 50.5q78 0 118 -50t40 -146t-39.5 -147.5t-118.5 -51.5t-119 51t-40 148zM848 191q0 -77 29 -116.5t83 -39.5t82.5 40t28.5 116q0 74 -28.5 113.5
t-82.5 39.5q-48 0 -80 -34.5t-32 -118.5zM801 191q0 95 40 145.5t119 50.5q78 0 118 -50t40 -146t-39.5 -147.5t-118.5 -51.5t-119 51t-40 148z" />
    <glyph glyph-name="fraction" unicode="&#x2044;" horiz-adv-x="489" 
d="M431 702h53l-425 -702h-54z" />
    <glyph glyph-name="asciicircum" unicode="^" horiz-adv-x="466" 
d="M397 226l-164 428l-164 -428l-54 4l186 472h64l186 -472z" />
    <glyph glyph-name="asciitilde" unicode="~" horiz-adv-x="560" 
d="M394 258q-41 0 -69.5 17t-53 38t-48.5 38t-54 17q-32 0 -49.5 -26.5t-30.5 -65.5l-49 8q36 130 128 130q40 0 69 -17t54 -38t48.5 -38t53.5 -17q32 0 49.5 26.5t30.5 65.5l49 -8q-36 -130 -128 -130z" />
    <glyph glyph-name="periodcentered" unicode="&#xb7;" horiz-adv-x="194" 
d="M97 394q18 0 30 -12t12 -30t-12 -30t-30 -12t-30 12t-12 30t12 30t30 12z" />
    <glyph glyph-name="plus" unicode="+" horiz-adv-x="560" 
d="M255 329h-215l4 46h211v213l50 4v-217h215l-3 -46h-212v-213l-50 -5v218z" />
    <glyph glyph-name="plusminus" unicode="&#xb1;" horiz-adv-x="560" 
d="M255 329h-215l4 46h211v213l50 4v-217h215l-3 -46h-212v-213l-50 -5v218zM520 46l-4 -46h-476l4 46h476z" />
    <glyph glyph-name="less" unicode="&#x3c;" horiz-adv-x="560" 
d="M40 330l4 46l464 216l17 -43l-424 -197l424 -197l-17 -43z" />
    <glyph glyph-name="equal" unicode="=" horiz-adv-x="560" 
d="M520 511l-4 -46h-476l4 46h476zM520 239l-4 -46h-476l4 46h476z" />
    <glyph glyph-name="greater" unicode="&#x3e;" horiz-adv-x="560" 
d="M520 374l-4 -46l-464 -216l-17 43l424 197l-424 197l17 43z" />
    <glyph glyph-name="bar" unicode="|" horiz-adv-x="220" 
d="M135 842v-922l-50 -4v922z" />
    <glyph glyph-name="brokenbar" unicode="&#xa6;" horiz-adv-x="220" 
d="M135 301v-381l-50 -4v381zM135 842v-381l-50 -4v381z" />
    <glyph glyph-name="multiply" unicode="&#xd7;" horiz-adv-x="560" 
d="M246 352l-183 183l37 31l180 -180l180 180l37 -31l-183 -183l183 -183l-36 -32l-181 181l-180 -180l-37 31z" />
    <glyph glyph-name="divide" unicode="&#xf7;" horiz-adv-x="560" 
d="M520 375l-4 -46h-476l4 46h476zM280 186q18 0 30 -12t12 -30t-12 -30t-30 -12t-30 12t-12 30t12 30t30 12zM280 602q18 0 30 -12t12 -30t-12 -30t-30 -12t-30 12t-12 30t12 30t30 12z" />
    <glyph glyph-name="minus" unicode="&#x2212;" horiz-adv-x="560" 
d="M520 375l-4 -46h-476l4 46h476z" />
    <glyph glyph-name="partialdiff" unicode="&#x2202;" horiz-adv-x="549" 
d="M254 438q-73 0 -111 -52.5t-38 -148.5q0 -201 165 -201q164 0 164 205q0 69 -20 159q-94 38 -160 38zM244 758q101 -77 170.5 -220.5t69.5 -284.5q0 -130 -51 -196.5t-163 -66.5q-215 0 -215 247q0 118 52 182.5t147 64.5q64 0 144 -32q-67 185 -226 306h72z" />
    <glyph glyph-name="mu" unicode="&#xb5;" horiz-adv-x="520" 
d="M125 476v-329q0 -57 24 -84t61 -27q63 0 185 72v364l50 4v-476h-40l-10 58q-116 -68 -185 -68q-49 0 -85 34v-228l-50 -4v680z" />
    <glyph glyph-name="pi" unicode="&#x3c0;" horiz-adv-x="623" 
d="M468 428v-349q0 -45 30 -45q19 0 56 14l5 -43q-39 -15 -69 -15q-72 0 -72 91v347h-214l-36 -428h-50l36 428h-99l4 46h509l-4 -46h-96z" />
    <glyph glyph-name="Delta" unicode="&#x2206;" horiz-adv-x="601" 
d="M300 654l-218 -606h436zM51 0l-26 38l241 662l68 4l242 -664l-27 -40h-498z" />
    <glyph glyph-name="product" unicode="&#x220f;" horiz-adv-x="654" 
d="M579 702v-702h-52v654h-400v-654h-52v702h504z" />
    <glyph glyph-name="summation" unicode="&#x2211;" horiz-adv-x="520" 
d="M350 354l-244 -306h369l-4 -48h-422l-4 48l241 303l-241 303l4 48h426l-4 -48h-361z" />
    <glyph glyph-name="uni03A9" unicode="&#x3a9;" horiz-adv-x="752" 
d="M306 0h-237l-4 48h178q-79 65 -127 159.5t-48 196.5q0 140 84 224t224 84t224 -83.5t84 -224.5q0 -101 -47.5 -195.5t-127.5 -160.5h178l-4 -48h-237l-4 48q90 66 141 160.5t51 196.5q0 118 -70 189.5t-188 71.5q-117 0 -187 -71t-70 -190q0 -101 51.5 -197t139.5 -160z
" />
    <glyph glyph-name="radical" unicode="&#x221a;" horiz-adv-x="627" 
d="M602 700l-255 -700h-67l-156 428h-99l4 46h133l152 -424l235 654z" />
    <glyph glyph-name="infinity" unicode="&#x221e;" horiz-adv-x="665" 
d="M650 352q0 -79 -40.5 -122t-112.5 -43q-54 0 -93.5 27t-73.5 87q-35 -62 -73 -88t-87 -26q-69 0 -112 42t-43 123t43 123t112 42q51 0 89 -27.5t71 -86.5q38 64 77.5 89t89.5 25q72 0 112.5 -43t40.5 -122zM600 352q0 57 -27 88t-76 31q-37 0 -68.5 -23.5t-70.5 -95.5
q29 -54 47.5 -74t40.5 -32.5t51 -12.5q49 0 76 31t27 88zM170 233q39 0 69 25.5t64 93.5q-37 71 -67 95t-66 24q-47 0 -76 -30t-29 -89t29 -89t76 -30z" />
    <glyph glyph-name="integral" unicode="&#x222b;" horiz-adv-x="364" 
d="M137 548q0 83 34.5 123.5t97.5 40.5q39 0 90 -15l-5 -45q-49 14 -81 14q-43 0 -64.5 -28t-21.5 -96v-548q0 -83 -34.5 -123.5t-97.5 -40.5q-39 0 -90 15l5 45q49 -14 81 -14q43 0 64.5 28t21.5 96v548z" />
    <glyph glyph-name="approxequal" unicode="&#x2248;" horiz-adv-x="560" 
d="M394 375q-41 0 -69.5 17t-53 38t-48.5 38t-54 17q-32 0 -49.5 -26.5t-30.5 -65.5l-49 8q36 130 128 130q40 0 69 -17t54 -38t48.5 -38t53.5 -17q32 0 49.5 26.5t30.5 65.5l49 -8q-36 -130 -128 -130zM394 173q-41 0 -69.5 17t-53 38t-48.5 38t-54 17q-32 0 -49.5 -26.5
t-30.5 -65.5l-49 8q36 130 128 130q40 0 69 -17t54 -38t48.5 -38t53.5 -17q32 0 49.5 26.5t30.5 65.5l49 -8q-36 -130 -128 -130z" />
    <glyph glyph-name="notequal" unicode="&#x2260;" horiz-adv-x="560" 
d="M212 239l82 226h-254l4 46h267l47 128l51 -4l-45 -124h156l-4 -46h-169l-82 -226h255l-4 -46h-268l-46 -128l-51 4l45 124h-156l4 46h168z" />
    <glyph glyph-name="lessequal" unicode="&#x2264;" horiz-adv-x="560" 
d="M40 330l4 46l464 216l17 -43l-424 -197l424 -197l-17 -43zM520 46l-4 -46h-476l4 46h476z" />
    <glyph glyph-name="greaterequal" unicode="&#x2265;" horiz-adv-x="560" 
d="M520 374l-4 -46l-464 -216l-17 43l424 197l-424 197l17 43zM520 46l-4 -46h-476l4 46h476z" />
    <glyph glyph-name="lozenge" unicode="&#x25ca;" horiz-adv-x="584" 
d="M318 702l221 -351l-221 -351h-52l-221 351l221 351h52zM292 52l187 299l-187 299l-187 -299z" />
    <glyph glyph-name="logicalnot" unicode="&#xac;" horiz-adv-x="560" 
d="M468 329h-428l4 46h474v-259l-50 -5v218z" />
    <glyph glyph-name="estimated" unicode="&#x212e;" horiz-adv-x="792" 
d="M137 327v-156q40 -63 107 -98t152 -35t152 35.5t107 98.5l43 -30q-47 -72 -124.5 -112t-177.5 -40q-159 0 -260 101.5t-101 259.5q0 159 101.5 260t259.5 101q159 0 260 -101.5t101 -259.5l-1 -24h-619zM137 375h518v155q-40 63 -107 98.5t-152 35.5t-152 -35.5
t-107 -98.5v-155z" />
    <glyph glyph-name="afii61289" unicode="&#x2113;" horiz-adv-x="337" 
d="M173 -10q-98 0 -98 114v605l47 3q104 0 159.5 -53.5t55.5 -146.5q0 -77 -53.5 -159t-158.5 -184v-66q0 -66 53 -66q32 0 87 17l5 -45q-62 -19 -97 -19zM285 511q0 72 -42.5 113t-117.5 41v-428q77 81 118.5 147t41.5 127z" />
    <glyph glyph-name="emptyset" unicode="&#x2205;" horiz-adv-x="594" 
d="M517 680l-65 -113q50 -34 78.5 -89.5t28.5 -126.5q0 -115 -73 -188.5t-189 -73.5q-62 0 -111 21l-63 -110l-45 22l65 112q-51 34 -79.5 89.5t-28.5 127.5q0 115 73 188.5t189 73.5q61 0 111 -21l64 110zM85 351q0 -113 82 -176l217 375q-40 17 -87 17q-94 0 -153 -60.5
t-59 -155.5zM509 351q0 112 -82 175l-217 -375q38 -16 87 -16q94 0 153 60.5t59 155.5z" />
    <glyph glyph-name="degree" unicode="&#xb0;" horiz-adv-x="319" 
d="M83 585q0 -35 21 -57.5t55 -22.5t55.5 22.5t21.5 57.5q0 36 -21.5 58.5t-55.5 22.5t-55 -22.5t-21 -58.5zM33 585q0 57 35 92t91 35q57 0 92 -35t35 -92q0 -56 -35 -91t-92 -35q-56 0 -91 35t-35 91z" />
    <glyph glyph-name="ordfeminine" unicode="&#xaa;" horiz-adv-x="299" 
d="M206 613q0 57 -48 57q-36 0 -111 -25l-7 41q73 26 123 26q90 0 90 -97v-208h-35l-7 36q-50 -42 -104 -42q-32 0 -55.5 18.5t-23.5 58.5q0 50 43.5 72.5t134.5 29.5v33zM114 440q54 0 92 43v60q-66 -5 -99.5 -19t-33.5 -43q0 -41 41 -41z" />
    <glyph glyph-name="ordmasculine" unicode="&#xba;" horiz-adv-x="346" 
d="M81 556q0 -113 92 -113t92 113q0 114 -92 114t-92 -114zM34 556q0 81 38 118.5t101 37.5t101 -37.5t38 -118.5t-38 -118t-101 -37t-101 37t-38 118z" />
    <glyph glyph-name="underscore" unicode="_" horiz-adv-x="448" 
d="M443 -29l-4 -46h-434l4 46h434z" />
    <glyph glyph-name="emdash" unicode="&#x2014;" horiz-adv-x="1061" 
d="M1026 260l-4 -46h-997l4 46h997z" />
    <glyph glyph-name="endash" unicode="&#x2013;" horiz-adv-x="564" 
d="M539 260l-4 -46h-510l4 46h510z" />
    <glyph glyph-name="hyphen" unicode="-" horiz-adv-x="265" 
d="M230 260l-4 -46h-191l4 46h191z" />
    <glyph glyph-name="quotesingle" unicode="'" horiz-adv-x="125" 
d="M90 702l-7 -218h-41l-7 218h55z" />
    <glyph glyph-name="quotedbl" unicode="&#x22;" horiz-adv-x="230" 
d="M90 702l-7 -218h-41l-7 218h55zM195 702l-7 -218h-41l-7 218h55z" />
    <glyph glyph-name="quotedblleft" unicode="&#x201c;" horiz-adv-x="290" 
d="M186 577q-15 44 -15 87q0 63 42 153l47 -5q-31 -66 -31 -123q0 -45 21 -107zM46 577q-15 44 -15 87q0 63 42 153l47 -5q-31 -66 -31 -123q0 -45 21 -107z" />
    <glyph glyph-name="guillemotleft" unicode="&#xab;" horiz-adv-x="443" 
d="M25 215l4 46l186 186l33 -38l-177 -172l177 -172l-33 -38zM195 215l4 46l186 186l33 -38l-177 -172l177 -172l-33 -38z" />
    <glyph glyph-name="guilsinglleft" unicode="&#x2039;" horiz-adv-x="273" 
d="M25 215l4 46l186 186l33 -38l-177 -172l177 -172l-33 -38z" />
    <glyph glyph-name="guilsinglright" unicode="&#x203a;" horiz-adv-x="273" 
d="M248 259l-4 -46l-186 -186l-33 38l177 172l-177 172l33 38z" />
    <glyph glyph-name="guillemotright" unicode="&#xbb;" horiz-adv-x="443" 
d="M418 259l-4 -46l-186 -186l-33 38l177 172l-177 172l33 38zM248 259l-4 -46l-186 -186l-33 38l177 172l-177 172l33 38z" />
    <glyph glyph-name="quotesinglbase" unicode="&#x201a;" horiz-adv-x="150" 
d="M104 105q15 -44 15 -87q0 -63 -42 -153l-47 5q31 66 31 123q0 45 -21 107z" />
    <glyph glyph-name="quotedblbase" unicode="&#x201e;" horiz-adv-x="290" 
d="M104 105q15 -44 15 -87q0 -63 -42 -153l-47 5q31 66 31 123q0 45 -21 107zM244 105q15 -44 15 -87q0 -63 -42 -153l-47 5q31 66 31 123q0 45 -21 107z" />
    <glyph glyph-name="quotedblright" unicode="&#x201d;" horiz-adv-x="290" 
d="M104 817q15 -44 15 -87q0 -63 -42 -153l-47 5q31 66 31 123q0 45 -21 107zM244 817q15 -44 15 -87q0 -63 -42 -153l-47 5q31 66 31 123q0 45 -21 107z" />
    <glyph glyph-name="quoteright" unicode="&#x2019;" horiz-adv-x="150" 
d="M104 817q15 -44 15 -87q0 -63 -42 -153l-47 5q31 66 31 123q0 45 -21 107z" />
    <glyph glyph-name="quoteleft" unicode="&#x2018;" horiz-adv-x="150" 
d="M46 577q-15 44 -15 87q0 63 42 153l47 -5q-31 -66 -31 -123q0 -45 21 -107z" />
    <glyph glyph-name="comma" unicode="," horiz-adv-x="194" 
d="M124 105q15 -44 15 -87q0 -63 -42 -153l-47 5q31 66 31 123q0 45 -21 107z" />
    <glyph glyph-name="period" unicode="." horiz-adv-x="194" 
d="M97 79q18 0 30 -12t12 -30t-12 -30t-30 -12t-30 12t-12 30t12 30t30 12z" />
    <glyph glyph-name="colon" unicode=":" horiz-adv-x="194" 
d="M97 79q18 0 30 -12t12 -30t-12 -30t-30 -12t-30 12t-12 30t12 30t30 12zM97 479q18 0 30 -12t12 -30t-12 -30t-30 -12t-30 12t-12 30t12 30t30 12z" />
    <glyph glyph-name="semicolon" unicode=";" horiz-adv-x="194" 
d="M124 105q15 -44 15 -87q0 -63 -42 -153l-47 5q31 66 31 123q0 45 -21 107zM97 479q18 0 30 -12t12 -30t-12 -30t-30 -12t-30 12t-12 30t12 30t30 12z" />
    <glyph glyph-name="ellipsis" unicode="&#x2026;" horiz-adv-x="770" 
d="M97 79q18 0 30 -12t12 -30t-12 -30t-30 -12t-30 12t-12 30t12 30t30 12zM385 79q18 0 30 -12t12 -30t-12 -30t-30 -12t-30 12t-12 30t12 30t30 12zM673 79q18 0 30 -12t12 -30t-12 -30t-30 -12t-30 12t-12 30t12 30t30 12z" />
    <glyph glyph-name="question" unicode="?" horiz-adv-x="469" 
d="M201 174l-1 164q87 21 134.5 70.5t47.5 122.5q0 63 -43 98t-111 35q-76 0 -182 -31l-11 48q99 31 185 31q99 0 156.5 -47t57.5 -133q0 -75 -50 -138t-136 -88l-1 -128zM224 79q18 0 30 -12t12 -30t-12 -30t-30 -12t-30 12t-12 30t12 30t30 12z" />
    <glyph glyph-name="questiondown" unicode="&#xbf;" horiz-adv-x="469" 
d="M269 300l1 -164q-87 -21 -134.5 -70.5t-47.5 -122.5q0 -63 43 -98t111 -35q76 0 182 31l11 -48q-99 -31 -185 -31q-99 0 -156.5 47t-57.5 133q0 75 50 138t136 88l1 128zM246 395q-18 0 -30 12t-12 30t12 30t30 12t30 -12t12 -30t-12 -30t-30 -12z" />
    <glyph glyph-name="exclam" unicode="!" horiz-adv-x="344" 
d="M149 174l-4 528h54l-4 -524zM172 79q18 0 30 -12t12 -30t-12 -30t-30 -12t-30 12t-12 30t12 30t30 12z" />
    <glyph glyph-name="exclamdown" unicode="&#xa1;" horiz-adv-x="344" 
d="M195 300l4 -528h-54l4 524zM172 395q-18 0 -30 12t-12 30t12 30t30 12t30 -12t12 -30t-12 -30t-30 -12z" />
    <glyph glyph-name="parenleft" unicode="(" horiz-adv-x="316" 
d="M45 379q0 166 63.5 283t181.5 179l41 -33q-114 -54 -174 -163.5t-60 -265.5t60 -265.5t174 -163.5l-41 -33q-118 62 -181.5 179t-63.5 283z" />
    <glyph glyph-name="parenright" unicode=")" horiz-adv-x="316" 
d="M271 379q0 -166 -63.5 -283t-181.5 -179l-41 33q114 54 174 163.5t60 265.5t-60 265.5t-174 163.5l41 33q118 -62 181.5 -179t63.5 -283z" />
    <glyph glyph-name="bracketleft" unicode="[" horiz-adv-x="262" 
d="M257 838l-4 -46h-118v-826h122l-4 -46h-168v918h172z" />
    <glyph glyph-name="bracketright" unicode="]" horiz-adv-x="262" 
d="M5 -80l4 46h118v826h-122l4 46h168v-918h-172z" />
    <glyph glyph-name="braceleft" unicode="{" horiz-adv-x="322" 
d="M137 674q0 85 38 124.5t115 39.5h7l-4 -46q-55 0 -80.5 -27t-25.5 -97v-138q0 -117 -70 -151q70 -34 70 -151v-138q0 -69 26 -96.5t78 -27.5h6l-4 -46h-6q-150 0 -150 164v148q0 67 -21 95.5t-65 28.5h-26l4 46h27q42 2 61.5 31t19.5 93v148z" />
    <glyph glyph-name="braceright" unicode="}" horiz-adv-x="322" 
d="M185 84q0 -85 -38 -124.5t-115 -39.5h-7l4 46q55 0 80.5 27t25.5 97v138q0 117 70 151q-70 34 -70 151v138q0 69 -26 96.5t-78 27.5h-6l4 46h6q150 0 150 -164v-148q0 -67 21 -95.5t65 -28.5h26l-4 -46h-27q-42 -2 -61.5 -31t-19.5 -93v-148z" />
    <glyph glyph-name="slash" unicode="/" horiz-adv-x="293" 
d="M338 834l-332 -914l-51 4l332 914z" />
    <glyph glyph-name="backslash" unicode="\" horiz-adv-x="293" 
d="M6 838l332 -914l-51 -4l-332 914z" />
    <glyph glyph-name="asterisk" unicode="*" horiz-adv-x="466" 
d="M49 591l160 -59l-7 168l57 4l-6 -172l157 58l21 -53l-163 -47l103 -130l-44 -37l-96 143l-94 -140l-48 30l105 135l-159 45z" />
    <glyph glyph-name="bullet" unicode="&#x2022;" horiz-adv-x="382" 
d="M35 351q0 69 43.5 112.5t112.5 43.5t112.5 -43.5t43.5 -112.5t-43.5 -112.5t-112.5 -43.5t-112.5 43.5t-43.5 112.5z" />
    <glyph glyph-name="section" unicode="&#xa7;" horiz-adv-x="578" 
d="M309 664h-14l-12 -1q-7 -35 -7 -67q0 -121 108 -268q77 -107 108 -176t31 -135q0 -108 -69.5 -170.5t-184.5 -62.5q-90 0 -184 41l12 47q94 -40 172 -40h13l13 1q7 35 7 67q0 120 -107 268q-78 106 -109 175t-31 136q0 107 68.5 170t185.5 63q90 0 184 -41l-12 -47
q-94 40 -172 40zM107 479q0 -56 27.5 -116t108.5 -175q110 -158 110 -287q0 -28 -4 -57q54 18 88 61t34 112q0 58 -33 125.5t-103 165.5q-111 154 -111 287q0 28 4 57q-54 -18 -87.5 -61t-33.5 -112z" />
    <glyph glyph-name="dagger" unicode="&#x2020;" horiz-adv-x="518" 
d="M233 -70l5 497l-213 -5l4 52l209 -5l-5 231l56 4l-5 -235l213 5l-4 -52l-209 5l5 -493z" />
    <glyph glyph-name="daggerdbl" unicode="&#x2021;" horiz-adv-x="518" 
d="M238 427l-213 -5l4 52l209 -5l-5 231l56 4l-5 -235l213 5l-4 -52l-209 5l5 -177l-5 -181l213 5l-4 -52l-209 5l5 -231l-56 -4l5 235l-213 -5l4 52l209 -5l-5 177z" />
    <glyph glyph-name="paragraph" unicode="&#xb6;" horiz-adv-x="503" 
d="M503 702l-4 -48h-65v-654h-52v654h-82v-654h-52v390h-57q-69 0 -112.5 43.5t-43.5 112.5t43.5 112.5t112.5 43.5h312z" />
    <glyph glyph-name="copyright" unicode="&#xa9;" horiz-adv-x="792" 
d="M85 351q0 -139 86.5 -227t224.5 -88t224.5 88t86.5 227t-86.5 227t-224.5 88t-224.5 -88t-86.5 -227zM35 351q0 160 100.5 260.5t260.5 100.5t260.5 -100.5t100.5 -260.5t-100.5 -260.5t-260.5 -100.5t-260.5 100.5t-100.5 260.5zM402 501q-64 0 -99.5 -39t-35.5 -111
t35.5 -111.5t99.5 -39.5q54 0 106 20l7 -46q-55 -20 -113 -20q-88 0 -136.5 51t-48.5 146q0 93 48 144.5t137 51.5q58 0 113 -20l-7 -46q-52 20 -106 20z" />
    <glyph glyph-name="publish" horiz-adv-x="792" 
d="M85 351q0 -139 86.5 -227t224.5 -88t224.5 88t86.5 227t-86.5 227t-224.5 88t-224.5 -88t-86.5 -227zM35 351q0 160 100.5 260.5t260.5 100.5t260.5 -100.5t100.5 -260.5t-100.5 -260.5t-260.5 -100.5t-260.5 100.5t-100.5 260.5zM330 160h-50v378h104q169 0 169 -121
q0 -65 -47 -97t-119 -32q-27 0 -57 4v-132zM330 338q22 -4 58 -4q49 0 82 20t33 62q0 76 -115 76h-58v-154z" />
    <glyph glyph-name="registered" unicode="&#xae;" horiz-adv-x="432" 
d="M35 531q0 81 49.5 131t131.5 50q81 0 131 -49.5t50 -131.5q0 -81 -49.5 -131t-131.5 -50q-81 0 -131 49.5t-50 131.5zM73 531q0 -64 39.5 -105t103.5 -41t103.5 40.5t39.5 105.5q0 64 -39.5 105t-103.5 41t-103.5 -40.5t-39.5 -105.5zM188 434h-39v192h60q80 0 80 -64
q0 -38 -36 -56q6 -39 25 -39q10 0 23 5l5 -34q-18 -7 -35 -7q-42 0 -57 66h-6l-20 2v-65zM188 534l20 -2q18 0 30 8.5t12 22.5q0 29 -41 29h-21v-58z" />
    <glyph glyph-name="trademark" unicode="&#x2122;" horiz-adv-x="582" 
d="M5 669l2 33h213l-2 -33h-88v-219h-35v219h-90zM277 647v-197h-35v251l49 2l83 -211l84 211l49 -2v-251h-35v197l-78 -196l-38 -2z" />
    <glyph glyph-name="at" unicode="@" horiz-adv-x="1016" 
d="M663 118q0 -82 62 -82q78 0 127 69t49 205q0 165 -90 250.5t-256 85.5q-207 0 -323.5 -130.5t-116.5 -362.5q0 -153 86 -238t250 -85q102 0 196 40l19 -43q-98 -43 -215 -43q-188 0 -287 97t-99 272q0 254 130 396.5t360 142.5q191 0 293.5 -97t102.5 -285
q0 -147 -60.5 -233.5t-165.5 -86.5q-109 0 -113 133q-108 -133 -198 -133q-60 0 -92.5 48t-32.5 137q0 97 28 166t78.5 106t116.5 37q72 0 188 -53l-34 -276zM646 404q-76 34 -134 34q-80 0 -126.5 -70.5t-46.5 -192.5q0 -62 18 -100.5t57 -38.5q43 0 100 47t108 127z" />
    <glyph glyph-name="zero.superior" unicode="&#x2070;" horiz-adv-x="396" 
d="M87 651q0 -77 29 -116.5t83 -39.5t82.5 40t28.5 116q0 74 -28.5 113.5t-82.5 39.5q-48 0 -80 -34.5t-32 -118.5zM40 651q0 95 40 145.5t119 50.5q78 0 118 -50t40 -146t-39.5 -147.5t-118.5 -51.5t-119 51t-40 148z" />
    <glyph glyph-name="one.superior" horiz-adv-x="297" 
d="M282 502l-3 -42h-259l3 42h105v290l-108 -41v47l111 42h43v-338h108z" />
    <glyph glyph-name="two.superior" horiz-adv-x="312" 
d="M273 730q0 -48 -42 -98.5t-150 -129.5h202l-3 -42h-255l-3 42q128 101 165.5 145.5t37.5 81.5q0 75 -87 75q-52 0 -102 -24l-9 43q54 24 114 24q63 0 97.5 -31t34.5 -86z" />
    <glyph glyph-name="three.superior" horiz-adv-x="309" 
d="M174 668q47 36 47 78q0 58 -80 58q-53 0 -108 -24l-10 42q55 25 118 25q60 0 93.5 -25.5t33.5 -73.5q0 -56 -55 -98q67 -34 67 -95q0 -48 -35 -75.5t-99 -27.5q-57 0 -123 25l10 42q63 -24 113 -24q87 0 87 62q0 41 -56 70h-89l3 41h83z" />
    <glyph glyph-name="four.superior" unicode="&#x2074;" horiz-adv-x="342" 
d="M158 840q0 -79 -22.5 -137t-68.5 -113h129v99l46 4v-103h86l-4 -42h-82v-88h-46v88h-176l-4 42q49 55 72 115t23 135h47z" />
    <glyph glyph-name="five.superior" unicode="&#x2075;" horiz-adv-x="304" 
d="M91 673l50 3q141 0 141 -111q0 -53 -35.5 -83t-99.5 -30q-56 0 -120 26l10 43q56 -26 108 -26q38 0 64 16.5t26 54.5q0 34 -23.5 51.5t-82.5 17.5h-83v205h213l-2 -43h-166v-124z" />
    <glyph glyph-name="six.superior" unicode="&#x2076;" horiz-adv-x="339" 
d="M196 804q-108 0 -115 -154q70 33 124 33t84 -29t30 -84q0 -51 -37 -84.5t-104 -33.5q-63 0 -103.5 44t-40.5 137q0 101 40.5 157.5t120.5 56.5q54 0 106 -20l-12 -41q-50 18 -93 18zM202 642q-50 0 -120 -33q9 -114 97 -114q45 0 69.5 21.5t24.5 53.5q0 36 -19.5 54
t-51.5 18z" />
    <glyph glyph-name="seven.superior" unicode="&#x2077;" horiz-adv-x="284" 
d="M93 460q0 109 29.5 188t99.5 149h-212l4 43h257l3 -43q-76 -82 -105.5 -156.5t-29.5 -180.5h-46z" />
    <glyph glyph-name="eight.superior" unicode="&#x2078;" horiz-adv-x="350" 
d="M181 847q66 0 98.5 -28.5t32.5 -71.5q0 -36 -26 -58t-60 -38q102 -43 102 -105q0 -43 -37 -68.5t-110 -25.5q-74 0 -110.5 25.5t-36.5 68.5q0 62 102 105q-34 16 -60.5 38.5t-26.5 57.5q0 43 33 71.5t99 28.5zM181 672q34 14 59 30t25 43q0 26 -21 43.5t-63 17.5
t-63.5 -17.5t-21.5 -43.5q0 -27 25 -43t60 -30zM181 629l-36 -15q-65 -27 -65 -65q0 -26 26 -40.5t75 -14.5t75 14.5t26 40.5q0 22 -22.5 40.5t-78.5 39.5z" />
    <glyph glyph-name="nine.superior" unicode="&#x2079;" horiz-adv-x="339" 
d="M156 495q108 0 115 154q-66 -32 -124 -32q-53 0 -83.5 29t-30.5 84q0 51 37.5 84t103.5 33q63 0 104 -43.5t41 -137.5q0 -100 -40 -157t-121 -57q-51 0 -106 21l13 41q51 -19 91 -19zM150 657q49 0 121 34q-5 61 -32.5 87.5t-64.5 26.5q-45 0 -69.5 -22t-24.5 -54
q0 -36 19 -54t51 -18z" />
    <glyph glyph-name="parenleft.superior" unicode="&#x207d;" horiz-adv-x="201" 
d="M35 650q0 184 148 252l29 -29q-130 -65 -130 -223q0 -160 130 -223l-29 -30q-148 70 -148 253z" />
    <glyph glyph-name="parenright.superior" unicode="&#x207e;" horiz-adv-x="201" 
d="M166 650q0 -184 -147 -252l-30 29q131 66 131 223q0 160 -131 223l30 30q147 -70 147 -253z" />
    <glyph glyph-name="plus.superior" unicode="&#x207a;" horiz-adv-x="345" 
d="M151 630h-121l4 41h117v107l45 3v-110h120l-3 -41h-117v-107l-45 -4v111z" />
    <glyph glyph-name="minus.superior" unicode="&#x207b;" horiz-adv-x="345" 
d="M316 671l-3 -41h-283l4 41h282z" />
    <glyph glyph-name="equal.superior" unicode="&#x207c;" horiz-adv-x="345" 
d="M316 744l-3 -42h-283l4 42h282zM316 604l-3 -41h-283l4 41h282z" />
    <glyph glyph-name="period.superior" horiz-adv-x="154" 
d="M77 527q15 0 25 -10t10 -25q0 -16 -10 -26.5t-25 -10.5t-25 10.5t-10 26.5q0 15 10 25t25 10z" />
    <glyph glyph-name="comma.superior" horiz-adv-x="154" 
d="M101 544q12 -35 12 -67q0 -50 -33 -121l-42 4q24 52 24 94q0 39 -16 86z" />
    <glyph glyph-name="zero.inferior" unicode="&#x2080;" horiz-adv-x="396" 
d="M87 41q0 -77 29 -116.5t83 -39.5t82.5 40t28.5 116q0 74 -28.5 113.5t-82.5 39.5q-48 0 -80 -34.5t-32 -118.5zM40 41q0 95 40 145.5t119 50.5q78 0 118 -50t40 -146t-39.5 -147.5t-118.5 -51.5t-119 51t-40 148z" />
    <glyph glyph-name="one.inferior" unicode="&#x2081;" horiz-adv-x="297" 
d="M282 -108l-3 -42h-259l3 42h105v290l-108 -41v47l111 42h43v-338h108z" />
    <glyph glyph-name="two.inferior" unicode="&#x2082;" horiz-adv-x="312" 
d="M273 120q0 -48 -42 -98.5t-150 -129.5h202l-3 -42h-255l-3 42q128 101 165.5 145.5t37.5 81.5q0 75 -87 75q-52 0 -102 -24l-9 43q54 24 114 24q63 0 97.5 -31t34.5 -86z" />
    <glyph glyph-name="three.inferior" unicode="&#x2083;" horiz-adv-x="309" 
d="M174 58q47 36 47 78q0 58 -80 58q-53 0 -108 -24l-10 42q55 25 118 25q60 0 93.5 -25.5t33.5 -73.5q0 -56 -55 -98q67 -34 67 -95q0 -48 -35 -75.5t-99 -27.5q-57 0 -123 25l10 42q63 -24 113 -24q87 0 87 62q0 41 -56 70h-89l3 41h83z" />
    <glyph glyph-name="four.inferior" unicode="&#x2084;" horiz-adv-x="342" 
d="M158 230q0 -79 -22.5 -137t-68.5 -113h129v99l46 4v-103h86l-4 -42h-82v-88h-46v88h-176l-4 42q49 55 72 115t23 135h47z" />
    <glyph glyph-name="five.inferior" unicode="&#x2085;" horiz-adv-x="304" 
d="M91 63l50 3q141 0 141 -111q0 -53 -35.5 -83t-99.5 -30q-56 0 -120 26l10 43q56 -26 108 -26q38 0 64 16.5t26 54.5q0 34 -23.5 51.5t-82.5 17.5h-83v205h213l-2 -43h-166v-124z" />
    <glyph glyph-name="six.inferior" unicode="&#x2086;" horiz-adv-x="339" 
d="M196 194q-108 0 -115 -154q70 33 124 33t84 -29t30 -84q0 -51 -37 -84.5t-104 -33.5q-63 0 -103.5 44t-40.5 137q0 101 40.5 157.5t120.5 56.5q54 0 106 -20l-12 -41q-50 18 -93 18zM202 32q-50 0 -120 -33q9 -114 97 -114q45 0 69.5 21.5t24.5 53.5q0 36 -19.5 54
t-51.5 18z" />
    <glyph glyph-name="seven.inferior" unicode="&#x2087;" horiz-adv-x="284" 
d="M93 -150q0 109 29.5 188t99.5 149h-212l4 43h257l3 -43q-76 -82 -105.5 -156.5t-29.5 -180.5h-46z" />
    <glyph glyph-name="eight.inferior" unicode="&#x2088;" horiz-adv-x="350" 
d="M181 237q66 0 98.5 -28.5t32.5 -71.5q0 -36 -26 -58t-60 -38q102 -43 102 -105q0 -43 -37 -68.5t-110 -25.5q-74 0 -110.5 25.5t-36.5 68.5q0 62 102 105q-34 16 -60.5 38.5t-26.5 57.5q0 43 33 71.5t99 28.5zM181 62q34 14 59 30t25 43q0 26 -21 43.5t-63 17.5
t-63.5 -17.5t-21.5 -43.5q0 -27 25 -43t60 -30zM181 19l-36 -15q-65 -27 -65 -65q0 -26 26 -40.5t75 -14.5t75 14.5t26 40.5q0 22 -22.5 40.5t-78.5 39.5z" />
    <glyph glyph-name="nine.inferior" unicode="&#x2089;" horiz-adv-x="339" 
d="M156 -115q108 0 115 154q-66 -32 -124 -32q-53 0 -83.5 29t-30.5 84q0 51 37.5 84t103.5 33q63 0 104 -43.5t41 -137.5q0 -100 -40 -157t-121 -57q-51 0 -106 21l13 41q51 -19 91 -19zM150 47q49 0 121 34q-5 61 -32.5 87.5t-64.5 26.5q-45 0 -69.5 -22t-24.5 -54
q0 -36 19 -54t51 -18z" />
    <glyph glyph-name="parenleft.inferior" unicode="&#x208d;" horiz-adv-x="201" 
d="M35 40q0 184 148 252l29 -29q-130 -65 -130 -223q0 -160 130 -223l-29 -30q-148 70 -148 253z" />
    <glyph glyph-name="parenright.inferior" unicode="&#x208e;" horiz-adv-x="201" 
d="M166 40q0 -184 -147 -252l-30 29q131 66 131 223q0 160 -131 223l30 30q147 -70 147 -253z" />
    <glyph glyph-name="plus.inferior" horiz-adv-x="345" 
d="M151 20h-121l4 41h117v107l45 3v-110h120l-3 -41h-117v-107l-45 -4v111z" />
    <glyph glyph-name="minus.inferior" horiz-adv-x="345" 
d="M316 61l-3 -41h-283l4 41h282z" />
    <glyph glyph-name="equal.inferior" horiz-adv-x="345" 
d="M316 134l-3 -42h-283l4 42h282zM316 -6l-3 -41h-283l4 41h282z" />
    <glyph glyph-name="period.inferior" horiz-adv-x="154" 
d="M77 -83q15 0 25 -10t10 -25q0 -16 -10 -26.5t-25 -10.5t-25 10.5t-10 26.5q0 15 10 25t25 10z" />
    <glyph glyph-name="comma.inferior" horiz-adv-x="154" 
d="M101 -66q12 -35 12 -67q0 -50 -33 -121l-42 4q24 52 24 94q0 39 -16 86z" />
    <glyph glyph-name="zero.numr" horiz-adv-x="396" 
d="M87 513q0 -77 29 -116.5t83 -39.5t82.5 40t28.5 116q0 74 -28.5 113.5t-82.5 39.5q-48 0 -80 -34.5t-32 -118.5zM40 513q0 95 40 145.5t119 50.5q78 0 118 -50t40 -146t-39.5 -147.5t-118.5 -51.5t-119 51t-40 148z" />
    <glyph glyph-name="one.numr" horiz-adv-x="297" 
d="M282 364l-3 -42h-259l3 42h105v290l-108 -41v47l111 42h43v-338h108z" />
    <glyph glyph-name="two.numr" horiz-adv-x="312" 
d="M273 592q0 -48 -42 -98.5t-150 -129.5h202l-3 -42h-255l-3 42q128 101 165.5 145.5t37.5 81.5q0 75 -87 75q-52 0 -102 -24l-9 43q54 24 114 24q63 0 97.5 -31t34.5 -86z" />
    <glyph glyph-name="three.numr" horiz-adv-x="309" 
d="M174 530q47 36 47 78q0 58 -80 58q-53 0 -108 -24l-10 42q55 25 118 25q60 0 93.5 -25.5t33.5 -73.5q0 -56 -55 -98q67 -34 67 -95q0 -48 -35 -75.5t-99 -27.5q-57 0 -123 25l10 42q63 -24 113 -24q87 0 87 62q0 41 -56 70h-89l3 41h83z" />
    <glyph glyph-name="four.numr" horiz-adv-x="342" 
d="M158 702q0 -79 -22.5 -137t-68.5 -113h129v99l46 4v-103h86l-4 -42h-82v-88h-46v88h-176l-4 42q49 55 72 115t23 135h47z" />
    <glyph glyph-name="five.numr" horiz-adv-x="304" 
d="M91 535l50 3q141 0 141 -111q0 -53 -35.5 -83t-99.5 -30q-56 0 -120 26l10 43q56 -26 108 -26q38 0 64 16.5t26 54.5q0 34 -23.5 51.5t-82.5 17.5h-83v205h213l-2 -43h-166v-124z" />
    <glyph glyph-name="six.numr" horiz-adv-x="339" 
d="M196 666q-108 0 -115 -154q70 33 124 33t84 -29t30 -84q0 -51 -37 -84.5t-104 -33.5q-63 0 -103.5 44t-40.5 137q0 101 40.5 157.5t120.5 56.5q54 0 106 -20l-12 -41q-50 18 -93 18zM202 504q-50 0 -120 -33q9 -114 97 -114q45 0 69.5 21.5t24.5 53.5q0 36 -19.5 54
t-51.5 18z" />
    <glyph glyph-name="seven.numr" horiz-adv-x="284" 
d="M93 322q0 109 29.5 188t99.5 149h-212l4 43h257l3 -43q-76 -82 -105.5 -156.5t-29.5 -180.5h-46z" />
    <glyph glyph-name="eight.numr" horiz-adv-x="350" 
d="M181 709q66 0 98.5 -28.5t32.5 -71.5q0 -36 -26 -58t-60 -38q102 -43 102 -105q0 -43 -37 -68.5t-110 -25.5q-74 0 -110.5 25.5t-36.5 68.5q0 62 102 105q-34 16 -60.5 38.5t-26.5 57.5q0 43 33 71.5t99 28.5zM181 534q34 14 59 30t25 43q0 26 -21 43.5t-63 17.5
t-63.5 -17.5t-21.5 -43.5q0 -27 25 -43t60 -30zM181 491l-36 -15q-65 -27 -65 -65q0 -26 26 -40.5t75 -14.5t75 14.5t26 40.5q0 22 -22.5 40.5t-78.5 39.5z" />
    <glyph glyph-name="nine.numr" horiz-adv-x="339" 
d="M156 357q108 0 115 154q-66 -32 -124 -32q-53 0 -83.5 29t-30.5 84q0 51 37.5 84t103.5 33q63 0 104 -43.5t41 -137.5q0 -100 -40 -157t-121 -57q-51 0 -106 21l13 41q51 -19 91 -19zM150 519q49 0 121 34q-5 61 -32.5 87.5t-64.5 26.5q-45 0 -69.5 -22t-24.5 -54
q0 -36 19 -54t51 -18z" />
    <glyph glyph-name="zero.dnom" horiz-adv-x="396" 
d="M87 191q0 -77 29 -116.5t83 -39.5t82.5 40t28.5 116q0 74 -28.5 113.5t-82.5 39.5q-48 0 -80 -34.5t-32 -118.5zM40 191q0 95 40 145.5t119 50.5q78 0 118 -50t40 -146t-39.5 -147.5t-118.5 -51.5t-119 51t-40 148z" />
    <glyph glyph-name="one.dnom" horiz-adv-x="297" 
d="M282 42l-3 -42h-259l3 42h105v290l-108 -41v47l111 42h43v-338h108z" />
    <glyph glyph-name="two.dnom" horiz-adv-x="312" 
d="M273 270q0 -48 -42 -98.5t-150 -129.5h202l-3 -42h-255l-3 42q128 101 165.5 145.5t37.5 81.5q0 75 -87 75q-52 0 -102 -24l-9 43q54 24 114 24q63 0 97.5 -31t34.5 -86z" />
    <glyph glyph-name="three.dnom" horiz-adv-x="309" 
d="M174 208q47 36 47 78q0 58 -80 58q-53 0 -108 -24l-10 42q55 25 118 25q60 0 93.5 -25.5t33.5 -73.5q0 -56 -55 -98q67 -34 67 -95q0 -48 -35 -75.5t-99 -27.5q-57 0 -123 25l10 42q63 -24 113 -24q87 0 87 62q0 41 -56 70h-89l3 41h83z" />
    <glyph glyph-name="four.dnom" horiz-adv-x="342" 
d="M158 380q0 -79 -22.5 -137t-68.5 -113h129v99l46 4v-103h86l-4 -42h-82v-88h-46v88h-176l-4 42q49 55 72 115t23 135h47z" />
    <glyph glyph-name="five.dnom" horiz-adv-x="304" 
d="M91 213l50 3q141 0 141 -111q0 -53 -35.5 -83t-99.5 -30q-56 0 -120 26l10 43q56 -26 108 -26q38 0 64 16.5t26 54.5q0 34 -23.5 51.5t-82.5 17.5h-83v205h213l-2 -43h-166v-124z" />
    <glyph glyph-name="six.dnom" horiz-adv-x="339" 
d="M196 344q-108 0 -115 -154q70 33 124 33t84 -29t30 -84q0 -51 -37 -84.5t-104 -33.5q-63 0 -103.5 44t-40.5 137q0 101 40.5 157.5t120.5 56.5q54 0 106 -20l-12 -41q-50 18 -93 18zM202 182q-50 0 -120 -33q9 -114 97 -114q45 0 69.5 21.5t24.5 53.5q0 36 -19.5 54
t-51.5 18z" />
    <glyph glyph-name="seven.dnom" horiz-adv-x="284" 
d="M93 0q0 109 29.5 188t99.5 149h-212l4 43h257l3 -43q-76 -82 -105.5 -156.5t-29.5 -180.5h-46z" />
    <glyph glyph-name="eight.dnom" horiz-adv-x="350" 
d="M181 387q66 0 98.5 -28.5t32.5 -71.5q0 -36 -26 -58t-60 -38q102 -43 102 -105q0 -43 -37 -68.5t-110 -25.5q-74 0 -110.5 25.5t-36.5 68.5q0 62 102 105q-34 16 -60.5 38.5t-26.5 57.5q0 43 33 71.5t99 28.5zM181 212q34 14 59 30t25 43q0 26 -21 43.5t-63 17.5
t-63.5 -17.5t-21.5 -43.5q0 -27 25 -43t60 -30zM181 169l-36 -15q-65 -27 -65 -65q0 -26 26 -40.5t75 -14.5t75 14.5t26 40.5q0 22 -22.5 40.5t-78.5 39.5z" />
    <glyph glyph-name="nine.dnom" horiz-adv-x="339" 
d="M156 35q108 0 115 154q-66 -32 -124 -32q-53 0 -83.5 29t-30.5 84q0 51 37.5 84t103.5 33q63 0 104 -43.5t41 -137.5q0 -100 -40 -157t-121 -57q-51 0 -106 21l13 41q51 -19 91 -19zM150 197q49 0 121 34q-5 61 -32.5 87.5t-64.5 26.5q-45 0 -69.5 -22t-24.5 -54
q0 -36 19 -54t51 -18z" />
    <glyph glyph-name="onequarter" unicode="&#xbc;" horiz-adv-x="736" 
d="M287 364l-3 -42h-259l3 42h105v290l-108 -41v47l111 42h43v-338h108zM568 702h53l-425 -702h-54zM541 380q0 -79 -22.5 -137t-68.5 -113h129v99l46 4v-103h86l-4 -42h-82v-88h-46v88h-176l-4 42q49 55 72 115t23 135h47z" />
    <glyph glyph-name="onehalf" unicode="&#xbd;" horiz-adv-x="742" 
d="M287 364l-3 -42h-259l3 42h105v290l-108 -41v47l111 42h43v-338h108zM568 702h53l-425 -702h-54zM707 270q0 -48 -42 -98.5t-150 -129.5h202l-3 -42h-255l-3 42q128 101 165.5 145.5t37.5 81.5q0 75 -87 75q-52 0 -102 -24l-9 43q54 24 114 24q63 0 97.5 -31t34.5 -86z
" />
    <glyph glyph-name="threequarters" unicode="&#xbe;" horiz-adv-x="717" 
d="M176 530q47 36 47 78q0 58 -80 58q-53 0 -108 -24l-10 42q55 25 118 25q60 0 93.5 -25.5t33.5 -73.5q0 -56 -55 -98q67 -34 67 -95q0 -48 -35 -75.5t-99 -27.5q-57 0 -123 25l10 42q63 -24 113 -24q87 0 87 62q0 41 -56 70h-89l3 41h83zM540 702h53l-425 -702h-54z
M522 380q0 -79 -22.5 -137t-68.5 -113h129v99l46 4v-103h86l-4 -42h-82v-88h-46v88h-176l-4 42q49 55 72 115t23 135h47z" />
    <glyph glyph-name="oneeighth" unicode="&#x215b;" horiz-adv-x="755" 
d="M287 364l-3 -42h-259l3 42h105v290l-108 -41v47l111 42h43v-338h108zM568 702h53l-425 -702h-54zM583 387q66 0 98.5 -28.5t32.5 -71.5q0 -36 -26 -58t-60 -38q102 -43 102 -105q0 -43 -37 -68.5t-110 -25.5q-74 0 -110.5 25.5t-36.5 68.5q0 62 102 105
q-34 16 -60.5 38.5t-26.5 57.5q0 43 33 71.5t99 28.5zM583 212q34 14 59 30t25 43q0 26 -21 43.5t-63 17.5t-63.5 -17.5t-21.5 -43.5q0 -27 25 -43t60 -30zM583 169l-36 -15q-65 -27 -65 -65q0 -26 26 -40.5t75 -14.5t75 14.5t26 40.5q0 22 -22.5 40.5t-78.5 39.5z" />
    <glyph glyph-name="threeeighths" unicode="&#x215c;" horiz-adv-x="727" 
d="M176 530q47 36 47 78q0 58 -80 58q-53 0 -108 -24l-10 42q55 25 118 25q60 0 93.5 -25.5t33.5 -73.5q0 -56 -55 -98q67 -34 67 -95q0 -48 -35 -75.5t-99 -27.5q-57 0 -123 25l10 42q63 -24 113 -24q87 0 87 62q0 41 -56 70h-89l3 41h83zM540 702h53l-425 -702h-54z
M555 387q66 0 98.5 -28.5t32.5 -71.5q0 -36 -26 -58t-60 -38q102 -43 102 -105q0 -43 -37 -68.5t-110 -25.5q-74 0 -110.5 25.5t-36.5 68.5q0 62 102 105q-34 16 -60.5 38.5t-26.5 57.5q0 43 33 71.5t99 28.5zM555 212q34 14 59 30t25 43q0 26 -21 43.5t-63 17.5
t-63.5 -17.5t-21.5 -43.5q0 -27 25 -43t60 -30zM555 169l-36 -15q-65 -27 -65 -65q0 -26 26 -40.5t75 -14.5t75 14.5t26 40.5q0 22 -22.5 40.5t-78.5 39.5z" />
    <glyph glyph-name="fiveeighths" unicode="&#x215d;" horiz-adv-x="713" 
d="M89 535l50 3q141 0 141 -111q0 -53 -35.5 -83t-99.5 -30q-56 0 -120 26l10 43q56 -26 108 -26q38 0 64 16.5t26 54.5q0 34 -23.5 51.5t-82.5 17.5h-83v205h213l-2 -43h-166v-124zM526 702h53l-425 -702h-54zM541 387q66 0 98.5 -28.5t32.5 -71.5q0 -36 -26 -58t-60 -38
q102 -43 102 -105q0 -43 -37 -68.5t-110 -25.5q-74 0 -110.5 25.5t-36.5 68.5q0 62 102 105q-34 16 -60.5 38.5t-26.5 57.5q0 43 33 71.5t99 28.5zM541 212q34 14 59 30t25 43q0 26 -21 43.5t-63 17.5t-63.5 -17.5t-21.5 -43.5q0 -27 25 -43t60 -30zM541 169l-36 -15
q-65 -27 -65 -65q0 -26 26 -40.5t75 -14.5t75 14.5t26 40.5q0 22 -22.5 40.5t-78.5 39.5z" />
    <glyph glyph-name="seveneighths" unicode="&#x215e;" horiz-adv-x="692" 
d="M108 322q0 109 29.5 188t99.5 149h-212l4 43h257l3 -43q-76 -82 -105.5 -156.5t-29.5 -180.5h-46zM505 702h53l-425 -702h-54zM520 387q66 0 98.5 -28.5t32.5 -71.5q0 -36 -26 -58t-60 -38q102 -43 102 -105q0 -43 -37 -68.5t-110 -25.5q-74 0 -110.5 25.5t-36.5 68.5
q0 62 102 105q-34 16 -60.5 38.5t-26.5 57.5q0 43 33 71.5t99 28.5zM520 212q34 14 59 30t25 43q0 26 -21 43.5t-63 17.5t-63.5 -17.5t-21.5 -43.5q0 -27 25 -43t60 -30zM520 169l-36 -15q-65 -27 -65 -65q0 -26 26 -40.5t75 -14.5t75 14.5t26 40.5q0 22 -22.5 40.5
t-78.5 39.5z" />
    <glyph glyph-name="onethird" unicode="&#x2153;" horiz-adv-x="742" 
d="M287 364l-3 -42h-259l3 42h105v290l-108 -41v47l111 42h43v-338h108zM568 702h53l-425 -702h-54zM611 208q47 36 47 78q0 58 -80 58q-53 0 -108 -24l-10 42q55 25 118 25q60 0 93.5 -25.5t33.5 -73.5q0 -56 -55 -98q67 -34 67 -95q0 -48 -35 -75.5t-99 -27.5
q-57 0 -123 25l10 42q63 -24 113 -24q87 0 87 62q0 41 -56 70h-89l3 41h83z" />
    </font>
</defs>
</svg>
